<?xml version='1.0' encoding='UTF-8' standalone='no'?>
<!-- Created with Fritzing (http://www.fritzing.org/) -->
<svg xmlns="http://www.w3.org/2000/svg"  version="1.2" xmlns:svg="http://www.w3.org/2000/svg" viewBox="0 0 107.537 115.368" width="1.49357in" x="0in" height="1.60234in" y="0in" baseProfile="tiny">
 <g partID="57360">
  <g  id="board">
   <rect  id="boardoutline" fill="none" stroke="black" stroke-width="0.5" fill-opacity="0.5" width="106.961" height="114.792" x="0.288" y="0.288"/>
  </g>
 </g>
 <g partID="156100">
  <g transform="translate(11.952,2.88)">
   <g  id="groundplane">
    <g  id="connector0pad">
     <polygon  fill="black" stroke="none" stroke-width="0" points="0,0,0,1.44,0.144,1.44,0.144,1.584,0.288,1.584,0.288,1.728,0.576,1.728,0.576,2.016,0.72,2.016,0.72,2.16,0.864,2.16,0.864,2.304,33.552,2.304,33.552,2.448,58.608,2.448,58.608,0"/>
    </g>
   </g>
  </g>
 </g>
 <g partID="156110">
  <g transform="translate(2.88,2.88)">
   <g  id="groundplane">
    <polygon  fill="black" stroke="none" stroke-width="0" points="0,0,0,5.328,7.488,5.328,7.488,5.184,7.2,5.184,7.2,5.04,7.056,5.04,7.056,4.896,6.768,4.896,6.768,4.752,6.624,4.752,6.624,4.608,6.48,4.608,6.48,4.32,6.336,4.32,6.336,4.176,6.192,4.176,6.192,3.888,6.048,3.888,6.048,2.736,6.192,2.736,6.192,2.304,6.336,2.304,6.336,2.16,6.48,2.16,6.48,2.016,6.624,2.016,6.624,1.728,6.912,1.728,6.912,1.584,7.056,1.584,7.056,1.44,7.2,1.44,7.2,0"/>
    <polygon  fill="black" stroke="none" stroke-width="0" points="72,0,72,3.168,72.144,3.168,72.144,3.6,72.288,3.6,72.288,3.888,72.432,3.888,72.432,4.176,72.576,4.176,72.576,4.464,72.72,4.464,72.72,4.752,72.864,4.752,72.864,5.04,73.008,5.04,73.008,5.328,73.152,5.328,73.152,5.616,73.296,5.616,73.296,5.904,73.44,5.904,73.44,6.192,73.584,6.192,73.584,6.48,73.728,6.48,73.728,6.768,73.872,6.768,73.872,7.056,74.016,7.056,74.016,7.344,74.16,7.344,74.16,7.632,74.304,7.632,74.304,7.92,74.448,7.92,74.448,8.208,74.592,8.208,74.592,8.496,74.736,8.496,74.736,8.784,74.88,8.784,74.88,9.072,75.024,9.072,75.024,9.36,75.168,9.36,75.168,9.648,75.312,9.648,75.312,9.936,75.456,9.936,75.456,10.224,75.6,10.224,75.6,10.512,75.744,10.512,75.744,10.8,75.888,10.8,75.888,11.088,76.032,11.088,76.032,11.52,76.176,11.52,76.176,11.808,76.32,11.808,76.32,12.096,76.464,12.096,76.464,12.384,76.608,12.384,76.608,12.672,76.752,12.672,76.752,12.96,76.896,12.96,76.896,13.248,77.04,13.248,77.04,13.536,77.184,13.536,77.184,13.824,77.328,13.824,77.328,14.112,77.472,14.112,77.472,14.4,77.616,14.4,77.616,14.688,77.76,14.688,77.76,14.976,77.904,14.976,77.904,15.264,78.048,15.264,78.048,15.552,78.192,15.552,78.192,15.84,78.336,15.84,78.336,16.128,78.48,16.128,78.48,16.416,78.624,16.416,78.624,16.704,78.768,16.704,78.768,16.992,78.912,16.992,78.912,17.28,79.056,17.28,79.056,17.568,79.2,17.568,79.2,17.856,79.344,17.856,79.344,18.144,79.488,18.144,79.488,18.432,79.632,18.432,79.632,18.72,79.776,18.72,79.776,19.152,79.92,19.152,79.92,19.44,80.064,19.44,80.064,19.728,80.208,19.728,80.208,20.016,80.352,20.016,80.352,21.168,94.32,21.168,94.32,21.312,94.752,21.312,94.752,21.456,95.04,21.456,95.04,21.6,95.328,21.6,95.328,21.744,95.472,21.744,95.472,21.888,95.616,21.888,95.616,22.032,95.904,22.032,95.904,22.176,96.048,22.176,96.048,22.464,96.192,22.464,96.192,22.608,96.336,22.608,96.336,22.752,96.48,22.752,96.48,23.04,96.624,23.04,96.624,23.184,96.768,23.184,96.768,23.472,99.36,23.472,99.36,23.616,100.08,23.616,100.08,23.76,101.664,23.76,101.664,0"/>
    <polygon  fill="black" stroke="none" stroke-width="0" points="9.792,4.32,9.792,4.608,9.648,4.608,9.648,4.752,9.504,4.752,9.504,4.896,9.216,4.896,9.216,5.04,9.072,5.04,9.072,5.184,8.784,5.184,8.784,5.328,67.824,5.328,67.824,5.04,67.68,5.04,67.68,4.896,67.536,4.896,67.536,4.608,67.392,4.608,67.392,4.464,42.336,4.464,42.336,4.32"/>
    <polygon  fill="black" stroke="none" stroke-width="0" points="0,5.328,0,5.472,67.968,5.472,67.968,5.328"/>
    <polygon  fill="black" stroke="none" stroke-width="0" points="0,5.328,0,5.472,67.968,5.472,67.968,5.328"/>
    <polygon  fill="black" stroke="none" stroke-width="0" points="0,5.472,0,11.088,17.136,11.088,17.136,11.232,17.568,11.232,17.568,11.376,17.856,11.376,17.856,11.52,18,11.52,18,11.664,18.144,11.664,18.144,11.808,18.288,11.808,18.288,11.952,18.432,11.952,18.432,12.096,18.576,12.096,18.576,12.384,18.72,12.384,18.72,12.672,18.864,12.672,18.864,13.824,18.72,13.824,18.72,14.112,18.576,14.112,18.576,14.4,18.432,14.4,18.432,14.544,18.288,14.544,18.288,14.688,18.144,14.688,18.144,14.832,18,14.832,18,14.976,17.856,14.976,17.856,29.088,18,29.088,18,36,78.768,36,78.768,35.856,78.48,35.856,78.48,35.712,78.192,35.712,78.192,35.568,78.048,35.568,78.048,35.424,77.904,35.424,77.904,35.28,77.76,35.28,77.76,35.136,77.616,35.136,77.616,34.992,77.472,34.992,77.472,34.704,77.328,34.704,77.328,34.416,77.184,34.416,77.184,33.408,77.328,33.408,77.328,33.12,77.472,33.12,77.472,32.832,77.616,32.832,77.616,32.688,77.76,32.688,77.76,32.544,77.904,32.544,77.904,32.4,78.048,32.4,78.048,32.256,78.192,32.256,78.192,32.112,78.336,32.112,78.336,25.2,76.752,25.2,76.752,25.056,76.32,25.056,76.32,24.912,76.176,24.912,76.176,24.768,75.888,24.768,75.888,24.624,75.744,24.624,75.744,24.48,75.6,24.48,75.6,24.336,75.456,24.336,75.456,24.048,75.312,24.048,75.312,23.904,75.168,23.904,75.168,23.472,75.024,23.472,75.024,22.608,75.168,22.608,75.168,20.88,75.024,20.88,75.024,20.592,74.88,20.592,74.88,20.304,74.736,20.304,74.736,20.016,74.592,20.016,74.592,19.584,74.448,19.584,74.448,19.296,74.304,19.296,74.304,19.008,74.16,19.008,74.16,18.72,74.016,18.72,74.016,18.432,73.872,18.432,73.872,18,73.728,18,73.728,17.712,73.584,17.712,73.584,17.424,73.44,17.424,73.44,17.136,73.296,17.136,73.296,16.704,73.152,16.704,73.152,16.416,73.008,16.416,73.008,16.128,72.864,16.128,72.864,15.84,72.72,15.84,72.72,15.552,72.576,15.552,72.576,15.12,72.432,15.12,72.432,14.832,72.288,14.832,72.288,14.544,72.144,14.544,72.144,14.256,72,14.256,72,13.968,71.856,13.968,71.856,13.536,71.712,13.536,71.712,13.248,71.568,13.248,71.568,12.96,71.424,12.96,71.424,12.672,71.28,12.672,71.28,12.24,71.136,12.24,71.136,11.952,70.992,11.952,70.992,11.664,70.848,11.664,70.848,11.376,70.704,11.376,70.704,11.088,70.56,11.088,70.56,10.656,70.416,10.656,70.416,10.368,70.272,10.368,70.272,10.08,70.128,10.08,70.128,9.792,69.984,9.792,69.984,9.36,69.84,9.36,69.84,9.072,69.696,9.072,69.696,8.784,69.552,8.784,69.552,8.496,69.408,8.496,69.408,8.208,69.264,8.208,69.264,7.92,69.12,7.92,69.12,7.632,68.976,7.632,68.976,7.344,68.832,7.344,68.832,7.056,68.688,7.056,68.688,6.768,68.544,6.768,68.544,6.48,68.4,6.48,68.4,6.192,68.256,6.192,68.256,5.904,68.112,5.904,68.112,5.616,67.968,5.616,67.968,5.472"/>
    <polygon  fill="black" stroke="none" stroke-width="0" points="0,11.088,0,20.304,10.656,20.304,10.656,20.448,11.088,20.448,11.088,20.592,11.52,20.592,11.52,20.736,11.808,20.736,11.808,20.88,12.096,20.88,12.096,21.024,12.24,21.024,12.24,21.168,12.384,21.168,12.384,21.312,12.528,21.312,12.528,21.456,12.672,21.456,12.672,21.6,12.816,21.6,12.816,21.744,12.96,21.744,12.96,21.888,13.104,21.888,13.104,22.032,13.248,22.032,13.248,22.32,13.392,22.32,13.392,22.608,13.536,22.608,13.536,23.04,13.68,23.04,13.68,23.616,13.824,23.616,13.824,24.192,13.68,24.192,13.68,24.768,13.536,24.768,13.536,25.2,13.392,25.2,13.392,25.344,13.248,25.344,13.248,25.632,13.104,25.632,13.104,25.92,12.96,25.92,12.96,26.064,12.816,26.064,12.816,27.504,13.68,27.504,13.68,27.648,13.824,27.648,13.824,34.56,15.984,34.56,15.984,29.232,15.84,29.232,15.84,14.976,15.552,14.976,15.552,14.832,15.408,14.832,15.408,14.688,15.264,14.688,15.264,14.544,15.12,14.544,15.12,14.4,14.976,14.4,14.976,14.112,14.832,14.112,14.832,13.824,14.688,13.824,14.688,12.672,14.832,12.672,14.832,12.384,14.976,12.384,14.976,12.096,15.12,12.096,15.12,11.952,15.264,11.952,15.264,11.808,15.408,11.808,15.408,11.664,15.552,11.664,15.552,11.52,15.696,11.52,15.696,11.376,15.984,11.376,15.984,11.232,16.416,11.232,16.416,11.088"/>
    <polygon  fill="black" stroke="none" stroke-width="0" points="0,20.304,0,34.56,6.768,34.56,6.768,27.504,7.632,27.504,7.632,25.92,7.488,25.92,7.488,25.776,7.344,25.776,7.344,25.632,7.2,25.632,7.2,25.344,7.056,25.344,7.056,25.056,6.912,25.056,6.912,24.624,6.768,24.624,6.768,23.04,6.912,23.04,6.912,22.752,7.056,22.752,7.056,22.464,7.2,22.464,7.2,22.176,7.344,22.176,7.344,21.888,7.488,21.888,7.488,21.744,7.632,21.744,7.632,21.6,7.776,21.6,7.776,21.456,7.92,21.456,7.92,21.312,8.064,21.312,8.064,21.168,8.208,21.168,8.208,21.024,8.496,21.024,8.496,20.88,8.64,20.88,8.64,20.736,8.928,20.736,8.928,20.592,9.36,20.592,9.36,20.448,9.936,20.448,9.936,20.304"/>
    <polygon  fill="black" stroke="none" stroke-width="0" points="80.352,21.168,80.352,32.112,80.496,32.112,80.496,32.256,80.64,32.256,80.64,32.4,80.784,32.4,80.784,32.544,80.928,32.544,80.928,32.688,81.072,32.688,81.072,32.976,81.216,32.976,81.216,33.264,81.36,33.264,81.36,33.84,81.504,33.84,81.504,33.984,81.36,33.984,81.36,34.56,81.216,34.56,81.216,34.848,81.072,34.848,81.072,35.136,80.928,35.136,80.928,35.28,80.784,35.28,80.784,35.424,90,35.424,90,28.368,91.008,28.368,91.008,26.784,90.864,26.784,90.864,26.64,90.72,26.64,90.72,26.496,90.576,26.496,90.576,26.208,90.432,26.208,90.432,25.92,90.288,25.92,90.288,25.632,90.144,25.632,90.144,25.056,90,25.056,90,24.192,90.144,24.192,90.144,23.616,90.288,23.616,90.288,23.328,90.432,23.328,90.432,23.04,90.576,23.04,90.576,22.752,90.72,22.752,90.72,22.608,90.864,22.608,90.864,22.464,91.008,22.464,91.008,22.32,91.152,22.32,91.152,22.176,91.296,22.176,91.296,22.032,91.44,22.032,91.44,21.888,91.584,21.888,91.584,21.744,91.872,21.744,91.872,21.6,92.016,21.6,92.016,21.456,92.304,21.456,92.304,21.312,92.736,21.312,92.736,21.168"/>
    <polygon  fill="black" stroke="none" stroke-width="0" points="96.624,26.064,96.624,26.352,96.48,26.352,96.48,26.496,96.336,26.496,96.336,26.784,96.192,26.784,96.192,26.928,96.048,26.928,96.048,28.368,97.056,28.368,97.056,35.424,100.224,35.424,100.224,28.944,100.08,28.944,100.08,28.08,99.936,28.08,99.936,27.936,99.792,27.936,99.792,27.648,99.648,27.648,99.648,27.36,99.504,27.36,99.504,27.216,99.36,27.216,99.36,26.928,99.216,26.928,99.216,26.64,99.072,26.64,99.072,26.352,98.928,26.352,98.928,26.208,98.784,26.208,98.784,26.064"/>
    <polygon  fill="black" stroke="none" stroke-width="0" points="0,34.56,0,34.704,15.984,34.704,15.984,34.56"/>
    <polygon  fill="black" stroke="none" stroke-width="0" points="0,34.56,0,34.704,15.984,34.704,15.984,34.56"/>
    <polygon  fill="black" stroke="none" stroke-width="0" points="0,34.704,0,41.616,16.704,41.616,16.704,41.472,16.272,41.472,16.272,41.328,15.984,41.328,15.984,41.184,15.84,41.184,15.84,41.04,15.696,41.04,15.696,40.896,15.552,40.896,15.552,40.752,15.408,40.752,15.408,40.608,15.264,40.608,15.264,40.464,15.12,40.464,15.12,40.176,14.976,40.176,14.976,39.6,14.832,39.6,14.832,39.312,14.976,39.312,14.976,38.736,15.12,38.736,15.12,38.448,15.264,38.448,15.264,38.304,15.408,38.304,15.408,38.16,15.552,38.16,15.552,38.016,15.696,38.016,15.696,37.872,15.84,37.872,15.84,37.728,15.984,37.728,15.984,34.704"/>
    <polygon  fill="black" stroke="none" stroke-width="0" points="80.64,35.424,80.64,35.568,100.224,35.568,100.224,35.424"/>
    <polygon  fill="black" stroke="none" stroke-width="0" points="80.64,35.424,80.64,35.568,100.224,35.568,100.224,35.424"/>
    <polygon  fill="black" stroke="none" stroke-width="0" points="80.496,35.568,80.496,35.712,80.208,35.712,80.208,35.856,79.92,35.856,79.92,36,100.224,36,100.224,35.568"/>
    <polygon  fill="black" stroke="none" stroke-width="0" points="18,36,18,36.144,100.224,36.144,100.224,36"/>
    <polygon  fill="black" stroke="none" stroke-width="0" points="18,36,18,36.144,100.224,36.144,100.224,36"/>
    <polygon  fill="black" stroke="none" stroke-width="0" points="18,36.144,18,37.728,18.288,37.728,18.288,37.872,18.432,37.872,18.432,38.016,18.576,38.016,18.576,38.16,18.72,38.16,18.72,38.448,18.864,38.448,18.864,38.592,19.008,38.592,19.008,39.024,19.152,39.024,19.152,39.888,19.008,39.888,19.008,40.32,18.864,40.32,18.864,40.464,18.72,40.464,18.72,40.752,18.576,40.752,18.576,40.896,18.432,40.896,18.432,41.04,18.288,41.04,18.288,41.184,18,41.184,18,41.328,17.712,41.328,17.712,41.472,17.28,41.472,17.28,41.616,100.224,41.616,100.224,36.144"/>
    <polygon  fill="black" stroke="none" stroke-width="0" points="0,41.616,0,41.76,100.224,41.76,100.224,41.616"/>
    <polygon  fill="black" stroke="none" stroke-width="0" points="0,41.616,0,41.76,100.224,41.76,100.224,41.616"/>
    <polygon  fill="black" stroke="none" stroke-width="0" points="0,41.76,0,45.504,38.736,45.504,38.736,45.648,39.024,45.648,39.024,45.792,39.312,45.792,39.312,45.936,39.456,45.936,39.456,46.08,39.6,46.08,39.6,46.224,39.744,46.224,39.744,46.368,39.888,46.368,39.888,46.512,40.032,46.512,40.032,46.656,44.64,46.656,44.64,46.8,51.984,46.8,51.984,46.944,59.328,46.944,59.328,47.088,64.368,47.088,64.368,47.232,64.656,47.232,64.656,47.376,64.8,47.376,64.8,47.52,64.944,47.52,64.944,47.664,65.088,47.664,65.088,47.808,65.232,47.808,65.232,47.952,65.376,47.952,65.376,48.24,65.52,48.24,65.52,48.384,65.664,48.384,65.664,48.528,65.808,48.528,65.808,48.672,65.952,48.672,65.952,48.816,66.096,48.816,66.096,49.104,66.24,49.104,66.24,49.248,66.384,49.248,66.384,49.392,66.528,49.392,66.528,49.536,66.672,49.536,66.672,49.824,66.816,49.824,66.816,49.968,66.96,49.968,66.96,50.112,67.104,50.112,67.104,50.256,67.248,50.256,67.248,50.544,67.392,50.544,67.392,50.832,67.536,50.832,67.536,52.704,67.392,52.704,67.392,57.312,67.248,57.312,67.248,59.184,94.752,59.184,94.752,59.328,95.04,59.328,95.04,59.472,95.328,59.472,95.328,59.616,95.472,59.616,95.472,59.76,95.616,59.76,95.616,59.904,95.76,59.904,95.76,60.048,95.904,60.048,95.904,60.336,96.048,60.336,96.048,60.624,96.192,60.624,96.192,61.92,96.048,61.92,96.048,62.208,95.904,62.208,95.904,62.352,95.76,62.352,95.76,62.496,95.616,62.496,95.616,62.784,95.472,62.784,95.472,64.944,95.328,64.944,95.328,65.376,95.184,65.376,95.184,65.664,95.04,65.664,95.04,65.808,94.896,65.808,94.896,65.952,94.608,65.952,94.608,66.096,87.84,66.096,87.84,66.24,87.696,66.24,87.696,66.384,87.552,66.384,87.552,66.672,87.408,66.672,87.408,66.816,87.264,66.816,87.264,66.96,87.12,66.96,87.12,67.248,86.976,67.248,86.976,67.392,86.832,67.392,86.832,67.536,86.688,67.536,86.688,67.824,86.544,67.824,86.544,67.968,86.4,67.968,86.4,68.112,86.256,68.112,86.256,68.4,86.112,68.4,86.112,68.544,85.968,68.544,85.968,68.688,85.824,68.688,85.824,68.976,85.68,68.976,85.68,69.12,85.536,69.12,85.536,69.264,85.392,69.264,85.392,77.76,94.032,77.76,94.032,77.904,94.608,77.904,94.608,78.048,94.896,78.048,94.896,78.192,95.184,78.192,95.184,78.336,95.472,78.336,95.472,78.48,95.616,78.48,95.616,78.624,95.76,78.624,95.76,78.768,95.904,78.768,95.904,78.912,96.048,78.912,96.048,79.056,96.192,79.056,96.192,79.2,96.336,79.2,96.336,79.344,96.48,79.344,96.48,79.632,96.624,79.632,96.624,79.92,96.768,79.92,96.768,80.208,96.912,80.208,96.912,80.64,97.056,80.64,97.056,82.08,96.912,82.08,96.912,82.368,96.768,82.368,96.768,82.8,96.624,82.8,96.624,82.944,96.48,82.944,96.48,83.232,96.336,83.232,96.336,83.376,96.192,83.376,96.192,83.52,96.048,83.52,96.048,84.96,97.056,84.96,97.056,92.016,100.656,92.016,100.656,86.112,100.512,86.112,100.512,67.104,100.368,67.104,100.368,48.096,100.224,48.096,100.224,41.76"/>
    <polygon  fill="black" stroke="none" stroke-width="0" points="0,45.504,0,49.68,37.584,49.68,37.584,49.536,37.296,49.536,37.296,49.392,37.008,49.392,37.008,49.248,36.864,49.248,36.864,49.104,36.72,49.104,36.72,48.96,36.576,48.96,36.576,48.816,36.432,48.816,36.432,48.672,36.288,48.672,36.288,48.384,36.144,48.384,36.144,47.952,36,47.952,36,47.376,36.144,47.376,36.144,46.944,36.288,46.944,36.288,46.656,36.432,46.656,36.432,46.368,36.576,46.368,36.576,46.224,36.72,46.224,36.72,46.08,36.864,46.08,36.864,45.936,37.008,45.936,37.008,45.792,37.296,45.792,37.296,45.648,37.584,45.648,37.584,45.504"/>
    <polygon  fill="black" stroke="none" stroke-width="0" points="39.888,48.672,39.888,48.816,39.744,48.816,39.744,48.96,39.6,48.96,39.6,49.104,39.456,49.104,39.456,49.248,39.312,49.248,39.312,49.392,39.024,49.392,39.024,49.536,38.736,49.536,38.736,49.68,64.08,49.68,64.08,49.536,63.936,49.536,63.936,49.392,63.792,49.392,63.792,49.248,63.648,49.248,63.648,49.104,59.328,49.104,59.328,48.96,51.984,48.96,51.984,48.816,44.496,48.816,44.496,48.672"/>
    <polygon  fill="black" stroke="none" stroke-width="0" points="0,49.68,0,49.824,64.08,49.824,64.08,49.68"/>
    <polygon  fill="black" stroke="none" stroke-width="0" points="0,49.68,0,49.824,64.08,49.824,64.08,49.68"/>
    <polygon  fill="black" stroke="none" stroke-width="0" points="0,49.824,0,53.856,59.04,53.856,59.04,54,59.328,54,59.328,54.144,59.616,54.144,59.616,54.288,59.76,54.288,59.76,54.432,59.904,54.432,59.904,54.576,60.048,54.576,60.048,54.72,60.192,54.72,60.192,54.864,60.336,54.864,60.336,55.152,60.48,55.152,60.48,55.44,60.624,55.44,60.624,56.448,60.48,56.448,60.48,56.88,60.336,56.88,60.336,57.024,60.192,57.024,60.192,57.168,60.048,57.168,60.048,57.456,59.76,57.456,59.76,57.6,59.616,57.6,59.616,57.744,59.472,57.744,59.472,57.888,59.184,57.888,59.184,58.032,65.232,58.032,65.232,57.168,65.376,57.168,65.376,51.264,65.232,51.264,65.232,50.976,65.088,50.976,65.088,50.832,64.944,50.832,64.944,50.688,64.8,50.688,64.8,50.544,64.656,50.544,64.656,50.256,64.512,50.256,64.512,50.112,64.368,50.112,64.368,49.968,64.224,49.968,64.224,49.824"/>
    <polygon  fill="black" stroke="none" stroke-width="0" points="0,53.856,0,68.544,10.512,68.544,10.512,68.688,10.944,68.688,10.944,68.832,11.376,68.832,11.376,68.976,11.52,68.976,11.52,69.12,11.808,69.12,11.808,69.264,11.952,69.264,11.952,69.408,12.24,69.408,12.24,69.552,12.384,69.552,12.384,69.696,12.528,69.696,12.528,69.984,12.672,69.984,12.672,70.128,12.816,70.128,12.816,70.272,12.96,70.272,12.96,70.56,13.104,70.56,13.104,70.704,19.872,70.704,19.872,70.848,38.16,70.848,38.16,70.992,47.088,70.992,47.088,71.136,47.376,71.136,47.376,71.28,47.52,71.28,47.52,71.424,47.664,71.424,47.664,71.568,47.808,71.568,47.808,71.712,47.952,71.712,47.952,71.856,48.096,71.856,48.096,72.144,48.24,72.144,48.24,72.288,48.384,72.288,48.384,72.432,48.528,72.432,48.528,72.576,49.968,72.576,49.968,71.712,49.824,71.712,49.824,66.528,49.68,66.528,49.68,62.064,49.536,62.064,49.536,61.92,49.392,61.92,49.392,61.776,49.248,61.776,49.248,61.632,49.104,61.632,49.104,61.488,48.96,61.488,48.96,61.2,48.816,61.2,48.816,60.912,48.672,60.912,48.672,60.336,48.528,60.336,48.528,60.192,48.672,60.192,48.672,59.616,48.816,59.616,48.816,59.328,48.96,59.328,48.96,59.184,49.104,59.184,49.104,58.896,49.248,58.896,49.248,58.752,49.392,58.752,49.392,58.608,49.68,58.608,49.68,58.464,49.824,58.464,49.824,58.32,50.256,58.32,50.256,58.176,50.4,58.176,50.4,57.888,50.544,57.888,50.544,57.6,50.688,57.6,50.688,57.168,50.832,57.168,50.832,56.88,50.976,56.88,50.976,56.448,51.12,56.448,51.12,56.16,51.264,56.16,51.264,55.872,51.408,55.872,51.408,55.728,51.552,55.728,51.552,55.584,51.84,55.584,51.84,55.44,52.992,55.44,52.992,55.296,54.432,55.296,54.432,55.152,55.872,55.152,55.872,55.008,56.736,55.008,56.736,54.864,56.88,54.864,56.88,54.576,57.024,54.576,57.024,54.432,57.168,54.432,57.168,54.288,57.456,54.288,57.456,54.144,57.6,54.144,57.6,54,58.032,54,58.032,53.856"/>
    <polygon  fill="black" stroke="none" stroke-width="0" points="54.576,57.456,54.576,57.6,53.136,57.6,53.136,57.744,52.992,57.744,52.992,58.032,57.888,58.032,57.888,57.888,57.6,57.888,57.6,57.744,57.312,57.744,57.312,57.6,57.168,57.6,57.168,57.456"/>
    <polygon  fill="black" stroke="none" stroke-width="0" points="52.848,58.032,52.848,58.176,65.232,58.176,65.232,58.032"/>
    <polygon  fill="black" stroke="none" stroke-width="0" points="52.848,58.032,52.848,58.176,65.232,58.176,65.232,58.032"/>
    <polygon  fill="black" stroke="none" stroke-width="0" points="52.848,58.176,52.848,58.32,52.704,58.32,52.704,59.76,52.848,59.76,52.848,60.768,52.704,60.768,52.704,61.2,52.56,61.2,52.56,61.344,52.416,61.344,52.416,61.488,52.272,61.488,52.272,61.776,51.984,61.776,51.984,66.528,52.128,66.528,52.128,69.408,65.52,69.408,65.52,69.264,65.088,69.264,65.088,69.12,64.944,69.12,64.944,68.976,64.8,68.976,64.8,68.832,64.512,68.832,64.512,68.688,64.368,68.688,64.368,68.4,64.224,68.4,64.224,68.256,64.08,68.256,64.08,67.968,63.936,67.968,63.936,67.392,63.792,67.392,63.792,67.248,63.936,67.248,63.936,66.672,64.08,66.672,64.08,66.384,64.224,66.384,64.224,66.096,64.368,66.096,64.368,65.952,64.512,65.952,64.512,65.808,64.656,65.808,64.656,65.664,64.8,65.664,64.8,65.52,65.088,65.52,65.088,61.776,65.232,61.776,65.232,58.176"/>
    <polygon  fill="black" stroke="none" stroke-width="0" points="67.248,59.184,67.248,61.776,67.104,61.776,67.104,65.664,67.392,65.664,67.392,65.808,67.536,65.808,67.536,66.096,67.68,66.096,67.68,66.24,67.824,66.24,67.824,66.384,67.968,66.384,67.968,66.816,68.112,66.816,68.112,67.824,67.968,67.824,67.968,68.112,67.824,68.112,67.824,68.4,67.68,68.4,67.68,68.544,67.536,68.544,67.536,68.688,67.392,68.688,67.392,68.832,67.248,68.832,67.248,68.976,67.104,68.976,67.104,69.12,66.816,69.12,66.816,69.264,66.528,69.264,66.528,69.408,82.8,69.408,82.8,68.544,82.944,68.544,82.944,68.256,83.088,68.256,83.088,67.968,83.232,67.968,83.232,67.824,83.376,67.824,83.376,67.68,83.52,67.68,83.52,67.392,83.664,67.392,83.664,67.248,83.808,67.248,83.808,67.104,83.952,67.104,83.952,66.96,84.096,66.96,84.096,66.672,84.24,66.672,84.24,66.528,84.384,66.528,84.384,66.384,84.528,66.384,84.528,66.096,84.672,66.096,84.672,65.952,84.816,65.952,84.816,65.808,84.96,65.808,84.96,65.52,85.104,65.52,85.104,65.376,85.248,65.376,85.248,65.232,85.392,65.232,85.392,64.944,85.536,64.944,85.536,64.8,85.68,64.8,85.68,64.656,85.824,64.656,85.824,64.512,85.968,64.512,85.968,64.224,86.112,64.224,86.112,64.08,86.256,64.08,86.256,63.936,86.4,63.936,86.4,63.792,86.544,63.792,86.544,63.648,86.832,63.648,86.832,63.504,92.304,63.504,92.304,62.064,92.16,62.064,92.16,61.776,92.016,61.776,92.016,60.768,92.16,60.768,92.16,60.336,92.304,60.336,92.304,60.192,92.448,60.192,92.448,59.904,92.592,59.904,92.592,59.76,92.736,59.76,92.736,59.616,93.024,59.616,93.024,59.472,93.168,59.472,93.168,59.328,93.456,59.328,93.456,59.184"/>
    <polygon  fill="black" stroke="none" stroke-width="0" points="0,68.544,0,69.84,2.16,69.84,2.16,69.984,2.448,69.984,2.448,70.128,2.736,70.128,2.736,70.272,2.88,70.272,2.88,70.416,3.024,70.416,3.024,70.56,3.168,70.56,3.168,70.704,6.768,70.704,6.768,70.56,6.912,70.56,6.912,70.416,7.056,70.416,7.056,70.128,7.2,70.128,7.2,69.984,7.344,69.984,7.344,69.84,7.488,69.84,7.488,69.696,7.632,69.696,7.632,69.552,7.776,69.552,7.776,69.408,7.92,69.408,7.92,69.264,8.064,69.264,8.064,69.12,8.352,69.12,8.352,68.976,8.64,68.976,8.64,68.832,8.928,68.832,8.928,68.688,9.36,68.688,9.36,68.544"/>
    <polygon  fill="black" stroke="none" stroke-width="0" points="52.128,69.408,52.128,69.552,82.8,69.552,82.8,69.408"/>
    <polygon  fill="black" stroke="none" stroke-width="0" points="52.128,69.408,52.128,69.552,82.8,69.552,82.8,69.408"/>
    <polygon  fill="black" stroke="none" stroke-width="0" points="52.128,69.552,52.128,71.712,52.272,71.712,52.272,76.608,52.416,76.608,52.416,77.184,52.56,77.184,52.56,77.328,52.416,77.328,52.416,83.808,52.56,83.808,52.56,90.864,52.704,90.864,52.704,97.2,52.992,97.2,52.992,97.344,53.28,97.344,53.28,97.488,53.424,97.488,53.424,97.632,53.712,97.632,53.712,97.776,53.856,97.776,53.856,97.92,54,97.92,54,98.064,54.144,98.064,54.144,98.208,54.288,98.208,54.288,98.352,54.432,98.352,54.432,98.496,54.576,98.496,54.576,98.784,54.72,98.784,54.72,99.072,54.864,99.072,54.864,99.36,55.008,99.36,55.008,99.648,55.152,99.648,55.152,101.232,55.008,101.232,55.008,101.664,54.864,101.664,54.864,101.952,54.72,101.952,54.72,102.528,83.808,102.528,83.808,102.384,83.232,102.384,83.232,102.24,82.944,102.24,82.944,102.096,82.8,102.096,82.8,101.952,82.656,101.952,82.656,101.808,82.368,101.808,82.368,101.52,82.224,101.52,82.224,101.376,82.08,101.376,82.08,101.088,81.936,101.088,81.936,100.8,81.792,100.8,81.792,99.936,81.936,99.936,81.936,99.504,82.08,99.504,82.08,99.216,82.224,99.216,82.224,99.072,82.368,99.072,82.368,98.928,82.512,98.928,82.512,98.784,82.656,98.784,82.656,98.64,82.8,98.64,82.8,69.552"/>
    <polygon  fill="black" stroke="none" stroke-width="0" points="85.392,77.76,85.392,92.016,90,92.016,90,84.96,91.008,84.96,91.008,83.52,90.864,83.52,90.864,83.376,90.72,83.376,90.72,83.088,90.576,83.088,90.576,82.944,90.432,82.944,90.432,82.656,90.288,82.656,90.288,82.224,90.144,82.224,90.144,81.792,90,81.792,90,80.928,90.144,80.928,90.144,80.352,90.288,80.352,90.288,79.92,90.432,79.92,90.432,79.776,90.576,79.776,90.576,79.488,90.72,79.488,90.72,79.344,90.864,79.344,90.864,79.2,91.008,79.2,91.008,78.912,91.152,78.912,91.152,78.768,91.296,78.768,91.296,78.624,91.584,78.624,91.584,78.48,91.728,78.48,91.728,78.336,92.016,78.336,92.016,78.192,92.16,78.192,92.16,78.048,92.592,78.048,92.592,77.904,93.024,77.904,93.024,77.76"/>
    <polygon  fill="black" stroke="none" stroke-width="0" points="85.392,92.016,85.392,92.16,100.656,92.16,100.656,92.016"/>
    <polygon  fill="black" stroke="none" stroke-width="0" points="85.392,92.016,85.392,92.16,100.656,92.16,100.656,92.016"/>
    <polygon  fill="black" stroke="none" stroke-width="0" points="85.392,92.16,85.392,98.928,85.536,98.928,85.536,99.072,85.68,99.072,85.68,99.36,85.824,99.36,85.824,99.504,85.968,99.504,85.968,99.792,86.112,99.792,86.112,100.224,86.256,100.224,86.256,100.368,86.112,100.368,86.112,100.944,85.968,100.944,85.968,101.088,85.824,101.088,85.824,101.376,85.68,101.376,85.68,101.52,85.536,101.52,85.536,101.664,85.392,101.664,85.392,101.808,85.248,101.808,85.248,101.952,85.104,101.952,85.104,102.096,84.816,102.096,84.816,102.24,84.672,102.24,84.672,102.384,84.096,102.384,84.096,102.528,100.656,102.528,100.656,92.16"/>
    <polygon  fill="black" stroke="none" stroke-width="0" points="54.72,102.528,54.72,102.672,100.656,102.672,100.656,102.528"/>
    <polygon  fill="black" stroke="none" stroke-width="0" points="54.72,102.528,54.72,102.672,100.656,102.672,100.656,102.528"/>
    <polygon  fill="black" stroke="none" stroke-width="0" points="54.72,102.672,54.72,103.392,54.864,103.392,54.864,103.68,55.008,103.68,55.008,103.968,55.152,103.968,55.152,104.256,55.296,104.256,55.296,104.4,55.44,104.4,55.44,104.688,55.584,104.688,55.584,104.976,99.36,104.976,99.36,104.832,99.504,104.832,99.504,104.688,99.648,104.688,99.648,104.544,99.792,104.544,99.792,104.256,99.936,104.256,99.936,104.112,100.08,104.112,100.08,103.968,100.224,103.968,100.224,103.824,100.368,103.824,100.368,103.536,100.512,103.536,100.512,103.392,100.656,103.392,100.656,102.672"/>
    <g  id="connector0pad">
     <circle  r="2.7" fill="black" stroke="none" stroke-width="0" cx="77.4648" cy="5.273"/>
    </g>
   </g>
  </g>
 </g>
 <g partID="156120">
  <g transform="translate(2.88,76.176)">
   <g  id="groundplane">
    <polygon  fill="black" stroke="none" stroke-width="0" points="3.024,0,3.024,0.144,2.88,0.144,2.88,0.288,2.736,0.288,2.736,0.432,2.448,0.432,2.448,0.576,2.16,0.576,2.16,0.72,0,0.72,0,9.504,6.48,9.504,6.48,2.448,7.488,2.448,7.488,1.008,7.344,1.008,7.344,0.864,7.2,0.864,7.2,0.72,7.056,0.72,7.056,0.432,6.912,0.432,6.912,0.288,6.768,0.288,6.768,0"/>
    <polygon  fill="black" stroke="none" stroke-width="0" points="13.104,0,13.104,0.288,12.96,0.288,12.96,0.576,12.816,0.576,12.816,0.72,12.672,0.72,12.672,0.864,12.528,0.864,12.528,2.448,13.536,2.448,13.536,9.504,50.112,9.504,50.112,4.608,49.968,4.608,49.968,4.464,49.824,4.464,49.824,4.32,49.68,4.32,49.68,4.176,49.536,4.176,49.536,4.032,49.392,4.032,49.392,3.888,49.248,3.888,49.248,3.6,49.104,3.6,49.104,3.456,48.96,3.456,48.96,3.312,48.816,3.312,48.816,3.168,48.672,3.168,48.672,3.024,48.528,3.024,48.528,2.88,48.384,2.88,48.384,2.736,48.24,2.736,48.24,2.592,48.096,2.592,48.096,2.448,47.952,2.448,47.952,2.304,47.808,2.304,47.808,2.16,47.664,2.16,47.664,2.016,47.52,2.016,47.52,1.872,47.376,1.872,47.376,1.584,47.232,1.584,47.232,1.44,47.088,1.44,47.088,1.296,46.944,1.296,46.944,1.152,46.8,1.152,46.8,1.008,46.656,1.008,46.656,0.864,46.512,0.864,46.512,0.72,46.368,0.72,46.368,0.576,46.224,0.576,46.224,0.432,46.08,0.432,46.08,0.288,38.016,0.288,38.016,0.144,19.728,0.144,19.728,0"/>
    <polygon  fill="black" stroke="none" stroke-width="0" points="0,9.504,0,9.648,50.112,9.648,50.112,9.504"/>
    <polygon  fill="black" stroke="none" stroke-width="0" points="0,9.504,0,9.648,50.112,9.648,50.112,9.504"/>
    <polygon  fill="black" stroke="none" stroke-width="0" points="0,9.648,0,23.616,44.784,23.616,44.784,23.76,45.36,23.76,45.36,23.904,45.792,23.904,45.792,24.048,46.08,24.048,46.08,24.192,46.224,24.192,46.224,24.336,46.512,24.336,46.512,24.48,46.656,24.48,46.656,24.624,46.8,24.624,46.8,24.768,46.944,24.768,46.944,24.912,47.088,24.912,47.088,25.056,47.232,25.056,47.232,25.2,47.376,25.2,47.376,25.344,48.816,25.344,48.816,25.2,48.96,25.2,48.96,25.056,49.104,25.056,49.104,24.912,49.248,24.912,49.248,24.768,49.392,24.768,49.392,24.624,49.536,24.624,49.536,24.48,49.68,24.48,49.68,24.336,49.824,24.336,49.824,24.192,50.112,24.192,50.112,24.048,50.4,24.048,50.4,17.568,50.256,17.568,50.256,10.656,50.112,10.656,50.112,9.648"/>
    <polygon  fill="black" stroke="none" stroke-width="0" points="0,23.616,0,30.672,43.632,30.672,43.632,30.528,43.344,30.528,43.344,30.384,43.056,30.384,43.056,30.24,42.768,30.24,42.768,30.096,42.48,30.096,42.48,29.952,42.336,29.952,42.336,29.808,42.192,29.808,42.192,29.664,42.048,29.664,42.048,29.52,41.904,29.52,41.904,29.376,41.76,29.376,41.76,29.232,41.616,29.232,41.616,28.944,41.472,28.944,41.472,28.8,41.328,28.8,41.328,28.512,41.184,28.512,41.184,28.08,41.04,28.08,41.04,27.504,40.896,27.504,40.896,26.928,41.04,26.928,41.04,26.352,41.184,26.352,41.184,25.92,41.328,25.92,41.328,25.632,41.472,25.632,41.472,25.344,41.616,25.344,41.616,25.2,41.76,25.2,41.76,25.056,41.904,25.056,41.904,24.912,42.048,24.912,42.048,24.768,42.192,24.768,42.192,24.624,42.336,24.624,42.336,24.48,42.48,24.48,42.48,24.336,42.624,24.336,42.624,24.192,42.912,24.192,42.912,24.048,43.2,24.048,43.2,23.904,43.632,23.904,43.632,23.76,44.208,23.76,44.208,23.616"/>
    <polygon  fill="black" stroke="none" stroke-width="0" points="47.376,28.944,47.376,29.088,47.232,29.088,47.232,29.376,47.088,29.376,47.088,29.52,46.944,29.52,46.944,29.664,46.8,29.664,46.8,29.808,46.656,29.808,46.656,29.952,46.368,29.952,46.368,30.096,46.224,30.096,46.224,30.24,45.936,30.24,45.936,30.384,45.648,30.384,45.648,30.528,45.216,30.528,45.216,30.672,50.832,30.672,50.832,30.528,50.544,30.528,50.544,30.384,50.256,30.384,50.256,30.24,49.968,30.24,49.968,30.096,49.68,30.096,49.68,29.952,49.536,29.952,49.536,29.808,49.392,29.808,49.392,29.664,49.248,29.664,49.248,29.52,49.104,29.52,49.104,29.376,48.96,29.376,48.96,29.232,48.816,29.232,48.816,28.944"/>
    <polygon  fill="black" stroke="none" stroke-width="0" points="0,30.672,0,30.816,52.128,30.816,52.128,30.672"/>
    <polygon  fill="black" stroke="none" stroke-width="0" points="0,30.672,0,30.816,52.128,30.816,52.128,30.672"/>
    <polygon  fill="black" stroke="none" stroke-width="0" points="0,30.816,0,36.288,101.664,36.288,101.664,34.272,54.432,34.272,54.432,34.128,54.144,34.128,54.144,33.984,54,33.984,54,33.84,53.856,33.84,53.856,33.696,53.712,33.696,53.712,33.408,53.568,33.408,53.568,33.12,53.424,33.12,53.424,32.832,53.28,32.832,53.28,32.688,53.136,32.688,53.136,32.4,52.992,32.4,52.992,32.112,52.848,32.112,52.848,31.824,52.704,31.824,52.704,31.536,52.56,31.536,52.56,31.392,52.416,31.392,52.416,31.104,52.272,31.104,52.272,30.816"/>
    <g  id="connector0pad">
     <circle  r="2.7" fill="black" stroke="none" stroke-width="0" cx="18.1106" cy="4.0815"/>
    </g>
   </g>
  </g>
 </g>
 <g partID="145210">
  <g transform="translate(7.9992,3.11536)">
   <g  id="copper0">
    <circle  r="0.992124" id="connector0pin" fill="none" stroke-width="0.850392" stroke="black" cx="3.01733" cy="3.01733"/>
   </g>
  </g>
 </g>
 <g partID="148390">
  <g transform="translate(77.0259,22.9161)">
   <g  id="copper0">
    <circle  r="0.992124" id="connector0pin" fill="none" stroke-width="0.850392" stroke="black" cx="3.01733" cy="3.01733"/>
   </g>
  </g>
 </g>
 <g partID="149780">
  <g transform="translate(16.628,13.1003)">
   <g  id="copper0">
    <circle  r="0.992124" id="connector0pin" fill="none" stroke-width="0.850392" stroke="black" cx="3.01733" cy="3.01733"/>
   </g>
  </g>
 </g>
 <g partID="149820">
  <g transform="translate(16.8848,39.3092)">
   <g  id="copper0">
    <circle  r="0.992124" id="connector0pin" fill="none" stroke-width="0.850392" stroke="black" cx="3.01733" cy="3.01733"/>
   </g>
  </g>
 </g>
 <g partID="152470">
  <g transform="translate(79.1722,33.7771)">
   <g  id="copper0">
    <circle  r="0.992124" id="connector0pin" fill="none" stroke-width="0.850392" stroke="black" cx="3.01733" cy="3.01733"/>
   </g>
  </g>
 </g>
 <g partID="152510">
  <g transform="translate(69.7453,0.92552)">
   <g  id="copper0">
    <circle  r="0.992124" id="connector0pin" fill="none" stroke-width="0.850392" stroke="black" cx="3.01733" cy="3.01733"/>
   </g>
  </g>
 </g>
 <g partID="153230">
  <g transform="translate(1.4832,71.7925)">
   <g  id="copper0">
    <circle  r="0.992124" id="connector0pin" fill="none" stroke-width="0.850392" stroke="black" cx="3.01733" cy="3.01733"/>
   </g>
  </g>
 </g>
 <g partID="120250">
  <g transform="translate(59.5984,98.3338)">
   <g transform="matrix(0,1,-1,0,0,0)">
    <g  id="copper0">
     <circle  id="connector0pin" r="2.088" fill="none" stroke="black" stroke-width="1.44" cx="5.04" cy="5.04"/>
     <circle  id="connector1pin" r="2.088" fill="none" stroke="black" stroke-width="1.44" cx="5.04" cy="12.24"/>
    </g>
   </g>
  </g>
 </g>
 <g partID="128630">
  <g transform="translate(58.373,55.8284)">
   <g  id="copper0">
    <circle  r="0.992124" id="connector0pin" fill="none" stroke-width="0.850392" stroke="black" cx="3.01732" cy="3.01732"/>
   </g>
  </g>
 </g>
 <g partID="128750">
  <g transform="translate(50.597,60.1484)">
   <g  id="copper0">
    <circle  r="0.992124" id="connector0pin" fill="none" stroke-width="0.850392" stroke="black" cx="3.01732" cy="3.01732"/>
   </g>
  </g>
 </g>
 <g partID="130970">
  <g transform="translate(38.0362,47.4758)">
   <g  id="copper0">
    <circle  r="0.992124" id="connector0pin" fill="none" stroke-width="0.850392" stroke="black" cx="3.01733" cy="3.01733"/>
   </g>
  </g>
 </g>
 <g partID="131490">
  <g transform="translate(65.8548,67.1523)">
   <g  id="copper0">
    <circle  r="0.992124" id="connector0pin" fill="none" stroke-width="0.850392" stroke="black" cx="3.01733" cy="3.01733"/>
   </g>
  </g>
 </g>
 <g partID="150960">
  <g transform="translate(17.876,87.1965)">
   <g transform="matrix(-1,0,0,-1,0,0)">
    <g  id="copper0">
     <rect  id="square" fill="none" stroke="black" stroke-width="1.44" width="4.176" height="4.176" x="2.952" y="2.952"/>
     <circle  id="connector0pin" r="2.088" fill="none" stroke="black" stroke-width="1.44" cx="5.04" cy="5.04"/>
     <circle  id="connector1pin" r="2.088" fill="none" stroke="black" stroke-width="1.44" cx="5.04" cy="12.24"/>
    </g>
   </g>
  </g>
 </g>
 <g partID="144300">
  <g transform="translate(18.1624,38.9978)">
   <g transform="matrix(-1,0,0,-1,0,0)">
    <g  id="copper0">
     <rect  id="square" fill="none" stroke="black" stroke-width="1.44" width="4.176" height="4.176" x="2.952" y="2.952"/>
     <circle  id="connector0pin" r="2.088" fill="none" stroke="black" stroke-width="1.44" cx="5.04" cy="5.04"/>
     <circle  id="connector1pin" r="2.088" fill="none" stroke="black" stroke-width="1.44" cx="5.04" cy="12.24"/>
    </g>
   </g>
  </g>
 </g>
 <g partID="138930">
  <g transform="translate(101.482,96.4288)">
   <g transform="matrix(-1,0,0,-1,0,0)">
    <g  id="copper0">
     <rect  id="square" fill="none" stroke="black" stroke-width="1.44" width="4.176" height="4.176" x="2.952" y="2.952"/>
     <circle  id="connector0pin" r="2.088" fill="none" stroke="black" stroke-width="1.44" cx="5.04" cy="5.04"/>
     <circle  id="connector1pin" r="2.088" fill="none" stroke="black" stroke-width="1.44" cx="5.04" cy="12.24"/>
    </g>
   </g>
  </g>
 </g>
 <g partID="133430">
  <g transform="translate(101.474,39.7638)">
   <g transform="matrix(-1,0,0,-1,0,0)">
    <g  id="copper0">
     <rect  id="square" fill="none" stroke="black" stroke-width="1.44" width="4.176" height="4.176" x="2.952" y="2.952"/>
     <circle  id="connector0pin" r="2.088" fill="none" stroke="black" stroke-width="1.44" cx="5.04" cy="5.04"/>
     <circle  id="connector1pin" r="2.088" fill="none" stroke="black" stroke-width="1.44" cx="5.04" cy="12.24"/>
    </g>
   </g>
  </g>
 </g>
 <g partID="137630">
  <g transform="translate(93.9774,61.1189)">
   <g  id="copper0">
    <circle  r="0.992124" id="connector0pin" fill="none" stroke-width="0.850392" stroke="black" cx="3.01733" cy="3.01733"/>
   </g>
  </g>
 </g>
 <g partID="138030">
  <g transform="translate(83.7944,100.196)">
   <g  id="copper0">
    <circle  r="0.992124" id="connector0pin" fill="none" stroke-width="0.850392" stroke="black" cx="3.01733" cy="3.01733"/>
   </g>
  </g>
 </g>
 <g partID="151950">
  <line stroke-linecap="round" stroke="black" stroke-width="0.576" y1="6.36507" y2="6.13644" x1="70.9316" x2="11.9834"/>
 </g>
 <g partID="145250">
  <line stroke-linecap="round" stroke="black" stroke-width="0.576" y1="10.7886" y2="6.36507" x1="73.2147" x2="70.9316"/>
 </g>
 <g partID="145290">
  <line stroke-linecap="round" stroke="black" stroke-width="0.576" y1="25.0519" y2="10.7886" x1="79.6458" x2="73.2147"/>
 </g>
 <g partID="149680">
  <line stroke-linecap="round" stroke="black" stroke-width="0.576" y1="17.0845" y2="41.3596" x1="19.6551" x2="19.8931"/>
 </g>
 <g partID="151810">
  <line stroke-linecap="round" stroke="black" stroke-width="0.576" y1="23.2966" y2="4.81087" x1="82.261" x2="73.1886"/>
 </g>
 <g partID="152030">
  <line stroke-linecap="round" stroke="black" stroke-width="0.576" y1="35.8275" y2="23.2966" x1="82.1947" x2="82.261"/>
 </g>
 <g partID="153770">
  <line stroke-linecap="round" stroke="black" stroke-width="1.152" y1="75.164" y2="74.8175" x1="49.4766" x2="5.46714"/>
 </g>
 <g partID="153590">
  <line stroke-linecap="round" stroke="black" stroke-width="1.152" y1="80.122" y2="75.164" x1="54.0806" x2="49.4767"/>
 </g>
 <g partID="129720">
  <line stroke-linecap="round" stroke="black" stroke-width="0.864" y1="59.4888" y2="62.2723" x1="55.1357" x2="53.984"/>
 </g>
 <g partID="128650">
  <line stroke-linecap="round" stroke="black" stroke-width="0.864" y1="58.9446" y2="59.4888" x1="60.4285" x2="55.1357"/>
 </g>
 <g partID="154130">
  <line stroke-linecap="round" stroke="black" stroke-width="0.864" y1="80.122" y2="64.1323" x1="54.0806" x2="53.6409"/>
 </g>
 <g partID="128810">
  <line stroke-linecap="round" stroke="black" stroke-width="0.864" y1="101.606" y2="80.122" x1="54.5221" x2="54.0805"/>
 </g>
 <g partID="131700">
  <line stroke-linecap="round" stroke="black" stroke-width="0.576" y1="50.9984" y2="53.9777" x1="66.9938" x2="69.3902"/>
 </g>
 <g partID="131610">
  <line stroke-linecap="round" stroke="black" stroke-width="0.576" y1="53.9778" y2="69.2032" x1="69.3902" x2="68.903"/>
 </g>
 <g partID="131110">
  <line stroke-linecap="round" stroke="black" stroke-width="0.576" y1="50.512" y2="50.9985" x1="42.0203" x2="66.9938"/>
 </g>
 <g partID="137190">
  <line stroke-linecap="round" stroke="black" stroke-width="1.152" y1="109.196" y2="109.196" x1="57.7902" x2="102.85"/>
 </g>
 <g partID="155500">
  <line stroke-linecap="round" stroke="black" stroke-width="1.152" y1="106.538" y2="30.9088" x1="104.893" x2="104.322"/>
 </g>
 <g partID="136910">
  <line stroke-linecap="round" stroke="black" stroke-width="1.152" y1="109.196" y2="106.538" x1="102.85" x2="104.893"/>
 </g>
 <g partID="136590">
  <line stroke-linecap="round" stroke="black" stroke-width="1.152" y1="30.9088" y2="27.7321" x1="104.322" x2="102.468"/>
 </g>
 <g partID="136390">
  <line stroke-linecap="round" stroke="black" stroke-width="1.152" y1="27.7321" y2="27.5848" x1="102.468" x2="98.2008"/>
 </g>
 <g partID="135020">
  <line stroke-linecap="round" stroke="black" stroke-width="1.152" y1="104.92" y2="109.196" x1="55.4165" x2="57.7902"/>
 </g>
 <g partID="138130">
  <line stroke-linecap="round" stroke="black" stroke-width="1.152" y1="103.213" y2="103.213" x1="86.939" x2="87.7787"/>
 </g>
 <g partID="138380">
  <line stroke-linecap="round" stroke="black" stroke-width="1.152" y1="71.8359" y2="103.213" x1="86.9634" x2="86.939"/>
 </g>
 <g partID="138290">
  <line stroke-linecap="round" stroke="black" stroke-width="1.152" y1="67.7003" y2="67.7002" x1="96.9947" x2="90.1212"/>
 </g>
 <g partID="138210">
  <line stroke-linecap="round" stroke="black" stroke-width="1.152" y1="67.7002" y2="71.8359" x1="90.1212" x2="86.9633"/>
 </g>
 <g partID="138140">
  <line stroke-linecap="round" stroke="black" stroke-width="1.152" y1="65.1032" y2="67.7003" x1="96.9947" x2="96.9947"/>
 </g>
</svg>
