G04 (created by PCBNEW (2013-07-07 BZR 4022)-stable) date 9/14/2015 5:12:49 PM*
%MOIN*%
G04 Gerber Fmt 3.4, Leading zero omitted, Abs format*
%FSLAX34Y34*%
G01*
G70*
G90*
G04 APERTURE LIST*
%ADD10C,0.00590551*%
%ADD11R,0.054748X0.027748*%
%ADD12R,0.0177X0.0787*%
%ADD13R,0.0787X0.0177*%
%ADD14C,0.055*%
%ADD15R,0.0394X0.0276*%
%ADD16R,0.144X0.08*%
%ADD17R,0.04X0.08*%
%ADD18R,0.025X0.045*%
%ADD19R,0.045X0.025*%
%ADD20R,0.0248031X0.0393701*%
%ADD21R,0.0393701X0.0248031*%
%ADD22R,0.06X0.06*%
%ADD23C,0.06*%
%ADD24R,0.0472X0.0472*%
%ADD25C,0.056*%
%ADD26C,0.0787*%
%ADD27R,0.0448X0.0078*%
G04 APERTURE END LIST*
G54D10*
G54D11*
X29996Y-32240D03*
X29996Y-32496D03*
X29996Y-32752D03*
X29996Y-33008D03*
X29996Y-33264D03*
X29996Y-33520D03*
X29996Y-33776D03*
X29996Y-34032D03*
X32293Y-34032D03*
X32293Y-33776D03*
X32293Y-33520D03*
X32293Y-33264D03*
X32293Y-33008D03*
X32293Y-32752D03*
X32293Y-32496D03*
X32293Y-32240D03*
X29996Y-34288D03*
X29996Y-34544D03*
X32293Y-34288D03*
X32293Y-34544D03*
G54D12*
X34533Y-30869D03*
X34218Y-30869D03*
X33903Y-30869D03*
X33588Y-30869D03*
X33273Y-30869D03*
X32958Y-30869D03*
X32643Y-30869D03*
X32328Y-30869D03*
X32330Y-27103D03*
X34540Y-27103D03*
X34220Y-27103D03*
X33900Y-27103D03*
X33590Y-27103D03*
X33270Y-27103D03*
X32960Y-27103D03*
X32640Y-27103D03*
G54D13*
X31540Y-30085D03*
X31540Y-29771D03*
X31540Y-29455D03*
X31540Y-29141D03*
X31540Y-28825D03*
X31540Y-28511D03*
X31540Y-28195D03*
X31540Y-27881D03*
X35320Y-30083D03*
X35320Y-29773D03*
X35320Y-29453D03*
X35320Y-29143D03*
X35320Y-28833D03*
X35320Y-28513D03*
X35320Y-28193D03*
X35320Y-27873D03*
G54D14*
X40305Y-23443D03*
X40305Y-25443D03*
X37305Y-23443D03*
X37305Y-25443D03*
G54D15*
X31925Y-23337D03*
X31925Y-23712D03*
X31925Y-24087D03*
X30925Y-24087D03*
X30925Y-23712D03*
X30925Y-23337D03*
G54D16*
X36367Y-19502D03*
G54D17*
X36367Y-22102D03*
X37267Y-22102D03*
X35467Y-22102D03*
G54D18*
X35493Y-34024D03*
X36093Y-34024D03*
X30575Y-20022D03*
X31175Y-20022D03*
G54D19*
X36095Y-33262D03*
X36095Y-32662D03*
X41292Y-31896D03*
X41292Y-31296D03*
G54D18*
X35491Y-35381D03*
X36091Y-35381D03*
G54D19*
X35386Y-24341D03*
X35386Y-24941D03*
G54D18*
X36103Y-34734D03*
X35503Y-34734D03*
X40694Y-34685D03*
X40094Y-34685D03*
X38380Y-34652D03*
X37780Y-34652D03*
G54D19*
X34103Y-33205D03*
X34103Y-32605D03*
G54D18*
X40635Y-21652D03*
X40035Y-21652D03*
X40290Y-19374D03*
X39690Y-19374D03*
G54D19*
X33473Y-32584D03*
X33473Y-33184D03*
X30918Y-25157D03*
X30918Y-25757D03*
X31569Y-25157D03*
X31569Y-25757D03*
X32227Y-25157D03*
X32227Y-25757D03*
G54D20*
X33746Y-35393D03*
X33903Y-35393D03*
X34061Y-35393D03*
X34218Y-35393D03*
X34376Y-35393D03*
X34533Y-35393D03*
G54D21*
X34730Y-35196D03*
X34730Y-35038D03*
X34730Y-34881D03*
X34730Y-34723D03*
X34730Y-34566D03*
X34730Y-34408D03*
G54D20*
X34533Y-34211D03*
X34376Y-34211D03*
X34218Y-34211D03*
X34061Y-34211D03*
X33903Y-34211D03*
X33746Y-34211D03*
G54D21*
X33549Y-34408D03*
X33549Y-34566D03*
X33549Y-34723D03*
X33549Y-34881D03*
X33549Y-35038D03*
X33549Y-35196D03*
G54D22*
X30630Y-20916D03*
G54D23*
X29630Y-20916D03*
X28630Y-20916D03*
X27630Y-20916D03*
G54D24*
X39157Y-20298D03*
X38331Y-20298D03*
X39157Y-19367D03*
X38331Y-19367D03*
G54D25*
X40280Y-33217D03*
X38280Y-33217D03*
G54D26*
X36408Y-23818D03*
X28298Y-35113D03*
G54D27*
X27924Y-33700D03*
X28963Y-33700D03*
X27924Y-33542D03*
X28963Y-33542D03*
X27924Y-33385D03*
X28963Y-33385D03*
X27924Y-33227D03*
X28963Y-33227D03*
X27924Y-33070D03*
X28963Y-33070D03*
X27924Y-32912D03*
X28963Y-32912D03*
X27924Y-32755D03*
X28963Y-32755D03*
X27924Y-32597D03*
X28963Y-32597D03*
X27924Y-32440D03*
X28963Y-32440D03*
X27924Y-32282D03*
X28963Y-32282D03*
X27924Y-32125D03*
X28963Y-32125D03*
X27924Y-31967D03*
X28963Y-31967D03*
X27924Y-31810D03*
X28963Y-31810D03*
X27924Y-31652D03*
X28963Y-31652D03*
X27924Y-31495D03*
X28963Y-31495D03*
X27924Y-31337D03*
X28963Y-31337D03*
X27924Y-31180D03*
X28963Y-31180D03*
X27924Y-31022D03*
X28963Y-31022D03*
X27924Y-30865D03*
X28963Y-30865D03*
X27924Y-30707D03*
X28963Y-30707D03*
X27924Y-30550D03*
X28963Y-30550D03*
X27924Y-30392D03*
X28963Y-30392D03*
X27924Y-30235D03*
X28963Y-30235D03*
X27924Y-30078D03*
X28963Y-30078D03*
X27924Y-29920D03*
X28963Y-29920D03*
X27924Y-29763D03*
X28963Y-29763D03*
X27924Y-29605D03*
X28963Y-29605D03*
X27924Y-29448D03*
X28963Y-29448D03*
X27924Y-29290D03*
X28963Y-29290D03*
X27924Y-29133D03*
X28963Y-29133D03*
X27924Y-28975D03*
X28963Y-28975D03*
X27924Y-28818D03*
X28963Y-28818D03*
X27924Y-28660D03*
X28963Y-28660D03*
X27924Y-28503D03*
X28963Y-28503D03*
X27924Y-28345D03*
X28963Y-28345D03*
G54D22*
X32291Y-20980D03*
G54D23*
X32291Y-19980D03*
X33291Y-20980D03*
X33291Y-19980D03*
X34291Y-20980D03*
X34291Y-19980D03*
G54D22*
X38374Y-31066D03*
G54D23*
X39374Y-31066D03*
X40374Y-31066D03*
G54D22*
X38370Y-29929D03*
G54D23*
X39370Y-29929D03*
X40370Y-29929D03*
G54D22*
X38338Y-28811D03*
G54D23*
X39338Y-28811D03*
X40338Y-28811D03*
G54D22*
X38362Y-27677D03*
G54D23*
X39362Y-27677D03*
X40362Y-27677D03*
G54D22*
X38385Y-26578D03*
G54D23*
X39385Y-26578D03*
X40385Y-26578D03*
M02*
