G04 (created by PCBNEW (2013-07-07 BZR 4022)-stable) date 9/19/2015 9:10:54 AM*
%MOIN*%
G04 Gerber Fmt 3.4, Leading zero omitted, Abs format*
%FSLAX34Y34*%
G01*
G70*
G90*
G04 APERTURE LIST*
%ADD10C,0.00590551*%
%ADD11R,0.054748X0.027748*%
%ADD12R,0.0787X0.0177*%
%ADD13R,0.0177X0.0787*%
%ADD14C,0.055*%
%ADD15R,0.144X0.08*%
%ADD16R,0.04X0.08*%
%ADD17R,0.045X0.025*%
%ADD18R,0.025X0.045*%
%ADD19R,0.0393701X0.0248031*%
%ADD20R,0.0248031X0.0393701*%
%ADD21R,0.06X0.06*%
%ADD22C,0.06*%
%ADD23R,0.0472X0.0472*%
%ADD24C,0.056*%
%ADD25C,0.0787*%
%ADD26R,0.0448X0.0078*%
%ADD27R,0.0276X0.0394*%
G04 APERTURE END LIST*
G54D10*
G54D11*
X45805Y-38167D03*
X45805Y-38422D03*
X45805Y-38678D03*
X45805Y-38934D03*
X45805Y-39190D03*
X45805Y-39446D03*
X45805Y-39702D03*
X45805Y-39958D03*
X48103Y-39958D03*
X48103Y-39702D03*
X48103Y-39446D03*
X48103Y-39190D03*
X48103Y-38934D03*
X48103Y-38678D03*
X48103Y-38422D03*
X48103Y-38167D03*
X45805Y-40214D03*
X45805Y-40470D03*
X48103Y-40214D03*
X48103Y-40470D03*
G54D12*
X51000Y-32824D03*
X51000Y-33139D03*
X51000Y-33454D03*
X51000Y-33769D03*
X51000Y-34084D03*
X51000Y-34399D03*
X51000Y-34714D03*
X51000Y-35029D03*
X47234Y-35027D03*
X47234Y-32817D03*
X47234Y-33137D03*
X47234Y-33457D03*
X47234Y-33767D03*
X47234Y-34087D03*
X47234Y-34397D03*
X47234Y-34717D03*
G54D13*
X50216Y-35817D03*
X49902Y-35817D03*
X49586Y-35817D03*
X49272Y-35817D03*
X48956Y-35817D03*
X48642Y-35817D03*
X48326Y-35817D03*
X48012Y-35817D03*
X50214Y-32037D03*
X49904Y-32037D03*
X49584Y-32037D03*
X49274Y-32037D03*
X48964Y-32037D03*
X48644Y-32037D03*
X48324Y-32037D03*
X48004Y-32037D03*
G54D14*
X53151Y-27763D03*
X53151Y-25763D03*
X56151Y-27763D03*
X56151Y-25763D03*
G54D15*
X54872Y-31756D03*
G54D16*
X54872Y-29156D03*
X53972Y-29156D03*
X55772Y-29156D03*
G54D17*
X57777Y-40670D03*
X57777Y-41270D03*
X53053Y-40544D03*
X53053Y-41144D03*
X52045Y-39976D03*
X52045Y-39376D03*
X51438Y-39980D03*
X51438Y-39380D03*
X48064Y-37203D03*
X48064Y-37803D03*
X49080Y-39929D03*
X49080Y-39329D03*
X43588Y-28274D03*
X43588Y-28874D03*
X56596Y-29809D03*
X56596Y-30409D03*
X56596Y-28751D03*
X56596Y-29351D03*
X46273Y-27400D03*
X46273Y-28000D03*
G54D18*
X46373Y-35500D03*
X46973Y-35500D03*
X46991Y-36107D03*
X46391Y-36107D03*
G54D17*
X46265Y-28802D03*
X46265Y-29402D03*
X45675Y-28786D03*
X45675Y-29386D03*
X53053Y-28804D03*
X53053Y-29404D03*
G54D18*
X45505Y-25586D03*
X46105Y-25586D03*
G54D19*
X50860Y-40251D03*
X50860Y-40094D03*
X50860Y-39936D03*
X50860Y-39779D03*
X50860Y-39621D03*
X50860Y-39464D03*
G54D20*
X50663Y-39267D03*
X50505Y-39267D03*
X50348Y-39267D03*
X50190Y-39267D03*
X50033Y-39267D03*
X49875Y-39267D03*
G54D19*
X49679Y-39464D03*
X49679Y-39621D03*
X49679Y-39779D03*
X49679Y-39936D03*
X49679Y-40094D03*
X49679Y-40251D03*
G54D20*
X49875Y-40448D03*
X50033Y-40448D03*
X50190Y-40448D03*
X50348Y-40448D03*
X50505Y-40448D03*
X50663Y-40448D03*
G54D21*
X45710Y-26629D03*
G54D22*
X44710Y-26629D03*
X43710Y-26629D03*
X42710Y-26629D03*
G54D21*
X49419Y-26767D03*
G54D22*
X49419Y-25767D03*
X50419Y-26767D03*
X50419Y-25767D03*
X51419Y-26767D03*
X51419Y-25767D03*
G54D21*
X54131Y-37735D03*
G54D22*
X55131Y-37735D03*
X56131Y-37735D03*
G54D21*
X54131Y-36602D03*
G54D22*
X55131Y-36602D03*
X56131Y-36602D03*
G54D21*
X54139Y-35487D03*
G54D22*
X55139Y-35487D03*
X56139Y-35487D03*
G54D21*
X54139Y-34373D03*
G54D22*
X55139Y-34373D03*
X56139Y-34373D03*
G54D21*
X54159Y-33263D03*
G54D22*
X55159Y-33263D03*
X56159Y-33263D03*
G54D23*
X46604Y-25578D03*
X47430Y-25578D03*
X46632Y-26228D03*
X47458Y-26228D03*
G54D24*
X54415Y-39544D03*
X56415Y-39544D03*
G54D25*
X52068Y-29492D03*
X43958Y-40787D03*
G54D26*
X43584Y-39374D03*
X44623Y-39374D03*
X43584Y-39216D03*
X44623Y-39216D03*
X43584Y-39059D03*
X44623Y-39059D03*
X43584Y-38901D03*
X44623Y-38901D03*
X43584Y-38744D03*
X44623Y-38744D03*
X43584Y-38586D03*
X44623Y-38586D03*
X43584Y-38429D03*
X44623Y-38429D03*
X43584Y-38271D03*
X44623Y-38271D03*
X43584Y-38114D03*
X44623Y-38114D03*
X43584Y-37956D03*
X44623Y-37956D03*
X43584Y-37799D03*
X44623Y-37799D03*
X43584Y-37641D03*
X44623Y-37641D03*
X43584Y-37484D03*
X44623Y-37484D03*
X43584Y-37326D03*
X44623Y-37326D03*
X43584Y-37169D03*
X44623Y-37169D03*
X43584Y-37011D03*
X44623Y-37011D03*
X43584Y-36854D03*
X44623Y-36854D03*
X43584Y-36696D03*
X44623Y-36696D03*
X43584Y-36539D03*
X44623Y-36539D03*
X43584Y-36381D03*
X44623Y-36381D03*
X43584Y-36224D03*
X44623Y-36224D03*
X43584Y-36066D03*
X44623Y-36066D03*
X43584Y-35909D03*
X44623Y-35909D03*
X43584Y-35752D03*
X44623Y-35752D03*
X43584Y-35594D03*
X44623Y-35594D03*
X43584Y-35437D03*
X44623Y-35437D03*
X43584Y-35279D03*
X44623Y-35279D03*
X43584Y-35122D03*
X44623Y-35122D03*
X43584Y-34964D03*
X44623Y-34964D03*
X43584Y-34807D03*
X44623Y-34807D03*
X43584Y-34649D03*
X44623Y-34649D03*
X43584Y-34492D03*
X44623Y-34492D03*
X43584Y-34334D03*
X44623Y-34334D03*
X43584Y-34177D03*
X44623Y-34177D03*
X43584Y-34019D03*
X44623Y-34019D03*
G54D27*
X44249Y-28011D03*
X44624Y-28011D03*
X44999Y-28011D03*
X44999Y-29011D03*
X44624Y-29011D03*
X44249Y-29011D03*
G54D18*
X43053Y-24786D03*
X43653Y-24786D03*
G54D23*
X44191Y-24777D03*
X45017Y-24777D03*
M02*
