G04 #@! TF.FileFunction,Soldermask,Top*
%FSLAX46Y46*%
G04 Gerber Fmt 4.6, Leading zero omitted, Abs format (unit mm)*
G04 Created by KiCad (PCBNEW 4.0.0-rc2-stable) date 7/27/2016 7:09:46 AM*
%MOMM*%
G01*
G04 APERTURE LIST*
%ADD10C,0.100000*%
%ADD11C,3.200000*%
%ADD12R,0.800000X0.750000*%
%ADD13R,0.797560X0.797560*%
%ADD14R,2.032000X2.032000*%
%ADD15O,2.032000X2.032000*%
%ADD16R,1.727200X1.727200*%
%ADD17O,1.727200X1.727200*%
%ADD18R,1.727200X2.032000*%
%ADD19O,1.727200X2.032000*%
%ADD20R,5.000000X5.000000*%
%ADD21R,0.800100X0.800100*%
%ADD22R,0.500000X0.900000*%
%ADD23C,1.998980*%
%ADD24R,1.137920X0.198120*%
%ADD25R,0.812800X0.406400*%
%ADD26R,1.498600X2.006600*%
%ADD27R,0.558800X1.320800*%
%ADD28R,0.600000X0.230000*%
%ADD29R,0.230000X0.600000*%
%ADD30R,0.990600X0.304800*%
%ADD31R,0.812800X0.355600*%
%ADD32R,0.250000X1.300000*%
%ADD33R,1.300000X0.250000*%
%ADD34R,2.000000X1.300000*%
G04 APERTURE END LIST*
D10*
D11*
X123984000Y-119400000D03*
X161576000Y-119400000D03*
X161830000Y-84094000D03*
X123984000Y-83840000D03*
D12*
X156355600Y-115084540D03*
X157855600Y-115084540D03*
X142982500Y-114502880D03*
X144482500Y-114502880D03*
X142969800Y-112884900D03*
X144469800Y-112884900D03*
X144216940Y-106557760D03*
X145716940Y-106557760D03*
X141214660Y-106557760D03*
X142714660Y-106557760D03*
X142699420Y-108104620D03*
X141199420Y-108104620D03*
X141222280Y-111228820D03*
X142722280Y-111228820D03*
X141222280Y-109628620D03*
X142722280Y-109628620D03*
X156355600Y-110375380D03*
X157855600Y-110375380D03*
X156325120Y-113514820D03*
X157825120Y-113514820D03*
X156325120Y-111929860D03*
X157825120Y-111929860D03*
X152483500Y-107586460D03*
X150983500Y-107586460D03*
X154079760Y-107599160D03*
X155579760Y-107599160D03*
D13*
X150976580Y-121759660D03*
X152475180Y-121759660D03*
X149457660Y-121759660D03*
X147959060Y-121759660D03*
X155477460Y-121759660D03*
X153978860Y-121759660D03*
D14*
X130080000Y-82570000D03*
D15*
X132620000Y-82570000D03*
D16*
X125000000Y-90190000D03*
D17*
X122460000Y-90190000D03*
X125000000Y-92730000D03*
X122460000Y-92730000D03*
X125000000Y-95270000D03*
X122460000Y-95270000D03*
X125000000Y-97810000D03*
X122460000Y-97810000D03*
X125000000Y-100350000D03*
X122460000Y-100350000D03*
X125000000Y-102890000D03*
X122460000Y-102890000D03*
X125000000Y-105430000D03*
X122460000Y-105430000D03*
X125000000Y-107970000D03*
X122460000Y-107970000D03*
X125000000Y-110510000D03*
X122460000Y-110510000D03*
X125000000Y-113050000D03*
X122460000Y-113050000D03*
D14*
X136430000Y-82570000D03*
D15*
X138970000Y-82570000D03*
D18*
X142780000Y-82570000D03*
D19*
X145320000Y-82570000D03*
X147860000Y-82570000D03*
X150400000Y-82570000D03*
X152940000Y-82570000D03*
X155480000Y-82570000D03*
D20*
X137065000Y-120035000D03*
X143415000Y-120035000D03*
D16*
X160560000Y-113050000D03*
D17*
X163100000Y-113050000D03*
X160560000Y-110510000D03*
X163100000Y-110510000D03*
X160560000Y-107970000D03*
X163100000Y-107970000D03*
X160560000Y-105430000D03*
X163100000Y-105430000D03*
X160560000Y-102890000D03*
X163100000Y-102890000D03*
X160560000Y-100350000D03*
X163100000Y-100350000D03*
X160560000Y-97810000D03*
X163100000Y-97810000D03*
X160560000Y-95270000D03*
X163100000Y-95270000D03*
X160560000Y-92730000D03*
X163100000Y-92730000D03*
X160560000Y-90190000D03*
X163100000Y-90190000D03*
D21*
X136940500Y-87698260D03*
X138840500Y-87698260D03*
X137890500Y-85699280D03*
D22*
X132371780Y-87375680D03*
X130871780Y-87375680D03*
X137701840Y-89222260D03*
X139201840Y-89222260D03*
X140495840Y-100245860D03*
X141995840Y-100245860D03*
X140480600Y-98579620D03*
X141980600Y-98579620D03*
X152502420Y-109245080D03*
X154002420Y-109245080D03*
X158587120Y-91462540D03*
X157087120Y-91462540D03*
X157132840Y-89816620D03*
X158632840Y-89816620D03*
D23*
X153608020Y-90002040D03*
X133008620Y-118691340D03*
D24*
X132058660Y-115102320D03*
X134697720Y-115102320D03*
X132058660Y-114701000D03*
X134697720Y-114701000D03*
X132058660Y-114302220D03*
X134697720Y-114302220D03*
X132058660Y-113900900D03*
X134697720Y-113900900D03*
X132058660Y-113502120D03*
X134697720Y-113502120D03*
X132058660Y-113100800D03*
X134697720Y-113100800D03*
X132058660Y-112702020D03*
X134697720Y-112702020D03*
X132058660Y-112300700D03*
X134697720Y-112300700D03*
X132058660Y-111901920D03*
X134697720Y-111901920D03*
X132058660Y-111500600D03*
X134697720Y-111500600D03*
X132058660Y-111101820D03*
X134697720Y-111101820D03*
X132058660Y-110700500D03*
X134697720Y-110700500D03*
X132058660Y-110301720D03*
X134697720Y-110301720D03*
X132058660Y-109900400D03*
X134697720Y-109900400D03*
X132058660Y-109501620D03*
X134697720Y-109501620D03*
X132058660Y-109100300D03*
X134697720Y-109100300D03*
X132058660Y-108701520D03*
X134697720Y-108701520D03*
X132058660Y-108300200D03*
X134697720Y-108300200D03*
X132058660Y-107901420D03*
X134697720Y-107901420D03*
X132058660Y-107500100D03*
X134697720Y-107500100D03*
X132058660Y-107101320D03*
X134697720Y-107101320D03*
X132058660Y-106700000D03*
X134697720Y-106700000D03*
X132058660Y-106301220D03*
X134697720Y-106301220D03*
X132058660Y-105902440D03*
X134697720Y-105902440D03*
X132058660Y-105501120D03*
X134697720Y-105501120D03*
X132058660Y-105102340D03*
X134697720Y-105102340D03*
X132058660Y-104701020D03*
X134697720Y-104701020D03*
X132058660Y-104302240D03*
X134697720Y-104302240D03*
X132058660Y-103900920D03*
X134697720Y-103900920D03*
X132058660Y-103502140D03*
X134697720Y-103502140D03*
X132058660Y-103100820D03*
X134697720Y-103100820D03*
X132058660Y-102702040D03*
X134697720Y-102702040D03*
X132058660Y-102300720D03*
X134697720Y-102300720D03*
X132058660Y-101901940D03*
X134697720Y-101901940D03*
X132058660Y-101500620D03*
X134697720Y-101500620D03*
D25*
X147733000Y-112745200D03*
X147733000Y-113685000D03*
X147733000Y-114624800D03*
X150527000Y-114624800D03*
X150527000Y-113685000D03*
X150527000Y-112745200D03*
D26*
X149104600Y-113710400D03*
D27*
X153270200Y-114955000D03*
X154210000Y-114955000D03*
X155149800Y-114955000D03*
X155149800Y-112415000D03*
X153270200Y-112415000D03*
D28*
X141904840Y-102425940D03*
X141904840Y-102825940D03*
X141904840Y-103225940D03*
X141904840Y-103625940D03*
X141904840Y-104025940D03*
X141904840Y-104425940D03*
D29*
X142404840Y-104925940D03*
X142804840Y-104925940D03*
X143204840Y-104925940D03*
X143604840Y-104925940D03*
X144004840Y-104925940D03*
X144404840Y-104925940D03*
D28*
X144904840Y-104425940D03*
X144904840Y-104025940D03*
X144904840Y-103625940D03*
X144904840Y-103225940D03*
X144904840Y-102825940D03*
X144904840Y-102425940D03*
D29*
X144404840Y-101925940D03*
X144004840Y-101925940D03*
X143604840Y-101925940D03*
X143204840Y-101925940D03*
X142804840Y-101925940D03*
X142404840Y-101925940D03*
D30*
X136739220Y-99310060D03*
X136739220Y-98660060D03*
X136739220Y-98010060D03*
X136739220Y-97360060D03*
X136739220Y-96710060D03*
X136739220Y-96060060D03*
X136739220Y-95410060D03*
X136739220Y-94760060D03*
X130903620Y-94760060D03*
X130903620Y-95410060D03*
X130903620Y-96060060D03*
X130903620Y-96710060D03*
X130903620Y-97360060D03*
X130903620Y-98010060D03*
X130903620Y-98660060D03*
X130903620Y-99310060D03*
X136739220Y-94110060D03*
X136739220Y-93460060D03*
X130903620Y-94110060D03*
X130903620Y-93460060D03*
D31*
X147580600Y-108884400D03*
X147580600Y-109544800D03*
X147580600Y-110205200D03*
X147580600Y-110865600D03*
X150679400Y-110865600D03*
X150679400Y-110205200D03*
X150679400Y-109544800D03*
X150679400Y-108884400D03*
D32*
X145110000Y-99620000D03*
X145610000Y-99620000D03*
X146110000Y-99620000D03*
X146610000Y-99620000D03*
X147110000Y-99620000D03*
X147610000Y-99620000D03*
X148110000Y-99620000D03*
X148610000Y-99620000D03*
X149110000Y-99620000D03*
X149610000Y-99620000D03*
X150110000Y-99620000D03*
X150610000Y-99620000D03*
D33*
X152210000Y-98020000D03*
X152210000Y-97520000D03*
X152210000Y-97020000D03*
X152210000Y-96520000D03*
X152210000Y-96020000D03*
X152210000Y-95520000D03*
X152210000Y-95020000D03*
X152210000Y-94520000D03*
X152210000Y-94020000D03*
X152210000Y-93520000D03*
X152210000Y-93020000D03*
X152210000Y-92520000D03*
D32*
X150610000Y-90920000D03*
X150110000Y-90920000D03*
X149610000Y-90920000D03*
X149110000Y-90920000D03*
X148610000Y-90920000D03*
X148110000Y-90920000D03*
X147610000Y-90920000D03*
X147110000Y-90920000D03*
X146610000Y-90920000D03*
X146110000Y-90920000D03*
X145610000Y-90920000D03*
X145110000Y-90920000D03*
D33*
X143510000Y-92520000D03*
X143510000Y-93020000D03*
X143510000Y-93520000D03*
X143510000Y-94020000D03*
X143510000Y-94520000D03*
X143510000Y-95020000D03*
X143510000Y-95520000D03*
X143510000Y-96020000D03*
X143510000Y-96520000D03*
X143510000Y-97020000D03*
X143510000Y-97520000D03*
X143510000Y-98020000D03*
D34*
X154432000Y-103468000D03*
X150432000Y-103468000D03*
X150432000Y-105868000D03*
X154432000Y-105868000D03*
M02*
