M48
;DRILL file {KiCad 4.0.0-rc2-stable} date 7/24/2016 4:54:44 PM
;FORMAT={2:4/ absolute / inch / keep zeros}
FMAT,2
INCH,TZ
T1C0.016
T2C0.040
%
G90
G05
M72
T1
X047571Y-036610
X048874Y-037004
X049697Y-034467
X049889Y-045681
X050132Y-045387
X050357Y-033315
X050372Y-045147
X050394Y-036791
X050399Y-034314
X050408Y-033795
X050517Y-038186
X050609Y-044925
X050673Y-046138
X050740Y-037906
X050793Y-038648
X050823Y-039037
X050847Y-039749
X050897Y-044793
X050972Y-048181
X051035Y-039280
X051179Y-036507
X051182Y-033789
X051253Y-041297
X051287Y-040908
X051364Y-042487
X051467Y-041601
X051512Y-041121
X051606Y-034901
X051629Y-046223
X051793Y-039748
X051947Y-039085
X052031Y-047850
X052034Y-037332
X052053Y-039588
X052190Y-038148
X052201Y-038589
X052295Y-034935
X052442Y-037257
X052626Y-047732
X052695Y-034949
X052700Y-036044
X052711Y-034053
X052768Y-047224
X052772Y-033303
X052917Y-045634
X052917Y-045941
X052931Y-034641
X053114Y-037002
X053441Y-038917
X053533Y-040308
X053533Y-040617
X053545Y-040007
X053697Y-045935
X053750Y-045435
X053795Y-034989
X053816Y-033263
X053897Y-041295
X053915Y-040067
X054000Y-044819
X054053Y-046081
X054069Y-041923
X054173Y-043791
X054260Y-045205
X054272Y-037051
X054281Y-036378
X054293Y-034208
X054446Y-035531
X054463Y-033158
X054487Y-043799
X054504Y-045008
X054725Y-044265
X054725Y-045715
X054855Y-045431
X054953Y-044033
X054983Y-043095
X055082Y-046062
X055093Y-034528
X055094Y-034157
X055207Y-047845
X055213Y-041333
X055232Y-032094
X055260Y-033630
X055457Y-032831
X055559Y-036646
X055665Y-032087
X055674Y-037866
X055689Y-033429
X055753Y-040088
X055764Y-044751
X055889Y-036615
X055933Y-039848
X055952Y-045108
X055992Y-037114
X056000Y-044134
X056264Y-040659
X056471Y-035136
X056613Y-035808
X057051Y-044072
X057130Y-035224
X057231Y-037776
X057236Y-039685
X057411Y-036683
X057497Y-041444
X057513Y-043108
X057542Y-038280
X057564Y-044661
X057720Y-040079
X057807Y-044360
X057870Y-036912
X057956Y-041154
X057961Y-040780
X058033Y-046568
X058113Y-036606
X058424Y-036512
X058473Y-041688
X058509Y-045723
X058533Y-039748
X058550Y-043068
X058829Y-045597
X058873Y-043508
X059040Y-036309
X059117Y-037641
X059130Y-045507
X059153Y-038208
X059153Y-038548
X059199Y-036835
X059354Y-037383
X059624Y-036084
X059665Y-045244
X059713Y-034308
X059832Y-047006
X059852Y-044469
X059924Y-045027
X059972Y-045500
X060062Y-047564
X060073Y-041868
X060209Y-034764
X060313Y-043808
X060433Y-034008
X060503Y-038357
X060704Y-044991
X060833Y-034698
X060993Y-035848
X061073Y-034268
X061095Y-036349
X061119Y-045777
X061133Y-034588
X061133Y-035328
X061393Y-033908
X061393Y-036268
X061511Y-045732
X061513Y-034968
X061728Y-048280
X061853Y-036368
X061913Y-046808
X062113Y-042508
X062142Y-043102
X062153Y-035688
X062567Y-037077
X064921Y-044248
T2
X048213Y-035508
X048213Y-036508
X048213Y-037508
X048213Y-038508
X048213Y-039508
X048213Y-040508
X048213Y-041508
X048213Y-042508
X048213Y-043508
X048213Y-044508
X049213Y-035508
X049213Y-036508
X049213Y-037508
X049213Y-038508
X049213Y-039508
X049213Y-040508
X049213Y-041508
X049213Y-042508
X049213Y-043508
X049213Y-044508
X051213Y-032508
X052213Y-032508
X053713Y-032508
X054713Y-032508
X056213Y-032508
X057213Y-032508
X058213Y-032508
X059213Y-032508
X060213Y-032508
X061213Y-032508
X063213Y-035508
X063213Y-036508
X063213Y-037508
X063213Y-038508
X063213Y-039508
X063213Y-040508
X063213Y-041508
X063213Y-042508
X063213Y-043508
X063213Y-044508
X064213Y-035508
X064213Y-036508
X064213Y-037508
X064213Y-038508
X064213Y-039508
X064213Y-040508
X064213Y-041508
X064213Y-042508
X064213Y-043508
X064213Y-044508
T0
M30
