G04 #@! TF.FileFunction,Legend,Top*
%FSLAX46Y46*%
G04 Gerber Fmt 4.6, Leading zero omitted, Abs format (unit mm)*
G04 Created by KiCad (PCBNEW 4.0.0-rc2-stable) date 6/30/2016 5:54:54 PM*
%MOMM*%
G01*
G04 APERTURE LIST*
%ADD10C,0.100000*%
%ADD11C,0.125000*%
%ADD12C,0.075000*%
%ADD13C,0.300000*%
%ADD14C,0.150000*%
%ADD15C,0.152400*%
%ADD16C,0.127000*%
%ADD17C,0.203200*%
%ADD18C,0.304800*%
G04 APERTURE END LIST*
D10*
D11*
X75892858Y-62414286D02*
X76059524Y-62414286D01*
X76130953Y-62676190D02*
X75892858Y-62676190D01*
X75892858Y-62176190D01*
X76130953Y-62176190D01*
X76345239Y-62485714D02*
X76726191Y-62485714D01*
X76940477Y-62652381D02*
X77011906Y-62676190D01*
X77130953Y-62676190D01*
X77178572Y-62652381D01*
X77202382Y-62628571D01*
X77226191Y-62580952D01*
X77226191Y-62533333D01*
X77202382Y-62485714D01*
X77178572Y-62461905D01*
X77130953Y-62438095D01*
X77035715Y-62414286D01*
X76988096Y-62390476D01*
X76964287Y-62366667D01*
X76940477Y-62319048D01*
X76940477Y-62271429D01*
X76964287Y-62223810D01*
X76988096Y-62200000D01*
X77035715Y-62176190D01*
X77154763Y-62176190D01*
X77226191Y-62200000D01*
X77726191Y-62628571D02*
X77702381Y-62652381D01*
X77630953Y-62676190D01*
X77583334Y-62676190D01*
X77511905Y-62652381D01*
X77464286Y-62604762D01*
X77440477Y-62557143D01*
X77416667Y-62461905D01*
X77416667Y-62390476D01*
X77440477Y-62295238D01*
X77464286Y-62247619D01*
X77511905Y-62200000D01*
X77583334Y-62176190D01*
X77630953Y-62176190D01*
X77702381Y-62200000D01*
X77726191Y-62223810D01*
X78178572Y-62676190D02*
X77940477Y-62676190D01*
X77940477Y-62176190D01*
X73240953Y-62424286D02*
X73407619Y-62424286D01*
X73479048Y-62686190D02*
X73240953Y-62686190D01*
X73240953Y-62186190D01*
X73479048Y-62186190D01*
X73693334Y-62495714D02*
X74074286Y-62495714D01*
X74288572Y-62662381D02*
X74360001Y-62686190D01*
X74479048Y-62686190D01*
X74526667Y-62662381D01*
X74550477Y-62638571D01*
X74574286Y-62590952D01*
X74574286Y-62543333D01*
X74550477Y-62495714D01*
X74526667Y-62471905D01*
X74479048Y-62448095D01*
X74383810Y-62424286D01*
X74336191Y-62400476D01*
X74312382Y-62376667D01*
X74288572Y-62329048D01*
X74288572Y-62281429D01*
X74312382Y-62233810D01*
X74336191Y-62210000D01*
X74383810Y-62186190D01*
X74502858Y-62186190D01*
X74574286Y-62210000D01*
X74788572Y-62686190D02*
X74788572Y-62186190D01*
X74907619Y-62186190D01*
X74979048Y-62210000D01*
X75026667Y-62257619D01*
X75050476Y-62305238D01*
X75074286Y-62400476D01*
X75074286Y-62471905D01*
X75050476Y-62567143D01*
X75026667Y-62614762D01*
X74979048Y-62662381D01*
X74907619Y-62686190D01*
X74788572Y-62686190D01*
X75264762Y-62543333D02*
X75502857Y-62543333D01*
X75217143Y-62686190D02*
X75383810Y-62186190D01*
X75550476Y-62686190D01*
X72849048Y-66666190D02*
X72849048Y-67070952D01*
X72872857Y-67118571D01*
X72896667Y-67142381D01*
X72944286Y-67166190D01*
X73039524Y-67166190D01*
X73087143Y-67142381D01*
X73110952Y-67118571D01*
X73134762Y-67070952D01*
X73134762Y-66666190D01*
X73634762Y-67166190D02*
X73349048Y-67166190D01*
X73491905Y-67166190D02*
X73491905Y-66666190D01*
X73444286Y-66737619D01*
X73396667Y-66785238D01*
X73349048Y-66809048D01*
X53079048Y-71106190D02*
X53079048Y-71510952D01*
X53102857Y-71558571D01*
X53126667Y-71582381D01*
X53174286Y-71606190D01*
X53269524Y-71606190D01*
X53317143Y-71582381D01*
X53340952Y-71558571D01*
X53364762Y-71510952D01*
X53364762Y-71106190D01*
X53840953Y-71106190D02*
X53602858Y-71106190D01*
X53579048Y-71344286D01*
X53602858Y-71320476D01*
X53650477Y-71296667D01*
X53769524Y-71296667D01*
X53817143Y-71320476D01*
X53840953Y-71344286D01*
X53864762Y-71391905D01*
X53864762Y-71510952D01*
X53840953Y-71558571D01*
X53817143Y-71582381D01*
X53769524Y-71606190D01*
X53650477Y-71606190D01*
X53602858Y-71582381D01*
X53579048Y-71558571D01*
X54620953Y-82396190D02*
X54620953Y-82800952D01*
X54644762Y-82848571D01*
X54668572Y-82872381D01*
X54716191Y-82896190D01*
X54811429Y-82896190D01*
X54859048Y-82872381D01*
X54882857Y-82848571D01*
X54906667Y-82800952D01*
X54906667Y-82396190D01*
X55406667Y-82896190D02*
X55120953Y-82896190D01*
X55263810Y-82896190D02*
X55263810Y-82396190D01*
X55216191Y-82467619D01*
X55168572Y-82515238D01*
X55120953Y-82539048D01*
X55716191Y-82396190D02*
X55763810Y-82396190D01*
X55811429Y-82420000D01*
X55835238Y-82443810D01*
X55859048Y-82491429D01*
X55882857Y-82586667D01*
X55882857Y-82705714D01*
X55859048Y-82800952D01*
X55835238Y-82848571D01*
X55811429Y-82872381D01*
X55763810Y-82896190D01*
X55716191Y-82896190D01*
X55668572Y-82872381D01*
X55644762Y-82848571D01*
X55620953Y-82800952D01*
X55597143Y-82705714D01*
X55597143Y-82586667D01*
X55620953Y-82491429D01*
X55644762Y-82443810D01*
X55668572Y-82420000D01*
X55716191Y-82396190D01*
X67649048Y-66306190D02*
X67649048Y-66710952D01*
X67672857Y-66758571D01*
X67696667Y-66782381D01*
X67744286Y-66806190D01*
X67839524Y-66806190D01*
X67887143Y-66782381D01*
X67910952Y-66758571D01*
X67934762Y-66710952D01*
X67934762Y-66306190D01*
X68149048Y-66353810D02*
X68172858Y-66330000D01*
X68220477Y-66306190D01*
X68339524Y-66306190D01*
X68387143Y-66330000D01*
X68410953Y-66353810D01*
X68434762Y-66401429D01*
X68434762Y-66449048D01*
X68410953Y-66520476D01*
X68125239Y-66806190D01*
X68434762Y-66806190D01*
X63105239Y-76536190D02*
X63438572Y-77036190D01*
X63438572Y-76536190D02*
X63105239Y-77036190D01*
X63890952Y-77036190D02*
X63605238Y-77036190D01*
X63748095Y-77036190D02*
X63748095Y-76536190D01*
X63700476Y-76607619D01*
X63652857Y-76655238D01*
X63605238Y-76679048D01*
D12*
X59167143Y-77007143D02*
X59152857Y-77021429D01*
X59110000Y-77035714D01*
X59081429Y-77035714D01*
X59038572Y-77021429D01*
X59010000Y-76992857D01*
X58995715Y-76964286D01*
X58981429Y-76907143D01*
X58981429Y-76864286D01*
X58995715Y-76807143D01*
X59010000Y-76778571D01*
X59038572Y-76750000D01*
X59081429Y-76735714D01*
X59110000Y-76735714D01*
X59152857Y-76750000D01*
X59167143Y-76764286D01*
X59281429Y-76764286D02*
X59295715Y-76750000D01*
X59324286Y-76735714D01*
X59395715Y-76735714D01*
X59424286Y-76750000D01*
X59438572Y-76764286D01*
X59452857Y-76792857D01*
X59452857Y-76821429D01*
X59438572Y-76864286D01*
X59267143Y-77035714D01*
X59452857Y-77035714D01*
X59552857Y-76735714D02*
X59738571Y-76735714D01*
X59638571Y-76850000D01*
X59681429Y-76850000D01*
X59710000Y-76864286D01*
X59724286Y-76878571D01*
X59738571Y-76907143D01*
X59738571Y-76978571D01*
X59724286Y-77007143D01*
X59710000Y-77021429D01*
X59681429Y-77035714D01*
X59595714Y-77035714D01*
X59567143Y-77021429D01*
X59552857Y-77007143D01*
X67567143Y-77017143D02*
X67552857Y-77031429D01*
X67510000Y-77045714D01*
X67481429Y-77045714D01*
X67438572Y-77031429D01*
X67410000Y-77002857D01*
X67395715Y-76974286D01*
X67381429Y-76917143D01*
X67381429Y-76874286D01*
X67395715Y-76817143D01*
X67410000Y-76788571D01*
X67438572Y-76760000D01*
X67481429Y-76745714D01*
X67510000Y-76745714D01*
X67552857Y-76760000D01*
X67567143Y-76774286D01*
X67681429Y-76774286D02*
X67695715Y-76760000D01*
X67724286Y-76745714D01*
X67795715Y-76745714D01*
X67824286Y-76760000D01*
X67838572Y-76774286D01*
X67852857Y-76802857D01*
X67852857Y-76831429D01*
X67838572Y-76874286D01*
X67667143Y-77045714D01*
X67852857Y-77045714D01*
X67967143Y-76774286D02*
X67981429Y-76760000D01*
X68010000Y-76745714D01*
X68081429Y-76745714D01*
X68110000Y-76760000D01*
X68124286Y-76774286D01*
X68138571Y-76802857D01*
X68138571Y-76831429D01*
X68124286Y-76874286D01*
X67952857Y-77045714D01*
X68138571Y-77045714D01*
D11*
X72270001Y-77366190D02*
X72270001Y-76866190D01*
X67249048Y-80836190D02*
X67249048Y-81240952D01*
X67272857Y-81288571D01*
X67296667Y-81312381D01*
X67344286Y-81336190D01*
X67439524Y-81336190D01*
X67487143Y-81312381D01*
X67510952Y-81288571D01*
X67534762Y-81240952D01*
X67534762Y-80836190D01*
X67796667Y-81336190D02*
X67891905Y-81336190D01*
X67939524Y-81312381D01*
X67963334Y-81288571D01*
X68010953Y-81217143D01*
X68034762Y-81121905D01*
X68034762Y-80931429D01*
X68010953Y-80883810D01*
X67987143Y-80860000D01*
X67939524Y-80836190D01*
X67844286Y-80836190D01*
X67796667Y-80860000D01*
X67772858Y-80883810D01*
X67749048Y-80931429D01*
X67749048Y-81050476D01*
X67772858Y-81098095D01*
X67796667Y-81121905D01*
X67844286Y-81145714D01*
X67939524Y-81145714D01*
X67987143Y-81121905D01*
X68010953Y-81098095D01*
X68034762Y-81050476D01*
X65750953Y-85456190D02*
X65750953Y-85860952D01*
X65774762Y-85908571D01*
X65798572Y-85932381D01*
X65846191Y-85956190D01*
X65941429Y-85956190D01*
X65989048Y-85932381D01*
X66012857Y-85908571D01*
X66036667Y-85860952D01*
X66036667Y-85456190D01*
X66536667Y-85956190D02*
X66250953Y-85956190D01*
X66393810Y-85956190D02*
X66393810Y-85456190D01*
X66346191Y-85527619D01*
X66298572Y-85575238D01*
X66250953Y-85599048D01*
X67012857Y-85956190D02*
X66727143Y-85956190D01*
X66870000Y-85956190D02*
X66870000Y-85456190D01*
X66822381Y-85527619D01*
X66774762Y-85575238D01*
X66727143Y-85599048D01*
D12*
X64175715Y-82311429D02*
X64218572Y-82325714D01*
X64290001Y-82325714D01*
X64318572Y-82311429D01*
X64332858Y-82297143D01*
X64347143Y-82268571D01*
X64347143Y-82240000D01*
X64332858Y-82211429D01*
X64318572Y-82197143D01*
X64290001Y-82182857D01*
X64232858Y-82168571D01*
X64204286Y-82154286D01*
X64190001Y-82140000D01*
X64175715Y-82111429D01*
X64175715Y-82082857D01*
X64190001Y-82054286D01*
X64204286Y-82040000D01*
X64232858Y-82025714D01*
X64304286Y-82025714D01*
X64347143Y-82040000D01*
X64475715Y-82325714D02*
X64475715Y-82025714D01*
X64547143Y-82025714D01*
X64590000Y-82040000D01*
X64618572Y-82068571D01*
X64632857Y-82097143D01*
X64647143Y-82154286D01*
X64647143Y-82197143D01*
X64632857Y-82254286D01*
X64618572Y-82282857D01*
X64590000Y-82311429D01*
X64547143Y-82325714D01*
X64475715Y-82325714D01*
X64761429Y-82240000D02*
X64904286Y-82240000D01*
X64732857Y-82325714D02*
X64832857Y-82025714D01*
X64932857Y-82325714D01*
X63792858Y-80821429D02*
X63835715Y-80835714D01*
X63907144Y-80835714D01*
X63935715Y-80821429D01*
X63950001Y-80807143D01*
X63964286Y-80778571D01*
X63964286Y-80750000D01*
X63950001Y-80721429D01*
X63935715Y-80707143D01*
X63907144Y-80692857D01*
X63850001Y-80678571D01*
X63821429Y-80664286D01*
X63807144Y-80650000D01*
X63792858Y-80621429D01*
X63792858Y-80592857D01*
X63807144Y-80564286D01*
X63821429Y-80550000D01*
X63850001Y-80535714D01*
X63921429Y-80535714D01*
X63964286Y-80550000D01*
X64264286Y-80807143D02*
X64250000Y-80821429D01*
X64207143Y-80835714D01*
X64178572Y-80835714D01*
X64135715Y-80821429D01*
X64107143Y-80792857D01*
X64092858Y-80764286D01*
X64078572Y-80707143D01*
X64078572Y-80664286D01*
X64092858Y-80607143D01*
X64107143Y-80578571D01*
X64135715Y-80550000D01*
X64178572Y-80535714D01*
X64207143Y-80535714D01*
X64250000Y-80550000D01*
X64264286Y-80564286D01*
X64535715Y-80835714D02*
X64392858Y-80835714D01*
X64392858Y-80535714D01*
X75737143Y-87787143D02*
X75722857Y-87801429D01*
X75680000Y-87815714D01*
X75651429Y-87815714D01*
X75608572Y-87801429D01*
X75580000Y-87772857D01*
X75565715Y-87744286D01*
X75551429Y-87687143D01*
X75551429Y-87644286D01*
X75565715Y-87587143D01*
X75580000Y-87558571D01*
X75608572Y-87530000D01*
X75651429Y-87515714D01*
X75680000Y-87515714D01*
X75722857Y-87530000D01*
X75737143Y-87544286D01*
X75851429Y-87544286D02*
X75865715Y-87530000D01*
X75894286Y-87515714D01*
X75965715Y-87515714D01*
X75994286Y-87530000D01*
X76008572Y-87544286D01*
X76022857Y-87572857D01*
X76022857Y-87601429D01*
X76008572Y-87644286D01*
X75837143Y-87815714D01*
X76022857Y-87815714D01*
X76308571Y-87815714D02*
X76137143Y-87815714D01*
X76222857Y-87815714D02*
X76222857Y-87515714D01*
X76194286Y-87558571D01*
X76165714Y-87587143D01*
X76137143Y-87601429D01*
X73257143Y-88577143D02*
X73242857Y-88591429D01*
X73200000Y-88605714D01*
X73171429Y-88605714D01*
X73128572Y-88591429D01*
X73100000Y-88562857D01*
X73085715Y-88534286D01*
X73071429Y-88477143D01*
X73071429Y-88434286D01*
X73085715Y-88377143D01*
X73100000Y-88348571D01*
X73128572Y-88320000D01*
X73171429Y-88305714D01*
X73200000Y-88305714D01*
X73242857Y-88320000D01*
X73257143Y-88334286D01*
X73542857Y-88605714D02*
X73371429Y-88605714D01*
X73457143Y-88605714D02*
X73457143Y-88305714D01*
X73428572Y-88348571D01*
X73400000Y-88377143D01*
X73371429Y-88391429D01*
X73642857Y-88305714D02*
X73842857Y-88305714D01*
X73714286Y-88605714D01*
X73400000Y-86957143D02*
X73385714Y-86971429D01*
X73342857Y-86985714D01*
X73314286Y-86985714D01*
X73271429Y-86971429D01*
X73242857Y-86942857D01*
X73228572Y-86914286D01*
X73214286Y-86857143D01*
X73214286Y-86814286D01*
X73228572Y-86757143D01*
X73242857Y-86728571D01*
X73271429Y-86700000D01*
X73314286Y-86685714D01*
X73342857Y-86685714D01*
X73385714Y-86700000D01*
X73400000Y-86714286D01*
X73514286Y-86714286D02*
X73528572Y-86700000D01*
X73557143Y-86685714D01*
X73628572Y-86685714D01*
X73657143Y-86700000D01*
X73671429Y-86714286D01*
X73685714Y-86742857D01*
X73685714Y-86771429D01*
X73671429Y-86814286D01*
X73500000Y-86985714D01*
X73685714Y-86985714D01*
X73247143Y-85337143D02*
X73232857Y-85351429D01*
X73190000Y-85365714D01*
X73161429Y-85365714D01*
X73118572Y-85351429D01*
X73090000Y-85322857D01*
X73075715Y-85294286D01*
X73061429Y-85237143D01*
X73061429Y-85194286D01*
X73075715Y-85137143D01*
X73090000Y-85108571D01*
X73118572Y-85080000D01*
X73161429Y-85065714D01*
X73190000Y-85065714D01*
X73232857Y-85080000D01*
X73247143Y-85094286D01*
X73532857Y-85365714D02*
X73361429Y-85365714D01*
X73447143Y-85365714D02*
X73447143Y-85065714D01*
X73418572Y-85108571D01*
X73390000Y-85137143D01*
X73361429Y-85151429D01*
X73704286Y-85194286D02*
X73675714Y-85180000D01*
X73661429Y-85165714D01*
X73647143Y-85137143D01*
X73647143Y-85122857D01*
X73661429Y-85094286D01*
X73675714Y-85080000D01*
X73704286Y-85065714D01*
X73761429Y-85065714D01*
X73790000Y-85080000D01*
X73804286Y-85094286D01*
X73818571Y-85122857D01*
X73818571Y-85137143D01*
X73804286Y-85165714D01*
X73790000Y-85180000D01*
X73761429Y-85194286D01*
X73704286Y-85194286D01*
X73675714Y-85208571D01*
X73661429Y-85222857D01*
X73647143Y-85251429D01*
X73647143Y-85308571D01*
X73661429Y-85337143D01*
X73675714Y-85351429D01*
X73704286Y-85365714D01*
X73761429Y-85365714D01*
X73790000Y-85351429D01*
X73804286Y-85337143D01*
X73818571Y-85308571D01*
X73818571Y-85251429D01*
X73804286Y-85222857D01*
X73790000Y-85208571D01*
X73761429Y-85194286D01*
X70107143Y-81427143D02*
X70092857Y-81441429D01*
X70050000Y-81455714D01*
X70021429Y-81455714D01*
X69978572Y-81441429D01*
X69950000Y-81412857D01*
X69935715Y-81384286D01*
X69921429Y-81327143D01*
X69921429Y-81284286D01*
X69935715Y-81227143D01*
X69950000Y-81198571D01*
X69978572Y-81170000D01*
X70021429Y-81155714D01*
X70050000Y-81155714D01*
X70092857Y-81170000D01*
X70107143Y-81184286D01*
X70392857Y-81455714D02*
X70221429Y-81455714D01*
X70307143Y-81455714D02*
X70307143Y-81155714D01*
X70278572Y-81198571D01*
X70250000Y-81227143D01*
X70221429Y-81241429D01*
X70650000Y-81155714D02*
X70592857Y-81155714D01*
X70564286Y-81170000D01*
X70550000Y-81184286D01*
X70521429Y-81227143D01*
X70507143Y-81284286D01*
X70507143Y-81398571D01*
X70521429Y-81427143D01*
X70535714Y-81441429D01*
X70564286Y-81455714D01*
X70621429Y-81455714D01*
X70650000Y-81441429D01*
X70664286Y-81427143D01*
X70678571Y-81398571D01*
X70678571Y-81327143D01*
X70664286Y-81298571D01*
X70650000Y-81284286D01*
X70621429Y-81270000D01*
X70564286Y-81270000D01*
X70535714Y-81284286D01*
X70521429Y-81298571D01*
X70507143Y-81327143D01*
X71567143Y-81397143D02*
X71552857Y-81411429D01*
X71510000Y-81425714D01*
X71481429Y-81425714D01*
X71438572Y-81411429D01*
X71410000Y-81382857D01*
X71395715Y-81354286D01*
X71381429Y-81297143D01*
X71381429Y-81254286D01*
X71395715Y-81197143D01*
X71410000Y-81168571D01*
X71438572Y-81140000D01*
X71481429Y-81125714D01*
X71510000Y-81125714D01*
X71552857Y-81140000D01*
X71567143Y-81154286D01*
X71852857Y-81425714D02*
X71681429Y-81425714D01*
X71767143Y-81425714D02*
X71767143Y-81125714D01*
X71738572Y-81168571D01*
X71710000Y-81197143D01*
X71681429Y-81211429D01*
X71995714Y-81425714D02*
X72052857Y-81425714D01*
X72081429Y-81411429D01*
X72095714Y-81397143D01*
X72124286Y-81354286D01*
X72138571Y-81297143D01*
X72138571Y-81182857D01*
X72124286Y-81154286D01*
X72110000Y-81140000D01*
X72081429Y-81125714D01*
X72024286Y-81125714D01*
X71995714Y-81140000D01*
X71981429Y-81154286D01*
X71967143Y-81182857D01*
X71967143Y-81254286D01*
X71981429Y-81282857D01*
X71995714Y-81297143D01*
X72024286Y-81311429D01*
X72081429Y-81311429D01*
X72110000Y-81297143D01*
X72124286Y-81282857D01*
X72138571Y-81254286D01*
X73027143Y-81427143D02*
X73012857Y-81441429D01*
X72970000Y-81455714D01*
X72941429Y-81455714D01*
X72898572Y-81441429D01*
X72870000Y-81412857D01*
X72855715Y-81384286D01*
X72841429Y-81327143D01*
X72841429Y-81284286D01*
X72855715Y-81227143D01*
X72870000Y-81198571D01*
X72898572Y-81170000D01*
X72941429Y-81155714D01*
X72970000Y-81155714D01*
X73012857Y-81170000D01*
X73027143Y-81184286D01*
X73312857Y-81455714D02*
X73141429Y-81455714D01*
X73227143Y-81455714D02*
X73227143Y-81155714D01*
X73198572Y-81198571D01*
X73170000Y-81227143D01*
X73141429Y-81241429D01*
X73498571Y-81155714D02*
X73527143Y-81155714D01*
X73555714Y-81170000D01*
X73570000Y-81184286D01*
X73584286Y-81212857D01*
X73598571Y-81270000D01*
X73598571Y-81341429D01*
X73584286Y-81398571D01*
X73570000Y-81427143D01*
X73555714Y-81441429D01*
X73527143Y-81455714D01*
X73498571Y-81455714D01*
X73470000Y-81441429D01*
X73455714Y-81427143D01*
X73441429Y-81398571D01*
X73427143Y-81341429D01*
X73427143Y-81270000D01*
X73441429Y-81212857D01*
X73455714Y-81184286D01*
X73470000Y-81170000D01*
X73498571Y-81155714D01*
X75787143Y-82827143D02*
X75772857Y-82841429D01*
X75730000Y-82855714D01*
X75701429Y-82855714D01*
X75658572Y-82841429D01*
X75630000Y-82812857D01*
X75615715Y-82784286D01*
X75601429Y-82727143D01*
X75601429Y-82684286D01*
X75615715Y-82627143D01*
X75630000Y-82598571D01*
X75658572Y-82570000D01*
X75701429Y-82555714D01*
X75730000Y-82555714D01*
X75772857Y-82570000D01*
X75787143Y-82584286D01*
X76072857Y-82855714D02*
X75901429Y-82855714D01*
X75987143Y-82855714D02*
X75987143Y-82555714D01*
X75958572Y-82598571D01*
X75930000Y-82627143D01*
X75901429Y-82641429D01*
X76258571Y-82555714D02*
X76287143Y-82555714D01*
X76315714Y-82570000D01*
X76330000Y-82584286D01*
X76344286Y-82612857D01*
X76358571Y-82670000D01*
X76358571Y-82741429D01*
X76344286Y-82798571D01*
X76330000Y-82827143D01*
X76315714Y-82841429D01*
X76287143Y-82855714D01*
X76258571Y-82855714D01*
X76230000Y-82841429D01*
X76215714Y-82827143D01*
X76201429Y-82798571D01*
X76187143Y-82741429D01*
X76187143Y-82670000D01*
X76201429Y-82612857D01*
X76215714Y-82584286D01*
X76230000Y-82570000D01*
X76258571Y-82555714D01*
X67040000Y-63165714D02*
X66940000Y-63022857D01*
X66868572Y-63165714D02*
X66868572Y-62865714D01*
X66982857Y-62865714D01*
X67011429Y-62880000D01*
X67025714Y-62894286D01*
X67040000Y-62922857D01*
X67040000Y-62965714D01*
X67025714Y-62994286D01*
X67011429Y-63008571D01*
X66982857Y-63022857D01*
X66868572Y-63022857D01*
X67325714Y-63165714D02*
X67154286Y-63165714D01*
X67240000Y-63165714D02*
X67240000Y-62865714D01*
X67211429Y-62908571D01*
X67182857Y-62937143D01*
X67154286Y-62951429D01*
X80310000Y-81915714D02*
X80210000Y-81772857D01*
X80138572Y-81915714D02*
X80138572Y-81615714D01*
X80252857Y-81615714D01*
X80281429Y-81630000D01*
X80295714Y-81644286D01*
X80310000Y-81672857D01*
X80310000Y-81715714D01*
X80295714Y-81744286D01*
X80281429Y-81758571D01*
X80252857Y-81772857D01*
X80138572Y-81772857D01*
X80567143Y-81715714D02*
X80567143Y-81915714D01*
X80495714Y-81601429D02*
X80424286Y-81815714D01*
X80610000Y-81815714D01*
D11*
X80312381Y-79533810D02*
X80264762Y-79510000D01*
X80217143Y-79462381D01*
X80145714Y-79390952D01*
X80098095Y-79367143D01*
X80050476Y-79367143D01*
X80074286Y-79486190D02*
X80026667Y-79462381D01*
X79979048Y-79414762D01*
X79955238Y-79319524D01*
X79955238Y-79152857D01*
X79979048Y-79057619D01*
X80026667Y-79010000D01*
X80074286Y-78986190D01*
X80169524Y-78986190D01*
X80217143Y-79010000D01*
X80264762Y-79057619D01*
X80288571Y-79152857D01*
X80288571Y-79319524D01*
X80264762Y-79414762D01*
X80217143Y-79462381D01*
X80169524Y-79486190D01*
X80074286Y-79486190D01*
X80764762Y-79486190D02*
X80479048Y-79486190D01*
X80621905Y-79486190D02*
X80621905Y-78986190D01*
X80574286Y-79057619D01*
X80526667Y-79105238D01*
X80479048Y-79129048D01*
D12*
X80270000Y-76667143D02*
X80255714Y-76681429D01*
X80212857Y-76695714D01*
X80184286Y-76695714D01*
X80141429Y-76681429D01*
X80112857Y-76652857D01*
X80098572Y-76624286D01*
X80084286Y-76567143D01*
X80084286Y-76524286D01*
X80098572Y-76467143D01*
X80112857Y-76438571D01*
X80141429Y-76410000D01*
X80184286Y-76395714D01*
X80212857Y-76395714D01*
X80255714Y-76410000D01*
X80270000Y-76424286D01*
X80527143Y-76495714D02*
X80527143Y-76695714D01*
X80455714Y-76381429D02*
X80384286Y-76595714D01*
X80570000Y-76595714D01*
X80170000Y-74977143D02*
X80155714Y-74991429D01*
X80112857Y-75005714D01*
X80084286Y-75005714D01*
X80041429Y-74991429D01*
X80012857Y-74962857D01*
X79998572Y-74934286D01*
X79984286Y-74877143D01*
X79984286Y-74834286D01*
X79998572Y-74777143D01*
X80012857Y-74748571D01*
X80041429Y-74720000D01*
X80084286Y-74705714D01*
X80112857Y-74705714D01*
X80155714Y-74720000D01*
X80170000Y-74734286D01*
X80312857Y-75005714D02*
X80370000Y-75005714D01*
X80398572Y-74991429D01*
X80412857Y-74977143D01*
X80441429Y-74934286D01*
X80455714Y-74877143D01*
X80455714Y-74762857D01*
X80441429Y-74734286D01*
X80427143Y-74720000D01*
X80398572Y-74705714D01*
X80341429Y-74705714D01*
X80312857Y-74720000D01*
X80298572Y-74734286D01*
X80284286Y-74762857D01*
X80284286Y-74834286D01*
X80298572Y-74862857D01*
X80312857Y-74877143D01*
X80341429Y-74891429D01*
X80398572Y-74891429D01*
X80427143Y-74877143D01*
X80441429Y-74862857D01*
X80455714Y-74834286D01*
X80250000Y-73307143D02*
X80235714Y-73321429D01*
X80192857Y-73335714D01*
X80164286Y-73335714D01*
X80121429Y-73321429D01*
X80092857Y-73292857D01*
X80078572Y-73264286D01*
X80064286Y-73207143D01*
X80064286Y-73164286D01*
X80078572Y-73107143D01*
X80092857Y-73078571D01*
X80121429Y-73050000D01*
X80164286Y-73035714D01*
X80192857Y-73035714D01*
X80235714Y-73050000D01*
X80250000Y-73064286D01*
X80350000Y-73035714D02*
X80535714Y-73035714D01*
X80435714Y-73150000D01*
X80478572Y-73150000D01*
X80507143Y-73164286D01*
X80521429Y-73178571D01*
X80535714Y-73207143D01*
X80535714Y-73278571D01*
X80521429Y-73307143D01*
X80507143Y-73321429D01*
X80478572Y-73335714D01*
X80392857Y-73335714D01*
X80364286Y-73321429D01*
X80350000Y-73307143D01*
X80200000Y-71537143D02*
X80185714Y-71551429D01*
X80142857Y-71565714D01*
X80114286Y-71565714D01*
X80071429Y-71551429D01*
X80042857Y-71522857D01*
X80028572Y-71494286D01*
X80014286Y-71437143D01*
X80014286Y-71394286D01*
X80028572Y-71337143D01*
X80042857Y-71308571D01*
X80071429Y-71280000D01*
X80114286Y-71265714D01*
X80142857Y-71265714D01*
X80185714Y-71280000D01*
X80200000Y-71294286D01*
X80457143Y-71265714D02*
X80400000Y-71265714D01*
X80371429Y-71280000D01*
X80357143Y-71294286D01*
X80328572Y-71337143D01*
X80314286Y-71394286D01*
X80314286Y-71508571D01*
X80328572Y-71537143D01*
X80342857Y-71551429D01*
X80371429Y-71565714D01*
X80428572Y-71565714D01*
X80457143Y-71551429D01*
X80471429Y-71537143D01*
X80485714Y-71508571D01*
X80485714Y-71437143D01*
X80471429Y-71408571D01*
X80457143Y-71394286D01*
X80428572Y-71380000D01*
X80371429Y-71380000D01*
X80342857Y-71394286D01*
X80328572Y-71408571D01*
X80314286Y-71437143D01*
X42328572Y-91250714D02*
X42328572Y-90950714D01*
X42400000Y-90950714D01*
X42442857Y-90965000D01*
X42471429Y-90993571D01*
X42485714Y-91022143D01*
X42500000Y-91079286D01*
X42500000Y-91122143D01*
X42485714Y-91179286D01*
X42471429Y-91207857D01*
X42442857Y-91236429D01*
X42400000Y-91250714D01*
X42328572Y-91250714D01*
X42757143Y-91050714D02*
X42757143Y-91250714D01*
X42685714Y-90936429D02*
X42614286Y-91150714D01*
X42800000Y-91150714D01*
X42298572Y-89825714D02*
X42298572Y-89525714D01*
X42370000Y-89525714D01*
X42412857Y-89540000D01*
X42441429Y-89568571D01*
X42455714Y-89597143D01*
X42470000Y-89654286D01*
X42470000Y-89697143D01*
X42455714Y-89754286D01*
X42441429Y-89782857D01*
X42412857Y-89811429D01*
X42370000Y-89825714D01*
X42298572Y-89825714D01*
X42570000Y-89525714D02*
X42755714Y-89525714D01*
X42655714Y-89640000D01*
X42698572Y-89640000D01*
X42727143Y-89654286D01*
X42741429Y-89668571D01*
X42755714Y-89697143D01*
X42755714Y-89768571D01*
X42741429Y-89797143D01*
X42727143Y-89811429D01*
X42698572Y-89825714D01*
X42612857Y-89825714D01*
X42584286Y-89811429D01*
X42570000Y-89797143D01*
X44018572Y-62435714D02*
X44018572Y-62135714D01*
X44090000Y-62135714D01*
X44132857Y-62150000D01*
X44161429Y-62178571D01*
X44175714Y-62207143D01*
X44190000Y-62264286D01*
X44190000Y-62307143D01*
X44175714Y-62364286D01*
X44161429Y-62392857D01*
X44132857Y-62421429D01*
X44090000Y-62435714D01*
X44018572Y-62435714D01*
X44304286Y-62164286D02*
X44318572Y-62150000D01*
X44347143Y-62135714D01*
X44418572Y-62135714D01*
X44447143Y-62150000D01*
X44461429Y-62164286D01*
X44475714Y-62192857D01*
X44475714Y-62221429D01*
X44461429Y-62264286D01*
X44290000Y-62435714D01*
X44475714Y-62435714D01*
D13*
X79150000Y-86672857D02*
X79078571Y-86815714D01*
X79078571Y-87030000D01*
X79150000Y-87244285D01*
X79292857Y-87387143D01*
X79435714Y-87458571D01*
X79721429Y-87530000D01*
X79935714Y-87530000D01*
X80221429Y-87458571D01*
X80364286Y-87387143D01*
X80507143Y-87244285D01*
X80578571Y-87030000D01*
X80578571Y-86887143D01*
X80507143Y-86672857D01*
X80435714Y-86601428D01*
X79935714Y-86601428D01*
X79935714Y-86887143D01*
X80578571Y-85958571D02*
X79078571Y-85958571D01*
X80578571Y-85101428D01*
X79078571Y-85101428D01*
X80578571Y-84387142D02*
X79078571Y-84387142D01*
X79078571Y-84029999D01*
X79150000Y-83815714D01*
X79292857Y-83672856D01*
X79435714Y-83601428D01*
X79721429Y-83529999D01*
X79935714Y-83529999D01*
X80221429Y-83601428D01*
X80364286Y-83672856D01*
X80507143Y-83815714D01*
X80578571Y-84029999D01*
X80578571Y-84387142D01*
X79088571Y-67504285D02*
X80588571Y-67004285D01*
X79088571Y-66504285D01*
X79802857Y-65504285D02*
X79874286Y-65289999D01*
X79945714Y-65218571D01*
X80088571Y-65147142D01*
X80302857Y-65147142D01*
X80445714Y-65218571D01*
X80517143Y-65289999D01*
X80588571Y-65432857D01*
X80588571Y-66004285D01*
X79088571Y-66004285D01*
X79088571Y-65504285D01*
X79160000Y-65361428D01*
X79231429Y-65289999D01*
X79374286Y-65218571D01*
X79517143Y-65218571D01*
X79660000Y-65289999D01*
X79731429Y-65361428D01*
X79802857Y-65504285D01*
X79802857Y-66004285D01*
X80160000Y-64575714D02*
X80160000Y-63861428D01*
X80588571Y-64718571D02*
X79088571Y-64218571D01*
X80588571Y-63718571D01*
X79088571Y-63432857D02*
X79088571Y-62575714D01*
X80588571Y-63004285D02*
X79088571Y-63004285D01*
D11*
X84539047Y-88740000D02*
X84491428Y-88716190D01*
X84420000Y-88716190D01*
X84348571Y-88740000D01*
X84300952Y-88787619D01*
X84277143Y-88835238D01*
X84253333Y-88930476D01*
X84253333Y-89001905D01*
X84277143Y-89097143D01*
X84300952Y-89144762D01*
X84348571Y-89192381D01*
X84420000Y-89216190D01*
X84467619Y-89216190D01*
X84539047Y-89192381D01*
X84562857Y-89168571D01*
X84562857Y-89001905D01*
X84467619Y-89001905D01*
X84777143Y-89216190D02*
X84777143Y-88716190D01*
X85062857Y-89216190D01*
X85062857Y-88716190D01*
X85300953Y-89216190D02*
X85300953Y-88716190D01*
X85420000Y-88716190D01*
X85491429Y-88740000D01*
X85539048Y-88787619D01*
X85562857Y-88835238D01*
X85586667Y-88930476D01*
X85586667Y-89001905D01*
X85562857Y-89097143D01*
X85539048Y-89144762D01*
X85491429Y-89192381D01*
X85420000Y-89216190D01*
X85300953Y-89216190D01*
X81651906Y-88656190D02*
X81961429Y-88656190D01*
X81794763Y-88846667D01*
X81866191Y-88846667D01*
X81913810Y-88870476D01*
X81937620Y-88894286D01*
X81961429Y-88941905D01*
X81961429Y-89060952D01*
X81937620Y-89108571D01*
X81913810Y-89132381D01*
X81866191Y-89156190D01*
X81723334Y-89156190D01*
X81675715Y-89132381D01*
X81651906Y-89108571D01*
X82175715Y-89108571D02*
X82199524Y-89132381D01*
X82175715Y-89156190D01*
X82151905Y-89132381D01*
X82175715Y-89108571D01*
X82175715Y-89156190D01*
X82366191Y-88656190D02*
X82675714Y-88656190D01*
X82509048Y-88846667D01*
X82580476Y-88846667D01*
X82628095Y-88870476D01*
X82651905Y-88894286D01*
X82675714Y-88941905D01*
X82675714Y-89060952D01*
X82651905Y-89108571D01*
X82628095Y-89132381D01*
X82580476Y-89156190D01*
X82437619Y-89156190D01*
X82390000Y-89132381D01*
X82366191Y-89108571D01*
X82818571Y-88656190D02*
X82985238Y-89156190D01*
X83151904Y-88656190D01*
X79526667Y-89186190D02*
X79360000Y-88948095D01*
X79240953Y-89186190D02*
X79240953Y-88686190D01*
X79431429Y-88686190D01*
X79479048Y-88710000D01*
X79502857Y-88733810D01*
X79526667Y-88781429D01*
X79526667Y-88852857D01*
X79502857Y-88900476D01*
X79479048Y-88924286D01*
X79431429Y-88948095D01*
X79240953Y-88948095D01*
X79693334Y-88686190D02*
X80026667Y-89186190D01*
X80026667Y-88686190D02*
X79693334Y-89186190D01*
X80217143Y-89186190D02*
X80217143Y-88686190D01*
X80336190Y-88686190D01*
X80407619Y-88710000D01*
X80455238Y-88757619D01*
X80479047Y-88805238D01*
X80502857Y-88900476D01*
X80502857Y-88971905D01*
X80479047Y-89067143D01*
X80455238Y-89114762D01*
X80407619Y-89162381D01*
X80336190Y-89186190D01*
X80217143Y-89186190D01*
X76679048Y-88716190D02*
X76964762Y-88716190D01*
X76821905Y-89216190D02*
X76821905Y-88716190D01*
X77083810Y-88716190D02*
X77417143Y-89216190D01*
X77417143Y-88716190D02*
X77083810Y-89216190D01*
X77607619Y-89216190D02*
X77607619Y-88716190D01*
X77726666Y-88716190D01*
X77798095Y-88740000D01*
X77845714Y-88787619D01*
X77869523Y-88835238D01*
X77893333Y-88930476D01*
X77893333Y-89001905D01*
X77869523Y-89097143D01*
X77845714Y-89144762D01*
X77798095Y-89192381D01*
X77726666Y-89216190D01*
X77607619Y-89216190D01*
X74349047Y-88700000D02*
X74301428Y-88676190D01*
X74230000Y-88676190D01*
X74158571Y-88700000D01*
X74110952Y-88747619D01*
X74087143Y-88795238D01*
X74063333Y-88890476D01*
X74063333Y-88961905D01*
X74087143Y-89057143D01*
X74110952Y-89104762D01*
X74158571Y-89152381D01*
X74230000Y-89176190D01*
X74277619Y-89176190D01*
X74349047Y-89152381D01*
X74372857Y-89128571D01*
X74372857Y-88961905D01*
X74277619Y-88961905D01*
X74587143Y-89176190D02*
X74587143Y-88676190D01*
X74872857Y-89176190D01*
X74872857Y-88676190D01*
X75110953Y-89176190D02*
X75110953Y-88676190D01*
X75230000Y-88676190D01*
X75301429Y-88700000D01*
X75349048Y-88747619D01*
X75372857Y-88795238D01*
X75396667Y-88890476D01*
X75396667Y-88961905D01*
X75372857Y-89057143D01*
X75349048Y-89104762D01*
X75301429Y-89152381D01*
X75230000Y-89176190D01*
X75110953Y-89176190D01*
X71491906Y-88696190D02*
X71801429Y-88696190D01*
X71634763Y-88886667D01*
X71706191Y-88886667D01*
X71753810Y-88910476D01*
X71777620Y-88934286D01*
X71801429Y-88981905D01*
X71801429Y-89100952D01*
X71777620Y-89148571D01*
X71753810Y-89172381D01*
X71706191Y-89196190D01*
X71563334Y-89196190D01*
X71515715Y-89172381D01*
X71491906Y-89148571D01*
X72015715Y-89148571D02*
X72039524Y-89172381D01*
X72015715Y-89196190D01*
X71991905Y-89172381D01*
X72015715Y-89148571D01*
X72015715Y-89196190D01*
X72206191Y-88696190D02*
X72515714Y-88696190D01*
X72349048Y-88886667D01*
X72420476Y-88886667D01*
X72468095Y-88910476D01*
X72491905Y-88934286D01*
X72515714Y-88981905D01*
X72515714Y-89100952D01*
X72491905Y-89148571D01*
X72468095Y-89172381D01*
X72420476Y-89196190D01*
X72277619Y-89196190D01*
X72230000Y-89172381D01*
X72206191Y-89148571D01*
X72658571Y-88696190D02*
X72825238Y-89196190D01*
X72991904Y-88696190D01*
X69062858Y-89132381D02*
X69134287Y-89156190D01*
X69253334Y-89156190D01*
X69300953Y-89132381D01*
X69324763Y-89108571D01*
X69348572Y-89060952D01*
X69348572Y-89013333D01*
X69324763Y-88965714D01*
X69300953Y-88941905D01*
X69253334Y-88918095D01*
X69158096Y-88894286D01*
X69110477Y-88870476D01*
X69086668Y-88846667D01*
X69062858Y-88799048D01*
X69062858Y-88751429D01*
X69086668Y-88703810D01*
X69110477Y-88680000D01*
X69158096Y-88656190D01*
X69277144Y-88656190D01*
X69348572Y-88680000D01*
X69562858Y-89156190D02*
X69562858Y-88656190D01*
X69681905Y-88656190D01*
X69753334Y-88680000D01*
X69800953Y-88727619D01*
X69824762Y-88775238D01*
X69848572Y-88870476D01*
X69848572Y-88941905D01*
X69824762Y-89037143D01*
X69800953Y-89084762D01*
X69753334Y-89132381D01*
X69681905Y-89156190D01*
X69562858Y-89156190D01*
X70039048Y-89013333D02*
X70277143Y-89013333D01*
X69991429Y-89156190D02*
X70158096Y-88656190D01*
X70324762Y-89156190D01*
X66544762Y-89162381D02*
X66616191Y-89186190D01*
X66735238Y-89186190D01*
X66782857Y-89162381D01*
X66806667Y-89138571D01*
X66830476Y-89090952D01*
X66830476Y-89043333D01*
X66806667Y-88995714D01*
X66782857Y-88971905D01*
X66735238Y-88948095D01*
X66640000Y-88924286D01*
X66592381Y-88900476D01*
X66568572Y-88876667D01*
X66544762Y-88829048D01*
X66544762Y-88781429D01*
X66568572Y-88733810D01*
X66592381Y-88710000D01*
X66640000Y-88686190D01*
X66759048Y-88686190D01*
X66830476Y-88710000D01*
X67330476Y-89138571D02*
X67306666Y-89162381D01*
X67235238Y-89186190D01*
X67187619Y-89186190D01*
X67116190Y-89162381D01*
X67068571Y-89114762D01*
X67044762Y-89067143D01*
X67020952Y-88971905D01*
X67020952Y-88900476D01*
X67044762Y-88805238D01*
X67068571Y-88757619D01*
X67116190Y-88710000D01*
X67187619Y-88686190D01*
X67235238Y-88686190D01*
X67306666Y-88710000D01*
X67330476Y-88733810D01*
X67782857Y-89186190D02*
X67544762Y-89186190D01*
X67544762Y-88686190D01*
X64256667Y-89196190D02*
X64090000Y-88958095D01*
X63970953Y-89196190D02*
X63970953Y-88696190D01*
X64161429Y-88696190D01*
X64209048Y-88720000D01*
X64232857Y-88743810D01*
X64256667Y-88791429D01*
X64256667Y-88862857D01*
X64232857Y-88910476D01*
X64209048Y-88934286D01*
X64161429Y-88958095D01*
X63970953Y-88958095D01*
X64756667Y-89148571D02*
X64732857Y-89172381D01*
X64661429Y-89196190D01*
X64613810Y-89196190D01*
X64542381Y-89172381D01*
X64494762Y-89124762D01*
X64470953Y-89077143D01*
X64447143Y-88981905D01*
X64447143Y-88910476D01*
X64470953Y-88815238D01*
X64494762Y-88767619D01*
X64542381Y-88720000D01*
X64613810Y-88696190D01*
X64661429Y-88696190D01*
X64732857Y-88720000D01*
X64756667Y-88743810D01*
X65042381Y-88910476D02*
X64994762Y-88886667D01*
X64970953Y-88862857D01*
X64947143Y-88815238D01*
X64947143Y-88791429D01*
X64970953Y-88743810D01*
X64994762Y-88720000D01*
X65042381Y-88696190D01*
X65137619Y-88696190D01*
X65185238Y-88720000D01*
X65209048Y-88743810D01*
X65232857Y-88791429D01*
X65232857Y-88815238D01*
X65209048Y-88862857D01*
X65185238Y-88886667D01*
X65137619Y-88910476D01*
X65042381Y-88910476D01*
X64994762Y-88934286D01*
X64970953Y-88958095D01*
X64947143Y-89005714D01*
X64947143Y-89100952D01*
X64970953Y-89148571D01*
X64994762Y-89172381D01*
X65042381Y-89196190D01*
X65137619Y-89196190D01*
X65185238Y-89172381D01*
X65209048Y-89148571D01*
X65232857Y-89100952D01*
X65232857Y-89005714D01*
X65209048Y-88958095D01*
X65185238Y-88934286D01*
X65137619Y-88910476D01*
X61696667Y-89176190D02*
X61530000Y-88938095D01*
X61410953Y-89176190D02*
X61410953Y-88676190D01*
X61601429Y-88676190D01*
X61649048Y-88700000D01*
X61672857Y-88723810D01*
X61696667Y-88771429D01*
X61696667Y-88842857D01*
X61672857Y-88890476D01*
X61649048Y-88914286D01*
X61601429Y-88938095D01*
X61410953Y-88938095D01*
X62196667Y-89128571D02*
X62172857Y-89152381D01*
X62101429Y-89176190D01*
X62053810Y-89176190D01*
X61982381Y-89152381D01*
X61934762Y-89104762D01*
X61910953Y-89057143D01*
X61887143Y-88961905D01*
X61887143Y-88890476D01*
X61910953Y-88795238D01*
X61934762Y-88747619D01*
X61982381Y-88700000D01*
X62053810Y-88676190D01*
X62101429Y-88676190D01*
X62172857Y-88700000D01*
X62196667Y-88723810D01*
X62363334Y-88676190D02*
X62696667Y-88676190D01*
X62482381Y-89176190D01*
X59206667Y-89206190D02*
X59040000Y-88968095D01*
X58920953Y-89206190D02*
X58920953Y-88706190D01*
X59111429Y-88706190D01*
X59159048Y-88730000D01*
X59182857Y-88753810D01*
X59206667Y-88801429D01*
X59206667Y-88872857D01*
X59182857Y-88920476D01*
X59159048Y-88944286D01*
X59111429Y-88968095D01*
X58920953Y-88968095D01*
X59706667Y-89158571D02*
X59682857Y-89182381D01*
X59611429Y-89206190D01*
X59563810Y-89206190D01*
X59492381Y-89182381D01*
X59444762Y-89134762D01*
X59420953Y-89087143D01*
X59397143Y-88991905D01*
X59397143Y-88920476D01*
X59420953Y-88825238D01*
X59444762Y-88777619D01*
X59492381Y-88730000D01*
X59563810Y-88706190D01*
X59611429Y-88706190D01*
X59682857Y-88730000D01*
X59706667Y-88753810D01*
X60135238Y-88706190D02*
X60040000Y-88706190D01*
X59992381Y-88730000D01*
X59968572Y-88753810D01*
X59920953Y-88825238D01*
X59897143Y-88920476D01*
X59897143Y-89110952D01*
X59920953Y-89158571D01*
X59944762Y-89182381D01*
X59992381Y-89206190D01*
X60087619Y-89206190D01*
X60135238Y-89182381D01*
X60159048Y-89158571D01*
X60182857Y-89110952D01*
X60182857Y-88991905D01*
X60159048Y-88944286D01*
X60135238Y-88920476D01*
X60087619Y-88896667D01*
X59992381Y-88896667D01*
X59944762Y-88920476D01*
X59920953Y-88944286D01*
X59897143Y-88991905D01*
X56636667Y-89236190D02*
X56470000Y-88998095D01*
X56350953Y-89236190D02*
X56350953Y-88736190D01*
X56541429Y-88736190D01*
X56589048Y-88760000D01*
X56612857Y-88783810D01*
X56636667Y-88831429D01*
X56636667Y-88902857D01*
X56612857Y-88950476D01*
X56589048Y-88974286D01*
X56541429Y-88998095D01*
X56350953Y-88998095D01*
X57136667Y-89188571D02*
X57112857Y-89212381D01*
X57041429Y-89236190D01*
X56993810Y-89236190D01*
X56922381Y-89212381D01*
X56874762Y-89164762D01*
X56850953Y-89117143D01*
X56827143Y-89021905D01*
X56827143Y-88950476D01*
X56850953Y-88855238D01*
X56874762Y-88807619D01*
X56922381Y-88760000D01*
X56993810Y-88736190D01*
X57041429Y-88736190D01*
X57112857Y-88760000D01*
X57136667Y-88783810D01*
X57589048Y-88736190D02*
X57350953Y-88736190D01*
X57327143Y-88974286D01*
X57350953Y-88950476D01*
X57398572Y-88926667D01*
X57517619Y-88926667D01*
X57565238Y-88950476D01*
X57589048Y-88974286D01*
X57612857Y-89021905D01*
X57612857Y-89140952D01*
X57589048Y-89188571D01*
X57565238Y-89212381D01*
X57517619Y-89236190D01*
X57398572Y-89236190D01*
X57350953Y-89212381D01*
X57327143Y-89188571D01*
X54066667Y-89216190D02*
X53900000Y-88978095D01*
X53780953Y-89216190D02*
X53780953Y-88716190D01*
X53971429Y-88716190D01*
X54019048Y-88740000D01*
X54042857Y-88763810D01*
X54066667Y-88811429D01*
X54066667Y-88882857D01*
X54042857Y-88930476D01*
X54019048Y-88954286D01*
X53971429Y-88978095D01*
X53780953Y-88978095D01*
X54566667Y-89168571D02*
X54542857Y-89192381D01*
X54471429Y-89216190D01*
X54423810Y-89216190D01*
X54352381Y-89192381D01*
X54304762Y-89144762D01*
X54280953Y-89097143D01*
X54257143Y-89001905D01*
X54257143Y-88930476D01*
X54280953Y-88835238D01*
X54304762Y-88787619D01*
X54352381Y-88740000D01*
X54423810Y-88716190D01*
X54471429Y-88716190D01*
X54542857Y-88740000D01*
X54566667Y-88763810D01*
X54995238Y-88882857D02*
X54995238Y-89216190D01*
X54876191Y-88692381D02*
X54757143Y-89049524D01*
X55066667Y-89049524D01*
X51556667Y-89226190D02*
X51390000Y-88988095D01*
X51270953Y-89226190D02*
X51270953Y-88726190D01*
X51461429Y-88726190D01*
X51509048Y-88750000D01*
X51532857Y-88773810D01*
X51556667Y-88821429D01*
X51556667Y-88892857D01*
X51532857Y-88940476D01*
X51509048Y-88964286D01*
X51461429Y-88988095D01*
X51270953Y-88988095D01*
X52056667Y-89178571D02*
X52032857Y-89202381D01*
X51961429Y-89226190D01*
X51913810Y-89226190D01*
X51842381Y-89202381D01*
X51794762Y-89154762D01*
X51770953Y-89107143D01*
X51747143Y-89011905D01*
X51747143Y-88940476D01*
X51770953Y-88845238D01*
X51794762Y-88797619D01*
X51842381Y-88750000D01*
X51913810Y-88726190D01*
X51961429Y-88726190D01*
X52032857Y-88750000D01*
X52056667Y-88773810D01*
X52223334Y-88726190D02*
X52532857Y-88726190D01*
X52366191Y-88916667D01*
X52437619Y-88916667D01*
X52485238Y-88940476D01*
X52509048Y-88964286D01*
X52532857Y-89011905D01*
X52532857Y-89130952D01*
X52509048Y-89178571D01*
X52485238Y-89202381D01*
X52437619Y-89226190D01*
X52294762Y-89226190D01*
X52247143Y-89202381D01*
X52223334Y-89178571D01*
X48956667Y-89196190D02*
X48790000Y-88958095D01*
X48670953Y-89196190D02*
X48670953Y-88696190D01*
X48861429Y-88696190D01*
X48909048Y-88720000D01*
X48932857Y-88743810D01*
X48956667Y-88791429D01*
X48956667Y-88862857D01*
X48932857Y-88910476D01*
X48909048Y-88934286D01*
X48861429Y-88958095D01*
X48670953Y-88958095D01*
X49456667Y-89148571D02*
X49432857Y-89172381D01*
X49361429Y-89196190D01*
X49313810Y-89196190D01*
X49242381Y-89172381D01*
X49194762Y-89124762D01*
X49170953Y-89077143D01*
X49147143Y-88981905D01*
X49147143Y-88910476D01*
X49170953Y-88815238D01*
X49194762Y-88767619D01*
X49242381Y-88720000D01*
X49313810Y-88696190D01*
X49361429Y-88696190D01*
X49432857Y-88720000D01*
X49456667Y-88743810D01*
X49647143Y-88743810D02*
X49670953Y-88720000D01*
X49718572Y-88696190D01*
X49837619Y-88696190D01*
X49885238Y-88720000D01*
X49909048Y-88743810D01*
X49932857Y-88791429D01*
X49932857Y-88839048D01*
X49909048Y-88910476D01*
X49623334Y-89196190D01*
X49932857Y-89196190D01*
X46526667Y-89196190D02*
X46360000Y-88958095D01*
X46240953Y-89196190D02*
X46240953Y-88696190D01*
X46431429Y-88696190D01*
X46479048Y-88720000D01*
X46502857Y-88743810D01*
X46526667Y-88791429D01*
X46526667Y-88862857D01*
X46502857Y-88910476D01*
X46479048Y-88934286D01*
X46431429Y-88958095D01*
X46240953Y-88958095D01*
X47026667Y-89148571D02*
X47002857Y-89172381D01*
X46931429Y-89196190D01*
X46883810Y-89196190D01*
X46812381Y-89172381D01*
X46764762Y-89124762D01*
X46740953Y-89077143D01*
X46717143Y-88981905D01*
X46717143Y-88910476D01*
X46740953Y-88815238D01*
X46764762Y-88767619D01*
X46812381Y-88720000D01*
X46883810Y-88696190D01*
X46931429Y-88696190D01*
X47002857Y-88720000D01*
X47026667Y-88743810D01*
X47502857Y-89196190D02*
X47217143Y-89196190D01*
X47360000Y-89196190D02*
X47360000Y-88696190D01*
X47312381Y-88767619D01*
X47264762Y-88815238D01*
X47217143Y-88839048D01*
X48216190Y-83160476D02*
X47716190Y-83160476D01*
X47716190Y-82970000D01*
X47740000Y-82922381D01*
X47763810Y-82898572D01*
X47811429Y-82874762D01*
X47882857Y-82874762D01*
X47930476Y-82898572D01*
X47954286Y-82922381D01*
X47978095Y-82970000D01*
X47978095Y-83160476D01*
X47716190Y-82708095D02*
X48216190Y-82589048D01*
X47859048Y-82493810D01*
X48216190Y-82398572D01*
X47716190Y-82279524D01*
X48216190Y-82089047D02*
X47716190Y-82089047D01*
X48073333Y-81922381D01*
X47716190Y-81755714D01*
X48216190Y-81755714D01*
X47716190Y-81303333D02*
X47716190Y-81398571D01*
X47740000Y-81446190D01*
X47763810Y-81469999D01*
X47835238Y-81517618D01*
X47930476Y-81541428D01*
X48120952Y-81541428D01*
X48168571Y-81517618D01*
X48192381Y-81493809D01*
X48216190Y-81446190D01*
X48216190Y-81350952D01*
X48192381Y-81303333D01*
X48168571Y-81279523D01*
X48120952Y-81255714D01*
X48001905Y-81255714D01*
X47954286Y-81279523D01*
X47930476Y-81303333D01*
X47906667Y-81350952D01*
X47906667Y-81446190D01*
X47930476Y-81493809D01*
X47954286Y-81517618D01*
X48001905Y-81541428D01*
X48186190Y-80640476D02*
X47686190Y-80640476D01*
X47686190Y-80450000D01*
X47710000Y-80402381D01*
X47733810Y-80378572D01*
X47781429Y-80354762D01*
X47852857Y-80354762D01*
X47900476Y-80378572D01*
X47924286Y-80402381D01*
X47948095Y-80450000D01*
X47948095Y-80640476D01*
X47686190Y-80188095D02*
X48186190Y-80069048D01*
X47829048Y-79973810D01*
X48186190Y-79878572D01*
X47686190Y-79759524D01*
X48186190Y-79569047D02*
X47686190Y-79569047D01*
X48043333Y-79402381D01*
X47686190Y-79235714D01*
X48186190Y-79235714D01*
X47686190Y-78759523D02*
X47686190Y-78997618D01*
X47924286Y-79021428D01*
X47900476Y-78997618D01*
X47876667Y-78949999D01*
X47876667Y-78830952D01*
X47900476Y-78783333D01*
X47924286Y-78759523D01*
X47971905Y-78735714D01*
X48090952Y-78735714D01*
X48138571Y-78759523D01*
X48162381Y-78783333D01*
X48186190Y-78830952D01*
X48186190Y-78949999D01*
X48162381Y-78997618D01*
X48138571Y-79021428D01*
X48186190Y-78100476D02*
X47686190Y-78100476D01*
X47686190Y-77910000D01*
X47710000Y-77862381D01*
X47733810Y-77838572D01*
X47781429Y-77814762D01*
X47852857Y-77814762D01*
X47900476Y-77838572D01*
X47924286Y-77862381D01*
X47948095Y-77910000D01*
X47948095Y-78100476D01*
X47686190Y-77648095D02*
X48186190Y-77529048D01*
X47829048Y-77433810D01*
X48186190Y-77338572D01*
X47686190Y-77219524D01*
X48186190Y-77029047D02*
X47686190Y-77029047D01*
X48043333Y-76862381D01*
X47686190Y-76695714D01*
X48186190Y-76695714D01*
X47852857Y-76243333D02*
X48186190Y-76243333D01*
X47662381Y-76362380D02*
X48019524Y-76481428D01*
X48019524Y-76171904D01*
X48226190Y-75510476D02*
X47726190Y-75510476D01*
X47726190Y-75320000D01*
X47750000Y-75272381D01*
X47773810Y-75248572D01*
X47821429Y-75224762D01*
X47892857Y-75224762D01*
X47940476Y-75248572D01*
X47964286Y-75272381D01*
X47988095Y-75320000D01*
X47988095Y-75510476D01*
X47726190Y-75058095D02*
X48226190Y-74939048D01*
X47869048Y-74843810D01*
X48226190Y-74748572D01*
X47726190Y-74629524D01*
X48226190Y-74439047D02*
X47726190Y-74439047D01*
X48083333Y-74272381D01*
X47726190Y-74105714D01*
X48226190Y-74105714D01*
X47726190Y-73915237D02*
X47726190Y-73605714D01*
X47916667Y-73772380D01*
X47916667Y-73700952D01*
X47940476Y-73653333D01*
X47964286Y-73629523D01*
X48011905Y-73605714D01*
X48130952Y-73605714D01*
X48178571Y-73629523D01*
X48202381Y-73653333D01*
X48226190Y-73700952D01*
X48226190Y-73843809D01*
X48202381Y-73891428D01*
X48178571Y-73915237D01*
X48186190Y-72970476D02*
X47686190Y-72970476D01*
X47686190Y-72780000D01*
X47710000Y-72732381D01*
X47733810Y-72708572D01*
X47781429Y-72684762D01*
X47852857Y-72684762D01*
X47900476Y-72708572D01*
X47924286Y-72732381D01*
X47948095Y-72780000D01*
X47948095Y-72970476D01*
X47686190Y-72518095D02*
X48186190Y-72399048D01*
X47829048Y-72303810D01*
X48186190Y-72208572D01*
X47686190Y-72089524D01*
X48186190Y-71899047D02*
X47686190Y-71899047D01*
X48043333Y-71732381D01*
X47686190Y-71565714D01*
X48186190Y-71565714D01*
X47733810Y-71351428D02*
X47710000Y-71327618D01*
X47686190Y-71279999D01*
X47686190Y-71160952D01*
X47710000Y-71113333D01*
X47733810Y-71089523D01*
X47781429Y-71065714D01*
X47829048Y-71065714D01*
X47900476Y-71089523D01*
X48186190Y-71375237D01*
X48186190Y-71065714D01*
X48206190Y-70390476D02*
X47706190Y-70390476D01*
X47706190Y-70200000D01*
X47730000Y-70152381D01*
X47753810Y-70128572D01*
X47801429Y-70104762D01*
X47872857Y-70104762D01*
X47920476Y-70128572D01*
X47944286Y-70152381D01*
X47968095Y-70200000D01*
X47968095Y-70390476D01*
X47706190Y-69938095D02*
X48206190Y-69819048D01*
X47849048Y-69723810D01*
X48206190Y-69628572D01*
X47706190Y-69509524D01*
X48206190Y-69319047D02*
X47706190Y-69319047D01*
X48063333Y-69152381D01*
X47706190Y-68985714D01*
X48206190Y-68985714D01*
X48206190Y-68485714D02*
X48206190Y-68771428D01*
X48206190Y-68628571D02*
X47706190Y-68628571D01*
X47777619Y-68676190D01*
X47825238Y-68723809D01*
X47849048Y-68771428D01*
D13*
X48040000Y-87072857D02*
X47968571Y-87215714D01*
X47968571Y-87430000D01*
X48040000Y-87644285D01*
X48182857Y-87787143D01*
X48325714Y-87858571D01*
X48611429Y-87930000D01*
X48825714Y-87930000D01*
X49111429Y-87858571D01*
X49254286Y-87787143D01*
X49397143Y-87644285D01*
X49468571Y-87430000D01*
X49468571Y-87287143D01*
X49397143Y-87072857D01*
X49325714Y-87001428D01*
X48825714Y-87001428D01*
X48825714Y-87287143D01*
X49468571Y-86358571D02*
X47968571Y-86358571D01*
X49468571Y-85501428D01*
X47968571Y-85501428D01*
X49468571Y-84787142D02*
X47968571Y-84787142D01*
X47968571Y-84429999D01*
X48040000Y-84215714D01*
X48182857Y-84072856D01*
X48325714Y-84001428D01*
X48611429Y-83929999D01*
X48825714Y-83929999D01*
X49111429Y-84001428D01*
X49254286Y-84072856D01*
X49397143Y-84215714D01*
X49468571Y-84429999D01*
X49468571Y-84787142D01*
X47828571Y-65815713D02*
X47828571Y-66529999D01*
X48542857Y-66601428D01*
X48471429Y-66529999D01*
X48400000Y-66387142D01*
X48400000Y-66029999D01*
X48471429Y-65887142D01*
X48542857Y-65815713D01*
X48685714Y-65744285D01*
X49042857Y-65744285D01*
X49185714Y-65815713D01*
X49257143Y-65887142D01*
X49328571Y-66029999D01*
X49328571Y-66387142D01*
X49257143Y-66529999D01*
X49185714Y-66601428D01*
X47828571Y-65315714D02*
X49328571Y-64815714D01*
X47828571Y-64315714D01*
D11*
X71201906Y-62156190D02*
X71511429Y-62156190D01*
X71344763Y-62346667D01*
X71416191Y-62346667D01*
X71463810Y-62370476D01*
X71487620Y-62394286D01*
X71511429Y-62441905D01*
X71511429Y-62560952D01*
X71487620Y-62608571D01*
X71463810Y-62632381D01*
X71416191Y-62656190D01*
X71273334Y-62656190D01*
X71225715Y-62632381D01*
X71201906Y-62608571D01*
X71749524Y-62632381D02*
X71749524Y-62656190D01*
X71725715Y-62703810D01*
X71701905Y-62727619D01*
X71916191Y-62156190D02*
X72225714Y-62156190D01*
X72059048Y-62346667D01*
X72130476Y-62346667D01*
X72178095Y-62370476D01*
X72201905Y-62394286D01*
X72225714Y-62441905D01*
X72225714Y-62560952D01*
X72201905Y-62608571D01*
X72178095Y-62632381D01*
X72130476Y-62656190D01*
X71987619Y-62656190D01*
X71940000Y-62632381D01*
X71916191Y-62608571D01*
X72368571Y-62156190D02*
X72535238Y-62656190D01*
X72701904Y-62156190D01*
X68453333Y-62404286D02*
X68524762Y-62428095D01*
X68548571Y-62451905D01*
X68572381Y-62499524D01*
X68572381Y-62570952D01*
X68548571Y-62618571D01*
X68524762Y-62642381D01*
X68477143Y-62666190D01*
X68286667Y-62666190D01*
X68286667Y-62166190D01*
X68453333Y-62166190D01*
X68500952Y-62190000D01*
X68524762Y-62213810D01*
X68548571Y-62261429D01*
X68548571Y-62309048D01*
X68524762Y-62356667D01*
X68500952Y-62380476D01*
X68453333Y-62404286D01*
X68286667Y-62404286D01*
X68881905Y-62166190D02*
X68977143Y-62166190D01*
X69024762Y-62190000D01*
X69072381Y-62237619D01*
X69096190Y-62332857D01*
X69096190Y-62499524D01*
X69072381Y-62594762D01*
X69024762Y-62642381D01*
X68977143Y-62666190D01*
X68881905Y-62666190D01*
X68834286Y-62642381D01*
X68786667Y-62594762D01*
X68762857Y-62499524D01*
X68762857Y-62332857D01*
X68786667Y-62237619D01*
X68834286Y-62190000D01*
X68881905Y-62166190D01*
X69405715Y-62166190D02*
X69500953Y-62166190D01*
X69548572Y-62190000D01*
X69596191Y-62237619D01*
X69620000Y-62332857D01*
X69620000Y-62499524D01*
X69596191Y-62594762D01*
X69548572Y-62642381D01*
X69500953Y-62666190D01*
X69405715Y-62666190D01*
X69358096Y-62642381D01*
X69310477Y-62594762D01*
X69286667Y-62499524D01*
X69286667Y-62332857D01*
X69310477Y-62237619D01*
X69358096Y-62190000D01*
X69405715Y-62166190D01*
X69762858Y-62166190D02*
X70048572Y-62166190D01*
X69905715Y-62666190D02*
X69905715Y-62166190D01*
X70310477Y-62166190D02*
X70358096Y-62166190D01*
X70405715Y-62190000D01*
X70429524Y-62213810D01*
X70453334Y-62261429D01*
X70477143Y-62356667D01*
X70477143Y-62475714D01*
X70453334Y-62570952D01*
X70429524Y-62618571D01*
X70405715Y-62642381D01*
X70358096Y-62666190D01*
X70310477Y-62666190D01*
X70262858Y-62642381D01*
X70239048Y-62618571D01*
X70215239Y-62570952D01*
X70191429Y-62475714D01*
X70191429Y-62356667D01*
X70215239Y-62261429D01*
X70239048Y-62213810D01*
X70262858Y-62190000D01*
X70310477Y-62166190D01*
X66619047Y-62160000D02*
X66571428Y-62136190D01*
X66500000Y-62136190D01*
X66428571Y-62160000D01*
X66380952Y-62207619D01*
X66357143Y-62255238D01*
X66333333Y-62350476D01*
X66333333Y-62421905D01*
X66357143Y-62517143D01*
X66380952Y-62564762D01*
X66428571Y-62612381D01*
X66500000Y-62636190D01*
X66547619Y-62636190D01*
X66619047Y-62612381D01*
X66642857Y-62588571D01*
X66642857Y-62421905D01*
X66547619Y-62421905D01*
X66857143Y-62636190D02*
X66857143Y-62136190D01*
X67142857Y-62636190D01*
X67142857Y-62136190D01*
X67380953Y-62636190D02*
X67380953Y-62136190D01*
X67500000Y-62136190D01*
X67571429Y-62160000D01*
X67619048Y-62207619D01*
X67642857Y-62255238D01*
X67666667Y-62350476D01*
X67666667Y-62421905D01*
X67642857Y-62517143D01*
X67619048Y-62564762D01*
X67571429Y-62612381D01*
X67500000Y-62636190D01*
X67380953Y-62636190D01*
X64120001Y-62636190D02*
X64120001Y-62136190D01*
X64358096Y-62636190D02*
X64358096Y-62136190D01*
X64477143Y-62136190D01*
X64548572Y-62160000D01*
X64596191Y-62207619D01*
X64620000Y-62255238D01*
X64643810Y-62350476D01*
X64643810Y-62421905D01*
X64620000Y-62517143D01*
X64596191Y-62564762D01*
X64548572Y-62612381D01*
X64477143Y-62636190D01*
X64358096Y-62636190D01*
X61559048Y-62666190D02*
X61559048Y-62166190D01*
X61678095Y-62166190D01*
X61749524Y-62190000D01*
X61797143Y-62237619D01*
X61820952Y-62285238D01*
X61844762Y-62380476D01*
X61844762Y-62451905D01*
X61820952Y-62547143D01*
X61797143Y-62594762D01*
X61749524Y-62642381D01*
X61678095Y-62666190D01*
X61559048Y-62666190D01*
X62059048Y-62666190D02*
X62059048Y-62166190D01*
X62249524Y-62166190D01*
X62297143Y-62190000D01*
X62320952Y-62213810D01*
X62344762Y-62261429D01*
X62344762Y-62332857D01*
X62320952Y-62380476D01*
X62297143Y-62404286D01*
X62249524Y-62428095D01*
X62059048Y-62428095D01*
X58887143Y-62656190D02*
X58887143Y-62156190D01*
X59006190Y-62156190D01*
X59077619Y-62180000D01*
X59125238Y-62227619D01*
X59149047Y-62275238D01*
X59172857Y-62370476D01*
X59172857Y-62441905D01*
X59149047Y-62537143D01*
X59125238Y-62584762D01*
X59077619Y-62632381D01*
X59006190Y-62656190D01*
X58887143Y-62656190D01*
X59387143Y-62656190D02*
X59387143Y-62156190D01*
X59672857Y-62656190D01*
X59672857Y-62156190D01*
X55843334Y-62176190D02*
X56010001Y-62676190D01*
X56176667Y-62176190D01*
X56510000Y-62414286D02*
X56581429Y-62438095D01*
X56605238Y-62461905D01*
X56629048Y-62509524D01*
X56629048Y-62580952D01*
X56605238Y-62628571D01*
X56581429Y-62652381D01*
X56533810Y-62676190D01*
X56343334Y-62676190D01*
X56343334Y-62176190D01*
X56510000Y-62176190D01*
X56557619Y-62200000D01*
X56581429Y-62223810D01*
X56605238Y-62271429D01*
X56605238Y-62319048D01*
X56581429Y-62366667D01*
X56557619Y-62390476D01*
X56510000Y-62414286D01*
X56343334Y-62414286D01*
X56843334Y-62176190D02*
X56843334Y-62580952D01*
X56867143Y-62628571D01*
X56890953Y-62652381D01*
X56938572Y-62676190D01*
X57033810Y-62676190D01*
X57081429Y-62652381D01*
X57105238Y-62628571D01*
X57129048Y-62580952D01*
X57129048Y-62176190D01*
X57343334Y-62652381D02*
X57414763Y-62676190D01*
X57533810Y-62676190D01*
X57581429Y-62652381D01*
X57605239Y-62628571D01*
X57629048Y-62580952D01*
X57629048Y-62533333D01*
X57605239Y-62485714D01*
X57581429Y-62461905D01*
X57533810Y-62438095D01*
X57438572Y-62414286D01*
X57390953Y-62390476D01*
X57367144Y-62366667D01*
X57343334Y-62319048D01*
X57343334Y-62271429D01*
X57367144Y-62223810D01*
X57390953Y-62200000D01*
X57438572Y-62176190D01*
X57557620Y-62176190D01*
X57629048Y-62200000D01*
X53869047Y-62200000D02*
X53821428Y-62176190D01*
X53750000Y-62176190D01*
X53678571Y-62200000D01*
X53630952Y-62247619D01*
X53607143Y-62295238D01*
X53583333Y-62390476D01*
X53583333Y-62461905D01*
X53607143Y-62557143D01*
X53630952Y-62604762D01*
X53678571Y-62652381D01*
X53750000Y-62676190D01*
X53797619Y-62676190D01*
X53869047Y-62652381D01*
X53892857Y-62628571D01*
X53892857Y-62461905D01*
X53797619Y-62461905D01*
X54107143Y-62676190D02*
X54107143Y-62176190D01*
X54392857Y-62676190D01*
X54392857Y-62176190D01*
X54630953Y-62676190D02*
X54630953Y-62176190D01*
X54750000Y-62176190D01*
X54821429Y-62200000D01*
X54869048Y-62247619D01*
X54892857Y-62295238D01*
X54916667Y-62390476D01*
X54916667Y-62461905D01*
X54892857Y-62557143D01*
X54869048Y-62604762D01*
X54821429Y-62652381D01*
X54750000Y-62676190D01*
X54630953Y-62676190D01*
X51051906Y-62226190D02*
X51361429Y-62226190D01*
X51194763Y-62416667D01*
X51266191Y-62416667D01*
X51313810Y-62440476D01*
X51337620Y-62464286D01*
X51361429Y-62511905D01*
X51361429Y-62630952D01*
X51337620Y-62678571D01*
X51313810Y-62702381D01*
X51266191Y-62726190D01*
X51123334Y-62726190D01*
X51075715Y-62702381D01*
X51051906Y-62678571D01*
X51575715Y-62678571D02*
X51599524Y-62702381D01*
X51575715Y-62726190D01*
X51551905Y-62702381D01*
X51575715Y-62678571D01*
X51575715Y-62726190D01*
X51766191Y-62226190D02*
X52075714Y-62226190D01*
X51909048Y-62416667D01*
X51980476Y-62416667D01*
X52028095Y-62440476D01*
X52051905Y-62464286D01*
X52075714Y-62511905D01*
X52075714Y-62630952D01*
X52051905Y-62678571D01*
X52028095Y-62702381D01*
X51980476Y-62726190D01*
X51837619Y-62726190D01*
X51790000Y-62702381D01*
X51766191Y-62678571D01*
X52218571Y-62226190D02*
X52385238Y-62726190D01*
X52551904Y-62226190D01*
X48838572Y-62726190D02*
X48671905Y-62488095D01*
X48552858Y-62726190D02*
X48552858Y-62226190D01*
X48743334Y-62226190D01*
X48790953Y-62250000D01*
X48814762Y-62273810D01*
X48838572Y-62321429D01*
X48838572Y-62392857D01*
X48814762Y-62440476D01*
X48790953Y-62464286D01*
X48743334Y-62488095D01*
X48552858Y-62488095D01*
X49005239Y-62226190D02*
X49338572Y-62726190D01*
X49338572Y-62226190D02*
X49005239Y-62726190D01*
X49505238Y-62273810D02*
X49529048Y-62250000D01*
X49576667Y-62226190D01*
X49695714Y-62226190D01*
X49743333Y-62250000D01*
X49767143Y-62273810D01*
X49790952Y-62321429D01*
X49790952Y-62369048D01*
X49767143Y-62440476D01*
X49481429Y-62726190D01*
X49790952Y-62726190D01*
X46010953Y-62226190D02*
X46296667Y-62226190D01*
X46153810Y-62726190D02*
X46153810Y-62226190D01*
X46415715Y-62226190D02*
X46749048Y-62726190D01*
X46749048Y-62226190D02*
X46415715Y-62726190D01*
X46915714Y-62273810D02*
X46939524Y-62250000D01*
X46987143Y-62226190D01*
X47106190Y-62226190D01*
X47153809Y-62250000D01*
X47177619Y-62273810D01*
X47201428Y-62321429D01*
X47201428Y-62369048D01*
X47177619Y-62440476D01*
X46891905Y-62726190D01*
X47201428Y-62726190D01*
D14*
X64630000Y-81365000D02*
X63630000Y-81365000D01*
X63630000Y-80015000D02*
X64630000Y-80015000D01*
X65040000Y-82845000D02*
X64040000Y-82845000D01*
X64040000Y-81495000D02*
X65040000Y-81495000D01*
X73110000Y-86220000D02*
X73810000Y-86220000D01*
X73810000Y-87420000D02*
X73110000Y-87420000D01*
X80640000Y-73780000D02*
X79940000Y-73780000D01*
X79940000Y-72580000D02*
X80640000Y-72580000D01*
X80680000Y-77140000D02*
X79980000Y-77140000D01*
X79980000Y-75940000D02*
X80680000Y-75940000D01*
X80620000Y-72040000D02*
X79920000Y-72040000D01*
X79920000Y-70840000D02*
X80620000Y-70840000D01*
X79882619Y-74225000D02*
X80582619Y-74225000D01*
X80582619Y-75425000D02*
X79882619Y-75425000D01*
X75370000Y-83080000D02*
X75370000Y-82380000D01*
X76570000Y-82380000D02*
X76570000Y-83080000D01*
X72610000Y-81640000D02*
X72610000Y-80940000D01*
X73810000Y-80940000D02*
X73810000Y-81640000D01*
X69600000Y-81640000D02*
X69600000Y-80940000D01*
X70800000Y-80940000D02*
X70800000Y-81640000D01*
X73110000Y-87850000D02*
X73810000Y-87850000D01*
X73810000Y-89050000D02*
X73110000Y-89050000D01*
X73120000Y-84590000D02*
X73820000Y-84590000D01*
X73820000Y-85790000D02*
X73120000Y-85790000D01*
X72350000Y-80920000D02*
X72350000Y-81620000D01*
X71150000Y-81620000D02*
X71150000Y-80920000D01*
X76530000Y-87300000D02*
X76530000Y-88000000D01*
X75330000Y-88000000D02*
X75330000Y-87300000D01*
X67150000Y-77270000D02*
X67150000Y-76570000D01*
X68350000Y-76570000D02*
X68350000Y-77270000D01*
X59940000Y-76600000D02*
X59940000Y-77300000D01*
X58740000Y-77300000D02*
X58740000Y-76600000D01*
X45250000Y-60750000D02*
X43350000Y-60750000D01*
X45250000Y-61850000D02*
X43350000Y-61850000D01*
X44350000Y-61300000D02*
X43900000Y-61300000D01*
X44400000Y-61550000D02*
X44400000Y-61050000D01*
X44400000Y-61300000D02*
X44150000Y-61550000D01*
X44150000Y-61550000D02*
X44150000Y-61050000D01*
X44150000Y-61050000D02*
X44400000Y-61300000D01*
X43180000Y-90180000D02*
X45080000Y-90180000D01*
X43180000Y-89080000D02*
X45080000Y-89080000D01*
X44080000Y-89630000D02*
X44530000Y-89630000D01*
X44030000Y-89380000D02*
X44030000Y-89880000D01*
X44030000Y-89630000D02*
X44280000Y-89380000D01*
X44280000Y-89380000D02*
X44280000Y-89880000D01*
X44280000Y-89880000D02*
X44030000Y-89630000D01*
X43200000Y-91700000D02*
X45100000Y-91700000D01*
X43200000Y-90600000D02*
X45100000Y-90600000D01*
X44100000Y-91150000D02*
X44550000Y-91150000D01*
X44050000Y-90900000D02*
X44050000Y-91400000D01*
X44050000Y-91150000D02*
X44300000Y-90900000D01*
X44300000Y-90900000D02*
X44300000Y-91400000D01*
X44300000Y-91400000D02*
X44050000Y-91150000D01*
X85430000Y-79110000D02*
X85430000Y-81650000D01*
X85710000Y-76290000D02*
X85710000Y-77840000D01*
X85430000Y-79110000D02*
X82890000Y-79110000D01*
X82610000Y-77840000D02*
X82610000Y-76290000D01*
X82610000Y-76290000D02*
X85710000Y-76290000D01*
X82890000Y-79110000D02*
X82890000Y-81650000D01*
X82890000Y-81650000D02*
X85430000Y-81650000D01*
X81599160Y-78499760D02*
X81550900Y-78499760D01*
X78800180Y-79200800D02*
X78800180Y-78499760D01*
X78800180Y-78499760D02*
X79049100Y-78499760D01*
X81599160Y-78499760D02*
X81799820Y-78499760D01*
X81799820Y-78499760D02*
X81799820Y-79200800D01*
X67630000Y-63615000D02*
X66630000Y-63615000D01*
X66630000Y-62265000D02*
X67630000Y-62265000D01*
X79850000Y-81075000D02*
X80850000Y-81075000D01*
X80850000Y-82425000D02*
X79850000Y-82425000D01*
D15*
X75512800Y-69914600D02*
X70947200Y-69914600D01*
X70947200Y-63585400D02*
X75512800Y-63585400D01*
X72468000Y-64474400D02*
G75*
G03X72468000Y-64474400I-457200J0D01*
G01*
X51337200Y-68315400D02*
X55902800Y-68315400D01*
X55902800Y-74644600D02*
X51337200Y-74644600D01*
X55296400Y-73755600D02*
G75*
G03X55296400Y-73755600I-457200J0D01*
G01*
D16*
X66110000Y-79850000D02*
X66110000Y-79550000D01*
X66110000Y-79550000D02*
X66410000Y-79550000D01*
X68810000Y-79550000D02*
X69110000Y-79550000D01*
X68810000Y-82550000D02*
X69110000Y-82550000D01*
X66110000Y-82550000D02*
X66410000Y-82550000D01*
X66110000Y-82550000D02*
X66110000Y-82250000D01*
X69110000Y-82550000D02*
X69110000Y-82250000D01*
X69110000Y-79850000D02*
X69110000Y-79550000D01*
D10*
X66010000Y-79350000D02*
G75*
G03X66010000Y-79350000I-200000J0D01*
G01*
D14*
X51775000Y-86115000D02*
X52300000Y-86115000D01*
X51775000Y-78865000D02*
X52300000Y-78865000D01*
X59025000Y-78865000D02*
X58500000Y-78865000D01*
X59025000Y-86115000D02*
X58500000Y-86115000D01*
X51775000Y-86115000D02*
X51775000Y-85590000D01*
X59025000Y-86115000D02*
X59025000Y-85590000D01*
X59025000Y-78865000D02*
X59025000Y-79390000D01*
X51775000Y-78865000D02*
X51775000Y-79390000D01*
X52300000Y-86115000D02*
X52300000Y-87490000D01*
X60960000Y-77060000D02*
X60260000Y-77060000D01*
X62860000Y-78560000D02*
X62860000Y-79060000D01*
X64262080Y-78560000D02*
X62860000Y-78560000D01*
X62858960Y-75160000D02*
X64261040Y-75160000D01*
X66160000Y-77060000D02*
X66160000Y-76660000D01*
X60960000Y-77060000D02*
X60960000Y-76660000D01*
D17*
X51897480Y-64309280D02*
X68699580Y-64309280D01*
X68699580Y-64309280D02*
X68699580Y-67189640D01*
X68699580Y-67189640D02*
X51897480Y-67189640D01*
X51897480Y-67189640D02*
X51897480Y-64309280D01*
X83429040Y-62450000D02*
X83429040Y-64448980D01*
X83429040Y-85449700D02*
X83429040Y-87448680D01*
X83429040Y-87448680D02*
X81427520Y-87448680D01*
X49928980Y-87448680D02*
X47930000Y-87448680D01*
X47930000Y-87448680D02*
X47930000Y-85449700D01*
X47930000Y-64448980D02*
X47930000Y-62450000D01*
X47930000Y-62450000D02*
X49928980Y-62450000D01*
X81427520Y-62450000D02*
X83429040Y-62450000D01*
D18*
X67698820Y-64748700D02*
G75*
G03X67698820Y-64748700I-99060J0D01*
G01*
D15*
X64820600Y-87299400D02*
X66065200Y-87299400D01*
X66065200Y-87299400D02*
X66674800Y-87299400D01*
X66674800Y-87299400D02*
X67919400Y-87299400D01*
X67919400Y-84200600D02*
X64820600Y-84200600D01*
X66065200Y-87299400D02*
G75*
G02X66674800Y-87299400I304800J0D01*
G01*
M02*
