M48
INCH,TZ
T10C0.016
T11C0.040
T12C0.079
T13C0.157
%
T10
X049894Y-39695
X051094Y-31956
X052078Y-41759
X052252Y-32948
X052344Y-42520
X052736Y-32712
X052819Y-37920
X052969Y-35695
X052969Y-38195
X053269Y-35520
X053294Y-34180
X053294Y-41820
X053344Y-41020
X053344Y-43895
X053344Y-44595
X053369Y-40445
X053494Y-38045
X053535Y-33413
X053614Y-40854
X053614Y-41484
X053619Y-43645
X053811Y-38019
X053834Y-45015
X053842Y-35685
X053889Y-32192
X053929Y-40696
X053929Y-41484
X054047Y-33728
X054086Y-38492
X054204Y-28807
X054204Y-40539
X054244Y-41484
X054323Y-41877
X054323Y-42940
X054559Y-41641
X054598Y-38649
X054604Y-35520
X054759Y-32210
X054834Y-41484
X054874Y-39161
X055104Y-32345
X055339Y-35645
X055346Y-37311
X055346Y-40106
X055386Y-42507
X055634Y-34320
X055814Y-33740
X055858Y-36177
X055934Y-34570
X056149Y-32795
X056212Y-38452
X056212Y-40460
X056212Y-40814
X056244Y-36980
X056252Y-38767
X056291Y-39240
X056324Y-35645
X056369Y-36310
X056370Y-37744
X056567Y-31011
X056645Y-36011
X056685Y-42547
X056882Y-35578
X056921Y-31326
X057000Y-30854
X057267Y-38015
X057299Y-38944
X057315Y-37311
X057382Y-40271
X057393Y-40618
X057393Y-41011
X057547Y-39992
X057551Y-39673
X057555Y-37877
X057630Y-28767
X057679Y-36325
X057708Y-36838
X057905Y-36563
X057945Y-29003
X058023Y-41563
X058417Y-29397
X058535Y-41523
X058614Y-35618
X058669Y-31340
X058669Y-31750
X058769Y-41320
X058771Y-41011
X058879Y-35900
X058929Y-32035
X058974Y-33325
X059139Y-36210
X059149Y-37085
X059159Y-37935
X059344Y-32655
X059494Y-28695
X059559Y-38531
X059594Y-33595
X059598Y-38177
X059677Y-39279
X059694Y-37495
X059869Y-34120
X060094Y-44545
X060174Y-29955
X060189Y-40303
X060209Y-28120
X060307Y-33492
X060344Y-39825
X060444Y-36245
X060543Y-40421
X060619Y-42670
X060819Y-38820
X060844Y-35595
X060897Y-40696
X061024Y-38580
X061173Y-36996
X061173Y-37704
X061244Y-43470
X061364Y-40660
X061404Y-29265
X061414Y-28030
X061464Y-31775
X061488Y-37153
X061645Y-35539
X061645Y-35893
X061779Y-40665
X061882Y-37153
X062000Y-39003
X062094Y-31970
X062472Y-39279
X062494Y-32445
X062494Y-41570
X062694Y-38845
X062744Y-38195
X062794Y-33195
X062844Y-45095
X063069Y-34095
X063344Y-41745
X063394Y-31920
X063417Y-34161
X063469Y-34470
X063469Y-41420
X063484Y-34960
X063794Y-33095
X064009Y-36330
X064144Y-44795
X064169Y-42595
X064283Y-38689
X064294Y-34635
X064619Y-34635
X064679Y-36320
X064794Y-34370
X064834Y-38689
X064969Y-32370
X064994Y-38395
X065324Y-34945
X065444Y-36320
X065519Y-34270
X065519Y-38470
X065869Y-36495
X066094Y-34370
X066094Y-41390
X066104Y-34990
X066104Y-39750
X066224Y-40215
X067994Y-33570
X068754Y-42950
X068994Y-32495
X069409Y-39560
X069424Y-42940
T11
X050480Y-33220
X050480Y-34220
X050480Y-35220
X050480Y-36220
X050480Y-37220
X050480Y-38220
X050480Y-39220
X050480Y-40220
X050480Y-41220
X050480Y-42220
X051480Y-33220
X051480Y-34220
X051480Y-35220
X051480Y-36220
X051480Y-37220
X051480Y-38220
X051480Y-39220
X051480Y-40220
X051480Y-41220
X051480Y-42220
X053980Y-46720
X054980Y-46720
X055980Y-46720
X056980Y-46720
X057980Y-46720
X058980Y-46720
X059734Y-30625
X060734Y-30625
X062980Y-29220
X063980Y-29220
X067480Y-33220
X067480Y-34220
X067480Y-35220
X067480Y-36220
X067480Y-37220
X067480Y-38220
X067480Y-39220
X067480Y-40220
X067480Y-41220
X067480Y-42220
X068480Y-33220
X068480Y-34220
X068480Y-35220
X068480Y-36220
X068480Y-37220
X068480Y-38220
X068480Y-39220
X068480Y-40220
X068480Y-41220
X068480Y-42220
T12
X056133Y-43441
X064243Y-32146
T13
X051394Y-29595
X051394Y-45795
X067594Y-29595
X067594Y-45795
M30

