G04 #@! TF.FileFunction,Soldermask,Top*
%FSLAX46Y46*%
G04 Gerber Fmt 4.6, Leading zero omitted, Abs format (unit mm)*
G04 Created by KiCad (PCBNEW 4.0.0-rc2-stable) date 7/22/2016 8:43:15 PM*
%MOMM*%
G01*
G04 APERTURE LIST*
%ADD10C,0.100000*%
%ADD11C,4.000000*%
%ADD12R,0.800000X0.750000*%
%ADD13R,0.750000X0.800000*%
%ADD14R,0.797560X0.797560*%
%ADD15R,1.727200X1.727200*%
%ADD16O,1.727200X1.727200*%
%ADD17R,2.032000X2.032000*%
%ADD18O,2.032000X2.032000*%
%ADD19R,1.727200X2.032000*%
%ADD20O,1.727200X2.032000*%
%ADD21R,5.000000X5.000000*%
%ADD22R,0.800100X0.800100*%
%ADD23R,0.500000X0.900000*%
%ADD24R,0.304800X0.990600*%
%ADD25C,1.998980*%
%ADD26R,1.137920X0.198120*%
%ADD27R,0.812800X0.406400*%
%ADD28R,1.498600X2.006600*%
%ADD29R,0.558800X1.320800*%
%ADD30R,0.600000X0.230000*%
%ADD31R,0.230000X0.600000*%
%ADD32R,0.812800X0.355600*%
%ADD33R,1.300000X0.250000*%
%ADD34R,0.250000X1.300000*%
%ADD35R,1.300000X2.000000*%
G04 APERTURE END LIST*
D10*
D11*
X130541200Y-116318800D03*
X171689200Y-116318800D03*
X171689200Y-75170800D03*
D12*
X135125200Y-109714800D03*
X136625200Y-109714800D03*
X155191200Y-109460800D03*
X156691200Y-109460800D03*
X151127200Y-115810800D03*
X152627200Y-115810800D03*
X151091628Y-114237800D03*
X152591628Y-114237800D03*
D13*
X154279200Y-83418800D03*
X154279200Y-81918800D03*
X152579200Y-83418800D03*
X152579200Y-81918800D03*
X155979200Y-81918800D03*
X155979200Y-83418800D03*
D12*
X158493200Y-107936800D03*
X159993200Y-107936800D03*
X158493200Y-106412800D03*
X159993200Y-106412800D03*
X164843200Y-96506800D03*
X166343200Y-96506800D03*
X155155200Y-104952800D03*
X156655200Y-104952800D03*
X155191200Y-107936800D03*
X156691200Y-107936800D03*
X155191200Y-106412800D03*
X156691200Y-106412800D03*
D13*
X168079200Y-107518800D03*
X168079200Y-106018800D03*
X161979200Y-107518800D03*
X161979200Y-106018800D03*
D14*
X154404500Y-72884800D03*
X152905900Y-72884800D03*
X157452500Y-72884800D03*
X155953900Y-72884800D03*
X154404500Y-74408800D03*
X152905900Y-74408800D03*
D15*
X128219200Y-107238800D03*
D16*
X130759200Y-107238800D03*
X128219200Y-104698800D03*
X130759200Y-104698800D03*
X128219200Y-102158800D03*
X130759200Y-102158800D03*
X128219200Y-99618800D03*
X130759200Y-99618800D03*
X128219200Y-97078800D03*
X130759200Y-97078800D03*
X128219200Y-94538800D03*
X130759200Y-94538800D03*
X128219200Y-91998800D03*
X130759200Y-91998800D03*
X128219200Y-89458800D03*
X130759200Y-89458800D03*
X128219200Y-86918800D03*
X130759200Y-86918800D03*
X128219200Y-84378800D03*
X130759200Y-84378800D03*
D17*
X159969200Y-74218800D03*
D18*
X162509200Y-74218800D03*
D19*
X149809200Y-118668800D03*
D20*
X147269200Y-118668800D03*
X144729200Y-118668800D03*
X142189200Y-118668800D03*
X139649200Y-118668800D03*
X137109200Y-118668800D03*
D21*
X156159200Y-117398800D03*
X163779200Y-117398800D03*
D15*
X171399200Y-107238800D03*
D16*
X173939200Y-107238800D03*
X171399200Y-104698800D03*
X173939200Y-104698800D03*
X171399200Y-102158800D03*
X173939200Y-102158800D03*
X171399200Y-99618800D03*
X173939200Y-99618800D03*
X171399200Y-97078800D03*
X173939200Y-97078800D03*
X171399200Y-94538800D03*
X173939200Y-94538800D03*
X171399200Y-91998800D03*
X173939200Y-91998800D03*
X171399200Y-89458800D03*
X173939200Y-89458800D03*
X171399200Y-86918800D03*
X173939200Y-86918800D03*
X171399200Y-84378800D03*
X173939200Y-84378800D03*
D22*
X159309200Y-79473560D03*
X161209200Y-79473560D03*
X160259200Y-77474580D03*
D23*
X157707200Y-79488800D03*
X156207200Y-79488800D03*
X158229200Y-103468800D03*
X159729200Y-103468800D03*
X167129200Y-86468800D03*
X168629200Y-86468800D03*
X167129200Y-88168800D03*
X168629200Y-88168800D03*
X163329200Y-92268800D03*
X161829200Y-92268800D03*
X161009200Y-82282800D03*
X159509200Y-82282800D03*
X165729200Y-109068800D03*
X164229200Y-109068800D03*
X168629200Y-84822800D03*
X167129200Y-84822800D03*
X167129200Y-83298800D03*
X168629200Y-83298800D03*
D24*
X143887000Y-89163500D03*
X144537000Y-89163500D03*
X145187000Y-89163500D03*
X145837000Y-89163500D03*
X146487000Y-89163500D03*
X147137000Y-89163500D03*
X147787000Y-89163500D03*
X148437000Y-89163500D03*
X148437000Y-83327900D03*
X147787000Y-83327900D03*
X147137000Y-83327900D03*
X146487000Y-83327900D03*
X145837000Y-83327900D03*
X145187000Y-83327900D03*
X144537000Y-83327900D03*
X143887000Y-83327900D03*
X149087000Y-89163500D03*
X149737000Y-89163500D03*
X149087000Y-83327900D03*
X149737000Y-83327900D03*
D25*
X163177220Y-81650840D03*
X142577820Y-110340140D03*
D26*
X141627860Y-106751120D03*
X144266920Y-106751120D03*
X141627860Y-106349800D03*
X144266920Y-106349800D03*
X141627860Y-105951020D03*
X144266920Y-105951020D03*
X141627860Y-105549700D03*
X144266920Y-105549700D03*
X141627860Y-105150920D03*
X144266920Y-105150920D03*
X141627860Y-104749600D03*
X144266920Y-104749600D03*
X141627860Y-104350820D03*
X144266920Y-104350820D03*
X141627860Y-103949500D03*
X144266920Y-103949500D03*
X141627860Y-103550720D03*
X144266920Y-103550720D03*
X141627860Y-103149400D03*
X144266920Y-103149400D03*
X141627860Y-102750620D03*
X144266920Y-102750620D03*
X141627860Y-102349300D03*
X144266920Y-102349300D03*
X141627860Y-101950520D03*
X144266920Y-101950520D03*
X141627860Y-101549200D03*
X144266920Y-101549200D03*
X141627860Y-101150420D03*
X144266920Y-101150420D03*
X141627860Y-100749100D03*
X144266920Y-100749100D03*
X141627860Y-100350320D03*
X144266920Y-100350320D03*
X141627860Y-99949000D03*
X144266920Y-99949000D03*
X141627860Y-99550220D03*
X144266920Y-99550220D03*
X141627860Y-99148900D03*
X144266920Y-99148900D03*
X141627860Y-98750120D03*
X144266920Y-98750120D03*
X141627860Y-98348800D03*
X144266920Y-98348800D03*
X141627860Y-97950020D03*
X144266920Y-97950020D03*
X141627860Y-97551240D03*
X144266920Y-97551240D03*
X141627860Y-97149920D03*
X144266920Y-97149920D03*
X141627860Y-96751140D03*
X144266920Y-96751140D03*
X141627860Y-96349820D03*
X144266920Y-96349820D03*
X141627860Y-95951040D03*
X144266920Y-95951040D03*
X141627860Y-95549720D03*
X144266920Y-95549720D03*
X141627860Y-95150940D03*
X144266920Y-95150940D03*
X141627860Y-94749620D03*
X144266920Y-94749620D03*
X141627860Y-94350840D03*
X144266920Y-94350840D03*
X141627860Y-93949520D03*
X144266920Y-93949520D03*
X141627860Y-93550740D03*
X144266920Y-93550740D03*
X141627860Y-93149420D03*
X144266920Y-93149420D03*
D27*
X156976200Y-112908600D03*
X156976200Y-111968800D03*
X156976200Y-111029000D03*
X154182200Y-111029000D03*
X154182200Y-111968800D03*
X154182200Y-112908600D03*
D28*
X155604600Y-111943400D03*
D29*
X159439400Y-113038800D03*
X160379200Y-113038800D03*
X161319000Y-113038800D03*
X161319000Y-110498800D03*
X159439400Y-110498800D03*
D30*
X156779200Y-88268800D03*
X156779200Y-87868800D03*
X156779200Y-87468800D03*
X156779200Y-87068800D03*
X156779200Y-86668800D03*
X156779200Y-86268800D03*
D31*
X156279200Y-85768800D03*
X155879200Y-85768800D03*
X155479200Y-85768800D03*
X155079200Y-85768800D03*
X154679200Y-85768800D03*
X154279200Y-85768800D03*
D30*
X153779200Y-86268800D03*
X153779200Y-86668800D03*
X153779200Y-87068800D03*
X153779200Y-87468800D03*
X153779200Y-87868800D03*
X153779200Y-88268800D03*
D31*
X154279200Y-88768800D03*
X154679200Y-88768800D03*
X155079200Y-88768800D03*
X155479200Y-88768800D03*
X155879200Y-88768800D03*
X156279200Y-88768800D03*
D24*
X136054200Y-89086600D03*
X136704200Y-89086600D03*
X137354200Y-89086600D03*
X138004200Y-89086600D03*
X138654200Y-89086600D03*
X139304200Y-89086600D03*
X139954200Y-89086600D03*
X140604200Y-89086600D03*
X140604200Y-83251000D03*
X139954200Y-83251000D03*
X139304200Y-83251000D03*
X138654200Y-83251000D03*
X138004200Y-83251000D03*
X137354200Y-83251000D03*
X136704200Y-83251000D03*
X136054200Y-83251000D03*
X141254200Y-89086600D03*
X141904200Y-89086600D03*
X141254200Y-83251000D03*
X141904200Y-83251000D03*
X134054200Y-107486600D03*
X134704200Y-107486600D03*
X135354200Y-107486600D03*
X136004200Y-107486600D03*
X136654200Y-107486600D03*
X137304200Y-107486600D03*
X137954200Y-107486600D03*
X138604200Y-107486600D03*
X138604200Y-101651000D03*
X137954200Y-101651000D03*
X137304200Y-101651000D03*
X136654200Y-101651000D03*
X136004200Y-101651000D03*
X135354200Y-101651000D03*
X134704200Y-101651000D03*
X134054200Y-101651000D03*
X139254200Y-107486600D03*
X139904200Y-107486600D03*
X139254200Y-101651000D03*
X139904200Y-101651000D03*
D32*
X159129800Y-86178200D03*
X159129800Y-86838600D03*
X159129800Y-87499000D03*
X159129800Y-88159400D03*
X162228600Y-88159400D03*
X162228600Y-87499000D03*
X162228600Y-86838600D03*
X162228600Y-86178200D03*
D33*
X161779200Y-99828800D03*
X161779200Y-99328800D03*
X161779200Y-98828800D03*
X161779200Y-98328800D03*
X161779200Y-97828800D03*
X161779200Y-97328800D03*
X161779200Y-96828800D03*
X161779200Y-96328800D03*
X161779200Y-95828800D03*
X161779200Y-95328800D03*
X161779200Y-94828800D03*
X161779200Y-94328800D03*
D34*
X160179200Y-92728800D03*
X159679200Y-92728800D03*
X159179200Y-92728800D03*
X158679200Y-92728800D03*
X158179200Y-92728800D03*
X157679200Y-92728800D03*
X157179200Y-92728800D03*
X156679200Y-92728800D03*
X156179200Y-92728800D03*
X155679200Y-92728800D03*
X155179200Y-92728800D03*
X154679200Y-92728800D03*
D33*
X153079200Y-94328800D03*
X153079200Y-94828800D03*
X153079200Y-95328800D03*
X153079200Y-95828800D03*
X153079200Y-96328800D03*
X153079200Y-96828800D03*
X153079200Y-97328800D03*
X153079200Y-97828800D03*
X153079200Y-98328800D03*
X153079200Y-98828800D03*
X153079200Y-99328800D03*
X153079200Y-99828800D03*
D34*
X154679200Y-101428800D03*
X155179200Y-101428800D03*
X155679200Y-101428800D03*
X156179200Y-101428800D03*
X156679200Y-101428800D03*
X157179200Y-101428800D03*
X157679200Y-101428800D03*
X158179200Y-101428800D03*
X158679200Y-101428800D03*
X159179200Y-101428800D03*
X159679200Y-101428800D03*
X160179200Y-101428800D03*
D35*
X163849200Y-102698800D03*
X163849200Y-106698800D03*
X166249200Y-106698800D03*
X166249200Y-102698800D03*
D17*
X151724800Y-77787000D03*
D18*
X154264800Y-77787000D03*
D11*
X130541200Y-75170800D03*
M02*
