M48
;DRILL file {KiCad 4.0.0-rc2-stable} date 4/30/2016 6:24:06 PM
;FORMAT={-:-/ absolute / inch / decimal}
FMAT,2
INCH,TZ
T1C0.016
T2C0.040
%
G90
G05
M72
T1
X4.5059Y-3.4852
X4.6043Y-4.0591
X4.6722Y-4.3415
X4.688Y-4.19
X4.69Y-3.415
X4.69Y-3.525
X4.7295Y-3.939
X4.73Y-3.355
X4.75Y-4.28
X4.75Y-4.31
X4.755Y-4.14
X4.7571Y-3.9681
X4.76Y-3.475
X4.7815Y-3.9945
X4.7894Y-4.3159
X4.79Y-4.055
X4.8Y-3.415
X4.8Y-4.14
X4.815Y-3.71
X4.8179Y-4.3415
X4.835Y-3.7783
X4.85Y-3.565
X4.8799Y-4.064
X4.8878Y-4.3366
X4.9075Y-3.685
X4.9114Y-3.5807
X4.9122Y-4.287
X4.925Y-4.32
X4.9406Y-3.6209
X4.955Y-4.465
X4.9622Y-4.3217
X4.985Y-3.7539
X5.0008Y-3.8413
X5.005Y-3.365
X5.0067Y-4.0319
X5.0217Y-3.752
X5.055Y-3.755
X5.055Y-4.165
X5.07Y-3.475
X5.075Y-4.295
X5.0795Y-4.0272
X5.095Y-3.825
X5.1033Y-4.3543
X5.1256Y-3.5071
X5.1516Y-3.7933
X5.155Y-3.38
X5.155Y-3.435
X5.1642Y-4.3421
X5.1657Y-4.3953
X5.1819Y-3.502
X5.1937Y-3.8823
X5.1945Y-4.0311
X5.2122Y-3.3736
X5.23Y-3.48
X5.24Y-3.55
X5.24Y-3.61
X5.2445Y-3.7744
X5.25Y-3.44
X5.2697Y-4.3504
X5.2717Y-4.5492
X5.2823Y-3.6189
X5.2835Y-3.7254
X5.2976Y-4.0551
X5.3022Y-4.4104
X5.3055Y-3.5906
X5.3189Y-4.0311
X5.3299Y-3.5665
X5.3476Y-4.3665
X5.3494Y-3.7254
X5.35Y-3.54
X5.3937Y-3.7795
X5.43Y-4.26
X5.4508Y-4.3829
X5.4524Y-3.389
X5.4591Y-4.2055
X5.4709Y-4.2539
X5.4793Y-3.6417
X5.48Y-3.76
X5.485Y-3.545
X5.4872Y-3.9833
X5.4969Y-4.2043
X5.515Y-3.515
X5.528Y-4.0028
X5.5295Y-4.2031
X5.535Y-4.375
X5.55Y-3.81
X5.5583Y-4.0287
X5.5602Y-4.1
X5.563Y-4.3602
X5.5657Y-4.4083
X5.5738Y-4.565
X5.5896Y-3.6555
X5.6201Y-3.6555
X5.6228Y-3.7756
X5.6335Y-3.6173
X5.6378Y-3.5148
X5.65Y-3.755
X5.65Y-3.94
X5.6772Y-3.6358
X5.7028Y-3.5177
X5.7091Y-3.5917
X5.71Y-3.775
X5.7234Y-4.4173
X5.735Y-4.
X5.7382Y-3.565
X5.7461Y-4.3091
X5.7569Y-4.06
X5.7665Y-3.7551
X5.77Y-3.46
X5.7815Y-4.312
X5.8Y-3.93
X5.8043Y-3.9791
X5.8063Y-3.7677
X5.81Y-3.535
X5.8327Y-4.4281
X5.8396Y-3.8189
X5.8612Y-3.6358
X5.9134Y-4.0335
X5.915Y-3.645
X5.98Y-4.075
X6.025Y-3.425
X6.025Y-4.075
X6.0423Y-4.5925
X6.055Y-3.415
X6.0598Y-4.1264
X6.0732Y-4.1004
X6.0882Y-3.6917
X6.1Y-3.46
X6.1122Y-3.5935
X6.12Y-3.68
X6.1291Y-4.148
X6.15Y-4.124
X6.1504Y-3.7862
X6.1669Y-4.2772
X6.1681Y-4.0512
X6.1724Y-4.0783
X6.175Y-3.355
X6.175Y-3.4
X6.175Y-4.36
X6.2205Y-3.7254
X6.2224Y-3.7835
X6.235Y-3.655
X6.345Y-3.595
X6.4213Y-3.8986
X6.44Y-3.865
X6.5984Y-4.3409
X6.62Y-4.39
X6.685Y-4.39
X6.7Y-3.44
X6.8626Y-4.2256
X6.885Y-3.74
X6.91Y-3.865
X6.9911Y-4.1673
X7.07Y-4.345
T2
X4.4665Y-3.6132
X4.4665Y-3.7132
X4.4665Y-3.8132
X4.4665Y-3.9132
X4.4665Y-4.0132
X4.4665Y-4.1132
X4.565Y-3.265
X4.565Y-3.615
X4.565Y-3.715
X4.565Y-3.815
X4.565Y-3.915
X4.565Y-4.015
X4.565Y-4.115
X4.565Y-4.465
X4.665Y-3.265
X4.665Y-3.615
X4.665Y-3.715
X4.665Y-3.815
X4.665Y-3.915
X4.665Y-4.015
X4.665Y-4.115
X4.665Y-4.465
X4.765Y-3.265
X4.765Y-4.465
X4.865Y-3.265
X4.865Y-4.465
X4.965Y-3.265
X5.065Y-3.265
X5.065Y-4.465
X5.165Y-3.265
X5.165Y-4.465
X5.265Y-3.265
X5.265Y-4.465
X5.365Y-3.265
X5.365Y-4.465
X5.465Y-3.265
X5.465Y-4.465
X5.565Y-3.265
X5.665Y-3.265
X5.665Y-4.465
X5.765Y-3.265
X5.765Y-4.465
X5.865Y-3.265
X5.965Y-3.265
X5.965Y-4.465
X6.065Y-3.265
X6.065Y-3.865
X6.065Y-3.965
X6.065Y-4.465
T0
M30
