G04 #@! TF.FileFunction,Legend,Bot*
%FSLAX46Y46*%
G04 Gerber Fmt 4.6, Leading zero omitted, Abs format (unit mm)*
G04 Created by KiCad (PCBNEW 4.0.0-rc2-stable) date 4/30/2016 6:24:02 PM*
%MOMM*%
G01*
G04 APERTURE LIST*
%ADD10C,0.100000*%
%ADD11C,0.300000*%
%ADD12C,0.177800*%
%ADD13C,0.203200*%
G04 APERTURE END LIST*
D10*
D11*
X154728572Y-116100000D02*
X155442858Y-116100000D01*
X154585715Y-116528571D02*
X155085715Y-115028571D01*
X155585715Y-116528571D01*
X157228572Y-116528571D02*
X157228572Y-115028571D01*
X157728572Y-116100000D01*
X158228572Y-115028571D01*
X158228572Y-116528571D01*
X159585715Y-116528571D02*
X159585715Y-115742857D01*
X159514286Y-115600000D01*
X159371429Y-115528571D01*
X159085715Y-115528571D01*
X158942858Y-115600000D01*
X159585715Y-116457143D02*
X159442858Y-116528571D01*
X159085715Y-116528571D01*
X158942858Y-116457143D01*
X158871429Y-116314286D01*
X158871429Y-116171429D01*
X158942858Y-116028571D01*
X159085715Y-115957143D01*
X159442858Y-115957143D01*
X159585715Y-115885714D01*
X160300001Y-116528571D02*
X160300001Y-115028571D01*
X160442858Y-115957143D02*
X160871429Y-116528571D01*
X160871429Y-115528571D02*
X160300001Y-116100000D01*
X162085715Y-116457143D02*
X161942858Y-116528571D01*
X161657144Y-116528571D01*
X161514287Y-116457143D01*
X161442858Y-116314286D01*
X161442858Y-115742857D01*
X161514287Y-115600000D01*
X161657144Y-115528571D01*
X161942858Y-115528571D01*
X162085715Y-115600000D01*
X162157144Y-115742857D01*
X162157144Y-115885714D01*
X161442858Y-116028571D01*
X162800001Y-116528571D02*
X162800001Y-115528571D01*
X162800001Y-115814286D02*
X162871429Y-115671429D01*
X162942858Y-115600000D01*
X163085715Y-115528571D01*
X163228572Y-115528571D01*
X164228572Y-115742857D02*
X163728572Y-115742857D01*
X163728572Y-116528571D02*
X163728572Y-115028571D01*
X164442858Y-115028571D01*
X165228572Y-116528571D02*
X165085714Y-116457143D01*
X165014286Y-116385714D01*
X164942857Y-116242857D01*
X164942857Y-115814286D01*
X165014286Y-115671429D01*
X165085714Y-115600000D01*
X165228572Y-115528571D01*
X165442857Y-115528571D01*
X165585714Y-115600000D01*
X165657143Y-115671429D01*
X165728572Y-115814286D01*
X165728572Y-116242857D01*
X165657143Y-116385714D01*
X165585714Y-116457143D01*
X165442857Y-116528571D01*
X165228572Y-116528571D01*
X166371429Y-116528571D02*
X166371429Y-115528571D01*
X166371429Y-115814286D02*
X166442857Y-115671429D01*
X166514286Y-115600000D01*
X166657143Y-115528571D01*
X166800000Y-115528571D01*
X167942857Y-116457143D02*
X167800000Y-116528571D01*
X167514286Y-116528571D01*
X167371428Y-116457143D01*
X167300000Y-116385714D01*
X167228571Y-116242857D01*
X167228571Y-115814286D01*
X167300000Y-115671429D01*
X167371428Y-115600000D01*
X167514286Y-115528571D01*
X167800000Y-115528571D01*
X167942857Y-115600000D01*
X169157142Y-116457143D02*
X169014285Y-116528571D01*
X168728571Y-116528571D01*
X168585714Y-116457143D01*
X168514285Y-116314286D01*
X168514285Y-115742857D01*
X168585714Y-115600000D01*
X168728571Y-115528571D01*
X169014285Y-115528571D01*
X169157142Y-115600000D01*
X169228571Y-115742857D01*
X169228571Y-115885714D01*
X168514285Y-116028571D01*
X171014285Y-115528571D02*
X171014285Y-117028571D01*
X171014285Y-115600000D02*
X171157142Y-115528571D01*
X171442856Y-115528571D01*
X171585713Y-115600000D01*
X171657142Y-115671429D01*
X171728571Y-115814286D01*
X171728571Y-116242857D01*
X171657142Y-116385714D01*
X171585713Y-116457143D01*
X171442856Y-116528571D01*
X171157142Y-116528571D01*
X171014285Y-116457143D01*
X172371428Y-116528571D02*
X172371428Y-115528571D01*
X172371428Y-115814286D02*
X172442856Y-115671429D01*
X172514285Y-115600000D01*
X172657142Y-115528571D01*
X172799999Y-115528571D01*
X173514285Y-116528571D02*
X173371427Y-116457143D01*
X173299999Y-116385714D01*
X173228570Y-116242857D01*
X173228570Y-115814286D01*
X173299999Y-115671429D01*
X173371427Y-115600000D01*
X173514285Y-115528571D01*
X173728570Y-115528571D01*
X173871427Y-115600000D01*
X173942856Y-115671429D01*
X174014285Y-115814286D01*
X174014285Y-116242857D01*
X173942856Y-116385714D01*
X173871427Y-116457143D01*
X173728570Y-116528571D01*
X173514285Y-116528571D01*
X175299999Y-116528571D02*
X175299999Y-115028571D01*
X175299999Y-116457143D02*
X175157142Y-116528571D01*
X174871428Y-116528571D01*
X174728570Y-116457143D01*
X174657142Y-116385714D01*
X174585713Y-116242857D01*
X174585713Y-115814286D01*
X174657142Y-115671429D01*
X174728570Y-115600000D01*
X174871428Y-115528571D01*
X175157142Y-115528571D01*
X175299999Y-115600000D01*
X176657142Y-115528571D02*
X176657142Y-116528571D01*
X176014285Y-115528571D02*
X176014285Y-116314286D01*
X176085713Y-116457143D01*
X176228571Y-116528571D01*
X176442856Y-116528571D01*
X176585713Y-116457143D01*
X176657142Y-116385714D01*
X178014285Y-116457143D02*
X177871428Y-116528571D01*
X177585714Y-116528571D01*
X177442856Y-116457143D01*
X177371428Y-116385714D01*
X177299999Y-116242857D01*
X177299999Y-115814286D01*
X177371428Y-115671429D01*
X177442856Y-115600000D01*
X177585714Y-115528571D01*
X177871428Y-115528571D01*
X178014285Y-115600000D01*
X178442856Y-115528571D02*
X179014285Y-115528571D01*
X178657142Y-115028571D02*
X178657142Y-116314286D01*
X178728570Y-116457143D01*
X178871428Y-116528571D01*
X179014285Y-116528571D01*
X112096429Y-116453571D02*
X112096429Y-114953571D01*
X112596429Y-116025000D01*
X113096429Y-114953571D01*
X113096429Y-116453571D01*
X114453572Y-116453571D02*
X114453572Y-115667857D01*
X114382143Y-115525000D01*
X114239286Y-115453571D01*
X113953572Y-115453571D01*
X113810715Y-115525000D01*
X114453572Y-116382143D02*
X114310715Y-116453571D01*
X113953572Y-116453571D01*
X113810715Y-116382143D01*
X113739286Y-116239286D01*
X113739286Y-116096429D01*
X113810715Y-115953571D01*
X113953572Y-115882143D01*
X114310715Y-115882143D01*
X114453572Y-115810714D01*
X115810715Y-116453571D02*
X115810715Y-114953571D01*
X115810715Y-116382143D02*
X115667858Y-116453571D01*
X115382144Y-116453571D01*
X115239286Y-116382143D01*
X115167858Y-116310714D01*
X115096429Y-116167857D01*
X115096429Y-115739286D01*
X115167858Y-115596429D01*
X115239286Y-115525000D01*
X115382144Y-115453571D01*
X115667858Y-115453571D01*
X115810715Y-115525000D01*
X117096429Y-116382143D02*
X116953572Y-116453571D01*
X116667858Y-116453571D01*
X116525001Y-116382143D01*
X116453572Y-116239286D01*
X116453572Y-115667857D01*
X116525001Y-115525000D01*
X116667858Y-115453571D01*
X116953572Y-115453571D01*
X117096429Y-115525000D01*
X117167858Y-115667857D01*
X117167858Y-115810714D01*
X116453572Y-115953571D01*
X118953572Y-116453571D02*
X118953572Y-114953571D01*
X118953572Y-115525000D02*
X119096429Y-115453571D01*
X119382143Y-115453571D01*
X119525000Y-115525000D01*
X119596429Y-115596429D01*
X119667858Y-115739286D01*
X119667858Y-116167857D01*
X119596429Y-116310714D01*
X119525000Y-116382143D01*
X119382143Y-116453571D01*
X119096429Y-116453571D01*
X118953572Y-116382143D01*
X120167858Y-115453571D02*
X120525001Y-116453571D01*
X120882143Y-115453571D02*
X120525001Y-116453571D01*
X120382143Y-116810714D01*
X120310715Y-116882143D01*
X120167858Y-116953571D01*
X122525000Y-116382143D02*
X122739286Y-116453571D01*
X123096429Y-116453571D01*
X123239286Y-116382143D01*
X123310715Y-116310714D01*
X123382143Y-116167857D01*
X123382143Y-116025000D01*
X123310715Y-115882143D01*
X123239286Y-115810714D01*
X123096429Y-115739286D01*
X122810715Y-115667857D01*
X122667857Y-115596429D01*
X122596429Y-115525000D01*
X122525000Y-115382143D01*
X122525000Y-115239286D01*
X122596429Y-115096429D01*
X122667857Y-115025000D01*
X122810715Y-114953571D01*
X123167857Y-114953571D01*
X123382143Y-115025000D01*
X124667857Y-115453571D02*
X124667857Y-116453571D01*
X124025000Y-115453571D02*
X124025000Y-116239286D01*
X124096428Y-116382143D01*
X124239286Y-116453571D01*
X124453571Y-116453571D01*
X124596428Y-116382143D01*
X124667857Y-116310714D01*
X126025000Y-116453571D02*
X126025000Y-114953571D01*
X126025000Y-116382143D02*
X125882143Y-116453571D01*
X125596429Y-116453571D01*
X125453571Y-116382143D01*
X125382143Y-116310714D01*
X125310714Y-116167857D01*
X125310714Y-115739286D01*
X125382143Y-115596429D01*
X125453571Y-115525000D01*
X125596429Y-115453571D01*
X125882143Y-115453571D01*
X126025000Y-115525000D01*
X126739286Y-116453571D02*
X126739286Y-114953571D01*
X127382143Y-116453571D02*
X127382143Y-115667857D01*
X127310714Y-115525000D01*
X127167857Y-115453571D01*
X126953572Y-115453571D01*
X126810714Y-115525000D01*
X126739286Y-115596429D01*
X128739286Y-116453571D02*
X128739286Y-115667857D01*
X128667857Y-115525000D01*
X128525000Y-115453571D01*
X128239286Y-115453571D01*
X128096429Y-115525000D01*
X128739286Y-116382143D02*
X128596429Y-116453571D01*
X128239286Y-116453571D01*
X128096429Y-116382143D01*
X128025000Y-116239286D01*
X128025000Y-116096429D01*
X128096429Y-115953571D01*
X128239286Y-115882143D01*
X128596429Y-115882143D01*
X128739286Y-115810714D01*
X129453572Y-116453571D02*
X129453572Y-115453571D01*
X129453572Y-115739286D02*
X129525000Y-115596429D01*
X129596429Y-115525000D01*
X129739286Y-115453571D01*
X129882143Y-115453571D01*
X130310714Y-116382143D02*
X130453571Y-116453571D01*
X130739286Y-116453571D01*
X130882143Y-116382143D01*
X130953571Y-116239286D01*
X130953571Y-116167857D01*
X130882143Y-116025000D01*
X130739286Y-115953571D01*
X130525000Y-115953571D01*
X130382143Y-115882143D01*
X130310714Y-115739286D01*
X130310714Y-115667857D01*
X130382143Y-115525000D01*
X130525000Y-115453571D01*
X130739286Y-115453571D01*
X130882143Y-115525000D01*
X131596429Y-116453571D02*
X131596429Y-114953571D01*
X132239286Y-116453571D02*
X132239286Y-115667857D01*
X132167857Y-115525000D01*
X132025000Y-115453571D01*
X131810715Y-115453571D01*
X131667857Y-115525000D01*
X131596429Y-115596429D01*
X133596429Y-116453571D02*
X133596429Y-115667857D01*
X133525000Y-115525000D01*
X133382143Y-115453571D01*
X133096429Y-115453571D01*
X132953572Y-115525000D01*
X133596429Y-116382143D02*
X133453572Y-116453571D01*
X133096429Y-116453571D01*
X132953572Y-116382143D01*
X132882143Y-116239286D01*
X132882143Y-116096429D01*
X132953572Y-115953571D01*
X133096429Y-115882143D01*
X133453572Y-115882143D01*
X133596429Y-115810714D01*
X134310715Y-115453571D02*
X134310715Y-116453571D01*
X134310715Y-115596429D02*
X134382143Y-115525000D01*
X134525001Y-115453571D01*
X134739286Y-115453571D01*
X134882143Y-115525000D01*
X134953572Y-115667857D01*
X134953572Y-116453571D01*
D12*
X179620220Y-95770440D02*
X167169140Y-95770440D01*
X167120880Y-95869500D02*
X179671020Y-95869500D01*
X179620220Y-96120960D02*
X167169140Y-96120960D01*
X179671020Y-96270820D02*
X179671020Y-96019360D01*
X167120880Y-96270820D02*
X179671020Y-96270820D01*
X167120880Y-95668840D02*
X179671020Y-95668840D01*
X167120880Y-96270820D02*
X167120880Y-95668840D01*
X179671020Y-83121240D02*
X179269700Y-83121240D01*
X166021060Y-81869020D02*
X179269700Y-81869020D01*
X179269700Y-81869020D02*
X179269700Y-83121240D01*
X165568940Y-94820480D02*
X165568940Y-84820500D01*
X165568940Y-84820500D02*
X164720580Y-83969600D01*
X164720580Y-83969600D02*
X164720580Y-83121240D01*
X179671020Y-87269060D02*
X179671020Y-83121240D01*
X179671020Y-93070420D02*
X179671020Y-89168980D01*
X179671020Y-96019360D02*
X179671020Y-94970340D01*
X167120880Y-96019360D02*
X179671020Y-96019360D01*
D13*
X166865429Y-85401677D02*
X166906552Y-85360553D01*
X166947676Y-85237182D01*
X166947676Y-85154934D01*
X166906552Y-85031562D01*
X166824305Y-84949315D01*
X166742057Y-84908191D01*
X166577562Y-84867067D01*
X166454190Y-84867067D01*
X166289695Y-84908191D01*
X166207448Y-84949315D01*
X166125200Y-85031562D01*
X166084076Y-85154934D01*
X166084076Y-85237182D01*
X166125200Y-85360553D01*
X166166324Y-85401677D01*
X166947676Y-86141905D02*
X166495314Y-86141905D01*
X166413067Y-86100782D01*
X166371943Y-86018534D01*
X166371943Y-85854039D01*
X166413067Y-85771791D01*
X166906552Y-86141905D02*
X166947676Y-86059658D01*
X166947676Y-85854039D01*
X166906552Y-85771791D01*
X166824305Y-85730667D01*
X166742057Y-85730667D01*
X166659810Y-85771791D01*
X166618686Y-85854039D01*
X166618686Y-86059658D01*
X166577562Y-86141905D01*
X166947676Y-86553143D02*
X166371943Y-86553143D01*
X166536438Y-86553143D02*
X166454190Y-86594267D01*
X166413067Y-86635391D01*
X166371943Y-86717638D01*
X166371943Y-86799886D01*
X166947676Y-87457867D02*
X166084076Y-87457867D01*
X166906552Y-87457867D02*
X166947676Y-87375620D01*
X166947676Y-87211124D01*
X166906552Y-87128877D01*
X166865429Y-87087753D01*
X166783181Y-87046629D01*
X166536438Y-87046629D01*
X166454190Y-87087753D01*
X166413067Y-87128877D01*
X166371943Y-87211124D01*
X166371943Y-87375620D01*
X166413067Y-87457867D01*
X166495314Y-88527086D02*
X166495314Y-88814953D01*
X166947676Y-88938324D02*
X166947676Y-88527086D01*
X166084076Y-88527086D01*
X166084076Y-88938324D01*
X166371943Y-89308438D02*
X166947676Y-89308438D01*
X166454190Y-89308438D02*
X166413067Y-89349562D01*
X166371943Y-89431809D01*
X166371943Y-89555181D01*
X166413067Y-89637429D01*
X166495314Y-89678552D01*
X166947676Y-89678552D01*
X166371943Y-89966419D02*
X166371943Y-90295409D01*
X166084076Y-90089790D02*
X166824305Y-90089790D01*
X166906552Y-90130914D01*
X166947676Y-90213161D01*
X166947676Y-90295409D01*
X166947676Y-90583276D02*
X166371943Y-90583276D01*
X166536438Y-90583276D02*
X166454190Y-90624400D01*
X166413067Y-90665524D01*
X166371943Y-90747771D01*
X166371943Y-90830019D01*
X166947676Y-91488000D02*
X166495314Y-91488000D01*
X166413067Y-91446877D01*
X166371943Y-91364629D01*
X166371943Y-91200134D01*
X166413067Y-91117886D01*
X166906552Y-91488000D02*
X166947676Y-91405753D01*
X166947676Y-91200134D01*
X166906552Y-91117886D01*
X166824305Y-91076762D01*
X166742057Y-91076762D01*
X166659810Y-91117886D01*
X166618686Y-91200134D01*
X166618686Y-91405753D01*
X166577562Y-91488000D01*
X166371943Y-91899238D02*
X166947676Y-91899238D01*
X166454190Y-91899238D02*
X166413067Y-91940362D01*
X166371943Y-92022609D01*
X166371943Y-92145981D01*
X166413067Y-92228229D01*
X166495314Y-92269352D01*
X166947676Y-92269352D01*
X166906552Y-93050704D02*
X166947676Y-92968457D01*
X166947676Y-92803961D01*
X166906552Y-92721714D01*
X166865429Y-92680590D01*
X166783181Y-92639466D01*
X166536438Y-92639466D01*
X166454190Y-92680590D01*
X166413067Y-92721714D01*
X166371943Y-92803961D01*
X166371943Y-92968457D01*
X166413067Y-93050704D01*
X166906552Y-93749810D02*
X166947676Y-93667562D01*
X166947676Y-93503067D01*
X166906552Y-93420819D01*
X166824305Y-93379695D01*
X166495314Y-93379695D01*
X166413067Y-93420819D01*
X166371943Y-93503067D01*
X166371943Y-93667562D01*
X166413067Y-93749810D01*
X166495314Y-93790933D01*
X166577562Y-93790933D01*
X166659810Y-93379695D01*
M02*
