G04 #@! TF.FileFunction,Copper,L2,Bot,Signal*
%FSLAX46Y46*%
G04 Gerber Fmt 4.6, Leading zero omitted, Abs format (unit mm)*
G04 Created by KiCad (PCBNEW 4.0.0-rc2-stable) date 4/30/2016 1:18:27 PM*
%MOMM*%
G01*
G04 APERTURE LIST*
%ADD10C,0.100000*%
%ADD11R,1.727200X1.727200*%
%ADD12O,1.727200X1.727200*%
%ADD13R,1.727200X2.032000*%
%ADD14O,1.727200X2.032000*%
%ADD15R,2.032000X2.032000*%
%ADD16O,2.032000X2.032000*%
%ADD17R,1.501140X0.749300*%
%ADD18R,1.899920X1.399540*%
%ADD19R,1.399540X1.800860*%
%ADD20R,2.032000X1.727200*%
%ADD21O,2.032000X1.727200*%
%ADD22C,0.600000*%
%ADD23C,0.160000*%
%ADD24C,0.250000*%
G04 APERTURE END LIST*
D10*
D11*
X118490000Y-104520000D03*
D12*
X115950000Y-104520000D03*
X118490000Y-101980000D03*
X115950000Y-101980000D03*
X118490000Y-99440000D03*
X115950000Y-99440000D03*
X118490000Y-96900000D03*
X115950000Y-96900000D03*
X118490000Y-94360000D03*
X115950000Y-94360000D03*
X118490000Y-91820000D03*
X115950000Y-91820000D03*
D13*
X154050000Y-82930000D03*
D14*
X151510000Y-82930000D03*
X148970000Y-82930000D03*
X146430000Y-82930000D03*
X143890000Y-82930000D03*
X141350000Y-82930000D03*
X138810000Y-82930000D03*
X136270000Y-82930000D03*
X133730000Y-82930000D03*
X131190000Y-82930000D03*
X128650000Y-82930000D03*
X126110000Y-82930000D03*
X123570000Y-82930000D03*
X121030000Y-82930000D03*
X118490000Y-82930000D03*
X115950000Y-82930000D03*
D13*
X128650000Y-113410000D03*
D14*
X131190000Y-113410000D03*
X133730000Y-113410000D03*
X136270000Y-113410000D03*
X138810000Y-113410000D03*
D13*
X115950000Y-113410000D03*
D14*
X118490000Y-113410000D03*
X121030000Y-113410000D03*
X123570000Y-113410000D03*
D15*
X151510000Y-113410000D03*
D16*
X154050000Y-113410000D03*
D15*
X143890000Y-113410000D03*
D16*
X146430000Y-113410000D03*
D15*
X154050000Y-98170000D03*
D16*
X154050000Y-100710000D03*
D17*
X168970000Y-93768920D03*
X168970000Y-94868740D03*
X168769340Y-92669100D03*
X168970000Y-91569280D03*
X168970000Y-87170000D03*
X169368780Y-88269820D03*
X168970000Y-89369640D03*
X168769340Y-90469460D03*
D18*
X166120120Y-95569780D03*
X165020300Y-82321140D03*
D19*
X179269700Y-94020380D03*
X179269700Y-88219020D03*
D20*
X113450000Y-91775000D03*
D21*
X113450000Y-94315000D03*
X113450000Y-96855000D03*
X113450000Y-99395000D03*
X113450000Y-101935000D03*
X113450000Y-104475000D03*
D22*
X114450000Y-88525000D03*
X148325000Y-97000000D03*
X144850000Y-89350000D03*
X143200000Y-89275000D03*
X146225000Y-103125000D03*
X150200000Y-102450000D03*
X138450000Y-111325000D03*
X135875000Y-94625000D03*
X134200000Y-94625000D03*
X118675000Y-110275000D03*
X122375000Y-110275000D03*
X148150000Y-112475000D03*
X146850000Y-109525000D03*
X174879000Y-94996000D03*
X169799000Y-111506000D03*
X179578000Y-110363000D03*
X133350000Y-87376000D03*
X130937000Y-85852000D03*
X120142000Y-85217000D03*
X156845000Y-110744000D03*
X168148000Y-111506000D03*
X139192000Y-95504000D03*
X141975000Y-92850000D03*
X129413000Y-97155000D03*
X128397000Y-95377000D03*
X170180000Y-87376000D03*
X140589000Y-111125000D03*
X153797000Y-86741000D03*
X154940000Y-87884000D03*
X153035000Y-86995000D03*
X146558000Y-87884000D03*
X147430000Y-101070000D03*
X131620000Y-88950000D03*
X135380000Y-90590000D03*
X145750000Y-90550000D03*
X177575000Y-105850000D03*
X163100000Y-99025000D03*
X158050000Y-96100000D03*
X158000000Y-94625000D03*
X139375000Y-101175000D03*
X130850000Y-96350000D03*
X145950000Y-109450000D03*
X145375000Y-112200000D03*
X140970000Y-96774000D03*
X155448000Y-93472000D03*
X121920000Y-105156000D03*
X120777000Y-105156000D03*
X161163000Y-91313000D03*
X156845000Y-86360000D03*
X156845000Y-85217000D03*
X127127000Y-85471000D03*
X128778000Y-88265000D03*
X132842000Y-88392000D03*
X134760000Y-91200000D03*
X145010000Y-91230000D03*
X153475000Y-116650000D03*
X124650000Y-93600000D03*
X119075000Y-106425000D03*
X123950000Y-103225000D03*
X123190000Y-90551000D03*
X120904000Y-88265000D03*
X174310000Y-107330000D03*
X167600000Y-110260000D03*
X150241000Y-92583000D03*
X158369000Y-92837000D03*
X163576000Y-98171000D03*
X175514000Y-98171000D03*
X155250000Y-91275000D03*
X148875000Y-92350000D03*
X144200000Y-92350000D03*
X139175000Y-92500000D03*
X145034000Y-95885000D03*
X153035000Y-103505000D03*
X151892000Y-103505000D03*
X145669000Y-101600000D03*
X154640000Y-93770000D03*
X146470000Y-95380000D03*
X147320000Y-99822000D03*
X143510000Y-100076000D03*
X142750000Y-92850000D03*
X142820000Y-95900000D03*
X147480000Y-95700000D03*
X156220000Y-96170000D03*
X119126000Y-86741000D03*
X130937000Y-87249000D03*
X133096000Y-90170000D03*
X133096000Y-91694000D03*
X122301000Y-94234000D03*
X119126000Y-89535000D03*
X130190000Y-89080000D03*
X122810000Y-95970000D03*
X120130000Y-100050000D03*
X120830000Y-100790000D03*
X121450000Y-101460000D03*
X139319000Y-90043000D03*
X140081000Y-89281000D03*
X133850000Y-110500000D03*
X135830000Y-110910000D03*
X129020000Y-102290000D03*
X120650000Y-109474000D03*
X121666000Y-102997000D03*
X133900000Y-115550000D03*
X116950000Y-103100000D03*
X134675000Y-112025000D03*
X129625000Y-110600000D03*
X124150000Y-110150000D03*
X121650000Y-109625000D03*
X126620000Y-95350000D03*
X127550000Y-95300000D03*
X141575000Y-115950000D03*
X137000000Y-96000000D03*
X156640000Y-108640000D03*
X133210000Y-95870000D03*
X141300000Y-110750000D03*
X138960000Y-108050000D03*
X141370000Y-111970000D03*
X128397000Y-105791000D03*
X128905000Y-109093000D03*
X125095000Y-109728000D03*
X120650000Y-108712000D03*
X131170000Y-110290000D03*
X131210000Y-111640000D03*
X137922000Y-108204000D03*
X125857000Y-113411000D03*
X138490000Y-86080000D03*
X132390000Y-85690000D03*
X121920000Y-86741000D03*
X135890000Y-89916000D03*
X141230000Y-104140000D03*
X141180000Y-102330000D03*
X140410000Y-101670000D03*
X140450000Y-106760000D03*
X135100000Y-102390000D03*
X139620000Y-106790000D03*
X156780000Y-103590000D03*
X156210000Y-104750000D03*
X155680000Y-105360000D03*
X153920000Y-104810000D03*
X154260000Y-104150000D03*
X156670000Y-102900000D03*
X134560000Y-103000000D03*
X138660000Y-106820000D03*
X124750000Y-90950000D03*
X124770000Y-108890000D03*
X126040000Y-109770000D03*
X125490000Y-91970000D03*
X127170000Y-102410000D03*
X127020000Y-97570000D03*
X131940000Y-102390000D03*
X131920000Y-98610000D03*
X134170000Y-91920000D03*
X143090000Y-91880000D03*
X147574000Y-89789000D03*
X143510000Y-95377000D03*
D23*
X124990000Y-94240000D02*
X125030000Y-94240000D01*
D24*
X115950000Y-87025000D02*
X115950000Y-82930000D01*
X114450000Y-88525000D02*
X115950000Y-87025000D01*
D23*
X159025000Y-91969000D02*
X154940000Y-87884000D01*
X159025000Y-92850000D02*
X159025000Y-91969000D01*
X158350000Y-93525000D02*
X159025000Y-92850000D01*
X157675000Y-94200000D02*
X158350000Y-93525000D01*
X148250000Y-94200000D02*
X157675000Y-94200000D01*
X146975000Y-95475000D02*
X148250000Y-94200000D01*
X146975000Y-96275000D02*
X146975000Y-95475000D01*
X147175000Y-96475000D02*
X146975000Y-96275000D01*
X147800000Y-96475000D02*
X147175000Y-96475000D01*
X148325000Y-97000000D02*
X147800000Y-96475000D01*
X143275000Y-89350000D02*
X144850000Y-89350000D01*
X143200000Y-89275000D02*
X143275000Y-89350000D01*
X149525000Y-103125000D02*
X146225000Y-103125000D01*
X150200000Y-102450000D02*
X149525000Y-103125000D01*
X138810000Y-111685000D02*
X138810000Y-113410000D01*
X138450000Y-111325000D02*
X138810000Y-111685000D01*
X134200000Y-94625000D02*
X135875000Y-94625000D01*
X121400000Y-110275000D02*
X118675000Y-110275000D01*
X122375000Y-110275000D02*
X121400000Y-110275000D01*
X148150000Y-110825000D02*
X148150000Y-112475000D01*
X146850000Y-109525000D02*
X148150000Y-110825000D01*
X174879000Y-94996000D02*
X172593000Y-92710000D01*
X172593000Y-92710000D02*
X168783000Y-92710000D01*
X168783000Y-92710000D02*
X168769340Y-92669100D01*
X169799000Y-111506000D02*
X170688000Y-110617000D01*
X170688000Y-110617000D02*
X171450000Y-110617000D01*
X171450000Y-110617000D02*
X171577000Y-110490000D01*
X171577000Y-110490000D02*
X171704000Y-110490000D01*
X171704000Y-110490000D02*
X171831000Y-110363000D01*
X171831000Y-110363000D02*
X179578000Y-110363000D01*
X133350000Y-87376000D02*
X132080000Y-86106000D01*
X132080000Y-86106000D02*
X131953000Y-86106000D01*
X131953000Y-86106000D02*
X131699000Y-85852000D01*
X131699000Y-85852000D02*
X130937000Y-85852000D01*
X126110000Y-82930000D02*
X125984000Y-83058000D01*
X125984000Y-83058000D02*
X123825000Y-85217000D01*
X123825000Y-85217000D02*
X120142000Y-85217000D01*
X156845000Y-110744000D02*
X157607000Y-111506000D01*
X157607000Y-111506000D02*
X168148000Y-111506000D01*
X141975000Y-92850000D02*
X139192000Y-95504000D01*
X129413000Y-97155000D02*
X129413000Y-96393000D01*
X129413000Y-96393000D02*
X128397000Y-95377000D01*
X168769340Y-92669100D02*
X168783000Y-92710000D01*
X168783000Y-92710000D02*
X169164000Y-92329000D01*
X169164000Y-92329000D02*
X169672000Y-92329000D01*
X169672000Y-92329000D02*
X169799000Y-92202000D01*
X169799000Y-92202000D02*
X169926000Y-92202000D01*
X169926000Y-92202000D02*
X169926000Y-89281000D01*
X169926000Y-89281000D02*
X170307000Y-88900000D01*
X170307000Y-88900000D02*
X170307000Y-87503000D01*
X170307000Y-87503000D02*
X170180000Y-87376000D01*
X140589000Y-111125000D02*
X140589000Y-111633000D01*
X140589000Y-111633000D02*
X138811000Y-113411000D01*
X138811000Y-113411000D02*
X138810000Y-113410000D01*
X153797000Y-86741000D02*
X154940000Y-87884000D01*
X153035000Y-86995000D02*
X152146000Y-87884000D01*
X152146000Y-87884000D02*
X146558000Y-87884000D01*
X133595209Y-100790340D02*
X137634660Y-100790340D01*
X142045000Y-101070000D02*
X147430000Y-101070000D01*
X141350000Y-100375000D02*
X142045000Y-101070000D01*
X138050000Y-100375000D02*
X141350000Y-100375000D01*
X137634660Y-100790340D02*
X138050000Y-100375000D01*
X132840000Y-100350000D02*
X133595209Y-100790340D01*
X133595209Y-100790340D02*
X133598648Y-100792345D01*
X132832094Y-97924895D02*
X132840000Y-100350000D01*
X132178595Y-97404942D02*
X132832094Y-97924895D01*
X131860000Y-89190000D02*
X132178595Y-97404942D01*
X131620000Y-88950000D02*
X131860000Y-89190000D01*
X145710000Y-90590000D02*
X135380000Y-90590000D01*
X145750000Y-90550000D02*
X145710000Y-90590000D01*
X176000000Y-105850000D02*
X177575000Y-105850000D01*
X175650000Y-105500000D02*
X176000000Y-105850000D01*
X175650000Y-99475000D02*
X175650000Y-105500000D01*
X174925000Y-98750000D02*
X175650000Y-99475000D01*
X163375000Y-98750000D02*
X174925000Y-98750000D01*
X163100000Y-99025000D02*
X163375000Y-98750000D01*
X158050000Y-94675000D02*
X158050000Y-96100000D01*
X158000000Y-94625000D02*
X158050000Y-94675000D01*
X121920000Y-105156000D02*
X121920000Y-104480000D01*
X130850000Y-95775000D02*
X130850000Y-96350000D01*
X129575000Y-94500000D02*
X130850000Y-95775000D01*
X126800000Y-94500000D02*
X129575000Y-94500000D01*
X126400000Y-94100000D02*
X126800000Y-94500000D01*
X126400000Y-89850000D02*
X126400000Y-94100000D01*
X126150000Y-89600000D02*
X126400000Y-89850000D01*
X124925000Y-89600000D02*
X126150000Y-89600000D01*
X124100000Y-90425000D02*
X124925000Y-89600000D01*
X124100000Y-102300000D02*
X124100000Y-90425000D01*
X121920000Y-104480000D02*
X124100000Y-102300000D01*
X130850000Y-96350000D02*
X130850000Y-96725000D01*
X130850000Y-96725000D02*
X132450000Y-98325000D01*
X132450000Y-98325000D02*
X132450000Y-100375000D01*
X132450000Y-100375000D02*
X133250000Y-101175000D01*
X133250000Y-101175000D02*
X139375000Y-101175000D01*
X130850000Y-96350000D02*
X130925000Y-96275000D01*
X130925000Y-96275000D02*
X130925000Y-88392000D01*
X145950000Y-111625000D02*
X145950000Y-109450000D01*
X145375000Y-112200000D02*
X145950000Y-111625000D01*
X140970000Y-96774000D02*
X141351000Y-96393000D01*
X141351000Y-96393000D02*
X143129000Y-96393000D01*
X143129000Y-96393000D02*
X143764000Y-95758000D01*
X143764000Y-95758000D02*
X143891000Y-95758000D01*
X143891000Y-95758000D02*
X146431000Y-93218000D01*
X146431000Y-93218000D02*
X154813000Y-93218000D01*
X154813000Y-93218000D02*
X154940000Y-93345000D01*
X154940000Y-93345000D02*
X155067000Y-93345000D01*
X155067000Y-93345000D02*
X155194000Y-93472000D01*
X155194000Y-93472000D02*
X155448000Y-93472000D01*
X121920000Y-105156000D02*
X120777000Y-105156000D01*
X161163000Y-91313000D02*
X161417000Y-91059000D01*
X161417000Y-91059000D02*
X168021000Y-91059000D01*
X168021000Y-91059000D02*
X168656000Y-90424000D01*
X168656000Y-90424000D02*
X168783000Y-90424000D01*
X168783000Y-90424000D02*
X168769340Y-90469460D01*
X156845000Y-86360000D02*
X156845000Y-85217000D01*
X118490000Y-82930000D02*
X118618000Y-82804000D01*
X118618000Y-82804000D02*
X119761000Y-81661000D01*
X119761000Y-81661000D02*
X127127000Y-81661000D01*
X127127000Y-81661000D02*
X128397000Y-82931000D01*
X128397000Y-82931000D02*
X128651000Y-82931000D01*
X128651000Y-82931000D02*
X128650000Y-82930000D01*
X128650000Y-82930000D02*
X128524000Y-83058000D01*
X128524000Y-83058000D02*
X127635000Y-83947000D01*
X127635000Y-83947000D02*
X127635000Y-84963000D01*
X127635000Y-84963000D02*
X127127000Y-85471000D01*
X128778000Y-88265000D02*
X128905000Y-88392000D01*
X128905000Y-88392000D02*
X130925000Y-88392000D01*
X130925000Y-88392000D02*
X132842000Y-88392000D01*
X144980000Y-91200000D02*
X134760000Y-91200000D01*
X145010000Y-91230000D02*
X144980000Y-91200000D01*
D24*
X113700000Y-106770000D02*
X115950000Y-104520000D01*
X113700000Y-115075000D02*
X113700000Y-106770000D01*
X114700000Y-116075000D02*
X113700000Y-115075000D01*
X130375000Y-116075000D02*
X114700000Y-116075000D01*
X130875000Y-116575000D02*
X130375000Y-116075000D01*
X153400000Y-116575000D02*
X130875000Y-116575000D01*
X153475000Y-116650000D02*
X153400000Y-116575000D01*
D23*
X123950000Y-103225000D02*
X123950000Y-103200000D01*
X124650000Y-102500000D02*
X124650000Y-93600000D01*
X123950000Y-103200000D02*
X124650000Y-102500000D01*
X122800000Y-106425000D02*
X119075000Y-106425000D01*
X123025000Y-106200000D02*
X122800000Y-106425000D01*
X123025000Y-104150000D02*
X123025000Y-106200000D01*
X123950000Y-103225000D02*
X123025000Y-104150000D01*
X123190000Y-90551000D02*
X120904000Y-88265000D01*
D24*
X174310000Y-107330000D02*
X171380000Y-110260000D01*
X171380000Y-110260000D02*
X167600000Y-110260000D01*
D23*
X150241000Y-92583000D02*
X150495000Y-92837000D01*
X150495000Y-92837000D02*
X158369000Y-92837000D01*
X163576000Y-98171000D02*
X175514000Y-98171000D01*
X149950000Y-91275000D02*
X155250000Y-91275000D01*
X148875000Y-92350000D02*
X149950000Y-91275000D01*
X139325000Y-92350000D02*
X144200000Y-92350000D01*
X139175000Y-92500000D02*
X139325000Y-92350000D01*
X145034000Y-95885000D02*
X147955000Y-98806000D01*
X147955000Y-98806000D02*
X151384000Y-98806000D01*
X151384000Y-98806000D02*
X151511000Y-98933000D01*
X151511000Y-98933000D02*
X151638000Y-98933000D01*
X151638000Y-98933000D02*
X152654000Y-99949000D01*
X152654000Y-99949000D02*
X152654000Y-103124000D01*
X152654000Y-103124000D02*
X153035000Y-103505000D01*
X151892000Y-103505000D02*
X149987000Y-101600000D01*
X149987000Y-101600000D02*
X145669000Y-101600000D01*
X148080000Y-93770000D02*
X154640000Y-93770000D01*
X146470000Y-95380000D02*
X148080000Y-93770000D01*
X147320000Y-99822000D02*
X147066000Y-100076000D01*
X147066000Y-100076000D02*
X143510000Y-100076000D01*
X142760000Y-92860000D02*
X142750000Y-92850000D01*
X142760000Y-95840000D02*
X142760000Y-92860000D01*
X142820000Y-95900000D02*
X142760000Y-95840000D01*
X147480000Y-95700000D02*
X147950000Y-96170000D01*
X147950000Y-96170000D02*
X156220000Y-96170000D01*
X119126000Y-86741000D02*
X119634000Y-86233000D01*
X119634000Y-86233000D02*
X122047000Y-86233000D01*
X122047000Y-86233000D02*
X122174000Y-86360000D01*
X122174000Y-86360000D02*
X122301000Y-86360000D01*
X122301000Y-86360000D02*
X123190000Y-87249000D01*
X123190000Y-87249000D02*
X130937000Y-87249000D01*
X133096000Y-90170000D02*
X133096000Y-91694000D01*
X122301000Y-94234000D02*
X122301000Y-92710000D01*
X122301000Y-92710000D02*
X119126000Y-89535000D01*
X123730000Y-95500000D02*
X123730000Y-90050000D01*
X120970000Y-104520000D02*
X123730000Y-101760000D01*
X123730000Y-101760000D02*
X123730000Y-95500000D01*
X120970000Y-104520000D02*
X118490000Y-104520000D01*
X124700000Y-89080000D02*
X130190000Y-89080000D01*
X123730000Y-90050000D02*
X124700000Y-89080000D01*
X120810000Y-101980000D02*
X121300000Y-102470000D01*
X121300000Y-102470000D02*
X122080000Y-102470000D01*
X122080000Y-102470000D02*
X122900000Y-101650000D01*
X122900000Y-101650000D02*
X122890000Y-96050000D01*
X122890000Y-96050000D02*
X122810000Y-95970000D01*
X118490000Y-101980000D02*
X120810000Y-101980000D01*
X119720000Y-96950000D02*
X118490000Y-96900000D01*
X120050000Y-97540000D02*
X119720000Y-96950000D01*
X120110000Y-100030000D02*
X120050000Y-97540000D01*
X120130000Y-100050000D02*
X120110000Y-100030000D01*
X120760000Y-96630000D02*
X118490000Y-94360000D01*
X120760000Y-100720000D02*
X120760000Y-96630000D01*
X120830000Y-100790000D02*
X120760000Y-100720000D01*
X119890000Y-93220000D02*
X118490000Y-91820000D01*
X119890000Y-94040000D02*
X119890000Y-93220000D01*
X121470000Y-95620000D02*
X119890000Y-94040000D01*
X121470000Y-101440000D02*
X121470000Y-95620000D01*
X121450000Y-101460000D02*
X121470000Y-101440000D01*
X139319000Y-90043000D02*
X139573000Y-89789000D01*
X139573000Y-89789000D02*
X140208000Y-89789000D01*
X140208000Y-89789000D02*
X140335000Y-89662000D01*
X140335000Y-89662000D02*
X140462000Y-89662000D01*
X140462000Y-89662000D02*
X145669000Y-84455000D01*
X145669000Y-84455000D02*
X147701000Y-84455000D01*
X147701000Y-84455000D02*
X147955000Y-84201000D01*
X147955000Y-84201000D02*
X149987000Y-84201000D01*
X149987000Y-84201000D02*
X151257000Y-82931000D01*
X151257000Y-82931000D02*
X151511000Y-82931000D01*
X151511000Y-82931000D02*
X151510000Y-82930000D01*
X140081000Y-89281000D02*
X145161000Y-84201000D01*
X145161000Y-84201000D02*
X147447000Y-84201000D01*
X147447000Y-84201000D02*
X148717000Y-82931000D01*
X148717000Y-82931000D02*
X148971000Y-82931000D01*
X148971000Y-82931000D02*
X148970000Y-82930000D01*
X133850000Y-110500000D02*
X133477000Y-112141000D01*
X133477000Y-112141000D02*
X130175000Y-112141000D01*
X130175000Y-112141000D02*
X128905000Y-113411000D01*
X128905000Y-113411000D02*
X128651000Y-113411000D01*
X128651000Y-113411000D02*
X128650000Y-113410000D01*
X129020000Y-102290000D02*
X129020000Y-108240000D01*
X135830000Y-109490000D02*
X135830000Y-110910000D01*
X134890000Y-108550000D02*
X135830000Y-109490000D01*
X129330000Y-108550000D02*
X134890000Y-108550000D01*
X129020000Y-108240000D02*
X129330000Y-108550000D01*
X129020000Y-102290000D02*
X129240000Y-102510000D01*
X120650000Y-109474000D02*
X120269000Y-109093000D01*
X120269000Y-109093000D02*
X120269000Y-108966000D01*
X120269000Y-108966000D02*
X120142000Y-108839000D01*
X120142000Y-108839000D02*
X120142000Y-108204000D01*
X120142000Y-108204000D02*
X117275000Y-105600000D01*
X117275000Y-105600000D02*
X117250000Y-103550000D01*
X117250000Y-103550000D02*
X117983000Y-102997000D01*
X117983000Y-102997000D02*
X121666000Y-102997000D01*
X115375000Y-115550000D02*
X133900000Y-115550000D01*
X114475000Y-114650000D02*
X115375000Y-115550000D01*
X114589846Y-110623997D02*
X114475000Y-114650000D01*
X115900000Y-109525000D02*
X114589846Y-110623997D01*
X119400000Y-109525000D02*
X115900000Y-109525000D01*
X119825000Y-109075000D02*
X119400000Y-109525000D01*
X119800000Y-108425000D02*
X119825000Y-109075000D01*
X116975000Y-105825000D02*
X119800000Y-108425000D01*
X116950000Y-103100000D02*
X116975000Y-105825000D01*
X134675000Y-110000000D02*
X134675000Y-112025000D01*
X134325000Y-109650000D02*
X134675000Y-110000000D01*
X130575000Y-109650000D02*
X134325000Y-109650000D01*
X129625000Y-110600000D02*
X130575000Y-109650000D01*
X123700000Y-109700000D02*
X124150000Y-110150000D01*
X121725000Y-109700000D02*
X123700000Y-109700000D01*
X121650000Y-109625000D02*
X121725000Y-109700000D01*
X126620000Y-95350000D02*
X126620000Y-96440000D01*
X115950000Y-111590000D02*
X115950000Y-113410000D01*
X116810000Y-110730000D02*
X115950000Y-111590000D01*
X126630000Y-110730000D02*
X116810000Y-110730000D01*
X127160000Y-110200000D02*
X126630000Y-110730000D01*
X127160000Y-109730000D02*
X127160000Y-110200000D01*
X126390000Y-108960000D02*
X127160000Y-109730000D01*
X126390000Y-96670000D02*
X126390000Y-108960000D01*
X126620000Y-96440000D02*
X126390000Y-96670000D01*
X127550000Y-95300000D02*
X127550000Y-96510000D01*
X118490000Y-111830000D02*
X118490000Y-113410000D01*
X119170000Y-111150000D02*
X118490000Y-111830000D01*
X127170000Y-111150000D02*
X119170000Y-111150000D01*
X127800000Y-110520000D02*
X127170000Y-111150000D01*
X127800000Y-96760000D02*
X127800000Y-110520000D01*
X127550000Y-96510000D02*
X127800000Y-96760000D01*
X155300000Y-102350000D02*
X155250000Y-102350000D01*
X141625000Y-115900000D02*
X141575000Y-115950000D01*
X155625000Y-115900000D02*
X141625000Y-115900000D01*
X156250000Y-115275000D02*
X155625000Y-115900000D01*
X156250000Y-110300000D02*
X156250000Y-115275000D01*
X157175000Y-109375000D02*
X156250000Y-110300000D01*
X157175000Y-107550000D02*
X157175000Y-109375000D01*
X156175000Y-106550000D02*
X157175000Y-107550000D01*
X154375000Y-106550000D02*
X156175000Y-106550000D01*
X153075000Y-105250000D02*
X154375000Y-106550000D01*
X153075000Y-104525000D02*
X153075000Y-105250000D01*
X155250000Y-102350000D02*
X153075000Y-104525000D01*
X155925000Y-101725000D02*
X155300000Y-102350000D01*
X155300000Y-102350000D02*
X155275000Y-102375000D01*
X155925000Y-100225000D02*
X155925000Y-101725000D01*
X155175000Y-99475000D02*
X155925000Y-100225000D01*
X152825000Y-99475000D02*
X155175000Y-99475000D01*
X151650000Y-98300000D02*
X152825000Y-99475000D01*
X148425000Y-98300000D02*
X151650000Y-98300000D01*
X145150000Y-95025000D02*
X148425000Y-98300000D01*
X145100000Y-95025000D02*
X145150000Y-95025000D01*
X143875000Y-96250000D02*
X145100000Y-95025000D01*
X143875000Y-97350000D02*
X143875000Y-96250000D01*
X142650000Y-98575000D02*
X143875000Y-97350000D01*
X137025000Y-98575000D02*
X142650000Y-98575000D01*
X136400000Y-97950000D02*
X137025000Y-98575000D01*
X136400000Y-96600000D02*
X136400000Y-97950000D01*
X137000000Y-96000000D02*
X136400000Y-96600000D01*
X152472683Y-105584956D02*
X156640000Y-108640000D01*
X152250000Y-100150000D02*
X152472683Y-105584956D01*
X151320000Y-99140000D02*
X152250000Y-100150000D01*
X136480000Y-99140000D02*
X151320000Y-99140000D01*
X133210000Y-95870000D02*
X136480000Y-99140000D01*
X141300000Y-110750000D02*
X141310000Y-110750000D01*
X141310000Y-110750000D02*
X141300000Y-110750000D01*
X141300000Y-110750000D02*
X141310000Y-110750000D01*
X141310000Y-110400000D02*
X138960000Y-108050000D01*
X141310000Y-111910000D02*
X141310000Y-110750000D01*
X141310000Y-110750000D02*
X141310000Y-110400000D01*
X141370000Y-111970000D02*
X141310000Y-111910000D01*
X128397000Y-105791000D02*
X128397000Y-108585000D01*
X128397000Y-108585000D02*
X128905000Y-109093000D01*
X125095000Y-109728000D02*
X124714000Y-109347000D01*
X124714000Y-109347000D02*
X124460000Y-109347000D01*
X124460000Y-109347000D02*
X123825000Y-108712000D01*
X123825000Y-108712000D02*
X120650000Y-108712000D01*
X131170000Y-111600000D02*
X131170000Y-110290000D01*
X131210000Y-111640000D02*
X131170000Y-111600000D01*
X137922000Y-108204000D02*
X137922000Y-109601000D01*
X137922000Y-109601000D02*
X135382000Y-112141000D01*
X135382000Y-112141000D02*
X135255000Y-112141000D01*
X135255000Y-112141000D02*
X135255000Y-114046000D01*
X135255000Y-114046000D02*
X134747000Y-114554000D01*
X134747000Y-114554000D02*
X134747000Y-114681000D01*
X134747000Y-114681000D02*
X127635000Y-114681000D01*
X127635000Y-114681000D02*
X126365000Y-113411000D01*
X126365000Y-113411000D02*
X125857000Y-113411000D01*
X137410000Y-85000000D02*
X138490000Y-86080000D01*
X133080000Y-85000000D02*
X137410000Y-85000000D01*
X132390000Y-85690000D02*
X133080000Y-85000000D01*
X121920000Y-86741000D02*
X122936000Y-87757000D01*
X122936000Y-87757000D02*
X128905000Y-87757000D01*
X128905000Y-87757000D02*
X129032000Y-87884000D01*
X129032000Y-87884000D02*
X132969000Y-87884000D01*
X132969000Y-87884000D02*
X133096000Y-88011000D01*
X133096000Y-88011000D02*
X133223000Y-88011000D01*
X133223000Y-88011000D02*
X135128000Y-89916000D01*
X135128000Y-89916000D02*
X135890000Y-89916000D01*
X141180000Y-104090000D02*
X141180000Y-102330000D01*
X141230000Y-104140000D02*
X141180000Y-104090000D01*
X140410000Y-106720000D02*
X140410000Y-101670000D01*
X140450000Y-106760000D02*
X140410000Y-106720000D01*
X139000000Y-102390000D02*
X135100000Y-102390000D01*
X139630000Y-103020000D02*
X139000000Y-102390000D01*
X139630000Y-106780000D02*
X139630000Y-103020000D01*
X139620000Y-106790000D02*
X139630000Y-106780000D01*
X168970000Y-89369640D02*
X161790360Y-89369640D01*
X160430000Y-99940000D02*
X156780000Y-103590000D01*
X160430000Y-90730000D02*
X160430000Y-99940000D01*
X161790360Y-89369640D02*
X160430000Y-90730000D01*
X168970000Y-91569280D02*
X162150720Y-91569280D01*
X156330000Y-104750000D02*
X156210000Y-104750000D01*
X160930000Y-100150000D02*
X156330000Y-104750000D01*
X160930000Y-92790000D02*
X160930000Y-100150000D01*
X162150720Y-91569280D02*
X160930000Y-92790000D01*
X168970000Y-93768920D02*
X162101080Y-93768920D01*
X156750000Y-105360000D02*
X155680000Y-105360000D01*
X161530000Y-100580000D02*
X156750000Y-105360000D01*
X161530000Y-94340000D02*
X161530000Y-100580000D01*
X162101080Y-93768920D02*
X161530000Y-94340000D01*
X168970000Y-94868740D02*
X167848740Y-94868740D01*
X155250000Y-106140000D02*
X153920000Y-104810000D01*
X156740000Y-106140000D02*
X155250000Y-106140000D01*
X162410000Y-100470000D02*
X156740000Y-106140000D01*
X162410000Y-94850000D02*
X162410000Y-100470000D01*
X162850000Y-94410000D02*
X162410000Y-94850000D01*
X167390000Y-94410000D02*
X162850000Y-94410000D01*
X167848740Y-94868740D02*
X167390000Y-94410000D01*
X168970000Y-87170000D02*
X161710000Y-87170000D01*
X159350000Y-99060000D02*
X154260000Y-104150000D01*
X159350000Y-89530000D02*
X159350000Y-99060000D01*
X161710000Y-87170000D02*
X159350000Y-89530000D01*
X161800180Y-88269820D02*
X169368780Y-88269820D01*
X159900000Y-90170000D02*
X161800180Y-88269820D01*
X159900000Y-99670000D02*
X159900000Y-90170000D01*
X156670000Y-102900000D02*
X159900000Y-99670000D01*
X138230000Y-103000000D02*
X134560000Y-103000000D01*
X138670000Y-103440000D02*
X138230000Y-103000000D01*
X138670000Y-106810000D02*
X138670000Y-103440000D01*
X138660000Y-106820000D02*
X138670000Y-106810000D01*
X124770000Y-108890000D02*
X124770000Y-108530000D01*
X124750000Y-92150000D02*
X124750000Y-90950000D01*
X125250000Y-92650000D02*
X124750000Y-92150000D01*
X125250000Y-108050000D02*
X125250000Y-92650000D01*
X124770000Y-108530000D02*
X125250000Y-108050000D01*
X124750000Y-90950000D02*
X124770000Y-90970000D01*
X124610000Y-108730000D02*
X124770000Y-108890000D01*
X125660000Y-109390000D02*
X126040000Y-109770000D01*
X125660000Y-92140000D02*
X125660000Y-109390000D01*
X125490000Y-91970000D02*
X125660000Y-92140000D01*
X127170000Y-97720000D02*
X127170000Y-102410000D01*
X127020000Y-97570000D02*
X127170000Y-97720000D01*
X131940000Y-98630000D02*
X131940000Y-102390000D01*
X131920000Y-98610000D02*
X131940000Y-98630000D01*
X179269700Y-94020380D02*
X179269700Y-95320300D01*
X179020220Y-95569780D02*
X166120120Y-95569780D01*
X179269700Y-95320300D02*
X179020220Y-95569780D01*
X179269700Y-94020380D02*
X179269700Y-88219020D01*
X165020300Y-82321140D02*
X176091140Y-82321140D01*
X179269700Y-85499700D02*
X179269700Y-88219020D01*
X176091140Y-82321140D02*
X179269700Y-85499700D01*
X143050000Y-91920000D02*
X134170000Y-91920000D01*
X143090000Y-91880000D02*
X143050000Y-91920000D01*
X147574000Y-89789000D02*
X147574000Y-91313000D01*
X147574000Y-91313000D02*
X143510000Y-95377000D01*
M02*
