G04 #@! TF.FileFunction,Copper,L1,Top,Signal*
%FSLAX46Y46*%
G04 Gerber Fmt 4.6, Leading zero omitted, Abs format (unit mm)*
G04 Created by KiCad (PCBNEW 4.0.0-rc2-stable) date 4/29/2016 3:08:46 PM*
%MOMM*%
G01*
G04 APERTURE LIST*
%ADD10C,0.100000*%
%ADD11R,0.500000X0.900000*%
%ADD12R,3.700000X1.600000*%
%ADD13R,0.800000X0.750000*%
%ADD14R,0.750000X0.800000*%
%ADD15R,1.390000X4.600000*%
%ADD16R,10.800000X9.400000*%
%ADD17R,0.797560X0.797560*%
%ADD18R,1.727200X1.727200*%
%ADD19O,1.727200X1.727200*%
%ADD20R,1.727200X2.032000*%
%ADD21O,1.727200X2.032000*%
%ADD22R,2.032000X2.032000*%
%ADD23O,2.032000X2.032000*%
%ADD24R,0.800100X0.800100*%
%ADD25R,0.990600X0.304800*%
%ADD26R,0.200000X1.430000*%
%ADD27R,1.060000X0.650000*%
%ADD28R,0.406400X0.812800*%
%ADD29R,2.006600X1.498600*%
%ADD30R,0.558800X1.320800*%
%ADD31R,0.230000X0.600000*%
%ADD32R,0.600000X0.230000*%
%ADD33R,1.300000X0.250000*%
%ADD34R,0.250000X1.300000*%
%ADD35R,2.100580X5.600700*%
%ADD36R,5.590000X6.350000*%
%ADD37R,0.910000X2.410000*%
%ADD38R,8.000000X2.410000*%
%ADD39C,0.600000*%
%ADD40C,0.160000*%
%ADD41C,0.250000*%
%ADD42C,0.254000*%
G04 APERTURE END LIST*
D10*
D11*
X156540000Y-83560000D03*
X158040000Y-83560000D03*
X156590000Y-81870000D03*
X158090000Y-81870000D03*
D12*
X176820000Y-115290000D03*
X176820000Y-112090000D03*
D13*
X116250000Y-109425000D03*
X114750000Y-109425000D03*
X145775000Y-110575000D03*
X147275000Y-110575000D03*
X150700000Y-98080000D03*
X149200000Y-98080000D03*
X150730000Y-96550000D03*
X149230000Y-96550000D03*
D14*
X175370000Y-84800000D03*
X175370000Y-83300000D03*
D13*
X150670000Y-99730000D03*
X149170000Y-99730000D03*
X149230000Y-110870000D03*
X150730000Y-110870000D03*
X149370000Y-116040000D03*
X150870000Y-116040000D03*
X176780000Y-100230000D03*
X178280000Y-100230000D03*
X138725000Y-115875000D03*
X137225000Y-115875000D03*
X176780000Y-98740000D03*
X178280000Y-98740000D03*
D14*
X149250000Y-114110000D03*
X149250000Y-112610000D03*
X156320000Y-114060000D03*
X156320000Y-112560000D03*
D13*
X152980000Y-88330000D03*
X151480000Y-88330000D03*
X152970000Y-89890000D03*
X151470000Y-89890000D03*
D14*
X114750000Y-87090000D03*
X114750000Y-85590000D03*
D13*
X146125000Y-116100000D03*
X147625000Y-116100000D03*
X151480000Y-91430000D03*
X152980000Y-91430000D03*
X156800000Y-90450000D03*
X155300000Y-90450000D03*
X116200000Y-107675000D03*
X114700000Y-107675000D03*
D14*
X144370000Y-98600000D03*
X144370000Y-97100000D03*
X142870000Y-98600000D03*
X142870000Y-97100000D03*
X147370000Y-98620000D03*
X147370000Y-97120000D03*
X145870000Y-98610000D03*
X145870000Y-97110000D03*
D15*
X168580000Y-83530000D03*
D16*
X168580000Y-92680000D03*
D15*
X166040000Y-83530000D03*
X171120000Y-83530000D03*
D17*
X117959300Y-85420000D03*
X116460700Y-85420000D03*
X116460700Y-87130000D03*
X117959300Y-87130000D03*
X116480700Y-88850000D03*
X117979300Y-88850000D03*
D18*
X118490000Y-104520000D03*
D19*
X115950000Y-104520000D03*
X118490000Y-101980000D03*
X115950000Y-101980000D03*
X118490000Y-99440000D03*
X115950000Y-99440000D03*
X118490000Y-96900000D03*
X115950000Y-96900000D03*
X118490000Y-94360000D03*
X115950000Y-94360000D03*
X118490000Y-91820000D03*
X115950000Y-91820000D03*
D20*
X154050000Y-82930000D03*
D21*
X151510000Y-82930000D03*
X148970000Y-82930000D03*
X146430000Y-82930000D03*
X143890000Y-82930000D03*
X141350000Y-82930000D03*
X138810000Y-82930000D03*
X136270000Y-82930000D03*
X133730000Y-82930000D03*
X131190000Y-82930000D03*
X128650000Y-82930000D03*
X126110000Y-82930000D03*
X123570000Y-82930000D03*
X121030000Y-82930000D03*
X118490000Y-82930000D03*
X115950000Y-82930000D03*
D20*
X128650000Y-113410000D03*
D21*
X131190000Y-113410000D03*
X133730000Y-113410000D03*
X136270000Y-113410000D03*
X138810000Y-113410000D03*
D20*
X115950000Y-113410000D03*
D21*
X118490000Y-113410000D03*
X121030000Y-113410000D03*
X123570000Y-113410000D03*
D22*
X151510000Y-113410000D03*
D23*
X154050000Y-113410000D03*
D22*
X143890000Y-113410000D03*
D23*
X146430000Y-113410000D03*
D22*
X154050000Y-98170000D03*
D23*
X154050000Y-100710000D03*
D24*
X155430000Y-108649240D03*
X153530000Y-108649240D03*
X154480000Y-110648220D03*
D11*
X142750000Y-110575000D03*
X144250000Y-110575000D03*
X119550000Y-107575000D03*
X118050000Y-107575000D03*
X118050000Y-109450000D03*
X119550000Y-109450000D03*
X130170000Y-97230000D03*
X128670000Y-97230000D03*
X143150000Y-116100000D03*
X144650000Y-116100000D03*
X131680000Y-87390000D03*
X130180000Y-87390000D03*
X131660000Y-85690000D03*
X130160000Y-85690000D03*
X120900000Y-85375000D03*
X119400000Y-85375000D03*
X144250000Y-100175000D03*
X142750000Y-100175000D03*
X156775000Y-92150000D03*
X155275000Y-92150000D03*
D25*
X142202200Y-102875000D03*
X142202200Y-103525000D03*
X142202200Y-104175000D03*
X142202200Y-104825000D03*
X142202200Y-105475000D03*
X142202200Y-106125000D03*
X142202200Y-106775000D03*
X142202200Y-107425000D03*
X148037800Y-107425000D03*
X148037800Y-106775000D03*
X148037800Y-106125000D03*
X148037800Y-105475000D03*
X148037800Y-104825000D03*
X148037800Y-104175000D03*
X148037800Y-103525000D03*
X148037800Y-102875000D03*
X142202200Y-108075000D03*
X142202200Y-108725000D03*
X148037800Y-108075000D03*
X148037800Y-108725000D03*
D26*
X123120000Y-106965000D03*
X123520000Y-106965000D03*
X123920000Y-106965000D03*
X124320000Y-106965000D03*
X124720000Y-106965000D03*
X125120000Y-106965000D03*
X125520000Y-106965000D03*
X125920000Y-106965000D03*
X126320000Y-106965000D03*
X126720000Y-106965000D03*
X127120000Y-106965000D03*
X127520000Y-106965000D03*
X127920000Y-106965000D03*
X128320000Y-106965000D03*
X128720000Y-106965000D03*
X129120000Y-106965000D03*
X129520000Y-106965000D03*
X129920000Y-106965000D03*
X130320000Y-106965000D03*
X130720000Y-106965000D03*
X131120000Y-106965000D03*
X131520000Y-106965000D03*
X131920000Y-106965000D03*
X132320000Y-106965000D03*
X132720000Y-106965000D03*
X133120000Y-106965000D03*
X133520000Y-106965000D03*
X133920000Y-106965000D03*
X134320000Y-106965000D03*
X134720000Y-106965000D03*
X135120000Y-106965000D03*
X135520000Y-106965000D03*
X135920000Y-106965000D03*
X136320000Y-106965000D03*
X136720000Y-106965000D03*
X123120000Y-104615000D03*
X123520000Y-104615000D03*
X123920000Y-104615000D03*
X124320000Y-104615000D03*
X124720000Y-104615000D03*
X125120000Y-104615000D03*
X125520000Y-104615000D03*
X125920000Y-104615000D03*
X126320000Y-104615000D03*
X126720000Y-104615000D03*
X127120000Y-104615000D03*
X127520000Y-104615000D03*
X127920000Y-104615000D03*
X128320000Y-104615000D03*
X128720000Y-104615000D03*
X129120000Y-104615000D03*
X129520000Y-104615000D03*
X129920000Y-104615000D03*
X130320000Y-104615000D03*
X130720000Y-104615000D03*
X131120000Y-104615000D03*
X131520000Y-104615000D03*
X131920000Y-104615000D03*
X132320000Y-104615000D03*
X132720000Y-104615000D03*
X133120000Y-104615000D03*
X133520000Y-104615000D03*
X133920000Y-104615000D03*
X134320000Y-104615000D03*
X134720000Y-104615000D03*
X135120000Y-104615000D03*
X135520000Y-104615000D03*
X135920000Y-104615000D03*
X136320000Y-104615000D03*
X136720000Y-104615000D03*
D27*
X139520000Y-110940000D03*
X139520000Y-109990000D03*
X139520000Y-109040000D03*
X137320000Y-109040000D03*
X137320000Y-110940000D03*
X137320000Y-109990000D03*
D25*
X121922200Y-87625000D03*
X121922200Y-88275000D03*
X121922200Y-88925000D03*
X121922200Y-89575000D03*
X121922200Y-90225000D03*
X121922200Y-90875000D03*
X121922200Y-91525000D03*
X121922200Y-92175000D03*
X127757800Y-92175000D03*
X127757800Y-91525000D03*
X127757800Y-90875000D03*
X127757800Y-90225000D03*
X127757800Y-89575000D03*
X127757800Y-88925000D03*
X127757800Y-88275000D03*
X127757800Y-87625000D03*
X121922200Y-92825000D03*
X121922200Y-93475000D03*
X127757800Y-92825000D03*
X127757800Y-93475000D03*
D28*
X176640200Y-109267000D03*
X177580000Y-109267000D03*
X178519800Y-109267000D03*
X178519800Y-106473000D03*
X177580000Y-106473000D03*
X176640200Y-106473000D03*
D29*
X177605400Y-107895400D03*
D30*
X176640200Y-104630000D03*
X177580000Y-104630000D03*
X178519800Y-104630000D03*
X178519800Y-102090000D03*
X176640200Y-102090000D03*
D31*
X147220000Y-91480000D03*
X147620000Y-91480000D03*
X148020000Y-91480000D03*
X148420000Y-91480000D03*
X148820000Y-91480000D03*
X149220000Y-91480000D03*
D32*
X149720000Y-90980000D03*
X149720000Y-90580000D03*
X149720000Y-90180000D03*
X149720000Y-89780000D03*
X149720000Y-89380000D03*
X149720000Y-88980000D03*
D31*
X149220000Y-88480000D03*
X148820000Y-88480000D03*
X148420000Y-88480000D03*
X148020000Y-88480000D03*
X147620000Y-88480000D03*
X147220000Y-88480000D03*
D32*
X146720000Y-88980000D03*
X146720000Y-89380000D03*
X146720000Y-89780000D03*
X146720000Y-90180000D03*
X146720000Y-90580000D03*
X146720000Y-90980000D03*
D33*
X140620000Y-95840000D03*
X140620000Y-95340000D03*
X140620000Y-94840000D03*
X140620000Y-94340000D03*
X140620000Y-93840000D03*
X140620000Y-93340000D03*
X140620000Y-92840000D03*
X140620000Y-92340000D03*
X140620000Y-91840000D03*
X140620000Y-91340000D03*
X140620000Y-90840000D03*
X140620000Y-90340000D03*
D34*
X139020000Y-88740000D03*
X138520000Y-88740000D03*
X138020000Y-88740000D03*
X137520000Y-88740000D03*
X137020000Y-88740000D03*
X136520000Y-88740000D03*
X136020000Y-88740000D03*
X135520000Y-88740000D03*
X135020000Y-88740000D03*
X134520000Y-88740000D03*
X134020000Y-88740000D03*
X133520000Y-88740000D03*
D33*
X131920000Y-90340000D03*
X131920000Y-90840000D03*
X131920000Y-91340000D03*
X131920000Y-91840000D03*
X131920000Y-92340000D03*
X131920000Y-92840000D03*
X131920000Y-93340000D03*
X131920000Y-93840000D03*
X131920000Y-94340000D03*
X131920000Y-94840000D03*
X131920000Y-95340000D03*
X131920000Y-95840000D03*
D34*
X133520000Y-97440000D03*
X134020000Y-97440000D03*
X134520000Y-97440000D03*
X135020000Y-97440000D03*
X135520000Y-97440000D03*
X136020000Y-97440000D03*
X136520000Y-97440000D03*
X137020000Y-97440000D03*
X137520000Y-97440000D03*
X138020000Y-97440000D03*
X138520000Y-97440000D03*
X139020000Y-97440000D03*
D35*
X159950000Y-85801140D03*
X159950000Y-95498860D03*
X160060000Y-102281140D03*
X160060000Y-111978860D03*
D36*
X168780000Y-104020000D03*
D37*
X164970000Y-113245000D03*
X166240000Y-113245000D03*
X167510000Y-113245000D03*
X168780000Y-113245000D03*
X170050000Y-113245000D03*
X171320000Y-113245000D03*
X172590000Y-113245000D03*
D38*
X168780000Y-100020000D03*
D13*
X168825000Y-115500000D03*
X167325000Y-115500000D03*
D39*
X148325000Y-97000000D03*
X144850000Y-89350000D03*
X143200000Y-89275000D03*
X146225000Y-103125000D03*
X150200000Y-102450000D03*
X138450000Y-111325000D03*
X135875000Y-94625000D03*
X134200000Y-94625000D03*
X118675000Y-110275000D03*
X122375000Y-110275000D03*
X148150000Y-112475000D03*
X146850000Y-109525000D03*
X174879000Y-94996000D03*
X169799000Y-111506000D03*
X179578000Y-110363000D03*
X133350000Y-87376000D03*
X130937000Y-85852000D03*
X120142000Y-85217000D03*
X156845000Y-110744000D03*
X168148000Y-111506000D03*
X139192000Y-95504000D03*
X141975000Y-92850000D03*
X129413000Y-97155000D03*
X128397000Y-95377000D03*
X170180000Y-87376000D03*
X140589000Y-111125000D03*
X153797000Y-86741000D03*
X154940000Y-87884000D03*
X153035000Y-86995000D03*
X146558000Y-87884000D03*
X147430000Y-101070000D03*
X131620000Y-88950000D03*
X135380000Y-90590000D03*
X145750000Y-90550000D03*
X177575000Y-105850000D03*
X163100000Y-99025000D03*
X158050000Y-96100000D03*
X158000000Y-94625000D03*
X139375000Y-101175000D03*
X130850000Y-96350000D03*
X145950000Y-109450000D03*
X145375000Y-112200000D03*
X140970000Y-96774000D03*
X155448000Y-93472000D03*
X121920000Y-105156000D03*
X120777000Y-105156000D03*
X161163000Y-91313000D03*
X156845000Y-86360000D03*
X156845000Y-85217000D03*
X127127000Y-85471000D03*
X128778000Y-88265000D03*
X132842000Y-88392000D03*
X134760000Y-91200000D03*
X145010000Y-91230000D03*
X124650000Y-93600000D03*
X119075000Y-106425000D03*
X123950000Y-103225000D03*
X123190000Y-90551000D03*
X120904000Y-88265000D03*
X174310000Y-107330000D03*
X167600000Y-110260000D03*
X150241000Y-92583000D03*
X158369000Y-92837000D03*
X163576000Y-98171000D03*
X175514000Y-98171000D03*
X155250000Y-91275000D03*
X148875000Y-92350000D03*
X144200000Y-92350000D03*
X139175000Y-92500000D03*
X145034000Y-95885000D03*
X153035000Y-103505000D03*
X151892000Y-103505000D03*
X145669000Y-101600000D03*
X154640000Y-93770000D03*
X146470000Y-95380000D03*
X147320000Y-99822000D03*
X143510000Y-100076000D03*
X142750000Y-92850000D03*
X142820000Y-95900000D03*
X147480000Y-95700000D03*
X156220000Y-96170000D03*
X119126000Y-86741000D03*
X130937000Y-87249000D03*
X133096000Y-90170000D03*
X133096000Y-91694000D03*
X122301000Y-94234000D03*
X119126000Y-89535000D03*
X130190000Y-89080000D03*
X122810000Y-95970000D03*
X120130000Y-100050000D03*
X120830000Y-100790000D03*
X121450000Y-101460000D03*
X139319000Y-90043000D03*
X140081000Y-89281000D03*
X133850000Y-110500000D03*
X135830000Y-110910000D03*
X129020000Y-102290000D03*
X120650000Y-109474000D03*
X121666000Y-102997000D03*
X133900000Y-115550000D03*
X116950000Y-103100000D03*
X134675000Y-112025000D03*
X129625000Y-110600000D03*
X124150000Y-110150000D03*
X121650000Y-109625000D03*
X126620000Y-95350000D03*
X127550000Y-95300000D03*
X141575000Y-115950000D03*
X137000000Y-96000000D03*
X156640000Y-108640000D03*
X133210000Y-95870000D03*
X141300000Y-110750000D03*
X138960000Y-108050000D03*
X141370000Y-111970000D03*
X128397000Y-105791000D03*
X128905000Y-109093000D03*
X125095000Y-109728000D03*
X120650000Y-108712000D03*
X131170000Y-110290000D03*
X131210000Y-111640000D03*
X137922000Y-108204000D03*
X125857000Y-113411000D03*
X138490000Y-86080000D03*
X132390000Y-85690000D03*
X121920000Y-86741000D03*
X135890000Y-89916000D03*
X141230000Y-104140000D03*
X141180000Y-102330000D03*
X140410000Y-101670000D03*
X140450000Y-106760000D03*
X135100000Y-102390000D03*
X139620000Y-106790000D03*
X156780000Y-103590000D03*
X156210000Y-104750000D03*
X155680000Y-105360000D03*
X153920000Y-104810000D03*
X154260000Y-104150000D03*
X156670000Y-102900000D03*
X134560000Y-103000000D03*
X138660000Y-106820000D03*
X124750000Y-90950000D03*
X124770000Y-108890000D03*
X126040000Y-109770000D03*
X125490000Y-91970000D03*
X127170000Y-102410000D03*
X127020000Y-97570000D03*
X131940000Y-102390000D03*
X131920000Y-98610000D03*
X134170000Y-91920000D03*
X143090000Y-91880000D03*
X147574000Y-89789000D03*
X143510000Y-95377000D03*
D40*
X138684000Y-124714000D02*
X138725000Y-124675000D01*
X168825000Y-115500000D02*
X168825000Y-113290000D01*
X168825000Y-113290000D02*
X168780000Y-113245000D01*
X138725000Y-115875000D02*
X138725000Y-113495000D01*
X138725000Y-113495000D02*
X138810000Y-113410000D01*
X149230000Y-96550000D02*
X148775000Y-96550000D01*
X148775000Y-96550000D02*
X148325000Y-97000000D01*
X140620000Y-92340000D02*
X141585000Y-92340000D01*
X144880000Y-89380000D02*
X146720000Y-89380000D01*
X144850000Y-89350000D02*
X144880000Y-89380000D01*
X143200000Y-90725000D02*
X143200000Y-89275000D01*
X141585000Y-92340000D02*
X143200000Y-90725000D01*
X154050000Y-100710000D02*
X154050000Y-101775000D01*
X146675000Y-103575000D02*
X146950000Y-103575000D01*
X146225000Y-103125000D02*
X146675000Y-103575000D01*
X153375000Y-102450000D02*
X150200000Y-102450000D01*
X154050000Y-101775000D02*
X153375000Y-102450000D01*
X139520000Y-109990000D02*
X138935000Y-109990000D01*
X138450000Y-110475000D02*
X138450000Y-111325000D01*
X138935000Y-109990000D02*
X138450000Y-110475000D01*
X136150000Y-94275000D02*
X137963000Y-94275000D01*
X137963000Y-94275000D02*
X139192000Y-95504000D01*
X131920000Y-95340000D02*
X133485000Y-95340000D01*
X134020000Y-91120000D02*
X134020000Y-88740000D01*
X136150000Y-93250000D02*
X134020000Y-91120000D01*
X136150000Y-94350000D02*
X136150000Y-94275000D01*
X136150000Y-94275000D02*
X136150000Y-93250000D01*
X135875000Y-94625000D02*
X136150000Y-94350000D01*
X133485000Y-95340000D02*
X134200000Y-94625000D01*
X114750000Y-109425000D02*
X114750000Y-109950000D01*
X123570000Y-114830000D02*
X123570000Y-113410000D01*
X123250000Y-115150000D02*
X123570000Y-114830000D01*
X114425000Y-115150000D02*
X123250000Y-115150000D01*
X114150000Y-114875000D02*
X114425000Y-115150000D01*
X114150000Y-110550000D02*
X114150000Y-114875000D01*
X114750000Y-109950000D02*
X114150000Y-110550000D01*
X123120000Y-106965000D02*
X122825000Y-106965000D01*
X118675000Y-110275000D02*
X118050000Y-109650000D01*
X122350002Y-107400217D02*
X122375000Y-110275000D01*
X122825000Y-106965000D02*
X122350002Y-107400217D01*
X118050000Y-109650000D02*
X118050000Y-109450000D01*
X178280000Y-100230000D02*
X178530000Y-100230000D01*
X178530000Y-100230000D02*
X179750000Y-101450000D01*
X178975000Y-106900000D02*
X178943000Y-106900000D01*
X178975000Y-106300000D02*
X178975000Y-106900000D01*
X179750000Y-105525000D02*
X178975000Y-106300000D01*
X179750000Y-101450000D02*
X179750000Y-105525000D01*
X147275000Y-110575000D02*
X147275000Y-109950000D01*
X148285000Y-112610000D02*
X149250000Y-112610000D01*
X148150000Y-112475000D02*
X148285000Y-112610000D01*
X147275000Y-109950000D02*
X146850000Y-109525000D01*
X147828000Y-109650000D02*
X148500000Y-109650000D01*
X154480000Y-108155000D02*
X154480000Y-110648220D01*
X154075000Y-107750000D02*
X154480000Y-108155000D01*
X150400000Y-107750000D02*
X154075000Y-107750000D01*
X148500000Y-109650000D02*
X150400000Y-107750000D01*
X178280000Y-98740000D02*
X178308000Y-98679000D01*
X178308000Y-98679000D02*
X174879000Y-95250000D01*
X174879000Y-95250000D02*
X174879000Y-94996000D01*
X168780000Y-113245000D02*
X168783000Y-113284000D01*
X168783000Y-113284000D02*
X169418000Y-112649000D01*
X169418000Y-112649000D02*
X169418000Y-111887000D01*
X169418000Y-111887000D02*
X169799000Y-111506000D01*
X179578000Y-110363000D02*
X178181000Y-110363000D01*
X178181000Y-110363000D02*
X177546000Y-109728000D01*
X177546000Y-109728000D02*
X177546000Y-109220000D01*
X177546000Y-109220000D02*
X177580000Y-109267000D01*
X134020000Y-88740000D02*
X133985000Y-88773000D01*
X133985000Y-88773000D02*
X133858000Y-88646000D01*
X133858000Y-88646000D02*
X133858000Y-87884000D01*
X133858000Y-87884000D02*
X133350000Y-87376000D01*
X130937000Y-85852000D02*
X130302000Y-85852000D01*
X130302000Y-85852000D02*
X130175000Y-85725000D01*
X130175000Y-85725000D02*
X130160000Y-85690000D01*
X120142000Y-85217000D02*
X119888000Y-84963000D01*
X119888000Y-84963000D02*
X119888000Y-84709000D01*
X119888000Y-84709000D02*
X119634000Y-84709000D01*
X119634000Y-84709000D02*
X119380000Y-84963000D01*
X119380000Y-84963000D02*
X119380000Y-85344000D01*
X119380000Y-85344000D02*
X119400000Y-85375000D01*
X156320000Y-112560000D02*
X156337000Y-112522000D01*
X156337000Y-112522000D02*
X156845000Y-112014000D01*
X156845000Y-112014000D02*
X156845000Y-110744000D01*
X168148000Y-111506000D02*
X168783000Y-112141000D01*
X168783000Y-112141000D02*
X168783000Y-113284000D01*
X168783000Y-113284000D02*
X168780000Y-113245000D01*
X140620000Y-92340000D02*
X140589000Y-92329000D01*
X140589000Y-92329000D02*
X141605000Y-92329000D01*
X141605000Y-92329000D02*
X141975000Y-92850000D01*
X139192000Y-95504000D02*
X138557000Y-96139000D01*
X138557000Y-96139000D02*
X138557000Y-97409000D01*
X138557000Y-97409000D02*
X138520000Y-97440000D01*
X138810000Y-113410000D02*
X138684000Y-113538000D01*
X131920000Y-95340000D02*
X131953000Y-95377000D01*
X131953000Y-95377000D02*
X133477000Y-95377000D01*
X133477000Y-95377000D02*
X133731000Y-95631000D01*
X133731000Y-95631000D02*
X133731000Y-96139000D01*
X133731000Y-96139000D02*
X133477000Y-96393000D01*
X133477000Y-96393000D02*
X133223000Y-96393000D01*
X133223000Y-96393000D02*
X132207000Y-97409000D01*
X132207000Y-97409000D02*
X132080000Y-97409000D01*
X132080000Y-97409000D02*
X131953000Y-97536000D01*
X131953000Y-97536000D02*
X130937000Y-97536000D01*
X130937000Y-97536000D02*
X130556000Y-97917000D01*
X130556000Y-97917000D02*
X129667000Y-97917000D01*
X129667000Y-97917000D02*
X129413000Y-97663000D01*
X129413000Y-97663000D02*
X129413000Y-97155000D01*
X128397000Y-95377000D02*
X128397000Y-93599000D01*
X128397000Y-93599000D02*
X127889000Y-93599000D01*
X127889000Y-93599000D02*
X127762000Y-93472000D01*
X127762000Y-93472000D02*
X127757800Y-93475000D01*
X149170000Y-101320000D02*
X149225000Y-101346000D01*
X149225000Y-101346000D02*
X148463000Y-101346000D01*
X148463000Y-101346000D02*
X147701000Y-100584000D01*
X147701000Y-100584000D02*
X147066000Y-100584000D01*
X147066000Y-100584000D02*
X146939000Y-100711000D01*
X146939000Y-100711000D02*
X146939000Y-101346000D01*
X146939000Y-101346000D02*
X146950000Y-101900000D01*
X146950000Y-101900000D02*
X146950000Y-103575000D01*
X146950000Y-103575000D02*
X146950000Y-108350000D01*
X146950000Y-108350000D02*
X147574000Y-109093000D01*
X147574000Y-109093000D02*
X147574000Y-108966000D01*
X147574000Y-108966000D02*
X147828000Y-108966000D01*
X147828000Y-108966000D02*
X148082000Y-108712000D01*
X148082000Y-108712000D02*
X148037800Y-108725000D01*
X170180000Y-87376000D02*
X168529000Y-85725000D01*
X168529000Y-85725000D02*
X168529000Y-83566000D01*
X168529000Y-83566000D02*
X168580000Y-83530000D01*
X115950000Y-104520000D02*
X115824000Y-104648000D01*
X115824000Y-104648000D02*
X115316000Y-105156000D01*
X115316000Y-105156000D02*
X115316000Y-107315000D01*
X115316000Y-107315000D02*
X115062000Y-107315000D01*
X115062000Y-107315000D02*
X114681000Y-107696000D01*
X114681000Y-107696000D02*
X114700000Y-107675000D01*
X116460700Y-85420000D02*
X116459000Y-85471000D01*
X116459000Y-85471000D02*
X116586000Y-85598000D01*
X116586000Y-85598000D02*
X116586000Y-86233000D01*
X116586000Y-86233000D02*
X116713000Y-86233000D01*
X116713000Y-86233000D02*
X116967000Y-86487000D01*
X116967000Y-86487000D02*
X117094000Y-86487000D01*
X117094000Y-86487000D02*
X117094000Y-89408000D01*
X117094000Y-89408000D02*
X115951000Y-90551000D01*
X115951000Y-90551000D02*
X115951000Y-91821000D01*
X115951000Y-91821000D02*
X115950000Y-91820000D01*
X144250000Y-110575000D02*
X144272000Y-110617000D01*
X144272000Y-110617000D02*
X144018000Y-110363000D01*
X144018000Y-110363000D02*
X144018000Y-109982000D01*
X144018000Y-109982000D02*
X143789414Y-109505074D01*
X143789414Y-109505074D02*
X143736414Y-109513074D01*
X143736414Y-109513074D02*
X143789414Y-109505074D01*
X143789414Y-109505074D02*
X141375206Y-109524998D01*
X141375206Y-109524998D02*
X140589000Y-110744000D01*
X140589000Y-110744000D02*
X140589000Y-111125000D01*
X151470000Y-89890000D02*
X151511000Y-89916000D01*
X151511000Y-89916000D02*
X152146000Y-89916000D01*
X153797000Y-89154000D02*
X153797000Y-86741000D01*
X153670000Y-89154000D02*
X153797000Y-89154000D01*
X153543000Y-89281000D02*
X153670000Y-89154000D01*
X152400000Y-89281000D02*
X153543000Y-89281000D01*
X152400000Y-89662000D02*
X152400000Y-89281000D01*
X152146000Y-89916000D02*
X152400000Y-89662000D01*
X155321000Y-88265000D02*
X155321000Y-90424000D01*
X154940000Y-87884000D02*
X155321000Y-88265000D01*
X155321000Y-90424000D02*
X155300000Y-90450000D01*
X148037800Y-108725000D02*
X148082000Y-108712000D01*
X148082000Y-108712000D02*
X147828000Y-108966000D01*
X147828000Y-108966000D02*
X147828000Y-109650000D01*
X147828000Y-109650000D02*
X147828000Y-110236000D01*
X147828000Y-110236000D02*
X147701000Y-110236000D01*
X147701000Y-110236000D02*
X147320000Y-110617000D01*
X147320000Y-110617000D02*
X147275000Y-110575000D01*
X151480000Y-88330000D02*
X151511000Y-88392000D01*
X151511000Y-88392000D02*
X151892000Y-88392000D01*
X151892000Y-88392000D02*
X152400000Y-88900000D01*
X152400000Y-88900000D02*
X153543000Y-88900000D01*
X153543000Y-88900000D02*
X153543000Y-87757000D01*
X153543000Y-87757000D02*
X153035000Y-87249000D01*
X153035000Y-87249000D02*
X153035000Y-86995000D01*
X146558000Y-87884000D02*
X147193000Y-88519000D01*
X147193000Y-88519000D02*
X147220000Y-88480000D01*
X177580000Y-109267000D02*
X177546000Y-109220000D01*
X177546000Y-109220000D02*
X178181000Y-109855000D01*
X178181000Y-109855000D02*
X178943000Y-109855000D01*
X178943000Y-109855000D02*
X178943000Y-106900000D01*
X178943000Y-106900000D02*
X178943000Y-105918000D01*
X178943000Y-105918000D02*
X178562000Y-105918000D01*
X178562000Y-105918000D02*
X178181000Y-105537000D01*
X178181000Y-105537000D02*
X178054000Y-105537000D01*
X178054000Y-105537000D02*
X178054000Y-105283000D01*
X178054000Y-105283000D02*
X177546000Y-104775000D01*
X177546000Y-104775000D02*
X177546000Y-104648000D01*
X177546000Y-104648000D02*
X177580000Y-104630000D01*
X119400000Y-85375000D02*
X119380000Y-85344000D01*
X119380000Y-85344000D02*
X119253000Y-85344000D01*
X119253000Y-85344000D02*
X118618000Y-85979000D01*
X118618000Y-85979000D02*
X116840000Y-85979000D01*
X116840000Y-85979000D02*
X116459000Y-85598000D01*
X116459000Y-85598000D02*
X116459000Y-85471000D01*
X116459000Y-85471000D02*
X116460700Y-85420000D01*
X114750000Y-109425000D02*
X114808000Y-109474000D01*
X114808000Y-109474000D02*
X115189000Y-109474000D01*
X115189000Y-109474000D02*
X115697000Y-109982000D01*
X115697000Y-109982000D02*
X117602000Y-109982000D01*
X117602000Y-109982000D02*
X118110000Y-109474000D01*
X118110000Y-109474000D02*
X118050000Y-109450000D01*
X147275000Y-110575000D02*
X147320000Y-110617000D01*
X147320000Y-110617000D02*
X146939000Y-110617000D01*
X146939000Y-110617000D02*
X146431000Y-111125000D01*
X146431000Y-111125000D02*
X144780000Y-111125000D01*
X144780000Y-111125000D02*
X144272000Y-110617000D01*
X144272000Y-110617000D02*
X144250000Y-110575000D01*
X147625000Y-116100000D02*
X147574000Y-116078000D01*
X147574000Y-116078000D02*
X147320000Y-116078000D01*
X147320000Y-116078000D02*
X146685000Y-116713000D01*
X146685000Y-116713000D02*
X144907000Y-116713000D01*
X144907000Y-116713000D02*
X144653000Y-116459000D01*
X144653000Y-116459000D02*
X144653000Y-116078000D01*
X144653000Y-116078000D02*
X144650000Y-116100000D01*
X115950000Y-99440000D02*
X115951000Y-99441000D01*
X115951000Y-99441000D02*
X115951000Y-101981000D01*
X115951000Y-101981000D02*
X115950000Y-101980000D01*
X115950000Y-96900000D02*
X115951000Y-96901000D01*
X115951000Y-96901000D02*
X115951000Y-99441000D01*
X115951000Y-99441000D02*
X115950000Y-99440000D01*
X115950000Y-94360000D02*
X115951000Y-94361000D01*
X115951000Y-94361000D02*
X115951000Y-96901000D01*
X115951000Y-96901000D02*
X115950000Y-96900000D01*
X115950000Y-91820000D02*
X115951000Y-91821000D01*
X115951000Y-91821000D02*
X115951000Y-94361000D01*
X115951000Y-94361000D02*
X115950000Y-94360000D01*
X114700000Y-107675000D02*
X114681000Y-107696000D01*
X114681000Y-107696000D02*
X114808000Y-107823000D01*
X114808000Y-107823000D02*
X114808000Y-109474000D01*
X114808000Y-109474000D02*
X114750000Y-109425000D01*
X149370000Y-116040000D02*
X149352000Y-116078000D01*
X149352000Y-116078000D02*
X148971000Y-116459000D01*
X148971000Y-116459000D02*
X148971000Y-116586000D01*
X148971000Y-116586000D02*
X148336000Y-116586000D01*
X148336000Y-116586000D02*
X148209000Y-116459000D01*
X148209000Y-116459000D02*
X147955000Y-116459000D01*
X147955000Y-116459000D02*
X147574000Y-116078000D01*
X147574000Y-116078000D02*
X147625000Y-116100000D01*
X151470000Y-89890000D02*
X151511000Y-89916000D01*
X151511000Y-89916000D02*
X151892000Y-89535000D01*
X151892000Y-89535000D02*
X152019000Y-89535000D01*
X152019000Y-89535000D02*
X152019000Y-89281000D01*
X152019000Y-89281000D02*
X151765000Y-89027000D01*
X151765000Y-89027000D02*
X151765000Y-88773000D01*
X151765000Y-88773000D02*
X151511000Y-88519000D01*
X151511000Y-88519000D02*
X151511000Y-88392000D01*
X151511000Y-88392000D02*
X151480000Y-88330000D01*
D41*
X154480000Y-110648220D02*
X155718220Y-110648220D01*
X155718220Y-110648220D02*
X156320000Y-111250000D01*
X156320000Y-111250000D02*
X156320000Y-112560000D01*
D40*
X130160000Y-85690000D02*
X128870000Y-85690000D01*
X128870000Y-85690000D02*
X126110000Y-82930000D01*
X149370000Y-116040000D02*
X149050000Y-116040000D01*
X149050000Y-116040000D02*
X148220000Y-115210000D01*
X148220000Y-113640000D02*
X149250000Y-112610000D01*
X148220000Y-115210000D02*
X148220000Y-113640000D01*
X114750000Y-85590000D02*
X116290700Y-85590000D01*
X116290700Y-85590000D02*
X116460700Y-85420000D01*
D41*
X116460700Y-85420000D02*
X116460700Y-85340700D01*
X116460700Y-85340700D02*
X115950000Y-84830000D01*
X115950000Y-84830000D02*
X115950000Y-82930000D01*
X178280000Y-98740000D02*
X178280000Y-100230000D01*
X149230000Y-110870000D02*
X149230000Y-112590000D01*
X149230000Y-112590000D02*
X149250000Y-112610000D01*
X149230000Y-96550000D02*
X149230000Y-98050000D01*
X149230000Y-98050000D02*
X149200000Y-98080000D01*
X149170000Y-101320000D02*
X149170000Y-99730000D01*
X149170000Y-99730000D02*
X149200000Y-99700000D01*
X149200000Y-99700000D02*
X149200000Y-98080000D01*
D40*
X146720000Y-89380000D02*
X147030000Y-89380000D01*
X147030000Y-89380000D02*
X147270000Y-89140000D01*
X147270000Y-89140000D02*
X147270000Y-88530000D01*
X147270000Y-88530000D02*
X147220000Y-88480000D01*
X151480000Y-88330000D02*
X151480000Y-91430000D01*
X123120000Y-106965000D02*
X123120000Y-108000000D01*
X123300000Y-108180000D02*
X124140000Y-108180000D01*
X123120000Y-108000000D02*
X123300000Y-108180000D01*
X124720000Y-106965000D02*
X124720000Y-107990000D01*
X123920000Y-107960000D02*
X124140000Y-108180000D01*
X123920000Y-107960000D02*
X123920000Y-106965000D01*
X124530000Y-108180000D02*
X124140000Y-108180000D01*
X124720000Y-107990000D02*
X124530000Y-108180000D01*
X124720000Y-106965000D02*
X125120000Y-106965000D01*
X125120000Y-106965000D02*
X125520000Y-106965000D01*
X125920000Y-106965000D02*
X125520000Y-106965000D01*
X167325000Y-115500000D02*
X166760000Y-115500000D01*
X166760000Y-115500000D02*
X166240000Y-114980000D01*
X147430000Y-101070000D02*
X147950000Y-101590000D01*
X147950000Y-101590000D02*
X147950000Y-102060000D01*
X147950000Y-102060000D02*
X148200000Y-102310000D01*
X148200000Y-102310000D02*
X149680000Y-102310000D01*
X149680000Y-102310000D02*
X150670000Y-101320000D01*
X150670000Y-99730000D02*
X150622000Y-99695000D01*
X150622000Y-99695000D02*
X150241000Y-100076000D01*
X150241000Y-100076000D02*
X150114000Y-100076000D01*
X150114000Y-100076000D02*
X150114000Y-100965000D01*
X150114000Y-100965000D02*
X150241000Y-100965000D01*
X150241000Y-100965000D02*
X150622000Y-101346000D01*
X150622000Y-101346000D02*
X150670000Y-101320000D01*
X150700000Y-98080000D02*
X150749000Y-98044000D01*
X150749000Y-98044000D02*
X150114000Y-97409000D01*
X150114000Y-97409000D02*
X150114000Y-96901000D01*
X150114000Y-96901000D02*
X150368000Y-96901000D01*
X150368000Y-96901000D02*
X150749000Y-96520000D01*
X150749000Y-96520000D02*
X150730000Y-96550000D01*
X131680000Y-87390000D02*
X131680000Y-88890000D01*
X131680000Y-88890000D02*
X131620000Y-88950000D01*
D41*
X166240000Y-113245000D02*
X166240000Y-114980000D01*
X155390000Y-98170000D02*
X154050000Y-98170000D01*
X157530000Y-100310000D02*
X155390000Y-98170000D01*
X157530000Y-115420000D02*
X157530000Y-100310000D01*
X158020000Y-115910000D02*
X157530000Y-115420000D01*
X165310000Y-115910000D02*
X158020000Y-115910000D01*
X166240000Y-114980000D02*
X165310000Y-115910000D01*
X150700000Y-98080000D02*
X153960000Y-98080000D01*
X153960000Y-98080000D02*
X154050000Y-98170000D01*
X150730000Y-96550000D02*
X150730000Y-101260000D01*
X150730000Y-101260000D02*
X150670000Y-101320000D01*
D40*
X133730000Y-82930000D02*
X133730000Y-82730000D01*
X133730000Y-82730000D02*
X135000000Y-81460000D01*
X155950000Y-82970000D02*
X156540000Y-83560000D01*
X155950000Y-82460000D02*
X155950000Y-82970000D01*
X154950000Y-81460000D02*
X155950000Y-82460000D01*
X135000000Y-81460000D02*
X154950000Y-81460000D01*
X146720000Y-90580000D02*
X145780000Y-90580000D01*
X134990000Y-90200000D02*
X134990000Y-88770000D01*
X135380000Y-90590000D02*
X134990000Y-90200000D01*
X145780000Y-90580000D02*
X145750000Y-90550000D01*
X134990000Y-88770000D02*
X135020000Y-88740000D01*
X133730000Y-82930000D02*
X133730000Y-83880000D01*
X133730000Y-83880000D02*
X135020000Y-85170000D01*
X135020000Y-85170000D02*
X135020000Y-88740000D01*
X140620000Y-91840000D02*
X138810000Y-91840000D01*
X139192000Y-97155000D02*
X139827000Y-96520000D01*
X139192000Y-97282000D02*
X139192000Y-97155000D01*
X139192000Y-97282000D02*
X139065000Y-97409000D01*
X139725000Y-96418000D02*
X139827000Y-96520000D01*
X139725000Y-95250000D02*
X139725000Y-96418000D01*
X138225000Y-93750000D02*
X139725000Y-95250000D01*
X138225000Y-92425000D02*
X138225000Y-93750000D01*
X138810000Y-91840000D02*
X138225000Y-92425000D01*
X157600000Y-92202000D02*
X157600000Y-94225000D01*
X177580000Y-105855000D02*
X177580000Y-106473000D01*
X177575000Y-105850000D02*
X177580000Y-105855000D01*
X159150000Y-99025000D02*
X163100000Y-99025000D01*
X158325000Y-98200000D02*
X159150000Y-99025000D01*
X158325000Y-96375000D02*
X158325000Y-98200000D01*
X158050000Y-96100000D02*
X158325000Y-96375000D01*
X157600000Y-94225000D02*
X158000000Y-94625000D01*
X139375000Y-101175000D02*
X139020000Y-100820000D01*
X139020000Y-100820000D02*
X139020000Y-97440000D01*
X131920000Y-95840000D02*
X131360000Y-95840000D01*
X131360000Y-95840000D02*
X130850000Y-96350000D01*
X146430000Y-113410000D02*
X146430000Y-113255000D01*
X146430000Y-113255000D02*
X145375000Y-112200000D01*
X145775000Y-109625000D02*
X145775000Y-110575000D01*
X145950000Y-109450000D02*
X145775000Y-109625000D01*
X146125000Y-116100000D02*
X146125000Y-113715000D01*
X146125000Y-113715000D02*
X146430000Y-113410000D01*
X114750000Y-87090000D02*
X114315000Y-87090000D01*
X116585000Y-81025000D02*
X118490000Y-82930000D01*
X115025000Y-81025000D02*
X116585000Y-81025000D01*
X113825000Y-82225000D02*
X115025000Y-81025000D01*
X113825000Y-86600000D02*
X113825000Y-82225000D01*
X114315000Y-87090000D02*
X113825000Y-86600000D01*
X116480700Y-88850000D02*
X116480700Y-87150000D01*
X116480700Y-87150000D02*
X116460700Y-87130000D01*
X147370000Y-98620000D02*
X147320000Y-98679000D01*
X147320000Y-98679000D02*
X146939000Y-98298000D01*
X146939000Y-98298000D02*
X146685000Y-98298000D01*
X146685000Y-98298000D02*
X146431000Y-98044000D01*
X146431000Y-98044000D02*
X142240000Y-98044000D01*
X142240000Y-98044000D02*
X140970000Y-96774000D01*
X155448000Y-93472000D02*
X156718000Y-92202000D01*
X156718000Y-92202000D02*
X156775000Y-92150000D01*
X116200000Y-107675000D02*
X116205000Y-107696000D01*
X116205000Y-107696000D02*
X115824000Y-108077000D01*
X115824000Y-108077000D02*
X115824000Y-108204000D01*
X115824000Y-108204000D02*
X115570000Y-108204000D01*
X115570000Y-108204000D02*
X115570000Y-107061000D01*
X115570000Y-107061000D02*
X117128390Y-105274769D01*
X117128390Y-105274769D02*
X117225000Y-103475000D01*
X117225000Y-103475000D02*
X119888000Y-103505000D01*
X119888000Y-103505000D02*
X121285000Y-104902000D01*
X121285000Y-104902000D02*
X121285000Y-105283000D01*
X121285000Y-105283000D02*
X121158000Y-105410000D01*
X121158000Y-105410000D02*
X121096500Y-105471500D01*
X121096500Y-105471500D02*
X121031000Y-105537000D01*
X121031000Y-105537000D02*
X120904000Y-105664000D01*
X120904000Y-105664000D02*
X120523000Y-105664000D01*
X120523000Y-105664000D02*
X119253000Y-106934000D01*
X119253000Y-106934000D02*
X119126000Y-106934000D01*
X119126000Y-106934000D02*
X119126000Y-110109000D01*
X119126000Y-110109000D02*
X120015000Y-110998000D01*
X120015000Y-110998000D02*
X120015000Y-112395000D01*
X120015000Y-112395000D02*
X121030000Y-113410000D01*
X123120000Y-104615000D02*
X123063000Y-104648000D01*
X123063000Y-104648000D02*
X122428000Y-104648000D01*
X122428000Y-104648000D02*
X121920000Y-105156000D01*
X120777000Y-105156000D02*
X119888000Y-105156000D01*
X119888000Y-105156000D02*
X119507000Y-105537000D01*
X119507000Y-105537000D02*
X118999000Y-105537000D01*
X118999000Y-105537000D02*
X116840000Y-107696000D01*
X116840000Y-107696000D02*
X116840000Y-108204000D01*
X116840000Y-108204000D02*
X116586000Y-108204000D01*
X116586000Y-108204000D02*
X116205000Y-107823000D01*
X116205000Y-107823000D02*
X116205000Y-107696000D01*
X116205000Y-107696000D02*
X116200000Y-107675000D01*
X156775000Y-92150000D02*
X156718000Y-92202000D01*
X156718000Y-92202000D02*
X157600000Y-92202000D01*
X157600000Y-92202000D02*
X160274000Y-92202000D01*
X160274000Y-92202000D02*
X161163000Y-91313000D01*
X156775000Y-92150000D02*
X156718000Y-92202000D01*
X156718000Y-92202000D02*
X157353000Y-91567000D01*
X157353000Y-91567000D02*
X157353000Y-89916000D01*
X157353000Y-89916000D02*
X156845000Y-89408000D01*
X156845000Y-89408000D02*
X156845000Y-86360000D01*
X156845000Y-85217000D02*
X157988000Y-84074000D01*
X157988000Y-84074000D02*
X157988000Y-83566000D01*
X157988000Y-83566000D02*
X158040000Y-83560000D01*
X145870000Y-98610000D02*
X145923000Y-98552000D01*
X145923000Y-98552000D02*
X146177000Y-98806000D01*
X146177000Y-98806000D02*
X146177000Y-101727000D01*
X146177000Y-101727000D02*
X146050000Y-101854000D01*
X146050000Y-101854000D02*
X146050000Y-101981000D01*
X146050000Y-101981000D02*
X145161000Y-102870000D01*
X145161000Y-102870000D02*
X145161000Y-110236000D01*
X145161000Y-110236000D02*
X145415000Y-110236000D01*
X145415000Y-110236000D02*
X145796000Y-110617000D01*
X145796000Y-110617000D02*
X145775000Y-110575000D01*
X139020000Y-97440000D02*
X139065000Y-97409000D01*
X140462000Y-91948000D02*
X140589000Y-91821000D01*
X140589000Y-91821000D02*
X140620000Y-91840000D01*
X127127000Y-85471000D02*
X127127000Y-88138000D01*
X127127000Y-88138000D02*
X127635000Y-88138000D01*
X127635000Y-88138000D02*
X127762000Y-88265000D01*
X127762000Y-88265000D02*
X127757800Y-88275000D01*
X127757800Y-88275000D02*
X127762000Y-88265000D01*
X127762000Y-88265000D02*
X128778000Y-88265000D01*
X132842000Y-88392000D02*
X133096000Y-88392000D01*
X133096000Y-88392000D02*
X133477000Y-88773000D01*
X133477000Y-88773000D02*
X133520000Y-88740000D01*
X158090000Y-81870000D02*
X158090000Y-83510000D01*
X158090000Y-83510000D02*
X158040000Y-83560000D01*
X142870000Y-98600000D02*
X142360000Y-98600000D01*
X142360000Y-98600000D02*
X141200000Y-97440000D01*
X141200000Y-97440000D02*
X139020000Y-97440000D01*
X142870000Y-98600000D02*
X144370000Y-98600000D01*
X147370000Y-98620000D02*
X145880000Y-98620000D01*
X145880000Y-98620000D02*
X145860000Y-98600000D01*
X145860000Y-98600000D02*
X144370000Y-98600000D01*
X114750000Y-87090000D02*
X116420700Y-87090000D01*
X116420700Y-87090000D02*
X116460700Y-87130000D01*
D41*
X117959300Y-85420000D02*
X117980000Y-85420000D01*
X117980000Y-85420000D02*
X118490000Y-84910000D01*
X118490000Y-84910000D02*
X118490000Y-82930000D01*
X177580000Y-106473000D02*
X178519800Y-106473000D01*
D40*
X123920000Y-104615000D02*
X123520000Y-104615000D01*
X123520000Y-104615000D02*
X123120000Y-104615000D01*
X123120000Y-104615000D02*
X123120000Y-103010000D01*
X125520000Y-102800000D02*
X125520000Y-104615000D01*
X125130000Y-102410000D02*
X125520000Y-102800000D01*
X123720000Y-102410000D02*
X125130000Y-102410000D01*
X123120000Y-103010000D02*
X123720000Y-102410000D01*
X131190000Y-82930000D02*
X131190000Y-82440000D01*
X131190000Y-82440000D02*
X132740000Y-80890000D01*
X155610000Y-80890000D02*
X156590000Y-81870000D01*
X132740000Y-80890000D02*
X155610000Y-80890000D01*
X146720000Y-90980000D02*
X146190000Y-90980000D01*
X134520000Y-90960000D02*
X134520000Y-88740000D01*
X134760000Y-91200000D02*
X134520000Y-90960000D01*
X145940000Y-91230000D02*
X145010000Y-91230000D01*
X146190000Y-90980000D02*
X145940000Y-91230000D01*
X131190000Y-82930000D02*
X131190000Y-84460000D01*
X134520000Y-85440000D02*
X134520000Y-88740000D01*
X133810000Y-84730000D02*
X134520000Y-85440000D01*
X131460000Y-84730000D02*
X133810000Y-84730000D01*
X131190000Y-84460000D02*
X131460000Y-84730000D01*
X139520000Y-110940000D02*
X139573000Y-110998000D01*
X139573000Y-110998000D02*
X139827000Y-110998000D01*
X139827000Y-110998000D02*
X140081000Y-111252000D01*
X140081000Y-111252000D02*
X140208000Y-111252000D01*
X140208000Y-111252000D02*
X140208000Y-111506000D01*
X140208000Y-111506000D02*
X140335000Y-111506000D01*
X140335000Y-111506000D02*
X140462000Y-111633000D01*
X140462000Y-111633000D02*
X140843000Y-111633000D01*
X140843000Y-111633000D02*
X140970000Y-111506000D01*
X140970000Y-111506000D02*
X147447000Y-111506000D01*
X147447000Y-111506000D02*
X148590000Y-110363000D01*
X148590000Y-110363000D02*
X148590000Y-110236000D01*
X148590000Y-110236000D02*
X149860000Y-110236000D01*
X149860000Y-110236000D02*
X150114000Y-110490000D01*
X150114000Y-110490000D02*
X150368000Y-110490000D01*
X150368000Y-110490000D02*
X150749000Y-110871000D01*
X150749000Y-110871000D02*
X150730000Y-110870000D01*
X150870000Y-116040000D02*
X154840000Y-116040000D01*
X154840000Y-116040000D02*
X155210000Y-116410000D01*
D41*
X176640200Y-104630000D02*
X176640200Y-106473000D01*
X176640200Y-104630000D02*
X176640200Y-103749800D01*
X178519800Y-103549800D02*
X178519800Y-104630000D01*
X178250000Y-103280000D02*
X178519800Y-103549800D01*
X177110000Y-103280000D02*
X178250000Y-103280000D01*
X176640200Y-103749800D02*
X177110000Y-103280000D01*
X150730000Y-110870000D02*
X150730000Y-112630000D01*
X150730000Y-112630000D02*
X151510000Y-113410000D01*
X176640200Y-106473000D02*
X176377000Y-106473000D01*
X176377000Y-106473000D02*
X175580000Y-107270000D01*
X175580000Y-107270000D02*
X175580000Y-108206800D01*
X175580000Y-108206800D02*
X176640200Y-109267000D01*
X176640200Y-109267000D02*
X176640200Y-109950200D01*
X178900000Y-115290000D02*
X176820000Y-115290000D01*
X179560000Y-114630000D02*
X178900000Y-115290000D01*
X179560000Y-111330000D02*
X179560000Y-114630000D01*
X179070000Y-110840000D02*
X179560000Y-111330000D01*
X177530000Y-110840000D02*
X179070000Y-110840000D01*
X176640200Y-109950200D02*
X177530000Y-110840000D01*
X176820000Y-115290000D02*
X176820000Y-116090000D01*
X176820000Y-116090000D02*
X176550000Y-116360000D01*
X176550000Y-116360000D02*
X170460000Y-116360000D01*
X170460000Y-116360000D02*
X170460000Y-116410000D01*
X171320000Y-113245000D02*
X171320000Y-115890000D01*
X155210000Y-116410000D02*
X153980000Y-115180000D01*
X170800000Y-116410000D02*
X170460000Y-116410000D01*
X170460000Y-116410000D02*
X155210000Y-116410000D01*
X171320000Y-115890000D02*
X170800000Y-116410000D01*
X156320000Y-114060000D02*
X156320000Y-114930000D01*
X151510000Y-114650000D02*
X151510000Y-113410000D01*
X152040000Y-115180000D02*
X151510000Y-114650000D01*
X156070000Y-115180000D02*
X153980000Y-115180000D01*
X153980000Y-115180000D02*
X152040000Y-115180000D01*
X156320000Y-114930000D02*
X156070000Y-115180000D01*
X149250000Y-114110000D02*
X150810000Y-114110000D01*
X150810000Y-114110000D02*
X151510000Y-113410000D01*
X176820000Y-112090000D02*
X176820000Y-111290000D01*
X176820000Y-111290000D02*
X173770000Y-108240000D01*
X173770000Y-108240000D02*
X165880000Y-108240000D01*
X165880000Y-108240000D02*
X164970000Y-109150000D01*
X164970000Y-109150000D02*
X164970000Y-113245000D01*
D40*
X124525000Y-93475000D02*
X121922200Y-93475000D01*
X124650000Y-93600000D02*
X124525000Y-93475000D01*
X125120000Y-104615000D02*
X125120000Y-103520000D01*
X119075000Y-106425000D02*
X118050000Y-107450000D01*
X124825000Y-103225000D02*
X123950000Y-103225000D01*
X125120000Y-103520000D02*
X124825000Y-103225000D01*
X118050000Y-107450000D02*
X118050000Y-107575000D01*
X118050000Y-107575000D02*
X118110000Y-107569000D01*
X118110000Y-107569000D02*
X116205000Y-109474000D01*
X116205000Y-109474000D02*
X116250000Y-109425000D01*
X121922200Y-93475000D02*
X121920000Y-93472000D01*
X121920000Y-93472000D02*
X122428000Y-93472000D01*
X122428000Y-93472000D02*
X123190000Y-92710000D01*
X123190000Y-92710000D02*
X123190000Y-90551000D01*
X120904000Y-88265000D02*
X121920000Y-88265000D01*
X121920000Y-88265000D02*
X121922200Y-88275000D01*
D41*
X175370000Y-84800000D02*
X175370000Y-85040000D01*
X175370000Y-85040000D02*
X174310000Y-86100000D01*
X174310000Y-86100000D02*
X174310000Y-107330000D01*
X167600000Y-110260000D02*
X167510000Y-110350000D01*
X167510000Y-110350000D02*
X167510000Y-113245000D01*
X171120000Y-83530000D02*
X175140000Y-83530000D01*
X175140000Y-83530000D02*
X175370000Y-83300000D01*
D40*
X152980000Y-91430000D02*
X153035000Y-91440000D01*
X153035000Y-91440000D02*
X153289000Y-91694000D01*
X153289000Y-91694000D02*
X153289000Y-92075000D01*
X153289000Y-92075000D02*
X152781000Y-92583000D01*
X152781000Y-92583000D02*
X150241000Y-92583000D01*
X158369000Y-92837000D02*
X158750000Y-92456000D01*
X158750000Y-92456000D02*
X161163000Y-92456000D01*
X161163000Y-92456000D02*
X162941000Y-94234000D01*
X162941000Y-94234000D02*
X162941000Y-97536000D01*
X162941000Y-97536000D02*
X163576000Y-98171000D01*
X175514000Y-98171000D02*
X176403000Y-98171000D01*
X176403000Y-98171000D02*
X176784000Y-98552000D01*
X176784000Y-98552000D02*
X176784000Y-98679000D01*
X176784000Y-98679000D02*
X176780000Y-98740000D01*
X176780000Y-100230000D02*
X176784000Y-100203000D01*
X176784000Y-100203000D02*
X177165000Y-99822000D01*
X177165000Y-99822000D02*
X177165000Y-99695000D01*
X177165000Y-99695000D02*
X177419000Y-99695000D01*
X177419000Y-99695000D02*
X177419000Y-100838000D01*
X177419000Y-100838000D02*
X177038000Y-101219000D01*
X177038000Y-101219000D02*
X176911000Y-101219000D01*
X176911000Y-101219000D02*
X176911000Y-101346000D01*
X176911000Y-101346000D02*
X176657000Y-101600000D01*
X176657000Y-101600000D02*
X176657000Y-102108000D01*
X176657000Y-102108000D02*
X176640200Y-102090000D01*
D41*
X176640200Y-102090000D02*
X176640200Y-98879800D01*
X176640200Y-98879800D02*
X176780000Y-98740000D01*
D40*
X152530000Y-92270000D02*
X150820000Y-92270000D01*
X150820000Y-92270000D02*
X150490000Y-91940000D01*
X150490000Y-91940000D02*
X150490000Y-90900000D01*
X150490000Y-90900000D02*
X150170000Y-90580000D01*
X152980000Y-91820000D02*
X152530000Y-92270000D01*
X152970000Y-89890000D02*
X152970000Y-91420000D01*
X152970000Y-91420000D02*
X152980000Y-91430000D01*
X152980000Y-91430000D02*
X152980000Y-91820000D01*
X150170000Y-90580000D02*
X149720000Y-90580000D01*
X149720000Y-90580000D02*
X148400000Y-90580000D01*
X148400000Y-90580000D02*
X148030000Y-90210000D01*
X147220000Y-91480000D02*
X147220000Y-91020000D01*
X149220000Y-89020000D02*
X149220000Y-88480000D01*
X147220000Y-91020000D02*
X148030000Y-90210000D01*
X148030000Y-90210000D02*
X149220000Y-89020000D01*
X152980000Y-88330000D02*
X152980000Y-87820000D01*
X150430000Y-89780000D02*
X149720000Y-89780000D01*
X150710000Y-89500000D02*
X150430000Y-89780000D01*
X150710000Y-87790000D02*
X150710000Y-89500000D01*
X151150000Y-87350000D02*
X150710000Y-87790000D01*
X152510000Y-87350000D02*
X151150000Y-87350000D01*
X152980000Y-87820000D02*
X152510000Y-87350000D01*
X140620000Y-92840000D02*
X139515000Y-92840000D01*
X155275000Y-91300000D02*
X155275000Y-92150000D01*
X155250000Y-91275000D02*
X155275000Y-91300000D01*
X144200000Y-92350000D02*
X148875000Y-92350000D01*
X139515000Y-92840000D02*
X139175000Y-92500000D01*
X155275000Y-92150000D02*
X155321000Y-92202000D01*
X155321000Y-92202000D02*
X156210000Y-91313000D01*
X156210000Y-91313000D02*
X156210000Y-90805000D01*
X156210000Y-90805000D02*
X156464000Y-90805000D01*
X156464000Y-90805000D02*
X156845000Y-90424000D01*
X156845000Y-90424000D02*
X156800000Y-90450000D01*
X144370000Y-97100000D02*
X144399000Y-97155000D01*
X144399000Y-97155000D02*
X144780000Y-96774000D01*
X144780000Y-96774000D02*
X144780000Y-96520000D01*
X144780000Y-96520000D02*
X145034000Y-96266000D01*
X145034000Y-96266000D02*
X145034000Y-95885000D01*
X153035000Y-103505000D02*
X151892000Y-103505000D01*
X145669000Y-101600000D02*
X144272000Y-100203000D01*
X144272000Y-100203000D02*
X144250000Y-100175000D01*
X144370000Y-97100000D02*
X144750000Y-97100000D01*
X157540000Y-95550000D02*
X157540000Y-95498860D01*
X157488860Y-95498860D02*
X157540000Y-95550000D01*
X156368860Y-95498860D02*
X157488860Y-95498860D01*
X154640000Y-93770000D02*
X156368860Y-95498860D01*
X144750000Y-97100000D02*
X146470000Y-95380000D01*
X159950000Y-95498860D02*
X157540000Y-95498860D01*
X157540000Y-95498860D02*
X155128860Y-95498860D01*
X153470000Y-93840000D02*
X140620000Y-93840000D01*
X155128860Y-95498860D02*
X153470000Y-93840000D01*
X142870000Y-97100000D02*
X142875000Y-97155000D01*
X142875000Y-97155000D02*
X143256000Y-97155000D01*
X143256000Y-97155000D02*
X143764000Y-97663000D01*
X143764000Y-97663000D02*
X147447000Y-97663000D01*
X147447000Y-97663000D02*
X147828000Y-98044000D01*
X147828000Y-98044000D02*
X147955000Y-98044000D01*
X147955000Y-98044000D02*
X147955000Y-99187000D01*
X147955000Y-99187000D02*
X147320000Y-99822000D01*
X143510000Y-100076000D02*
X143256000Y-99822000D01*
X143256000Y-99822000D02*
X143256000Y-99568000D01*
X143256000Y-99568000D02*
X143002000Y-99568000D01*
X143002000Y-99568000D02*
X142748000Y-99822000D01*
X142748000Y-99822000D02*
X142748000Y-100203000D01*
X142748000Y-100203000D02*
X142750000Y-100175000D01*
X142870000Y-97100000D02*
X142870000Y-95950000D01*
X142740000Y-92860000D02*
X142740000Y-93340000D01*
X142750000Y-92850000D02*
X142740000Y-92860000D01*
X142870000Y-95950000D02*
X142820000Y-95900000D01*
X159950000Y-85801140D02*
X155598860Y-85801140D01*
X153280000Y-93340000D02*
X142740000Y-93340000D01*
X142740000Y-93340000D02*
X140620000Y-93340000D01*
X154380000Y-92240000D02*
X153280000Y-93340000D01*
X154380000Y-87020000D02*
X154380000Y-92240000D01*
X155598860Y-85801140D02*
X154380000Y-87020000D01*
X147370000Y-97120000D02*
X147370000Y-96730000D01*
X147370000Y-96730000D02*
X148190000Y-95910000D01*
X148190000Y-95910000D02*
X154220000Y-95910000D01*
X160060000Y-111978860D02*
X159308860Y-111978860D01*
X159308860Y-111978860D02*
X158050000Y-110720000D01*
X158050000Y-110720000D02*
X158050000Y-99740000D01*
X158050000Y-99740000D02*
X154220000Y-95910000D01*
X154220000Y-95910000D02*
X153150000Y-94840000D01*
X153150000Y-94840000D02*
X140620000Y-94840000D01*
X145870000Y-97110000D02*
X145870000Y-96920000D01*
X145870000Y-96920000D02*
X147090000Y-95700000D01*
X147090000Y-95700000D02*
X147480000Y-95700000D01*
X156220000Y-96170000D02*
X157625000Y-97575000D01*
X157625000Y-97575000D02*
X157625000Y-98485000D01*
X160060000Y-102281140D02*
X160060000Y-100920000D01*
X160060000Y-100920000D02*
X157625000Y-98485000D01*
X157625000Y-98485000D02*
X153480000Y-94340000D01*
X153480000Y-94340000D02*
X140620000Y-94340000D01*
X117959300Y-87130000D02*
X117983000Y-87122000D01*
X117983000Y-87122000D02*
X117856000Y-87122000D01*
X117856000Y-87122000D02*
X117475000Y-86741000D01*
X117475000Y-86741000D02*
X117348000Y-86741000D01*
X117348000Y-86741000D02*
X117348000Y-86487000D01*
X117348000Y-86487000D02*
X118872000Y-86487000D01*
X118872000Y-86487000D02*
X119126000Y-86741000D01*
X130937000Y-87249000D02*
X131064000Y-87376000D01*
X131064000Y-87376000D02*
X131064000Y-89027000D01*
X131064000Y-89027000D02*
X131191000Y-89154000D01*
X131191000Y-89154000D02*
X131191000Y-89281000D01*
X131191000Y-89281000D02*
X131318000Y-89408000D01*
X131318000Y-89408000D02*
X132334000Y-89408000D01*
X132334000Y-89408000D02*
X133096000Y-90170000D01*
X133096000Y-91694000D02*
X135001000Y-93599000D01*
X135001000Y-93599000D02*
X135001000Y-97409000D01*
X135001000Y-97409000D02*
X135020000Y-97440000D01*
X134520000Y-97440000D02*
X134493000Y-97409000D01*
X134493000Y-97409000D02*
X134366000Y-97536000D01*
X134366000Y-97536000D02*
X134366000Y-98298000D01*
X134366000Y-98298000D02*
X132461000Y-98298000D01*
X132461000Y-98298000D02*
X132334000Y-98171000D01*
X132334000Y-98171000D02*
X128397000Y-98171000D01*
X128397000Y-98171000D02*
X127254000Y-97028000D01*
X127254000Y-97028000D02*
X123063000Y-97028000D01*
X123063000Y-97028000D02*
X122301000Y-96266000D01*
X122301000Y-96266000D02*
X122301000Y-94234000D01*
X119126000Y-89535000D02*
X118491000Y-89535000D01*
X118491000Y-89535000D02*
X117983000Y-89027000D01*
X117983000Y-89027000D02*
X117983000Y-88900000D01*
X117983000Y-88900000D02*
X117979300Y-88850000D01*
X130190000Y-89080000D02*
X130660000Y-89550000D01*
X130660000Y-89550000D02*
X130660000Y-91960000D01*
X130660000Y-91960000D02*
X131040000Y-92340000D01*
X131920000Y-92340000D02*
X131040000Y-92340000D01*
X122810000Y-95970000D02*
X129650000Y-95970000D01*
X130660000Y-93840000D02*
X131920000Y-93840000D01*
X129920000Y-94580000D02*
X130660000Y-93840000D01*
X129920000Y-95700000D02*
X129920000Y-94580000D01*
X129650000Y-95970000D02*
X129920000Y-95700000D01*
X136020000Y-97440000D02*
X136020000Y-98570000D01*
X135150000Y-99440000D02*
X118490000Y-99440000D01*
X136020000Y-98570000D02*
X135150000Y-99440000D01*
X136520000Y-97440000D02*
X136520000Y-99060000D01*
X135480000Y-100100000D02*
X120130000Y-100050000D01*
X136520000Y-99060000D02*
X135480000Y-100100000D01*
X137520000Y-97440000D02*
X137520000Y-99110000D01*
X135840000Y-100790000D02*
X120830000Y-100790000D01*
X137520000Y-99110000D02*
X135840000Y-100790000D01*
X138020000Y-97440000D02*
X138020000Y-99580000D01*
X136140000Y-101460000D02*
X121450000Y-101460000D01*
X138020000Y-99580000D02*
X136140000Y-101460000D01*
X140620000Y-91340000D02*
X141730000Y-91340000D01*
X151370000Y-85610000D02*
X154050000Y-82930000D01*
X146900000Y-85610000D02*
X151370000Y-85610000D01*
X145030000Y-87480000D02*
X146900000Y-85610000D01*
X143110000Y-87480000D02*
X145030000Y-87480000D01*
X142430000Y-88160000D02*
X143110000Y-87480000D01*
X142430000Y-90640000D02*
X142430000Y-88160000D01*
X141730000Y-91340000D02*
X142430000Y-90640000D01*
X140620000Y-90840000D02*
X140589000Y-90805000D01*
X140589000Y-90805000D02*
X139954000Y-90805000D01*
X139954000Y-90805000D02*
X139319000Y-90170000D01*
X139319000Y-90170000D02*
X139319000Y-90043000D01*
X140620000Y-90840000D02*
X141560000Y-90840000D01*
X150080000Y-85080000D02*
X151180000Y-83980000D01*
X146450000Y-85080000D02*
X150080000Y-85080000D01*
X144650000Y-86880000D02*
X146450000Y-85080000D01*
X142590000Y-86880000D02*
X144650000Y-86880000D01*
X141870000Y-87600000D02*
X142590000Y-86880000D01*
X141870000Y-90530000D02*
X141870000Y-87600000D01*
X141560000Y-90840000D02*
X141870000Y-90530000D01*
X140620000Y-90340000D02*
X140589000Y-90297000D01*
X140589000Y-90297000D02*
X140462000Y-90297000D01*
X140462000Y-90297000D02*
X140081000Y-89916000D01*
X140081000Y-89916000D02*
X140081000Y-89281000D01*
X140620000Y-90340000D02*
X140620000Y-86800000D01*
X147940000Y-84630000D02*
X148550000Y-84020000D01*
X145720000Y-84630000D02*
X147940000Y-84630000D01*
X143990000Y-86360000D02*
X145720000Y-84630000D01*
X141060000Y-86360000D02*
X143990000Y-86360000D01*
X140620000Y-86800000D02*
X141060000Y-86360000D01*
X146430000Y-82930000D02*
X146430000Y-83140000D01*
X146430000Y-83140000D02*
X143690000Y-85880000D01*
X143690000Y-85880000D02*
X139610000Y-85880000D01*
X139610000Y-85880000D02*
X139020000Y-86470000D01*
X139020000Y-86470000D02*
X139020000Y-88740000D01*
X137520000Y-88740000D02*
X137520000Y-86010000D01*
X141460000Y-85360000D02*
X143890000Y-82930000D01*
X138170000Y-85360000D02*
X141460000Y-85360000D01*
X137520000Y-86010000D02*
X138170000Y-85360000D01*
X141350000Y-82930000D02*
X141350000Y-83300000D01*
X141350000Y-83300000D02*
X139900000Y-84750000D01*
X139900000Y-84750000D02*
X137480000Y-84750000D01*
X137480000Y-84750000D02*
X137020000Y-85210000D01*
X137020000Y-85210000D02*
X137020000Y-88740000D01*
X138810000Y-82930000D02*
X138810000Y-84060000D01*
X136520000Y-84910000D02*
X136520000Y-88740000D01*
X137110000Y-84320000D02*
X136520000Y-84910000D01*
X138550000Y-84320000D02*
X137110000Y-84320000D01*
X138810000Y-84060000D02*
X138550000Y-84320000D01*
X136270000Y-82930000D02*
X136270000Y-83720000D01*
X136270000Y-83720000D02*
X136020000Y-83970000D01*
X136020000Y-83970000D02*
X136020000Y-88740000D01*
X124065000Y-84785000D02*
X127265000Y-84785000D01*
X129410000Y-86930000D02*
X129410000Y-87850000D01*
X127265000Y-84785000D02*
X129410000Y-86930000D01*
X123570000Y-82930000D02*
X123570000Y-84290000D01*
X123570000Y-84290000D02*
X124065000Y-84785000D01*
X124065000Y-84785000D02*
X124080000Y-84800000D01*
X131920000Y-92840000D02*
X131030000Y-92840000D01*
X131030000Y-92840000D02*
X129410000Y-91220000D01*
X129410000Y-91220000D02*
X129410000Y-87850000D01*
X129185000Y-87625000D02*
X127757800Y-87625000D01*
X129410000Y-87850000D02*
X129185000Y-87625000D01*
X124660000Y-85570000D02*
X125020000Y-85570000D01*
X126225000Y-88925000D02*
X127757800Y-88925000D01*
X125710000Y-88410000D02*
X126225000Y-88925000D01*
X125710000Y-86260000D02*
X125710000Y-88410000D01*
X125020000Y-85570000D02*
X125710000Y-86260000D01*
X121030000Y-82930000D02*
X121030000Y-84020000D01*
X122580000Y-85570000D02*
X124660000Y-85570000D01*
X124660000Y-85570000D02*
X124670000Y-85570000D01*
X124670000Y-85570000D02*
X124750000Y-85570000D01*
X121030000Y-84020000D02*
X122580000Y-85570000D01*
X131920000Y-93340000D02*
X130880000Y-93340000D01*
X130880000Y-93340000D02*
X128950000Y-91410000D01*
X128950000Y-91410000D02*
X128950000Y-89140000D01*
X128950000Y-89140000D02*
X128735000Y-88925000D01*
X128735000Y-88925000D02*
X127757800Y-88925000D01*
X137225000Y-115875000D02*
X135525000Y-115875000D01*
X128650000Y-115625000D02*
X128650000Y-113410000D01*
X129425000Y-116400000D02*
X128650000Y-115625000D01*
X135000000Y-116400000D02*
X129425000Y-116400000D01*
X135525000Y-115875000D02*
X135000000Y-116400000D01*
X137320000Y-110940000D02*
X137287000Y-110998000D01*
X137287000Y-110998000D02*
X137160000Y-110998000D01*
X137160000Y-110998000D02*
X136779000Y-110617000D01*
X136779000Y-110617000D02*
X136398000Y-110617000D01*
X136398000Y-110617000D02*
X136271000Y-110490000D01*
X136271000Y-110490000D02*
X136144000Y-110490000D01*
X136144000Y-110490000D02*
X136017000Y-110363000D01*
X136017000Y-110363000D02*
X133977000Y-110373000D01*
X133977000Y-110373000D02*
X133850000Y-110500000D01*
X135860000Y-110940000D02*
X137320000Y-110940000D01*
X135830000Y-110910000D02*
X135860000Y-110940000D01*
X126720000Y-104615000D02*
X126720000Y-103360000D01*
X128630000Y-101900000D02*
X129020000Y-102290000D01*
X126650000Y-101900000D02*
X128630000Y-101900000D01*
X126380000Y-102170000D02*
X126650000Y-101900000D01*
X126380000Y-103020000D02*
X126380000Y-102170000D01*
X126720000Y-103360000D02*
X126380000Y-103020000D01*
X131190000Y-113410000D02*
X131191000Y-113411000D01*
X131191000Y-113411000D02*
X130937000Y-113411000D01*
X130937000Y-113411000D02*
X129667000Y-112141000D01*
X129667000Y-112141000D02*
X125095000Y-112141000D01*
X125095000Y-112141000D02*
X124841000Y-111887000D01*
X124841000Y-111887000D02*
X122809000Y-111887000D01*
X122809000Y-111887000D02*
X120650000Y-109728000D01*
X120650000Y-109728000D02*
X120650000Y-109474000D01*
X121666000Y-102997000D02*
X122379950Y-102880276D01*
X122379950Y-102880276D02*
X122975090Y-101800022D01*
X122975095Y-101800000D02*
X126101740Y-101788076D01*
X126101740Y-101788076D02*
X126111000Y-102870000D01*
X126111000Y-102870000D02*
X126111000Y-103124000D01*
X126111000Y-103124000D02*
X126238000Y-103251000D01*
X126238000Y-103251000D02*
X126238000Y-103378000D01*
X126238000Y-103378000D02*
X126365000Y-103505000D01*
X126365000Y-103505000D02*
X126365000Y-104648000D01*
X126365000Y-104648000D02*
X126320000Y-104615000D01*
X125920000Y-104615000D02*
X125920000Y-103495000D01*
X133730000Y-115380000D02*
X133730000Y-113410000D01*
X133900000Y-115550000D02*
X133730000Y-115380000D01*
X120200000Y-103150000D02*
X116950000Y-103100000D01*
X120725000Y-103675000D02*
X120200000Y-103150000D01*
X122025000Y-103675000D02*
X120725000Y-103675000D01*
X123600000Y-102100000D02*
X122025000Y-103675000D01*
X125400000Y-102100000D02*
X123600000Y-102100000D01*
X125825000Y-102525000D02*
X125400000Y-102100000D01*
X125825000Y-103400000D02*
X125825000Y-102525000D01*
X125920000Y-103495000D02*
X125825000Y-103400000D01*
X123520000Y-106965000D02*
X123520000Y-106195000D01*
X134675000Y-112025000D02*
X136060000Y-113410000D01*
X124600000Y-110600000D02*
X129625000Y-110600000D01*
X124150000Y-110150000D02*
X124600000Y-110600000D01*
X121550000Y-109525000D02*
X121650000Y-109625000D01*
X121550000Y-106125000D02*
X121550000Y-109525000D01*
X121800000Y-105875000D02*
X121550000Y-106125000D01*
X123200000Y-105875000D02*
X121800000Y-105875000D01*
X123520000Y-106195000D02*
X123200000Y-105875000D01*
X136060000Y-113410000D02*
X136270000Y-113410000D01*
X126505000Y-89575000D02*
X126120000Y-89960000D01*
X126120000Y-89960000D02*
X126120000Y-94850000D01*
X126120000Y-94850000D02*
X126620000Y-95350000D01*
X127757800Y-89575000D02*
X126505000Y-89575000D01*
X126480002Y-94230002D02*
X127550000Y-95300000D01*
X127757800Y-90225000D02*
X126955000Y-90225000D01*
X126480002Y-90699998D02*
X126480002Y-94180000D01*
X126955000Y-90225000D02*
X126480002Y-90699998D01*
X126480002Y-94180000D02*
X126480002Y-94230002D01*
D41*
X153530000Y-108649240D02*
X152450760Y-108649240D01*
X154050000Y-112330000D02*
X154050000Y-113410000D01*
X152400000Y-110680000D02*
X154050000Y-112330000D01*
X152400000Y-108700000D02*
X152400000Y-110680000D01*
X152450760Y-108649240D02*
X152400000Y-108700000D01*
D40*
X141725000Y-116100000D02*
X143150000Y-116100000D01*
X141575000Y-115950000D02*
X141725000Y-116100000D01*
X137020000Y-97440000D02*
X137020000Y-96020000D01*
X137020000Y-96020000D02*
X137000000Y-96000000D01*
X143890000Y-113410000D02*
X143890000Y-114360000D01*
X143890000Y-114360000D02*
X143150000Y-115100000D01*
X143150000Y-115100000D02*
X143150000Y-116100000D01*
X130170000Y-97230000D02*
X131850000Y-97230000D01*
X156630760Y-108649240D02*
X155430000Y-108649240D01*
X156640000Y-108640000D02*
X156630760Y-108649240D01*
X131850000Y-97230000D02*
X133210000Y-95870000D01*
X142750000Y-110575000D02*
X141475000Y-110575000D01*
X141475000Y-110575000D02*
X141300000Y-110750000D01*
X129520000Y-111330000D02*
X130170000Y-111330000D01*
X138670000Y-109040000D02*
X139520000Y-109040000D01*
X138510000Y-108880000D02*
X138670000Y-109040000D01*
X138510000Y-108500000D02*
X138510000Y-108880000D01*
X138960000Y-108050000D02*
X138510000Y-108500000D01*
X135440000Y-111970000D02*
X141370000Y-111970000D01*
X134420000Y-110950000D02*
X135440000Y-111970000D01*
X130550000Y-110950000D02*
X134420000Y-110950000D01*
X130170000Y-111330000D02*
X130550000Y-110950000D01*
X127120000Y-106965000D02*
X127120000Y-107960000D01*
X123440000Y-111330000D02*
X129520000Y-111330000D01*
X129520000Y-111330000D02*
X129620000Y-111330000D01*
X122840000Y-110730000D02*
X123440000Y-111330000D01*
X122840000Y-108840000D02*
X122840000Y-110730000D01*
X123250000Y-108430000D02*
X122840000Y-108840000D01*
X126650000Y-108430000D02*
X123250000Y-108430000D01*
X127120000Y-107960000D02*
X126650000Y-108430000D01*
X128397000Y-105791000D02*
X128216000Y-105791000D01*
X128905000Y-109093000D02*
X128270000Y-109093000D01*
X128270000Y-109093000D02*
X128143000Y-109220000D01*
X128143000Y-109220000D02*
X125603000Y-109220000D01*
X125603000Y-109220000D02*
X125095000Y-109728000D01*
X119507000Y-107569000D02*
X120650000Y-108712000D01*
X126473064Y-105589273D02*
X126473064Y-105577294D01*
X126483791Y-105600000D02*
X126473064Y-105589273D01*
X128025000Y-105600000D02*
X126483791Y-105600000D01*
X128216000Y-105791000D02*
X128025000Y-105600000D01*
X126720000Y-106965000D02*
X126746000Y-106934000D01*
X119507000Y-107569000D02*
X119550000Y-107575000D01*
X126720000Y-106965000D02*
X126720000Y-106100000D01*
X126720000Y-106100000D02*
X126473064Y-105577294D01*
X135570000Y-109110000D02*
X137250000Y-109110000D01*
X134770000Y-109910000D02*
X135570000Y-109110000D01*
X131550000Y-109910000D02*
X134770000Y-109910000D01*
X131170000Y-110290000D02*
X131550000Y-109910000D01*
X123040000Y-111640000D02*
X131210000Y-111640000D01*
X121150000Y-109750000D02*
X123040000Y-111640000D01*
X121100000Y-106025000D02*
X121150000Y-109750000D01*
X121550000Y-105600000D02*
X121100000Y-106025000D01*
X126473064Y-105577294D02*
X121550000Y-105600000D01*
X137250000Y-109110000D02*
X137320000Y-109040000D01*
X137320000Y-109990000D02*
X137287000Y-109982000D01*
X137287000Y-109982000D02*
X137541000Y-109982000D01*
X137541000Y-109982000D02*
X137922000Y-109601000D01*
X137922000Y-109601000D02*
X138049000Y-109601000D01*
X138049000Y-109601000D02*
X138049000Y-108458000D01*
X138049000Y-108458000D02*
X137922000Y-108331000D01*
X137922000Y-108331000D02*
X137922000Y-108204000D01*
X125857000Y-113411000D02*
X124587000Y-112141000D01*
X124587000Y-112141000D02*
X122174000Y-112141000D01*
X122174000Y-112141000D02*
X119507000Y-109474000D01*
X119507000Y-109474000D02*
X119550000Y-109450000D01*
X128670000Y-97230000D02*
X128670000Y-96590000D01*
X130830000Y-94340000D02*
X131920000Y-94340000D01*
X130380000Y-94790000D02*
X130830000Y-94340000D01*
X130380000Y-95940000D02*
X130380000Y-94790000D01*
X129940000Y-96380000D02*
X130380000Y-95940000D01*
X128880000Y-96380000D02*
X129940000Y-96380000D01*
X128670000Y-96590000D02*
X128880000Y-96380000D01*
X131660000Y-85690000D02*
X132390000Y-85690000D01*
X138520000Y-86110000D02*
X138520000Y-88740000D01*
X138490000Y-86080000D02*
X138520000Y-86110000D01*
X130180000Y-87390000D02*
X130180000Y-86840000D01*
X131660000Y-86430000D02*
X131660000Y-85690000D01*
X131490000Y-86600000D02*
X131660000Y-86430000D01*
X130420000Y-86600000D02*
X131490000Y-86600000D01*
X130180000Y-86840000D02*
X130420000Y-86600000D01*
X120900000Y-85375000D02*
X120904000Y-85344000D01*
X120904000Y-85344000D02*
X121158000Y-85598000D01*
X121158000Y-85598000D02*
X121158000Y-85979000D01*
X121158000Y-85979000D02*
X121920000Y-86741000D01*
X135890000Y-89916000D02*
X135509000Y-89535000D01*
X135509000Y-89535000D02*
X135509000Y-88773000D01*
X135509000Y-88773000D02*
X135520000Y-88740000D01*
X142202200Y-102875000D02*
X136735000Y-102875000D01*
X136320000Y-103290000D02*
X136320000Y-104615000D01*
X136735000Y-102875000D02*
X136320000Y-103290000D01*
X142202200Y-103525000D02*
X143525000Y-103525000D01*
X143685000Y-108725000D02*
X142202200Y-108725000D01*
X144060000Y-108350000D02*
X143685000Y-108725000D01*
X144060000Y-104060000D02*
X144060000Y-108350000D01*
X143525000Y-103525000D02*
X144060000Y-104060000D01*
X141265000Y-104175000D02*
X141230000Y-104140000D01*
X142202200Y-104175000D02*
X141265000Y-104175000D01*
X135520000Y-103250000D02*
X135520000Y-104615000D01*
X136270000Y-102500000D02*
X135520000Y-103250000D01*
X141010000Y-102500000D02*
X136270000Y-102500000D01*
X141180000Y-102330000D02*
X141010000Y-102500000D01*
X142202200Y-104825000D02*
X136930000Y-104825000D01*
X136930000Y-104825000D02*
X136720000Y-104615000D01*
X142202200Y-105475000D02*
X137525000Y-105475000D01*
X135920000Y-105630000D02*
X135920000Y-104615000D01*
X136010000Y-105720000D02*
X135920000Y-105630000D01*
X137280000Y-105720000D02*
X136010000Y-105720000D01*
X137525000Y-105475000D02*
X137280000Y-105720000D01*
X142202200Y-106125000D02*
X138625000Y-106125000D01*
X134320000Y-105790000D02*
X134320000Y-104615000D01*
X134520000Y-105990000D02*
X134320000Y-105790000D01*
X138490000Y-105990000D02*
X134520000Y-105990000D01*
X138625000Y-106125000D02*
X138490000Y-105990000D01*
X142202200Y-106775000D02*
X140465000Y-106775000D01*
X131520000Y-103640000D02*
X131520000Y-104615000D01*
X131330000Y-103450000D02*
X131520000Y-103640000D01*
X131330000Y-102250000D02*
X131330000Y-103450000D01*
X131700000Y-101880000D02*
X131330000Y-102250000D01*
X140200000Y-101880000D02*
X131700000Y-101880000D01*
X140410000Y-101670000D02*
X140200000Y-101880000D01*
X140465000Y-106775000D02*
X140450000Y-106760000D01*
X142202200Y-107425000D02*
X140255000Y-107425000D01*
X135120000Y-102410000D02*
X135120000Y-104615000D01*
X135100000Y-102390000D02*
X135120000Y-102410000D01*
X140255000Y-107425000D02*
X139620000Y-106790000D01*
X156220000Y-107320000D02*
X148142800Y-107320000D01*
X156800000Y-106740000D02*
X156220000Y-107320000D01*
X156800000Y-103610000D02*
X156800000Y-106740000D01*
X156780000Y-103590000D02*
X156800000Y-103610000D01*
X148142800Y-107320000D02*
X148037800Y-107425000D01*
X148037800Y-106125000D02*
X149045000Y-106125000D01*
X149045000Y-106125000D02*
X149695000Y-106775000D01*
X155475000Y-106775000D02*
X149695000Y-106775000D01*
X149695000Y-106775000D02*
X148037800Y-106775000D01*
X156270000Y-105980000D02*
X155475000Y-106775000D01*
X156270000Y-104810000D02*
X156270000Y-105980000D01*
X156210000Y-104750000D02*
X156270000Y-104810000D01*
X155565000Y-105475000D02*
X148037800Y-105475000D01*
X155680000Y-105360000D02*
X155565000Y-105475000D01*
X153905000Y-104825000D02*
X148037800Y-104825000D01*
X153920000Y-104810000D02*
X153905000Y-104825000D01*
X154235000Y-104175000D02*
X148037800Y-104175000D01*
X154260000Y-104150000D02*
X154235000Y-104175000D01*
X148037800Y-102875000D02*
X156645000Y-102875000D01*
X156645000Y-102875000D02*
X156670000Y-102900000D01*
X142202200Y-108075000D02*
X139915000Y-108075000D01*
X134720000Y-103160000D02*
X134720000Y-104615000D01*
X134560000Y-103000000D02*
X134720000Y-103160000D01*
X139915000Y-108075000D02*
X138660000Y-106820000D01*
X127870000Y-108910000D02*
X127990000Y-108910000D01*
X123885000Y-89575000D02*
X124590000Y-90280000D01*
X121922200Y-89575000D02*
X123885000Y-89575000D01*
X124590000Y-90280000D02*
X124750000Y-90950000D01*
X124770000Y-108890000D02*
X124790000Y-108910000D01*
X124790000Y-108910000D02*
X127870000Y-108910000D01*
X128320000Y-108580000D02*
X128320000Y-106965000D01*
X127990000Y-108910000D02*
X128320000Y-108580000D01*
X121922200Y-87625000D02*
X124375000Y-87625000D01*
X135120000Y-109080000D02*
X135120000Y-106965000D01*
X134560000Y-109640000D02*
X135120000Y-109080000D01*
X126170000Y-109640000D02*
X134560000Y-109640000D01*
X126040000Y-109770000D02*
X126170000Y-109640000D01*
X125490000Y-88740000D02*
X125490000Y-91970000D01*
X124375000Y-87625000D02*
X125490000Y-88740000D01*
X120970000Y-96010000D02*
X120970000Y-97260000D01*
X121405000Y-90225000D02*
X120970000Y-90660000D01*
X120970000Y-90660000D02*
X120970000Y-96010000D01*
X121922200Y-90225000D02*
X121405000Y-90225000D01*
X127120000Y-102460000D02*
X127120000Y-104615000D01*
X127170000Y-102410000D02*
X127120000Y-102460000D01*
X121280000Y-97570000D02*
X127020000Y-97570000D01*
X120970000Y-97260000D02*
X121280000Y-97570000D01*
X121922200Y-88925000D02*
X121015000Y-88925000D01*
X131920000Y-102410000D02*
X131920000Y-104615000D01*
X131940000Y-102390000D02*
X131920000Y-102410000D01*
X131750000Y-98440000D02*
X131920000Y-98610000D01*
X121440225Y-98472167D02*
X131750000Y-98440000D01*
X120380000Y-97630000D02*
X121440225Y-98472167D01*
X120380000Y-89560000D02*
X120380000Y-97630000D01*
X121015000Y-88925000D02*
X120380000Y-89560000D01*
X149720000Y-88980000D02*
X149720000Y-88030000D01*
X133090000Y-90840000D02*
X131920000Y-90840000D01*
X134170000Y-91920000D02*
X133090000Y-90840000D01*
X144150000Y-90950000D02*
X143090000Y-91880000D01*
X144124604Y-87978121D02*
X144150000Y-90950000D01*
X145251253Y-87949761D02*
X144124604Y-87978121D01*
X146000000Y-87200000D02*
X145251253Y-87949761D01*
X148890000Y-87200000D02*
X146000000Y-87200000D01*
X149720000Y-88030000D02*
X148890000Y-87200000D01*
X146720000Y-90180000D02*
X146685000Y-90170000D01*
X146685000Y-90170000D02*
X147193000Y-90170000D01*
X147193000Y-90170000D02*
X147574000Y-89789000D01*
X143510000Y-95377000D02*
X141732000Y-95377000D01*
X141732000Y-95377000D02*
X141478000Y-95631000D01*
X141478000Y-95631000D02*
X140843000Y-95631000D01*
X140843000Y-95631000D02*
X140589000Y-95885000D01*
X140589000Y-95885000D02*
X140620000Y-95840000D01*
D42*
G36*
X142226560Y-112394000D02*
X142226560Y-114426000D01*
X142270838Y-114661317D01*
X142409910Y-114877441D01*
X142470971Y-114919162D01*
X142435000Y-115100000D01*
X142435000Y-115205754D01*
X142320489Y-115373346D01*
X142105327Y-115157808D01*
X141761799Y-115015162D01*
X141389833Y-115014838D01*
X141046057Y-115156883D01*
X140782808Y-115419673D01*
X140640162Y-115763201D01*
X140639838Y-116135167D01*
X140781883Y-116478943D01*
X140782938Y-116480000D01*
X139717050Y-116480000D01*
X139760000Y-116376310D01*
X139760000Y-116160750D01*
X139601250Y-116002000D01*
X138852000Y-116002000D01*
X138852000Y-116022000D01*
X138598000Y-116022000D01*
X138598000Y-116002000D01*
X138578000Y-116002000D01*
X138578000Y-115748000D01*
X138598000Y-115748000D01*
X138598000Y-115023750D01*
X138852000Y-115023750D01*
X138852000Y-115748000D01*
X139601250Y-115748000D01*
X139760000Y-115589250D01*
X139760000Y-115373690D01*
X139663327Y-115140301D01*
X139484698Y-114961673D01*
X139382645Y-114919401D01*
X139712036Y-114760732D01*
X140101954Y-114324320D01*
X140295184Y-113771913D01*
X140150924Y-113537000D01*
X138937000Y-113537000D01*
X138937000Y-114896217D01*
X138964944Y-114910806D01*
X138852000Y-115023750D01*
X138598000Y-115023750D01*
X138543369Y-114969119D01*
X138683000Y-114896217D01*
X138683000Y-113537000D01*
X138663000Y-113537000D01*
X138663000Y-113283000D01*
X138683000Y-113283000D01*
X138683000Y-113263000D01*
X138937000Y-113263000D01*
X138937000Y-113283000D01*
X140150924Y-113283000D01*
X140295184Y-113048087D01*
X140168177Y-112685000D01*
X140762616Y-112685000D01*
X140839673Y-112762192D01*
X141183201Y-112904838D01*
X141555167Y-112905162D01*
X141898943Y-112763117D01*
X142162192Y-112500327D01*
X142245805Y-112298966D01*
X142226560Y-112394000D01*
X142226560Y-112394000D01*
G37*
X142226560Y-112394000D02*
X142226560Y-114426000D01*
X142270838Y-114661317D01*
X142409910Y-114877441D01*
X142470971Y-114919162D01*
X142435000Y-115100000D01*
X142435000Y-115205754D01*
X142320489Y-115373346D01*
X142105327Y-115157808D01*
X141761799Y-115015162D01*
X141389833Y-115014838D01*
X141046057Y-115156883D01*
X140782808Y-115419673D01*
X140640162Y-115763201D01*
X140639838Y-116135167D01*
X140781883Y-116478943D01*
X140782938Y-116480000D01*
X139717050Y-116480000D01*
X139760000Y-116376310D01*
X139760000Y-116160750D01*
X139601250Y-116002000D01*
X138852000Y-116002000D01*
X138852000Y-116022000D01*
X138598000Y-116022000D01*
X138598000Y-116002000D01*
X138578000Y-116002000D01*
X138578000Y-115748000D01*
X138598000Y-115748000D01*
X138598000Y-115023750D01*
X138852000Y-115023750D01*
X138852000Y-115748000D01*
X139601250Y-115748000D01*
X139760000Y-115589250D01*
X139760000Y-115373690D01*
X139663327Y-115140301D01*
X139484698Y-114961673D01*
X139382645Y-114919401D01*
X139712036Y-114760732D01*
X140101954Y-114324320D01*
X140295184Y-113771913D01*
X140150924Y-113537000D01*
X138937000Y-113537000D01*
X138937000Y-114896217D01*
X138964944Y-114910806D01*
X138852000Y-115023750D01*
X138598000Y-115023750D01*
X138543369Y-114969119D01*
X138683000Y-114896217D01*
X138683000Y-113537000D01*
X138663000Y-113537000D01*
X138663000Y-113283000D01*
X138683000Y-113283000D01*
X138683000Y-113263000D01*
X138937000Y-113263000D01*
X138937000Y-113283000D01*
X140150924Y-113283000D01*
X140295184Y-113048087D01*
X140168177Y-112685000D01*
X140762616Y-112685000D01*
X140839673Y-112762192D01*
X141183201Y-112904838D01*
X141555167Y-112905162D01*
X141898943Y-112763117D01*
X142162192Y-112500327D01*
X142245805Y-112298966D01*
X142226560Y-112394000D01*
G36*
X113733058Y-87519221D02*
X113771838Y-87725317D01*
X113910910Y-87941441D01*
X114123110Y-88086431D01*
X114375000Y-88137440D01*
X115125000Y-88137440D01*
X115360317Y-88093162D01*
X115576441Y-87954090D01*
X115578797Y-87950642D01*
X115597830Y-87980221D01*
X115623306Y-87997628D01*
X115485489Y-88199330D01*
X115434480Y-88451220D01*
X115434480Y-89248780D01*
X115478758Y-89484097D01*
X115617830Y-89700221D01*
X115830030Y-89845211D01*
X116081920Y-89896220D01*
X116879480Y-89896220D01*
X117114797Y-89851942D01*
X117229993Y-89777815D01*
X117328630Y-89845211D01*
X117580520Y-89896220D01*
X117841057Y-89896220D01*
X117985418Y-90040581D01*
X118175065Y-90167299D01*
X118217381Y-90195574D01*
X118491000Y-90250000D01*
X118518616Y-90250000D01*
X118595673Y-90327192D01*
X118639069Y-90345212D01*
X118519359Y-90321400D01*
X118460641Y-90321400D01*
X117887152Y-90435474D01*
X117400971Y-90760330D01*
X117220008Y-91031161D01*
X116838490Y-90613179D01*
X116309027Y-90365032D01*
X116077000Y-90485531D01*
X116077000Y-91693000D01*
X116097000Y-91693000D01*
X116097000Y-91947000D01*
X116077000Y-91947000D01*
X116077000Y-94233000D01*
X116097000Y-94233000D01*
X116097000Y-94487000D01*
X116077000Y-94487000D01*
X116077000Y-96773000D01*
X116097000Y-96773000D01*
X116097000Y-97027000D01*
X116077000Y-97027000D01*
X116077000Y-99313000D01*
X116097000Y-99313000D01*
X116097000Y-99567000D01*
X116077000Y-99567000D01*
X116077000Y-101853000D01*
X116097000Y-101853000D01*
X116097000Y-102107000D01*
X116077000Y-102107000D01*
X116077000Y-102764279D01*
X116015162Y-102913201D01*
X116014838Y-103285167D01*
X116077000Y-103435611D01*
X116077000Y-104393000D01*
X116097000Y-104393000D01*
X116097000Y-104647000D01*
X116077000Y-104647000D01*
X116077000Y-104667000D01*
X115823000Y-104667000D01*
X115823000Y-104647000D01*
X114616183Y-104647000D01*
X114495042Y-104879026D01*
X114667312Y-105294947D01*
X115061510Y-105726821D01*
X115575119Y-105967538D01*
X115031226Y-106590949D01*
X114988726Y-106665000D01*
X114985750Y-106665000D01*
X114827000Y-106823750D01*
X114827000Y-107548000D01*
X114847000Y-107548000D01*
X114847000Y-107802000D01*
X114827000Y-107802000D01*
X114827000Y-108526250D01*
X114877000Y-108576250D01*
X114877000Y-109298000D01*
X114897000Y-109298000D01*
X114897000Y-109552000D01*
X114877000Y-109552000D01*
X114877000Y-110276250D01*
X115035750Y-110435000D01*
X115276309Y-110435000D01*
X115509698Y-110338327D01*
X115511068Y-110336957D01*
X115598110Y-110396431D01*
X115850000Y-110447440D01*
X116650000Y-110447440D01*
X116885317Y-110403162D01*
X117101441Y-110264090D01*
X117202330Y-110116433D01*
X117261673Y-110259699D01*
X117440302Y-110438327D01*
X117673691Y-110535000D01*
X117766250Y-110535000D01*
X117925000Y-110376250D01*
X117925000Y-109577000D01*
X117903000Y-109577000D01*
X117903000Y-109323000D01*
X117925000Y-109323000D01*
X117925000Y-109303000D01*
X118175000Y-109303000D01*
X118175000Y-109323000D01*
X118197000Y-109323000D01*
X118197000Y-109577000D01*
X118175000Y-109577000D01*
X118175000Y-110376250D01*
X118333750Y-110535000D01*
X118426309Y-110535000D01*
X118536693Y-110489277D01*
X118620419Y-110614581D01*
X119300000Y-111294162D01*
X119300000Y-111998761D01*
X119063489Y-111840729D01*
X118490000Y-111726655D01*
X117916511Y-111840729D01*
X117430330Y-112165585D01*
X117420757Y-112179913D01*
X117416762Y-112158683D01*
X117277690Y-111942559D01*
X117065490Y-111797569D01*
X116813600Y-111746560D01*
X115086400Y-111746560D01*
X114851083Y-111790838D01*
X114634959Y-111929910D01*
X114489969Y-112142110D01*
X114438960Y-112394000D01*
X114438960Y-114426000D01*
X114483238Y-114661317D01*
X114622310Y-114877441D01*
X114834510Y-115022431D01*
X115086400Y-115073440D01*
X116813600Y-115073440D01*
X117048917Y-115029162D01*
X117265041Y-114890090D01*
X117410031Y-114677890D01*
X117418400Y-114636561D01*
X117430330Y-114654415D01*
X117916511Y-114979271D01*
X118490000Y-115093345D01*
X119063489Y-114979271D01*
X119549670Y-114654415D01*
X119760000Y-114339634D01*
X119970330Y-114654415D01*
X120456511Y-114979271D01*
X121030000Y-115093345D01*
X121603489Y-114979271D01*
X122089670Y-114654415D01*
X122296461Y-114344931D01*
X122667964Y-114760732D01*
X123195209Y-115014709D01*
X123210974Y-115017358D01*
X123443000Y-114896217D01*
X123443000Y-113537000D01*
X123423000Y-113537000D01*
X123423000Y-113283000D01*
X123443000Y-113283000D01*
X123443000Y-113263000D01*
X123697000Y-113263000D01*
X123697000Y-113283000D01*
X123717000Y-113283000D01*
X123717000Y-113537000D01*
X123697000Y-113537000D01*
X123697000Y-114896217D01*
X123929026Y-115017358D01*
X123944791Y-115014709D01*
X124472036Y-114760732D01*
X124861954Y-114324320D01*
X125027342Y-113851507D01*
X125063883Y-113939943D01*
X125326673Y-114203192D01*
X125670201Y-114345838D01*
X126042167Y-114346162D01*
X126385943Y-114204117D01*
X126649192Y-113941327D01*
X126791838Y-113597799D01*
X126792162Y-113225833D01*
X126650117Y-112882057D01*
X126624105Y-112856000D01*
X127138960Y-112856000D01*
X127138960Y-114426000D01*
X127183238Y-114661317D01*
X127322310Y-114877441D01*
X127534510Y-115022431D01*
X127786400Y-115073440D01*
X127935000Y-115073440D01*
X127935000Y-115625000D01*
X127989426Y-115898619D01*
X128144419Y-116130581D01*
X128493838Y-116480000D01*
X113440000Y-116480000D01*
X113440000Y-116020616D01*
X113445954Y-116011705D01*
X113500000Y-115740000D01*
X113445954Y-115468295D01*
X113430000Y-115444418D01*
X113430000Y-109710750D01*
X113715000Y-109710750D01*
X113715000Y-109926310D01*
X113811673Y-110159699D01*
X113990302Y-110338327D01*
X114223691Y-110435000D01*
X114464250Y-110435000D01*
X114623000Y-110276250D01*
X114623000Y-109552000D01*
X113873750Y-109552000D01*
X113715000Y-109710750D01*
X113430000Y-109710750D01*
X113430000Y-107960750D01*
X113665000Y-107960750D01*
X113665000Y-108176310D01*
X113761673Y-108409699D01*
X113926975Y-108575000D01*
X113811673Y-108690301D01*
X113715000Y-108923690D01*
X113715000Y-109139250D01*
X113873750Y-109298000D01*
X114623000Y-109298000D01*
X114623000Y-108573750D01*
X114573000Y-108523750D01*
X114573000Y-107802000D01*
X113823750Y-107802000D01*
X113665000Y-107960750D01*
X113430000Y-107960750D01*
X113430000Y-107173690D01*
X113665000Y-107173690D01*
X113665000Y-107389250D01*
X113823750Y-107548000D01*
X114573000Y-107548000D01*
X114573000Y-106823750D01*
X114414250Y-106665000D01*
X114173691Y-106665000D01*
X113940302Y-106761673D01*
X113761673Y-106940301D01*
X113665000Y-107173690D01*
X113430000Y-107173690D01*
X113430000Y-102339026D01*
X114495042Y-102339026D01*
X114667312Y-102754947D01*
X115061510Y-103186821D01*
X115196313Y-103250000D01*
X115061510Y-103313179D01*
X114667312Y-103745053D01*
X114495042Y-104160974D01*
X114616183Y-104393000D01*
X115823000Y-104393000D01*
X115823000Y-102107000D01*
X114616183Y-102107000D01*
X114495042Y-102339026D01*
X113430000Y-102339026D01*
X113430000Y-99799026D01*
X114495042Y-99799026D01*
X114667312Y-100214947D01*
X115061510Y-100646821D01*
X115196313Y-100710000D01*
X115061510Y-100773179D01*
X114667312Y-101205053D01*
X114495042Y-101620974D01*
X114616183Y-101853000D01*
X115823000Y-101853000D01*
X115823000Y-99567000D01*
X114616183Y-99567000D01*
X114495042Y-99799026D01*
X113430000Y-99799026D01*
X113430000Y-97259026D01*
X114495042Y-97259026D01*
X114667312Y-97674947D01*
X115061510Y-98106821D01*
X115196313Y-98170000D01*
X115061510Y-98233179D01*
X114667312Y-98665053D01*
X114495042Y-99080974D01*
X114616183Y-99313000D01*
X115823000Y-99313000D01*
X115823000Y-97027000D01*
X114616183Y-97027000D01*
X114495042Y-97259026D01*
X113430000Y-97259026D01*
X113430000Y-94719026D01*
X114495042Y-94719026D01*
X114667312Y-95134947D01*
X115061510Y-95566821D01*
X115196313Y-95630000D01*
X115061510Y-95693179D01*
X114667312Y-96125053D01*
X114495042Y-96540974D01*
X114616183Y-96773000D01*
X115823000Y-96773000D01*
X115823000Y-94487000D01*
X114616183Y-94487000D01*
X114495042Y-94719026D01*
X113430000Y-94719026D01*
X113430000Y-92179026D01*
X114495042Y-92179026D01*
X114667312Y-92594947D01*
X115061510Y-93026821D01*
X115196313Y-93090000D01*
X115061510Y-93153179D01*
X114667312Y-93585053D01*
X114495042Y-94000974D01*
X114616183Y-94233000D01*
X115823000Y-94233000D01*
X115823000Y-91947000D01*
X114616183Y-91947000D01*
X114495042Y-92179026D01*
X113430000Y-92179026D01*
X113430000Y-91460974D01*
X114495042Y-91460974D01*
X114616183Y-91693000D01*
X115823000Y-91693000D01*
X115823000Y-90485531D01*
X115590973Y-90365032D01*
X115061510Y-90613179D01*
X114667312Y-91045053D01*
X114495042Y-91460974D01*
X113430000Y-91460974D01*
X113430000Y-87216162D01*
X113733058Y-87519221D01*
X113733058Y-87519221D01*
G37*
X113733058Y-87519221D02*
X113771838Y-87725317D01*
X113910910Y-87941441D01*
X114123110Y-88086431D01*
X114375000Y-88137440D01*
X115125000Y-88137440D01*
X115360317Y-88093162D01*
X115576441Y-87954090D01*
X115578797Y-87950642D01*
X115597830Y-87980221D01*
X115623306Y-87997628D01*
X115485489Y-88199330D01*
X115434480Y-88451220D01*
X115434480Y-89248780D01*
X115478758Y-89484097D01*
X115617830Y-89700221D01*
X115830030Y-89845211D01*
X116081920Y-89896220D01*
X116879480Y-89896220D01*
X117114797Y-89851942D01*
X117229993Y-89777815D01*
X117328630Y-89845211D01*
X117580520Y-89896220D01*
X117841057Y-89896220D01*
X117985418Y-90040581D01*
X118175065Y-90167299D01*
X118217381Y-90195574D01*
X118491000Y-90250000D01*
X118518616Y-90250000D01*
X118595673Y-90327192D01*
X118639069Y-90345212D01*
X118519359Y-90321400D01*
X118460641Y-90321400D01*
X117887152Y-90435474D01*
X117400971Y-90760330D01*
X117220008Y-91031161D01*
X116838490Y-90613179D01*
X116309027Y-90365032D01*
X116077000Y-90485531D01*
X116077000Y-91693000D01*
X116097000Y-91693000D01*
X116097000Y-91947000D01*
X116077000Y-91947000D01*
X116077000Y-94233000D01*
X116097000Y-94233000D01*
X116097000Y-94487000D01*
X116077000Y-94487000D01*
X116077000Y-96773000D01*
X116097000Y-96773000D01*
X116097000Y-97027000D01*
X116077000Y-97027000D01*
X116077000Y-99313000D01*
X116097000Y-99313000D01*
X116097000Y-99567000D01*
X116077000Y-99567000D01*
X116077000Y-101853000D01*
X116097000Y-101853000D01*
X116097000Y-102107000D01*
X116077000Y-102107000D01*
X116077000Y-102764279D01*
X116015162Y-102913201D01*
X116014838Y-103285167D01*
X116077000Y-103435611D01*
X116077000Y-104393000D01*
X116097000Y-104393000D01*
X116097000Y-104647000D01*
X116077000Y-104647000D01*
X116077000Y-104667000D01*
X115823000Y-104667000D01*
X115823000Y-104647000D01*
X114616183Y-104647000D01*
X114495042Y-104879026D01*
X114667312Y-105294947D01*
X115061510Y-105726821D01*
X115575119Y-105967538D01*
X115031226Y-106590949D01*
X114988726Y-106665000D01*
X114985750Y-106665000D01*
X114827000Y-106823750D01*
X114827000Y-107548000D01*
X114847000Y-107548000D01*
X114847000Y-107802000D01*
X114827000Y-107802000D01*
X114827000Y-108526250D01*
X114877000Y-108576250D01*
X114877000Y-109298000D01*
X114897000Y-109298000D01*
X114897000Y-109552000D01*
X114877000Y-109552000D01*
X114877000Y-110276250D01*
X115035750Y-110435000D01*
X115276309Y-110435000D01*
X115509698Y-110338327D01*
X115511068Y-110336957D01*
X115598110Y-110396431D01*
X115850000Y-110447440D01*
X116650000Y-110447440D01*
X116885317Y-110403162D01*
X117101441Y-110264090D01*
X117202330Y-110116433D01*
X117261673Y-110259699D01*
X117440302Y-110438327D01*
X117673691Y-110535000D01*
X117766250Y-110535000D01*
X117925000Y-110376250D01*
X117925000Y-109577000D01*
X117903000Y-109577000D01*
X117903000Y-109323000D01*
X117925000Y-109323000D01*
X117925000Y-109303000D01*
X118175000Y-109303000D01*
X118175000Y-109323000D01*
X118197000Y-109323000D01*
X118197000Y-109577000D01*
X118175000Y-109577000D01*
X118175000Y-110376250D01*
X118333750Y-110535000D01*
X118426309Y-110535000D01*
X118536693Y-110489277D01*
X118620419Y-110614581D01*
X119300000Y-111294162D01*
X119300000Y-111998761D01*
X119063489Y-111840729D01*
X118490000Y-111726655D01*
X117916511Y-111840729D01*
X117430330Y-112165585D01*
X117420757Y-112179913D01*
X117416762Y-112158683D01*
X117277690Y-111942559D01*
X117065490Y-111797569D01*
X116813600Y-111746560D01*
X115086400Y-111746560D01*
X114851083Y-111790838D01*
X114634959Y-111929910D01*
X114489969Y-112142110D01*
X114438960Y-112394000D01*
X114438960Y-114426000D01*
X114483238Y-114661317D01*
X114622310Y-114877441D01*
X114834510Y-115022431D01*
X115086400Y-115073440D01*
X116813600Y-115073440D01*
X117048917Y-115029162D01*
X117265041Y-114890090D01*
X117410031Y-114677890D01*
X117418400Y-114636561D01*
X117430330Y-114654415D01*
X117916511Y-114979271D01*
X118490000Y-115093345D01*
X119063489Y-114979271D01*
X119549670Y-114654415D01*
X119760000Y-114339634D01*
X119970330Y-114654415D01*
X120456511Y-114979271D01*
X121030000Y-115093345D01*
X121603489Y-114979271D01*
X122089670Y-114654415D01*
X122296461Y-114344931D01*
X122667964Y-114760732D01*
X123195209Y-115014709D01*
X123210974Y-115017358D01*
X123443000Y-114896217D01*
X123443000Y-113537000D01*
X123423000Y-113537000D01*
X123423000Y-113283000D01*
X123443000Y-113283000D01*
X123443000Y-113263000D01*
X123697000Y-113263000D01*
X123697000Y-113283000D01*
X123717000Y-113283000D01*
X123717000Y-113537000D01*
X123697000Y-113537000D01*
X123697000Y-114896217D01*
X123929026Y-115017358D01*
X123944791Y-115014709D01*
X124472036Y-114760732D01*
X124861954Y-114324320D01*
X125027342Y-113851507D01*
X125063883Y-113939943D01*
X125326673Y-114203192D01*
X125670201Y-114345838D01*
X126042167Y-114346162D01*
X126385943Y-114204117D01*
X126649192Y-113941327D01*
X126791838Y-113597799D01*
X126792162Y-113225833D01*
X126650117Y-112882057D01*
X126624105Y-112856000D01*
X127138960Y-112856000D01*
X127138960Y-114426000D01*
X127183238Y-114661317D01*
X127322310Y-114877441D01*
X127534510Y-115022431D01*
X127786400Y-115073440D01*
X127935000Y-115073440D01*
X127935000Y-115625000D01*
X127989426Y-115898619D01*
X128144419Y-116130581D01*
X128493838Y-116480000D01*
X113440000Y-116480000D01*
X113440000Y-116020616D01*
X113445954Y-116011705D01*
X113500000Y-115740000D01*
X113445954Y-115468295D01*
X113430000Y-115444418D01*
X113430000Y-109710750D01*
X113715000Y-109710750D01*
X113715000Y-109926310D01*
X113811673Y-110159699D01*
X113990302Y-110338327D01*
X114223691Y-110435000D01*
X114464250Y-110435000D01*
X114623000Y-110276250D01*
X114623000Y-109552000D01*
X113873750Y-109552000D01*
X113715000Y-109710750D01*
X113430000Y-109710750D01*
X113430000Y-107960750D01*
X113665000Y-107960750D01*
X113665000Y-108176310D01*
X113761673Y-108409699D01*
X113926975Y-108575000D01*
X113811673Y-108690301D01*
X113715000Y-108923690D01*
X113715000Y-109139250D01*
X113873750Y-109298000D01*
X114623000Y-109298000D01*
X114623000Y-108573750D01*
X114573000Y-108523750D01*
X114573000Y-107802000D01*
X113823750Y-107802000D01*
X113665000Y-107960750D01*
X113430000Y-107960750D01*
X113430000Y-107173690D01*
X113665000Y-107173690D01*
X113665000Y-107389250D01*
X113823750Y-107548000D01*
X114573000Y-107548000D01*
X114573000Y-106823750D01*
X114414250Y-106665000D01*
X114173691Y-106665000D01*
X113940302Y-106761673D01*
X113761673Y-106940301D01*
X113665000Y-107173690D01*
X113430000Y-107173690D01*
X113430000Y-102339026D01*
X114495042Y-102339026D01*
X114667312Y-102754947D01*
X115061510Y-103186821D01*
X115196313Y-103250000D01*
X115061510Y-103313179D01*
X114667312Y-103745053D01*
X114495042Y-104160974D01*
X114616183Y-104393000D01*
X115823000Y-104393000D01*
X115823000Y-102107000D01*
X114616183Y-102107000D01*
X114495042Y-102339026D01*
X113430000Y-102339026D01*
X113430000Y-99799026D01*
X114495042Y-99799026D01*
X114667312Y-100214947D01*
X115061510Y-100646821D01*
X115196313Y-100710000D01*
X115061510Y-100773179D01*
X114667312Y-101205053D01*
X114495042Y-101620974D01*
X114616183Y-101853000D01*
X115823000Y-101853000D01*
X115823000Y-99567000D01*
X114616183Y-99567000D01*
X114495042Y-99799026D01*
X113430000Y-99799026D01*
X113430000Y-97259026D01*
X114495042Y-97259026D01*
X114667312Y-97674947D01*
X115061510Y-98106821D01*
X115196313Y-98170000D01*
X115061510Y-98233179D01*
X114667312Y-98665053D01*
X114495042Y-99080974D01*
X114616183Y-99313000D01*
X115823000Y-99313000D01*
X115823000Y-97027000D01*
X114616183Y-97027000D01*
X114495042Y-97259026D01*
X113430000Y-97259026D01*
X113430000Y-94719026D01*
X114495042Y-94719026D01*
X114667312Y-95134947D01*
X115061510Y-95566821D01*
X115196313Y-95630000D01*
X115061510Y-95693179D01*
X114667312Y-96125053D01*
X114495042Y-96540974D01*
X114616183Y-96773000D01*
X115823000Y-96773000D01*
X115823000Y-94487000D01*
X114616183Y-94487000D01*
X114495042Y-94719026D01*
X113430000Y-94719026D01*
X113430000Y-92179026D01*
X114495042Y-92179026D01*
X114667312Y-92594947D01*
X115061510Y-93026821D01*
X115196313Y-93090000D01*
X115061510Y-93153179D01*
X114667312Y-93585053D01*
X114495042Y-94000974D01*
X114616183Y-94233000D01*
X115823000Y-94233000D01*
X115823000Y-91947000D01*
X114616183Y-91947000D01*
X114495042Y-92179026D01*
X113430000Y-92179026D01*
X113430000Y-91460974D01*
X114495042Y-91460974D01*
X114616183Y-91693000D01*
X115823000Y-91693000D01*
X115823000Y-90485531D01*
X115590973Y-90365032D01*
X115061510Y-90613179D01*
X114667312Y-91045053D01*
X114495042Y-91460974D01*
X113430000Y-91460974D01*
X113430000Y-87216162D01*
X113733058Y-87519221D01*
G36*
X144775000Y-115973000D02*
X144797000Y-115973000D01*
X144797000Y-116227000D01*
X144775000Y-116227000D01*
X144775000Y-116247000D01*
X144525000Y-116247000D01*
X144525000Y-116227000D01*
X144503000Y-116227000D01*
X144503000Y-115973000D01*
X144525000Y-115973000D01*
X144525000Y-115953000D01*
X144775000Y-115953000D01*
X144775000Y-115973000D01*
X144775000Y-115973000D01*
G37*
X144775000Y-115973000D02*
X144797000Y-115973000D01*
X144797000Y-116227000D01*
X144775000Y-116227000D01*
X144775000Y-116247000D01*
X144525000Y-116247000D01*
X144525000Y-116227000D01*
X144503000Y-116227000D01*
X144503000Y-115973000D01*
X144525000Y-115973000D01*
X144525000Y-115953000D01*
X144775000Y-115953000D01*
X144775000Y-115973000D01*
G36*
X149377000Y-110997000D02*
X149357000Y-110997000D01*
X149357000Y-111721250D01*
X149377000Y-111741250D01*
X149377000Y-112483000D01*
X149397000Y-112483000D01*
X149397000Y-112737000D01*
X149377000Y-112737000D01*
X149377000Y-112757000D01*
X149123000Y-112757000D01*
X149123000Y-112737000D01*
X148398750Y-112737000D01*
X148240000Y-112895750D01*
X148240000Y-113136309D01*
X148336673Y-113369698D01*
X148338043Y-113371068D01*
X148278569Y-113458110D01*
X148227560Y-113710000D01*
X148227560Y-114510000D01*
X148271838Y-114745317D01*
X148410910Y-114961441D01*
X148623110Y-115106431D01*
X148647330Y-115111336D01*
X148610302Y-115126673D01*
X148467500Y-115269474D01*
X148384698Y-115186673D01*
X148151309Y-115090000D01*
X147910750Y-115090000D01*
X147752000Y-115248750D01*
X147752000Y-115973000D01*
X148501250Y-115973000D01*
X148561250Y-115913000D01*
X149243000Y-115913000D01*
X149243000Y-115893000D01*
X149497000Y-115893000D01*
X149497000Y-115913000D01*
X149517000Y-115913000D01*
X149517000Y-116167000D01*
X149497000Y-116167000D01*
X149497000Y-116187000D01*
X149243000Y-116187000D01*
X149243000Y-116167000D01*
X148493750Y-116167000D01*
X148433750Y-116227000D01*
X147752000Y-116227000D01*
X147752000Y-116247000D01*
X147498000Y-116247000D01*
X147498000Y-116227000D01*
X147478000Y-116227000D01*
X147478000Y-115973000D01*
X147498000Y-115973000D01*
X147498000Y-115248750D01*
X147339250Y-115090000D01*
X147098691Y-115090000D01*
X146865302Y-115186673D01*
X146863932Y-115188043D01*
X146840000Y-115171690D01*
X146840000Y-115011791D01*
X147061810Y-114967670D01*
X147597433Y-114609778D01*
X147955325Y-114074155D01*
X148081000Y-113442345D01*
X148081000Y-113377655D01*
X147955325Y-112745845D01*
X147597433Y-112210222D01*
X147575354Y-112195469D01*
X147720619Y-112166574D01*
X147952581Y-112011581D01*
X148325568Y-111638594D01*
X148436975Y-111750000D01*
X148336673Y-111850302D01*
X148240000Y-112083691D01*
X148240000Y-112324250D01*
X148398750Y-112483000D01*
X149123000Y-112483000D01*
X149123000Y-111733750D01*
X149103000Y-111713750D01*
X149103000Y-110997000D01*
X149083000Y-110997000D01*
X149083000Y-110951000D01*
X149377000Y-110951000D01*
X149377000Y-110997000D01*
X149377000Y-110997000D01*
G37*
X149377000Y-110997000D02*
X149357000Y-110997000D01*
X149357000Y-111721250D01*
X149377000Y-111741250D01*
X149377000Y-112483000D01*
X149397000Y-112483000D01*
X149397000Y-112737000D01*
X149377000Y-112737000D01*
X149377000Y-112757000D01*
X149123000Y-112757000D01*
X149123000Y-112737000D01*
X148398750Y-112737000D01*
X148240000Y-112895750D01*
X148240000Y-113136309D01*
X148336673Y-113369698D01*
X148338043Y-113371068D01*
X148278569Y-113458110D01*
X148227560Y-113710000D01*
X148227560Y-114510000D01*
X148271838Y-114745317D01*
X148410910Y-114961441D01*
X148623110Y-115106431D01*
X148647330Y-115111336D01*
X148610302Y-115126673D01*
X148467500Y-115269474D01*
X148384698Y-115186673D01*
X148151309Y-115090000D01*
X147910750Y-115090000D01*
X147752000Y-115248750D01*
X147752000Y-115973000D01*
X148501250Y-115973000D01*
X148561250Y-115913000D01*
X149243000Y-115913000D01*
X149243000Y-115893000D01*
X149497000Y-115893000D01*
X149497000Y-115913000D01*
X149517000Y-115913000D01*
X149517000Y-116167000D01*
X149497000Y-116167000D01*
X149497000Y-116187000D01*
X149243000Y-116187000D01*
X149243000Y-116167000D01*
X148493750Y-116167000D01*
X148433750Y-116227000D01*
X147752000Y-116227000D01*
X147752000Y-116247000D01*
X147498000Y-116247000D01*
X147498000Y-116227000D01*
X147478000Y-116227000D01*
X147478000Y-115973000D01*
X147498000Y-115973000D01*
X147498000Y-115248750D01*
X147339250Y-115090000D01*
X147098691Y-115090000D01*
X146865302Y-115186673D01*
X146863932Y-115188043D01*
X146840000Y-115171690D01*
X146840000Y-115011791D01*
X147061810Y-114967670D01*
X147597433Y-114609778D01*
X147955325Y-114074155D01*
X148081000Y-113442345D01*
X148081000Y-113377655D01*
X147955325Y-112745845D01*
X147597433Y-112210222D01*
X147575354Y-112195469D01*
X147720619Y-112166574D01*
X147952581Y-112011581D01*
X148325568Y-111638594D01*
X148436975Y-111750000D01*
X148336673Y-111850302D01*
X148240000Y-112083691D01*
X148240000Y-112324250D01*
X148398750Y-112483000D01*
X149123000Y-112483000D01*
X149123000Y-111733750D01*
X149103000Y-111713750D01*
X149103000Y-110997000D01*
X149083000Y-110997000D01*
X149083000Y-110951000D01*
X149377000Y-110951000D01*
X149377000Y-110997000D01*
G36*
X175097758Y-110642560D02*
X174970000Y-110642560D01*
X174734683Y-110686838D01*
X174518559Y-110825910D01*
X174373569Y-111038110D01*
X174322560Y-111290000D01*
X174322560Y-112890000D01*
X174366838Y-113125317D01*
X174505910Y-113341441D01*
X174718110Y-113486431D01*
X174970000Y-113537440D01*
X178670000Y-113537440D01*
X178800000Y-113512979D01*
X178800000Y-113868886D01*
X178670000Y-113842560D01*
X174970000Y-113842560D01*
X174734683Y-113886838D01*
X174518559Y-114025910D01*
X174373569Y-114238110D01*
X174322560Y-114490000D01*
X174322560Y-115600000D01*
X172080000Y-115600000D01*
X172080000Y-115086302D01*
X172135000Y-115097440D01*
X173045000Y-115097440D01*
X173280317Y-115053162D01*
X173496441Y-114914090D01*
X173641431Y-114701890D01*
X173692440Y-114450000D01*
X173692440Y-112040000D01*
X173648162Y-111804683D01*
X173509090Y-111588559D01*
X173296890Y-111443569D01*
X173045000Y-111392560D01*
X172135000Y-111392560D01*
X171948392Y-111427673D01*
X171775000Y-111392560D01*
X170865000Y-111392560D01*
X170678392Y-111427673D01*
X170505000Y-111392560D01*
X169595000Y-111392560D01*
X169413655Y-111426682D01*
X169361309Y-111405000D01*
X169065750Y-111405000D01*
X168907000Y-111563750D01*
X168907000Y-113118000D01*
X168927000Y-113118000D01*
X168927000Y-113372000D01*
X168907000Y-113372000D01*
X168907000Y-114926250D01*
X168952000Y-114971250D01*
X168952000Y-115373000D01*
X169701250Y-115373000D01*
X169860000Y-115214250D01*
X169860000Y-115097440D01*
X170505000Y-115097440D01*
X170560000Y-115087091D01*
X170560000Y-115575198D01*
X170535198Y-115600000D01*
X170460000Y-115600000D01*
X170208635Y-115650000D01*
X169724250Y-115650000D01*
X169701250Y-115627000D01*
X168952000Y-115627000D01*
X168952000Y-115647000D01*
X168698000Y-115647000D01*
X168698000Y-115627000D01*
X168678000Y-115627000D01*
X168678000Y-115373000D01*
X168698000Y-115373000D01*
X168698000Y-114648750D01*
X168653000Y-114603750D01*
X168653000Y-113372000D01*
X168633000Y-113372000D01*
X168633000Y-113118000D01*
X168653000Y-113118000D01*
X168653000Y-111563750D01*
X168494250Y-111405000D01*
X168270000Y-111405000D01*
X168270000Y-110912306D01*
X168392192Y-110790327D01*
X168534838Y-110446799D01*
X168535162Y-110074833D01*
X168393117Y-109731057D01*
X168130327Y-109467808D01*
X167786799Y-109325162D01*
X167414833Y-109324838D01*
X167071057Y-109466883D01*
X166807808Y-109729673D01*
X166665162Y-110073201D01*
X166664838Y-110445167D01*
X166750000Y-110651275D01*
X166750000Y-111403698D01*
X166695000Y-111392560D01*
X165785000Y-111392560D01*
X165730000Y-111402909D01*
X165730000Y-109464802D01*
X166194802Y-109000000D01*
X173455198Y-109000000D01*
X175097758Y-110642560D01*
X175097758Y-110642560D01*
G37*
X175097758Y-110642560D02*
X174970000Y-110642560D01*
X174734683Y-110686838D01*
X174518559Y-110825910D01*
X174373569Y-111038110D01*
X174322560Y-111290000D01*
X174322560Y-112890000D01*
X174366838Y-113125317D01*
X174505910Y-113341441D01*
X174718110Y-113486431D01*
X174970000Y-113537440D01*
X178670000Y-113537440D01*
X178800000Y-113512979D01*
X178800000Y-113868886D01*
X178670000Y-113842560D01*
X174970000Y-113842560D01*
X174734683Y-113886838D01*
X174518559Y-114025910D01*
X174373569Y-114238110D01*
X174322560Y-114490000D01*
X174322560Y-115600000D01*
X172080000Y-115600000D01*
X172080000Y-115086302D01*
X172135000Y-115097440D01*
X173045000Y-115097440D01*
X173280317Y-115053162D01*
X173496441Y-114914090D01*
X173641431Y-114701890D01*
X173692440Y-114450000D01*
X173692440Y-112040000D01*
X173648162Y-111804683D01*
X173509090Y-111588559D01*
X173296890Y-111443569D01*
X173045000Y-111392560D01*
X172135000Y-111392560D01*
X171948392Y-111427673D01*
X171775000Y-111392560D01*
X170865000Y-111392560D01*
X170678392Y-111427673D01*
X170505000Y-111392560D01*
X169595000Y-111392560D01*
X169413655Y-111426682D01*
X169361309Y-111405000D01*
X169065750Y-111405000D01*
X168907000Y-111563750D01*
X168907000Y-113118000D01*
X168927000Y-113118000D01*
X168927000Y-113372000D01*
X168907000Y-113372000D01*
X168907000Y-114926250D01*
X168952000Y-114971250D01*
X168952000Y-115373000D01*
X169701250Y-115373000D01*
X169860000Y-115214250D01*
X169860000Y-115097440D01*
X170505000Y-115097440D01*
X170560000Y-115087091D01*
X170560000Y-115575198D01*
X170535198Y-115600000D01*
X170460000Y-115600000D01*
X170208635Y-115650000D01*
X169724250Y-115650000D01*
X169701250Y-115627000D01*
X168952000Y-115627000D01*
X168952000Y-115647000D01*
X168698000Y-115647000D01*
X168698000Y-115627000D01*
X168678000Y-115627000D01*
X168678000Y-115373000D01*
X168698000Y-115373000D01*
X168698000Y-114648750D01*
X168653000Y-114603750D01*
X168653000Y-113372000D01*
X168633000Y-113372000D01*
X168633000Y-113118000D01*
X168653000Y-113118000D01*
X168653000Y-111563750D01*
X168494250Y-111405000D01*
X168270000Y-111405000D01*
X168270000Y-110912306D01*
X168392192Y-110790327D01*
X168534838Y-110446799D01*
X168535162Y-110074833D01*
X168393117Y-109731057D01*
X168130327Y-109467808D01*
X167786799Y-109325162D01*
X167414833Y-109324838D01*
X167071057Y-109466883D01*
X166807808Y-109729673D01*
X166665162Y-110073201D01*
X166664838Y-110445167D01*
X166750000Y-110651275D01*
X166750000Y-111403698D01*
X166695000Y-111392560D01*
X165785000Y-111392560D01*
X165730000Y-111402909D01*
X165730000Y-109464802D01*
X166194802Y-109000000D01*
X173455198Y-109000000D01*
X175097758Y-110642560D01*
G36*
X154565860Y-109500731D02*
X154751409Y-109627511D01*
X154607000Y-109771920D01*
X154607000Y-110521220D01*
X155356300Y-110521220D01*
X155515050Y-110362470D01*
X155515050Y-110121860D01*
X155418377Y-109888471D01*
X155239748Y-109709843D01*
X155208090Y-109696730D01*
X155830050Y-109696730D01*
X156065367Y-109652452D01*
X156281491Y-109513380D01*
X156286730Y-109505713D01*
X156453201Y-109574838D01*
X156770000Y-109575114D01*
X156770000Y-111525000D01*
X156605750Y-111525000D01*
X156447000Y-111683750D01*
X156447000Y-112433000D01*
X156467000Y-112433000D01*
X156467000Y-112687000D01*
X156447000Y-112687000D01*
X156447000Y-112707000D01*
X156193000Y-112707000D01*
X156193000Y-112687000D01*
X156173000Y-112687000D01*
X156173000Y-112433000D01*
X156193000Y-112433000D01*
X156193000Y-111683750D01*
X156034250Y-111525000D01*
X155818690Y-111525000D01*
X155585301Y-111621673D01*
X155406673Y-111800302D01*
X155310000Y-112033691D01*
X155310000Y-112274250D01*
X155468748Y-112432998D01*
X155366287Y-112432998D01*
X155217433Y-112210222D01*
X154681810Y-111852330D01*
X154618958Y-111839828D01*
X154587401Y-111792599D01*
X154336161Y-111541359D01*
X154353000Y-111524520D01*
X154353000Y-110775220D01*
X154607000Y-110775220D01*
X154607000Y-111524520D01*
X154765750Y-111683270D01*
X155006359Y-111683270D01*
X155239748Y-111586597D01*
X155418377Y-111407969D01*
X155515050Y-111174580D01*
X155515050Y-110933970D01*
X155356300Y-110775220D01*
X154607000Y-110775220D01*
X154353000Y-110775220D01*
X153603700Y-110775220D01*
X153586861Y-110792059D01*
X153160000Y-110365198D01*
X153160000Y-109696730D01*
X153751910Y-109696730D01*
X153720252Y-109709843D01*
X153541623Y-109888471D01*
X153444950Y-110121860D01*
X153444950Y-110362470D01*
X153603700Y-110521220D01*
X154353000Y-110521220D01*
X154353000Y-109771920D01*
X154206843Y-109625763D01*
X154381491Y-109513380D01*
X154480632Y-109368283D01*
X154565860Y-109500731D01*
X154565860Y-109500731D01*
G37*
X154565860Y-109500731D02*
X154751409Y-109627511D01*
X154607000Y-109771920D01*
X154607000Y-110521220D01*
X155356300Y-110521220D01*
X155515050Y-110362470D01*
X155515050Y-110121860D01*
X155418377Y-109888471D01*
X155239748Y-109709843D01*
X155208090Y-109696730D01*
X155830050Y-109696730D01*
X156065367Y-109652452D01*
X156281491Y-109513380D01*
X156286730Y-109505713D01*
X156453201Y-109574838D01*
X156770000Y-109575114D01*
X156770000Y-111525000D01*
X156605750Y-111525000D01*
X156447000Y-111683750D01*
X156447000Y-112433000D01*
X156467000Y-112433000D01*
X156467000Y-112687000D01*
X156447000Y-112687000D01*
X156447000Y-112707000D01*
X156193000Y-112707000D01*
X156193000Y-112687000D01*
X156173000Y-112687000D01*
X156173000Y-112433000D01*
X156193000Y-112433000D01*
X156193000Y-111683750D01*
X156034250Y-111525000D01*
X155818690Y-111525000D01*
X155585301Y-111621673D01*
X155406673Y-111800302D01*
X155310000Y-112033691D01*
X155310000Y-112274250D01*
X155468748Y-112432998D01*
X155366287Y-112432998D01*
X155217433Y-112210222D01*
X154681810Y-111852330D01*
X154618958Y-111839828D01*
X154587401Y-111792599D01*
X154336161Y-111541359D01*
X154353000Y-111524520D01*
X154353000Y-110775220D01*
X154607000Y-110775220D01*
X154607000Y-111524520D01*
X154765750Y-111683270D01*
X155006359Y-111683270D01*
X155239748Y-111586597D01*
X155418377Y-111407969D01*
X155515050Y-111174580D01*
X155515050Y-110933970D01*
X155356300Y-110775220D01*
X154607000Y-110775220D01*
X154353000Y-110775220D01*
X153603700Y-110775220D01*
X153586861Y-110792059D01*
X153160000Y-110365198D01*
X153160000Y-109696730D01*
X153751910Y-109696730D01*
X153720252Y-109709843D01*
X153541623Y-109888471D01*
X153444950Y-110121860D01*
X153444950Y-110362470D01*
X153603700Y-110521220D01*
X154353000Y-110521220D01*
X154353000Y-109771920D01*
X154206843Y-109625763D01*
X154381491Y-109513380D01*
X154480632Y-109368283D01*
X154565860Y-109500731D01*
G36*
X144446000Y-109577750D02*
X144375000Y-109648750D01*
X144375000Y-110448000D01*
X144397000Y-110448000D01*
X144397000Y-110702000D01*
X144375000Y-110702000D01*
X144375000Y-110722000D01*
X144125000Y-110722000D01*
X144125000Y-110702000D01*
X144103000Y-110702000D01*
X144103000Y-110448000D01*
X144125000Y-110448000D01*
X144125000Y-109648750D01*
X143966250Y-109490000D01*
X143873691Y-109490000D01*
X143640302Y-109586673D01*
X143499064Y-109727910D01*
X143464090Y-109673559D01*
X143251890Y-109528569D01*
X143000000Y-109477560D01*
X142937482Y-109477560D01*
X142995852Y-109440000D01*
X143685000Y-109440000D01*
X143958619Y-109385574D01*
X144190581Y-109230581D01*
X144446000Y-108975162D01*
X144446000Y-109577750D01*
X144446000Y-109577750D01*
G37*
X144446000Y-109577750D02*
X144375000Y-109648750D01*
X144375000Y-110448000D01*
X144397000Y-110448000D01*
X144397000Y-110702000D01*
X144375000Y-110702000D01*
X144375000Y-110722000D01*
X144125000Y-110722000D01*
X144125000Y-110702000D01*
X144103000Y-110702000D01*
X144103000Y-110448000D01*
X144125000Y-110448000D01*
X144125000Y-109648750D01*
X143966250Y-109490000D01*
X143873691Y-109490000D01*
X143640302Y-109586673D01*
X143499064Y-109727910D01*
X143464090Y-109673559D01*
X143251890Y-109528569D01*
X143000000Y-109477560D01*
X142937482Y-109477560D01*
X142995852Y-109440000D01*
X143685000Y-109440000D01*
X143958619Y-109385574D01*
X144190581Y-109230581D01*
X144446000Y-108975162D01*
X144446000Y-109577750D01*
G36*
X146899673Y-101862192D02*
X147235000Y-102001433D01*
X147235000Y-102060000D01*
X147253672Y-102153871D01*
X147091059Y-102258510D01*
X146946069Y-102470710D01*
X146895060Y-102722600D01*
X146895060Y-103027400D01*
X146928729Y-103206336D01*
X146895060Y-103372600D01*
X146895060Y-103677400D01*
X146928729Y-103856336D01*
X146895060Y-104022600D01*
X146895060Y-104327400D01*
X146928729Y-104506336D01*
X146895060Y-104672600D01*
X146895060Y-104977400D01*
X146928729Y-105156336D01*
X146895060Y-105322600D01*
X146895060Y-105627400D01*
X146928729Y-105806336D01*
X146895060Y-105972600D01*
X146895060Y-106277400D01*
X146928729Y-106456336D01*
X146895060Y-106622600D01*
X146895060Y-106927400D01*
X146928729Y-107106336D01*
X146895060Y-107272600D01*
X146895060Y-107577400D01*
X146928729Y-107756336D01*
X146895060Y-107922600D01*
X146895060Y-108227400D01*
X146927268Y-108398568D01*
X146907500Y-108446291D01*
X146907500Y-108490050D01*
X147046136Y-108628686D01*
X147078410Y-108678841D01*
X147257488Y-108801200D01*
X147066250Y-108801200D01*
X146907500Y-108959950D01*
X146907500Y-109003709D01*
X147004173Y-109237098D01*
X147182801Y-109415727D01*
X147416190Y-109512400D01*
X147752050Y-109512400D01*
X147910800Y-109353650D01*
X147910800Y-108874840D01*
X148164800Y-108874840D01*
X148164800Y-109353650D01*
X148323550Y-109512400D01*
X148659410Y-109512400D01*
X148892799Y-109415727D01*
X149071427Y-109237098D01*
X149168100Y-109003709D01*
X149168100Y-108959950D01*
X149009350Y-108801200D01*
X148814047Y-108801200D01*
X148984541Y-108691490D01*
X149023115Y-108635035D01*
X149168100Y-108490050D01*
X149168100Y-108446291D01*
X149146684Y-108394588D01*
X149180540Y-108227400D01*
X149180540Y-108035000D01*
X152028357Y-108035000D01*
X151913359Y-108111839D01*
X151862599Y-108162599D01*
X151697852Y-108409161D01*
X151640000Y-108700000D01*
X151640000Y-110114905D01*
X151594090Y-110043559D01*
X151381890Y-109898569D01*
X151130000Y-109847560D01*
X150668758Y-109847560D01*
X150641619Y-109829426D01*
X150420631Y-109785469D01*
X150365581Y-109730419D01*
X150133619Y-109575426D01*
X149860000Y-109521000D01*
X148590000Y-109521000D01*
X148316381Y-109575426D01*
X148095824Y-109722798D01*
X148034698Y-109661673D01*
X147801309Y-109565000D01*
X147560750Y-109565000D01*
X147402000Y-109723750D01*
X147402000Y-110448000D01*
X147422000Y-110448000D01*
X147422000Y-110519838D01*
X147219838Y-110722000D01*
X147148000Y-110722000D01*
X147148000Y-110702000D01*
X147128000Y-110702000D01*
X147128000Y-110448000D01*
X147148000Y-110448000D01*
X147148000Y-109723750D01*
X146989250Y-109565000D01*
X146884901Y-109565000D01*
X146885162Y-109264833D01*
X146743117Y-108921057D01*
X146480327Y-108657808D01*
X146136799Y-108515162D01*
X145876000Y-108514935D01*
X145876000Y-103166162D01*
X146555581Y-102486581D01*
X146589990Y-102435085D01*
X146710574Y-102254619D01*
X146728681Y-102163588D01*
X146837574Y-102000619D01*
X146859577Y-101890000D01*
X146870852Y-101833320D01*
X146899673Y-101862192D01*
X146899673Y-101862192D01*
G37*
X146899673Y-101862192D02*
X147235000Y-102001433D01*
X147235000Y-102060000D01*
X147253672Y-102153871D01*
X147091059Y-102258510D01*
X146946069Y-102470710D01*
X146895060Y-102722600D01*
X146895060Y-103027400D01*
X146928729Y-103206336D01*
X146895060Y-103372600D01*
X146895060Y-103677400D01*
X146928729Y-103856336D01*
X146895060Y-104022600D01*
X146895060Y-104327400D01*
X146928729Y-104506336D01*
X146895060Y-104672600D01*
X146895060Y-104977400D01*
X146928729Y-105156336D01*
X146895060Y-105322600D01*
X146895060Y-105627400D01*
X146928729Y-105806336D01*
X146895060Y-105972600D01*
X146895060Y-106277400D01*
X146928729Y-106456336D01*
X146895060Y-106622600D01*
X146895060Y-106927400D01*
X146928729Y-107106336D01*
X146895060Y-107272600D01*
X146895060Y-107577400D01*
X146928729Y-107756336D01*
X146895060Y-107922600D01*
X146895060Y-108227400D01*
X146927268Y-108398568D01*
X146907500Y-108446291D01*
X146907500Y-108490050D01*
X147046136Y-108628686D01*
X147078410Y-108678841D01*
X147257488Y-108801200D01*
X147066250Y-108801200D01*
X146907500Y-108959950D01*
X146907500Y-109003709D01*
X147004173Y-109237098D01*
X147182801Y-109415727D01*
X147416190Y-109512400D01*
X147752050Y-109512400D01*
X147910800Y-109353650D01*
X147910800Y-108874840D01*
X148164800Y-108874840D01*
X148164800Y-109353650D01*
X148323550Y-109512400D01*
X148659410Y-109512400D01*
X148892799Y-109415727D01*
X149071427Y-109237098D01*
X149168100Y-109003709D01*
X149168100Y-108959950D01*
X149009350Y-108801200D01*
X148814047Y-108801200D01*
X148984541Y-108691490D01*
X149023115Y-108635035D01*
X149168100Y-108490050D01*
X149168100Y-108446291D01*
X149146684Y-108394588D01*
X149180540Y-108227400D01*
X149180540Y-108035000D01*
X152028357Y-108035000D01*
X151913359Y-108111839D01*
X151862599Y-108162599D01*
X151697852Y-108409161D01*
X151640000Y-108700000D01*
X151640000Y-110114905D01*
X151594090Y-110043559D01*
X151381890Y-109898569D01*
X151130000Y-109847560D01*
X150668758Y-109847560D01*
X150641619Y-109829426D01*
X150420631Y-109785469D01*
X150365581Y-109730419D01*
X150133619Y-109575426D01*
X149860000Y-109521000D01*
X148590000Y-109521000D01*
X148316381Y-109575426D01*
X148095824Y-109722798D01*
X148034698Y-109661673D01*
X147801309Y-109565000D01*
X147560750Y-109565000D01*
X147402000Y-109723750D01*
X147402000Y-110448000D01*
X147422000Y-110448000D01*
X147422000Y-110519838D01*
X147219838Y-110722000D01*
X147148000Y-110722000D01*
X147148000Y-110702000D01*
X147128000Y-110702000D01*
X147128000Y-110448000D01*
X147148000Y-110448000D01*
X147148000Y-109723750D01*
X146989250Y-109565000D01*
X146884901Y-109565000D01*
X146885162Y-109264833D01*
X146743117Y-108921057D01*
X146480327Y-108657808D01*
X146136799Y-108515162D01*
X145876000Y-108514935D01*
X145876000Y-103166162D01*
X146555581Y-102486581D01*
X146589990Y-102435085D01*
X146710574Y-102254619D01*
X146728681Y-102163588D01*
X146837574Y-102000619D01*
X146859577Y-101890000D01*
X146870852Y-101833320D01*
X146899673Y-101862192D01*
G36*
X179930000Y-110625198D02*
X179607401Y-110302599D01*
X179360839Y-110137852D01*
X179196526Y-110105168D01*
X179319431Y-109925290D01*
X179370440Y-109673400D01*
X179370440Y-108860600D01*
X179326162Y-108625283D01*
X179256140Y-108516466D01*
X179256140Y-107223919D01*
X179319431Y-107131290D01*
X179370440Y-106879400D01*
X179370440Y-106066600D01*
X179326162Y-105831283D01*
X179264085Y-105734813D01*
X179395631Y-105542290D01*
X179446640Y-105290400D01*
X179446640Y-103969600D01*
X179402362Y-103734283D01*
X179278077Y-103541139D01*
X179221948Y-103258961D01*
X179209795Y-103240773D01*
X179250641Y-103214490D01*
X179395631Y-103002290D01*
X179446640Y-102750400D01*
X179446640Y-101429600D01*
X179402362Y-101194283D01*
X179263290Y-100978159D01*
X179223900Y-100951245D01*
X179315000Y-100731310D01*
X179315000Y-100515750D01*
X179156250Y-100357000D01*
X178407000Y-100357000D01*
X178407000Y-100377000D01*
X178153000Y-100377000D01*
X178153000Y-100357000D01*
X178134000Y-100357000D01*
X178134000Y-100103000D01*
X178153000Y-100103000D01*
X178153000Y-98867000D01*
X178407000Y-98867000D01*
X178407000Y-100103000D01*
X179156250Y-100103000D01*
X179315000Y-99944250D01*
X179315000Y-99728690D01*
X179218327Y-99495301D01*
X179208026Y-99485000D01*
X179218327Y-99474699D01*
X179315000Y-99241310D01*
X179315000Y-99025750D01*
X179156250Y-98867000D01*
X178407000Y-98867000D01*
X178153000Y-98867000D01*
X178133000Y-98867000D01*
X178133000Y-98613000D01*
X178153000Y-98613000D01*
X178153000Y-97888750D01*
X178407000Y-97888750D01*
X178407000Y-98613000D01*
X179156250Y-98613000D01*
X179315000Y-98454250D01*
X179315000Y-98238690D01*
X179218327Y-98005301D01*
X179039698Y-97826673D01*
X178806309Y-97730000D01*
X178565750Y-97730000D01*
X178407000Y-97888750D01*
X178153000Y-97888750D01*
X177994250Y-97730000D01*
X177753691Y-97730000D01*
X177520302Y-97826673D01*
X177518932Y-97828043D01*
X177431890Y-97768569D01*
X177180000Y-97717560D01*
X176960722Y-97717560D01*
X176908581Y-97665419D01*
X176676619Y-97510426D01*
X176403000Y-97456000D01*
X176121384Y-97456000D01*
X176044327Y-97378808D01*
X175700799Y-97236162D01*
X175328833Y-97235838D01*
X175070000Y-97342785D01*
X175070000Y-86414802D01*
X175637362Y-85847440D01*
X175745000Y-85847440D01*
X175980317Y-85803162D01*
X176196441Y-85664090D01*
X176341431Y-85451890D01*
X176392440Y-85200000D01*
X176392440Y-84400000D01*
X176348162Y-84164683D01*
X176274380Y-84050022D01*
X176341431Y-83951890D01*
X176392440Y-83700000D01*
X176392440Y-82900000D01*
X176348162Y-82664683D01*
X176209090Y-82448559D01*
X175996890Y-82303569D01*
X175745000Y-82252560D01*
X174995000Y-82252560D01*
X174759683Y-82296838D01*
X174543559Y-82435910D01*
X174398569Y-82648110D01*
X174373886Y-82770000D01*
X172462440Y-82770000D01*
X172462440Y-81230000D01*
X172449269Y-81160000D01*
X179930000Y-81160000D01*
X179930000Y-110625198D01*
X179930000Y-110625198D01*
G37*
X179930000Y-110625198D02*
X179607401Y-110302599D01*
X179360839Y-110137852D01*
X179196526Y-110105168D01*
X179319431Y-109925290D01*
X179370440Y-109673400D01*
X179370440Y-108860600D01*
X179326162Y-108625283D01*
X179256140Y-108516466D01*
X179256140Y-107223919D01*
X179319431Y-107131290D01*
X179370440Y-106879400D01*
X179370440Y-106066600D01*
X179326162Y-105831283D01*
X179264085Y-105734813D01*
X179395631Y-105542290D01*
X179446640Y-105290400D01*
X179446640Y-103969600D01*
X179402362Y-103734283D01*
X179278077Y-103541139D01*
X179221948Y-103258961D01*
X179209795Y-103240773D01*
X179250641Y-103214490D01*
X179395631Y-103002290D01*
X179446640Y-102750400D01*
X179446640Y-101429600D01*
X179402362Y-101194283D01*
X179263290Y-100978159D01*
X179223900Y-100951245D01*
X179315000Y-100731310D01*
X179315000Y-100515750D01*
X179156250Y-100357000D01*
X178407000Y-100357000D01*
X178407000Y-100377000D01*
X178153000Y-100377000D01*
X178153000Y-100357000D01*
X178134000Y-100357000D01*
X178134000Y-100103000D01*
X178153000Y-100103000D01*
X178153000Y-98867000D01*
X178407000Y-98867000D01*
X178407000Y-100103000D01*
X179156250Y-100103000D01*
X179315000Y-99944250D01*
X179315000Y-99728690D01*
X179218327Y-99495301D01*
X179208026Y-99485000D01*
X179218327Y-99474699D01*
X179315000Y-99241310D01*
X179315000Y-99025750D01*
X179156250Y-98867000D01*
X178407000Y-98867000D01*
X178153000Y-98867000D01*
X178133000Y-98867000D01*
X178133000Y-98613000D01*
X178153000Y-98613000D01*
X178153000Y-97888750D01*
X178407000Y-97888750D01*
X178407000Y-98613000D01*
X179156250Y-98613000D01*
X179315000Y-98454250D01*
X179315000Y-98238690D01*
X179218327Y-98005301D01*
X179039698Y-97826673D01*
X178806309Y-97730000D01*
X178565750Y-97730000D01*
X178407000Y-97888750D01*
X178153000Y-97888750D01*
X177994250Y-97730000D01*
X177753691Y-97730000D01*
X177520302Y-97826673D01*
X177518932Y-97828043D01*
X177431890Y-97768569D01*
X177180000Y-97717560D01*
X176960722Y-97717560D01*
X176908581Y-97665419D01*
X176676619Y-97510426D01*
X176403000Y-97456000D01*
X176121384Y-97456000D01*
X176044327Y-97378808D01*
X175700799Y-97236162D01*
X175328833Y-97235838D01*
X175070000Y-97342785D01*
X175070000Y-86414802D01*
X175637362Y-85847440D01*
X175745000Y-85847440D01*
X175980317Y-85803162D01*
X176196441Y-85664090D01*
X176341431Y-85451890D01*
X176392440Y-85200000D01*
X176392440Y-84400000D01*
X176348162Y-84164683D01*
X176274380Y-84050022D01*
X176341431Y-83951890D01*
X176392440Y-83700000D01*
X176392440Y-82900000D01*
X176348162Y-82664683D01*
X176209090Y-82448559D01*
X175996890Y-82303569D01*
X175745000Y-82252560D01*
X174995000Y-82252560D01*
X174759683Y-82296838D01*
X174543559Y-82435910D01*
X174398569Y-82648110D01*
X174373886Y-82770000D01*
X172462440Y-82770000D01*
X172462440Y-81230000D01*
X172449269Y-81160000D01*
X179930000Y-81160000D01*
X179930000Y-110625198D01*
G36*
X141059460Y-108877400D02*
X141103738Y-109112717D01*
X141242810Y-109328841D01*
X141455010Y-109473831D01*
X141706900Y-109524840D01*
X142260018Y-109524840D01*
X142048559Y-109660910D01*
X141912527Y-109860000D01*
X141594780Y-109860000D01*
X141486799Y-109815162D01*
X141114833Y-109814838D01*
X140771057Y-109956883D01*
X140568418Y-110159168D01*
X140526250Y-110117000D01*
X140445949Y-110117000D01*
X140301890Y-110018569D01*
X140164880Y-109990824D01*
X140285317Y-109968162D01*
X140448743Y-109863000D01*
X140526250Y-109863000D01*
X140685000Y-109704250D01*
X140685000Y-109538690D01*
X140669732Y-109501829D01*
X140697440Y-109365000D01*
X140697440Y-108790000D01*
X141059460Y-108790000D01*
X141059460Y-108877400D01*
X141059460Y-108877400D01*
G37*
X141059460Y-108877400D02*
X141103738Y-109112717D01*
X141242810Y-109328841D01*
X141455010Y-109473831D01*
X141706900Y-109524840D01*
X142260018Y-109524840D01*
X142048559Y-109660910D01*
X141912527Y-109860000D01*
X141594780Y-109860000D01*
X141486799Y-109815162D01*
X141114833Y-109814838D01*
X140771057Y-109956883D01*
X140568418Y-110159168D01*
X140526250Y-110117000D01*
X140445949Y-110117000D01*
X140301890Y-110018569D01*
X140164880Y-109990824D01*
X140285317Y-109968162D01*
X140448743Y-109863000D01*
X140526250Y-109863000D01*
X140685000Y-109704250D01*
X140685000Y-109538690D01*
X140669732Y-109501829D01*
X140697440Y-109365000D01*
X140697440Y-108790000D01*
X141059460Y-108790000D01*
X141059460Y-108877400D01*
G36*
X122385000Y-106679250D02*
X122543750Y-106838000D01*
X122772560Y-106838000D01*
X122772560Y-107092000D01*
X122543750Y-107092000D01*
X122385000Y-107250750D01*
X122385000Y-107806309D01*
X122481673Y-108039698D01*
X122555406Y-108113431D01*
X122334419Y-108334419D01*
X122265000Y-108438311D01*
X122265000Y-106590000D01*
X122385000Y-106590000D01*
X122385000Y-106679250D01*
X122385000Y-106679250D01*
G37*
X122385000Y-106679250D02*
X122543750Y-106838000D01*
X122772560Y-106838000D01*
X122772560Y-107092000D01*
X122543750Y-107092000D01*
X122385000Y-107250750D01*
X122385000Y-107806309D01*
X122481673Y-108039698D01*
X122555406Y-108113431D01*
X122334419Y-108334419D01*
X122265000Y-108438311D01*
X122265000Y-106590000D01*
X122385000Y-106590000D01*
X122385000Y-106679250D01*
G36*
X177592960Y-104777000D02*
X177567040Y-104777000D01*
X177567040Y-104483000D01*
X177592960Y-104483000D01*
X177592960Y-104777000D01*
X177592960Y-104777000D01*
G37*
X177592960Y-104777000D02*
X177567040Y-104777000D01*
X177567040Y-104483000D01*
X177592960Y-104483000D01*
X177592960Y-104777000D01*
G36*
X152386560Y-99186000D02*
X152430838Y-99421317D01*
X152569910Y-99637441D01*
X152732948Y-99748840D01*
X152643615Y-99845182D01*
X152444025Y-100327056D01*
X152563164Y-100583000D01*
X153923000Y-100583000D01*
X153923000Y-100563000D01*
X154177000Y-100563000D01*
X154177000Y-100583000D01*
X155536836Y-100583000D01*
X155655975Y-100327056D01*
X155456385Y-99845182D01*
X155365903Y-99747602D01*
X155517441Y-99650090D01*
X155630224Y-99485026D01*
X156770000Y-100624802D01*
X156770000Y-101965086D01*
X156484833Y-101964838D01*
X156141057Y-102106883D01*
X156087847Y-102160000D01*
X154772676Y-102160000D01*
X155018379Y-102047188D01*
X155456385Y-101574818D01*
X155655975Y-101092944D01*
X155536836Y-100837000D01*
X154177000Y-100837000D01*
X154177000Y-100857000D01*
X153923000Y-100857000D01*
X153923000Y-100837000D01*
X152563164Y-100837000D01*
X152444025Y-101092944D01*
X152643615Y-101574818D01*
X153081621Y-102047188D01*
X153327324Y-102160000D01*
X150841163Y-102160000D01*
X151015615Y-101985548D01*
X151207401Y-101857401D01*
X151267401Y-101797401D01*
X151432148Y-101550839D01*
X151490000Y-101260000D01*
X151490000Y-100589322D01*
X151521441Y-100569090D01*
X151666431Y-100356890D01*
X151717440Y-100105000D01*
X151717440Y-99355000D01*
X151673162Y-99119683D01*
X151546238Y-98922438D01*
X151551441Y-98919090D01*
X151605481Y-98840000D01*
X152386560Y-98840000D01*
X152386560Y-99186000D01*
X152386560Y-99186000D01*
G37*
X152386560Y-99186000D02*
X152430838Y-99421317D01*
X152569910Y-99637441D01*
X152732948Y-99748840D01*
X152643615Y-99845182D01*
X152444025Y-100327056D01*
X152563164Y-100583000D01*
X153923000Y-100583000D01*
X153923000Y-100563000D01*
X154177000Y-100563000D01*
X154177000Y-100583000D01*
X155536836Y-100583000D01*
X155655975Y-100327056D01*
X155456385Y-99845182D01*
X155365903Y-99747602D01*
X155517441Y-99650090D01*
X155630224Y-99485026D01*
X156770000Y-100624802D01*
X156770000Y-101965086D01*
X156484833Y-101964838D01*
X156141057Y-102106883D01*
X156087847Y-102160000D01*
X154772676Y-102160000D01*
X155018379Y-102047188D01*
X155456385Y-101574818D01*
X155655975Y-101092944D01*
X155536836Y-100837000D01*
X154177000Y-100837000D01*
X154177000Y-100857000D01*
X153923000Y-100857000D01*
X153923000Y-100837000D01*
X152563164Y-100837000D01*
X152444025Y-101092944D01*
X152643615Y-101574818D01*
X153081621Y-102047188D01*
X153327324Y-102160000D01*
X150841163Y-102160000D01*
X151015615Y-101985548D01*
X151207401Y-101857401D01*
X151267401Y-101797401D01*
X151432148Y-101550839D01*
X151490000Y-101260000D01*
X151490000Y-100589322D01*
X151521441Y-100569090D01*
X151666431Y-100356890D01*
X151717440Y-100105000D01*
X151717440Y-99355000D01*
X151673162Y-99119683D01*
X151546238Y-98922438D01*
X151551441Y-98919090D01*
X151605481Y-98840000D01*
X152386560Y-98840000D01*
X152386560Y-99186000D01*
G36*
X149377000Y-96677000D02*
X149357000Y-96677000D01*
X149357000Y-97198750D01*
X149327000Y-97228750D01*
X149327000Y-97953000D01*
X149347000Y-97953000D01*
X149347000Y-98207000D01*
X149327000Y-98207000D01*
X149327000Y-98848750D01*
X149297000Y-98878750D01*
X149297000Y-99603000D01*
X149317000Y-99603000D01*
X149317000Y-99857000D01*
X149297000Y-99857000D01*
X149297000Y-100581250D01*
X149399000Y-100683250D01*
X149399000Y-100965000D01*
X149453426Y-101238619D01*
X149568299Y-101410538D01*
X149383838Y-101595000D01*
X148665000Y-101595000D01*
X148665000Y-101590000D01*
X148610574Y-101316381D01*
X148455581Y-101084419D01*
X148365067Y-100993905D01*
X148365162Y-100884833D01*
X148223117Y-100541057D01*
X148073386Y-100391065D01*
X148112192Y-100352327D01*
X148148705Y-100264396D01*
X148231673Y-100464699D01*
X148410302Y-100643327D01*
X148643691Y-100740000D01*
X148884250Y-100740000D01*
X149043000Y-100581250D01*
X149043000Y-99857000D01*
X149023000Y-99857000D01*
X149023000Y-99603000D01*
X149043000Y-99603000D01*
X149043000Y-98961250D01*
X149073000Y-98931250D01*
X149073000Y-98207000D01*
X149053000Y-98207000D01*
X149053000Y-97953000D01*
X149073000Y-97953000D01*
X149073000Y-97431250D01*
X149103000Y-97401250D01*
X149103000Y-96677000D01*
X149083000Y-96677000D01*
X149083000Y-96625000D01*
X149377000Y-96625000D01*
X149377000Y-96677000D01*
X149377000Y-96677000D01*
G37*
X149377000Y-96677000D02*
X149357000Y-96677000D01*
X149357000Y-97198750D01*
X149327000Y-97228750D01*
X149327000Y-97953000D01*
X149347000Y-97953000D01*
X149347000Y-98207000D01*
X149327000Y-98207000D01*
X149327000Y-98848750D01*
X149297000Y-98878750D01*
X149297000Y-99603000D01*
X149317000Y-99603000D01*
X149317000Y-99857000D01*
X149297000Y-99857000D01*
X149297000Y-100581250D01*
X149399000Y-100683250D01*
X149399000Y-100965000D01*
X149453426Y-101238619D01*
X149568299Y-101410538D01*
X149383838Y-101595000D01*
X148665000Y-101595000D01*
X148665000Y-101590000D01*
X148610574Y-101316381D01*
X148455581Y-101084419D01*
X148365067Y-100993905D01*
X148365162Y-100884833D01*
X148223117Y-100541057D01*
X148073386Y-100391065D01*
X148112192Y-100352327D01*
X148148705Y-100264396D01*
X148231673Y-100464699D01*
X148410302Y-100643327D01*
X148643691Y-100740000D01*
X148884250Y-100740000D01*
X149043000Y-100581250D01*
X149043000Y-99857000D01*
X149023000Y-99857000D01*
X149023000Y-99603000D01*
X149043000Y-99603000D01*
X149043000Y-98961250D01*
X149073000Y-98931250D01*
X149073000Y-98207000D01*
X149053000Y-98207000D01*
X149053000Y-97953000D01*
X149073000Y-97953000D01*
X149073000Y-97431250D01*
X149103000Y-97401250D01*
X149103000Y-96677000D01*
X149083000Y-96677000D01*
X149083000Y-96625000D01*
X149377000Y-96625000D01*
X149377000Y-96677000D01*
G36*
X138384006Y-90035214D02*
X138383838Y-90228167D01*
X138525883Y-90571943D01*
X138788673Y-90835192D01*
X139103941Y-90966103D01*
X139262837Y-91125000D01*
X138810000Y-91125000D01*
X138536381Y-91179426D01*
X138336475Y-91313000D01*
X138304419Y-91334419D01*
X137719419Y-91919419D01*
X137564426Y-92151381D01*
X137510000Y-92425000D01*
X137510000Y-93750000D01*
X137564426Y-94023619D01*
X137719419Y-94255581D01*
X139010000Y-95546163D01*
X139010000Y-96142560D01*
X138895000Y-96142560D01*
X138789295Y-96162450D01*
X138771310Y-96155000D01*
X138741250Y-96155000D01*
X138720938Y-96175312D01*
X138659683Y-96186838D01*
X138519273Y-96277190D01*
X138396890Y-96193569D01*
X138322192Y-96178442D01*
X138298750Y-96155000D01*
X138268690Y-96155000D01*
X138248247Y-96163468D01*
X138145000Y-96142560D01*
X137934877Y-96142560D01*
X137935162Y-95814833D01*
X137793117Y-95471057D01*
X137530327Y-95207808D01*
X137186799Y-95065162D01*
X136814833Y-95064838D01*
X136471057Y-95206883D01*
X136207808Y-95469673D01*
X136065162Y-95813201D01*
X136064875Y-96142560D01*
X135895000Y-96142560D01*
X135765411Y-96166944D01*
X135716000Y-96156938D01*
X135716000Y-93599000D01*
X135661574Y-93325381D01*
X135506581Y-93093419D01*
X134912797Y-92499635D01*
X134962192Y-92450327D01*
X135104838Y-92106799D01*
X135104871Y-92069174D01*
X135288943Y-91993117D01*
X135552192Y-91730327D01*
X135652341Y-91489143D01*
X135908943Y-91383117D01*
X136172192Y-91120327D01*
X136314838Y-90776799D01*
X136314859Y-90752123D01*
X136418943Y-90709117D01*
X136682192Y-90446327D01*
X136824838Y-90102799D01*
X136824907Y-90023246D01*
X136895000Y-90037440D01*
X137145000Y-90037440D01*
X137274589Y-90013056D01*
X137395000Y-90037440D01*
X137645000Y-90037440D01*
X137774589Y-90013056D01*
X137895000Y-90037440D01*
X138145000Y-90037440D01*
X138274589Y-90013056D01*
X138384006Y-90035214D01*
X138384006Y-90035214D01*
G37*
X138384006Y-90035214D02*
X138383838Y-90228167D01*
X138525883Y-90571943D01*
X138788673Y-90835192D01*
X139103941Y-90966103D01*
X139262837Y-91125000D01*
X138810000Y-91125000D01*
X138536381Y-91179426D01*
X138336475Y-91313000D01*
X138304419Y-91334419D01*
X137719419Y-91919419D01*
X137564426Y-92151381D01*
X137510000Y-92425000D01*
X137510000Y-93750000D01*
X137564426Y-94023619D01*
X137719419Y-94255581D01*
X139010000Y-95546163D01*
X139010000Y-96142560D01*
X138895000Y-96142560D01*
X138789295Y-96162450D01*
X138771310Y-96155000D01*
X138741250Y-96155000D01*
X138720938Y-96175312D01*
X138659683Y-96186838D01*
X138519273Y-96277190D01*
X138396890Y-96193569D01*
X138322192Y-96178442D01*
X138298750Y-96155000D01*
X138268690Y-96155000D01*
X138248247Y-96163468D01*
X138145000Y-96142560D01*
X137934877Y-96142560D01*
X137935162Y-95814833D01*
X137793117Y-95471057D01*
X137530327Y-95207808D01*
X137186799Y-95065162D01*
X136814833Y-95064838D01*
X136471057Y-95206883D01*
X136207808Y-95469673D01*
X136065162Y-95813201D01*
X136064875Y-96142560D01*
X135895000Y-96142560D01*
X135765411Y-96166944D01*
X135716000Y-96156938D01*
X135716000Y-93599000D01*
X135661574Y-93325381D01*
X135506581Y-93093419D01*
X134912797Y-92499635D01*
X134962192Y-92450327D01*
X135104838Y-92106799D01*
X135104871Y-92069174D01*
X135288943Y-91993117D01*
X135552192Y-91730327D01*
X135652341Y-91489143D01*
X135908943Y-91383117D01*
X136172192Y-91120327D01*
X136314838Y-90776799D01*
X136314859Y-90752123D01*
X136418943Y-90709117D01*
X136682192Y-90446327D01*
X136824838Y-90102799D01*
X136824907Y-90023246D01*
X136895000Y-90037440D01*
X137145000Y-90037440D01*
X137274589Y-90013056D01*
X137395000Y-90037440D01*
X137645000Y-90037440D01*
X137774589Y-90013056D01*
X137895000Y-90037440D01*
X138145000Y-90037440D01*
X138274589Y-90013056D01*
X138384006Y-90035214D01*
G36*
X134286000Y-93895162D02*
X134286000Y-96163070D01*
X134265411Y-96166944D01*
X134145000Y-96142560D01*
X134109227Y-96142560D01*
X134144838Y-96056799D01*
X134145162Y-95684833D01*
X134003117Y-95341057D01*
X133740327Y-95077808D01*
X133396799Y-94935162D01*
X133217440Y-94935006D01*
X133217440Y-94715000D01*
X133193056Y-94585411D01*
X133217440Y-94465000D01*
X133217440Y-94215000D01*
X133193056Y-94085411D01*
X133217440Y-93965000D01*
X133217440Y-93715000D01*
X133193056Y-93585411D01*
X133217440Y-93465000D01*
X133217440Y-93215000D01*
X133193056Y-93085411D01*
X133217440Y-92965000D01*
X133217440Y-92826602D01*
X134286000Y-93895162D01*
X134286000Y-93895162D01*
G37*
X134286000Y-93895162D02*
X134286000Y-96163070D01*
X134265411Y-96166944D01*
X134145000Y-96142560D01*
X134109227Y-96142560D01*
X134144838Y-96056799D01*
X134145162Y-95684833D01*
X134003117Y-95341057D01*
X133740327Y-95077808D01*
X133396799Y-94935162D01*
X133217440Y-94935006D01*
X133217440Y-94715000D01*
X133193056Y-94585411D01*
X133217440Y-94465000D01*
X133217440Y-94215000D01*
X133193056Y-94085411D01*
X133217440Y-93965000D01*
X133217440Y-93715000D01*
X133193056Y-93585411D01*
X133217440Y-93465000D01*
X133217440Y-93215000D01*
X133193056Y-93085411D01*
X133217440Y-92965000D01*
X133217440Y-92826602D01*
X134286000Y-93895162D01*
G36*
X164697560Y-81230000D02*
X164697560Y-85830000D01*
X164741838Y-86065317D01*
X164880910Y-86281441D01*
X165093110Y-86426431D01*
X165345000Y-86477440D01*
X166735000Y-86477440D01*
X166970317Y-86433162D01*
X167186441Y-86294090D01*
X167313119Y-86108691D01*
X167346673Y-86189698D01*
X167525301Y-86368327D01*
X167758690Y-86465000D01*
X168294250Y-86465000D01*
X168453000Y-86306250D01*
X168453000Y-83657000D01*
X168433000Y-83657000D01*
X168433000Y-83403000D01*
X168453000Y-83403000D01*
X168453000Y-83383000D01*
X168707000Y-83383000D01*
X168707000Y-83403000D01*
X168727000Y-83403000D01*
X168727000Y-83657000D01*
X168707000Y-83657000D01*
X168707000Y-86306250D01*
X168865750Y-86465000D01*
X169401310Y-86465000D01*
X169634699Y-86368327D01*
X169813327Y-86189698D01*
X169848004Y-86105980D01*
X169960910Y-86281441D01*
X170173110Y-86426431D01*
X170425000Y-86477440D01*
X171815000Y-86477440D01*
X172050317Y-86433162D01*
X172266441Y-86294090D01*
X172411431Y-86081890D01*
X172462440Y-85830000D01*
X172462440Y-84290000D01*
X174369836Y-84290000D01*
X174347560Y-84400000D01*
X174347560Y-84987638D01*
X173772599Y-85562599D01*
X173607852Y-85809161D01*
X173550000Y-86100000D01*
X173550000Y-87332560D01*
X163180000Y-87332560D01*
X162944683Y-87376838D01*
X162728559Y-87515910D01*
X162583569Y-87728110D01*
X162532560Y-87980000D01*
X162532560Y-92814398D01*
X161758169Y-92040007D01*
X161955192Y-91843327D01*
X162097838Y-91499799D01*
X162098162Y-91127833D01*
X161956117Y-90784057D01*
X161693327Y-90520808D01*
X161349799Y-90378162D01*
X160977833Y-90377838D01*
X160634057Y-90519883D01*
X160370808Y-90782673D01*
X160228162Y-91126201D01*
X160228066Y-91236772D01*
X159977838Y-91487000D01*
X158068000Y-91487000D01*
X158068000Y-89916000D01*
X158013574Y-89642381D01*
X158002172Y-89625317D01*
X157858581Y-89410418D01*
X157560000Y-89111838D01*
X157560000Y-86967384D01*
X157637192Y-86890327D01*
X157779838Y-86546799D01*
X157779865Y-86516140D01*
X158252270Y-86516140D01*
X158252270Y-88601490D01*
X158296548Y-88836807D01*
X158435620Y-89052931D01*
X158647820Y-89197921D01*
X158899710Y-89248930D01*
X161000290Y-89248930D01*
X161235607Y-89204652D01*
X161451731Y-89065580D01*
X161596721Y-88853380D01*
X161647730Y-88601490D01*
X161647730Y-83000790D01*
X161603452Y-82765473D01*
X161464380Y-82549349D01*
X161252180Y-82404359D01*
X161000290Y-82353350D01*
X158980686Y-82353350D01*
X158987440Y-82320000D01*
X158987440Y-81420000D01*
X158943162Y-81184683D01*
X158927279Y-81160000D01*
X164711735Y-81160000D01*
X164697560Y-81230000D01*
X164697560Y-81230000D01*
G37*
X164697560Y-81230000D02*
X164697560Y-85830000D01*
X164741838Y-86065317D01*
X164880910Y-86281441D01*
X165093110Y-86426431D01*
X165345000Y-86477440D01*
X166735000Y-86477440D01*
X166970317Y-86433162D01*
X167186441Y-86294090D01*
X167313119Y-86108691D01*
X167346673Y-86189698D01*
X167525301Y-86368327D01*
X167758690Y-86465000D01*
X168294250Y-86465000D01*
X168453000Y-86306250D01*
X168453000Y-83657000D01*
X168433000Y-83657000D01*
X168433000Y-83403000D01*
X168453000Y-83403000D01*
X168453000Y-83383000D01*
X168707000Y-83383000D01*
X168707000Y-83403000D01*
X168727000Y-83403000D01*
X168727000Y-83657000D01*
X168707000Y-83657000D01*
X168707000Y-86306250D01*
X168865750Y-86465000D01*
X169401310Y-86465000D01*
X169634699Y-86368327D01*
X169813327Y-86189698D01*
X169848004Y-86105980D01*
X169960910Y-86281441D01*
X170173110Y-86426431D01*
X170425000Y-86477440D01*
X171815000Y-86477440D01*
X172050317Y-86433162D01*
X172266441Y-86294090D01*
X172411431Y-86081890D01*
X172462440Y-85830000D01*
X172462440Y-84290000D01*
X174369836Y-84290000D01*
X174347560Y-84400000D01*
X174347560Y-84987638D01*
X173772599Y-85562599D01*
X173607852Y-85809161D01*
X173550000Y-86100000D01*
X173550000Y-87332560D01*
X163180000Y-87332560D01*
X162944683Y-87376838D01*
X162728559Y-87515910D01*
X162583569Y-87728110D01*
X162532560Y-87980000D01*
X162532560Y-92814398D01*
X161758169Y-92040007D01*
X161955192Y-91843327D01*
X162097838Y-91499799D01*
X162098162Y-91127833D01*
X161956117Y-90784057D01*
X161693327Y-90520808D01*
X161349799Y-90378162D01*
X160977833Y-90377838D01*
X160634057Y-90519883D01*
X160370808Y-90782673D01*
X160228162Y-91126201D01*
X160228066Y-91236772D01*
X159977838Y-91487000D01*
X158068000Y-91487000D01*
X158068000Y-89916000D01*
X158013574Y-89642381D01*
X158002172Y-89625317D01*
X157858581Y-89410418D01*
X157560000Y-89111838D01*
X157560000Y-86967384D01*
X157637192Y-86890327D01*
X157779838Y-86546799D01*
X157779865Y-86516140D01*
X158252270Y-86516140D01*
X158252270Y-88601490D01*
X158296548Y-88836807D01*
X158435620Y-89052931D01*
X158647820Y-89197921D01*
X158899710Y-89248930D01*
X161000290Y-89248930D01*
X161235607Y-89204652D01*
X161451731Y-89065580D01*
X161596721Y-88853380D01*
X161647730Y-88601490D01*
X161647730Y-83000790D01*
X161603452Y-82765473D01*
X161464380Y-82549349D01*
X161252180Y-82404359D01*
X161000290Y-82353350D01*
X158980686Y-82353350D01*
X158987440Y-82320000D01*
X158987440Y-81420000D01*
X158943162Y-81184683D01*
X158927279Y-81160000D01*
X164711735Y-81160000D01*
X164697560Y-81230000D01*
G36*
X151607000Y-88203000D02*
X151627000Y-88203000D01*
X151627000Y-88457000D01*
X151607000Y-88457000D01*
X151607000Y-89028750D01*
X151597000Y-89038750D01*
X151597000Y-89763000D01*
X151617000Y-89763000D01*
X151617000Y-90017000D01*
X151597000Y-90017000D01*
X151597000Y-90741250D01*
X151607000Y-90751250D01*
X151607000Y-91303000D01*
X151627000Y-91303000D01*
X151627000Y-91555000D01*
X151333000Y-91555000D01*
X151333000Y-91303000D01*
X151353000Y-91303000D01*
X151353000Y-90578750D01*
X151343000Y-90568750D01*
X151343000Y-90017000D01*
X151323000Y-90017000D01*
X151323000Y-89844818D01*
X151370574Y-89773619D01*
X151425000Y-89500000D01*
X151425000Y-88183000D01*
X151607000Y-88183000D01*
X151607000Y-88203000D01*
X151607000Y-88203000D01*
G37*
X151607000Y-88203000D02*
X151627000Y-88203000D01*
X151627000Y-88457000D01*
X151607000Y-88457000D01*
X151607000Y-89028750D01*
X151597000Y-89038750D01*
X151597000Y-89763000D01*
X151617000Y-89763000D01*
X151617000Y-90017000D01*
X151597000Y-90017000D01*
X151597000Y-90741250D01*
X151607000Y-90751250D01*
X151607000Y-91303000D01*
X151627000Y-91303000D01*
X151627000Y-91555000D01*
X151333000Y-91555000D01*
X151333000Y-91303000D01*
X151353000Y-91303000D01*
X151353000Y-90578750D01*
X151343000Y-90568750D01*
X151343000Y-90017000D01*
X151323000Y-90017000D01*
X151323000Y-89844818D01*
X151370574Y-89773619D01*
X151425000Y-89500000D01*
X151425000Y-88183000D01*
X151607000Y-88183000D01*
X151607000Y-88203000D01*
G36*
X143432227Y-90628564D02*
X143071577Y-90944983D01*
X143069618Y-90944982D01*
X143090574Y-90913619D01*
X143099616Y-90868162D01*
X143145000Y-90640000D01*
X143145000Y-88456162D01*
X143406163Y-88195000D01*
X143411431Y-88195000D01*
X143432227Y-90628564D01*
X143432227Y-90628564D01*
G37*
X143432227Y-90628564D02*
X143071577Y-90944983D01*
X143069618Y-90944982D01*
X143090574Y-90913619D01*
X143099616Y-90868162D01*
X143145000Y-90640000D01*
X143145000Y-88456162D01*
X143406163Y-88195000D01*
X143411431Y-88195000D01*
X143432227Y-90628564D01*
G36*
X155909838Y-86545167D02*
X156051883Y-86888943D01*
X156130000Y-86967196D01*
X156130000Y-89408000D01*
X156145193Y-89484380D01*
X156061354Y-89538329D01*
X156059698Y-89536673D01*
X155826309Y-89440000D01*
X155585750Y-89440000D01*
X155427000Y-89598750D01*
X155427000Y-90323000D01*
X155447000Y-90323000D01*
X155447000Y-90344398D01*
X155436799Y-90340162D01*
X155153000Y-90339915D01*
X155153000Y-90323000D01*
X155173000Y-90323000D01*
X155173000Y-89598750D01*
X155095000Y-89520750D01*
X155095000Y-87316162D01*
X155895023Y-86516140D01*
X155909863Y-86516140D01*
X155909838Y-86545167D01*
X155909838Y-86545167D01*
G37*
X155909838Y-86545167D02*
X156051883Y-86888943D01*
X156130000Y-86967196D01*
X156130000Y-89408000D01*
X156145193Y-89484380D01*
X156061354Y-89538329D01*
X156059698Y-89536673D01*
X155826309Y-89440000D01*
X155585750Y-89440000D01*
X155427000Y-89598750D01*
X155427000Y-90323000D01*
X155447000Y-90323000D01*
X155447000Y-90344398D01*
X155436799Y-90340162D01*
X155153000Y-90339915D01*
X155153000Y-90323000D01*
X155173000Y-90323000D01*
X155173000Y-89598750D01*
X155095000Y-89520750D01*
X155095000Y-87316162D01*
X155895023Y-86516140D01*
X155909863Y-86516140D01*
X155909838Y-86545167D01*
G36*
X146470000Y-88053691D02*
X146470000Y-88194250D01*
X146493310Y-88217560D01*
X146420000Y-88217560D01*
X146184683Y-88261838D01*
X145968559Y-88400910D01*
X145823569Y-88613110D01*
X145772560Y-88865000D01*
X145772560Y-89095000D01*
X145785000Y-89161113D01*
X145785000Y-89163750D01*
X145785611Y-89164361D01*
X145816838Y-89330317D01*
X145847539Y-89378028D01*
X145823569Y-89413110D01*
X145786859Y-89594391D01*
X145785000Y-89596250D01*
X145785000Y-89603569D01*
X145782680Y-89615028D01*
X145564833Y-89614838D01*
X145221057Y-89756883D01*
X144957808Y-90019673D01*
X144859107Y-90257369D01*
X144845587Y-88675199D01*
X145269245Y-88664535D01*
X145396959Y-88635772D01*
X145525318Y-88610150D01*
X145532720Y-88605197D01*
X145541408Y-88603240D01*
X145648370Y-88527808D01*
X145757176Y-88455000D01*
X146296446Y-87915000D01*
X146527448Y-87915000D01*
X146470000Y-88053691D01*
X146470000Y-88053691D01*
G37*
X146470000Y-88053691D02*
X146470000Y-88194250D01*
X146493310Y-88217560D01*
X146420000Y-88217560D01*
X146184683Y-88261838D01*
X145968559Y-88400910D01*
X145823569Y-88613110D01*
X145772560Y-88865000D01*
X145772560Y-89095000D01*
X145785000Y-89161113D01*
X145785000Y-89163750D01*
X145785611Y-89164361D01*
X145816838Y-89330317D01*
X145847539Y-89378028D01*
X145823569Y-89413110D01*
X145786859Y-89594391D01*
X145785000Y-89596250D01*
X145785000Y-89603569D01*
X145782680Y-89615028D01*
X145564833Y-89614838D01*
X145221057Y-89756883D01*
X144957808Y-90019673D01*
X144859107Y-90257369D01*
X144845587Y-88675199D01*
X145269245Y-88664535D01*
X145396959Y-88635772D01*
X145525318Y-88610150D01*
X145532720Y-88605197D01*
X145541408Y-88603240D01*
X145648370Y-88527808D01*
X145757176Y-88455000D01*
X146296446Y-87915000D01*
X146527448Y-87915000D01*
X146470000Y-88053691D01*
G36*
X133805000Y-85736163D02*
X133805000Y-87461250D01*
X133798750Y-87455000D01*
X133768690Y-87455000D01*
X133748247Y-87463468D01*
X133645000Y-87442560D01*
X133395000Y-87442560D01*
X133159683Y-87486838D01*
X133136379Y-87501833D01*
X133028799Y-87457162D01*
X132656833Y-87456838D01*
X132577440Y-87489642D01*
X132577440Y-86940000D01*
X132533162Y-86704683D01*
X132481939Y-86625081D01*
X132575167Y-86625162D01*
X132918943Y-86483117D01*
X133182192Y-86220327D01*
X133324838Y-85876799D01*
X133325162Y-85504833D01*
X133300440Y-85445000D01*
X133513838Y-85445000D01*
X133805000Y-85736163D01*
X133805000Y-85736163D01*
G37*
X133805000Y-85736163D02*
X133805000Y-87461250D01*
X133798750Y-87455000D01*
X133768690Y-87455000D01*
X133748247Y-87463468D01*
X133645000Y-87442560D01*
X133395000Y-87442560D01*
X133159683Y-87486838D01*
X133136379Y-87501833D01*
X133028799Y-87457162D01*
X132656833Y-87456838D01*
X132577440Y-87489642D01*
X132577440Y-86940000D01*
X132533162Y-86704683D01*
X132481939Y-86625081D01*
X132575167Y-86625162D01*
X132918943Y-86483117D01*
X133182192Y-86220327D01*
X133324838Y-85876799D01*
X133325162Y-85504833D01*
X133300440Y-85445000D01*
X133513838Y-85445000D01*
X133805000Y-85736163D01*
G36*
X130130330Y-84174415D02*
X130475000Y-84404716D01*
X130475000Y-84460000D01*
X130503842Y-84605000D01*
X130443750Y-84605000D01*
X130285000Y-84763750D01*
X130285000Y-85563000D01*
X130307000Y-85563000D01*
X130307000Y-85817000D01*
X130285000Y-85817000D01*
X130285000Y-85837000D01*
X130035000Y-85837000D01*
X130035000Y-85817000D01*
X129433750Y-85817000D01*
X129370956Y-85879794D01*
X128604852Y-85113690D01*
X129275000Y-85113690D01*
X129275000Y-85404250D01*
X129433750Y-85563000D01*
X130035000Y-85563000D01*
X130035000Y-84763750D01*
X129876250Y-84605000D01*
X129783691Y-84605000D01*
X129550302Y-84701673D01*
X129371673Y-84880301D01*
X129275000Y-85113690D01*
X128604852Y-85113690D01*
X127817100Y-84325938D01*
X128076511Y-84499271D01*
X128650000Y-84613345D01*
X129223489Y-84499271D01*
X129709670Y-84174415D01*
X129920000Y-83859634D01*
X130130330Y-84174415D01*
X130130330Y-84174415D01*
G37*
X130130330Y-84174415D02*
X130475000Y-84404716D01*
X130475000Y-84460000D01*
X130503842Y-84605000D01*
X130443750Y-84605000D01*
X130285000Y-84763750D01*
X130285000Y-85563000D01*
X130307000Y-85563000D01*
X130307000Y-85817000D01*
X130285000Y-85817000D01*
X130285000Y-85837000D01*
X130035000Y-85837000D01*
X130035000Y-85817000D01*
X129433750Y-85817000D01*
X129370956Y-85879794D01*
X128604852Y-85113690D01*
X129275000Y-85113690D01*
X129275000Y-85404250D01*
X129433750Y-85563000D01*
X130035000Y-85563000D01*
X130035000Y-84763750D01*
X129876250Y-84605000D01*
X129783691Y-84605000D01*
X129550302Y-84701673D01*
X129371673Y-84880301D01*
X129275000Y-85113690D01*
X128604852Y-85113690D01*
X127817100Y-84325938D01*
X128076511Y-84499271D01*
X128650000Y-84613345D01*
X129223489Y-84499271D01*
X129709670Y-84174415D01*
X129920000Y-83859634D01*
X130130330Y-84174415D01*
G36*
X114658046Y-83844320D02*
X115047964Y-84280732D01*
X115575209Y-84534709D01*
X115590974Y-84537358D01*
X115822998Y-84416218D01*
X115822998Y-84432866D01*
X115702222Y-84482893D01*
X115523593Y-84661521D01*
X115515086Y-84682060D01*
X115484699Y-84651673D01*
X115251310Y-84555000D01*
X115035750Y-84555000D01*
X114877000Y-84713750D01*
X114877000Y-85463000D01*
X114897000Y-85463000D01*
X114897000Y-85717000D01*
X114877000Y-85717000D01*
X114877000Y-85737000D01*
X114623000Y-85737000D01*
X114623000Y-85717000D01*
X114603000Y-85717000D01*
X114603000Y-85463000D01*
X114623000Y-85463000D01*
X114623000Y-84713750D01*
X114540000Y-84630750D01*
X114540000Y-83506849D01*
X114658046Y-83844320D01*
X114658046Y-83844320D01*
G37*
X114658046Y-83844320D02*
X115047964Y-84280732D01*
X115575209Y-84534709D01*
X115590974Y-84537358D01*
X115822998Y-84416218D01*
X115822998Y-84432866D01*
X115702222Y-84482893D01*
X115523593Y-84661521D01*
X115515086Y-84682060D01*
X115484699Y-84651673D01*
X115251310Y-84555000D01*
X115035750Y-84555000D01*
X114877000Y-84713750D01*
X114877000Y-85463000D01*
X114897000Y-85463000D01*
X114897000Y-85717000D01*
X114877000Y-85717000D01*
X114877000Y-85737000D01*
X114623000Y-85737000D01*
X114623000Y-85717000D01*
X114603000Y-85717000D01*
X114603000Y-85463000D01*
X114623000Y-85463000D01*
X114623000Y-84713750D01*
X114540000Y-84630750D01*
X114540000Y-83506849D01*
X114658046Y-83844320D01*
G36*
X116587700Y-85293000D02*
X116607700Y-85293000D01*
X116607700Y-85547000D01*
X116587700Y-85547000D01*
X116587700Y-85567000D01*
X116333700Y-85567000D01*
X116333700Y-85547000D01*
X116313700Y-85547000D01*
X116313700Y-85293000D01*
X116333700Y-85293000D01*
X116333700Y-85273000D01*
X116587700Y-85273000D01*
X116587700Y-85293000D01*
X116587700Y-85293000D01*
G37*
X116587700Y-85293000D02*
X116607700Y-85293000D01*
X116607700Y-85547000D01*
X116587700Y-85547000D01*
X116587700Y-85567000D01*
X116333700Y-85567000D01*
X116333700Y-85547000D01*
X116313700Y-85547000D01*
X116313700Y-85293000D01*
X116333700Y-85293000D01*
X116333700Y-85273000D01*
X116587700Y-85273000D01*
X116587700Y-85293000D01*
G36*
X119970330Y-84174415D02*
X120300717Y-84395173D01*
X120198559Y-84460910D01*
X120152031Y-84529006D01*
X120009698Y-84386673D01*
X119776309Y-84290000D01*
X119683750Y-84290000D01*
X119525000Y-84448750D01*
X119525000Y-85248000D01*
X119547000Y-85248000D01*
X119547000Y-85502000D01*
X119525000Y-85502000D01*
X119525000Y-85522000D01*
X119275000Y-85522000D01*
X119275000Y-85502000D01*
X119253000Y-85502000D01*
X119253000Y-85248000D01*
X119275000Y-85248000D01*
X119275000Y-84448750D01*
X119250000Y-84423750D01*
X119250000Y-84374648D01*
X119549670Y-84174415D01*
X119760000Y-83859634D01*
X119970330Y-84174415D01*
X119970330Y-84174415D01*
G37*
X119970330Y-84174415D02*
X120300717Y-84395173D01*
X120198559Y-84460910D01*
X120152031Y-84529006D01*
X120009698Y-84386673D01*
X119776309Y-84290000D01*
X119683750Y-84290000D01*
X119525000Y-84448750D01*
X119525000Y-85248000D01*
X119547000Y-85248000D01*
X119547000Y-85502000D01*
X119525000Y-85502000D01*
X119525000Y-85522000D01*
X119275000Y-85522000D01*
X119275000Y-85502000D01*
X119253000Y-85502000D01*
X119253000Y-85248000D01*
X119275000Y-85248000D01*
X119275000Y-84448750D01*
X119250000Y-84423750D01*
X119250000Y-84374648D01*
X119549670Y-84174415D01*
X119760000Y-83859634D01*
X119970330Y-84174415D01*
G36*
X131341957Y-81276881D02*
X131190000Y-81246655D01*
X130616511Y-81360729D01*
X130130330Y-81685585D01*
X129920000Y-82000366D01*
X129709670Y-81685585D01*
X129223489Y-81360729D01*
X128650000Y-81246655D01*
X128076511Y-81360729D01*
X127590330Y-81685585D01*
X127383539Y-81995069D01*
X127012036Y-81579268D01*
X126484791Y-81325291D01*
X126469026Y-81322642D01*
X126237000Y-81443783D01*
X126237000Y-82803000D01*
X126257000Y-82803000D01*
X126257000Y-83057000D01*
X126237000Y-83057000D01*
X126237000Y-83077000D01*
X125983000Y-83077000D01*
X125983000Y-83057000D01*
X125963000Y-83057000D01*
X125963000Y-82803000D01*
X125983000Y-82803000D01*
X125983000Y-81443783D01*
X125750974Y-81322642D01*
X125735209Y-81325291D01*
X125207964Y-81579268D01*
X124836461Y-81995069D01*
X124629670Y-81685585D01*
X124143489Y-81360729D01*
X123570000Y-81246655D01*
X122996511Y-81360729D01*
X122510330Y-81685585D01*
X122300000Y-82000366D01*
X122089670Y-81685585D01*
X121603489Y-81360729D01*
X121030000Y-81246655D01*
X120456511Y-81360729D01*
X119970330Y-81685585D01*
X119760000Y-82000366D01*
X119549670Y-81685585D01*
X119063489Y-81360729D01*
X118490000Y-81246655D01*
X117929339Y-81358177D01*
X117731162Y-81160000D01*
X131458838Y-81160000D01*
X131341957Y-81276881D01*
X131341957Y-81276881D01*
G37*
X131341957Y-81276881D02*
X131190000Y-81246655D01*
X130616511Y-81360729D01*
X130130330Y-81685585D01*
X129920000Y-82000366D01*
X129709670Y-81685585D01*
X129223489Y-81360729D01*
X128650000Y-81246655D01*
X128076511Y-81360729D01*
X127590330Y-81685585D01*
X127383539Y-81995069D01*
X127012036Y-81579268D01*
X126484791Y-81325291D01*
X126469026Y-81322642D01*
X126237000Y-81443783D01*
X126237000Y-82803000D01*
X126257000Y-82803000D01*
X126257000Y-83057000D01*
X126237000Y-83057000D01*
X126237000Y-83077000D01*
X125983000Y-83077000D01*
X125983000Y-83057000D01*
X125963000Y-83057000D01*
X125963000Y-82803000D01*
X125983000Y-82803000D01*
X125983000Y-81443783D01*
X125750974Y-81322642D01*
X125735209Y-81325291D01*
X125207964Y-81579268D01*
X124836461Y-81995069D01*
X124629670Y-81685585D01*
X124143489Y-81360729D01*
X123570000Y-81246655D01*
X122996511Y-81360729D01*
X122510330Y-81685585D01*
X122300000Y-82000366D01*
X122089670Y-81685585D01*
X121603489Y-81360729D01*
X121030000Y-81246655D01*
X120456511Y-81360729D01*
X119970330Y-81685585D01*
X119760000Y-82000366D01*
X119549670Y-81685585D01*
X119063489Y-81360729D01*
X118490000Y-81246655D01*
X117929339Y-81358177D01*
X117731162Y-81160000D01*
X131458838Y-81160000D01*
X131341957Y-81276881D01*
G36*
X116077000Y-82803000D02*
X116097000Y-82803000D01*
X116097000Y-83057000D01*
X116077000Y-83057000D01*
X116077000Y-83077000D01*
X115823000Y-83077000D01*
X115823000Y-83057000D01*
X115803000Y-83057000D01*
X115803000Y-82803000D01*
X115823000Y-82803000D01*
X115823000Y-82783000D01*
X116077000Y-82783000D01*
X116077000Y-82803000D01*
X116077000Y-82803000D01*
G37*
X116077000Y-82803000D02*
X116097000Y-82803000D01*
X116097000Y-83057000D01*
X116077000Y-83057000D01*
X116077000Y-83077000D01*
X115823000Y-83077000D01*
X115823000Y-83057000D01*
X115803000Y-83057000D01*
X115803000Y-82803000D01*
X115823000Y-82803000D01*
X115823000Y-82783000D01*
X116077000Y-82783000D01*
X116077000Y-82803000D01*
M02*
