G04 #@! TF.FileFunction,Soldermask,Bot*
%FSLAX46Y46*%
G04 Gerber Fmt 4.6, Leading zero omitted, Abs format (unit mm)*
G04 Created by KiCad (PCBNEW 4.0.0-rc2-stable) date 4/30/2016 4:42:48 AM*
%MOMM*%
G01*
G04 APERTURE LIST*
%ADD10C,0.100000*%
%ADD11R,1.727200X1.727200*%
%ADD12O,1.727200X1.727200*%
%ADD13R,1.727200X2.032000*%
%ADD14O,1.727200X2.032000*%
%ADD15R,2.032000X2.032000*%
%ADD16O,2.032000X2.032000*%
%ADD17R,1.501140X0.749300*%
%ADD18R,1.899920X1.399540*%
%ADD19R,1.399540X1.800860*%
%ADD20R,2.032000X1.727200*%
%ADD21O,2.032000X1.727200*%
G04 APERTURE END LIST*
D10*
D11*
X118490000Y-104520000D03*
D12*
X115950000Y-104520000D03*
X118490000Y-101980000D03*
X115950000Y-101980000D03*
X118490000Y-99440000D03*
X115950000Y-99440000D03*
X118490000Y-96900000D03*
X115950000Y-96900000D03*
X118490000Y-94360000D03*
X115950000Y-94360000D03*
X118490000Y-91820000D03*
X115950000Y-91820000D03*
D13*
X154050000Y-82930000D03*
D14*
X151510000Y-82930000D03*
X148970000Y-82930000D03*
X146430000Y-82930000D03*
X143890000Y-82930000D03*
X141350000Y-82930000D03*
X138810000Y-82930000D03*
X136270000Y-82930000D03*
X133730000Y-82930000D03*
X131190000Y-82930000D03*
X128650000Y-82930000D03*
X126110000Y-82930000D03*
X123570000Y-82930000D03*
X121030000Y-82930000D03*
X118490000Y-82930000D03*
X115950000Y-82930000D03*
D13*
X128650000Y-113410000D03*
D14*
X131190000Y-113410000D03*
X133730000Y-113410000D03*
X136270000Y-113410000D03*
X138810000Y-113410000D03*
D13*
X115950000Y-113410000D03*
D14*
X118490000Y-113410000D03*
X121030000Y-113410000D03*
X123570000Y-113410000D03*
D15*
X151510000Y-113410000D03*
D16*
X154050000Y-113410000D03*
D15*
X143890000Y-113410000D03*
D16*
X146430000Y-113410000D03*
D15*
X154050000Y-98170000D03*
D16*
X154050000Y-100710000D03*
D17*
X168970000Y-93768920D03*
X168970000Y-94868740D03*
X168769340Y-92669100D03*
X168970000Y-91569280D03*
X168970000Y-87170000D03*
X169368780Y-88269820D03*
X168970000Y-89369640D03*
X168769340Y-90469460D03*
D18*
X166120120Y-95569780D03*
X165020300Y-82321140D03*
D19*
X179269700Y-94020380D03*
X179269700Y-88219020D03*
D20*
X113450000Y-91775000D03*
D21*
X113450000Y-94315000D03*
X113450000Y-96855000D03*
X113450000Y-99395000D03*
X113450000Y-101935000D03*
X113450000Y-104475000D03*
M02*
