G04 #@! TF.FileFunction,Copper,L2,Bot,Signal*
%FSLAX46Y46*%
G04 Gerber Fmt 4.6, Leading zero omitted, Abs format (unit mm)*
G04 Created by KiCad (PCBNEW 4.0.0-rc2-stable) date 4/30/2016 6:24:02 PM*
%MOMM*%
G01*
G04 APERTURE LIST*
%ADD10C,0.100000*%
%ADD11R,1.727200X1.727200*%
%ADD12O,1.727200X1.727200*%
%ADD13R,1.727200X2.032000*%
%ADD14O,1.727200X2.032000*%
%ADD15R,2.032000X2.032000*%
%ADD16O,2.032000X2.032000*%
%ADD17R,1.501140X0.749300*%
%ADD18R,1.899920X1.399540*%
%ADD19R,1.399540X1.800860*%
%ADD20R,2.032000X1.727200*%
%ADD21O,2.032000X1.727200*%
%ADD22C,0.600000*%
%ADD23C,0.160000*%
%ADD24C,0.250000*%
%ADD25C,0.254000*%
G04 APERTURE END LIST*
D10*
D11*
X118490000Y-104520000D03*
D12*
X115950000Y-104520000D03*
X118490000Y-101980000D03*
X115950000Y-101980000D03*
X118490000Y-99440000D03*
X115950000Y-99440000D03*
X118490000Y-96900000D03*
X115950000Y-96900000D03*
X118490000Y-94360000D03*
X115950000Y-94360000D03*
X118490000Y-91820000D03*
X115950000Y-91820000D03*
D13*
X154050000Y-82930000D03*
D14*
X151510000Y-82930000D03*
X148970000Y-82930000D03*
X146430000Y-82930000D03*
X143890000Y-82930000D03*
X141350000Y-82930000D03*
X138810000Y-82930000D03*
X136270000Y-82930000D03*
X133730000Y-82930000D03*
X131190000Y-82930000D03*
X128650000Y-82930000D03*
X126110000Y-82930000D03*
X123570000Y-82930000D03*
X121030000Y-82930000D03*
X118490000Y-82930000D03*
X115950000Y-82930000D03*
D13*
X128650000Y-113410000D03*
D14*
X131190000Y-113410000D03*
X133730000Y-113410000D03*
X136270000Y-113410000D03*
X138810000Y-113410000D03*
D13*
X115950000Y-113410000D03*
D14*
X118490000Y-113410000D03*
X121030000Y-113410000D03*
X123570000Y-113410000D03*
D15*
X151510000Y-113410000D03*
D16*
X154050000Y-113410000D03*
D15*
X143890000Y-113410000D03*
D16*
X146430000Y-113410000D03*
D15*
X154050000Y-98170000D03*
D16*
X154050000Y-100710000D03*
D17*
X168970000Y-93768920D03*
X168970000Y-94868740D03*
X168769340Y-92669100D03*
X168970000Y-91569280D03*
X168970000Y-87170000D03*
X169368780Y-88269820D03*
X168970000Y-89369640D03*
X168769340Y-90469460D03*
D18*
X166120120Y-95569780D03*
X165020300Y-82321140D03*
D19*
X179269700Y-94020380D03*
X179269700Y-88219020D03*
D20*
X113450000Y-91775000D03*
D21*
X113450000Y-94315000D03*
X113450000Y-96855000D03*
X113450000Y-99395000D03*
X113450000Y-101935000D03*
X113450000Y-104475000D03*
D22*
X114450000Y-88525000D03*
X148325000Y-97000000D03*
X144850000Y-89350000D03*
X143200000Y-89275000D03*
X146225000Y-103125000D03*
X150200000Y-102450000D03*
X138450000Y-111325000D03*
X135875000Y-94625000D03*
X134200000Y-94625000D03*
X118675000Y-110275000D03*
X122375000Y-110275000D03*
X148150000Y-112475000D03*
X146850000Y-109525000D03*
X174879000Y-94996000D03*
X169799000Y-111506000D03*
X179578000Y-110363000D03*
X133350000Y-87376000D03*
X130937000Y-85852000D03*
X120142000Y-85217000D03*
X156845000Y-110744000D03*
X168148000Y-111506000D03*
X139192000Y-95504000D03*
X141975000Y-92850000D03*
X129413000Y-97155000D03*
X128397000Y-95377000D03*
X170180000Y-87376000D03*
X140589000Y-111125000D03*
X153797000Y-86741000D03*
X154940000Y-87884000D03*
X153035000Y-86995000D03*
X146558000Y-87884000D03*
X147430000Y-101070000D03*
X131620000Y-88950000D03*
X135380000Y-90590000D03*
X145750000Y-90550000D03*
X177575000Y-105850000D03*
X163100000Y-99025000D03*
X158050000Y-96100000D03*
X158000000Y-94625000D03*
X139375000Y-101175000D03*
X130850000Y-96350000D03*
X145950000Y-109450000D03*
X145375000Y-112200000D03*
X140970000Y-96774000D03*
X155448000Y-93472000D03*
X121920000Y-105156000D03*
X120777000Y-105156000D03*
X161163000Y-91313000D03*
X156845000Y-86360000D03*
X156845000Y-85217000D03*
X127127000Y-85471000D03*
X128778000Y-88265000D03*
X132842000Y-88392000D03*
X134760000Y-91200000D03*
X145010000Y-91230000D03*
X153475000Y-116650000D03*
X124650000Y-93600000D03*
X119075000Y-106425000D03*
X123950000Y-103225000D03*
X123190000Y-90551000D03*
X120904000Y-88265000D03*
X174310000Y-107330000D03*
X167600000Y-110260000D03*
X150241000Y-92583000D03*
X158369000Y-92837000D03*
X163576000Y-98171000D03*
X175514000Y-98171000D03*
X155250000Y-91275000D03*
X148875000Y-92350000D03*
X144200000Y-92350000D03*
X139175000Y-92500000D03*
X145034000Y-95885000D03*
X153035000Y-103505000D03*
X151892000Y-103505000D03*
X145669000Y-101600000D03*
X154640000Y-93770000D03*
X146470000Y-95380000D03*
X147320000Y-99822000D03*
X143510000Y-100076000D03*
X142750000Y-92850000D03*
X142820000Y-95900000D03*
X147480000Y-95700000D03*
X156220000Y-96170000D03*
X119126000Y-86741000D03*
X130937000Y-87249000D03*
X133096000Y-90170000D03*
X133096000Y-91694000D03*
X122301000Y-94234000D03*
X119126000Y-89535000D03*
X130190000Y-89080000D03*
X122810000Y-95970000D03*
X120130000Y-100050000D03*
X120830000Y-100790000D03*
X121450000Y-101460000D03*
X139319000Y-90043000D03*
X140081000Y-89281000D03*
X133850000Y-110500000D03*
X135830000Y-110910000D03*
X129020000Y-102290000D03*
X120650000Y-109474000D03*
X121666000Y-102997000D03*
X133900000Y-115550000D03*
X116950000Y-103100000D03*
X134675000Y-112025000D03*
X129625000Y-110600000D03*
X124150000Y-110150000D03*
X121650000Y-109625000D03*
X126620000Y-95350000D03*
X127550000Y-95300000D03*
X141575000Y-115950000D03*
X137000000Y-96000000D03*
X156640000Y-108640000D03*
X133210000Y-95870000D03*
X141300000Y-110750000D03*
X138960000Y-108050000D03*
X141370000Y-111970000D03*
X128397000Y-105791000D03*
X128905000Y-109093000D03*
X125095000Y-109728000D03*
X120650000Y-108712000D03*
X131170000Y-110290000D03*
X131210000Y-111640000D03*
X137922000Y-108204000D03*
X125857000Y-113411000D03*
X138490000Y-86080000D03*
X132390000Y-85690000D03*
X121920000Y-86741000D03*
X135890000Y-89916000D03*
X141230000Y-104140000D03*
X141180000Y-102330000D03*
X140410000Y-101670000D03*
X140450000Y-106760000D03*
X135100000Y-102390000D03*
X139620000Y-106790000D03*
X156780000Y-103590000D03*
X156210000Y-104750000D03*
X155680000Y-105360000D03*
X153920000Y-104810000D03*
X154260000Y-104150000D03*
X156670000Y-102900000D03*
X134560000Y-103000000D03*
X138660000Y-106820000D03*
X124750000Y-90950000D03*
X124770000Y-108890000D03*
X126040000Y-109770000D03*
X125490000Y-91970000D03*
X127170000Y-102410000D03*
X127020000Y-97570000D03*
X131940000Y-102390000D03*
X131920000Y-98610000D03*
X134170000Y-91920000D03*
X143090000Y-91880000D03*
X147574000Y-89789000D03*
X143510000Y-95377000D03*
D23*
X124990000Y-94240000D02*
X125030000Y-94240000D01*
D24*
X115950000Y-87025000D02*
X115950000Y-82930000D01*
X114450000Y-88525000D02*
X115950000Y-87025000D01*
D23*
X159025000Y-91969000D02*
X154940000Y-87884000D01*
X159025000Y-92850000D02*
X159025000Y-91969000D01*
X158350000Y-93525000D02*
X159025000Y-92850000D01*
X157675000Y-94200000D02*
X158350000Y-93525000D01*
X148250000Y-94200000D02*
X157675000Y-94200000D01*
X146975000Y-95475000D02*
X148250000Y-94200000D01*
X146975000Y-96275000D02*
X146975000Y-95475000D01*
X147175000Y-96475000D02*
X146975000Y-96275000D01*
X147800000Y-96475000D02*
X147175000Y-96475000D01*
X148325000Y-97000000D02*
X147800000Y-96475000D01*
X143275000Y-89350000D02*
X144850000Y-89350000D01*
X143200000Y-89275000D02*
X143275000Y-89350000D01*
X149525000Y-103125000D02*
X146225000Y-103125000D01*
X150200000Y-102450000D02*
X149525000Y-103125000D01*
X138810000Y-111685000D02*
X138810000Y-113410000D01*
X138450000Y-111325000D02*
X138810000Y-111685000D01*
X134200000Y-94625000D02*
X135875000Y-94625000D01*
X121400000Y-110275000D02*
X118675000Y-110275000D01*
X122375000Y-110275000D02*
X121400000Y-110275000D01*
X148150000Y-110825000D02*
X148150000Y-112475000D01*
X146850000Y-109525000D02*
X148150000Y-110825000D01*
X174879000Y-94996000D02*
X172593000Y-92710000D01*
X172593000Y-92710000D02*
X168783000Y-92710000D01*
X168783000Y-92710000D02*
X168769340Y-92669100D01*
X169799000Y-111506000D02*
X170688000Y-110617000D01*
X170688000Y-110617000D02*
X171450000Y-110617000D01*
X171450000Y-110617000D02*
X171577000Y-110490000D01*
X171577000Y-110490000D02*
X171704000Y-110490000D01*
X171704000Y-110490000D02*
X171831000Y-110363000D01*
X171831000Y-110363000D02*
X179578000Y-110363000D01*
X133350000Y-87376000D02*
X132080000Y-86106000D01*
X132080000Y-86106000D02*
X131953000Y-86106000D01*
X131953000Y-86106000D02*
X131699000Y-85852000D01*
X131699000Y-85852000D02*
X130937000Y-85852000D01*
X126110000Y-82930000D02*
X125984000Y-83058000D01*
X125984000Y-83058000D02*
X123825000Y-85217000D01*
X123825000Y-85217000D02*
X120142000Y-85217000D01*
X156845000Y-110744000D02*
X157607000Y-111506000D01*
X157607000Y-111506000D02*
X168148000Y-111506000D01*
X141975000Y-92850000D02*
X139192000Y-95504000D01*
X129413000Y-97155000D02*
X129413000Y-96393000D01*
X129413000Y-96393000D02*
X128397000Y-95377000D01*
X168769340Y-92669100D02*
X168783000Y-92710000D01*
X168783000Y-92710000D02*
X169164000Y-92329000D01*
X169164000Y-92329000D02*
X169672000Y-92329000D01*
X169672000Y-92329000D02*
X169799000Y-92202000D01*
X169799000Y-92202000D02*
X169926000Y-92202000D01*
X169926000Y-92202000D02*
X169926000Y-89281000D01*
X169926000Y-89281000D02*
X170307000Y-88900000D01*
X170307000Y-88900000D02*
X170307000Y-87503000D01*
X170307000Y-87503000D02*
X170180000Y-87376000D01*
X140589000Y-111125000D02*
X140589000Y-111633000D01*
X140589000Y-111633000D02*
X138811000Y-113411000D01*
X138811000Y-113411000D02*
X138810000Y-113410000D01*
X153797000Y-86741000D02*
X154940000Y-87884000D01*
X153035000Y-86995000D02*
X152146000Y-87884000D01*
X152146000Y-87884000D02*
X146558000Y-87884000D01*
X133595209Y-100790340D02*
X137634660Y-100790340D01*
X142045000Y-101070000D02*
X147430000Y-101070000D01*
X141350000Y-100375000D02*
X142045000Y-101070000D01*
X138050000Y-100375000D02*
X141350000Y-100375000D01*
X137634660Y-100790340D02*
X138050000Y-100375000D01*
X132840000Y-100350000D02*
X133595209Y-100790340D01*
X133595209Y-100790340D02*
X133598648Y-100792345D01*
X132832094Y-97924895D02*
X132840000Y-100350000D01*
X132178595Y-97404942D02*
X132832094Y-97924895D01*
X131860000Y-89190000D02*
X132178595Y-97404942D01*
X131620000Y-88950000D02*
X131860000Y-89190000D01*
X145710000Y-90590000D02*
X135380000Y-90590000D01*
X145750000Y-90550000D02*
X145710000Y-90590000D01*
X176000000Y-105850000D02*
X177575000Y-105850000D01*
X175650000Y-105500000D02*
X176000000Y-105850000D01*
X175650000Y-99475000D02*
X175650000Y-105500000D01*
X174925000Y-98750000D02*
X175650000Y-99475000D01*
X163375000Y-98750000D02*
X174925000Y-98750000D01*
X163100000Y-99025000D02*
X163375000Y-98750000D01*
X158050000Y-94675000D02*
X158050000Y-96100000D01*
X158000000Y-94625000D02*
X158050000Y-94675000D01*
X121920000Y-105156000D02*
X121920000Y-104480000D01*
X130850000Y-95775000D02*
X130850000Y-96350000D01*
X129575000Y-94500000D02*
X130850000Y-95775000D01*
X126800000Y-94500000D02*
X129575000Y-94500000D01*
X126400000Y-94100000D02*
X126800000Y-94500000D01*
X126400000Y-89850000D02*
X126400000Y-94100000D01*
X126150000Y-89600000D02*
X126400000Y-89850000D01*
X124925000Y-89600000D02*
X126150000Y-89600000D01*
X124100000Y-90425000D02*
X124925000Y-89600000D01*
X124100000Y-102300000D02*
X124100000Y-90425000D01*
X121920000Y-104480000D02*
X124100000Y-102300000D01*
X130850000Y-96350000D02*
X130850000Y-96725000D01*
X130850000Y-96725000D02*
X132450000Y-98325000D01*
X132450000Y-98325000D02*
X132450000Y-100375000D01*
X132450000Y-100375000D02*
X133250000Y-101175000D01*
X133250000Y-101175000D02*
X139375000Y-101175000D01*
X130850000Y-96350000D02*
X130925000Y-96275000D01*
X130925000Y-96275000D02*
X130925000Y-88392000D01*
X145950000Y-111625000D02*
X145950000Y-109450000D01*
X145375000Y-112200000D02*
X145950000Y-111625000D01*
X140970000Y-96774000D02*
X141351000Y-96393000D01*
X141351000Y-96393000D02*
X143129000Y-96393000D01*
X143129000Y-96393000D02*
X143764000Y-95758000D01*
X143764000Y-95758000D02*
X143891000Y-95758000D01*
X143891000Y-95758000D02*
X146431000Y-93218000D01*
X146431000Y-93218000D02*
X154813000Y-93218000D01*
X154813000Y-93218000D02*
X154940000Y-93345000D01*
X154940000Y-93345000D02*
X155067000Y-93345000D01*
X155067000Y-93345000D02*
X155194000Y-93472000D01*
X155194000Y-93472000D02*
X155448000Y-93472000D01*
X121920000Y-105156000D02*
X120777000Y-105156000D01*
X161163000Y-91313000D02*
X161417000Y-91059000D01*
X161417000Y-91059000D02*
X168021000Y-91059000D01*
X168021000Y-91059000D02*
X168656000Y-90424000D01*
X168656000Y-90424000D02*
X168783000Y-90424000D01*
X168783000Y-90424000D02*
X168769340Y-90469460D01*
X156845000Y-86360000D02*
X156845000Y-85217000D01*
X118490000Y-82930000D02*
X118618000Y-82804000D01*
X118618000Y-82804000D02*
X119761000Y-81661000D01*
X119761000Y-81661000D02*
X127127000Y-81661000D01*
X127127000Y-81661000D02*
X128397000Y-82931000D01*
X128397000Y-82931000D02*
X128651000Y-82931000D01*
X128651000Y-82931000D02*
X128650000Y-82930000D01*
X128650000Y-82930000D02*
X128524000Y-83058000D01*
X128524000Y-83058000D02*
X127635000Y-83947000D01*
X127635000Y-83947000D02*
X127635000Y-84963000D01*
X127635000Y-84963000D02*
X127127000Y-85471000D01*
X128778000Y-88265000D02*
X128905000Y-88392000D01*
X128905000Y-88392000D02*
X130925000Y-88392000D01*
X130925000Y-88392000D02*
X132842000Y-88392000D01*
X144980000Y-91200000D02*
X134760000Y-91200000D01*
X145010000Y-91230000D02*
X144980000Y-91200000D01*
D24*
X113700000Y-106770000D02*
X115950000Y-104520000D01*
X113700000Y-115075000D02*
X113700000Y-106770000D01*
X114700000Y-116075000D02*
X113700000Y-115075000D01*
X130375000Y-116075000D02*
X114700000Y-116075000D01*
X130875000Y-116575000D02*
X130375000Y-116075000D01*
X153400000Y-116575000D02*
X130875000Y-116575000D01*
X153475000Y-116650000D02*
X153400000Y-116575000D01*
D23*
X123950000Y-103225000D02*
X123950000Y-103200000D01*
X124650000Y-102500000D02*
X124650000Y-93600000D01*
X123950000Y-103200000D02*
X124650000Y-102500000D01*
X122800000Y-106425000D02*
X119075000Y-106425000D01*
X123025000Y-106200000D02*
X122800000Y-106425000D01*
X123025000Y-104150000D02*
X123025000Y-106200000D01*
X123950000Y-103225000D02*
X123025000Y-104150000D01*
X123190000Y-90551000D02*
X120904000Y-88265000D01*
D24*
X174310000Y-107330000D02*
X171380000Y-110260000D01*
X171380000Y-110260000D02*
X167600000Y-110260000D01*
D23*
X150241000Y-92583000D02*
X150495000Y-92837000D01*
X150495000Y-92837000D02*
X158369000Y-92837000D01*
X163576000Y-98171000D02*
X175514000Y-98171000D01*
X149950000Y-91275000D02*
X155250000Y-91275000D01*
X148875000Y-92350000D02*
X149950000Y-91275000D01*
X139325000Y-92350000D02*
X144200000Y-92350000D01*
X139175000Y-92500000D02*
X139325000Y-92350000D01*
X145034000Y-95885000D02*
X147955000Y-98806000D01*
X147955000Y-98806000D02*
X151384000Y-98806000D01*
X151384000Y-98806000D02*
X151511000Y-98933000D01*
X151511000Y-98933000D02*
X151638000Y-98933000D01*
X151638000Y-98933000D02*
X152654000Y-99949000D01*
X152654000Y-99949000D02*
X152654000Y-103124000D01*
X152654000Y-103124000D02*
X153035000Y-103505000D01*
X151892000Y-103505000D02*
X149987000Y-101600000D01*
X149987000Y-101600000D02*
X145669000Y-101600000D01*
X148080000Y-93770000D02*
X154640000Y-93770000D01*
X146470000Y-95380000D02*
X148080000Y-93770000D01*
X147320000Y-99822000D02*
X147066000Y-100076000D01*
X147066000Y-100076000D02*
X143510000Y-100076000D01*
X142760000Y-92860000D02*
X142750000Y-92850000D01*
X142760000Y-95840000D02*
X142760000Y-92860000D01*
X142820000Y-95900000D02*
X142760000Y-95840000D01*
X147480000Y-95700000D02*
X147950000Y-96170000D01*
X147950000Y-96170000D02*
X156220000Y-96170000D01*
X119126000Y-86741000D02*
X119634000Y-86233000D01*
X119634000Y-86233000D02*
X122047000Y-86233000D01*
X122047000Y-86233000D02*
X122174000Y-86360000D01*
X122174000Y-86360000D02*
X122301000Y-86360000D01*
X122301000Y-86360000D02*
X123190000Y-87249000D01*
X123190000Y-87249000D02*
X130937000Y-87249000D01*
X133096000Y-90170000D02*
X133096000Y-91694000D01*
X122301000Y-94234000D02*
X122301000Y-92710000D01*
X122301000Y-92710000D02*
X119126000Y-89535000D01*
X123730000Y-95500000D02*
X123730000Y-90050000D01*
X120970000Y-104520000D02*
X123730000Y-101760000D01*
X123730000Y-101760000D02*
X123730000Y-95500000D01*
X120970000Y-104520000D02*
X118490000Y-104520000D01*
X124700000Y-89080000D02*
X130190000Y-89080000D01*
X123730000Y-90050000D02*
X124700000Y-89080000D01*
X120810000Y-101980000D02*
X121300000Y-102470000D01*
X121300000Y-102470000D02*
X122080000Y-102470000D01*
X122080000Y-102470000D02*
X122900000Y-101650000D01*
X122900000Y-101650000D02*
X122890000Y-96050000D01*
X122890000Y-96050000D02*
X122810000Y-95970000D01*
X118490000Y-101980000D02*
X120810000Y-101980000D01*
X119720000Y-96950000D02*
X118490000Y-96900000D01*
X120050000Y-97540000D02*
X119720000Y-96950000D01*
X120110000Y-100030000D02*
X120050000Y-97540000D01*
X120130000Y-100050000D02*
X120110000Y-100030000D01*
X120760000Y-96630000D02*
X118490000Y-94360000D01*
X120760000Y-100720000D02*
X120760000Y-96630000D01*
X120830000Y-100790000D02*
X120760000Y-100720000D01*
X119890000Y-93220000D02*
X118490000Y-91820000D01*
X119890000Y-94040000D02*
X119890000Y-93220000D01*
X121470000Y-95620000D02*
X119890000Y-94040000D01*
X121470000Y-101440000D02*
X121470000Y-95620000D01*
X121450000Y-101460000D02*
X121470000Y-101440000D01*
X139319000Y-90043000D02*
X139573000Y-89789000D01*
X139573000Y-89789000D02*
X140208000Y-89789000D01*
X140208000Y-89789000D02*
X140335000Y-89662000D01*
X140335000Y-89662000D02*
X140462000Y-89662000D01*
X140462000Y-89662000D02*
X145669000Y-84455000D01*
X145669000Y-84455000D02*
X147701000Y-84455000D01*
X147701000Y-84455000D02*
X147955000Y-84201000D01*
X147955000Y-84201000D02*
X149987000Y-84201000D01*
X149987000Y-84201000D02*
X151257000Y-82931000D01*
X151257000Y-82931000D02*
X151511000Y-82931000D01*
X151511000Y-82931000D02*
X151510000Y-82930000D01*
X140081000Y-89281000D02*
X145161000Y-84201000D01*
X145161000Y-84201000D02*
X147447000Y-84201000D01*
X147447000Y-84201000D02*
X148717000Y-82931000D01*
X148717000Y-82931000D02*
X148971000Y-82931000D01*
X148971000Y-82931000D02*
X148970000Y-82930000D01*
X133850000Y-110500000D02*
X133477000Y-112141000D01*
X133477000Y-112141000D02*
X130175000Y-112141000D01*
X130175000Y-112141000D02*
X128905000Y-113411000D01*
X128905000Y-113411000D02*
X128651000Y-113411000D01*
X128651000Y-113411000D02*
X128650000Y-113410000D01*
X129020000Y-102290000D02*
X129020000Y-108240000D01*
X135830000Y-109490000D02*
X135830000Y-110910000D01*
X134890000Y-108550000D02*
X135830000Y-109490000D01*
X129330000Y-108550000D02*
X134890000Y-108550000D01*
X129020000Y-108240000D02*
X129330000Y-108550000D01*
X129020000Y-102290000D02*
X129240000Y-102510000D01*
X120650000Y-109474000D02*
X120269000Y-109093000D01*
X120269000Y-109093000D02*
X120269000Y-108966000D01*
X120269000Y-108966000D02*
X120142000Y-108839000D01*
X120142000Y-108839000D02*
X120142000Y-108204000D01*
X120142000Y-108204000D02*
X117275000Y-105600000D01*
X117275000Y-105600000D02*
X117250000Y-103550000D01*
X117250000Y-103550000D02*
X117983000Y-102997000D01*
X117983000Y-102997000D02*
X121666000Y-102997000D01*
X115375000Y-115550000D02*
X133900000Y-115550000D01*
X114475000Y-114650000D02*
X115375000Y-115550000D01*
X114589846Y-110623997D02*
X114475000Y-114650000D01*
X115900000Y-109525000D02*
X114589846Y-110623997D01*
X119400000Y-109525000D02*
X115900000Y-109525000D01*
X119825000Y-109075000D02*
X119400000Y-109525000D01*
X119800000Y-108425000D02*
X119825000Y-109075000D01*
X116975000Y-105825000D02*
X119800000Y-108425000D01*
X116950000Y-103100000D02*
X116975000Y-105825000D01*
X134675000Y-110000000D02*
X134675000Y-112025000D01*
X134325000Y-109650000D02*
X134675000Y-110000000D01*
X130575000Y-109650000D02*
X134325000Y-109650000D01*
X129625000Y-110600000D02*
X130575000Y-109650000D01*
X123700000Y-109700000D02*
X124150000Y-110150000D01*
X121725000Y-109700000D02*
X123700000Y-109700000D01*
X121650000Y-109625000D02*
X121725000Y-109700000D01*
X126620000Y-95350000D02*
X126620000Y-96440000D01*
X115950000Y-111590000D02*
X115950000Y-113410000D01*
X116810000Y-110730000D02*
X115950000Y-111590000D01*
X126630000Y-110730000D02*
X116810000Y-110730000D01*
X127160000Y-110200000D02*
X126630000Y-110730000D01*
X127160000Y-109730000D02*
X127160000Y-110200000D01*
X126390000Y-108960000D02*
X127160000Y-109730000D01*
X126390000Y-96670000D02*
X126390000Y-108960000D01*
X126620000Y-96440000D02*
X126390000Y-96670000D01*
X127550000Y-95300000D02*
X127550000Y-96510000D01*
X118490000Y-111830000D02*
X118490000Y-113410000D01*
X119170000Y-111150000D02*
X118490000Y-111830000D01*
X127170000Y-111150000D02*
X119170000Y-111150000D01*
X127800000Y-110520000D02*
X127170000Y-111150000D01*
X127800000Y-96760000D02*
X127800000Y-110520000D01*
X127550000Y-96510000D02*
X127800000Y-96760000D01*
X155300000Y-102350000D02*
X155250000Y-102350000D01*
X141625000Y-115900000D02*
X141575000Y-115950000D01*
X155625000Y-115900000D02*
X141625000Y-115900000D01*
X156250000Y-115275000D02*
X155625000Y-115900000D01*
X156250000Y-110300000D02*
X156250000Y-115275000D01*
X157175000Y-109375000D02*
X156250000Y-110300000D01*
X157175000Y-107550000D02*
X157175000Y-109375000D01*
X156175000Y-106550000D02*
X157175000Y-107550000D01*
X154375000Y-106550000D02*
X156175000Y-106550000D01*
X153075000Y-105250000D02*
X154375000Y-106550000D01*
X153075000Y-104525000D02*
X153075000Y-105250000D01*
X155250000Y-102350000D02*
X153075000Y-104525000D01*
X155925000Y-101725000D02*
X155300000Y-102350000D01*
X155300000Y-102350000D02*
X155275000Y-102375000D01*
X155925000Y-100225000D02*
X155925000Y-101725000D01*
X155175000Y-99475000D02*
X155925000Y-100225000D01*
X152825000Y-99475000D02*
X155175000Y-99475000D01*
X151650000Y-98300000D02*
X152825000Y-99475000D01*
X148425000Y-98300000D02*
X151650000Y-98300000D01*
X145150000Y-95025000D02*
X148425000Y-98300000D01*
X145100000Y-95025000D02*
X145150000Y-95025000D01*
X143875000Y-96250000D02*
X145100000Y-95025000D01*
X143875000Y-97350000D02*
X143875000Y-96250000D01*
X142650000Y-98575000D02*
X143875000Y-97350000D01*
X137025000Y-98575000D02*
X142650000Y-98575000D01*
X136400000Y-97950000D02*
X137025000Y-98575000D01*
X136400000Y-96600000D02*
X136400000Y-97950000D01*
X137000000Y-96000000D02*
X136400000Y-96600000D01*
X152472683Y-105584956D02*
X156640000Y-108640000D01*
X152250000Y-100150000D02*
X152472683Y-105584956D01*
X151320000Y-99140000D02*
X152250000Y-100150000D01*
X136480000Y-99140000D02*
X151320000Y-99140000D01*
X133210000Y-95870000D02*
X136480000Y-99140000D01*
X141300000Y-110750000D02*
X141310000Y-110750000D01*
X141310000Y-110750000D02*
X141300000Y-110750000D01*
X141300000Y-110750000D02*
X141310000Y-110750000D01*
X141310000Y-110400000D02*
X138960000Y-108050000D01*
X141310000Y-111910000D02*
X141310000Y-110750000D01*
X141310000Y-110750000D02*
X141310000Y-110400000D01*
X141370000Y-111970000D02*
X141310000Y-111910000D01*
X128397000Y-105791000D02*
X128397000Y-108585000D01*
X128397000Y-108585000D02*
X128905000Y-109093000D01*
X125095000Y-109728000D02*
X124714000Y-109347000D01*
X124714000Y-109347000D02*
X124460000Y-109347000D01*
X124460000Y-109347000D02*
X123825000Y-108712000D01*
X123825000Y-108712000D02*
X120650000Y-108712000D01*
X131170000Y-111600000D02*
X131170000Y-110290000D01*
X131210000Y-111640000D02*
X131170000Y-111600000D01*
X137922000Y-108204000D02*
X137922000Y-109601000D01*
X137922000Y-109601000D02*
X135382000Y-112141000D01*
X135382000Y-112141000D02*
X135255000Y-112141000D01*
X135255000Y-112141000D02*
X135255000Y-114046000D01*
X135255000Y-114046000D02*
X134747000Y-114554000D01*
X134747000Y-114554000D02*
X134747000Y-114681000D01*
X134747000Y-114681000D02*
X127635000Y-114681000D01*
X127635000Y-114681000D02*
X126365000Y-113411000D01*
X126365000Y-113411000D02*
X125857000Y-113411000D01*
X137410000Y-85000000D02*
X138490000Y-86080000D01*
X133080000Y-85000000D02*
X137410000Y-85000000D01*
X132390000Y-85690000D02*
X133080000Y-85000000D01*
X121920000Y-86741000D02*
X122936000Y-87757000D01*
X122936000Y-87757000D02*
X128905000Y-87757000D01*
X128905000Y-87757000D02*
X129032000Y-87884000D01*
X129032000Y-87884000D02*
X132969000Y-87884000D01*
X132969000Y-87884000D02*
X133096000Y-88011000D01*
X133096000Y-88011000D02*
X133223000Y-88011000D01*
X133223000Y-88011000D02*
X135128000Y-89916000D01*
X135128000Y-89916000D02*
X135890000Y-89916000D01*
X141180000Y-104090000D02*
X141180000Y-102330000D01*
X141230000Y-104140000D02*
X141180000Y-104090000D01*
X140410000Y-106720000D02*
X140410000Y-101670000D01*
X140450000Y-106760000D02*
X140410000Y-106720000D01*
X139000000Y-102390000D02*
X135100000Y-102390000D01*
X139630000Y-103020000D02*
X139000000Y-102390000D01*
X139630000Y-106780000D02*
X139630000Y-103020000D01*
X139620000Y-106790000D02*
X139630000Y-106780000D01*
X168970000Y-89369640D02*
X161790360Y-89369640D01*
X160430000Y-99940000D02*
X156780000Y-103590000D01*
X160430000Y-90730000D02*
X160430000Y-99940000D01*
X161790360Y-89369640D02*
X160430000Y-90730000D01*
X168970000Y-91569280D02*
X162150720Y-91569280D01*
X156330000Y-104750000D02*
X156210000Y-104750000D01*
X160930000Y-100150000D02*
X156330000Y-104750000D01*
X160930000Y-92790000D02*
X160930000Y-100150000D01*
X162150720Y-91569280D02*
X160930000Y-92790000D01*
X168970000Y-93768920D02*
X162101080Y-93768920D01*
X156750000Y-105360000D02*
X155680000Y-105360000D01*
X161530000Y-100580000D02*
X156750000Y-105360000D01*
X161530000Y-94340000D02*
X161530000Y-100580000D01*
X162101080Y-93768920D02*
X161530000Y-94340000D01*
X168970000Y-94868740D02*
X167848740Y-94868740D01*
X155250000Y-106140000D02*
X153920000Y-104810000D01*
X156740000Y-106140000D02*
X155250000Y-106140000D01*
X162410000Y-100470000D02*
X156740000Y-106140000D01*
X162410000Y-94850000D02*
X162410000Y-100470000D01*
X162850000Y-94410000D02*
X162410000Y-94850000D01*
X167390000Y-94410000D02*
X162850000Y-94410000D01*
X167848740Y-94868740D02*
X167390000Y-94410000D01*
X168970000Y-87170000D02*
X161710000Y-87170000D01*
X159350000Y-99060000D02*
X154260000Y-104150000D01*
X159350000Y-89530000D02*
X159350000Y-99060000D01*
X161710000Y-87170000D02*
X159350000Y-89530000D01*
X161800180Y-88269820D02*
X169368780Y-88269820D01*
X159900000Y-90170000D02*
X161800180Y-88269820D01*
X159900000Y-99670000D02*
X159900000Y-90170000D01*
X156670000Y-102900000D02*
X159900000Y-99670000D01*
X138230000Y-103000000D02*
X134560000Y-103000000D01*
X138670000Y-103440000D02*
X138230000Y-103000000D01*
X138670000Y-106810000D02*
X138670000Y-103440000D01*
X138660000Y-106820000D02*
X138670000Y-106810000D01*
X124770000Y-108890000D02*
X124770000Y-108530000D01*
X124750000Y-92150000D02*
X124750000Y-90950000D01*
X125250000Y-92650000D02*
X124750000Y-92150000D01*
X125250000Y-108050000D02*
X125250000Y-92650000D01*
X124770000Y-108530000D02*
X125250000Y-108050000D01*
X124750000Y-90950000D02*
X124770000Y-90970000D01*
X124610000Y-108730000D02*
X124770000Y-108890000D01*
X125660000Y-109390000D02*
X126040000Y-109770000D01*
X125660000Y-92140000D02*
X125660000Y-109390000D01*
X125490000Y-91970000D02*
X125660000Y-92140000D01*
X127170000Y-97720000D02*
X127170000Y-102410000D01*
X127020000Y-97570000D02*
X127170000Y-97720000D01*
X131940000Y-98630000D02*
X131940000Y-102390000D01*
X131920000Y-98610000D02*
X131940000Y-98630000D01*
X179269700Y-94020380D02*
X179269700Y-95320300D01*
X179020220Y-95569780D02*
X166120120Y-95569780D01*
X179269700Y-95320300D02*
X179020220Y-95569780D01*
X179269700Y-94020380D02*
X179269700Y-88219020D01*
X165020300Y-82321140D02*
X176091140Y-82321140D01*
X179269700Y-85499700D02*
X179269700Y-88219020D01*
X176091140Y-82321140D02*
X179269700Y-85499700D01*
X143050000Y-91920000D02*
X134170000Y-91920000D01*
X143090000Y-91880000D02*
X143050000Y-91920000D01*
X147574000Y-89789000D02*
X147574000Y-91313000D01*
X147574000Y-91313000D02*
X143510000Y-95377000D01*
D25*
G36*
X164522720Y-96269550D02*
X164566998Y-96504867D01*
X164706070Y-96720991D01*
X164918270Y-96865981D01*
X165170160Y-96916990D01*
X167070080Y-96916990D01*
X167305397Y-96872712D01*
X167521521Y-96733640D01*
X167666511Y-96521440D01*
X167714436Y-96284780D01*
X179020220Y-96284780D01*
X179293839Y-96230354D01*
X179525801Y-96075361D01*
X179775281Y-95825881D01*
X179930000Y-95594329D01*
X179930000Y-116480000D01*
X156019206Y-116480000D01*
X156130581Y-116405581D01*
X156755581Y-115780582D01*
X156910574Y-115548619D01*
X156912766Y-115537599D01*
X156965000Y-115275000D01*
X156965000Y-110596162D01*
X157115995Y-110445167D01*
X166664838Y-110445167D01*
X166806883Y-110788943D01*
X167069673Y-111052192D01*
X167413201Y-111194838D01*
X167785167Y-111195162D01*
X168128943Y-111053117D01*
X168162118Y-111020000D01*
X171380000Y-111020000D01*
X171670839Y-110962148D01*
X171917401Y-110797401D01*
X174449680Y-108265122D01*
X174495167Y-108265162D01*
X174838943Y-108123117D01*
X175102192Y-107860327D01*
X175244838Y-107516799D01*
X175245162Y-107144833D01*
X175103117Y-106801057D01*
X174840327Y-106537808D01*
X174496799Y-106395162D01*
X174124833Y-106394838D01*
X173781057Y-106536883D01*
X173517808Y-106799673D01*
X173375162Y-107143201D01*
X173375121Y-107190077D01*
X171065198Y-109500000D01*
X168162463Y-109500000D01*
X168130327Y-109467808D01*
X167786799Y-109325162D01*
X167414833Y-109324838D01*
X167071057Y-109466883D01*
X166807808Y-109729673D01*
X166665162Y-110073201D01*
X166664838Y-110445167D01*
X157115995Y-110445167D01*
X157680582Y-109880581D01*
X157835575Y-109648618D01*
X157890000Y-109375000D01*
X157890000Y-107550000D01*
X157879060Y-107495000D01*
X157835575Y-107276382D01*
X157680582Y-107044419D01*
X157263662Y-106627500D01*
X162915581Y-100975581D01*
X162975722Y-100885574D01*
X163070574Y-100743619D01*
X163125000Y-100470000D01*
X163125000Y-99960022D01*
X163285167Y-99960162D01*
X163628943Y-99818117D01*
X163892192Y-99555327D01*
X163929699Y-99465000D01*
X174628838Y-99465000D01*
X174935000Y-99771162D01*
X174935000Y-105500000D01*
X174989426Y-105773619D01*
X175144419Y-106005581D01*
X175494419Y-106355582D01*
X175581278Y-106413619D01*
X175726381Y-106510574D01*
X176000000Y-106565000D01*
X176967616Y-106565000D01*
X177044673Y-106642192D01*
X177388201Y-106784838D01*
X177760167Y-106785162D01*
X178103943Y-106643117D01*
X178367192Y-106380327D01*
X178509838Y-106036799D01*
X178510162Y-105664833D01*
X178368117Y-105321057D01*
X178105327Y-105057808D01*
X177761799Y-104915162D01*
X177389833Y-104914838D01*
X177046057Y-105056883D01*
X176967804Y-105135000D01*
X176365000Y-105135000D01*
X176365000Y-99475000D01*
X176310574Y-99201381D01*
X176155581Y-98969419D01*
X176096658Y-98910496D01*
X176306192Y-98701327D01*
X176448838Y-98357799D01*
X176449162Y-97985833D01*
X176307117Y-97642057D01*
X176044327Y-97378808D01*
X175700799Y-97236162D01*
X175328833Y-97235838D01*
X174985057Y-97377883D01*
X174906804Y-97456000D01*
X164183384Y-97456000D01*
X164106327Y-97378808D01*
X163762799Y-97236162D01*
X163390833Y-97235838D01*
X163125000Y-97345678D01*
X163125000Y-95146162D01*
X163146162Y-95125000D01*
X164522720Y-95125000D01*
X164522720Y-96269550D01*
X164522720Y-96269550D01*
G37*
X164522720Y-96269550D02*
X164566998Y-96504867D01*
X164706070Y-96720991D01*
X164918270Y-96865981D01*
X165170160Y-96916990D01*
X167070080Y-96916990D01*
X167305397Y-96872712D01*
X167521521Y-96733640D01*
X167666511Y-96521440D01*
X167714436Y-96284780D01*
X179020220Y-96284780D01*
X179293839Y-96230354D01*
X179525801Y-96075361D01*
X179775281Y-95825881D01*
X179930000Y-95594329D01*
X179930000Y-116480000D01*
X156019206Y-116480000D01*
X156130581Y-116405581D01*
X156755581Y-115780582D01*
X156910574Y-115548619D01*
X156912766Y-115537599D01*
X156965000Y-115275000D01*
X156965000Y-110596162D01*
X157115995Y-110445167D01*
X166664838Y-110445167D01*
X166806883Y-110788943D01*
X167069673Y-111052192D01*
X167413201Y-111194838D01*
X167785167Y-111195162D01*
X168128943Y-111053117D01*
X168162118Y-111020000D01*
X171380000Y-111020000D01*
X171670839Y-110962148D01*
X171917401Y-110797401D01*
X174449680Y-108265122D01*
X174495167Y-108265162D01*
X174838943Y-108123117D01*
X175102192Y-107860327D01*
X175244838Y-107516799D01*
X175245162Y-107144833D01*
X175103117Y-106801057D01*
X174840327Y-106537808D01*
X174496799Y-106395162D01*
X174124833Y-106394838D01*
X173781057Y-106536883D01*
X173517808Y-106799673D01*
X173375162Y-107143201D01*
X173375121Y-107190077D01*
X171065198Y-109500000D01*
X168162463Y-109500000D01*
X168130327Y-109467808D01*
X167786799Y-109325162D01*
X167414833Y-109324838D01*
X167071057Y-109466883D01*
X166807808Y-109729673D01*
X166665162Y-110073201D01*
X166664838Y-110445167D01*
X157115995Y-110445167D01*
X157680582Y-109880581D01*
X157835575Y-109648618D01*
X157890000Y-109375000D01*
X157890000Y-107550000D01*
X157879060Y-107495000D01*
X157835575Y-107276382D01*
X157680582Y-107044419D01*
X157263662Y-106627500D01*
X162915581Y-100975581D01*
X162975722Y-100885574D01*
X163070574Y-100743619D01*
X163125000Y-100470000D01*
X163125000Y-99960022D01*
X163285167Y-99960162D01*
X163628943Y-99818117D01*
X163892192Y-99555327D01*
X163929699Y-99465000D01*
X174628838Y-99465000D01*
X174935000Y-99771162D01*
X174935000Y-105500000D01*
X174989426Y-105773619D01*
X175144419Y-106005581D01*
X175494419Y-106355582D01*
X175581278Y-106413619D01*
X175726381Y-106510574D01*
X176000000Y-106565000D01*
X176967616Y-106565000D01*
X177044673Y-106642192D01*
X177388201Y-106784838D01*
X177760167Y-106785162D01*
X178103943Y-106643117D01*
X178367192Y-106380327D01*
X178509838Y-106036799D01*
X178510162Y-105664833D01*
X178368117Y-105321057D01*
X178105327Y-105057808D01*
X177761799Y-104915162D01*
X177389833Y-104914838D01*
X177046057Y-105056883D01*
X176967804Y-105135000D01*
X176365000Y-105135000D01*
X176365000Y-99475000D01*
X176310574Y-99201381D01*
X176155581Y-98969419D01*
X176096658Y-98910496D01*
X176306192Y-98701327D01*
X176448838Y-98357799D01*
X176449162Y-97985833D01*
X176307117Y-97642057D01*
X176044327Y-97378808D01*
X175700799Y-97236162D01*
X175328833Y-97235838D01*
X174985057Y-97377883D01*
X174906804Y-97456000D01*
X164183384Y-97456000D01*
X164106327Y-97378808D01*
X163762799Y-97236162D01*
X163390833Y-97235838D01*
X163125000Y-97345678D01*
X163125000Y-95146162D01*
X163146162Y-95125000D01*
X164522720Y-95125000D01*
X164522720Y-96269550D01*
G36*
X142045000Y-101785000D02*
X144733838Y-101785000D01*
X144733838Y-101785167D01*
X144875883Y-102128943D01*
X145138673Y-102392192D01*
X145482201Y-102534838D01*
X145854167Y-102535162D01*
X146197943Y-102393117D01*
X146276196Y-102315000D01*
X149690838Y-102315000D01*
X150956933Y-103581095D01*
X150956838Y-103690167D01*
X151098883Y-104033943D01*
X151361673Y-104297192D01*
X151705201Y-104439838D01*
X151710165Y-104439842D01*
X151758282Y-105614227D01*
X151767772Y-105653464D01*
X151766015Y-105693786D01*
X151800300Y-105787960D01*
X151823864Y-105885388D01*
X151847645Y-105918004D01*
X151861453Y-105955932D01*
X151929174Y-106029823D01*
X151988223Y-106110811D01*
X152022674Y-106131843D01*
X152049947Y-106161601D01*
X155714215Y-108847862D01*
X155846883Y-109168943D01*
X156108161Y-109430677D01*
X155744419Y-109794419D01*
X155589426Y-110026381D01*
X155535000Y-110300000D01*
X155535000Y-112685494D01*
X155217433Y-112210222D01*
X154681810Y-111852330D01*
X154050000Y-111726655D01*
X153418190Y-111852330D01*
X153078208Y-112079499D01*
X152990090Y-111942559D01*
X152777890Y-111797569D01*
X152526000Y-111746560D01*
X150494000Y-111746560D01*
X150258683Y-111790838D01*
X150042559Y-111929910D01*
X149897569Y-112142110D01*
X149846560Y-112394000D01*
X149846560Y-114426000D01*
X149890838Y-114661317D01*
X150029910Y-114877441D01*
X150242110Y-115022431D01*
X150494000Y-115073440D01*
X152526000Y-115073440D01*
X152761317Y-115029162D01*
X152977441Y-114890090D01*
X153079198Y-114741163D01*
X153418190Y-114967670D01*
X154050000Y-115093345D01*
X154681810Y-114967670D01*
X155217433Y-114609778D01*
X155535000Y-114134506D01*
X155535000Y-114978837D01*
X155328838Y-115185000D01*
X142132472Y-115185000D01*
X142105327Y-115157808D01*
X141761799Y-115015162D01*
X141389833Y-115014838D01*
X141046057Y-115156883D01*
X140782808Y-115419673D01*
X140640162Y-115763201D01*
X140640117Y-115815000D01*
X134802366Y-115815000D01*
X134834838Y-115736799D01*
X134835150Y-115378466D01*
X135020619Y-115341574D01*
X135252581Y-115186581D01*
X135407574Y-114954619D01*
X135419997Y-114892166D01*
X135478537Y-114833625D01*
X135696511Y-114979271D01*
X136270000Y-115093345D01*
X136843489Y-114979271D01*
X137329670Y-114654415D01*
X137536461Y-114344931D01*
X137907964Y-114760732D01*
X138435209Y-115014709D01*
X138450974Y-115017358D01*
X138683000Y-114896217D01*
X138683000Y-113537000D01*
X138937000Y-113537000D01*
X138937000Y-114896217D01*
X139169026Y-115017358D01*
X139184791Y-115014709D01*
X139712036Y-114760732D01*
X140101954Y-114324320D01*
X140295184Y-113771913D01*
X140150924Y-113537000D01*
X138937000Y-113537000D01*
X138683000Y-113537000D01*
X138663000Y-113537000D01*
X138663000Y-113283000D01*
X138683000Y-113283000D01*
X138683000Y-111923783D01*
X138937000Y-111923783D01*
X138937000Y-113283000D01*
X140150924Y-113283000D01*
X140295184Y-113048087D01*
X140101954Y-112495680D01*
X139712036Y-112059268D01*
X139184791Y-111805291D01*
X139169026Y-111802642D01*
X138937000Y-111923783D01*
X138683000Y-111923783D01*
X138450974Y-111802642D01*
X138435209Y-111805291D01*
X137907964Y-112059268D01*
X137536461Y-112475069D01*
X137329670Y-112165585D01*
X136843489Y-111840729D01*
X136718329Y-111815833D01*
X138427581Y-110106582D01*
X138582574Y-109874619D01*
X138586958Y-109852581D01*
X138637000Y-109601000D01*
X138637000Y-108928282D01*
X138773201Y-108984838D01*
X138883772Y-108984934D01*
X140393586Y-110494748D01*
X140365162Y-110563201D01*
X140364838Y-110935167D01*
X140506883Y-111278943D01*
X140595000Y-111367214D01*
X140595000Y-111422511D01*
X140577808Y-111439673D01*
X140435162Y-111783201D01*
X140434838Y-112155167D01*
X140576883Y-112498943D01*
X140839673Y-112762192D01*
X141183201Y-112904838D01*
X141555167Y-112905162D01*
X141898943Y-112763117D01*
X142162192Y-112500327D01*
X142245805Y-112298966D01*
X142226560Y-112394000D01*
X142226560Y-114426000D01*
X142270838Y-114661317D01*
X142409910Y-114877441D01*
X142622110Y-115022431D01*
X142874000Y-115073440D01*
X144906000Y-115073440D01*
X145141317Y-115029162D01*
X145357441Y-114890090D01*
X145459198Y-114741163D01*
X145798190Y-114967670D01*
X146430000Y-115093345D01*
X147061810Y-114967670D01*
X147597433Y-114609778D01*
X147955325Y-114074155D01*
X148081000Y-113442345D01*
X148081000Y-113377655D01*
X147955325Y-112745845D01*
X147597433Y-112210222D01*
X147061810Y-111852330D01*
X146636605Y-111767751D01*
X146665000Y-111625000D01*
X146665000Y-110057384D01*
X146742192Y-109980327D01*
X146884838Y-109636799D01*
X146885162Y-109264833D01*
X146743117Y-108921057D01*
X146480327Y-108657808D01*
X146136799Y-108515162D01*
X145764833Y-108514838D01*
X145421057Y-108656883D01*
X145157808Y-108919673D01*
X145015162Y-109263201D01*
X145014838Y-109635167D01*
X145156883Y-109978943D01*
X145235000Y-110057196D01*
X145235000Y-111264877D01*
X145189833Y-111264838D01*
X144846057Y-111406883D01*
X144582808Y-111669673D01*
X144550882Y-111746560D01*
X142874000Y-111746560D01*
X142638683Y-111790838D01*
X142422559Y-111929910D01*
X142304886Y-112102131D01*
X142305162Y-111784833D01*
X142163117Y-111441057D01*
X142047352Y-111325089D01*
X142092192Y-111280327D01*
X142234838Y-110936799D01*
X142235162Y-110564833D01*
X142093117Y-110221057D01*
X141913827Y-110041454D01*
X141815581Y-109894419D01*
X139895067Y-107973905D01*
X139895162Y-107864833D01*
X139832743Y-107713768D01*
X140071354Y-107615176D01*
X140263201Y-107694838D01*
X140635167Y-107695162D01*
X140978943Y-107553117D01*
X141242192Y-107290327D01*
X141384838Y-106946799D01*
X141385162Y-106574833D01*
X141243117Y-106231057D01*
X141125000Y-106112734D01*
X141125000Y-105074909D01*
X141415167Y-105075162D01*
X141758943Y-104933117D01*
X142022192Y-104670327D01*
X142164838Y-104326799D01*
X142165162Y-103954833D01*
X142023117Y-103611057D01*
X141895000Y-103482716D01*
X141895000Y-102937384D01*
X141972192Y-102860327D01*
X142114838Y-102516799D01*
X142115162Y-102144833D01*
X141973117Y-101801057D01*
X141935307Y-101763181D01*
X142045000Y-101785000D01*
X142045000Y-101785000D01*
G37*
X142045000Y-101785000D02*
X144733838Y-101785000D01*
X144733838Y-101785167D01*
X144875883Y-102128943D01*
X145138673Y-102392192D01*
X145482201Y-102534838D01*
X145854167Y-102535162D01*
X146197943Y-102393117D01*
X146276196Y-102315000D01*
X149690838Y-102315000D01*
X150956933Y-103581095D01*
X150956838Y-103690167D01*
X151098883Y-104033943D01*
X151361673Y-104297192D01*
X151705201Y-104439838D01*
X151710165Y-104439842D01*
X151758282Y-105614227D01*
X151767772Y-105653464D01*
X151766015Y-105693786D01*
X151800300Y-105787960D01*
X151823864Y-105885388D01*
X151847645Y-105918004D01*
X151861453Y-105955932D01*
X151929174Y-106029823D01*
X151988223Y-106110811D01*
X152022674Y-106131843D01*
X152049947Y-106161601D01*
X155714215Y-108847862D01*
X155846883Y-109168943D01*
X156108161Y-109430677D01*
X155744419Y-109794419D01*
X155589426Y-110026381D01*
X155535000Y-110300000D01*
X155535000Y-112685494D01*
X155217433Y-112210222D01*
X154681810Y-111852330D01*
X154050000Y-111726655D01*
X153418190Y-111852330D01*
X153078208Y-112079499D01*
X152990090Y-111942559D01*
X152777890Y-111797569D01*
X152526000Y-111746560D01*
X150494000Y-111746560D01*
X150258683Y-111790838D01*
X150042559Y-111929910D01*
X149897569Y-112142110D01*
X149846560Y-112394000D01*
X149846560Y-114426000D01*
X149890838Y-114661317D01*
X150029910Y-114877441D01*
X150242110Y-115022431D01*
X150494000Y-115073440D01*
X152526000Y-115073440D01*
X152761317Y-115029162D01*
X152977441Y-114890090D01*
X153079198Y-114741163D01*
X153418190Y-114967670D01*
X154050000Y-115093345D01*
X154681810Y-114967670D01*
X155217433Y-114609778D01*
X155535000Y-114134506D01*
X155535000Y-114978837D01*
X155328838Y-115185000D01*
X142132472Y-115185000D01*
X142105327Y-115157808D01*
X141761799Y-115015162D01*
X141389833Y-115014838D01*
X141046057Y-115156883D01*
X140782808Y-115419673D01*
X140640162Y-115763201D01*
X140640117Y-115815000D01*
X134802366Y-115815000D01*
X134834838Y-115736799D01*
X134835150Y-115378466D01*
X135020619Y-115341574D01*
X135252581Y-115186581D01*
X135407574Y-114954619D01*
X135419997Y-114892166D01*
X135478537Y-114833625D01*
X135696511Y-114979271D01*
X136270000Y-115093345D01*
X136843489Y-114979271D01*
X137329670Y-114654415D01*
X137536461Y-114344931D01*
X137907964Y-114760732D01*
X138435209Y-115014709D01*
X138450974Y-115017358D01*
X138683000Y-114896217D01*
X138683000Y-113537000D01*
X138937000Y-113537000D01*
X138937000Y-114896217D01*
X139169026Y-115017358D01*
X139184791Y-115014709D01*
X139712036Y-114760732D01*
X140101954Y-114324320D01*
X140295184Y-113771913D01*
X140150924Y-113537000D01*
X138937000Y-113537000D01*
X138683000Y-113537000D01*
X138663000Y-113537000D01*
X138663000Y-113283000D01*
X138683000Y-113283000D01*
X138683000Y-111923783D01*
X138937000Y-111923783D01*
X138937000Y-113283000D01*
X140150924Y-113283000D01*
X140295184Y-113048087D01*
X140101954Y-112495680D01*
X139712036Y-112059268D01*
X139184791Y-111805291D01*
X139169026Y-111802642D01*
X138937000Y-111923783D01*
X138683000Y-111923783D01*
X138450974Y-111802642D01*
X138435209Y-111805291D01*
X137907964Y-112059268D01*
X137536461Y-112475069D01*
X137329670Y-112165585D01*
X136843489Y-111840729D01*
X136718329Y-111815833D01*
X138427581Y-110106582D01*
X138582574Y-109874619D01*
X138586958Y-109852581D01*
X138637000Y-109601000D01*
X138637000Y-108928282D01*
X138773201Y-108984838D01*
X138883772Y-108984934D01*
X140393586Y-110494748D01*
X140365162Y-110563201D01*
X140364838Y-110935167D01*
X140506883Y-111278943D01*
X140595000Y-111367214D01*
X140595000Y-111422511D01*
X140577808Y-111439673D01*
X140435162Y-111783201D01*
X140434838Y-112155167D01*
X140576883Y-112498943D01*
X140839673Y-112762192D01*
X141183201Y-112904838D01*
X141555167Y-112905162D01*
X141898943Y-112763117D01*
X142162192Y-112500327D01*
X142245805Y-112298966D01*
X142226560Y-112394000D01*
X142226560Y-114426000D01*
X142270838Y-114661317D01*
X142409910Y-114877441D01*
X142622110Y-115022431D01*
X142874000Y-115073440D01*
X144906000Y-115073440D01*
X145141317Y-115029162D01*
X145357441Y-114890090D01*
X145459198Y-114741163D01*
X145798190Y-114967670D01*
X146430000Y-115093345D01*
X147061810Y-114967670D01*
X147597433Y-114609778D01*
X147955325Y-114074155D01*
X148081000Y-113442345D01*
X148081000Y-113377655D01*
X147955325Y-112745845D01*
X147597433Y-112210222D01*
X147061810Y-111852330D01*
X146636605Y-111767751D01*
X146665000Y-111625000D01*
X146665000Y-110057384D01*
X146742192Y-109980327D01*
X146884838Y-109636799D01*
X146885162Y-109264833D01*
X146743117Y-108921057D01*
X146480327Y-108657808D01*
X146136799Y-108515162D01*
X145764833Y-108514838D01*
X145421057Y-108656883D01*
X145157808Y-108919673D01*
X145015162Y-109263201D01*
X145014838Y-109635167D01*
X145156883Y-109978943D01*
X145235000Y-110057196D01*
X145235000Y-111264877D01*
X145189833Y-111264838D01*
X144846057Y-111406883D01*
X144582808Y-111669673D01*
X144550882Y-111746560D01*
X142874000Y-111746560D01*
X142638683Y-111790838D01*
X142422559Y-111929910D01*
X142304886Y-112102131D01*
X142305162Y-111784833D01*
X142163117Y-111441057D01*
X142047352Y-111325089D01*
X142092192Y-111280327D01*
X142234838Y-110936799D01*
X142235162Y-110564833D01*
X142093117Y-110221057D01*
X141913827Y-110041454D01*
X141815581Y-109894419D01*
X139895067Y-107973905D01*
X139895162Y-107864833D01*
X139832743Y-107713768D01*
X140071354Y-107615176D01*
X140263201Y-107694838D01*
X140635167Y-107695162D01*
X140978943Y-107553117D01*
X141242192Y-107290327D01*
X141384838Y-106946799D01*
X141385162Y-106574833D01*
X141243117Y-106231057D01*
X141125000Y-106112734D01*
X141125000Y-105074909D01*
X141415167Y-105075162D01*
X141758943Y-104933117D01*
X142022192Y-104670327D01*
X142164838Y-104326799D01*
X142165162Y-103954833D01*
X142023117Y-103611057D01*
X141895000Y-103482716D01*
X141895000Y-102937384D01*
X141972192Y-102860327D01*
X142114838Y-102516799D01*
X142115162Y-102144833D01*
X141973117Y-101801057D01*
X141935307Y-101763181D01*
X142045000Y-101785000D01*
G36*
X123697000Y-113283000D02*
X123717000Y-113283000D01*
X123717000Y-113537000D01*
X123697000Y-113537000D01*
X123697000Y-113557000D01*
X123443000Y-113557000D01*
X123443000Y-113537000D01*
X123423000Y-113537000D01*
X123423000Y-113283000D01*
X123443000Y-113283000D01*
X123443000Y-113263000D01*
X123697000Y-113263000D01*
X123697000Y-113283000D01*
X123697000Y-113283000D01*
G37*
X123697000Y-113283000D02*
X123717000Y-113283000D01*
X123717000Y-113537000D01*
X123697000Y-113537000D01*
X123697000Y-113557000D01*
X123443000Y-113557000D01*
X123443000Y-113537000D01*
X123423000Y-113537000D01*
X123423000Y-113283000D01*
X123443000Y-113283000D01*
X123443000Y-113263000D01*
X123697000Y-113263000D01*
X123697000Y-113283000D01*
G36*
X130006668Y-95942831D02*
X129915162Y-96163201D01*
X129914838Y-96535167D01*
X130056883Y-96878943D01*
X130215896Y-97038233D01*
X130344419Y-97230581D01*
X131160688Y-98046850D01*
X131127808Y-98079673D01*
X130985162Y-98423201D01*
X130984838Y-98795167D01*
X131126883Y-99138943D01*
X131225000Y-99237231D01*
X131225000Y-101782616D01*
X131147808Y-101859673D01*
X131005162Y-102203201D01*
X131004838Y-102575167D01*
X131146883Y-102918943D01*
X131409673Y-103182192D01*
X131753201Y-103324838D01*
X132125167Y-103325162D01*
X132468943Y-103183117D01*
X132732192Y-102920327D01*
X132874838Y-102576799D01*
X132875162Y-102204833D01*
X132733117Y-101861057D01*
X132655000Y-101782804D01*
X132655000Y-101591162D01*
X132744419Y-101680581D01*
X132976381Y-101835574D01*
X133250000Y-101890000D01*
X134295215Y-101890000D01*
X134191090Y-102140759D01*
X134031057Y-102206883D01*
X133767808Y-102469673D01*
X133625162Y-102813201D01*
X133624838Y-103185167D01*
X133766883Y-103528943D01*
X134029673Y-103792192D01*
X134373201Y-103934838D01*
X134745167Y-103935162D01*
X135088943Y-103793117D01*
X135167196Y-103715000D01*
X137933838Y-103715000D01*
X137955000Y-103736162D01*
X137955000Y-106202633D01*
X137867808Y-106289673D01*
X137725162Y-106633201D01*
X137724838Y-107005167D01*
X137833819Y-107268922D01*
X137736833Y-107268838D01*
X137393057Y-107410883D01*
X137129808Y-107673673D01*
X136987162Y-108017201D01*
X136986838Y-108389167D01*
X137128883Y-108732943D01*
X137207000Y-108811196D01*
X137207000Y-109304837D01*
X136545000Y-109966837D01*
X136545000Y-109490000D01*
X136490574Y-109216381D01*
X136397308Y-109076799D01*
X136335582Y-108984419D01*
X135395581Y-108044419D01*
X135163619Y-107889426D01*
X134890000Y-107835000D01*
X129735000Y-107835000D01*
X129735000Y-103022651D01*
X129745581Y-103015581D01*
X129900574Y-102783619D01*
X129955000Y-102510000D01*
X129950482Y-102487288D01*
X129954838Y-102476799D01*
X129955162Y-102104833D01*
X129813117Y-101761057D01*
X129550327Y-101497808D01*
X129206799Y-101355162D01*
X128834833Y-101354838D01*
X128515000Y-101486990D01*
X128515000Y-96760000D01*
X128460574Y-96486381D01*
X128451633Y-96473000D01*
X128305581Y-96254418D01*
X128265000Y-96213837D01*
X128265000Y-95907384D01*
X128342192Y-95830327D01*
X128484838Y-95486799D01*
X128485075Y-95215000D01*
X129278838Y-95215000D01*
X130006668Y-95942831D01*
X130006668Y-95942831D01*
G37*
X130006668Y-95942831D02*
X129915162Y-96163201D01*
X129914838Y-96535167D01*
X130056883Y-96878943D01*
X130215896Y-97038233D01*
X130344419Y-97230581D01*
X131160688Y-98046850D01*
X131127808Y-98079673D01*
X130985162Y-98423201D01*
X130984838Y-98795167D01*
X131126883Y-99138943D01*
X131225000Y-99237231D01*
X131225000Y-101782616D01*
X131147808Y-101859673D01*
X131005162Y-102203201D01*
X131004838Y-102575167D01*
X131146883Y-102918943D01*
X131409673Y-103182192D01*
X131753201Y-103324838D01*
X132125167Y-103325162D01*
X132468943Y-103183117D01*
X132732192Y-102920327D01*
X132874838Y-102576799D01*
X132875162Y-102204833D01*
X132733117Y-101861057D01*
X132655000Y-101782804D01*
X132655000Y-101591162D01*
X132744419Y-101680581D01*
X132976381Y-101835574D01*
X133250000Y-101890000D01*
X134295215Y-101890000D01*
X134191090Y-102140759D01*
X134031057Y-102206883D01*
X133767808Y-102469673D01*
X133625162Y-102813201D01*
X133624838Y-103185167D01*
X133766883Y-103528943D01*
X134029673Y-103792192D01*
X134373201Y-103934838D01*
X134745167Y-103935162D01*
X135088943Y-103793117D01*
X135167196Y-103715000D01*
X137933838Y-103715000D01*
X137955000Y-103736162D01*
X137955000Y-106202633D01*
X137867808Y-106289673D01*
X137725162Y-106633201D01*
X137724838Y-107005167D01*
X137833819Y-107268922D01*
X137736833Y-107268838D01*
X137393057Y-107410883D01*
X137129808Y-107673673D01*
X136987162Y-108017201D01*
X136986838Y-108389167D01*
X137128883Y-108732943D01*
X137207000Y-108811196D01*
X137207000Y-109304837D01*
X136545000Y-109966837D01*
X136545000Y-109490000D01*
X136490574Y-109216381D01*
X136397308Y-109076799D01*
X136335582Y-108984419D01*
X135395581Y-108044419D01*
X135163619Y-107889426D01*
X134890000Y-107835000D01*
X129735000Y-107835000D01*
X129735000Y-103022651D01*
X129745581Y-103015581D01*
X129900574Y-102783619D01*
X129955000Y-102510000D01*
X129950482Y-102487288D01*
X129954838Y-102476799D01*
X129955162Y-102104833D01*
X129813117Y-101761057D01*
X129550327Y-101497808D01*
X129206799Y-101355162D01*
X128834833Y-101354838D01*
X128515000Y-101486990D01*
X128515000Y-96760000D01*
X128460574Y-96486381D01*
X128451633Y-96473000D01*
X128305581Y-96254418D01*
X128265000Y-96213837D01*
X128265000Y-95907384D01*
X128342192Y-95830327D01*
X128484838Y-95486799D01*
X128485075Y-95215000D01*
X129278838Y-95215000D01*
X130006668Y-95942831D01*
G36*
X112720000Y-81160000D02*
X119250838Y-81160000D01*
X119052329Y-81358509D01*
X118490000Y-81246655D01*
X117916511Y-81360729D01*
X117430330Y-81685585D01*
X117223539Y-81995069D01*
X116852036Y-81579268D01*
X116324791Y-81325291D01*
X116309026Y-81322642D01*
X116077000Y-81443783D01*
X116077000Y-82803000D01*
X116097000Y-82803000D01*
X116097000Y-83057000D01*
X116077000Y-83057000D01*
X116077000Y-84416217D01*
X116309026Y-84537358D01*
X116324791Y-84534709D01*
X116852036Y-84280732D01*
X117223539Y-83864931D01*
X117430330Y-84174415D01*
X117916511Y-84499271D01*
X118490000Y-84613345D01*
X119063489Y-84499271D01*
X119549670Y-84174415D01*
X119760000Y-83859634D01*
X119970330Y-84174415D01*
X120456511Y-84499271D01*
X121030000Y-84613345D01*
X121603489Y-84499271D01*
X122089670Y-84174415D01*
X122300000Y-83859634D01*
X122510330Y-84174415D01*
X122996511Y-84499271D01*
X123570000Y-84613345D01*
X124143489Y-84499271D01*
X124629670Y-84174415D01*
X124836461Y-83864931D01*
X125207964Y-84280732D01*
X125735209Y-84534709D01*
X125750974Y-84537358D01*
X125983000Y-84416217D01*
X125983000Y-83057000D01*
X125963000Y-83057000D01*
X125963000Y-82803000D01*
X125983000Y-82803000D01*
X125983000Y-82783000D01*
X126237000Y-82783000D01*
X126237000Y-82803000D01*
X126257000Y-82803000D01*
X126257000Y-83057000D01*
X126237000Y-83057000D01*
X126237000Y-84416217D01*
X126469026Y-84537358D01*
X126484791Y-84534709D01*
X126920000Y-84325066D01*
X126920000Y-84544859D01*
X126598057Y-84677883D01*
X126334808Y-84940673D01*
X126192162Y-85284201D01*
X126191838Y-85656167D01*
X126333883Y-85999943D01*
X126596673Y-86263192D01*
X126940201Y-86405838D01*
X127312167Y-86406162D01*
X127655943Y-86264117D01*
X127919192Y-86001327D01*
X128061838Y-85657799D01*
X128061934Y-85547229D01*
X128140581Y-85468582D01*
X128295574Y-85236619D01*
X128336308Y-85031833D01*
X128350000Y-84963000D01*
X128350000Y-84553671D01*
X128650000Y-84613345D01*
X129223489Y-84499271D01*
X129709670Y-84174415D01*
X129920000Y-83859634D01*
X130130330Y-84174415D01*
X130616511Y-84499271D01*
X131190000Y-84613345D01*
X131763489Y-84499271D01*
X132249670Y-84174415D01*
X132460000Y-83859634D01*
X132670330Y-84174415D01*
X132891844Y-84322426D01*
X132806381Y-84339426D01*
X132574418Y-84494419D01*
X132313904Y-84754933D01*
X132204833Y-84754838D01*
X131861057Y-84896883D01*
X131597808Y-85159673D01*
X131455162Y-85503201D01*
X131454838Y-85875167D01*
X131596883Y-86218943D01*
X131859673Y-86482192D01*
X132203201Y-86624838D01*
X132575167Y-86625162D01*
X132918943Y-86483117D01*
X133182192Y-86220327D01*
X133324838Y-85876799D01*
X133324934Y-85766228D01*
X133376163Y-85715000D01*
X137113838Y-85715000D01*
X137554933Y-86156096D01*
X137554838Y-86265167D01*
X137696883Y-86608943D01*
X137959673Y-86872192D01*
X138303201Y-87014838D01*
X138675167Y-87015162D01*
X139018943Y-86873117D01*
X139282192Y-86610327D01*
X139424838Y-86266799D01*
X139425162Y-85894833D01*
X139283117Y-85551057D01*
X139020327Y-85287808D01*
X138676799Y-85145162D01*
X138566228Y-85145066D01*
X137915581Y-84494419D01*
X137683619Y-84339426D01*
X137410000Y-84285000D01*
X137164168Y-84285000D01*
X137329670Y-84174415D01*
X137540000Y-83859634D01*
X137750330Y-84174415D01*
X138236511Y-84499271D01*
X138810000Y-84613345D01*
X139383489Y-84499271D01*
X139869670Y-84174415D01*
X140080000Y-83859634D01*
X140290330Y-84174415D01*
X140776511Y-84499271D01*
X141350000Y-84613345D01*
X141923489Y-84499271D01*
X142409670Y-84174415D01*
X142620000Y-83859634D01*
X142830330Y-84174415D01*
X143316511Y-84499271D01*
X143762796Y-84588042D01*
X140004905Y-88345933D01*
X139895833Y-88345838D01*
X139552057Y-88487883D01*
X139288808Y-88750673D01*
X139146162Y-89094201D01*
X139146150Y-89107849D01*
X139133833Y-89107838D01*
X138790057Y-89249883D01*
X138526808Y-89512673D01*
X138384162Y-89856201D01*
X138384146Y-89875000D01*
X136825036Y-89875000D01*
X136825162Y-89730833D01*
X136683117Y-89387057D01*
X136420327Y-89123808D01*
X136076799Y-88981162D01*
X135704833Y-88980838D01*
X135361057Y-89122883D01*
X135353544Y-89130382D01*
X133728581Y-87505419D01*
X133496619Y-87350426D01*
X133405588Y-87332319D01*
X133242619Y-87223426D01*
X132969000Y-87169000D01*
X131872070Y-87169000D01*
X131872162Y-87063833D01*
X131730117Y-86720057D01*
X131467327Y-86456808D01*
X131123799Y-86314162D01*
X130751833Y-86313838D01*
X130408057Y-86455883D01*
X130329804Y-86534000D01*
X123486162Y-86534000D01*
X122806581Y-85854419D01*
X122574619Y-85699426D01*
X122483588Y-85681319D01*
X122320619Y-85572426D01*
X122047000Y-85518000D01*
X119634000Y-85518000D01*
X119360381Y-85572426D01*
X119128418Y-85727419D01*
X119049904Y-85805933D01*
X118940833Y-85805838D01*
X118597057Y-85947883D01*
X118333808Y-86210673D01*
X118191162Y-86554201D01*
X118190838Y-86926167D01*
X118332883Y-87269943D01*
X118595673Y-87533192D01*
X118939201Y-87675838D01*
X119311167Y-87676162D01*
X119654943Y-87534117D01*
X119918192Y-87271327D01*
X120052450Y-86948000D01*
X120993859Y-86948000D01*
X121126883Y-87269943D01*
X121255104Y-87398388D01*
X121090799Y-87330162D01*
X120718833Y-87329838D01*
X120375057Y-87471883D01*
X120111808Y-87734673D01*
X119969162Y-88078201D01*
X119968838Y-88450167D01*
X120110883Y-88793943D01*
X120373673Y-89057192D01*
X120717201Y-89199838D01*
X120827772Y-89199934D01*
X122254933Y-90627095D01*
X122254838Y-90736167D01*
X122396883Y-91079943D01*
X122659673Y-91343192D01*
X123003201Y-91485838D01*
X123015000Y-91485848D01*
X123015000Y-92704973D01*
X122961574Y-92436381D01*
X122806581Y-92204419D01*
X120061067Y-89458905D01*
X120061162Y-89349833D01*
X119919117Y-89006057D01*
X119656327Y-88742808D01*
X119312799Y-88600162D01*
X118940833Y-88599838D01*
X118597057Y-88741883D01*
X118333808Y-89004673D01*
X118191162Y-89348201D01*
X118190838Y-89720167D01*
X118332883Y-90063943D01*
X118595673Y-90327192D01*
X118639069Y-90345212D01*
X118519359Y-90321400D01*
X118460641Y-90321400D01*
X117887152Y-90435474D01*
X117400971Y-90760330D01*
X117220000Y-91031172D01*
X117039029Y-90760330D01*
X116552848Y-90435474D01*
X115979359Y-90321400D01*
X115920641Y-90321400D01*
X115347152Y-90435474D01*
X115040935Y-90640082D01*
X115004327Y-90551701D01*
X114825698Y-90373073D01*
X114592309Y-90276400D01*
X113735750Y-90276400D01*
X113577000Y-90435150D01*
X113577000Y-91648000D01*
X113597000Y-91648000D01*
X113597000Y-91902000D01*
X113577000Y-91902000D01*
X113577000Y-94188000D01*
X113597000Y-94188000D01*
X113597000Y-94442000D01*
X113577000Y-94442000D01*
X113577000Y-96728000D01*
X113597000Y-96728000D01*
X113597000Y-96982000D01*
X113577000Y-96982000D01*
X113577000Y-99268000D01*
X113597000Y-99268000D01*
X113597000Y-99522000D01*
X113577000Y-99522000D01*
X113577000Y-101808000D01*
X113597000Y-101808000D01*
X113597000Y-102062000D01*
X113577000Y-102062000D01*
X113577000Y-104348000D01*
X113597000Y-104348000D01*
X113597000Y-104602000D01*
X113577000Y-104602000D01*
X113577000Y-104622000D01*
X113323000Y-104622000D01*
X113323000Y-104602000D01*
X113303000Y-104602000D01*
X113303000Y-104348000D01*
X113323000Y-104348000D01*
X113323000Y-102062000D01*
X113303000Y-102062000D01*
X113303000Y-101808000D01*
X113323000Y-101808000D01*
X113323000Y-99522000D01*
X113303000Y-99522000D01*
X113303000Y-99268000D01*
X113323000Y-99268000D01*
X113323000Y-96982000D01*
X113303000Y-96982000D01*
X113303000Y-96728000D01*
X113323000Y-96728000D01*
X113323000Y-94442000D01*
X113303000Y-94442000D01*
X113303000Y-94188000D01*
X113323000Y-94188000D01*
X113323000Y-91902000D01*
X113303000Y-91902000D01*
X113303000Y-91648000D01*
X113323000Y-91648000D01*
X113323000Y-90435150D01*
X113164250Y-90276400D01*
X112307691Y-90276400D01*
X112074302Y-90373073D01*
X111935000Y-90512374D01*
X111935000Y-83291913D01*
X114464816Y-83291913D01*
X114658046Y-83844320D01*
X115047964Y-84280732D01*
X115575209Y-84534709D01*
X115590974Y-84537358D01*
X115823000Y-84416217D01*
X115823000Y-83057000D01*
X114609076Y-83057000D01*
X114464816Y-83291913D01*
X111935000Y-83291913D01*
X111935000Y-82568087D01*
X114464816Y-82568087D01*
X114609076Y-82803000D01*
X115823000Y-82803000D01*
X115823000Y-81443783D01*
X115590974Y-81322642D01*
X115575209Y-81325291D01*
X115047964Y-81579268D01*
X114658046Y-82015680D01*
X114464816Y-82568087D01*
X111935000Y-82568087D01*
X111935000Y-81110000D01*
X112468635Y-81110000D01*
X112720000Y-81160000D01*
X112720000Y-81160000D01*
G37*
X112720000Y-81160000D02*
X119250838Y-81160000D01*
X119052329Y-81358509D01*
X118490000Y-81246655D01*
X117916511Y-81360729D01*
X117430330Y-81685585D01*
X117223539Y-81995069D01*
X116852036Y-81579268D01*
X116324791Y-81325291D01*
X116309026Y-81322642D01*
X116077000Y-81443783D01*
X116077000Y-82803000D01*
X116097000Y-82803000D01*
X116097000Y-83057000D01*
X116077000Y-83057000D01*
X116077000Y-84416217D01*
X116309026Y-84537358D01*
X116324791Y-84534709D01*
X116852036Y-84280732D01*
X117223539Y-83864931D01*
X117430330Y-84174415D01*
X117916511Y-84499271D01*
X118490000Y-84613345D01*
X119063489Y-84499271D01*
X119549670Y-84174415D01*
X119760000Y-83859634D01*
X119970330Y-84174415D01*
X120456511Y-84499271D01*
X121030000Y-84613345D01*
X121603489Y-84499271D01*
X122089670Y-84174415D01*
X122300000Y-83859634D01*
X122510330Y-84174415D01*
X122996511Y-84499271D01*
X123570000Y-84613345D01*
X124143489Y-84499271D01*
X124629670Y-84174415D01*
X124836461Y-83864931D01*
X125207964Y-84280732D01*
X125735209Y-84534709D01*
X125750974Y-84537358D01*
X125983000Y-84416217D01*
X125983000Y-83057000D01*
X125963000Y-83057000D01*
X125963000Y-82803000D01*
X125983000Y-82803000D01*
X125983000Y-82783000D01*
X126237000Y-82783000D01*
X126237000Y-82803000D01*
X126257000Y-82803000D01*
X126257000Y-83057000D01*
X126237000Y-83057000D01*
X126237000Y-84416217D01*
X126469026Y-84537358D01*
X126484791Y-84534709D01*
X126920000Y-84325066D01*
X126920000Y-84544859D01*
X126598057Y-84677883D01*
X126334808Y-84940673D01*
X126192162Y-85284201D01*
X126191838Y-85656167D01*
X126333883Y-85999943D01*
X126596673Y-86263192D01*
X126940201Y-86405838D01*
X127312167Y-86406162D01*
X127655943Y-86264117D01*
X127919192Y-86001327D01*
X128061838Y-85657799D01*
X128061934Y-85547229D01*
X128140581Y-85468582D01*
X128295574Y-85236619D01*
X128336308Y-85031833D01*
X128350000Y-84963000D01*
X128350000Y-84553671D01*
X128650000Y-84613345D01*
X129223489Y-84499271D01*
X129709670Y-84174415D01*
X129920000Y-83859634D01*
X130130330Y-84174415D01*
X130616511Y-84499271D01*
X131190000Y-84613345D01*
X131763489Y-84499271D01*
X132249670Y-84174415D01*
X132460000Y-83859634D01*
X132670330Y-84174415D01*
X132891844Y-84322426D01*
X132806381Y-84339426D01*
X132574418Y-84494419D01*
X132313904Y-84754933D01*
X132204833Y-84754838D01*
X131861057Y-84896883D01*
X131597808Y-85159673D01*
X131455162Y-85503201D01*
X131454838Y-85875167D01*
X131596883Y-86218943D01*
X131859673Y-86482192D01*
X132203201Y-86624838D01*
X132575167Y-86625162D01*
X132918943Y-86483117D01*
X133182192Y-86220327D01*
X133324838Y-85876799D01*
X133324934Y-85766228D01*
X133376163Y-85715000D01*
X137113838Y-85715000D01*
X137554933Y-86156096D01*
X137554838Y-86265167D01*
X137696883Y-86608943D01*
X137959673Y-86872192D01*
X138303201Y-87014838D01*
X138675167Y-87015162D01*
X139018943Y-86873117D01*
X139282192Y-86610327D01*
X139424838Y-86266799D01*
X139425162Y-85894833D01*
X139283117Y-85551057D01*
X139020327Y-85287808D01*
X138676799Y-85145162D01*
X138566228Y-85145066D01*
X137915581Y-84494419D01*
X137683619Y-84339426D01*
X137410000Y-84285000D01*
X137164168Y-84285000D01*
X137329670Y-84174415D01*
X137540000Y-83859634D01*
X137750330Y-84174415D01*
X138236511Y-84499271D01*
X138810000Y-84613345D01*
X139383489Y-84499271D01*
X139869670Y-84174415D01*
X140080000Y-83859634D01*
X140290330Y-84174415D01*
X140776511Y-84499271D01*
X141350000Y-84613345D01*
X141923489Y-84499271D01*
X142409670Y-84174415D01*
X142620000Y-83859634D01*
X142830330Y-84174415D01*
X143316511Y-84499271D01*
X143762796Y-84588042D01*
X140004905Y-88345933D01*
X139895833Y-88345838D01*
X139552057Y-88487883D01*
X139288808Y-88750673D01*
X139146162Y-89094201D01*
X139146150Y-89107849D01*
X139133833Y-89107838D01*
X138790057Y-89249883D01*
X138526808Y-89512673D01*
X138384162Y-89856201D01*
X138384146Y-89875000D01*
X136825036Y-89875000D01*
X136825162Y-89730833D01*
X136683117Y-89387057D01*
X136420327Y-89123808D01*
X136076799Y-88981162D01*
X135704833Y-88980838D01*
X135361057Y-89122883D01*
X135353544Y-89130382D01*
X133728581Y-87505419D01*
X133496619Y-87350426D01*
X133405588Y-87332319D01*
X133242619Y-87223426D01*
X132969000Y-87169000D01*
X131872070Y-87169000D01*
X131872162Y-87063833D01*
X131730117Y-86720057D01*
X131467327Y-86456808D01*
X131123799Y-86314162D01*
X130751833Y-86313838D01*
X130408057Y-86455883D01*
X130329804Y-86534000D01*
X123486162Y-86534000D01*
X122806581Y-85854419D01*
X122574619Y-85699426D01*
X122483588Y-85681319D01*
X122320619Y-85572426D01*
X122047000Y-85518000D01*
X119634000Y-85518000D01*
X119360381Y-85572426D01*
X119128418Y-85727419D01*
X119049904Y-85805933D01*
X118940833Y-85805838D01*
X118597057Y-85947883D01*
X118333808Y-86210673D01*
X118191162Y-86554201D01*
X118190838Y-86926167D01*
X118332883Y-87269943D01*
X118595673Y-87533192D01*
X118939201Y-87675838D01*
X119311167Y-87676162D01*
X119654943Y-87534117D01*
X119918192Y-87271327D01*
X120052450Y-86948000D01*
X120993859Y-86948000D01*
X121126883Y-87269943D01*
X121255104Y-87398388D01*
X121090799Y-87330162D01*
X120718833Y-87329838D01*
X120375057Y-87471883D01*
X120111808Y-87734673D01*
X119969162Y-88078201D01*
X119968838Y-88450167D01*
X120110883Y-88793943D01*
X120373673Y-89057192D01*
X120717201Y-89199838D01*
X120827772Y-89199934D01*
X122254933Y-90627095D01*
X122254838Y-90736167D01*
X122396883Y-91079943D01*
X122659673Y-91343192D01*
X123003201Y-91485838D01*
X123015000Y-91485848D01*
X123015000Y-92704973D01*
X122961574Y-92436381D01*
X122806581Y-92204419D01*
X120061067Y-89458905D01*
X120061162Y-89349833D01*
X119919117Y-89006057D01*
X119656327Y-88742808D01*
X119312799Y-88600162D01*
X118940833Y-88599838D01*
X118597057Y-88741883D01*
X118333808Y-89004673D01*
X118191162Y-89348201D01*
X118190838Y-89720167D01*
X118332883Y-90063943D01*
X118595673Y-90327192D01*
X118639069Y-90345212D01*
X118519359Y-90321400D01*
X118460641Y-90321400D01*
X117887152Y-90435474D01*
X117400971Y-90760330D01*
X117220000Y-91031172D01*
X117039029Y-90760330D01*
X116552848Y-90435474D01*
X115979359Y-90321400D01*
X115920641Y-90321400D01*
X115347152Y-90435474D01*
X115040935Y-90640082D01*
X115004327Y-90551701D01*
X114825698Y-90373073D01*
X114592309Y-90276400D01*
X113735750Y-90276400D01*
X113577000Y-90435150D01*
X113577000Y-91648000D01*
X113597000Y-91648000D01*
X113597000Y-91902000D01*
X113577000Y-91902000D01*
X113577000Y-94188000D01*
X113597000Y-94188000D01*
X113597000Y-94442000D01*
X113577000Y-94442000D01*
X113577000Y-96728000D01*
X113597000Y-96728000D01*
X113597000Y-96982000D01*
X113577000Y-96982000D01*
X113577000Y-99268000D01*
X113597000Y-99268000D01*
X113597000Y-99522000D01*
X113577000Y-99522000D01*
X113577000Y-101808000D01*
X113597000Y-101808000D01*
X113597000Y-102062000D01*
X113577000Y-102062000D01*
X113577000Y-104348000D01*
X113597000Y-104348000D01*
X113597000Y-104602000D01*
X113577000Y-104602000D01*
X113577000Y-104622000D01*
X113323000Y-104622000D01*
X113323000Y-104602000D01*
X113303000Y-104602000D01*
X113303000Y-104348000D01*
X113323000Y-104348000D01*
X113323000Y-102062000D01*
X113303000Y-102062000D01*
X113303000Y-101808000D01*
X113323000Y-101808000D01*
X113323000Y-99522000D01*
X113303000Y-99522000D01*
X113303000Y-99268000D01*
X113323000Y-99268000D01*
X113323000Y-96982000D01*
X113303000Y-96982000D01*
X113303000Y-96728000D01*
X113323000Y-96728000D01*
X113323000Y-94442000D01*
X113303000Y-94442000D01*
X113303000Y-94188000D01*
X113323000Y-94188000D01*
X113323000Y-91902000D01*
X113303000Y-91902000D01*
X113303000Y-91648000D01*
X113323000Y-91648000D01*
X113323000Y-90435150D01*
X113164250Y-90276400D01*
X112307691Y-90276400D01*
X112074302Y-90373073D01*
X111935000Y-90512374D01*
X111935000Y-83291913D01*
X114464816Y-83291913D01*
X114658046Y-83844320D01*
X115047964Y-84280732D01*
X115575209Y-84534709D01*
X115590974Y-84537358D01*
X115823000Y-84416217D01*
X115823000Y-83057000D01*
X114609076Y-83057000D01*
X114464816Y-83291913D01*
X111935000Y-83291913D01*
X111935000Y-82568087D01*
X114464816Y-82568087D01*
X114609076Y-82803000D01*
X115823000Y-82803000D01*
X115823000Y-81443783D01*
X115590974Y-81322642D01*
X115575209Y-81325291D01*
X115047964Y-81579268D01*
X114658046Y-82015680D01*
X114464816Y-82568087D01*
X111935000Y-82568087D01*
X111935000Y-81110000D01*
X112468635Y-81110000D01*
X112720000Y-81160000D01*
G36*
X154177000Y-100583000D02*
X154197000Y-100583000D01*
X154197000Y-100837000D01*
X154177000Y-100837000D01*
X154177000Y-102197367D01*
X154323552Y-102265285D01*
X153720543Y-102868295D01*
X153565327Y-102712808D01*
X153369000Y-102631286D01*
X153369000Y-102179135D01*
X153667054Y-102315983D01*
X153923000Y-102197367D01*
X153923000Y-100837000D01*
X153903000Y-100837000D01*
X153903000Y-100583000D01*
X153923000Y-100583000D01*
X153923000Y-100563000D01*
X154177000Y-100563000D01*
X154177000Y-100583000D01*
X154177000Y-100583000D01*
G37*
X154177000Y-100583000D02*
X154197000Y-100583000D01*
X154197000Y-100837000D01*
X154177000Y-100837000D01*
X154177000Y-102197367D01*
X154323552Y-102265285D01*
X153720543Y-102868295D01*
X153565327Y-102712808D01*
X153369000Y-102631286D01*
X153369000Y-102179135D01*
X153667054Y-102315983D01*
X153923000Y-102197367D01*
X153923000Y-100837000D01*
X153903000Y-100837000D01*
X153903000Y-100583000D01*
X153923000Y-100583000D01*
X153923000Y-100563000D01*
X154177000Y-100563000D01*
X154177000Y-100583000D01*
G36*
X152437569Y-96902110D02*
X152386560Y-97154000D01*
X152386560Y-98025398D01*
X152155581Y-97794419D01*
X151923619Y-97639426D01*
X151650000Y-97585000D01*
X148721163Y-97585000D01*
X148021163Y-96885000D01*
X152449260Y-96885000D01*
X152437569Y-96902110D01*
X152437569Y-96902110D01*
G37*
X152437569Y-96902110D02*
X152386560Y-97154000D01*
X152386560Y-98025398D01*
X152155581Y-97794419D01*
X151923619Y-97639426D01*
X151650000Y-97585000D01*
X148721163Y-97585000D01*
X148021163Y-96885000D01*
X152449260Y-96885000D01*
X152437569Y-96902110D01*
G36*
X132909201Y-92628838D02*
X133281167Y-92629162D01*
X133476301Y-92548535D01*
X133639673Y-92712192D01*
X133983201Y-92854838D01*
X134355167Y-92855162D01*
X134698943Y-92713117D01*
X134777196Y-92635000D01*
X138239882Y-92635000D01*
X138239838Y-92685167D01*
X138381883Y-93028943D01*
X138644673Y-93292192D01*
X138988201Y-93434838D01*
X139360167Y-93435162D01*
X139703943Y-93293117D01*
X139932458Y-93065000D01*
X141827165Y-93065000D01*
X141956883Y-93378943D01*
X142045000Y-93467214D01*
X142045000Y-95352511D01*
X142027808Y-95369673D01*
X141899779Y-95678000D01*
X141351000Y-95678000D01*
X141077381Y-95732426D01*
X140917951Y-95838954D01*
X140784833Y-95838838D01*
X140441057Y-95980883D01*
X140177808Y-96243673D01*
X140035162Y-96587201D01*
X140034838Y-96959167D01*
X140176883Y-97302943D01*
X140439673Y-97566192D01*
X140783201Y-97708838D01*
X141155167Y-97709162D01*
X141498943Y-97567117D01*
X141762192Y-97304327D01*
X141843714Y-97108000D01*
X143105837Y-97108000D01*
X142353838Y-97860000D01*
X137321163Y-97860000D01*
X137115000Y-97653838D01*
X137115000Y-96935101D01*
X137185167Y-96935162D01*
X137528943Y-96793117D01*
X137792192Y-96530327D01*
X137934838Y-96186799D01*
X137935162Y-95814833D01*
X137793117Y-95471057D01*
X137530327Y-95207808D01*
X137186799Y-95065162D01*
X136814833Y-95064838D01*
X136471057Y-95206883D01*
X136207808Y-95469673D01*
X136065162Y-95813201D01*
X136065066Y-95923772D01*
X135894419Y-96094419D01*
X135739426Y-96326381D01*
X135685000Y-96600000D01*
X135685000Y-97333837D01*
X134145067Y-95793905D01*
X134145162Y-95684833D01*
X134003117Y-95341057D01*
X133740327Y-95077808D01*
X133396799Y-94935162D01*
X133024833Y-94934838D01*
X132801908Y-95026948D01*
X132705626Y-92544306D01*
X132909201Y-92628838D01*
X132909201Y-92628838D01*
G37*
X132909201Y-92628838D02*
X133281167Y-92629162D01*
X133476301Y-92548535D01*
X133639673Y-92712192D01*
X133983201Y-92854838D01*
X134355167Y-92855162D01*
X134698943Y-92713117D01*
X134777196Y-92635000D01*
X138239882Y-92635000D01*
X138239838Y-92685167D01*
X138381883Y-93028943D01*
X138644673Y-93292192D01*
X138988201Y-93434838D01*
X139360167Y-93435162D01*
X139703943Y-93293117D01*
X139932458Y-93065000D01*
X141827165Y-93065000D01*
X141956883Y-93378943D01*
X142045000Y-93467214D01*
X142045000Y-95352511D01*
X142027808Y-95369673D01*
X141899779Y-95678000D01*
X141351000Y-95678000D01*
X141077381Y-95732426D01*
X140917951Y-95838954D01*
X140784833Y-95838838D01*
X140441057Y-95980883D01*
X140177808Y-96243673D01*
X140035162Y-96587201D01*
X140034838Y-96959167D01*
X140176883Y-97302943D01*
X140439673Y-97566192D01*
X140783201Y-97708838D01*
X141155167Y-97709162D01*
X141498943Y-97567117D01*
X141762192Y-97304327D01*
X141843714Y-97108000D01*
X143105837Y-97108000D01*
X142353838Y-97860000D01*
X137321163Y-97860000D01*
X137115000Y-97653838D01*
X137115000Y-96935101D01*
X137185167Y-96935162D01*
X137528943Y-96793117D01*
X137792192Y-96530327D01*
X137934838Y-96186799D01*
X137935162Y-95814833D01*
X137793117Y-95471057D01*
X137530327Y-95207808D01*
X137186799Y-95065162D01*
X136814833Y-95064838D01*
X136471057Y-95206883D01*
X136207808Y-95469673D01*
X136065162Y-95813201D01*
X136065066Y-95923772D01*
X135894419Y-96094419D01*
X135739426Y-96326381D01*
X135685000Y-96600000D01*
X135685000Y-97333837D01*
X134145067Y-95793905D01*
X134145162Y-95684833D01*
X134003117Y-95341057D01*
X133740327Y-95077808D01*
X133396799Y-94935162D01*
X133024833Y-94934838D01*
X132801908Y-95026948D01*
X132705626Y-92544306D01*
X132909201Y-92628838D01*
G36*
X163473909Y-81369480D02*
X163422900Y-81621370D01*
X163422900Y-83020910D01*
X163467178Y-83256227D01*
X163606250Y-83472351D01*
X163818450Y-83617341D01*
X164070340Y-83668350D01*
X165970260Y-83668350D01*
X166205577Y-83624072D01*
X166421701Y-83485000D01*
X166566691Y-83272800D01*
X166614616Y-83036140D01*
X175794978Y-83036140D01*
X178554700Y-85795863D01*
X178554700Y-86674016D01*
X178334613Y-86715428D01*
X178118489Y-86854500D01*
X177973499Y-87066700D01*
X177922490Y-87318590D01*
X177922490Y-89119450D01*
X177966768Y-89354767D01*
X178105840Y-89570891D01*
X178318040Y-89715881D01*
X178554700Y-89763806D01*
X178554700Y-92475376D01*
X178334613Y-92516788D01*
X178118489Y-92655860D01*
X177973499Y-92868060D01*
X177922490Y-93119950D01*
X177922490Y-94854780D01*
X170368010Y-94854780D01*
X170368010Y-94494090D01*
X170333822Y-94312396D01*
X170368010Y-94143570D01*
X170368010Y-93394270D01*
X170323732Y-93158953D01*
X170184660Y-92942829D01*
X170052778Y-92852718D01*
X169996160Y-92796100D01*
X169963873Y-92796100D01*
X169720570Y-92746830D01*
X168219430Y-92746830D01*
X167984113Y-92791108D01*
X167976355Y-92796100D01*
X167542520Y-92796100D01*
X167383770Y-92954850D01*
X167383770Y-93053920D01*
X162101080Y-93053920D01*
X161827461Y-93108346D01*
X161645000Y-93230263D01*
X161645000Y-93086162D01*
X162446883Y-92284280D01*
X167383770Y-92284280D01*
X167383770Y-92383350D01*
X167542520Y-92542100D01*
X167976127Y-92542100D01*
X168219430Y-92591370D01*
X169720570Y-92591370D01*
X169955887Y-92547092D01*
X169963645Y-92542100D01*
X169996160Y-92542100D01*
X170054847Y-92483413D01*
X170172011Y-92408020D01*
X170317001Y-92195820D01*
X170368010Y-91943930D01*
X170368010Y-91194630D01*
X170323732Y-90959313D01*
X170184660Y-90743189D01*
X170167350Y-90731362D01*
X170167350Y-90211379D01*
X170172011Y-90208380D01*
X170317001Y-89996180D01*
X170368010Y-89744290D01*
X170368010Y-89239046D01*
X170570791Y-89108560D01*
X170715781Y-88896360D01*
X170766790Y-88644470D01*
X170766790Y-87895170D01*
X170722512Y-87659853D01*
X170583440Y-87443729D01*
X170371240Y-87298739D01*
X170368010Y-87298085D01*
X170368010Y-86795350D01*
X170323732Y-86560033D01*
X170184660Y-86343909D01*
X169972460Y-86198919D01*
X169720570Y-86147910D01*
X168219430Y-86147910D01*
X167984113Y-86192188D01*
X167767989Y-86331260D01*
X167683441Y-86455000D01*
X161710000Y-86455000D01*
X161436381Y-86509426D01*
X161204419Y-86664419D01*
X158844419Y-89024419D01*
X158689426Y-89256381D01*
X158635000Y-89530000D01*
X158635000Y-91935049D01*
X158555799Y-91902162D01*
X158183833Y-91901838D01*
X157840057Y-92043883D01*
X157761804Y-92122000D01*
X155648536Y-92122000D01*
X155778943Y-92068117D01*
X156042192Y-91805327D01*
X156184838Y-91461799D01*
X156185162Y-91089833D01*
X156043117Y-90746057D01*
X155780327Y-90482808D01*
X155436799Y-90340162D01*
X155064833Y-90339838D01*
X154721057Y-90481883D01*
X154642804Y-90560000D01*
X149950000Y-90560000D01*
X149676382Y-90614425D01*
X149444419Y-90769418D01*
X148798905Y-91414933D01*
X148689833Y-91414838D01*
X148346057Y-91556883D01*
X148082808Y-91819673D01*
X147940162Y-92163201D01*
X147939866Y-92503000D01*
X147395162Y-92503000D01*
X148079581Y-91818581D01*
X148098138Y-91790808D01*
X148234574Y-91586619D01*
X148289000Y-91313000D01*
X148289000Y-90396384D01*
X148366192Y-90319327D01*
X148508838Y-89975799D01*
X148509162Y-89603833D01*
X148367117Y-89260057D01*
X148104327Y-88996808D01*
X147760799Y-88854162D01*
X147388833Y-88853838D01*
X147045057Y-88995883D01*
X146781808Y-89258673D01*
X146639162Y-89602201D01*
X146638838Y-89974167D01*
X146780883Y-90317943D01*
X146859000Y-90396196D01*
X146859000Y-91016838D01*
X143475000Y-94400838D01*
X143475000Y-93447402D01*
X143542192Y-93380327D01*
X143649476Y-93121960D01*
X143669673Y-93142192D01*
X144013201Y-93284838D01*
X144385167Y-93285162D01*
X144728943Y-93143117D01*
X144992192Y-92880327D01*
X145134838Y-92536799D01*
X145135162Y-92165110D01*
X145195167Y-92165162D01*
X145538943Y-92023117D01*
X145802192Y-91760327D01*
X145916458Y-91485146D01*
X145935167Y-91485162D01*
X146278943Y-91343117D01*
X146542192Y-91080327D01*
X146684838Y-90736799D01*
X146685162Y-90364833D01*
X146543117Y-90021057D01*
X146280327Y-89757808D01*
X145936799Y-89615162D01*
X145564833Y-89614838D01*
X145221057Y-89756883D01*
X145102734Y-89875000D01*
X141260162Y-89875000D01*
X145732995Y-85402167D01*
X155909838Y-85402167D01*
X156051883Y-85745943D01*
X156094210Y-85788344D01*
X156052808Y-85829673D01*
X155910162Y-86173201D01*
X155909838Y-86545167D01*
X156051883Y-86888943D01*
X156314673Y-87152192D01*
X156658201Y-87294838D01*
X157030167Y-87295162D01*
X157373943Y-87153117D01*
X157637192Y-86890327D01*
X157779838Y-86546799D01*
X157780162Y-86174833D01*
X157638117Y-85831057D01*
X157595790Y-85788656D01*
X157637192Y-85747327D01*
X157779838Y-85403799D01*
X157780162Y-85031833D01*
X157638117Y-84688057D01*
X157375327Y-84424808D01*
X157031799Y-84282162D01*
X156659833Y-84281838D01*
X156316057Y-84423883D01*
X156052808Y-84686673D01*
X155910162Y-85030201D01*
X155909838Y-85402167D01*
X145732995Y-85402167D01*
X145965162Y-85170000D01*
X147701000Y-85170000D01*
X147974619Y-85115574D01*
X148206581Y-84960581D01*
X148251162Y-84916000D01*
X149987000Y-84916000D01*
X150260619Y-84861574D01*
X150492581Y-84706581D01*
X150794668Y-84404494D01*
X150936511Y-84499271D01*
X151510000Y-84613345D01*
X152083489Y-84499271D01*
X152569670Y-84174415D01*
X152579243Y-84160087D01*
X152583238Y-84181317D01*
X152722310Y-84397441D01*
X152934510Y-84542431D01*
X153186400Y-84593440D01*
X154913600Y-84593440D01*
X155148917Y-84549162D01*
X155365041Y-84410090D01*
X155510031Y-84197890D01*
X155561040Y-83946000D01*
X155561040Y-81914000D01*
X155516762Y-81678683D01*
X155377690Y-81462559D01*
X155165490Y-81317569D01*
X154913600Y-81266560D01*
X153186400Y-81266560D01*
X152951083Y-81310838D01*
X152734959Y-81449910D01*
X152589969Y-81662110D01*
X152581600Y-81703439D01*
X152569670Y-81685585D01*
X152083489Y-81360729D01*
X151510000Y-81246655D01*
X150936511Y-81360729D01*
X150450330Y-81685585D01*
X150240000Y-82000366D01*
X150029670Y-81685585D01*
X149543489Y-81360729D01*
X148970000Y-81246655D01*
X148396511Y-81360729D01*
X147910330Y-81685585D01*
X147700000Y-82000366D01*
X147489670Y-81685585D01*
X147003489Y-81360729D01*
X146430000Y-81246655D01*
X145856511Y-81360729D01*
X145370330Y-81685585D01*
X145160000Y-82000366D01*
X144949670Y-81685585D01*
X144463489Y-81360729D01*
X143890000Y-81246655D01*
X143316511Y-81360729D01*
X142830330Y-81685585D01*
X142620000Y-82000366D01*
X142409670Y-81685585D01*
X141923489Y-81360729D01*
X141350000Y-81246655D01*
X140776511Y-81360729D01*
X140290330Y-81685585D01*
X140080000Y-82000366D01*
X139869670Y-81685585D01*
X139383489Y-81360729D01*
X138810000Y-81246655D01*
X138236511Y-81360729D01*
X137750330Y-81685585D01*
X137540000Y-82000366D01*
X137329670Y-81685585D01*
X136843489Y-81360729D01*
X136270000Y-81246655D01*
X135696511Y-81360729D01*
X135210330Y-81685585D01*
X135000000Y-82000366D01*
X134789670Y-81685585D01*
X134303489Y-81360729D01*
X133730000Y-81246655D01*
X133156511Y-81360729D01*
X132670330Y-81685585D01*
X132460000Y-82000366D01*
X132249670Y-81685585D01*
X131763489Y-81360729D01*
X131190000Y-81246655D01*
X130616511Y-81360729D01*
X130130330Y-81685585D01*
X129920000Y-82000366D01*
X129709670Y-81685585D01*
X129223489Y-81360729D01*
X128650000Y-81246655D01*
X128076511Y-81360729D01*
X127933469Y-81456307D01*
X127637162Y-81160000D01*
X163617041Y-81160000D01*
X163473909Y-81369480D01*
X163473909Y-81369480D01*
G37*
X163473909Y-81369480D02*
X163422900Y-81621370D01*
X163422900Y-83020910D01*
X163467178Y-83256227D01*
X163606250Y-83472351D01*
X163818450Y-83617341D01*
X164070340Y-83668350D01*
X165970260Y-83668350D01*
X166205577Y-83624072D01*
X166421701Y-83485000D01*
X166566691Y-83272800D01*
X166614616Y-83036140D01*
X175794978Y-83036140D01*
X178554700Y-85795863D01*
X178554700Y-86674016D01*
X178334613Y-86715428D01*
X178118489Y-86854500D01*
X177973499Y-87066700D01*
X177922490Y-87318590D01*
X177922490Y-89119450D01*
X177966768Y-89354767D01*
X178105840Y-89570891D01*
X178318040Y-89715881D01*
X178554700Y-89763806D01*
X178554700Y-92475376D01*
X178334613Y-92516788D01*
X178118489Y-92655860D01*
X177973499Y-92868060D01*
X177922490Y-93119950D01*
X177922490Y-94854780D01*
X170368010Y-94854780D01*
X170368010Y-94494090D01*
X170333822Y-94312396D01*
X170368010Y-94143570D01*
X170368010Y-93394270D01*
X170323732Y-93158953D01*
X170184660Y-92942829D01*
X170052778Y-92852718D01*
X169996160Y-92796100D01*
X169963873Y-92796100D01*
X169720570Y-92746830D01*
X168219430Y-92746830D01*
X167984113Y-92791108D01*
X167976355Y-92796100D01*
X167542520Y-92796100D01*
X167383770Y-92954850D01*
X167383770Y-93053920D01*
X162101080Y-93053920D01*
X161827461Y-93108346D01*
X161645000Y-93230263D01*
X161645000Y-93086162D01*
X162446883Y-92284280D01*
X167383770Y-92284280D01*
X167383770Y-92383350D01*
X167542520Y-92542100D01*
X167976127Y-92542100D01*
X168219430Y-92591370D01*
X169720570Y-92591370D01*
X169955887Y-92547092D01*
X169963645Y-92542100D01*
X169996160Y-92542100D01*
X170054847Y-92483413D01*
X170172011Y-92408020D01*
X170317001Y-92195820D01*
X170368010Y-91943930D01*
X170368010Y-91194630D01*
X170323732Y-90959313D01*
X170184660Y-90743189D01*
X170167350Y-90731362D01*
X170167350Y-90211379D01*
X170172011Y-90208380D01*
X170317001Y-89996180D01*
X170368010Y-89744290D01*
X170368010Y-89239046D01*
X170570791Y-89108560D01*
X170715781Y-88896360D01*
X170766790Y-88644470D01*
X170766790Y-87895170D01*
X170722512Y-87659853D01*
X170583440Y-87443729D01*
X170371240Y-87298739D01*
X170368010Y-87298085D01*
X170368010Y-86795350D01*
X170323732Y-86560033D01*
X170184660Y-86343909D01*
X169972460Y-86198919D01*
X169720570Y-86147910D01*
X168219430Y-86147910D01*
X167984113Y-86192188D01*
X167767989Y-86331260D01*
X167683441Y-86455000D01*
X161710000Y-86455000D01*
X161436381Y-86509426D01*
X161204419Y-86664419D01*
X158844419Y-89024419D01*
X158689426Y-89256381D01*
X158635000Y-89530000D01*
X158635000Y-91935049D01*
X158555799Y-91902162D01*
X158183833Y-91901838D01*
X157840057Y-92043883D01*
X157761804Y-92122000D01*
X155648536Y-92122000D01*
X155778943Y-92068117D01*
X156042192Y-91805327D01*
X156184838Y-91461799D01*
X156185162Y-91089833D01*
X156043117Y-90746057D01*
X155780327Y-90482808D01*
X155436799Y-90340162D01*
X155064833Y-90339838D01*
X154721057Y-90481883D01*
X154642804Y-90560000D01*
X149950000Y-90560000D01*
X149676382Y-90614425D01*
X149444419Y-90769418D01*
X148798905Y-91414933D01*
X148689833Y-91414838D01*
X148346057Y-91556883D01*
X148082808Y-91819673D01*
X147940162Y-92163201D01*
X147939866Y-92503000D01*
X147395162Y-92503000D01*
X148079581Y-91818581D01*
X148098138Y-91790808D01*
X148234574Y-91586619D01*
X148289000Y-91313000D01*
X148289000Y-90396384D01*
X148366192Y-90319327D01*
X148508838Y-89975799D01*
X148509162Y-89603833D01*
X148367117Y-89260057D01*
X148104327Y-88996808D01*
X147760799Y-88854162D01*
X147388833Y-88853838D01*
X147045057Y-88995883D01*
X146781808Y-89258673D01*
X146639162Y-89602201D01*
X146638838Y-89974167D01*
X146780883Y-90317943D01*
X146859000Y-90396196D01*
X146859000Y-91016838D01*
X143475000Y-94400838D01*
X143475000Y-93447402D01*
X143542192Y-93380327D01*
X143649476Y-93121960D01*
X143669673Y-93142192D01*
X144013201Y-93284838D01*
X144385167Y-93285162D01*
X144728943Y-93143117D01*
X144992192Y-92880327D01*
X145134838Y-92536799D01*
X145135162Y-92165110D01*
X145195167Y-92165162D01*
X145538943Y-92023117D01*
X145802192Y-91760327D01*
X145916458Y-91485146D01*
X145935167Y-91485162D01*
X146278943Y-91343117D01*
X146542192Y-91080327D01*
X146684838Y-90736799D01*
X146685162Y-90364833D01*
X146543117Y-90021057D01*
X146280327Y-89757808D01*
X145936799Y-89615162D01*
X145564833Y-89614838D01*
X145221057Y-89756883D01*
X145102734Y-89875000D01*
X141260162Y-89875000D01*
X145732995Y-85402167D01*
X155909838Y-85402167D01*
X156051883Y-85745943D01*
X156094210Y-85788344D01*
X156052808Y-85829673D01*
X155910162Y-86173201D01*
X155909838Y-86545167D01*
X156051883Y-86888943D01*
X156314673Y-87152192D01*
X156658201Y-87294838D01*
X157030167Y-87295162D01*
X157373943Y-87153117D01*
X157637192Y-86890327D01*
X157779838Y-86546799D01*
X157780162Y-86174833D01*
X157638117Y-85831057D01*
X157595790Y-85788656D01*
X157637192Y-85747327D01*
X157779838Y-85403799D01*
X157780162Y-85031833D01*
X157638117Y-84688057D01*
X157375327Y-84424808D01*
X157031799Y-84282162D01*
X156659833Y-84281838D01*
X156316057Y-84423883D01*
X156052808Y-84686673D01*
X155910162Y-85030201D01*
X155909838Y-85402167D01*
X145732995Y-85402167D01*
X145965162Y-85170000D01*
X147701000Y-85170000D01*
X147974619Y-85115574D01*
X148206581Y-84960581D01*
X148251162Y-84916000D01*
X149987000Y-84916000D01*
X150260619Y-84861574D01*
X150492581Y-84706581D01*
X150794668Y-84404494D01*
X150936511Y-84499271D01*
X151510000Y-84613345D01*
X152083489Y-84499271D01*
X152569670Y-84174415D01*
X152579243Y-84160087D01*
X152583238Y-84181317D01*
X152722310Y-84397441D01*
X152934510Y-84542431D01*
X153186400Y-84593440D01*
X154913600Y-84593440D01*
X155148917Y-84549162D01*
X155365041Y-84410090D01*
X155510031Y-84197890D01*
X155561040Y-83946000D01*
X155561040Y-81914000D01*
X155516762Y-81678683D01*
X155377690Y-81462559D01*
X155165490Y-81317569D01*
X154913600Y-81266560D01*
X153186400Y-81266560D01*
X152951083Y-81310838D01*
X152734959Y-81449910D01*
X152589969Y-81662110D01*
X152581600Y-81703439D01*
X152569670Y-81685585D01*
X152083489Y-81360729D01*
X151510000Y-81246655D01*
X150936511Y-81360729D01*
X150450330Y-81685585D01*
X150240000Y-82000366D01*
X150029670Y-81685585D01*
X149543489Y-81360729D01*
X148970000Y-81246655D01*
X148396511Y-81360729D01*
X147910330Y-81685585D01*
X147700000Y-82000366D01*
X147489670Y-81685585D01*
X147003489Y-81360729D01*
X146430000Y-81246655D01*
X145856511Y-81360729D01*
X145370330Y-81685585D01*
X145160000Y-82000366D01*
X144949670Y-81685585D01*
X144463489Y-81360729D01*
X143890000Y-81246655D01*
X143316511Y-81360729D01*
X142830330Y-81685585D01*
X142620000Y-82000366D01*
X142409670Y-81685585D01*
X141923489Y-81360729D01*
X141350000Y-81246655D01*
X140776511Y-81360729D01*
X140290330Y-81685585D01*
X140080000Y-82000366D01*
X139869670Y-81685585D01*
X139383489Y-81360729D01*
X138810000Y-81246655D01*
X138236511Y-81360729D01*
X137750330Y-81685585D01*
X137540000Y-82000366D01*
X137329670Y-81685585D01*
X136843489Y-81360729D01*
X136270000Y-81246655D01*
X135696511Y-81360729D01*
X135210330Y-81685585D01*
X135000000Y-82000366D01*
X134789670Y-81685585D01*
X134303489Y-81360729D01*
X133730000Y-81246655D01*
X133156511Y-81360729D01*
X132670330Y-81685585D01*
X132460000Y-82000366D01*
X132249670Y-81685585D01*
X131763489Y-81360729D01*
X131190000Y-81246655D01*
X130616511Y-81360729D01*
X130130330Y-81685585D01*
X129920000Y-82000366D01*
X129709670Y-81685585D01*
X129223489Y-81360729D01*
X128650000Y-81246655D01*
X128076511Y-81360729D01*
X127933469Y-81456307D01*
X127637162Y-81160000D01*
X163617041Y-81160000D01*
X163473909Y-81369480D01*
M02*
