G04 #@! TF.FileFunction,Copper,L1,Top,Signal*
%FSLAX46Y46*%
G04 Gerber Fmt 4.6, Leading zero omitted, Abs format (unit mm)*
G04 Created by KiCad (PCBNEW 4.0.0-rc2-stable) date 4/30/2016 1:18:27 PM*
%MOMM*%
G01*
G04 APERTURE LIST*
%ADD10C,0.100000*%
%ADD11R,0.500000X0.900000*%
%ADD12R,3.700000X1.600000*%
%ADD13R,0.800000X0.750000*%
%ADD14R,0.750000X0.800000*%
%ADD15R,1.390000X4.600000*%
%ADD16R,10.800000X9.400000*%
%ADD17R,0.797560X0.797560*%
%ADD18R,1.727200X1.727200*%
%ADD19O,1.727200X1.727200*%
%ADD20R,1.727200X2.032000*%
%ADD21O,1.727200X2.032000*%
%ADD22R,2.032000X2.032000*%
%ADD23O,2.032000X2.032000*%
%ADD24R,0.800100X0.800100*%
%ADD25R,0.990600X0.304800*%
%ADD26R,0.200000X1.430000*%
%ADD27R,1.060000X0.650000*%
%ADD28R,0.406400X0.812800*%
%ADD29R,2.006600X1.498600*%
%ADD30R,0.558800X1.320800*%
%ADD31R,0.230000X0.600000*%
%ADD32R,0.600000X0.230000*%
%ADD33R,1.300000X0.250000*%
%ADD34R,0.250000X1.300000*%
%ADD35R,2.100580X5.600700*%
%ADD36R,5.590000X6.350000*%
%ADD37R,0.910000X2.410000*%
%ADD38R,8.000000X2.410000*%
%ADD39R,2.032000X1.727200*%
%ADD40O,2.032000X1.727200*%
%ADD41C,0.600000*%
%ADD42C,0.250000*%
%ADD43C,0.160000*%
G04 APERTURE END LIST*
D10*
D11*
X156540000Y-83560000D03*
X158040000Y-83560000D03*
X156590000Y-81870000D03*
X158090000Y-81870000D03*
D12*
X176820000Y-115290000D03*
X176820000Y-112090000D03*
D13*
X116250000Y-109425000D03*
X114750000Y-109425000D03*
X145775000Y-110575000D03*
X147275000Y-110575000D03*
X150700000Y-98080000D03*
X149200000Y-98080000D03*
X150730000Y-96550000D03*
X149230000Y-96550000D03*
D14*
X175370000Y-84800000D03*
X175370000Y-83300000D03*
D13*
X150670000Y-99730000D03*
X149170000Y-99730000D03*
X149230000Y-110870000D03*
X150730000Y-110870000D03*
X149370000Y-116040000D03*
X150870000Y-116040000D03*
X176780000Y-100230000D03*
X178280000Y-100230000D03*
X138725000Y-115875000D03*
X137225000Y-115875000D03*
X176780000Y-98740000D03*
X178280000Y-98740000D03*
D14*
X149250000Y-114110000D03*
X149250000Y-112610000D03*
X156320000Y-114060000D03*
X156320000Y-112560000D03*
D13*
X152980000Y-88330000D03*
X151480000Y-88330000D03*
X152970000Y-89890000D03*
X151470000Y-89890000D03*
D14*
X114750000Y-87090000D03*
X114750000Y-85590000D03*
D13*
X146125000Y-116100000D03*
X147625000Y-116100000D03*
X151480000Y-91430000D03*
X152980000Y-91430000D03*
X156800000Y-90450000D03*
X155300000Y-90450000D03*
X116200000Y-107675000D03*
X114700000Y-107675000D03*
D14*
X144370000Y-98600000D03*
X144370000Y-97100000D03*
X142870000Y-98600000D03*
X142870000Y-97100000D03*
X147370000Y-98620000D03*
X147370000Y-97120000D03*
X145870000Y-98610000D03*
X145870000Y-97110000D03*
D15*
X168580000Y-83530000D03*
D16*
X168580000Y-92680000D03*
D15*
X166040000Y-83530000D03*
X171120000Y-83530000D03*
D17*
X117959300Y-85420000D03*
X116460700Y-85420000D03*
X116460700Y-87130000D03*
X117959300Y-87130000D03*
X116480700Y-88850000D03*
X117979300Y-88850000D03*
D18*
X118490000Y-104520000D03*
D19*
X115950000Y-104520000D03*
X118490000Y-101980000D03*
X115950000Y-101980000D03*
X118490000Y-99440000D03*
X115950000Y-99440000D03*
X118490000Y-96900000D03*
X115950000Y-96900000D03*
X118490000Y-94360000D03*
X115950000Y-94360000D03*
X118490000Y-91820000D03*
X115950000Y-91820000D03*
D20*
X154050000Y-82930000D03*
D21*
X151510000Y-82930000D03*
X148970000Y-82930000D03*
X146430000Y-82930000D03*
X143890000Y-82930000D03*
X141350000Y-82930000D03*
X138810000Y-82930000D03*
X136270000Y-82930000D03*
X133730000Y-82930000D03*
X131190000Y-82930000D03*
X128650000Y-82930000D03*
X126110000Y-82930000D03*
X123570000Y-82930000D03*
X121030000Y-82930000D03*
X118490000Y-82930000D03*
X115950000Y-82930000D03*
D20*
X128650000Y-113410000D03*
D21*
X131190000Y-113410000D03*
X133730000Y-113410000D03*
X136270000Y-113410000D03*
X138810000Y-113410000D03*
D20*
X115950000Y-113410000D03*
D21*
X118490000Y-113410000D03*
X121030000Y-113410000D03*
X123570000Y-113410000D03*
D22*
X151510000Y-113410000D03*
D23*
X154050000Y-113410000D03*
D22*
X143890000Y-113410000D03*
D23*
X146430000Y-113410000D03*
D22*
X154050000Y-98170000D03*
D23*
X154050000Y-100710000D03*
D24*
X155430000Y-108649240D03*
X153530000Y-108649240D03*
X154480000Y-110648220D03*
D11*
X142750000Y-110575000D03*
X144250000Y-110575000D03*
X119550000Y-107575000D03*
X118050000Y-107575000D03*
X118050000Y-109450000D03*
X119550000Y-109450000D03*
X130170000Y-97230000D03*
X128670000Y-97230000D03*
X143150000Y-116100000D03*
X144650000Y-116100000D03*
X131680000Y-87390000D03*
X130180000Y-87390000D03*
X131660000Y-85690000D03*
X130160000Y-85690000D03*
X120900000Y-85375000D03*
X119400000Y-85375000D03*
X144250000Y-100175000D03*
X142750000Y-100175000D03*
X156775000Y-92150000D03*
X155275000Y-92150000D03*
D25*
X142202200Y-102875000D03*
X142202200Y-103525000D03*
X142202200Y-104175000D03*
X142202200Y-104825000D03*
X142202200Y-105475000D03*
X142202200Y-106125000D03*
X142202200Y-106775000D03*
X142202200Y-107425000D03*
X148037800Y-107425000D03*
X148037800Y-106775000D03*
X148037800Y-106125000D03*
X148037800Y-105475000D03*
X148037800Y-104825000D03*
X148037800Y-104175000D03*
X148037800Y-103525000D03*
X148037800Y-102875000D03*
X142202200Y-108075000D03*
X142202200Y-108725000D03*
X148037800Y-108075000D03*
X148037800Y-108725000D03*
D26*
X123120000Y-106965000D03*
X123520000Y-106965000D03*
X123920000Y-106965000D03*
X124320000Y-106965000D03*
X124720000Y-106965000D03*
X125120000Y-106965000D03*
X125520000Y-106965000D03*
X125920000Y-106965000D03*
X126320000Y-106965000D03*
X126720000Y-106965000D03*
X127120000Y-106965000D03*
X127520000Y-106965000D03*
X127920000Y-106965000D03*
X128320000Y-106965000D03*
X128720000Y-106965000D03*
X129120000Y-106965000D03*
X129520000Y-106965000D03*
X129920000Y-106965000D03*
X130320000Y-106965000D03*
X130720000Y-106965000D03*
X131120000Y-106965000D03*
X131520000Y-106965000D03*
X131920000Y-106965000D03*
X132320000Y-106965000D03*
X132720000Y-106965000D03*
X133120000Y-106965000D03*
X133520000Y-106965000D03*
X133920000Y-106965000D03*
X134320000Y-106965000D03*
X134720000Y-106965000D03*
X135120000Y-106965000D03*
X135520000Y-106965000D03*
X135920000Y-106965000D03*
X136320000Y-106965000D03*
X136720000Y-106965000D03*
X123120000Y-104615000D03*
X123520000Y-104615000D03*
X123920000Y-104615000D03*
X124320000Y-104615000D03*
X124720000Y-104615000D03*
X125120000Y-104615000D03*
X125520000Y-104615000D03*
X125920000Y-104615000D03*
X126320000Y-104615000D03*
X126720000Y-104615000D03*
X127120000Y-104615000D03*
X127520000Y-104615000D03*
X127920000Y-104615000D03*
X128320000Y-104615000D03*
X128720000Y-104615000D03*
X129120000Y-104615000D03*
X129520000Y-104615000D03*
X129920000Y-104615000D03*
X130320000Y-104615000D03*
X130720000Y-104615000D03*
X131120000Y-104615000D03*
X131520000Y-104615000D03*
X131920000Y-104615000D03*
X132320000Y-104615000D03*
X132720000Y-104615000D03*
X133120000Y-104615000D03*
X133520000Y-104615000D03*
X133920000Y-104615000D03*
X134320000Y-104615000D03*
X134720000Y-104615000D03*
X135120000Y-104615000D03*
X135520000Y-104615000D03*
X135920000Y-104615000D03*
X136320000Y-104615000D03*
X136720000Y-104615000D03*
D27*
X139520000Y-110940000D03*
X139520000Y-109990000D03*
X139520000Y-109040000D03*
X137320000Y-109040000D03*
X137320000Y-110940000D03*
X137320000Y-109990000D03*
D25*
X121922200Y-87625000D03*
X121922200Y-88275000D03*
X121922200Y-88925000D03*
X121922200Y-89575000D03*
X121922200Y-90225000D03*
X121922200Y-90875000D03*
X121922200Y-91525000D03*
X121922200Y-92175000D03*
X127757800Y-92175000D03*
X127757800Y-91525000D03*
X127757800Y-90875000D03*
X127757800Y-90225000D03*
X127757800Y-89575000D03*
X127757800Y-88925000D03*
X127757800Y-88275000D03*
X127757800Y-87625000D03*
X121922200Y-92825000D03*
X121922200Y-93475000D03*
X127757800Y-92825000D03*
X127757800Y-93475000D03*
D28*
X176640200Y-109267000D03*
X177580000Y-109267000D03*
X178519800Y-109267000D03*
X178519800Y-106473000D03*
X177580000Y-106473000D03*
X176640200Y-106473000D03*
D29*
X177605400Y-107895400D03*
D30*
X176640200Y-104630000D03*
X177580000Y-104630000D03*
X178519800Y-104630000D03*
X178519800Y-102090000D03*
X176640200Y-102090000D03*
D31*
X147220000Y-91480000D03*
X147620000Y-91480000D03*
X148020000Y-91480000D03*
X148420000Y-91480000D03*
X148820000Y-91480000D03*
X149220000Y-91480000D03*
D32*
X149720000Y-90980000D03*
X149720000Y-90580000D03*
X149720000Y-90180000D03*
X149720000Y-89780000D03*
X149720000Y-89380000D03*
X149720000Y-88980000D03*
D31*
X149220000Y-88480000D03*
X148820000Y-88480000D03*
X148420000Y-88480000D03*
X148020000Y-88480000D03*
X147620000Y-88480000D03*
X147220000Y-88480000D03*
D32*
X146720000Y-88980000D03*
X146720000Y-89380000D03*
X146720000Y-89780000D03*
X146720000Y-90180000D03*
X146720000Y-90580000D03*
X146720000Y-90980000D03*
D33*
X140620000Y-95840000D03*
X140620000Y-95340000D03*
X140620000Y-94840000D03*
X140620000Y-94340000D03*
X140620000Y-93840000D03*
X140620000Y-93340000D03*
X140620000Y-92840000D03*
X140620000Y-92340000D03*
X140620000Y-91840000D03*
X140620000Y-91340000D03*
X140620000Y-90840000D03*
X140620000Y-90340000D03*
D34*
X139020000Y-88740000D03*
X138520000Y-88740000D03*
X138020000Y-88740000D03*
X137520000Y-88740000D03*
X137020000Y-88740000D03*
X136520000Y-88740000D03*
X136020000Y-88740000D03*
X135520000Y-88740000D03*
X135020000Y-88740000D03*
X134520000Y-88740000D03*
X134020000Y-88740000D03*
X133520000Y-88740000D03*
D33*
X131920000Y-90340000D03*
X131920000Y-90840000D03*
X131920000Y-91340000D03*
X131920000Y-91840000D03*
X131920000Y-92340000D03*
X131920000Y-92840000D03*
X131920000Y-93340000D03*
X131920000Y-93840000D03*
X131920000Y-94340000D03*
X131920000Y-94840000D03*
X131920000Y-95340000D03*
X131920000Y-95840000D03*
D34*
X133520000Y-97440000D03*
X134020000Y-97440000D03*
X134520000Y-97440000D03*
X135020000Y-97440000D03*
X135520000Y-97440000D03*
X136020000Y-97440000D03*
X136520000Y-97440000D03*
X137020000Y-97440000D03*
X137520000Y-97440000D03*
X138020000Y-97440000D03*
X138520000Y-97440000D03*
X139020000Y-97440000D03*
D35*
X159950000Y-85801140D03*
X159950000Y-95498860D03*
X160060000Y-102281140D03*
X160060000Y-111978860D03*
D36*
X168780000Y-104020000D03*
D37*
X164970000Y-113245000D03*
X166240000Y-113245000D03*
X167510000Y-113245000D03*
X168780000Y-113245000D03*
X170050000Y-113245000D03*
X171320000Y-113245000D03*
X172590000Y-113245000D03*
D38*
X168780000Y-100020000D03*
D13*
X168825000Y-115500000D03*
X167325000Y-115500000D03*
D39*
X113450000Y-91775000D03*
D40*
X113450000Y-94315000D03*
X113450000Y-96855000D03*
X113450000Y-99395000D03*
X113450000Y-101935000D03*
X113450000Y-104475000D03*
D41*
X114450000Y-88525000D03*
X148325000Y-97000000D03*
X144850000Y-89350000D03*
X143200000Y-89275000D03*
X146225000Y-103125000D03*
X150200000Y-102450000D03*
X138450000Y-111325000D03*
X135875000Y-94625000D03*
X134200000Y-94625000D03*
X118675000Y-110275000D03*
X122375000Y-110275000D03*
X148150000Y-112475000D03*
X146850000Y-109525000D03*
X174879000Y-94996000D03*
X169799000Y-111506000D03*
X179578000Y-110363000D03*
X133350000Y-87376000D03*
X130937000Y-85852000D03*
X120142000Y-85217000D03*
X156845000Y-110744000D03*
X168148000Y-111506000D03*
X139192000Y-95504000D03*
X141975000Y-92850000D03*
X129413000Y-97155000D03*
X128397000Y-95377000D03*
X170180000Y-87376000D03*
X140589000Y-111125000D03*
X153797000Y-86741000D03*
X154940000Y-87884000D03*
X153035000Y-86995000D03*
X146558000Y-87884000D03*
X147430000Y-101070000D03*
X131620000Y-88950000D03*
X135380000Y-90590000D03*
X145750000Y-90550000D03*
X177575000Y-105850000D03*
X163100000Y-99025000D03*
X158050000Y-96100000D03*
X158000000Y-94625000D03*
X139375000Y-101175000D03*
X130850000Y-96350000D03*
X145950000Y-109450000D03*
X145375000Y-112200000D03*
X140970000Y-96774000D03*
X155448000Y-93472000D03*
X121920000Y-105156000D03*
X120777000Y-105156000D03*
X161163000Y-91313000D03*
X156845000Y-86360000D03*
X156845000Y-85217000D03*
X127127000Y-85471000D03*
X128778000Y-88265000D03*
X132842000Y-88392000D03*
X134760000Y-91200000D03*
X145010000Y-91230000D03*
X153475000Y-116650000D03*
X124650000Y-93600000D03*
X119075000Y-106425000D03*
X123950000Y-103225000D03*
X123190000Y-90551000D03*
X120904000Y-88265000D03*
X174310000Y-107330000D03*
X167600000Y-110260000D03*
X150241000Y-92583000D03*
X158369000Y-92837000D03*
X163576000Y-98171000D03*
X175514000Y-98171000D03*
X155250000Y-91275000D03*
X148875000Y-92350000D03*
X144200000Y-92350000D03*
X139175000Y-92500000D03*
X145034000Y-95885000D03*
X153035000Y-103505000D03*
X151892000Y-103505000D03*
X145669000Y-101600000D03*
X154640000Y-93770000D03*
X146470000Y-95380000D03*
X147320000Y-99822000D03*
X143510000Y-100076000D03*
X142750000Y-92850000D03*
X142820000Y-95900000D03*
X147480000Y-95700000D03*
X156220000Y-96170000D03*
X119126000Y-86741000D03*
X130937000Y-87249000D03*
X133096000Y-90170000D03*
X133096000Y-91694000D03*
X122301000Y-94234000D03*
X119126000Y-89535000D03*
X130190000Y-89080000D03*
X122810000Y-95970000D03*
X120130000Y-100050000D03*
X120830000Y-100790000D03*
X121450000Y-101460000D03*
X139319000Y-90043000D03*
X140081000Y-89281000D03*
X133850000Y-110500000D03*
X135830000Y-110910000D03*
X129020000Y-102290000D03*
X120650000Y-109474000D03*
X121666000Y-102997000D03*
X133900000Y-115550000D03*
X116950000Y-103100000D03*
X134675000Y-112025000D03*
X129625000Y-110600000D03*
X124150000Y-110150000D03*
X121650000Y-109625000D03*
X126620000Y-95350000D03*
X127550000Y-95300000D03*
X141575000Y-115950000D03*
X137000000Y-96000000D03*
X156640000Y-108640000D03*
X133210000Y-95870000D03*
X141300000Y-110750000D03*
X138960000Y-108050000D03*
X141370000Y-111970000D03*
X128397000Y-105791000D03*
X128905000Y-109093000D03*
X125095000Y-109728000D03*
X120650000Y-108712000D03*
X131170000Y-110290000D03*
X131210000Y-111640000D03*
X137922000Y-108204000D03*
X125857000Y-113411000D03*
X138490000Y-86080000D03*
X132390000Y-85690000D03*
X121920000Y-86741000D03*
X135890000Y-89916000D03*
X141230000Y-104140000D03*
X141180000Y-102330000D03*
X140410000Y-101670000D03*
X140450000Y-106760000D03*
X135100000Y-102390000D03*
X139620000Y-106790000D03*
X156780000Y-103590000D03*
X156210000Y-104750000D03*
X155680000Y-105360000D03*
X153920000Y-104810000D03*
X154260000Y-104150000D03*
X156670000Y-102900000D03*
X134560000Y-103000000D03*
X138660000Y-106820000D03*
X124750000Y-90950000D03*
X124770000Y-108890000D03*
X126040000Y-109770000D03*
X125490000Y-91970000D03*
X127170000Y-102410000D03*
X127020000Y-97570000D03*
X131940000Y-102390000D03*
X131920000Y-98610000D03*
X134170000Y-91920000D03*
X143090000Y-91880000D03*
X147574000Y-89789000D03*
X143510000Y-95377000D03*
D42*
X113450000Y-101935000D02*
X113450000Y-99395000D01*
X113450000Y-99395000D02*
X113450000Y-96855000D01*
X113450000Y-96855000D02*
X113450000Y-94315000D01*
X113450000Y-91775000D02*
X113450000Y-94315000D01*
X113450000Y-104475000D02*
X113450000Y-106425000D01*
X113450000Y-106425000D02*
X114700000Y-107675000D01*
X113450000Y-91775000D02*
X113450000Y-89525000D01*
X113450000Y-89525000D02*
X114450000Y-88525000D01*
X113450000Y-91775000D02*
X113450000Y-104475000D01*
D43*
X168825000Y-115500000D02*
X168825000Y-113290000D01*
X168825000Y-113290000D02*
X168780000Y-113245000D01*
X138725000Y-115875000D02*
X138725000Y-113495000D01*
X138725000Y-113495000D02*
X138810000Y-113410000D01*
X149230000Y-96550000D02*
X148775000Y-96550000D01*
X148775000Y-96550000D02*
X148325000Y-97000000D01*
X140620000Y-92340000D02*
X141585000Y-92340000D01*
X144880000Y-89380000D02*
X146720000Y-89380000D01*
X144850000Y-89350000D02*
X144880000Y-89380000D01*
X143200000Y-90725000D02*
X143200000Y-89275000D01*
X141585000Y-92340000D02*
X143200000Y-90725000D01*
X154050000Y-100710000D02*
X154050000Y-101775000D01*
X146675000Y-103575000D02*
X146950000Y-103575000D01*
X146225000Y-103125000D02*
X146675000Y-103575000D01*
X153375000Y-102450000D02*
X150200000Y-102450000D01*
X154050000Y-101775000D02*
X153375000Y-102450000D01*
X139520000Y-109990000D02*
X138935000Y-109990000D01*
X138450000Y-110475000D02*
X138450000Y-111325000D01*
X138935000Y-109990000D02*
X138450000Y-110475000D01*
X136150000Y-94275000D02*
X137963000Y-94275000D01*
X137963000Y-94275000D02*
X139192000Y-95504000D01*
X131920000Y-95340000D02*
X133485000Y-95340000D01*
X134020000Y-91120000D02*
X134020000Y-88740000D01*
X136150000Y-93250000D02*
X134020000Y-91120000D01*
X136150000Y-94350000D02*
X136150000Y-94275000D01*
X136150000Y-94275000D02*
X136150000Y-93250000D01*
X135875000Y-94625000D02*
X136150000Y-94350000D01*
X133485000Y-95340000D02*
X134200000Y-94625000D01*
X114750000Y-109425000D02*
X114750000Y-109950000D01*
X123570000Y-114830000D02*
X123570000Y-113410000D01*
X123250000Y-115150000D02*
X123570000Y-114830000D01*
X114425000Y-115150000D02*
X123250000Y-115150000D01*
X114150000Y-114875000D02*
X114425000Y-115150000D01*
X114150000Y-110550000D02*
X114150000Y-114875000D01*
X114750000Y-109950000D02*
X114150000Y-110550000D01*
X123120000Y-106965000D02*
X122825000Y-106965000D01*
X118675000Y-110275000D02*
X118050000Y-109650000D01*
X122350002Y-107400217D02*
X122375000Y-110275000D01*
X122825000Y-106965000D02*
X122350002Y-107400217D01*
X118050000Y-109650000D02*
X118050000Y-109450000D01*
X178280000Y-100230000D02*
X178530000Y-100230000D01*
X178530000Y-100230000D02*
X179750000Y-101450000D01*
X178975000Y-106900000D02*
X178943000Y-106900000D01*
X178975000Y-106300000D02*
X178975000Y-106900000D01*
X179750000Y-105525000D02*
X178975000Y-106300000D01*
X179750000Y-101450000D02*
X179750000Y-105525000D01*
X147275000Y-110575000D02*
X147275000Y-109950000D01*
X148285000Y-112610000D02*
X149250000Y-112610000D01*
X148150000Y-112475000D02*
X148285000Y-112610000D01*
X147275000Y-109950000D02*
X146850000Y-109525000D01*
X147828000Y-109650000D02*
X148500000Y-109650000D01*
X154480000Y-108155000D02*
X154480000Y-110648220D01*
X154075000Y-107750000D02*
X154480000Y-108155000D01*
X150400000Y-107750000D02*
X154075000Y-107750000D01*
X148500000Y-109650000D02*
X150400000Y-107750000D01*
X178280000Y-98740000D02*
X178308000Y-98679000D01*
X178308000Y-98679000D02*
X174879000Y-95250000D01*
X174879000Y-95250000D02*
X174879000Y-94996000D01*
X168780000Y-113245000D02*
X168783000Y-113284000D01*
X168783000Y-113284000D02*
X169418000Y-112649000D01*
X169418000Y-112649000D02*
X169418000Y-111887000D01*
X169418000Y-111887000D02*
X169799000Y-111506000D01*
X179578000Y-110363000D02*
X178181000Y-110363000D01*
X178181000Y-110363000D02*
X177546000Y-109728000D01*
X177546000Y-109728000D02*
X177546000Y-109220000D01*
X177546000Y-109220000D02*
X177580000Y-109267000D01*
X134020000Y-88740000D02*
X133985000Y-88773000D01*
X133985000Y-88773000D02*
X133858000Y-88646000D01*
X133858000Y-88646000D02*
X133858000Y-87884000D01*
X133858000Y-87884000D02*
X133350000Y-87376000D01*
X130937000Y-85852000D02*
X130302000Y-85852000D01*
X130302000Y-85852000D02*
X130175000Y-85725000D01*
X130175000Y-85725000D02*
X130160000Y-85690000D01*
X120142000Y-85217000D02*
X119888000Y-84963000D01*
X119888000Y-84963000D02*
X119888000Y-84709000D01*
X119888000Y-84709000D02*
X119634000Y-84709000D01*
X119634000Y-84709000D02*
X119380000Y-84963000D01*
X119380000Y-84963000D02*
X119380000Y-85344000D01*
X119380000Y-85344000D02*
X119400000Y-85375000D01*
X156320000Y-112560000D02*
X156337000Y-112522000D01*
X156337000Y-112522000D02*
X156845000Y-112014000D01*
X156845000Y-112014000D02*
X156845000Y-110744000D01*
X168148000Y-111506000D02*
X168783000Y-112141000D01*
X168783000Y-112141000D02*
X168783000Y-113284000D01*
X168783000Y-113284000D02*
X168780000Y-113245000D01*
X140620000Y-92340000D02*
X140589000Y-92329000D01*
X140589000Y-92329000D02*
X141605000Y-92329000D01*
X141605000Y-92329000D02*
X141975000Y-92850000D01*
X139192000Y-95504000D02*
X138557000Y-96139000D01*
X138557000Y-96139000D02*
X138557000Y-97409000D01*
X138557000Y-97409000D02*
X138520000Y-97440000D01*
X138810000Y-113410000D02*
X138684000Y-113538000D01*
X131920000Y-95340000D02*
X131953000Y-95377000D01*
X131953000Y-95377000D02*
X133477000Y-95377000D01*
X133477000Y-95377000D02*
X133731000Y-95631000D01*
X133731000Y-95631000D02*
X133731000Y-96139000D01*
X133731000Y-96139000D02*
X133477000Y-96393000D01*
X133477000Y-96393000D02*
X133223000Y-96393000D01*
X133223000Y-96393000D02*
X132207000Y-97409000D01*
X132207000Y-97409000D02*
X132080000Y-97409000D01*
X132080000Y-97409000D02*
X131953000Y-97536000D01*
X131953000Y-97536000D02*
X130937000Y-97536000D01*
X130937000Y-97536000D02*
X130556000Y-97917000D01*
X130556000Y-97917000D02*
X129667000Y-97917000D01*
X129667000Y-97917000D02*
X129413000Y-97663000D01*
X129413000Y-97663000D02*
X129413000Y-97155000D01*
X128397000Y-95377000D02*
X128397000Y-93599000D01*
X128397000Y-93599000D02*
X127889000Y-93599000D01*
X127889000Y-93599000D02*
X127762000Y-93472000D01*
X127762000Y-93472000D02*
X127757800Y-93475000D01*
X149170000Y-101320000D02*
X149225000Y-101346000D01*
X149225000Y-101346000D02*
X148463000Y-101346000D01*
X148463000Y-101346000D02*
X147701000Y-100584000D01*
X147701000Y-100584000D02*
X147066000Y-100584000D01*
X147066000Y-100584000D02*
X146939000Y-100711000D01*
X146939000Y-100711000D02*
X146939000Y-101346000D01*
X146939000Y-101346000D02*
X146950000Y-101900000D01*
X146950000Y-101900000D02*
X146950000Y-103575000D01*
X146950000Y-103575000D02*
X146950000Y-108350000D01*
X146950000Y-108350000D02*
X147574000Y-109093000D01*
X147574000Y-109093000D02*
X147574000Y-108966000D01*
X147574000Y-108966000D02*
X147828000Y-108966000D01*
X147828000Y-108966000D02*
X148082000Y-108712000D01*
X148082000Y-108712000D02*
X148037800Y-108725000D01*
X170180000Y-87376000D02*
X168529000Y-85725000D01*
X168529000Y-85725000D02*
X168529000Y-83566000D01*
X168529000Y-83566000D02*
X168580000Y-83530000D01*
X115062000Y-107315000D02*
X114681000Y-107696000D01*
X114681000Y-107696000D02*
X114700000Y-107675000D01*
X116460700Y-85420000D02*
X116459000Y-85471000D01*
X116459000Y-85471000D02*
X116586000Y-85598000D01*
X144250000Y-110575000D02*
X144272000Y-110617000D01*
X144272000Y-110617000D02*
X144018000Y-110363000D01*
X144018000Y-110363000D02*
X144018000Y-109982000D01*
X144018000Y-109982000D02*
X143789414Y-109505074D01*
X143789414Y-109505074D02*
X143736414Y-109513074D01*
X143736414Y-109513074D02*
X143789414Y-109505074D01*
X143789414Y-109505074D02*
X141375206Y-109524998D01*
X141375206Y-109524998D02*
X140589000Y-110744000D01*
X140589000Y-110744000D02*
X140589000Y-111125000D01*
X151470000Y-89890000D02*
X151511000Y-89916000D01*
X151511000Y-89916000D02*
X152146000Y-89916000D01*
X153797000Y-89154000D02*
X153797000Y-86741000D01*
X153670000Y-89154000D02*
X153797000Y-89154000D01*
X153543000Y-89281000D02*
X153670000Y-89154000D01*
X152400000Y-89281000D02*
X153543000Y-89281000D01*
X152400000Y-89662000D02*
X152400000Y-89281000D01*
X152146000Y-89916000D02*
X152400000Y-89662000D01*
X155321000Y-88265000D02*
X155321000Y-90424000D01*
X154940000Y-87884000D02*
X155321000Y-88265000D01*
X155321000Y-90424000D02*
X155300000Y-90450000D01*
X148037800Y-108725000D02*
X148082000Y-108712000D01*
X148082000Y-108712000D02*
X147828000Y-108966000D01*
X147828000Y-108966000D02*
X147828000Y-109650000D01*
X147828000Y-109650000D02*
X147828000Y-110236000D01*
X147828000Y-110236000D02*
X147701000Y-110236000D01*
X147701000Y-110236000D02*
X147320000Y-110617000D01*
X147320000Y-110617000D02*
X147275000Y-110575000D01*
X151480000Y-88330000D02*
X151511000Y-88392000D01*
X151511000Y-88392000D02*
X151892000Y-88392000D01*
X151892000Y-88392000D02*
X152400000Y-88900000D01*
X152400000Y-88900000D02*
X153543000Y-88900000D01*
X153543000Y-88900000D02*
X153543000Y-87757000D01*
X153543000Y-87757000D02*
X153035000Y-87249000D01*
X153035000Y-87249000D02*
X153035000Y-86995000D01*
X146558000Y-87884000D02*
X147193000Y-88519000D01*
X147193000Y-88519000D02*
X147220000Y-88480000D01*
X177580000Y-109267000D02*
X177546000Y-109220000D01*
X177546000Y-109220000D02*
X178181000Y-109855000D01*
X178181000Y-109855000D02*
X178943000Y-109855000D01*
X178943000Y-109855000D02*
X178943000Y-106900000D01*
X178943000Y-106900000D02*
X178943000Y-105918000D01*
X178943000Y-105918000D02*
X178562000Y-105918000D01*
X178562000Y-105918000D02*
X178181000Y-105537000D01*
X178181000Y-105537000D02*
X178054000Y-105537000D01*
X178054000Y-105537000D02*
X178054000Y-105283000D01*
X178054000Y-105283000D02*
X177546000Y-104775000D01*
X177546000Y-104775000D02*
X177546000Y-104648000D01*
X177546000Y-104648000D02*
X177580000Y-104630000D01*
X119400000Y-85375000D02*
X119380000Y-85344000D01*
X119380000Y-85344000D02*
X119253000Y-85344000D01*
X119253000Y-85344000D02*
X118618000Y-85979000D01*
X118618000Y-85979000D02*
X116840000Y-85979000D01*
X116840000Y-85979000D02*
X116459000Y-85598000D01*
X116459000Y-85598000D02*
X116459000Y-85471000D01*
X116459000Y-85471000D02*
X116460700Y-85420000D01*
X114750000Y-109425000D02*
X114808000Y-109474000D01*
X114808000Y-109474000D02*
X115189000Y-109474000D01*
X115189000Y-109474000D02*
X115697000Y-109982000D01*
X115697000Y-109982000D02*
X117602000Y-109982000D01*
X117602000Y-109982000D02*
X118110000Y-109474000D01*
X118110000Y-109474000D02*
X118050000Y-109450000D01*
X147275000Y-110575000D02*
X147320000Y-110617000D01*
X147320000Y-110617000D02*
X146939000Y-110617000D01*
X146939000Y-110617000D02*
X146431000Y-111125000D01*
X146431000Y-111125000D02*
X144780000Y-111125000D01*
X144780000Y-111125000D02*
X144272000Y-110617000D01*
X144272000Y-110617000D02*
X144250000Y-110575000D01*
X147625000Y-116100000D02*
X147574000Y-116078000D01*
X147574000Y-116078000D02*
X147320000Y-116078000D01*
X147320000Y-116078000D02*
X146685000Y-116713000D01*
X146685000Y-116713000D02*
X144907000Y-116713000D01*
X144907000Y-116713000D02*
X144653000Y-116459000D01*
X144653000Y-116459000D02*
X144653000Y-116078000D01*
X144653000Y-116078000D02*
X144650000Y-116100000D01*
X114700000Y-107675000D02*
X114681000Y-107696000D01*
X114681000Y-107696000D02*
X114808000Y-107823000D01*
X114808000Y-107823000D02*
X114808000Y-109474000D01*
X114808000Y-109474000D02*
X114750000Y-109425000D01*
X149370000Y-116040000D02*
X149352000Y-116078000D01*
X149352000Y-116078000D02*
X148971000Y-116459000D01*
X148971000Y-116459000D02*
X148971000Y-116586000D01*
X148971000Y-116586000D02*
X148336000Y-116586000D01*
X148336000Y-116586000D02*
X148209000Y-116459000D01*
X148209000Y-116459000D02*
X147955000Y-116459000D01*
X147955000Y-116459000D02*
X147574000Y-116078000D01*
X147574000Y-116078000D02*
X147625000Y-116100000D01*
X151470000Y-89890000D02*
X151511000Y-89916000D01*
X151511000Y-89916000D02*
X151892000Y-89535000D01*
X151892000Y-89535000D02*
X152019000Y-89535000D01*
X152019000Y-89535000D02*
X152019000Y-89281000D01*
X152019000Y-89281000D02*
X151765000Y-89027000D01*
X151765000Y-89027000D02*
X151765000Y-88773000D01*
X151765000Y-88773000D02*
X151511000Y-88519000D01*
X151511000Y-88519000D02*
X151511000Y-88392000D01*
X151511000Y-88392000D02*
X151480000Y-88330000D01*
D42*
X154480000Y-110648220D02*
X155718220Y-110648220D01*
X155718220Y-110648220D02*
X156320000Y-111250000D01*
X156320000Y-111250000D02*
X156320000Y-112560000D01*
D43*
X130160000Y-85690000D02*
X128870000Y-85690000D01*
X128870000Y-85690000D02*
X126110000Y-82930000D01*
X149370000Y-116040000D02*
X149050000Y-116040000D01*
X149050000Y-116040000D02*
X148220000Y-115210000D01*
X148220000Y-113640000D02*
X149250000Y-112610000D01*
X148220000Y-115210000D02*
X148220000Y-113640000D01*
X114750000Y-85590000D02*
X116290700Y-85590000D01*
X116290700Y-85590000D02*
X116460700Y-85420000D01*
D42*
X116460700Y-85420000D02*
X116460700Y-85340700D01*
X116460700Y-85340700D02*
X115950000Y-84830000D01*
X115950000Y-84830000D02*
X115950000Y-82930000D01*
X178280000Y-98740000D02*
X178280000Y-100230000D01*
X149230000Y-110870000D02*
X149230000Y-112590000D01*
X149230000Y-112590000D02*
X149250000Y-112610000D01*
X149230000Y-96550000D02*
X149230000Y-98050000D01*
X149230000Y-98050000D02*
X149200000Y-98080000D01*
X149170000Y-101320000D02*
X149170000Y-99730000D01*
X149170000Y-99730000D02*
X149200000Y-99700000D01*
X149200000Y-99700000D02*
X149200000Y-98080000D01*
D43*
X146720000Y-89380000D02*
X147030000Y-89380000D01*
X147030000Y-89380000D02*
X147270000Y-89140000D01*
X147270000Y-89140000D02*
X147270000Y-88530000D01*
X147270000Y-88530000D02*
X147220000Y-88480000D01*
X151480000Y-88330000D02*
X151480000Y-91430000D01*
X123120000Y-106965000D02*
X123120000Y-108000000D01*
X123300000Y-108180000D02*
X124140000Y-108180000D01*
X123120000Y-108000000D02*
X123300000Y-108180000D01*
X124720000Y-106965000D02*
X124720000Y-107990000D01*
X123920000Y-107960000D02*
X124140000Y-108180000D01*
X123920000Y-107960000D02*
X123920000Y-106965000D01*
X124530000Y-108180000D02*
X124140000Y-108180000D01*
X124720000Y-107990000D02*
X124530000Y-108180000D01*
X124720000Y-106965000D02*
X125120000Y-106965000D01*
X125120000Y-106965000D02*
X125520000Y-106965000D01*
X125920000Y-106965000D02*
X125520000Y-106965000D01*
X167325000Y-115500000D02*
X166760000Y-115500000D01*
X166760000Y-115500000D02*
X166240000Y-114980000D01*
X147430000Y-101070000D02*
X147950000Y-101590000D01*
X147950000Y-101590000D02*
X147950000Y-102060000D01*
X147950000Y-102060000D02*
X148200000Y-102310000D01*
X148200000Y-102310000D02*
X149680000Y-102310000D01*
X149680000Y-102310000D02*
X150670000Y-101320000D01*
X150670000Y-99730000D02*
X150622000Y-99695000D01*
X150622000Y-99695000D02*
X150241000Y-100076000D01*
X150241000Y-100076000D02*
X150114000Y-100076000D01*
X150114000Y-100076000D02*
X150114000Y-100965000D01*
X150114000Y-100965000D02*
X150241000Y-100965000D01*
X150241000Y-100965000D02*
X150622000Y-101346000D01*
X150622000Y-101346000D02*
X150670000Y-101320000D01*
X150700000Y-98080000D02*
X150749000Y-98044000D01*
X150749000Y-98044000D02*
X150114000Y-97409000D01*
X150114000Y-97409000D02*
X150114000Y-96901000D01*
X150114000Y-96901000D02*
X150368000Y-96901000D01*
X150368000Y-96901000D02*
X150749000Y-96520000D01*
X150749000Y-96520000D02*
X150730000Y-96550000D01*
X131680000Y-87390000D02*
X131680000Y-88890000D01*
X131680000Y-88890000D02*
X131620000Y-88950000D01*
D42*
X166240000Y-113245000D02*
X166240000Y-114980000D01*
X155390000Y-98170000D02*
X154050000Y-98170000D01*
X157530000Y-100310000D02*
X155390000Y-98170000D01*
X157530000Y-115420000D02*
X157530000Y-100310000D01*
X158020000Y-115910000D02*
X157530000Y-115420000D01*
X165310000Y-115910000D02*
X158020000Y-115910000D01*
X166240000Y-114980000D02*
X165310000Y-115910000D01*
X150700000Y-98080000D02*
X153960000Y-98080000D01*
X153960000Y-98080000D02*
X154050000Y-98170000D01*
X150730000Y-96550000D02*
X150730000Y-101260000D01*
X150730000Y-101260000D02*
X150670000Y-101320000D01*
D43*
X133730000Y-82930000D02*
X133730000Y-82730000D01*
X133730000Y-82730000D02*
X135000000Y-81460000D01*
X155950000Y-82970000D02*
X156540000Y-83560000D01*
X155950000Y-82460000D02*
X155950000Y-82970000D01*
X154950000Y-81460000D02*
X155950000Y-82460000D01*
X135000000Y-81460000D02*
X154950000Y-81460000D01*
X146720000Y-90580000D02*
X145780000Y-90580000D01*
X134990000Y-90200000D02*
X134990000Y-88770000D01*
X135380000Y-90590000D02*
X134990000Y-90200000D01*
X145780000Y-90580000D02*
X145750000Y-90550000D01*
X134990000Y-88770000D02*
X135020000Y-88740000D01*
X133730000Y-82930000D02*
X133730000Y-83880000D01*
X133730000Y-83880000D02*
X135020000Y-85170000D01*
X135020000Y-85170000D02*
X135020000Y-88740000D01*
X140620000Y-91840000D02*
X138810000Y-91840000D01*
X139192000Y-97155000D02*
X139827000Y-96520000D01*
X139192000Y-97282000D02*
X139192000Y-97155000D01*
X139192000Y-97282000D02*
X139065000Y-97409000D01*
X139725000Y-96418000D02*
X139827000Y-96520000D01*
X139725000Y-95250000D02*
X139725000Y-96418000D01*
X138225000Y-93750000D02*
X139725000Y-95250000D01*
X138225000Y-92425000D02*
X138225000Y-93750000D01*
X138810000Y-91840000D02*
X138225000Y-92425000D01*
X157600000Y-92202000D02*
X157600000Y-94225000D01*
X177580000Y-105855000D02*
X177580000Y-106473000D01*
X177575000Y-105850000D02*
X177580000Y-105855000D01*
X159150000Y-99025000D02*
X163100000Y-99025000D01*
X158325000Y-98200000D02*
X159150000Y-99025000D01*
X158325000Y-96375000D02*
X158325000Y-98200000D01*
X158050000Y-96100000D02*
X158325000Y-96375000D01*
X157600000Y-94225000D02*
X158000000Y-94625000D01*
X139375000Y-101175000D02*
X139020000Y-100820000D01*
X139020000Y-100820000D02*
X139020000Y-97440000D01*
X131920000Y-95840000D02*
X131360000Y-95840000D01*
X131360000Y-95840000D02*
X130850000Y-96350000D01*
X146430000Y-113410000D02*
X146430000Y-113255000D01*
X146430000Y-113255000D02*
X145375000Y-112200000D01*
X145775000Y-109625000D02*
X145775000Y-110575000D01*
X145950000Y-109450000D02*
X145775000Y-109625000D01*
X146125000Y-116100000D02*
X146125000Y-113715000D01*
X146125000Y-113715000D02*
X146430000Y-113410000D01*
X114750000Y-87090000D02*
X114315000Y-87090000D01*
X116585000Y-81025000D02*
X118490000Y-82930000D01*
X115025000Y-81025000D02*
X116585000Y-81025000D01*
X113825000Y-82225000D02*
X115025000Y-81025000D01*
X113825000Y-86600000D02*
X113825000Y-82225000D01*
X114315000Y-87090000D02*
X113825000Y-86600000D01*
X116480700Y-88850000D02*
X116480700Y-87150000D01*
X116480700Y-87150000D02*
X116460700Y-87130000D01*
X147370000Y-98620000D02*
X147320000Y-98679000D01*
X147320000Y-98679000D02*
X146939000Y-98298000D01*
X146939000Y-98298000D02*
X146685000Y-98298000D01*
X146685000Y-98298000D02*
X146431000Y-98044000D01*
X146431000Y-98044000D02*
X142240000Y-98044000D01*
X142240000Y-98044000D02*
X140970000Y-96774000D01*
X155448000Y-93472000D02*
X156718000Y-92202000D01*
X156718000Y-92202000D02*
X156775000Y-92150000D01*
X116200000Y-107675000D02*
X116205000Y-107696000D01*
X116205000Y-107696000D02*
X115824000Y-108077000D01*
X115824000Y-108077000D02*
X115824000Y-108204000D01*
X115824000Y-108204000D02*
X115570000Y-108204000D01*
X115570000Y-108204000D02*
X115570000Y-107061000D01*
X115570000Y-107061000D02*
X117128390Y-105274769D01*
X117128390Y-105274769D02*
X117225000Y-103475000D01*
X117225000Y-103475000D02*
X119888000Y-103505000D01*
X119888000Y-103505000D02*
X121285000Y-104902000D01*
X121285000Y-104902000D02*
X121285000Y-105283000D01*
X121285000Y-105283000D02*
X121158000Y-105410000D01*
X121158000Y-105410000D02*
X121096500Y-105471500D01*
X121096500Y-105471500D02*
X121031000Y-105537000D01*
X121031000Y-105537000D02*
X120904000Y-105664000D01*
X120904000Y-105664000D02*
X120523000Y-105664000D01*
X120523000Y-105664000D02*
X119253000Y-106934000D01*
X119253000Y-106934000D02*
X119126000Y-106934000D01*
X119126000Y-106934000D02*
X119126000Y-110109000D01*
X119126000Y-110109000D02*
X120015000Y-110998000D01*
X120015000Y-110998000D02*
X120015000Y-112395000D01*
X120015000Y-112395000D02*
X121030000Y-113410000D01*
X123120000Y-104615000D02*
X123063000Y-104648000D01*
X123063000Y-104648000D02*
X122428000Y-104648000D01*
X122428000Y-104648000D02*
X121920000Y-105156000D01*
X120777000Y-105156000D02*
X119888000Y-105156000D01*
X119888000Y-105156000D02*
X119507000Y-105537000D01*
X119507000Y-105537000D02*
X118999000Y-105537000D01*
X118999000Y-105537000D02*
X116840000Y-107696000D01*
X116840000Y-107696000D02*
X116840000Y-108204000D01*
X116840000Y-108204000D02*
X116586000Y-108204000D01*
X116586000Y-108204000D02*
X116205000Y-107823000D01*
X116205000Y-107823000D02*
X116205000Y-107696000D01*
X116205000Y-107696000D02*
X116200000Y-107675000D01*
X156775000Y-92150000D02*
X156718000Y-92202000D01*
X156718000Y-92202000D02*
X157600000Y-92202000D01*
X157600000Y-92202000D02*
X160274000Y-92202000D01*
X160274000Y-92202000D02*
X161163000Y-91313000D01*
X156775000Y-92150000D02*
X156718000Y-92202000D01*
X156718000Y-92202000D02*
X157353000Y-91567000D01*
X157353000Y-91567000D02*
X157353000Y-89916000D01*
X157353000Y-89916000D02*
X156845000Y-89408000D01*
X156845000Y-89408000D02*
X156845000Y-86360000D01*
X156845000Y-85217000D02*
X157988000Y-84074000D01*
X157988000Y-84074000D02*
X157988000Y-83566000D01*
X157988000Y-83566000D02*
X158040000Y-83560000D01*
X145870000Y-98610000D02*
X145923000Y-98552000D01*
X145923000Y-98552000D02*
X146177000Y-98806000D01*
X146177000Y-98806000D02*
X146177000Y-101727000D01*
X146177000Y-101727000D02*
X146050000Y-101854000D01*
X146050000Y-101854000D02*
X146050000Y-101981000D01*
X146050000Y-101981000D02*
X145161000Y-102870000D01*
X145161000Y-102870000D02*
X145161000Y-110236000D01*
X145161000Y-110236000D02*
X145415000Y-110236000D01*
X145415000Y-110236000D02*
X145796000Y-110617000D01*
X145796000Y-110617000D02*
X145775000Y-110575000D01*
X139020000Y-97440000D02*
X139065000Y-97409000D01*
X140462000Y-91948000D02*
X140589000Y-91821000D01*
X140589000Y-91821000D02*
X140620000Y-91840000D01*
X127127000Y-85471000D02*
X127127000Y-88138000D01*
X127127000Y-88138000D02*
X127635000Y-88138000D01*
X127635000Y-88138000D02*
X127762000Y-88265000D01*
X127762000Y-88265000D02*
X127757800Y-88275000D01*
X127757800Y-88275000D02*
X127762000Y-88265000D01*
X127762000Y-88265000D02*
X128778000Y-88265000D01*
X132842000Y-88392000D02*
X133096000Y-88392000D01*
X133096000Y-88392000D02*
X133477000Y-88773000D01*
X133477000Y-88773000D02*
X133520000Y-88740000D01*
X158090000Y-81870000D02*
X158090000Y-83510000D01*
X158090000Y-83510000D02*
X158040000Y-83560000D01*
X142870000Y-98600000D02*
X142360000Y-98600000D01*
X142360000Y-98600000D02*
X141200000Y-97440000D01*
X141200000Y-97440000D02*
X139020000Y-97440000D01*
X142870000Y-98600000D02*
X144370000Y-98600000D01*
X147370000Y-98620000D02*
X145880000Y-98620000D01*
X145880000Y-98620000D02*
X145860000Y-98600000D01*
X145860000Y-98600000D02*
X144370000Y-98600000D01*
X114750000Y-87090000D02*
X116420700Y-87090000D01*
X116420700Y-87090000D02*
X116460700Y-87130000D01*
D42*
X117959300Y-85420000D02*
X117980000Y-85420000D01*
X117980000Y-85420000D02*
X118490000Y-84910000D01*
X118490000Y-84910000D02*
X118490000Y-82930000D01*
X177580000Y-106473000D02*
X178519800Y-106473000D01*
D43*
X123920000Y-104615000D02*
X123520000Y-104615000D01*
X123520000Y-104615000D02*
X123120000Y-104615000D01*
X123120000Y-104615000D02*
X123120000Y-103010000D01*
X125520000Y-102800000D02*
X125520000Y-104615000D01*
X125130000Y-102410000D02*
X125520000Y-102800000D01*
X123720000Y-102410000D02*
X125130000Y-102410000D01*
X123120000Y-103010000D02*
X123720000Y-102410000D01*
X131190000Y-82930000D02*
X131190000Y-82440000D01*
X131190000Y-82440000D02*
X132740000Y-80890000D01*
X155610000Y-80890000D02*
X156590000Y-81870000D01*
X132740000Y-80890000D02*
X155610000Y-80890000D01*
X146720000Y-90980000D02*
X146190000Y-90980000D01*
X134520000Y-90960000D02*
X134520000Y-88740000D01*
X134760000Y-91200000D02*
X134520000Y-90960000D01*
X145940000Y-91230000D02*
X145010000Y-91230000D01*
X146190000Y-90980000D02*
X145940000Y-91230000D01*
X131190000Y-82930000D02*
X131190000Y-84460000D01*
X134520000Y-85440000D02*
X134520000Y-88740000D01*
X133810000Y-84730000D02*
X134520000Y-85440000D01*
X131460000Y-84730000D02*
X133810000Y-84730000D01*
X131190000Y-84460000D02*
X131460000Y-84730000D01*
D42*
X155210000Y-116410000D02*
X153715000Y-116410000D01*
X153715000Y-116410000D02*
X153475000Y-116650000D01*
X115950000Y-91820000D02*
X115950000Y-94360000D01*
X115950000Y-94360000D02*
X115950000Y-96900000D01*
X115950000Y-96900000D02*
X115950000Y-99440000D01*
X115950000Y-99440000D02*
X115950000Y-101980000D01*
X115950000Y-101980000D02*
X115950000Y-104520000D01*
D43*
X115950000Y-104520000D02*
X115824000Y-104648000D01*
X115951000Y-91821000D02*
X115950000Y-91820000D01*
X115950000Y-99440000D02*
X115951000Y-99441000D01*
X115951000Y-101981000D02*
X115950000Y-101980000D01*
X115950000Y-96900000D02*
X115951000Y-96901000D01*
X115951000Y-99441000D02*
X115950000Y-99440000D01*
X115950000Y-94360000D02*
X115951000Y-94361000D01*
X115951000Y-96901000D02*
X115950000Y-96900000D01*
X115950000Y-91820000D02*
X115951000Y-91821000D01*
X115951000Y-94361000D02*
X115950000Y-94360000D01*
X139520000Y-110940000D02*
X139573000Y-110998000D01*
X139573000Y-110998000D02*
X139827000Y-110998000D01*
X139827000Y-110998000D02*
X140081000Y-111252000D01*
X140081000Y-111252000D02*
X140208000Y-111252000D01*
X140208000Y-111252000D02*
X140208000Y-111506000D01*
X140208000Y-111506000D02*
X140335000Y-111506000D01*
X140335000Y-111506000D02*
X140462000Y-111633000D01*
X140462000Y-111633000D02*
X140843000Y-111633000D01*
X140843000Y-111633000D02*
X140970000Y-111506000D01*
X140970000Y-111506000D02*
X147447000Y-111506000D01*
X147447000Y-111506000D02*
X148590000Y-110363000D01*
X148590000Y-110363000D02*
X148590000Y-110236000D01*
X148590000Y-110236000D02*
X149860000Y-110236000D01*
X149860000Y-110236000D02*
X150114000Y-110490000D01*
X150114000Y-110490000D02*
X150368000Y-110490000D01*
X150368000Y-110490000D02*
X150749000Y-110871000D01*
X150749000Y-110871000D02*
X150730000Y-110870000D01*
X150870000Y-116040000D02*
X154840000Y-116040000D01*
X154840000Y-116040000D02*
X155210000Y-116410000D01*
D42*
X176640200Y-104630000D02*
X176640200Y-106473000D01*
X176640200Y-104630000D02*
X176640200Y-103749800D01*
X178519800Y-103549800D02*
X178519800Y-104630000D01*
X178250000Y-103280000D02*
X178519800Y-103549800D01*
X177110000Y-103280000D02*
X178250000Y-103280000D01*
X176640200Y-103749800D02*
X177110000Y-103280000D01*
X150730000Y-110870000D02*
X150730000Y-112630000D01*
X150730000Y-112630000D02*
X151510000Y-113410000D01*
X176640200Y-106473000D02*
X176377000Y-106473000D01*
X176377000Y-106473000D02*
X175580000Y-107270000D01*
X175580000Y-107270000D02*
X175580000Y-108206800D01*
X175580000Y-108206800D02*
X176640200Y-109267000D01*
X176640200Y-109267000D02*
X176640200Y-109950200D01*
X178900000Y-115290000D02*
X176820000Y-115290000D01*
X179560000Y-114630000D02*
X178900000Y-115290000D01*
X179560000Y-111330000D02*
X179560000Y-114630000D01*
X179070000Y-110840000D02*
X179560000Y-111330000D01*
X177530000Y-110840000D02*
X179070000Y-110840000D01*
X176640200Y-109950200D02*
X177530000Y-110840000D01*
X176820000Y-115290000D02*
X176820000Y-116090000D01*
X176820000Y-116090000D02*
X176550000Y-116360000D01*
X176550000Y-116360000D02*
X170460000Y-116360000D01*
X170460000Y-116360000D02*
X170460000Y-116410000D01*
X171320000Y-113245000D02*
X171320000Y-115890000D01*
X155210000Y-116410000D02*
X153980000Y-115180000D01*
X170800000Y-116410000D02*
X170460000Y-116410000D01*
X170460000Y-116410000D02*
X155210000Y-116410000D01*
X171320000Y-115890000D02*
X170800000Y-116410000D01*
X156320000Y-114060000D02*
X156320000Y-114930000D01*
X151510000Y-114650000D02*
X151510000Y-113410000D01*
X152040000Y-115180000D02*
X151510000Y-114650000D01*
X156070000Y-115180000D02*
X153980000Y-115180000D01*
X153980000Y-115180000D02*
X152040000Y-115180000D01*
X156320000Y-114930000D02*
X156070000Y-115180000D01*
X149250000Y-114110000D02*
X150810000Y-114110000D01*
X150810000Y-114110000D02*
X151510000Y-113410000D01*
X176820000Y-112090000D02*
X176820000Y-111290000D01*
X176820000Y-111290000D02*
X173770000Y-108240000D01*
X173770000Y-108240000D02*
X165880000Y-108240000D01*
X165880000Y-108240000D02*
X164970000Y-109150000D01*
X164970000Y-109150000D02*
X164970000Y-113245000D01*
D43*
X124525000Y-93475000D02*
X121922200Y-93475000D01*
X124650000Y-93600000D02*
X124525000Y-93475000D01*
X125120000Y-104615000D02*
X125120000Y-103520000D01*
X119075000Y-106425000D02*
X118050000Y-107450000D01*
X124825000Y-103225000D02*
X123950000Y-103225000D01*
X125120000Y-103520000D02*
X124825000Y-103225000D01*
X118050000Y-107450000D02*
X118050000Y-107575000D01*
X118050000Y-107575000D02*
X118110000Y-107569000D01*
X118110000Y-107569000D02*
X116205000Y-109474000D01*
X116205000Y-109474000D02*
X116250000Y-109425000D01*
X121922200Y-93475000D02*
X121920000Y-93472000D01*
X121920000Y-93472000D02*
X122428000Y-93472000D01*
X122428000Y-93472000D02*
X123190000Y-92710000D01*
X123190000Y-92710000D02*
X123190000Y-90551000D01*
X120904000Y-88265000D02*
X121920000Y-88265000D01*
X121920000Y-88265000D02*
X121922200Y-88275000D01*
D42*
X175370000Y-84800000D02*
X175370000Y-85040000D01*
X175370000Y-85040000D02*
X174310000Y-86100000D01*
X174310000Y-86100000D02*
X174310000Y-107330000D01*
X167600000Y-110260000D02*
X167510000Y-110350000D01*
X167510000Y-110350000D02*
X167510000Y-113245000D01*
X171120000Y-83530000D02*
X175140000Y-83530000D01*
X175140000Y-83530000D02*
X175370000Y-83300000D01*
D43*
X152980000Y-91430000D02*
X153035000Y-91440000D01*
X153035000Y-91440000D02*
X153289000Y-91694000D01*
X153289000Y-91694000D02*
X153289000Y-92075000D01*
X153289000Y-92075000D02*
X152781000Y-92583000D01*
X152781000Y-92583000D02*
X150241000Y-92583000D01*
X158369000Y-92837000D02*
X158750000Y-92456000D01*
X158750000Y-92456000D02*
X161163000Y-92456000D01*
X161163000Y-92456000D02*
X162941000Y-94234000D01*
X162941000Y-94234000D02*
X162941000Y-97536000D01*
X162941000Y-97536000D02*
X163576000Y-98171000D01*
X175514000Y-98171000D02*
X176403000Y-98171000D01*
X176403000Y-98171000D02*
X176784000Y-98552000D01*
X176784000Y-98552000D02*
X176784000Y-98679000D01*
X176784000Y-98679000D02*
X176780000Y-98740000D01*
X176780000Y-100230000D02*
X176784000Y-100203000D01*
X176784000Y-100203000D02*
X177165000Y-99822000D01*
X177165000Y-99822000D02*
X177165000Y-99695000D01*
X177165000Y-99695000D02*
X177419000Y-99695000D01*
X177419000Y-99695000D02*
X177419000Y-100838000D01*
X177419000Y-100838000D02*
X177038000Y-101219000D01*
X177038000Y-101219000D02*
X176911000Y-101219000D01*
X176911000Y-101219000D02*
X176911000Y-101346000D01*
X176911000Y-101346000D02*
X176657000Y-101600000D01*
X176657000Y-101600000D02*
X176657000Y-102108000D01*
X176657000Y-102108000D02*
X176640200Y-102090000D01*
D42*
X176640200Y-102090000D02*
X176640200Y-98879800D01*
X176640200Y-98879800D02*
X176780000Y-98740000D01*
D43*
X152530000Y-92270000D02*
X150820000Y-92270000D01*
X150820000Y-92270000D02*
X150490000Y-91940000D01*
X150490000Y-91940000D02*
X150490000Y-90900000D01*
X150490000Y-90900000D02*
X150170000Y-90580000D01*
X152980000Y-91820000D02*
X152530000Y-92270000D01*
X152970000Y-89890000D02*
X152970000Y-91420000D01*
X152970000Y-91420000D02*
X152980000Y-91430000D01*
X152980000Y-91430000D02*
X152980000Y-91820000D01*
X150170000Y-90580000D02*
X149720000Y-90580000D01*
X149720000Y-90580000D02*
X148400000Y-90580000D01*
X148400000Y-90580000D02*
X148030000Y-90210000D01*
X147220000Y-91480000D02*
X147220000Y-91020000D01*
X149220000Y-89020000D02*
X149220000Y-88480000D01*
X147220000Y-91020000D02*
X148030000Y-90210000D01*
X148030000Y-90210000D02*
X149220000Y-89020000D01*
X152980000Y-88330000D02*
X152980000Y-87820000D01*
X150430000Y-89780000D02*
X149720000Y-89780000D01*
X150710000Y-89500000D02*
X150430000Y-89780000D01*
X150710000Y-87790000D02*
X150710000Y-89500000D01*
X151150000Y-87350000D02*
X150710000Y-87790000D01*
X152510000Y-87350000D02*
X151150000Y-87350000D01*
X152980000Y-87820000D02*
X152510000Y-87350000D01*
X140620000Y-92840000D02*
X139515000Y-92840000D01*
X155275000Y-91300000D02*
X155275000Y-92150000D01*
X155250000Y-91275000D02*
X155275000Y-91300000D01*
X144200000Y-92350000D02*
X148875000Y-92350000D01*
X139515000Y-92840000D02*
X139175000Y-92500000D01*
X155275000Y-92150000D02*
X155321000Y-92202000D01*
X155321000Y-92202000D02*
X156210000Y-91313000D01*
X156210000Y-91313000D02*
X156210000Y-90805000D01*
X156210000Y-90805000D02*
X156464000Y-90805000D01*
X156464000Y-90805000D02*
X156845000Y-90424000D01*
X156845000Y-90424000D02*
X156800000Y-90450000D01*
X144370000Y-97100000D02*
X144399000Y-97155000D01*
X144399000Y-97155000D02*
X144780000Y-96774000D01*
X144780000Y-96774000D02*
X144780000Y-96520000D01*
X144780000Y-96520000D02*
X145034000Y-96266000D01*
X145034000Y-96266000D02*
X145034000Y-95885000D01*
X153035000Y-103505000D02*
X151892000Y-103505000D01*
X145669000Y-101600000D02*
X144272000Y-100203000D01*
X144272000Y-100203000D02*
X144250000Y-100175000D01*
X144370000Y-97100000D02*
X144750000Y-97100000D01*
X157540000Y-95550000D02*
X157540000Y-95498860D01*
X157488860Y-95498860D02*
X157540000Y-95550000D01*
X156368860Y-95498860D02*
X157488860Y-95498860D01*
X154640000Y-93770000D02*
X156368860Y-95498860D01*
X144750000Y-97100000D02*
X146470000Y-95380000D01*
X159950000Y-95498860D02*
X157540000Y-95498860D01*
X157540000Y-95498860D02*
X155128860Y-95498860D01*
X153470000Y-93840000D02*
X140620000Y-93840000D01*
X155128860Y-95498860D02*
X153470000Y-93840000D01*
X142870000Y-97100000D02*
X142875000Y-97155000D01*
X142875000Y-97155000D02*
X143256000Y-97155000D01*
X143256000Y-97155000D02*
X143764000Y-97663000D01*
X143764000Y-97663000D02*
X147447000Y-97663000D01*
X147447000Y-97663000D02*
X147828000Y-98044000D01*
X147828000Y-98044000D02*
X147955000Y-98044000D01*
X147955000Y-98044000D02*
X147955000Y-99187000D01*
X147955000Y-99187000D02*
X147320000Y-99822000D01*
X143510000Y-100076000D02*
X143256000Y-99822000D01*
X143256000Y-99822000D02*
X143256000Y-99568000D01*
X143256000Y-99568000D02*
X143002000Y-99568000D01*
X143002000Y-99568000D02*
X142748000Y-99822000D01*
X142748000Y-99822000D02*
X142748000Y-100203000D01*
X142748000Y-100203000D02*
X142750000Y-100175000D01*
X142870000Y-97100000D02*
X142870000Y-95950000D01*
X142740000Y-92860000D02*
X142740000Y-93340000D01*
X142750000Y-92850000D02*
X142740000Y-92860000D01*
X142870000Y-95950000D02*
X142820000Y-95900000D01*
X159950000Y-85801140D02*
X155598860Y-85801140D01*
X153280000Y-93340000D02*
X142740000Y-93340000D01*
X142740000Y-93340000D02*
X140620000Y-93340000D01*
X154380000Y-92240000D02*
X153280000Y-93340000D01*
X154380000Y-87020000D02*
X154380000Y-92240000D01*
X155598860Y-85801140D02*
X154380000Y-87020000D01*
X147370000Y-97120000D02*
X147370000Y-96730000D01*
X147370000Y-96730000D02*
X148190000Y-95910000D01*
X148190000Y-95910000D02*
X154220000Y-95910000D01*
X160060000Y-111978860D02*
X159308860Y-111978860D01*
X159308860Y-111978860D02*
X158050000Y-110720000D01*
X158050000Y-110720000D02*
X158050000Y-99740000D01*
X158050000Y-99740000D02*
X154220000Y-95910000D01*
X154220000Y-95910000D02*
X153150000Y-94840000D01*
X153150000Y-94840000D02*
X140620000Y-94840000D01*
X145870000Y-97110000D02*
X145870000Y-96920000D01*
X145870000Y-96920000D02*
X147090000Y-95700000D01*
X147090000Y-95700000D02*
X147480000Y-95700000D01*
X156220000Y-96170000D02*
X157625000Y-97575000D01*
X157625000Y-97575000D02*
X157625000Y-98485000D01*
X160060000Y-102281140D02*
X160060000Y-100920000D01*
X160060000Y-100920000D02*
X157625000Y-98485000D01*
X157625000Y-98485000D02*
X153480000Y-94340000D01*
X153480000Y-94340000D02*
X140620000Y-94340000D01*
X117959300Y-87130000D02*
X117983000Y-87122000D01*
X117983000Y-87122000D02*
X117856000Y-87122000D01*
X117856000Y-87122000D02*
X117475000Y-86741000D01*
X117475000Y-86741000D02*
X117348000Y-86741000D01*
X117348000Y-86741000D02*
X117348000Y-86487000D01*
X117348000Y-86487000D02*
X118872000Y-86487000D01*
X118872000Y-86487000D02*
X119126000Y-86741000D01*
X130937000Y-87249000D02*
X131064000Y-87376000D01*
X131064000Y-87376000D02*
X131064000Y-89027000D01*
X131064000Y-89027000D02*
X131191000Y-89154000D01*
X131191000Y-89154000D02*
X131191000Y-89281000D01*
X131191000Y-89281000D02*
X131318000Y-89408000D01*
X131318000Y-89408000D02*
X132334000Y-89408000D01*
X132334000Y-89408000D02*
X133096000Y-90170000D01*
X133096000Y-91694000D02*
X135001000Y-93599000D01*
X135001000Y-93599000D02*
X135001000Y-97409000D01*
X135001000Y-97409000D02*
X135020000Y-97440000D01*
X134520000Y-97440000D02*
X134493000Y-97409000D01*
X134493000Y-97409000D02*
X134366000Y-97536000D01*
X134366000Y-97536000D02*
X134366000Y-98298000D01*
X134366000Y-98298000D02*
X132461000Y-98298000D01*
X132461000Y-98298000D02*
X132334000Y-98171000D01*
X132334000Y-98171000D02*
X128397000Y-98171000D01*
X128397000Y-98171000D02*
X127254000Y-97028000D01*
X127254000Y-97028000D02*
X123063000Y-97028000D01*
X123063000Y-97028000D02*
X122301000Y-96266000D01*
X122301000Y-96266000D02*
X122301000Y-94234000D01*
X119126000Y-89535000D02*
X118491000Y-89535000D01*
X118491000Y-89535000D02*
X117983000Y-89027000D01*
X117983000Y-89027000D02*
X117983000Y-88900000D01*
X117983000Y-88900000D02*
X117979300Y-88850000D01*
X130190000Y-89080000D02*
X130660000Y-89550000D01*
X130660000Y-89550000D02*
X130660000Y-91960000D01*
X130660000Y-91960000D02*
X131040000Y-92340000D01*
X131920000Y-92340000D02*
X131040000Y-92340000D01*
X122810000Y-95970000D02*
X129650000Y-95970000D01*
X130660000Y-93840000D02*
X131920000Y-93840000D01*
X129920000Y-94580000D02*
X130660000Y-93840000D01*
X129920000Y-95700000D02*
X129920000Y-94580000D01*
X129650000Y-95970000D02*
X129920000Y-95700000D01*
X136020000Y-97440000D02*
X136020000Y-98570000D01*
X135150000Y-99440000D02*
X118490000Y-99440000D01*
X136020000Y-98570000D02*
X135150000Y-99440000D01*
X136520000Y-97440000D02*
X136520000Y-99060000D01*
X135480000Y-100100000D02*
X120130000Y-100050000D01*
X136520000Y-99060000D02*
X135480000Y-100100000D01*
X137520000Y-97440000D02*
X137520000Y-99110000D01*
X135840000Y-100790000D02*
X120830000Y-100790000D01*
X137520000Y-99110000D02*
X135840000Y-100790000D01*
X138020000Y-97440000D02*
X138020000Y-99580000D01*
X136140000Y-101460000D02*
X121450000Y-101460000D01*
X138020000Y-99580000D02*
X136140000Y-101460000D01*
X140620000Y-91340000D02*
X141730000Y-91340000D01*
X151370000Y-85610000D02*
X154050000Y-82930000D01*
X146900000Y-85610000D02*
X151370000Y-85610000D01*
X145030000Y-87480000D02*
X146900000Y-85610000D01*
X143110000Y-87480000D02*
X145030000Y-87480000D01*
X142430000Y-88160000D02*
X143110000Y-87480000D01*
X142430000Y-90640000D02*
X142430000Y-88160000D01*
X141730000Y-91340000D02*
X142430000Y-90640000D01*
X140620000Y-90840000D02*
X140589000Y-90805000D01*
X140589000Y-90805000D02*
X139954000Y-90805000D01*
X139954000Y-90805000D02*
X139319000Y-90170000D01*
X139319000Y-90170000D02*
X139319000Y-90043000D01*
X140620000Y-90840000D02*
X141560000Y-90840000D01*
X150080000Y-85080000D02*
X151180000Y-83980000D01*
X146450000Y-85080000D02*
X150080000Y-85080000D01*
X144650000Y-86880000D02*
X146450000Y-85080000D01*
X142590000Y-86880000D02*
X144650000Y-86880000D01*
X141870000Y-87600000D02*
X142590000Y-86880000D01*
X141870000Y-90530000D02*
X141870000Y-87600000D01*
X141560000Y-90840000D02*
X141870000Y-90530000D01*
X140620000Y-90340000D02*
X140589000Y-90297000D01*
X140589000Y-90297000D02*
X140462000Y-90297000D01*
X140462000Y-90297000D02*
X140081000Y-89916000D01*
X140081000Y-89916000D02*
X140081000Y-89281000D01*
X140620000Y-90340000D02*
X140620000Y-86800000D01*
X147940000Y-84630000D02*
X148550000Y-84020000D01*
X145720000Y-84630000D02*
X147940000Y-84630000D01*
X143990000Y-86360000D02*
X145720000Y-84630000D01*
X141060000Y-86360000D02*
X143990000Y-86360000D01*
X140620000Y-86800000D02*
X141060000Y-86360000D01*
X146430000Y-82930000D02*
X146430000Y-83140000D01*
X146430000Y-83140000D02*
X143690000Y-85880000D01*
X143690000Y-85880000D02*
X139610000Y-85880000D01*
X139610000Y-85880000D02*
X139020000Y-86470000D01*
X139020000Y-86470000D02*
X139020000Y-88740000D01*
X137520000Y-88740000D02*
X137520000Y-86010000D01*
X141460000Y-85360000D02*
X143890000Y-82930000D01*
X138170000Y-85360000D02*
X141460000Y-85360000D01*
X137520000Y-86010000D02*
X138170000Y-85360000D01*
X141350000Y-82930000D02*
X141350000Y-83300000D01*
X141350000Y-83300000D02*
X139900000Y-84750000D01*
X139900000Y-84750000D02*
X137480000Y-84750000D01*
X137480000Y-84750000D02*
X137020000Y-85210000D01*
X137020000Y-85210000D02*
X137020000Y-88740000D01*
X138810000Y-82930000D02*
X138810000Y-84060000D01*
X136520000Y-84910000D02*
X136520000Y-88740000D01*
X137110000Y-84320000D02*
X136520000Y-84910000D01*
X138550000Y-84320000D02*
X137110000Y-84320000D01*
X138810000Y-84060000D02*
X138550000Y-84320000D01*
X136270000Y-82930000D02*
X136270000Y-83720000D01*
X136270000Y-83720000D02*
X136020000Y-83970000D01*
X136020000Y-83970000D02*
X136020000Y-88740000D01*
X124065000Y-84785000D02*
X127265000Y-84785000D01*
X129410000Y-86930000D02*
X129410000Y-87850000D01*
X127265000Y-84785000D02*
X129410000Y-86930000D01*
X123570000Y-82930000D02*
X123570000Y-84290000D01*
X123570000Y-84290000D02*
X124065000Y-84785000D01*
X124065000Y-84785000D02*
X124080000Y-84800000D01*
X131920000Y-92840000D02*
X131030000Y-92840000D01*
X131030000Y-92840000D02*
X129410000Y-91220000D01*
X129410000Y-91220000D02*
X129410000Y-87850000D01*
X129185000Y-87625000D02*
X127757800Y-87625000D01*
X129410000Y-87850000D02*
X129185000Y-87625000D01*
X124660000Y-85570000D02*
X125020000Y-85570000D01*
X126225000Y-88925000D02*
X127757800Y-88925000D01*
X125710000Y-88410000D02*
X126225000Y-88925000D01*
X125710000Y-86260000D02*
X125710000Y-88410000D01*
X125020000Y-85570000D02*
X125710000Y-86260000D01*
X121030000Y-82930000D02*
X121030000Y-84020000D01*
X122580000Y-85570000D02*
X124660000Y-85570000D01*
X124660000Y-85570000D02*
X124670000Y-85570000D01*
X124670000Y-85570000D02*
X124750000Y-85570000D01*
X121030000Y-84020000D02*
X122580000Y-85570000D01*
X131920000Y-93340000D02*
X130880000Y-93340000D01*
X130880000Y-93340000D02*
X128950000Y-91410000D01*
X128950000Y-91410000D02*
X128950000Y-89140000D01*
X128950000Y-89140000D02*
X128735000Y-88925000D01*
X128735000Y-88925000D02*
X127757800Y-88925000D01*
X137225000Y-115875000D02*
X135525000Y-115875000D01*
X128650000Y-115625000D02*
X128650000Y-113410000D01*
X129425000Y-116400000D02*
X128650000Y-115625000D01*
X135000000Y-116400000D02*
X129425000Y-116400000D01*
X135525000Y-115875000D02*
X135000000Y-116400000D01*
X137320000Y-110940000D02*
X137287000Y-110998000D01*
X137287000Y-110998000D02*
X137160000Y-110998000D01*
X137160000Y-110998000D02*
X136779000Y-110617000D01*
X136779000Y-110617000D02*
X136398000Y-110617000D01*
X136398000Y-110617000D02*
X136271000Y-110490000D01*
X136271000Y-110490000D02*
X136144000Y-110490000D01*
X136144000Y-110490000D02*
X136017000Y-110363000D01*
X136017000Y-110363000D02*
X133977000Y-110373000D01*
X133977000Y-110373000D02*
X133850000Y-110500000D01*
X135860000Y-110940000D02*
X137320000Y-110940000D01*
X135830000Y-110910000D02*
X135860000Y-110940000D01*
X126720000Y-104615000D02*
X126720000Y-103360000D01*
X128630000Y-101900000D02*
X129020000Y-102290000D01*
X126650000Y-101900000D02*
X128630000Y-101900000D01*
X126380000Y-102170000D02*
X126650000Y-101900000D01*
X126380000Y-103020000D02*
X126380000Y-102170000D01*
X126720000Y-103360000D02*
X126380000Y-103020000D01*
X131190000Y-113410000D02*
X131191000Y-113411000D01*
X131191000Y-113411000D02*
X130937000Y-113411000D01*
X130937000Y-113411000D02*
X129667000Y-112141000D01*
X129667000Y-112141000D02*
X125095000Y-112141000D01*
X125095000Y-112141000D02*
X124841000Y-111887000D01*
X124841000Y-111887000D02*
X122809000Y-111887000D01*
X122809000Y-111887000D02*
X120650000Y-109728000D01*
X120650000Y-109728000D02*
X120650000Y-109474000D01*
X121666000Y-102997000D02*
X122379950Y-102880276D01*
X122379950Y-102880276D02*
X122975090Y-101800022D01*
X122975095Y-101800000D02*
X126101740Y-101788076D01*
X126101740Y-101788076D02*
X126111000Y-102870000D01*
X126111000Y-102870000D02*
X126111000Y-103124000D01*
X126111000Y-103124000D02*
X126238000Y-103251000D01*
X126238000Y-103251000D02*
X126238000Y-103378000D01*
X126238000Y-103378000D02*
X126365000Y-103505000D01*
X126365000Y-103505000D02*
X126365000Y-104648000D01*
X126365000Y-104648000D02*
X126320000Y-104615000D01*
X125920000Y-104615000D02*
X125920000Y-103495000D01*
X133730000Y-115380000D02*
X133730000Y-113410000D01*
X133900000Y-115550000D02*
X133730000Y-115380000D01*
X120200000Y-103150000D02*
X116950000Y-103100000D01*
X120725000Y-103675000D02*
X120200000Y-103150000D01*
X122025000Y-103675000D02*
X120725000Y-103675000D01*
X123600000Y-102100000D02*
X122025000Y-103675000D01*
X125400000Y-102100000D02*
X123600000Y-102100000D01*
X125825000Y-102525000D02*
X125400000Y-102100000D01*
X125825000Y-103400000D02*
X125825000Y-102525000D01*
X125920000Y-103495000D02*
X125825000Y-103400000D01*
X123520000Y-106965000D02*
X123520000Y-106195000D01*
X134675000Y-112025000D02*
X136060000Y-113410000D01*
X124600000Y-110600000D02*
X129625000Y-110600000D01*
X124150000Y-110150000D02*
X124600000Y-110600000D01*
X121550000Y-109525000D02*
X121650000Y-109625000D01*
X121550000Y-106125000D02*
X121550000Y-109525000D01*
X121800000Y-105875000D02*
X121550000Y-106125000D01*
X123200000Y-105875000D02*
X121800000Y-105875000D01*
X123520000Y-106195000D02*
X123200000Y-105875000D01*
X136060000Y-113410000D02*
X136270000Y-113410000D01*
X126505000Y-89575000D02*
X126120000Y-89960000D01*
X126120000Y-89960000D02*
X126120000Y-94850000D01*
X126120000Y-94850000D02*
X126620000Y-95350000D01*
X127757800Y-89575000D02*
X126505000Y-89575000D01*
X126480002Y-94230002D02*
X127550000Y-95300000D01*
X127757800Y-90225000D02*
X126955000Y-90225000D01*
X126480002Y-90699998D02*
X126480002Y-94180000D01*
X126955000Y-90225000D02*
X126480002Y-90699998D01*
X126480002Y-94180000D02*
X126480002Y-94230002D01*
D42*
X153530000Y-108649240D02*
X152450760Y-108649240D01*
X154050000Y-112330000D02*
X154050000Y-113410000D01*
X152400000Y-110680000D02*
X154050000Y-112330000D01*
X152400000Y-108700000D02*
X152400000Y-110680000D01*
X152450760Y-108649240D02*
X152400000Y-108700000D01*
D43*
X141725000Y-116100000D02*
X143150000Y-116100000D01*
X141575000Y-115950000D02*
X141725000Y-116100000D01*
X137020000Y-97440000D02*
X137020000Y-96020000D01*
X137020000Y-96020000D02*
X137000000Y-96000000D01*
X143890000Y-113410000D02*
X143890000Y-114360000D01*
X143890000Y-114360000D02*
X143150000Y-115100000D01*
X143150000Y-115100000D02*
X143150000Y-116100000D01*
X130170000Y-97230000D02*
X131850000Y-97230000D01*
X156630760Y-108649240D02*
X155430000Y-108649240D01*
X156640000Y-108640000D02*
X156630760Y-108649240D01*
X131850000Y-97230000D02*
X133210000Y-95870000D01*
X142750000Y-110575000D02*
X141475000Y-110575000D01*
X141475000Y-110575000D02*
X141300000Y-110750000D01*
X129520000Y-111330000D02*
X130170000Y-111330000D01*
X138670000Y-109040000D02*
X139520000Y-109040000D01*
X138510000Y-108880000D02*
X138670000Y-109040000D01*
X138510000Y-108500000D02*
X138510000Y-108880000D01*
X138960000Y-108050000D02*
X138510000Y-108500000D01*
X135440000Y-111970000D02*
X141370000Y-111970000D01*
X134420000Y-110950000D02*
X135440000Y-111970000D01*
X130550000Y-110950000D02*
X134420000Y-110950000D01*
X130170000Y-111330000D02*
X130550000Y-110950000D01*
X127120000Y-106965000D02*
X127120000Y-107960000D01*
X123440000Y-111330000D02*
X129520000Y-111330000D01*
X129520000Y-111330000D02*
X129620000Y-111330000D01*
X122840000Y-110730000D02*
X123440000Y-111330000D01*
X122840000Y-108840000D02*
X122840000Y-110730000D01*
X123250000Y-108430000D02*
X122840000Y-108840000D01*
X126650000Y-108430000D02*
X123250000Y-108430000D01*
X127120000Y-107960000D02*
X126650000Y-108430000D01*
X128397000Y-105791000D02*
X128216000Y-105791000D01*
X128905000Y-109093000D02*
X128270000Y-109093000D01*
X128270000Y-109093000D02*
X128143000Y-109220000D01*
X128143000Y-109220000D02*
X125603000Y-109220000D01*
X125603000Y-109220000D02*
X125095000Y-109728000D01*
X119507000Y-107569000D02*
X120650000Y-108712000D01*
X126473064Y-105589273D02*
X126473064Y-105577294D01*
X126483791Y-105600000D02*
X126473064Y-105589273D01*
X128025000Y-105600000D02*
X126483791Y-105600000D01*
X128216000Y-105791000D02*
X128025000Y-105600000D01*
X126720000Y-106965000D02*
X126746000Y-106934000D01*
X119507000Y-107569000D02*
X119550000Y-107575000D01*
X126720000Y-106965000D02*
X126720000Y-106100000D01*
X126720000Y-106100000D02*
X126473064Y-105577294D01*
X135570000Y-109110000D02*
X137250000Y-109110000D01*
X134770000Y-109910000D02*
X135570000Y-109110000D01*
X131550000Y-109910000D02*
X134770000Y-109910000D01*
X131170000Y-110290000D02*
X131550000Y-109910000D01*
X123040000Y-111640000D02*
X131210000Y-111640000D01*
X121150000Y-109750000D02*
X123040000Y-111640000D01*
X121100000Y-106025000D02*
X121150000Y-109750000D01*
X121550000Y-105600000D02*
X121100000Y-106025000D01*
X126473064Y-105577294D02*
X121550000Y-105600000D01*
X137250000Y-109110000D02*
X137320000Y-109040000D01*
X137320000Y-109990000D02*
X137287000Y-109982000D01*
X137287000Y-109982000D02*
X137541000Y-109982000D01*
X137541000Y-109982000D02*
X137922000Y-109601000D01*
X137922000Y-109601000D02*
X138049000Y-109601000D01*
X138049000Y-109601000D02*
X138049000Y-108458000D01*
X138049000Y-108458000D02*
X137922000Y-108331000D01*
X137922000Y-108331000D02*
X137922000Y-108204000D01*
X125857000Y-113411000D02*
X124587000Y-112141000D01*
X124587000Y-112141000D02*
X122174000Y-112141000D01*
X122174000Y-112141000D02*
X119507000Y-109474000D01*
X119507000Y-109474000D02*
X119550000Y-109450000D01*
X128670000Y-97230000D02*
X128670000Y-96590000D01*
X130830000Y-94340000D02*
X131920000Y-94340000D01*
X130380000Y-94790000D02*
X130830000Y-94340000D01*
X130380000Y-95940000D02*
X130380000Y-94790000D01*
X129940000Y-96380000D02*
X130380000Y-95940000D01*
X128880000Y-96380000D02*
X129940000Y-96380000D01*
X128670000Y-96590000D02*
X128880000Y-96380000D01*
X131660000Y-85690000D02*
X132390000Y-85690000D01*
X138520000Y-86110000D02*
X138520000Y-88740000D01*
X138490000Y-86080000D02*
X138520000Y-86110000D01*
X130180000Y-87390000D02*
X130180000Y-86840000D01*
X131660000Y-86430000D02*
X131660000Y-85690000D01*
X131490000Y-86600000D02*
X131660000Y-86430000D01*
X130420000Y-86600000D02*
X131490000Y-86600000D01*
X130180000Y-86840000D02*
X130420000Y-86600000D01*
X120900000Y-85375000D02*
X120904000Y-85344000D01*
X120904000Y-85344000D02*
X121158000Y-85598000D01*
X121158000Y-85598000D02*
X121158000Y-85979000D01*
X121158000Y-85979000D02*
X121920000Y-86741000D01*
X135890000Y-89916000D02*
X135509000Y-89535000D01*
X135509000Y-89535000D02*
X135509000Y-88773000D01*
X135509000Y-88773000D02*
X135520000Y-88740000D01*
X142202200Y-102875000D02*
X136735000Y-102875000D01*
X136320000Y-103290000D02*
X136320000Y-104615000D01*
X136735000Y-102875000D02*
X136320000Y-103290000D01*
X142202200Y-103525000D02*
X143525000Y-103525000D01*
X143685000Y-108725000D02*
X142202200Y-108725000D01*
X144060000Y-108350000D02*
X143685000Y-108725000D01*
X144060000Y-104060000D02*
X144060000Y-108350000D01*
X143525000Y-103525000D02*
X144060000Y-104060000D01*
X141265000Y-104175000D02*
X141230000Y-104140000D01*
X142202200Y-104175000D02*
X141265000Y-104175000D01*
X135520000Y-103250000D02*
X135520000Y-104615000D01*
X136270000Y-102500000D02*
X135520000Y-103250000D01*
X141010000Y-102500000D02*
X136270000Y-102500000D01*
X141180000Y-102330000D02*
X141010000Y-102500000D01*
X142202200Y-104825000D02*
X136930000Y-104825000D01*
X136930000Y-104825000D02*
X136720000Y-104615000D01*
X142202200Y-105475000D02*
X137525000Y-105475000D01*
X135920000Y-105630000D02*
X135920000Y-104615000D01*
X136010000Y-105720000D02*
X135920000Y-105630000D01*
X137280000Y-105720000D02*
X136010000Y-105720000D01*
X137525000Y-105475000D02*
X137280000Y-105720000D01*
X142202200Y-106125000D02*
X138625000Y-106125000D01*
X134320000Y-105790000D02*
X134320000Y-104615000D01*
X134520000Y-105990000D02*
X134320000Y-105790000D01*
X138490000Y-105990000D02*
X134520000Y-105990000D01*
X138625000Y-106125000D02*
X138490000Y-105990000D01*
X142202200Y-106775000D02*
X140465000Y-106775000D01*
X131520000Y-103640000D02*
X131520000Y-104615000D01*
X131330000Y-103450000D02*
X131520000Y-103640000D01*
X131330000Y-102250000D02*
X131330000Y-103450000D01*
X131700000Y-101880000D02*
X131330000Y-102250000D01*
X140200000Y-101880000D02*
X131700000Y-101880000D01*
X140410000Y-101670000D02*
X140200000Y-101880000D01*
X140465000Y-106775000D02*
X140450000Y-106760000D01*
X142202200Y-107425000D02*
X140255000Y-107425000D01*
X135120000Y-102410000D02*
X135120000Y-104615000D01*
X135100000Y-102390000D02*
X135120000Y-102410000D01*
X140255000Y-107425000D02*
X139620000Y-106790000D01*
X156220000Y-107320000D02*
X148142800Y-107320000D01*
X156800000Y-106740000D02*
X156220000Y-107320000D01*
X156800000Y-103610000D02*
X156800000Y-106740000D01*
X156780000Y-103590000D02*
X156800000Y-103610000D01*
X148142800Y-107320000D02*
X148037800Y-107425000D01*
X148037800Y-106125000D02*
X149045000Y-106125000D01*
X149045000Y-106125000D02*
X149695000Y-106775000D01*
X155475000Y-106775000D02*
X149695000Y-106775000D01*
X149695000Y-106775000D02*
X148037800Y-106775000D01*
X156270000Y-105980000D02*
X155475000Y-106775000D01*
X156270000Y-104810000D02*
X156270000Y-105980000D01*
X156210000Y-104750000D02*
X156270000Y-104810000D01*
X155565000Y-105475000D02*
X148037800Y-105475000D01*
X155680000Y-105360000D02*
X155565000Y-105475000D01*
X153905000Y-104825000D02*
X148037800Y-104825000D01*
X153920000Y-104810000D02*
X153905000Y-104825000D01*
X154235000Y-104175000D02*
X148037800Y-104175000D01*
X154260000Y-104150000D02*
X154235000Y-104175000D01*
X148037800Y-102875000D02*
X156645000Y-102875000D01*
X156645000Y-102875000D02*
X156670000Y-102900000D01*
X142202200Y-108075000D02*
X139915000Y-108075000D01*
X134720000Y-103160000D02*
X134720000Y-104615000D01*
X134560000Y-103000000D02*
X134720000Y-103160000D01*
X139915000Y-108075000D02*
X138660000Y-106820000D01*
X127870000Y-108910000D02*
X127990000Y-108910000D01*
X123885000Y-89575000D02*
X124590000Y-90280000D01*
X121922200Y-89575000D02*
X123885000Y-89575000D01*
X124590000Y-90280000D02*
X124750000Y-90950000D01*
X124770000Y-108890000D02*
X124790000Y-108910000D01*
X124790000Y-108910000D02*
X127870000Y-108910000D01*
X128320000Y-108580000D02*
X128320000Y-106965000D01*
X127990000Y-108910000D02*
X128320000Y-108580000D01*
X121922200Y-87625000D02*
X124375000Y-87625000D01*
X135120000Y-109080000D02*
X135120000Y-106965000D01*
X134560000Y-109640000D02*
X135120000Y-109080000D01*
X126170000Y-109640000D02*
X134560000Y-109640000D01*
X126040000Y-109770000D02*
X126170000Y-109640000D01*
X125490000Y-88740000D02*
X125490000Y-91970000D01*
X124375000Y-87625000D02*
X125490000Y-88740000D01*
X120970000Y-96010000D02*
X120970000Y-97260000D01*
X121405000Y-90225000D02*
X120970000Y-90660000D01*
X120970000Y-90660000D02*
X120970000Y-96010000D01*
X121922200Y-90225000D02*
X121405000Y-90225000D01*
X127120000Y-102460000D02*
X127120000Y-104615000D01*
X127170000Y-102410000D02*
X127120000Y-102460000D01*
X121280000Y-97570000D02*
X127020000Y-97570000D01*
X120970000Y-97260000D02*
X121280000Y-97570000D01*
X121922200Y-88925000D02*
X121015000Y-88925000D01*
X131920000Y-102410000D02*
X131920000Y-104615000D01*
X131940000Y-102390000D02*
X131920000Y-102410000D01*
X131750000Y-98440000D02*
X131920000Y-98610000D01*
X121440225Y-98472167D02*
X131750000Y-98440000D01*
X120380000Y-97630000D02*
X121440225Y-98472167D01*
X120380000Y-89560000D02*
X120380000Y-97630000D01*
X121015000Y-88925000D02*
X120380000Y-89560000D01*
X149720000Y-88980000D02*
X149720000Y-88030000D01*
X133090000Y-90840000D02*
X131920000Y-90840000D01*
X134170000Y-91920000D02*
X133090000Y-90840000D01*
X144150000Y-90950000D02*
X143090000Y-91880000D01*
X144124604Y-87978121D02*
X144150000Y-90950000D01*
X145251253Y-87949761D02*
X144124604Y-87978121D01*
X146000000Y-87200000D02*
X145251253Y-87949761D01*
X148890000Y-87200000D02*
X146000000Y-87200000D01*
X149720000Y-88030000D02*
X148890000Y-87200000D01*
X146720000Y-90180000D02*
X146685000Y-90170000D01*
X146685000Y-90170000D02*
X147193000Y-90170000D01*
X147193000Y-90170000D02*
X147574000Y-89789000D01*
X143510000Y-95377000D02*
X141732000Y-95377000D01*
X141732000Y-95377000D02*
X141478000Y-95631000D01*
X141478000Y-95631000D02*
X140843000Y-95631000D01*
X140843000Y-95631000D02*
X140589000Y-95885000D01*
X140589000Y-95885000D02*
X140620000Y-95840000D01*
M02*
