<svg xmlns="http://www.w3.org/2000/svg" viewBox="0 0 512 180" height="180" width="512"><text y="121.992" x="18.623" style="line-height:125%" font-weight="900" font-size="90" letter-spacing="0" word-spacing="0" font-family="Roboto" fill="#444">SENTI<tspan letter-spacing="30">B</tspan> TS</text><path d="M353.385 135.778c-.162-3.97-.138-7.947-.197-11.92-7.177-.067-14.36.05-21.53-.18-2.703-1.663-.717-6.126-1.332-8.922 0-9.06-.3-18.114-.17-27.176.035-6-.034-12.012.07-18.005 1.182-6.798 7.908-10.67 14.066-12.31 9.555-2.447 20.443-1.68 28.804 3.88 3.626 2.493 6.337 6.7 5.8 11.232-.013 10.778.14 21.565-.108 32.338-.258 5.88-.134 11.77-.207 17.655-1.696 2.542-5.534.902-8.19 1.403-4.84.06-9.682-.023-14.52.155-.17 3.988.106 8.01-.18 11.978-.696-.038-1.74.286-2.3-.128zm-2.84-15.39c.95-.24 3.032.645 2.603-.96.757-4.05-5.197-1.695-7.59-3.156-4.758-1.063-9.47-3.073-12.906-6.625-.045 3.214-.203 6.505-.01 9.686 2.1 2.27 5.968.522 8.76 1.09 3.047-.005 6.096-.008 9.143-.034zm24.878-.222c1.75-1.8.582-4.838.9-7.205-.162-.806.338-3.133-.275-2.91-5.31 5.157-12.942 6.82-20.1 7.245.162 1.192-.866 3.757 1.252 3.08l17.91-.04.164-.087.148-.08z" fill="#949494"/><path d="M353.538 135.31c0-.27-.052-2.955-.114-5.965-.096-4.67-.13-5.492-.23-5.592-.105-.105-1.345-.117-10.552-.103-7.222.01-10.56-.01-10.84-.07-.506-.104-.977-.436-1.155-.812-.127-.267-.136-.87-.13-8.68.007-7.27-.008-8.488-.114-9.092-.108-.61-.123-2.086-.124-11.627 0-23.85-.01-23.314.272-24.64.608-2.886 2.75-5.754 5.856-7.845 3.646-2.454 8.203-3.97 13.84-4.604 1.484-.166 5.21-.23 6.85-.114 9.144.64 16.655 4.09 19.945 9.166.57.88.85 1.45 1.184 2.41.57 1.636.536.864.55 13.053.018 15.32-.05 23.954-.19 24.31-.09.224-.116 1.806-.15 8.807-.04 7.744-.056 8.556-.174 8.77-.16.29-.412.523-.77.714-.263.14-.72.148-10.977.186-7.28.026-10.73.065-10.786.12-.053.055-.087 2.042-.1 6.068l-.02 5.987-1.038.022-1.037.02-.003-.49zm-.337-14.878c.064-.098.04-3.277-.02-3.342-.02-.02-.518-.062-1.11-.096-7.68-.44-14.743-3.045-18.68-6.894-.39-.38-.763-.682-.83-.67-.105.02-.12.596-.14 4.926l-.02 4.903.263.38c.19.276.394.45.75.634l.49.254h9.62c7.608 0 9.63-.02 9.68-.1zm21.71.013c.535-.114 1.086-.5 1.365-.954l.23-.37.006-4.754c.008-4.384-.002-4.755-.123-4.778-.074-.015-.244.1-.39.263-.43.473-1.898 1.707-2.63 2.208-4.09 2.792-9.966 4.57-16.337 4.94-.99.057-1.185.09-1.273.21-.142.194-.15 3.09-.01 3.23.127.127 18.568.136 19.163.008zm-30.374-32.938l.51-.205 9.67.003 9.668.003.742.283c.408.158.757.27.775.25.02-.02.03-1.15.03-2.52-.005-1.37.023-2.562.06-2.654.054-.136.15-.176.483-.205.23-.02.575-.1.77-.174a6.65 6.65 0 0 1 .586-.2c.726-.194 2.85-1.097 3.423-1.458.16-.1.313-.183.338-.183.07 0 1.588-1.01 2.07-1.38 2.486-1.896 4.11-4.352 4.51-6.818.133-.824.144-2.047.024-2.756-.19-1.13-.818-2.62-1.395-3.314-.263-.315-.647-.685-.71-.685-.04 0-.005.19.074.423.318.922.43 1.628.427 2.71 0 .86-.034 1.182-.182 1.723-.34 1.243-1.1 2.648-1.797 3.32-.293.285-.33.3-.457.186-2.74-1.44-3.108-1.304-.686.958.114.26-1.53 1.548-3.17 2.487-1.478.846-2.598 1.318-5.48 2.31-6.994 1.47-9.807 1.316-17.773.578-.77-.032-.93-.07-2.506-.6-2.782-.938-4.4-1.64-6.003-2.607-1.386-.836-2.92-2.056-2.92-2.322 0-.14.957-1.012 1.76-1.604.156-.116.156-.117-.012-.12-.094 0-.186.042-.206.096-.03.08-.057.08-.14 0-.142-.134-.23-.122-.23.03 0 .103-.02.11-.116.03-.063-.053-.1-.126-.076-.16.17-.275-.672-.077-.898.21-.09.113-.162.176-.162.14 0-.035-.044-.008-.098.062-.054.07-.235.182-.403.25l-.305.125-.312-.334c-.686-.734-1.415-2.147-1.705-3.31-.3-1.2-.223-2.74.21-4.254.05-.174.043-.178-.132-.078-.27.154-.365.254-.676.71-.32.474-.883 1.642-.884 1.843 0 .077-.067.35-.148.61-.37 1.183-.25 3.37.26 4.656.32.808.552 1.32.71 1.566.85 1.33 1.155 1.727 1.94 2.52.767.78 1.36 1.294 1.967 1.705.09.06.253.188.36.28.238.206 1.43.903 2.256 1.32.776.39 2.61 1.126 2.98 1.193.157.028.426.125.6.215.213.112.46.164.78.166h.47l.05.5c.025.275.054 1.454.062 2.62.01 1.165.033 2.145.053 2.18.038.06.098.04.97-.31zm-7.322-14.975c-.023-.036-.093-.047-.156-.022-.063.024-.095.074-.073.11.022.037.092.047.155.023.062-.024.095-.074.072-.11z" fill="#656565"/><path d="M353.28 123.53c.44-3.26-4.16-1.207-6.17-1.82-1.933.265-14.854-.165-11.387-.886 3.03-.083 14.633-.154 17.66-.27-.032.962.088 2.263-.104 2.977zm-19.277-1.832c-1.6-.018-1.937-2.743-.116-1.15 1.204.19 14.19 1.082 10.37 1.17-.74.008-9.517.033-10.254-.02zm21.94.035c-.705-1.73 1.232-.99 2.195-1.128 2.41.08 14.095-.185 16.472.182.18 1.903-13.457.29-14.823.93-1.28.008-2.565.086-3.843.016zm7.814-.167c-3.175-.213 10.758-.73 11.773-1.275 2.045-.94-.426 2.44-1.886 1.386-.5 0-5.908.19-6.406.16zm-25.25-.023c.226-.15.184.27 0 0zm3.367.005c.29-.294.427.287 0 0zm.518-.036c.63-.444-.126.454 0 0zm2.222-7.772c-1.812-1.828-.353-5.505-.85-8.036.03-5.306-.08-10.622.08-15.92 1.923-1.278 2.356-1.487 4.617-1.368l13.93-.206c4.715.53 3.33 3.4 3.318 7.897-.034 5.707.092 11.42-.097 17.123-1.85.98-4.217.3-6.3.49-5.19.182-9.884.03-14.695.02zm8.637-32.93c-1.53-2.63 5.46-.604 1.64.085-.545-.007-1.1.013-1.64-.086zm-6.99-.88c-3.58-.897-7.12-2.358-9.983-4.726-1.894-1.726-2.61-1.922-3.01-3.97-1.778-3.834.73-8.135 3.996-10.232 7.11-4.825 16.28-5.53 24.544-4.037 5.156 1.235 10.883 3.286 13.7 8.115 1.41 2.362 1.258 5.658-.503 7.775-.927.92-1.76 2.002-1.76 2.002-1.707 2.053-4.498 3.067-6.93 4.11-9.347 2.357-14.193 2.507-20.056.964z" fill="#373737"/></svg>