G04 #@! TF.FileFunction,Copper,L2,Bot,Signal*
%FSLAX46Y46*%
G04 Gerber Fmt 4.6, Leading zero omitted, Abs format (unit mm)*
G04 Created by KiCad (PCBNEW 4.0.2-stable) date 6/7/2016 9:19:05 AM*
%MOMM*%
G01*
G04 APERTURE LIST*
%ADD10C,0.100000*%
%ADD11R,0.800000X0.750000*%
%ADD12R,1.390000X4.600000*%
%ADD13R,10.800000X9.400000*%
%ADD14R,2.032000X2.032000*%
%ADD15O,2.032000X2.032000*%
%ADD16R,0.500000X0.900000*%
%ADD17R,0.900000X0.500000*%
%ADD18R,1.501140X0.749300*%
%ADD19R,1.899920X1.399540*%
%ADD20R,1.399540X1.800860*%
%ADD21R,0.650000X1.060000*%
%ADD22R,0.812800X0.406400*%
%ADD23R,1.498600X2.006600*%
%ADD24R,0.558800X1.320800*%
%ADD25R,5.590000X6.350000*%
%ADD26R,0.910000X2.410000*%
%ADD27R,8.000000X2.410000*%
%ADD28C,0.600000*%
%ADD29C,0.160000*%
%ADD30C,0.254000*%
G04 APERTURE END LIST*
D10*
D11*
X66650000Y-69260000D03*
X68150000Y-69260000D03*
X54120000Y-74040000D03*
X52620000Y-74040000D03*
X43905001Y-72785000D03*
X45405001Y-72785000D03*
X43960000Y-69520000D03*
X45460000Y-69520000D03*
X53690000Y-61490000D03*
X55190000Y-61490000D03*
X74610000Y-86560000D03*
X76110000Y-86560000D03*
X45400000Y-71100000D03*
X43900000Y-71100000D03*
X45460000Y-74290000D03*
X43960000Y-74290000D03*
X55350000Y-90160000D03*
X56850000Y-90160000D03*
D12*
X48160000Y-77760000D03*
D13*
X48160000Y-86910000D03*
D12*
X50700000Y-77760000D03*
X45620000Y-77760000D03*
D14*
X84160000Y-77840000D03*
D15*
X84160000Y-80380000D03*
D16*
X65210000Y-64530000D03*
X66710000Y-64530000D03*
D17*
X61310000Y-60590000D03*
X61310000Y-62090000D03*
D16*
X68360000Y-62980000D03*
X66860000Y-62980000D03*
X56270000Y-83880000D03*
X54770000Y-83880000D03*
D17*
X54920000Y-79740000D03*
X54920000Y-78240000D03*
X58180000Y-83150000D03*
X58180000Y-81650000D03*
X58220000Y-85180000D03*
X58220000Y-86680000D03*
D16*
X56820000Y-88480000D03*
X55320000Y-88480000D03*
D18*
X80770000Y-62401080D03*
X80770000Y-61301260D03*
X80970660Y-63500900D03*
X80770000Y-64600720D03*
X80770000Y-69000000D03*
X80371220Y-67900180D03*
X80770000Y-66800360D03*
X80970660Y-65700540D03*
D19*
X83619880Y-60600220D03*
X84719700Y-73848860D03*
D20*
X70470300Y-62149620D03*
X70470300Y-67950980D03*
D21*
X63240000Y-60790000D03*
X64190000Y-60790000D03*
X65140000Y-60790000D03*
X65140000Y-62990000D03*
X63240000Y-62990000D03*
X64190000Y-62990000D03*
D22*
X70923000Y-83209800D03*
X70923000Y-82270000D03*
X70923000Y-81330200D03*
X73717000Y-81330200D03*
X73717000Y-82270000D03*
X73717000Y-83209800D03*
D23*
X72294600Y-82244600D03*
D24*
X73229800Y-87860000D03*
X72290000Y-87860000D03*
X71350200Y-87860000D03*
X71350200Y-85320000D03*
X73229800Y-85320000D03*
D25*
X64730000Y-86170000D03*
D26*
X60920000Y-76945000D03*
X62190000Y-76945000D03*
X63460000Y-76945000D03*
X64730000Y-76945000D03*
X66000000Y-76945000D03*
X67270000Y-76945000D03*
X68540000Y-76945000D03*
D27*
X64730000Y-90170000D03*
D28*
X84900000Y-62120000D03*
X67950000Y-72950000D03*
X64750000Y-72820000D03*
X58080000Y-81050000D03*
X57130000Y-82930000D03*
X56080000Y-83030000D03*
X44590000Y-81860000D03*
X67720000Y-64130000D03*
X63060000Y-58550000D03*
X67210000Y-58460000D03*
X68110000Y-59380000D03*
X61000000Y-59150000D03*
X69590000Y-79440000D03*
X69950000Y-84270000D03*
X70160000Y-86110000D03*
X68770000Y-84850000D03*
X79375000Y-78994000D03*
X76708000Y-80772000D03*
X72390000Y-67691000D03*
X76835000Y-70358000D03*
X78232000Y-70358000D03*
X49530000Y-67056000D03*
X49210000Y-78110000D03*
X76073000Y-84709000D03*
X72009000Y-78867000D03*
X73370000Y-92430000D03*
X76581000Y-85344000D03*
X49530000Y-77089000D03*
X44840000Y-60460000D03*
X54290000Y-59140000D03*
X54500000Y-81740000D03*
X56520000Y-80890000D03*
X59060000Y-86880000D03*
X57080000Y-83640000D03*
X80645000Y-78994000D03*
X58630000Y-77940000D03*
X58510000Y-76410000D03*
X81160000Y-91770000D03*
X75180000Y-87870000D03*
X49770000Y-73880000D03*
X50680000Y-66550000D03*
X67040000Y-72640000D03*
X67564000Y-74549000D03*
X64516000Y-82042000D03*
X74676000Y-83185000D03*
X56800000Y-85830000D03*
X72200000Y-62630000D03*
X54130000Y-85240000D03*
X76420000Y-62880000D03*
X73490000Y-86420000D03*
X75980000Y-85860000D03*
X53730000Y-80660000D03*
X55410000Y-80780000D03*
X62610000Y-81350000D03*
X61750000Y-80730000D03*
X52290000Y-81140000D03*
X67140000Y-78500000D03*
X60780000Y-79660000D03*
X58710000Y-80640000D03*
X57160000Y-81370000D03*
X54850000Y-82700000D03*
X42870000Y-78570000D03*
X63080000Y-59700000D03*
X47910000Y-68400000D03*
X72644000Y-76835000D03*
X72009000Y-78105000D03*
X70612000Y-88011000D03*
X70612000Y-84328000D03*
X68453000Y-74930000D03*
X72644000Y-75946000D03*
X69342000Y-64389000D03*
X63110000Y-69680000D03*
X61070000Y-69860000D03*
X57531000Y-68453000D03*
X55245000Y-70739000D03*
X67510000Y-69980000D03*
X65470000Y-68210000D03*
X44450000Y-75692000D03*
X47970000Y-74110000D03*
X53170000Y-92010000D03*
X53880000Y-85840000D03*
X75438000Y-85217000D03*
X78105000Y-87630000D03*
X55970000Y-88100000D03*
X54560000Y-85710000D03*
X61450000Y-79530000D03*
X63760000Y-78900000D03*
X67820000Y-78870000D03*
X54420000Y-88010000D03*
X55190000Y-85470000D03*
X56950000Y-79320000D03*
X49670000Y-81240000D03*
X43060000Y-81200000D03*
X42830000Y-80410000D03*
X49230000Y-80700000D03*
X56130000Y-77240000D03*
X51830000Y-76050000D03*
X55660000Y-91520000D03*
X59280000Y-88820000D03*
X77380000Y-88960000D03*
X77340000Y-87700000D03*
X79830000Y-88930000D03*
X79950000Y-87780000D03*
X56750000Y-63360000D03*
X60610000Y-63280000D03*
X55180000Y-59040000D03*
X62870000Y-68320000D03*
X59600000Y-58830000D03*
X60410000Y-68800000D03*
X61770000Y-58640000D03*
X61140000Y-69210000D03*
X64110000Y-58690000D03*
X73160000Y-60200000D03*
X71540000Y-62740000D03*
X73430000Y-63450000D03*
X78410000Y-60110000D03*
X48670000Y-81820000D03*
X69410000Y-62610000D03*
X64800000Y-58890000D03*
X52959000Y-66548000D03*
X55372000Y-69088000D03*
X61849000Y-70104000D03*
X63150000Y-62080000D03*
X60450000Y-62320000D03*
X54120000Y-79340000D03*
X56090000Y-76610000D03*
X56600000Y-75710000D03*
X61170000Y-73300000D03*
X60740000Y-84700000D03*
X58293000Y-82423000D03*
X52440000Y-69180000D03*
X72960000Y-65680000D03*
X73540000Y-66330000D03*
X52950000Y-70410000D03*
X53370000Y-71490000D03*
X74050000Y-68230000D03*
X79600000Y-65860000D03*
X79370000Y-62900000D03*
X79250000Y-62210000D03*
X78820000Y-61480000D03*
X77370000Y-65130000D03*
X77930000Y-63860000D03*
X74620000Y-69030000D03*
X53790000Y-72560000D03*
X61890000Y-63480000D03*
X62120000Y-68260000D03*
X57770000Y-70010000D03*
X58140000Y-73010000D03*
X68470000Y-83290000D03*
X60460000Y-87550000D03*
X60380000Y-86180000D03*
X62810000Y-79260000D03*
X49290000Y-67790000D03*
X50230000Y-67440000D03*
X62440000Y-62780000D03*
X65670000Y-59130000D03*
X75819000Y-59055000D03*
X48133000Y-70358000D03*
X58320000Y-63440000D03*
X58880000Y-70230000D03*
X59070000Y-63450000D03*
X59000000Y-68230000D03*
D29*
X60195721Y-78310000D02*
X60200000Y-78310000D01*
X60180000Y-78294279D02*
X60195721Y-78310000D01*
X54078186Y-91339212D02*
X54269212Y-91339212D01*
X54269212Y-91339212D02*
X55210000Y-92480000D01*
X64750000Y-76925000D02*
X64750000Y-72820000D01*
X84900000Y-62120000D02*
X83990000Y-63030000D01*
X83990000Y-63030000D02*
X83990000Y-72450000D01*
X83990000Y-72450000D02*
X84300000Y-72760000D01*
X84300000Y-72760000D02*
X85640000Y-72760000D01*
X85640000Y-72760000D02*
X86080000Y-73200000D01*
X86080000Y-73200000D02*
X86080000Y-74800000D01*
X86080000Y-74800000D02*
X84970000Y-75910000D01*
X84970000Y-75910000D02*
X74180000Y-75910000D01*
X74180000Y-75910000D02*
X71220000Y-72950000D01*
X71220000Y-72950000D02*
X67950000Y-72950000D01*
X64750000Y-76925000D02*
X64730000Y-76945000D01*
X58180000Y-81150000D02*
X58180000Y-81650000D01*
X58080000Y-81050000D02*
X58180000Y-81150000D01*
X56180000Y-82930000D02*
X57130000Y-82930000D01*
X56080000Y-83030000D02*
X56180000Y-82930000D01*
X54460000Y-92480000D02*
X55210000Y-92480000D01*
X44590000Y-81860000D02*
X44560000Y-81890000D01*
X44560000Y-81890000D02*
X42810000Y-81890000D01*
X42810000Y-81890000D02*
X42330000Y-82370000D01*
X42330000Y-82370000D02*
X42330000Y-91730000D01*
X42330000Y-91730000D02*
X42850000Y-92400000D01*
X42850000Y-92400000D02*
X54460000Y-92480000D01*
X67720000Y-64130000D02*
X66860000Y-63270000D01*
X66860000Y-63270000D02*
X66860000Y-62980000D01*
X73900000Y-60600220D02*
X73900000Y-60140000D01*
X73140000Y-59380000D02*
X68110000Y-59380000D01*
X73900000Y-60140000D02*
X73140000Y-59380000D01*
X63030000Y-59090000D02*
X63030000Y-58580000D01*
X63030000Y-58580000D02*
X63060000Y-58550000D01*
X68110000Y-59360000D02*
X68110000Y-59380000D01*
X67210000Y-58460000D02*
X68110000Y-59360000D01*
X61310000Y-60590000D02*
X61310000Y-59460000D01*
X61310000Y-59460000D02*
X61000000Y-59150000D01*
X56850000Y-90160000D02*
X56850000Y-89510000D01*
X55210000Y-92480000D02*
X73370000Y-92430000D01*
X53970997Y-87509536D02*
X54078186Y-91339212D01*
X54078186Y-91339212D02*
X54079289Y-91378620D01*
X54130000Y-87250000D02*
X53970997Y-87509536D01*
X56370000Y-87250000D02*
X54130000Y-87250000D01*
X56420000Y-87300000D02*
X56370000Y-87250000D01*
X56420000Y-89080000D02*
X56420000Y-87300000D01*
X56850000Y-89510000D02*
X56420000Y-89080000D01*
X69220000Y-83320000D02*
X69220000Y-80010000D01*
X69590000Y-79640000D02*
X69590000Y-79440000D01*
X69220000Y-80010000D02*
X69590000Y-79640000D01*
X69220000Y-83540000D02*
X69220000Y-83320000D01*
X69220000Y-83320000D02*
X69220000Y-83260000D01*
X69950000Y-84270000D02*
X69220000Y-83540000D01*
X70030000Y-86110000D02*
X70160000Y-86110000D01*
X68770000Y-84850000D02*
X70030000Y-86110000D01*
X43960000Y-69520000D02*
X43960000Y-71040000D01*
X43960000Y-71040000D02*
X43900000Y-71100000D01*
X43905001Y-72785000D02*
X43905001Y-74235001D01*
X43905001Y-74235001D02*
X43960000Y-74290000D01*
X79375000Y-78994000D02*
X77597000Y-80772000D01*
X77597000Y-80772000D02*
X76708000Y-80772000D01*
X48160000Y-77760000D02*
X48133000Y-77724000D01*
X48133000Y-77724000D02*
X48133000Y-75946000D01*
X48133000Y-75946000D02*
X47244000Y-75057000D01*
X47244000Y-75057000D02*
X45593000Y-75057000D01*
X45593000Y-75057000D02*
X45339000Y-74803000D01*
X45339000Y-74803000D02*
X44831000Y-74803000D01*
X44831000Y-74803000D02*
X44323000Y-74295000D01*
X44323000Y-74295000D02*
X43942000Y-74295000D01*
X43942000Y-74295000D02*
X43960000Y-74290000D01*
X70470300Y-67950980D02*
X70485000Y-67945000D01*
X70485000Y-67945000D02*
X70739000Y-67691000D01*
X70739000Y-67691000D02*
X72390000Y-67691000D01*
X76835000Y-70358000D02*
X78232000Y-70358000D01*
X43960000Y-69520000D02*
X43942000Y-69469000D01*
X43942000Y-69469000D02*
X46355000Y-67056000D01*
X46355000Y-67056000D02*
X49530000Y-67056000D01*
X49210000Y-78110000D02*
X49083000Y-77983000D01*
X49083000Y-77983000D02*
X48133000Y-77724000D01*
X48133000Y-77724000D02*
X48160000Y-77760000D01*
X76073000Y-84709000D02*
X76200000Y-84836000D01*
X76200000Y-84836000D02*
X76708000Y-84836000D01*
X76708000Y-84836000D02*
X76835000Y-84963000D01*
X76835000Y-84963000D02*
X76962000Y-84963000D01*
X76962000Y-84963000D02*
X76962000Y-85090000D01*
X76962000Y-85090000D02*
X77089000Y-85217000D01*
X77089000Y-85217000D02*
X77089000Y-85725000D01*
X77089000Y-85725000D02*
X76200000Y-86614000D01*
X76200000Y-86614000D02*
X76073000Y-86614000D01*
X76073000Y-86614000D02*
X76110000Y-86560000D01*
X70358000Y-81788000D02*
X70866000Y-82296000D01*
X70358000Y-80899000D02*
X70358000Y-81788000D01*
X72009000Y-79248000D02*
X70358000Y-80899000D01*
X72009000Y-78867000D02*
X72009000Y-79248000D01*
X70866000Y-82296000D02*
X70923000Y-82270000D01*
X73370000Y-92430000D02*
X73469601Y-89689988D01*
X73469601Y-89689988D02*
X72771000Y-88773000D01*
X72771000Y-88773000D02*
X72771000Y-88392000D01*
X72771000Y-88392000D02*
X72263000Y-87884000D01*
X72263000Y-87884000D02*
X72290000Y-87860000D01*
X76110000Y-86560000D02*
X76073000Y-86614000D01*
X76073000Y-86614000D02*
X76073000Y-86487000D01*
X76073000Y-86487000D02*
X76454000Y-86106000D01*
X76454000Y-86106000D02*
X76454000Y-85471000D01*
X76454000Y-85471000D02*
X76581000Y-85344000D01*
X54920000Y-78240000D02*
X54864000Y-78232000D01*
X54864000Y-78232000D02*
X51943000Y-75311000D01*
X51943000Y-75311000D02*
X49784000Y-75311000D01*
X49784000Y-75311000D02*
X49784000Y-76835000D01*
X49784000Y-76835000D02*
X49530000Y-77089000D01*
X43905001Y-72785000D02*
X43942000Y-72771000D01*
X43942000Y-72771000D02*
X43942000Y-72644000D01*
X44196000Y-71374000D02*
X43942000Y-71120000D01*
X43942000Y-71120000D02*
X43900000Y-71100000D01*
X43960000Y-74290000D02*
X43942000Y-74295000D01*
X44069000Y-72771000D02*
X43942000Y-72771000D01*
X43942000Y-72771000D02*
X43905001Y-72785000D01*
X44840000Y-60460000D02*
X46160000Y-59140000D01*
X46160000Y-59140000D02*
X54290000Y-59140000D01*
X53690000Y-61490000D02*
X53690000Y-59740000D01*
X53690000Y-59740000D02*
X54290000Y-59140000D01*
X66860000Y-62980000D02*
X66860000Y-62060000D01*
X67400000Y-61520000D02*
X69840680Y-61520000D01*
X66860000Y-62060000D02*
X67400000Y-61520000D01*
X69840680Y-61520000D02*
X70470300Y-62149620D01*
X61310000Y-60590000D02*
X61310000Y-60040000D01*
X64190000Y-59410000D02*
X64190000Y-60790000D01*
X63870000Y-59090000D02*
X64190000Y-59410000D01*
X62260000Y-59090000D02*
X63030000Y-59090000D01*
X63030000Y-59090000D02*
X63870000Y-59090000D01*
X61310000Y-60040000D02*
X62260000Y-59090000D01*
X68150000Y-69260000D02*
X69161280Y-69260000D01*
X69161280Y-69260000D02*
X70470300Y-67950980D01*
X70470300Y-62149620D02*
X70470300Y-61909700D01*
X70470300Y-61909700D02*
X71779780Y-60600220D01*
X71779780Y-60600220D02*
X73900000Y-60600220D01*
X73900000Y-60600220D02*
X83619880Y-60600220D01*
X70470300Y-67950980D02*
X70470300Y-62149620D01*
X83560000Y-62690000D02*
X83560000Y-72689160D01*
X83560000Y-72689160D02*
X84719700Y-73848860D01*
X80970660Y-63500900D02*
X82749100Y-63500900D01*
X83619880Y-62630120D02*
X83619880Y-60600220D01*
X82749100Y-63500900D02*
X83560000Y-62690000D01*
X83560000Y-62690000D02*
X83619880Y-62630120D01*
X55670000Y-81740000D02*
X54500000Y-81740000D01*
X56520000Y-80890000D02*
X55670000Y-81740000D01*
X43960000Y-74290000D02*
X43960000Y-69520000D01*
X67879670Y-82510910D02*
X68680910Y-82510910D01*
X70840000Y-86130000D02*
X70866000Y-86130000D01*
X70840000Y-85820000D02*
X70840000Y-86130000D01*
X68950000Y-83930000D02*
X70840000Y-85820000D01*
X68950000Y-82780000D02*
X68950000Y-83930000D01*
X68680910Y-82510910D02*
X68950000Y-82780000D01*
X61980000Y-82550000D02*
X61550000Y-83210000D01*
X61550000Y-83210000D02*
X61530000Y-86010000D01*
X61530000Y-86010000D02*
X60460000Y-86880000D01*
X60460000Y-86880000D02*
X59060000Y-86880000D01*
X64430000Y-82550000D02*
X61980000Y-82550000D01*
X56840000Y-83880000D02*
X56270000Y-83880000D01*
X57080000Y-83640000D02*
X56840000Y-83880000D01*
X70866000Y-86233000D02*
X70866000Y-86130000D01*
X71882000Y-86233000D02*
X70866000Y-86233000D01*
X71882000Y-86106000D02*
X71882000Y-86233000D01*
X72771000Y-85217000D02*
X71882000Y-86106000D01*
X72771000Y-84455000D02*
X72771000Y-85217000D01*
X75184000Y-84455000D02*
X72771000Y-84455000D01*
X80645000Y-78994000D02*
X75184000Y-84455000D01*
X70866000Y-86130000D02*
X70866000Y-85979000D01*
X67960000Y-82510000D02*
X67879670Y-82510910D01*
X67879670Y-82510910D02*
X64430000Y-82550000D01*
X64430000Y-82550000D02*
X64389000Y-82550000D01*
X64389000Y-82550000D02*
X64262000Y-82423000D01*
X64262000Y-82423000D02*
X64135000Y-82423000D01*
X64135000Y-82423000D02*
X64135000Y-82296000D01*
X64135000Y-82296000D02*
X64008000Y-82169000D01*
X64008000Y-82169000D02*
X64008000Y-80010000D01*
X64008000Y-80010000D02*
X63373000Y-79375000D01*
X63373000Y-79375000D02*
X63373000Y-79248000D01*
X63373000Y-79248000D02*
X63246000Y-79121000D01*
X63246000Y-79121000D02*
X63246000Y-78613000D01*
X63246000Y-78613000D02*
X63500000Y-78359000D01*
X63500000Y-78359000D02*
X64135000Y-78359000D01*
X64135000Y-78359000D02*
X64135000Y-75565000D01*
X64135000Y-75565000D02*
X62611000Y-75565000D01*
X62611000Y-75565000D02*
X62611000Y-76581000D01*
X62611000Y-76581000D02*
X62230000Y-76962000D01*
X62230000Y-76962000D02*
X62190000Y-76945000D01*
X58630000Y-76530000D02*
X58630000Y-77940000D01*
X58510000Y-76410000D02*
X58630000Y-76530000D01*
X67564000Y-74549000D02*
X67564000Y-74406000D01*
X71690000Y-76790000D02*
X71690000Y-77597000D01*
X72090000Y-76390000D02*
X71690000Y-76790000D01*
X73270000Y-76390000D02*
X72090000Y-76390000D01*
X73480000Y-76180000D02*
X73270000Y-76390000D01*
X73480000Y-75740000D02*
X73480000Y-76180000D01*
X73040000Y-75300000D02*
X73480000Y-75740000D01*
X72480000Y-75300000D02*
X73040000Y-75300000D01*
X72260000Y-75520000D02*
X72480000Y-75300000D01*
X70430000Y-75520000D02*
X72260000Y-75520000D01*
X68940000Y-74030000D02*
X70430000Y-75520000D01*
X67940000Y-74030000D02*
X68940000Y-74030000D01*
X67564000Y-74406000D02*
X67940000Y-74030000D01*
X67040000Y-72640000D02*
X67040000Y-72190000D01*
X75100000Y-69390000D02*
X75100000Y-62880000D01*
X72400000Y-72090000D02*
X75100000Y-69390000D01*
X67140000Y-72090000D02*
X72400000Y-72090000D01*
X67040000Y-72190000D02*
X67140000Y-72090000D01*
X75100000Y-62880000D02*
X75100000Y-62910000D01*
X75100000Y-62910000D02*
X75100000Y-62880000D01*
X80790000Y-92140000D02*
X81160000Y-91770000D01*
X77360000Y-92140000D02*
X80790000Y-92140000D01*
X75040000Y-89820000D02*
X77360000Y-92140000D01*
X75040000Y-88010000D02*
X75040000Y-89820000D01*
X75180000Y-87870000D02*
X75040000Y-88010000D01*
X49710000Y-79760000D02*
X49710000Y-80200000D01*
X49060000Y-77360000D02*
X49710000Y-78010000D01*
X49710000Y-78010000D02*
X49710000Y-79760000D01*
X49060000Y-77020000D02*
X49060000Y-77360000D01*
X50170000Y-80660000D02*
X53730000Y-80660000D01*
X49710000Y-80200000D02*
X50170000Y-80660000D01*
X49770000Y-73880000D02*
X49240000Y-73880000D01*
X49060000Y-76830000D02*
X49060000Y-77020000D01*
X49060000Y-77020000D02*
X49060000Y-77030000D01*
X49240000Y-76650000D02*
X49060000Y-76830000D01*
X49240000Y-75560000D02*
X49240000Y-76650000D01*
X48880000Y-75200000D02*
X49240000Y-75560000D01*
X47930000Y-75200000D02*
X48880000Y-75200000D01*
X47250000Y-74520000D02*
X47930000Y-75200000D01*
X47250000Y-73790000D02*
X47250000Y-74520000D01*
X47530000Y-73510000D02*
X47250000Y-73790000D01*
X48870000Y-73510000D02*
X47530000Y-73510000D01*
X49240000Y-73880000D02*
X48870000Y-73510000D01*
X48060000Y-73140000D02*
X49030000Y-73140000D01*
X49030000Y-73140000D02*
X49770000Y-73880000D01*
X50680000Y-66550000D02*
X50680000Y-67700000D01*
X48060000Y-73110000D02*
X48060000Y-73140000D01*
X48060000Y-73140000D02*
X48060000Y-73150000D01*
X47690000Y-72740000D02*
X48060000Y-73110000D01*
X47690000Y-70070000D02*
X47690000Y-72740000D01*
X47950000Y-69810000D02*
X47690000Y-70070000D01*
X48570000Y-69810000D02*
X47950000Y-69810000D01*
X50680000Y-67700000D02*
X48570000Y-69810000D01*
X50660000Y-66570000D02*
X50660000Y-66610000D01*
X50680000Y-66550000D02*
X50660000Y-66570000D01*
X67040000Y-72640000D02*
X67056000Y-74041000D01*
X67056000Y-74041000D02*
X67564000Y-74549000D01*
X69977000Y-77597000D02*
X71690000Y-77597000D01*
X69215000Y-78359000D02*
X69977000Y-77597000D01*
X68961000Y-78359000D02*
X69215000Y-78359000D01*
X67945000Y-79375000D02*
X68961000Y-78359000D01*
X67183000Y-79375000D02*
X67945000Y-79375000D01*
X64516000Y-82042000D02*
X67183000Y-79375000D01*
X71690000Y-77597000D02*
X72136000Y-77597000D01*
X74295000Y-82296000D02*
X73660000Y-82296000D01*
X74549000Y-82042000D02*
X74295000Y-82296000D01*
X74549000Y-81280000D02*
X74549000Y-82042000D01*
X74295000Y-81026000D02*
X74549000Y-81280000D01*
X74295000Y-80899000D02*
X74295000Y-81026000D01*
X72517000Y-79121000D02*
X74295000Y-80899000D01*
X72517000Y-77978000D02*
X72517000Y-79121000D01*
X72390000Y-77851000D02*
X72517000Y-77978000D01*
X72390000Y-77724000D02*
X72390000Y-77851000D01*
X72263000Y-77724000D02*
X72390000Y-77724000D01*
X72136000Y-77597000D02*
X72263000Y-77724000D01*
X73660000Y-82296000D02*
X73717000Y-82270000D01*
X73717000Y-82270000D02*
X73660000Y-82296000D01*
X73660000Y-82296000D02*
X74168000Y-82804000D01*
X74168000Y-82804000D02*
X74295000Y-82804000D01*
X74295000Y-82804000D02*
X74676000Y-83185000D01*
X73717000Y-82270000D02*
X73660000Y-82296000D01*
X73660000Y-82296000D02*
X74168000Y-81788000D01*
X74168000Y-81788000D02*
X74295000Y-81788000D01*
X74295000Y-81788000D02*
X74295000Y-81534000D01*
X74295000Y-81534000D02*
X74041000Y-81280000D01*
X74041000Y-81280000D02*
X73660000Y-81280000D01*
X73660000Y-81280000D02*
X73717000Y-81330200D01*
X56820000Y-88480000D02*
X56820000Y-86030000D01*
X56820000Y-86030000D02*
X56800000Y-85830000D01*
X72200000Y-62630000D02*
X72450000Y-62880000D01*
X72450000Y-62880000D02*
X75100000Y-62880000D01*
X75100000Y-62880000D02*
X76420000Y-62880000D01*
X54130000Y-85240000D02*
X53730000Y-84840000D01*
X53730000Y-84840000D02*
X53730000Y-80660000D01*
X80070540Y-65700540D02*
X80970660Y-65700540D01*
X78840000Y-64470000D02*
X80070540Y-65700540D01*
X78840000Y-63850000D02*
X78840000Y-64470000D01*
X77920000Y-62930000D02*
X78840000Y-63850000D01*
X76470000Y-62930000D02*
X77920000Y-62930000D01*
X76420000Y-62880000D02*
X76470000Y-62930000D01*
X73490000Y-86420000D02*
X74050000Y-85860000D01*
X74050000Y-85860000D02*
X75980000Y-85860000D01*
X53850000Y-80780000D02*
X55410000Y-80780000D01*
X53730000Y-80660000D02*
X53850000Y-80780000D01*
X62370000Y-81350000D02*
X62610000Y-81350000D01*
X61750000Y-80730000D02*
X62370000Y-81350000D01*
X48870000Y-80340000D02*
X49120000Y-80090000D01*
X49120000Y-80090000D02*
X49320000Y-80090000D01*
X49320000Y-80090000D02*
X50370000Y-81140000D01*
X50370000Y-81140000D02*
X52290000Y-81140000D01*
X44650000Y-80340000D02*
X48870000Y-80340000D01*
X67270000Y-78370000D02*
X67270000Y-76945000D01*
X67140000Y-78500000D02*
X67270000Y-78370000D01*
X59810000Y-79660000D02*
X60780000Y-79660000D01*
X58710000Y-80640000D02*
X59810000Y-79660000D01*
X57160000Y-82150000D02*
X57160000Y-81370000D01*
X56800000Y-82510000D02*
X57160000Y-82150000D01*
X55040000Y-82510000D02*
X56800000Y-82510000D01*
X54850000Y-82700000D02*
X55040000Y-82510000D01*
X44650000Y-80340000D02*
X44620000Y-80310000D01*
X44650000Y-80350000D02*
X44650000Y-80340000D01*
X42870000Y-78570000D02*
X44650000Y-80350000D01*
X63240000Y-60790000D02*
X63240000Y-59860000D01*
X63240000Y-59860000D02*
X63080000Y-59700000D01*
X45460000Y-69520000D02*
X45460000Y-71040000D01*
X45460000Y-71040000D02*
X45400000Y-71100000D01*
X45405001Y-72785000D02*
X45405001Y-74235001D01*
X45405001Y-74235001D02*
X45460000Y-74290000D01*
X47910000Y-68400000D02*
X47750000Y-68560000D01*
X47750000Y-68560000D02*
X45910000Y-68560000D01*
X45910000Y-68560000D02*
X45460000Y-69010000D01*
X45460000Y-69010000D02*
X45460000Y-69520000D01*
X72644000Y-76835000D02*
X73660000Y-77851000D01*
X73660000Y-77851000D02*
X84201000Y-77851000D01*
X84201000Y-77851000D02*
X84160000Y-77840000D01*
X70923000Y-83209800D02*
X70866000Y-83185000D01*
X70866000Y-83185000D02*
X70358000Y-82677000D01*
X70358000Y-82677000D02*
X70358000Y-82296000D01*
X70358000Y-82296000D02*
X70104000Y-82042000D01*
X70104000Y-82042000D02*
X70104000Y-80010000D01*
X70104000Y-80010000D02*
X72009000Y-78105000D01*
X71350200Y-87860000D02*
X71374000Y-87884000D01*
X71374000Y-87884000D02*
X71247000Y-88011000D01*
X71247000Y-88011000D02*
X70612000Y-88011000D01*
X70612000Y-84328000D02*
X70612000Y-83439000D01*
X70612000Y-83439000D02*
X70866000Y-83185000D01*
X70866000Y-83185000D02*
X70923000Y-83209800D01*
X68453000Y-74930000D02*
X67818000Y-75565000D01*
X67818000Y-75565000D02*
X67691000Y-75565000D01*
X67691000Y-75565000D02*
X67691000Y-76581000D01*
X67691000Y-76581000D02*
X67310000Y-76962000D01*
X67310000Y-76962000D02*
X67270000Y-76945000D01*
X70923000Y-83209800D02*
X70866000Y-83185000D01*
X70866000Y-83185000D02*
X71120000Y-83439000D01*
X71120000Y-83439000D02*
X73279000Y-83439000D01*
X73279000Y-83439000D02*
X73533000Y-83185000D01*
X73533000Y-83185000D02*
X73660000Y-83185000D01*
X73660000Y-83185000D02*
X73717000Y-83209800D01*
X45400000Y-71100000D02*
X45339000Y-71120000D01*
X45339000Y-71120000D02*
X45339000Y-71374000D01*
X45212000Y-72517000D02*
X45466000Y-72771000D01*
X45466000Y-72771000D02*
X45405001Y-72785000D01*
X71350200Y-87860000D02*
X71374000Y-87884000D01*
X71374000Y-87884000D02*
X71374000Y-87376000D01*
X71374000Y-87376000D02*
X71628000Y-87122000D01*
X71628000Y-87122000D02*
X71628000Y-86995000D01*
X71628000Y-86995000D02*
X72771000Y-86995000D01*
X72771000Y-86995000D02*
X72771000Y-87376000D01*
X72771000Y-87376000D02*
X73279000Y-87884000D01*
X73279000Y-87884000D02*
X73229800Y-87860000D01*
X45405001Y-72785000D02*
X45466000Y-72771000D01*
X45466000Y-74295000D02*
X45460000Y-74290000D01*
X45460000Y-69520000D02*
X45460000Y-74290000D01*
X61843000Y-75063000D02*
X61843000Y-73787000D01*
X70231000Y-75946000D02*
X72644000Y-75946000D01*
X68834000Y-74549000D02*
X70231000Y-75946000D01*
X68707000Y-74549000D02*
X68834000Y-74549000D01*
X68580000Y-74422000D02*
X68707000Y-74549000D01*
X68199000Y-74422000D02*
X68580000Y-74422000D01*
X68072000Y-74549000D02*
X68199000Y-74422000D01*
X68072000Y-74676000D02*
X68072000Y-74549000D01*
X67945000Y-74803000D02*
X68072000Y-74676000D01*
X67945000Y-74930000D02*
X67945000Y-74803000D01*
X67818000Y-74930000D02*
X67945000Y-74930000D01*
X67691000Y-75057000D02*
X67818000Y-74930000D01*
X67217000Y-75057000D02*
X67691000Y-75057000D01*
X66470000Y-74310000D02*
X67217000Y-75057000D01*
X66470000Y-73220000D02*
X66470000Y-74310000D01*
X65410000Y-72160000D02*
X66470000Y-73220000D01*
X63470000Y-72160000D02*
X65410000Y-72160000D01*
X61843000Y-73787000D02*
X63470000Y-72160000D01*
X60920000Y-76945000D02*
X60960000Y-76962000D01*
X60960000Y-76962000D02*
X60960000Y-75946000D01*
X60960000Y-75946000D02*
X61843000Y-75063000D01*
X61843000Y-75063000D02*
X61849000Y-75057000D01*
X66710000Y-64530000D02*
X69201000Y-64530000D01*
X69201000Y-64530000D02*
X69342000Y-64389000D01*
X65470000Y-68210000D02*
X69080000Y-68210000D01*
X69080000Y-68210000D02*
X69342000Y-67948000D01*
X69342000Y-67948000D02*
X69342000Y-64389000D01*
X57531000Y-68453000D02*
X57531000Y-69091000D01*
X63530000Y-69260000D02*
X66650000Y-69260000D01*
X63110000Y-69680000D02*
X63530000Y-69260000D01*
X60110000Y-69860000D02*
X61070000Y-69860000D01*
X59330000Y-70640000D02*
X60110000Y-69860000D01*
X58510000Y-70640000D02*
X59330000Y-70640000D01*
X58380000Y-70510000D02*
X58510000Y-70640000D01*
X58380000Y-70030000D02*
X58380000Y-70510000D01*
X58130000Y-69780000D02*
X58380000Y-70030000D01*
X58130000Y-69690000D02*
X58130000Y-69780000D01*
X57531000Y-69091000D02*
X58130000Y-69690000D01*
X57531000Y-68453000D02*
X55245000Y-70739000D01*
X66710000Y-64530000D02*
X66675000Y-64516000D01*
X66675000Y-64516000D02*
X66675000Y-64262000D01*
X66650000Y-69260000D02*
X66790000Y-69260000D01*
X66790000Y-69260000D02*
X67510000Y-69980000D01*
X65470000Y-68210000D02*
X66520000Y-69260000D01*
X66520000Y-69260000D02*
X66650000Y-69260000D01*
X62629537Y-78808870D02*
X62671130Y-78808870D01*
X62671130Y-78808870D02*
X63460000Y-78020000D01*
X63460000Y-78020000D02*
X63460000Y-76945000D01*
X54120000Y-74040000D02*
X54102000Y-74041000D01*
X54102000Y-74041000D02*
X54483000Y-74422000D01*
X54483000Y-74422000D02*
X54737000Y-74422000D01*
X54737000Y-74422000D02*
X58661212Y-78745208D01*
X58661212Y-78745208D02*
X62629537Y-78808870D01*
X62629537Y-78808870D02*
X62700000Y-78810000D01*
X63500000Y-76962000D02*
X63460000Y-76945000D01*
X52620000Y-74040000D02*
X52620000Y-74110000D01*
X52620000Y-74110000D02*
X51780000Y-74950000D01*
X44958000Y-75311000D02*
X44958000Y-77089000D01*
X44704000Y-75311000D02*
X44958000Y-75311000D01*
X44704000Y-75438000D02*
X44704000Y-75311000D01*
X44450000Y-75692000D02*
X44704000Y-75438000D01*
X48810000Y-74950000D02*
X47970000Y-74110000D01*
X51780000Y-74950000D02*
X48810000Y-74950000D01*
X52620000Y-74040000D02*
X52578000Y-74041000D01*
X52578000Y-74041000D02*
X52324000Y-73787000D01*
X44958000Y-77089000D02*
X45593000Y-77724000D01*
X45593000Y-77724000D02*
X45620000Y-77760000D01*
X53800000Y-91980000D02*
X53200000Y-91980000D01*
X53200000Y-91980000D02*
X53170000Y-92010000D01*
X53970000Y-86690000D02*
X53970000Y-87080000D01*
X53800000Y-87250000D02*
X53800000Y-91980000D01*
X53800000Y-91980000D02*
X53800000Y-91990000D01*
X53970000Y-87080000D02*
X53800000Y-87250000D01*
X53970000Y-85930000D02*
X53970000Y-86690000D01*
X53970000Y-86690000D02*
X53970000Y-86750000D01*
X53880000Y-85840000D02*
X53970000Y-85930000D01*
X73229800Y-85320000D02*
X73279000Y-85344000D01*
X73279000Y-85344000D02*
X73406000Y-85217000D01*
X73406000Y-85217000D02*
X75438000Y-85217000D01*
X74610000Y-86560000D02*
X74549000Y-86614000D01*
X74549000Y-86614000D02*
X75184000Y-87249000D01*
X75184000Y-87249000D02*
X77724000Y-87249000D01*
X77724000Y-87249000D02*
X78105000Y-87630000D01*
X74610000Y-86560000D02*
X74549000Y-86614000D01*
X74549000Y-86614000D02*
X74295000Y-86868000D01*
X74295000Y-86868000D02*
X73152000Y-86868000D01*
X73152000Y-86868000D02*
X73025000Y-86741000D01*
X73025000Y-86741000D02*
X73025000Y-86487000D01*
X73025000Y-86487000D02*
X72771000Y-86233000D01*
X72771000Y-86233000D02*
X72771000Y-85852000D01*
X72771000Y-85852000D02*
X73279000Y-85344000D01*
X73279000Y-85344000D02*
X73229800Y-85320000D01*
X55320000Y-88480000D02*
X55510000Y-88480000D01*
X55510000Y-88480000D02*
X55970000Y-88100000D01*
X55320000Y-88480000D02*
X55320000Y-90130000D01*
X55320000Y-90130000D02*
X55350000Y-90160000D01*
X58220000Y-85180000D02*
X58220000Y-85440000D01*
X58220000Y-85440000D02*
X58790000Y-86010000D01*
X54840000Y-85990000D02*
X54560000Y-85710000D01*
X55460000Y-85990000D02*
X54840000Y-85990000D01*
X56270000Y-85180000D02*
X55460000Y-85990000D01*
X57110000Y-85180000D02*
X56270000Y-85180000D01*
X57940000Y-86010000D02*
X57110000Y-85180000D01*
X59020000Y-86010000D02*
X58790000Y-86010000D01*
X58790000Y-86010000D02*
X57940000Y-86010000D01*
X59600000Y-85430000D02*
X59020000Y-86010000D01*
X59600000Y-81450000D02*
X59600000Y-85430000D01*
X61450000Y-79530000D02*
X59600000Y-81450000D01*
X67760000Y-78930000D02*
X63760000Y-78900000D01*
X67820000Y-78870000D02*
X67760000Y-78930000D01*
X58220000Y-86680000D02*
X58220000Y-88400000D01*
X54350235Y-90980006D02*
X54420000Y-88010000D01*
X55790869Y-91001368D02*
X54350235Y-90980006D01*
X56180000Y-91320000D02*
X55790869Y-91001368D01*
X57610000Y-91320000D02*
X56180000Y-91320000D01*
X58090000Y-90840000D02*
X57610000Y-91320000D01*
X58090000Y-88530000D02*
X58090000Y-90840000D01*
X58220000Y-88400000D02*
X58090000Y-88530000D01*
X55930000Y-84730000D02*
X55190000Y-85470000D01*
X56440000Y-84730000D02*
X55930000Y-84730000D01*
X57560000Y-84010000D02*
X56440000Y-84730000D01*
X57550000Y-79530000D02*
X57560000Y-84010000D01*
X56950000Y-79320000D02*
X57550000Y-79530000D01*
X43080000Y-81220000D02*
X49670000Y-81240000D01*
X43060000Y-81200000D02*
X43080000Y-81220000D01*
X42830000Y-80410000D02*
X43050000Y-80630000D01*
X43050000Y-80630000D02*
X49090000Y-80840000D01*
X49090000Y-80840000D02*
X49230000Y-80700000D01*
X56130000Y-77240000D02*
X56080000Y-77290000D01*
X56080000Y-77290000D02*
X55860000Y-77920000D01*
X55860000Y-77920000D02*
X55610000Y-78870000D01*
X55610000Y-78870000D02*
X52510000Y-78870000D01*
X52510000Y-78870000D02*
X51830000Y-78190000D01*
X51830000Y-78190000D02*
X51830000Y-76050000D01*
X57890000Y-91520000D02*
X55660000Y-91520000D01*
X58460000Y-90950000D02*
X57890000Y-91520000D01*
X58460000Y-89640000D02*
X58460000Y-90950000D01*
X59280000Y-88820000D02*
X58460000Y-89640000D01*
X77380000Y-87740000D02*
X77380000Y-88960000D01*
X77340000Y-87700000D02*
X77380000Y-87740000D01*
X79830000Y-87900000D02*
X79830000Y-88930000D01*
X79950000Y-87780000D02*
X79830000Y-87900000D01*
X62601438Y-63602762D02*
X62601438Y-63571438D01*
X56750000Y-63360000D02*
X55190000Y-61800000D01*
X60890000Y-63000000D02*
X60610000Y-63280000D01*
X62030000Y-63000000D02*
X60890000Y-63000000D01*
X62601438Y-63571438D02*
X62030000Y-63000000D01*
X55190000Y-61800000D02*
X55190000Y-61490000D01*
X55190000Y-61490000D02*
X55190000Y-59050000D01*
X55190000Y-59050000D02*
X55180000Y-59040000D01*
X62250000Y-63940000D02*
X62601438Y-63602762D01*
X62601438Y-63602762D02*
X63240000Y-62990000D01*
X62240000Y-67690000D02*
X62250000Y-63940000D01*
X62870000Y-68320000D02*
X62240000Y-67690000D01*
X59600000Y-63480000D02*
X59600000Y-58830000D01*
X59440000Y-63640000D02*
X59600000Y-63480000D01*
X59440000Y-67830000D02*
X59440000Y-63640000D01*
X60410000Y-68800000D02*
X59440000Y-67830000D01*
X60780000Y-58640000D02*
X61770000Y-58640000D01*
X59880000Y-59540000D02*
X60780000Y-58640000D01*
X59880000Y-63460000D02*
X59880000Y-59540000D01*
X59680000Y-63660000D02*
X59880000Y-63460000D01*
X59680000Y-67280000D02*
X59680000Y-63660000D01*
X61120000Y-68720000D02*
X59680000Y-67280000D01*
X61120000Y-69190000D02*
X61120000Y-68720000D01*
X61140000Y-69210000D02*
X61120000Y-69190000D01*
X65780000Y-58480000D02*
X66230000Y-58930000D01*
X65780000Y-58480000D02*
X64320000Y-58480000D01*
X64320000Y-58480000D02*
X64110000Y-58690000D01*
X71830000Y-60200000D02*
X73160000Y-60200000D01*
X71100000Y-60930000D02*
X71830000Y-60200000D01*
X66800000Y-60930000D02*
X71100000Y-60930000D01*
X66230000Y-60360000D02*
X66800000Y-60930000D01*
X66230000Y-58930000D02*
X66230000Y-60360000D01*
X73090000Y-60130000D02*
X72790000Y-60170000D01*
X73160000Y-60200000D02*
X73090000Y-60130000D01*
X72580000Y-63780000D02*
X71540000Y-62740000D01*
X73100000Y-63780000D02*
X72580000Y-63780000D01*
X73430000Y-63450000D02*
X73100000Y-63780000D01*
X77820000Y-60110000D02*
X78410000Y-60110000D01*
X75380000Y-57670000D02*
X77820000Y-60110000D01*
X61020000Y-57670000D02*
X75380000Y-57670000D01*
X60700000Y-57990000D02*
X61020000Y-57670000D01*
X45200000Y-57990000D02*
X60700000Y-57990000D01*
X42430000Y-60760000D02*
X45200000Y-57990000D01*
X42430000Y-81490000D02*
X42430000Y-60760000D01*
X42580000Y-81640000D02*
X42430000Y-81490000D01*
X43430000Y-81640000D02*
X42580000Y-81640000D01*
X43620000Y-81450000D02*
X43430000Y-81640000D01*
X48300000Y-81450000D02*
X43620000Y-81450000D01*
X48670000Y-81820000D02*
X48300000Y-81450000D01*
X68360000Y-62980000D02*
X68830000Y-62980000D01*
X68830000Y-62980000D02*
X69410000Y-62610000D01*
X65140000Y-59230000D02*
X65140000Y-60790000D01*
X64800000Y-58890000D02*
X65140000Y-59230000D01*
X52959000Y-66548000D02*
X52959000Y-66675000D01*
X52959000Y-66675000D02*
X55372000Y-69088000D01*
X61849000Y-70104000D02*
X63373000Y-68580000D01*
X63373000Y-68580000D02*
X63373000Y-66294000D01*
X63373000Y-66294000D02*
X65151000Y-64516000D01*
X65151000Y-64516000D02*
X65210000Y-64530000D01*
X65210000Y-64530000D02*
X65151000Y-64516000D01*
X65151000Y-64516000D02*
X65151000Y-64262000D01*
X65151000Y-64262000D02*
X65659000Y-63754000D01*
X65659000Y-63754000D02*
X65659000Y-63500000D01*
X65659000Y-63500000D02*
X65151000Y-62992000D01*
X65151000Y-62992000D02*
X65140000Y-62990000D01*
X64190000Y-62990000D02*
X64190000Y-62570000D01*
X64190000Y-62570000D02*
X63700000Y-62080000D01*
X63700000Y-62080000D02*
X63150000Y-62080000D01*
X60450000Y-62320000D02*
X60680000Y-62090000D01*
X60680000Y-62090000D02*
X61310000Y-62090000D01*
X56090000Y-76610000D02*
X56160000Y-76610000D01*
X55863508Y-79243138D02*
X54120000Y-79340000D01*
X56090000Y-78670000D02*
X55863508Y-79243138D01*
X56210000Y-78670000D02*
X56090000Y-78670000D01*
X56850000Y-78030000D02*
X56210000Y-78670000D01*
X56850000Y-77300000D02*
X56850000Y-78030000D01*
X56160000Y-76610000D02*
X56850000Y-77300000D01*
X56090000Y-76610000D02*
X56100000Y-76620000D01*
X57050000Y-75260000D02*
X56600000Y-75710000D01*
X59210000Y-75260000D02*
X57050000Y-75260000D01*
X61170000Y-73300000D02*
X59210000Y-75260000D01*
X57710000Y-79050000D02*
X57420000Y-79050000D01*
X57420000Y-79050000D02*
X57120000Y-78750000D01*
X57120000Y-78750000D02*
X56670000Y-78750000D01*
X56670000Y-78750000D02*
X56140000Y-79280000D01*
X56140000Y-79280000D02*
X56140000Y-79570000D01*
X56140000Y-79570000D02*
X55970000Y-79740000D01*
X55970000Y-79740000D02*
X54920000Y-79740000D01*
X61880000Y-79050000D02*
X57710000Y-79050000D01*
X57710000Y-79050000D02*
X57620000Y-79050000D01*
X62240000Y-79410000D02*
X61880000Y-79050000D01*
X62240000Y-79560000D02*
X62240000Y-79410000D01*
X60780000Y-81020000D02*
X62240000Y-79560000D01*
X60710000Y-84670000D02*
X60780000Y-81020000D01*
X60740000Y-84700000D02*
X60710000Y-84670000D01*
X54770000Y-83880000D02*
X54737000Y-83820000D01*
X54737000Y-83820000D02*
X54356000Y-83439000D01*
X54356000Y-83439000D02*
X54356000Y-82423000D01*
X54356000Y-82423000D02*
X53975000Y-82042000D01*
X53975000Y-82042000D02*
X53975000Y-81534000D01*
X53975000Y-81534000D02*
X54102000Y-81407000D01*
X54102000Y-81407000D02*
X54102000Y-81280000D01*
X54102000Y-81280000D02*
X55753000Y-81280000D01*
X55753000Y-81280000D02*
X55753000Y-81153000D01*
X55753000Y-81153000D02*
X55880000Y-81153000D01*
X55880000Y-81153000D02*
X55880000Y-80391000D01*
X55880000Y-80391000D02*
X55626000Y-80137000D01*
X55626000Y-80137000D02*
X55372000Y-80137000D01*
X55372000Y-80137000D02*
X54991000Y-79756000D01*
X54991000Y-79756000D02*
X54864000Y-79756000D01*
X54864000Y-79756000D02*
X54920000Y-79740000D01*
X58180000Y-83150000D02*
X58166000Y-83185000D01*
X58166000Y-83185000D02*
X58420000Y-82931000D01*
X58420000Y-82931000D02*
X58801000Y-82931000D01*
X58801000Y-82931000D02*
X58801000Y-82677000D01*
X58801000Y-82677000D02*
X58547000Y-82423000D01*
X58547000Y-82423000D02*
X58293000Y-82423000D01*
X52440000Y-69180000D02*
X56800000Y-73540000D01*
X56800000Y-73540000D02*
X58400000Y-73540000D01*
X58400000Y-73540000D02*
X61310000Y-70630000D01*
X61310000Y-70630000D02*
X71560000Y-70630000D01*
X71560000Y-70630000D02*
X72960000Y-69230000D01*
X72960000Y-69230000D02*
X72960000Y-65680000D01*
X73540000Y-69310000D02*
X73540000Y-66330000D01*
X71850000Y-71000000D02*
X73540000Y-69310000D01*
X61520000Y-71000000D02*
X71850000Y-71000000D01*
X58510000Y-74010000D02*
X61520000Y-71000000D01*
X56550000Y-74010000D02*
X58510000Y-74010000D01*
X52950000Y-70410000D02*
X56550000Y-74010000D01*
X53370000Y-71490000D02*
X56210000Y-74330000D01*
X56210000Y-74330000D02*
X58720000Y-74330000D01*
X58720000Y-74330000D02*
X61590000Y-71460000D01*
X61590000Y-71460000D02*
X72110000Y-71460000D01*
X72110000Y-71460000D02*
X74050000Y-69520000D01*
X74050000Y-69520000D02*
X74050000Y-68230000D01*
X80770000Y-66800360D02*
X80570360Y-66800360D01*
X80570360Y-66800360D02*
X79640000Y-65870000D01*
X79640000Y-65870000D02*
X79600000Y-65860000D01*
X80770000Y-64600720D02*
X80100720Y-64600720D01*
X80100720Y-64600720D02*
X79370000Y-63870000D01*
X79370000Y-63870000D02*
X79370000Y-62900000D01*
X80770000Y-62401080D02*
X79441080Y-62401080D01*
X79441080Y-62401080D02*
X79250000Y-62210000D01*
X80770000Y-61301260D02*
X78998740Y-61301260D01*
X78998740Y-61301260D02*
X78820000Y-61480000D01*
X80770000Y-69000000D02*
X79870000Y-69000000D01*
X77370000Y-66500000D02*
X77370000Y-65130000D01*
X79870000Y-69000000D02*
X77370000Y-66500000D01*
X80371220Y-67900180D02*
X80371220Y-67831220D01*
X80371220Y-67831220D02*
X77930000Y-65390000D01*
X77930000Y-65390000D02*
X77930000Y-63860000D01*
X74620000Y-69550000D02*
X74620000Y-69030000D01*
X72400000Y-71770000D02*
X74620000Y-69550000D01*
X61870000Y-71770000D02*
X72400000Y-71770000D01*
X58880000Y-74760000D02*
X61870000Y-71770000D01*
X55990000Y-74760000D02*
X58880000Y-74760000D01*
X53790000Y-72560000D02*
X55990000Y-74760000D01*
X61920000Y-68060000D02*
X61890000Y-63480000D01*
X62120000Y-68260000D02*
X61920000Y-68060000D01*
X57770000Y-72640000D02*
X57770000Y-70010000D01*
X58140000Y-73010000D02*
X57770000Y-72640000D01*
X68040000Y-83970000D02*
X68040000Y-83720000D01*
X68040000Y-83720000D02*
X68470000Y-83290000D01*
X62050000Y-82250000D02*
X61860000Y-82250000D01*
X68040000Y-85280000D02*
X68040000Y-83970000D01*
X68040000Y-83970000D02*
X68040000Y-83950000D01*
X69390000Y-86630000D02*
X68040000Y-85280000D01*
X69390000Y-91210000D02*
X69390000Y-86630000D01*
X68870000Y-91730000D02*
X69390000Y-91210000D01*
X60690000Y-91730000D02*
X68870000Y-91730000D01*
X60350000Y-91390000D02*
X60690000Y-91730000D01*
X60350000Y-87660000D02*
X60350000Y-91390000D01*
X60460000Y-87550000D02*
X60350000Y-87660000D01*
X61190000Y-85370000D02*
X60380000Y-86180000D01*
X61190000Y-82920000D02*
X61190000Y-85370000D01*
X61860000Y-82250000D02*
X61190000Y-82920000D01*
X62860000Y-82250000D02*
X62050000Y-82250000D01*
X62050000Y-82250000D02*
X61980000Y-82250000D01*
X63390000Y-81720000D02*
X62860000Y-82250000D01*
X63390000Y-79840000D02*
X63390000Y-81720000D01*
X62810000Y-79260000D02*
X63390000Y-79840000D01*
X49290000Y-67790000D02*
X50230000Y-67440000D01*
X62440000Y-62780000D02*
X62380000Y-61530000D01*
X62380000Y-61530000D02*
X65350000Y-61580000D01*
X65350000Y-61580000D02*
X65670000Y-61570000D01*
X65670000Y-61570000D02*
X65670000Y-59130000D01*
X75819000Y-59055000D02*
X74920000Y-58000000D01*
X74920000Y-58000000D02*
X61459346Y-57990122D01*
X61459346Y-57990122D02*
X61341000Y-58293000D01*
X61341000Y-58293000D02*
X59436000Y-58293000D01*
X59436000Y-58293000D02*
X59309000Y-58420000D01*
X59309000Y-58420000D02*
X59182000Y-58420000D01*
X59182000Y-58420000D02*
X59182000Y-58547000D01*
X59182000Y-58547000D02*
X59055000Y-58674000D01*
X59055000Y-58674000D02*
X59055000Y-61849000D01*
X59055000Y-61849000D02*
X54864000Y-66040000D01*
X54864000Y-66040000D02*
X52832000Y-66040000D01*
X52832000Y-66040000D02*
X52705000Y-66167000D01*
X52705000Y-66167000D02*
X52578000Y-66167000D01*
X52578000Y-66167000D02*
X52578000Y-66294000D01*
X52578000Y-66294000D02*
X48514000Y-70358000D01*
X48514000Y-70358000D02*
X48133000Y-70358000D01*
X58350000Y-69700000D02*
X58320000Y-63440000D01*
X58880000Y-70230000D02*
X58350000Y-69700000D01*
X59090000Y-68140000D02*
X59070000Y-63450000D01*
X59000000Y-68230000D02*
X59090000Y-68140000D01*
D30*
G36*
X85950000Y-72577891D02*
X85795970Y-72514090D01*
X85005450Y-72514090D01*
X84846700Y-72672840D01*
X84846700Y-73721860D01*
X84866700Y-73721860D01*
X84866700Y-73975860D01*
X84846700Y-73975860D01*
X84846700Y-75024880D01*
X85005450Y-75183630D01*
X85795970Y-75183630D01*
X85950000Y-75119829D01*
X85950000Y-92460000D01*
X81792240Y-92460000D01*
X81952192Y-92300327D01*
X82094838Y-91956799D01*
X82095162Y-91584833D01*
X81953117Y-91241057D01*
X81690327Y-90977808D01*
X81346799Y-90835162D01*
X80974833Y-90834838D01*
X80631057Y-90976883D01*
X80367808Y-91239673D01*
X80290853Y-91425000D01*
X77656163Y-91425000D01*
X75755000Y-89523838D01*
X75755000Y-88617140D01*
X75972192Y-88400327D01*
X76114838Y-88056799D01*
X76114919Y-87964000D01*
X76437411Y-87964000D01*
X76546883Y-88228943D01*
X76665000Y-88347266D01*
X76665000Y-88352616D01*
X76587808Y-88429673D01*
X76445162Y-88773201D01*
X76444838Y-89145167D01*
X76586883Y-89488943D01*
X76849673Y-89752192D01*
X77193201Y-89894838D01*
X77565167Y-89895162D01*
X77908943Y-89753117D01*
X78172192Y-89490327D01*
X78314838Y-89146799D01*
X78315162Y-88774833D01*
X78228506Y-88565108D01*
X78290167Y-88565162D01*
X78633943Y-88423117D01*
X78897192Y-88160327D01*
X79014915Y-87876820D01*
X79014838Y-87965167D01*
X79115000Y-88207578D01*
X79115000Y-88322616D01*
X79037808Y-88399673D01*
X78895162Y-88743201D01*
X78894838Y-89115167D01*
X79036883Y-89458943D01*
X79299673Y-89722192D01*
X79643201Y-89864838D01*
X80015167Y-89865162D01*
X80358943Y-89723117D01*
X80622192Y-89460327D01*
X80764838Y-89116799D01*
X80765162Y-88744833D01*
X80631348Y-88420978D01*
X80742192Y-88310327D01*
X80884838Y-87966799D01*
X80885162Y-87594833D01*
X80743117Y-87251057D01*
X80480327Y-86987808D01*
X80136799Y-86845162D01*
X80007738Y-86845050D01*
X80232166Y-86304567D01*
X80232734Y-85654326D01*
X79984422Y-85053365D01*
X79525033Y-84593174D01*
X78924507Y-84343814D01*
X78274266Y-84343246D01*
X77673305Y-84591558D01*
X77213114Y-85050947D01*
X76963754Y-85651473D01*
X76963676Y-85740651D01*
X76915147Y-85692122D01*
X76915162Y-85674833D01*
X76773117Y-85331057D01*
X76510327Y-85067808D01*
X76362697Y-85006506D01*
X76231117Y-84688057D01*
X76096728Y-84553434D01*
X80721096Y-79929067D01*
X80830167Y-79929162D01*
X81173943Y-79787117D01*
X81437192Y-79524327D01*
X81579838Y-79180799D01*
X81580162Y-78808833D01*
X81479826Y-78566000D01*
X82496560Y-78566000D01*
X82496560Y-78856000D01*
X82540838Y-79091317D01*
X82679910Y-79307441D01*
X82828837Y-79409198D01*
X82602330Y-79748190D01*
X82476655Y-80380000D01*
X82602330Y-81011810D01*
X82960222Y-81547433D01*
X83495845Y-81905325D01*
X84127655Y-82031000D01*
X84192345Y-82031000D01*
X84824155Y-81905325D01*
X85359778Y-81547433D01*
X85717670Y-81011810D01*
X85843345Y-80380000D01*
X85717670Y-79748190D01*
X85490501Y-79408208D01*
X85627441Y-79320090D01*
X85772431Y-79107890D01*
X85823440Y-78856000D01*
X85823440Y-76824000D01*
X85779162Y-76588683D01*
X85640090Y-76372559D01*
X85427890Y-76227569D01*
X85176000Y-76176560D01*
X83144000Y-76176560D01*
X82908683Y-76220838D01*
X82692559Y-76359910D01*
X82547569Y-76572110D01*
X82496560Y-76824000D01*
X82496560Y-77136000D01*
X73956162Y-77136000D01*
X73739711Y-76919549D01*
X73775581Y-76895581D01*
X73985581Y-76685581D01*
X74012588Y-76645162D01*
X74140574Y-76453619D01*
X74195000Y-76180000D01*
X74195000Y-75740000D01*
X74140574Y-75466381D01*
X73985581Y-75234419D01*
X73545581Y-74794419D01*
X73313619Y-74639426D01*
X73040000Y-74585000D01*
X72480000Y-74585000D01*
X72206381Y-74639426D01*
X71990937Y-74783382D01*
X71974419Y-74794419D01*
X71963838Y-74805000D01*
X70726162Y-74805000D01*
X70055772Y-74134610D01*
X83134740Y-74134610D01*
X83134740Y-74674939D01*
X83231413Y-74908328D01*
X83410041Y-75086957D01*
X83643430Y-75183630D01*
X84433950Y-75183630D01*
X84592700Y-75024880D01*
X84592700Y-73975860D01*
X83293490Y-73975860D01*
X83134740Y-74134610D01*
X70055772Y-74134610D01*
X69445581Y-73524419D01*
X69213619Y-73369426D01*
X68940000Y-73315000D01*
X67940000Y-73315000D01*
X67763157Y-73350176D01*
X67761904Y-73240492D01*
X67832192Y-73170327D01*
X67893458Y-73022781D01*
X83134740Y-73022781D01*
X83134740Y-73563110D01*
X83293490Y-73721860D01*
X84592700Y-73721860D01*
X84592700Y-72672840D01*
X84433950Y-72514090D01*
X83643430Y-72514090D01*
X83410041Y-72610763D01*
X83231413Y-72789392D01*
X83134740Y-73022781D01*
X67893458Y-73022781D01*
X67974838Y-72826799D01*
X67974857Y-72805000D01*
X72400000Y-72805000D01*
X72673619Y-72750574D01*
X72905581Y-72595581D01*
X75605582Y-69895581D01*
X75703239Y-69749426D01*
X75760574Y-69663619D01*
X75815000Y-69390000D01*
X75815000Y-63597389D01*
X75889673Y-63672192D01*
X76233201Y-63814838D01*
X76605167Y-63815162D01*
X76948943Y-63673117D01*
X76977109Y-63645000D01*
X77006872Y-63645000D01*
X76995162Y-63673201D01*
X76994838Y-64045167D01*
X77075369Y-64240067D01*
X76841057Y-64336883D01*
X76577808Y-64599673D01*
X76435162Y-64943201D01*
X76434838Y-65315167D01*
X76576883Y-65658943D01*
X76655000Y-65737196D01*
X76655000Y-66500000D01*
X76709426Y-66773619D01*
X76864419Y-67005581D01*
X79364419Y-69505581D01*
X79401258Y-69530196D01*
X79416268Y-69609967D01*
X79555340Y-69826091D01*
X79767540Y-69971081D01*
X80019430Y-70022090D01*
X81520570Y-70022090D01*
X81755887Y-69977812D01*
X81972011Y-69838740D01*
X82117001Y-69626540D01*
X82168010Y-69374650D01*
X82168010Y-68625350D01*
X82123732Y-68390033D01*
X81984660Y-68173909D01*
X81772460Y-68028919D01*
X81769230Y-68028265D01*
X81769230Y-67769586D01*
X81972011Y-67639100D01*
X82117001Y-67426900D01*
X82168010Y-67175010D01*
X82168010Y-66542279D01*
X82172671Y-66539280D01*
X82317661Y-66327080D01*
X82368670Y-66075190D01*
X82368670Y-65325890D01*
X82324392Y-65090573D01*
X82185320Y-64874449D01*
X82168010Y-64862622D01*
X82168010Y-64326796D01*
X82259557Y-64235248D01*
X82356230Y-64001859D01*
X82356230Y-63786650D01*
X82197480Y-63627900D01*
X81763873Y-63627900D01*
X81520570Y-63578630D01*
X80823660Y-63578630D01*
X80823660Y-63423170D01*
X81520570Y-63423170D01*
X81755887Y-63378892D01*
X81763645Y-63373900D01*
X82197480Y-63373900D01*
X82356230Y-63215150D01*
X82356230Y-62999941D01*
X82259557Y-62766552D01*
X82168010Y-62675004D01*
X82168010Y-62026430D01*
X82133822Y-61844736D01*
X82164609Y-61692704D01*
X82310221Y-61838317D01*
X82543610Y-61934990D01*
X83334130Y-61934990D01*
X83492880Y-61776240D01*
X83492880Y-60727220D01*
X83746880Y-60727220D01*
X83746880Y-61776240D01*
X83905630Y-61934990D01*
X84696150Y-61934990D01*
X84929539Y-61838317D01*
X85108167Y-61659688D01*
X85204840Y-61426299D01*
X85204840Y-60885970D01*
X85046090Y-60727220D01*
X83746880Y-60727220D01*
X83492880Y-60727220D01*
X83472880Y-60727220D01*
X83472880Y-60473220D01*
X83492880Y-60473220D01*
X83492880Y-59424200D01*
X83746880Y-59424200D01*
X83746880Y-60473220D01*
X85046090Y-60473220D01*
X85204840Y-60314470D01*
X85204840Y-59774141D01*
X85108167Y-59540752D01*
X84929539Y-59362123D01*
X84696150Y-59265450D01*
X83905630Y-59265450D01*
X83746880Y-59424200D01*
X83492880Y-59424200D01*
X83334130Y-59265450D01*
X82543610Y-59265450D01*
X82310221Y-59362123D01*
X82131593Y-59540752D01*
X82034920Y-59774141D01*
X82034920Y-60314470D01*
X82193668Y-60473218D01*
X82034920Y-60473218D01*
X82034920Y-60553275D01*
X81984660Y-60475169D01*
X81772460Y-60330179D01*
X81520570Y-60279170D01*
X80019430Y-60279170D01*
X79784113Y-60323448D01*
X79567989Y-60462520D01*
X79483441Y-60586260D01*
X79224643Y-60586260D01*
X79344838Y-60296799D01*
X79345162Y-59924833D01*
X79203117Y-59581057D01*
X78940327Y-59317808D01*
X78596799Y-59175162D01*
X78224833Y-59174838D01*
X77992145Y-59270983D01*
X76631162Y-57910000D01*
X85950000Y-57910000D01*
X85950000Y-72577891D01*
X85950000Y-72577891D01*
G37*
X85950000Y-72577891D02*
X85795970Y-72514090D01*
X85005450Y-72514090D01*
X84846700Y-72672840D01*
X84846700Y-73721860D01*
X84866700Y-73721860D01*
X84866700Y-73975860D01*
X84846700Y-73975860D01*
X84846700Y-75024880D01*
X85005450Y-75183630D01*
X85795970Y-75183630D01*
X85950000Y-75119829D01*
X85950000Y-92460000D01*
X81792240Y-92460000D01*
X81952192Y-92300327D01*
X82094838Y-91956799D01*
X82095162Y-91584833D01*
X81953117Y-91241057D01*
X81690327Y-90977808D01*
X81346799Y-90835162D01*
X80974833Y-90834838D01*
X80631057Y-90976883D01*
X80367808Y-91239673D01*
X80290853Y-91425000D01*
X77656163Y-91425000D01*
X75755000Y-89523838D01*
X75755000Y-88617140D01*
X75972192Y-88400327D01*
X76114838Y-88056799D01*
X76114919Y-87964000D01*
X76437411Y-87964000D01*
X76546883Y-88228943D01*
X76665000Y-88347266D01*
X76665000Y-88352616D01*
X76587808Y-88429673D01*
X76445162Y-88773201D01*
X76444838Y-89145167D01*
X76586883Y-89488943D01*
X76849673Y-89752192D01*
X77193201Y-89894838D01*
X77565167Y-89895162D01*
X77908943Y-89753117D01*
X78172192Y-89490327D01*
X78314838Y-89146799D01*
X78315162Y-88774833D01*
X78228506Y-88565108D01*
X78290167Y-88565162D01*
X78633943Y-88423117D01*
X78897192Y-88160327D01*
X79014915Y-87876820D01*
X79014838Y-87965167D01*
X79115000Y-88207578D01*
X79115000Y-88322616D01*
X79037808Y-88399673D01*
X78895162Y-88743201D01*
X78894838Y-89115167D01*
X79036883Y-89458943D01*
X79299673Y-89722192D01*
X79643201Y-89864838D01*
X80015167Y-89865162D01*
X80358943Y-89723117D01*
X80622192Y-89460327D01*
X80764838Y-89116799D01*
X80765162Y-88744833D01*
X80631348Y-88420978D01*
X80742192Y-88310327D01*
X80884838Y-87966799D01*
X80885162Y-87594833D01*
X80743117Y-87251057D01*
X80480327Y-86987808D01*
X80136799Y-86845162D01*
X80007738Y-86845050D01*
X80232166Y-86304567D01*
X80232734Y-85654326D01*
X79984422Y-85053365D01*
X79525033Y-84593174D01*
X78924507Y-84343814D01*
X78274266Y-84343246D01*
X77673305Y-84591558D01*
X77213114Y-85050947D01*
X76963754Y-85651473D01*
X76963676Y-85740651D01*
X76915147Y-85692122D01*
X76915162Y-85674833D01*
X76773117Y-85331057D01*
X76510327Y-85067808D01*
X76362697Y-85006506D01*
X76231117Y-84688057D01*
X76096728Y-84553434D01*
X80721096Y-79929067D01*
X80830167Y-79929162D01*
X81173943Y-79787117D01*
X81437192Y-79524327D01*
X81579838Y-79180799D01*
X81580162Y-78808833D01*
X81479826Y-78566000D01*
X82496560Y-78566000D01*
X82496560Y-78856000D01*
X82540838Y-79091317D01*
X82679910Y-79307441D01*
X82828837Y-79409198D01*
X82602330Y-79748190D01*
X82476655Y-80380000D01*
X82602330Y-81011810D01*
X82960222Y-81547433D01*
X83495845Y-81905325D01*
X84127655Y-82031000D01*
X84192345Y-82031000D01*
X84824155Y-81905325D01*
X85359778Y-81547433D01*
X85717670Y-81011810D01*
X85843345Y-80380000D01*
X85717670Y-79748190D01*
X85490501Y-79408208D01*
X85627441Y-79320090D01*
X85772431Y-79107890D01*
X85823440Y-78856000D01*
X85823440Y-76824000D01*
X85779162Y-76588683D01*
X85640090Y-76372559D01*
X85427890Y-76227569D01*
X85176000Y-76176560D01*
X83144000Y-76176560D01*
X82908683Y-76220838D01*
X82692559Y-76359910D01*
X82547569Y-76572110D01*
X82496560Y-76824000D01*
X82496560Y-77136000D01*
X73956162Y-77136000D01*
X73739711Y-76919549D01*
X73775581Y-76895581D01*
X73985581Y-76685581D01*
X74012588Y-76645162D01*
X74140574Y-76453619D01*
X74195000Y-76180000D01*
X74195000Y-75740000D01*
X74140574Y-75466381D01*
X73985581Y-75234419D01*
X73545581Y-74794419D01*
X73313619Y-74639426D01*
X73040000Y-74585000D01*
X72480000Y-74585000D01*
X72206381Y-74639426D01*
X71990937Y-74783382D01*
X71974419Y-74794419D01*
X71963838Y-74805000D01*
X70726162Y-74805000D01*
X70055772Y-74134610D01*
X83134740Y-74134610D01*
X83134740Y-74674939D01*
X83231413Y-74908328D01*
X83410041Y-75086957D01*
X83643430Y-75183630D01*
X84433950Y-75183630D01*
X84592700Y-75024880D01*
X84592700Y-73975860D01*
X83293490Y-73975860D01*
X83134740Y-74134610D01*
X70055772Y-74134610D01*
X69445581Y-73524419D01*
X69213619Y-73369426D01*
X68940000Y-73315000D01*
X67940000Y-73315000D01*
X67763157Y-73350176D01*
X67761904Y-73240492D01*
X67832192Y-73170327D01*
X67893458Y-73022781D01*
X83134740Y-73022781D01*
X83134740Y-73563110D01*
X83293490Y-73721860D01*
X84592700Y-73721860D01*
X84592700Y-72672840D01*
X84433950Y-72514090D01*
X83643430Y-72514090D01*
X83410041Y-72610763D01*
X83231413Y-72789392D01*
X83134740Y-73022781D01*
X67893458Y-73022781D01*
X67974838Y-72826799D01*
X67974857Y-72805000D01*
X72400000Y-72805000D01*
X72673619Y-72750574D01*
X72905581Y-72595581D01*
X75605582Y-69895581D01*
X75703239Y-69749426D01*
X75760574Y-69663619D01*
X75815000Y-69390000D01*
X75815000Y-63597389D01*
X75889673Y-63672192D01*
X76233201Y-63814838D01*
X76605167Y-63815162D01*
X76948943Y-63673117D01*
X76977109Y-63645000D01*
X77006872Y-63645000D01*
X76995162Y-63673201D01*
X76994838Y-64045167D01*
X77075369Y-64240067D01*
X76841057Y-64336883D01*
X76577808Y-64599673D01*
X76435162Y-64943201D01*
X76434838Y-65315167D01*
X76576883Y-65658943D01*
X76655000Y-65737196D01*
X76655000Y-66500000D01*
X76709426Y-66773619D01*
X76864419Y-67005581D01*
X79364419Y-69505581D01*
X79401258Y-69530196D01*
X79416268Y-69609967D01*
X79555340Y-69826091D01*
X79767540Y-69971081D01*
X80019430Y-70022090D01*
X81520570Y-70022090D01*
X81755887Y-69977812D01*
X81972011Y-69838740D01*
X82117001Y-69626540D01*
X82168010Y-69374650D01*
X82168010Y-68625350D01*
X82123732Y-68390033D01*
X81984660Y-68173909D01*
X81772460Y-68028919D01*
X81769230Y-68028265D01*
X81769230Y-67769586D01*
X81972011Y-67639100D01*
X82117001Y-67426900D01*
X82168010Y-67175010D01*
X82168010Y-66542279D01*
X82172671Y-66539280D01*
X82317661Y-66327080D01*
X82368670Y-66075190D01*
X82368670Y-65325890D01*
X82324392Y-65090573D01*
X82185320Y-64874449D01*
X82168010Y-64862622D01*
X82168010Y-64326796D01*
X82259557Y-64235248D01*
X82356230Y-64001859D01*
X82356230Y-63786650D01*
X82197480Y-63627900D01*
X81763873Y-63627900D01*
X81520570Y-63578630D01*
X80823660Y-63578630D01*
X80823660Y-63423170D01*
X81520570Y-63423170D01*
X81755887Y-63378892D01*
X81763645Y-63373900D01*
X82197480Y-63373900D01*
X82356230Y-63215150D01*
X82356230Y-62999941D01*
X82259557Y-62766552D01*
X82168010Y-62675004D01*
X82168010Y-62026430D01*
X82133822Y-61844736D01*
X82164609Y-61692704D01*
X82310221Y-61838317D01*
X82543610Y-61934990D01*
X83334130Y-61934990D01*
X83492880Y-61776240D01*
X83492880Y-60727220D01*
X83746880Y-60727220D01*
X83746880Y-61776240D01*
X83905630Y-61934990D01*
X84696150Y-61934990D01*
X84929539Y-61838317D01*
X85108167Y-61659688D01*
X85204840Y-61426299D01*
X85204840Y-60885970D01*
X85046090Y-60727220D01*
X83746880Y-60727220D01*
X83492880Y-60727220D01*
X83472880Y-60727220D01*
X83472880Y-60473220D01*
X83492880Y-60473220D01*
X83492880Y-59424200D01*
X83746880Y-59424200D01*
X83746880Y-60473220D01*
X85046090Y-60473220D01*
X85204840Y-60314470D01*
X85204840Y-59774141D01*
X85108167Y-59540752D01*
X84929539Y-59362123D01*
X84696150Y-59265450D01*
X83905630Y-59265450D01*
X83746880Y-59424200D01*
X83492880Y-59424200D01*
X83334130Y-59265450D01*
X82543610Y-59265450D01*
X82310221Y-59362123D01*
X82131593Y-59540752D01*
X82034920Y-59774141D01*
X82034920Y-60314470D01*
X82193668Y-60473218D01*
X82034920Y-60473218D01*
X82034920Y-60553275D01*
X81984660Y-60475169D01*
X81772460Y-60330179D01*
X81520570Y-60279170D01*
X80019430Y-60279170D01*
X79784113Y-60323448D01*
X79567989Y-60462520D01*
X79483441Y-60586260D01*
X79224643Y-60586260D01*
X79344838Y-60296799D01*
X79345162Y-59924833D01*
X79203117Y-59581057D01*
X78940327Y-59317808D01*
X78596799Y-59175162D01*
X78224833Y-59174838D01*
X77992145Y-59270983D01*
X76631162Y-57910000D01*
X85950000Y-57910000D01*
X85950000Y-72577891D01*
G36*
X74245162Y-87683201D02*
X74244838Y-88055167D01*
X74325000Y-88249174D01*
X74325000Y-89820000D01*
X74379426Y-90093619D01*
X74534419Y-90325581D01*
X76668837Y-92460000D01*
X54329356Y-92460000D01*
X54460574Y-92263619D01*
X54515000Y-91990000D01*
X54515000Y-91697527D01*
X54724842Y-91700639D01*
X54724838Y-91705167D01*
X54866883Y-92048943D01*
X55129673Y-92312192D01*
X55473201Y-92454838D01*
X55845167Y-92455162D01*
X56188943Y-92313117D01*
X56267196Y-92235000D01*
X57890000Y-92235000D01*
X58163619Y-92180574D01*
X58395581Y-92025581D01*
X58965582Y-91455581D01*
X59058493Y-91316530D01*
X59120574Y-91223619D01*
X59175000Y-90950000D01*
X59175000Y-89936162D01*
X59356095Y-89755067D01*
X59465167Y-89755162D01*
X59635000Y-89684989D01*
X59635000Y-91390000D01*
X59689426Y-91663619D01*
X59844419Y-91895581D01*
X60184419Y-92235582D01*
X60299075Y-92312192D01*
X60416381Y-92390574D01*
X60690000Y-92445000D01*
X68870000Y-92445000D01*
X69143619Y-92390574D01*
X69375581Y-92235581D01*
X69895581Y-91715581D01*
X70050574Y-91483619D01*
X70069196Y-91390000D01*
X70105000Y-91210000D01*
X70105000Y-88812878D01*
X70425201Y-88945838D01*
X70590070Y-88945982D01*
X70606710Y-88971841D01*
X70818910Y-89116831D01*
X71070800Y-89167840D01*
X71629600Y-89167840D01*
X71825385Y-89131001D01*
X71884290Y-89155400D01*
X72004250Y-89155400D01*
X72163000Y-88996650D01*
X72163000Y-88864539D01*
X72226031Y-88772290D01*
X72277040Y-88520400D01*
X72277040Y-87893202D01*
X72302960Y-87919122D01*
X72302960Y-88520400D01*
X72347238Y-88755717D01*
X72417000Y-88864130D01*
X72417000Y-88996650D01*
X72575750Y-89155400D01*
X72695710Y-89155400D01*
X72759168Y-89129115D01*
X72950400Y-89167840D01*
X73509200Y-89167840D01*
X73744517Y-89123562D01*
X73960641Y-88984490D01*
X74105631Y-88772290D01*
X74156640Y-88520400D01*
X74156640Y-87583000D01*
X74286769Y-87583000D01*
X74245162Y-87683201D01*
X74245162Y-87683201D01*
G37*
X74245162Y-87683201D02*
X74244838Y-88055167D01*
X74325000Y-88249174D01*
X74325000Y-89820000D01*
X74379426Y-90093619D01*
X74534419Y-90325581D01*
X76668837Y-92460000D01*
X54329356Y-92460000D01*
X54460574Y-92263619D01*
X54515000Y-91990000D01*
X54515000Y-91697527D01*
X54724842Y-91700639D01*
X54724838Y-91705167D01*
X54866883Y-92048943D01*
X55129673Y-92312192D01*
X55473201Y-92454838D01*
X55845167Y-92455162D01*
X56188943Y-92313117D01*
X56267196Y-92235000D01*
X57890000Y-92235000D01*
X58163619Y-92180574D01*
X58395581Y-92025581D01*
X58965582Y-91455581D01*
X59058493Y-91316530D01*
X59120574Y-91223619D01*
X59175000Y-90950000D01*
X59175000Y-89936162D01*
X59356095Y-89755067D01*
X59465167Y-89755162D01*
X59635000Y-89684989D01*
X59635000Y-91390000D01*
X59689426Y-91663619D01*
X59844419Y-91895581D01*
X60184419Y-92235582D01*
X60299075Y-92312192D01*
X60416381Y-92390574D01*
X60690000Y-92445000D01*
X68870000Y-92445000D01*
X69143619Y-92390574D01*
X69375581Y-92235581D01*
X69895581Y-91715581D01*
X70050574Y-91483619D01*
X70069196Y-91390000D01*
X70105000Y-91210000D01*
X70105000Y-88812878D01*
X70425201Y-88945838D01*
X70590070Y-88945982D01*
X70606710Y-88971841D01*
X70818910Y-89116831D01*
X71070800Y-89167840D01*
X71629600Y-89167840D01*
X71825385Y-89131001D01*
X71884290Y-89155400D01*
X72004250Y-89155400D01*
X72163000Y-88996650D01*
X72163000Y-88864539D01*
X72226031Y-88772290D01*
X72277040Y-88520400D01*
X72277040Y-87893202D01*
X72302960Y-87919122D01*
X72302960Y-88520400D01*
X72347238Y-88755717D01*
X72417000Y-88864130D01*
X72417000Y-88996650D01*
X72575750Y-89155400D01*
X72695710Y-89155400D01*
X72759168Y-89129115D01*
X72950400Y-89167840D01*
X73509200Y-89167840D01*
X73744517Y-89123562D01*
X73960641Y-88984490D01*
X74105631Y-88772290D01*
X74156640Y-88520400D01*
X74156640Y-87583000D01*
X74286769Y-87583000D01*
X74245162Y-87683201D01*
G36*
X42074419Y-82145581D02*
X42119505Y-82175706D01*
X42112560Y-82210000D01*
X42112560Y-91610000D01*
X42156838Y-91845317D01*
X42295910Y-92061441D01*
X42508110Y-92206431D01*
X42760000Y-92257440D01*
X52260569Y-92257440D01*
X52344264Y-92460000D01*
X42030000Y-92460000D01*
X42030000Y-82101162D01*
X42074419Y-82145581D01*
X42074419Y-82145581D01*
G37*
X42074419Y-82145581D02*
X42119505Y-82175706D01*
X42112560Y-82210000D01*
X42112560Y-91610000D01*
X42156838Y-91845317D01*
X42295910Y-92061441D01*
X42508110Y-92206431D01*
X42760000Y-92257440D01*
X52260569Y-92257440D01*
X52344264Y-92460000D01*
X42030000Y-92460000D01*
X42030000Y-82101162D01*
X42074419Y-82145581D01*
G36*
X56977000Y-90033000D02*
X56997000Y-90033000D01*
X56997000Y-90287000D01*
X56977000Y-90287000D01*
X56977000Y-90307000D01*
X56723000Y-90307000D01*
X56723000Y-90287000D01*
X56703000Y-90287000D01*
X56703000Y-90033000D01*
X56723000Y-90033000D01*
X56723000Y-90013000D01*
X56977000Y-90013000D01*
X56977000Y-90033000D01*
X56977000Y-90033000D01*
G37*
X56977000Y-90033000D02*
X56997000Y-90033000D01*
X56997000Y-90287000D01*
X56977000Y-90287000D01*
X56977000Y-90307000D01*
X56723000Y-90307000D01*
X56723000Y-90287000D01*
X56703000Y-90287000D01*
X56703000Y-90033000D01*
X56723000Y-90033000D01*
X56723000Y-90013000D01*
X56977000Y-90013000D01*
X56977000Y-90033000D01*
G36*
X70125000Y-86116163D02*
X70125000Y-86130000D01*
X70179426Y-86403619D01*
X70187275Y-86415365D01*
X70205426Y-86506619D01*
X70360419Y-86738581D01*
X70536755Y-86856405D01*
X70474369Y-86947710D01*
X70448419Y-87075857D01*
X70426833Y-87075838D01*
X70105000Y-87208816D01*
X70105000Y-86630000D01*
X70050574Y-86356381D01*
X70015953Y-86304567D01*
X69895581Y-86124418D01*
X68755000Y-84983838D01*
X68755000Y-84746162D01*
X70125000Y-86116163D01*
X70125000Y-86116163D01*
G37*
X70125000Y-86116163D02*
X70125000Y-86130000D01*
X70179426Y-86403619D01*
X70187275Y-86415365D01*
X70205426Y-86506619D01*
X70360419Y-86738581D01*
X70536755Y-86856405D01*
X70474369Y-86947710D01*
X70448419Y-87075857D01*
X70426833Y-87075838D01*
X70105000Y-87208816D01*
X70105000Y-86630000D01*
X70050574Y-86356381D01*
X70015953Y-86304567D01*
X69895581Y-86124418D01*
X68755000Y-84983838D01*
X68755000Y-84746162D01*
X70125000Y-86116163D01*
G36*
X73386381Y-78511574D02*
X73660000Y-78566000D01*
X79810318Y-78566000D01*
X79710162Y-78807201D01*
X79710066Y-78917771D01*
X75611147Y-83016691D01*
X75611162Y-82999833D01*
X75469117Y-82656057D01*
X75206327Y-82392808D01*
X75168495Y-82377099D01*
X75209574Y-82315619D01*
X75222626Y-82250000D01*
X75264000Y-82042000D01*
X75264000Y-81280000D01*
X75209574Y-81006381D01*
X75168172Y-80944419D01*
X75054581Y-80774418D01*
X74967997Y-80687834D01*
X74955574Y-80625381D01*
X74858139Y-80479560D01*
X74800582Y-80393419D01*
X73232000Y-78824838D01*
X73232000Y-78408419D01*
X73386381Y-78511574D01*
X73386381Y-78511574D01*
G37*
X73386381Y-78511574D02*
X73660000Y-78566000D01*
X79810318Y-78566000D01*
X79710162Y-78807201D01*
X79710066Y-78917771D01*
X75611147Y-83016691D01*
X75611162Y-82999833D01*
X75469117Y-82656057D01*
X75206327Y-82392808D01*
X75168495Y-82377099D01*
X75209574Y-82315619D01*
X75222626Y-82250000D01*
X75264000Y-82042000D01*
X75264000Y-81280000D01*
X75209574Y-81006381D01*
X75168172Y-80944419D01*
X75054581Y-80774418D01*
X74967997Y-80687834D01*
X74955574Y-80625381D01*
X74858139Y-80479560D01*
X74800582Y-80393419D01*
X73232000Y-78824838D01*
X73232000Y-78408419D01*
X73386381Y-78511574D01*
G36*
X69598419Y-79504419D02*
X69443426Y-79736381D01*
X69389000Y-80010000D01*
X69389000Y-82042000D01*
X69430178Y-82249015D01*
X69186491Y-82005329D01*
X68954529Y-81850336D01*
X68680910Y-81795910D01*
X67956517Y-81795910D01*
X67951901Y-81795046D01*
X67871571Y-81795956D01*
X67871570Y-81795956D01*
X65749156Y-81820006D01*
X67479163Y-80090000D01*
X67945000Y-80090000D01*
X68218619Y-80035574D01*
X68450581Y-79880581D01*
X69267631Y-79063531D01*
X69488619Y-79019574D01*
X69720581Y-78864581D01*
X70273163Y-78312000D01*
X70790838Y-78312000D01*
X69598419Y-79504419D01*
X69598419Y-79504419D01*
G37*
X69598419Y-79504419D02*
X69443426Y-79736381D01*
X69389000Y-80010000D01*
X69389000Y-82042000D01*
X69430178Y-82249015D01*
X69186491Y-82005329D01*
X68954529Y-81850336D01*
X68680910Y-81795910D01*
X67956517Y-81795910D01*
X67951901Y-81795046D01*
X67871571Y-81795956D01*
X67871570Y-81795956D01*
X65749156Y-81820006D01*
X67479163Y-80090000D01*
X67945000Y-80090000D01*
X68218619Y-80035574D01*
X68450581Y-79880581D01*
X69267631Y-79063531D01*
X69488619Y-79019574D01*
X69720581Y-78864581D01*
X70273163Y-78312000D01*
X70790838Y-78312000D01*
X69598419Y-79504419D01*
G36*
X48287000Y-77633000D02*
X48307000Y-77633000D01*
X48307000Y-77887000D01*
X48287000Y-77887000D01*
X48287000Y-77907000D01*
X48033000Y-77907000D01*
X48033000Y-77887000D01*
X48013000Y-77887000D01*
X48013000Y-77633000D01*
X48033000Y-77633000D01*
X48033000Y-77613000D01*
X48287000Y-77613000D01*
X48287000Y-77633000D01*
X48287000Y-77633000D01*
G37*
X48287000Y-77633000D02*
X48307000Y-77633000D01*
X48307000Y-77887000D01*
X48287000Y-77887000D01*
X48287000Y-77907000D01*
X48033000Y-77907000D01*
X48033000Y-77887000D01*
X48013000Y-77887000D01*
X48013000Y-77633000D01*
X48033000Y-77633000D01*
X48033000Y-77613000D01*
X48287000Y-77613000D01*
X48287000Y-77633000D01*
G36*
X54245162Y-58853201D02*
X54244838Y-59225167D01*
X54386883Y-59568943D01*
X54475000Y-59657214D01*
X54475000Y-60563113D01*
X54451354Y-60578329D01*
X54449698Y-60576673D01*
X54216309Y-60480000D01*
X53975750Y-60480000D01*
X53817000Y-60638750D01*
X53817000Y-61363000D01*
X53837000Y-61363000D01*
X53837000Y-61617000D01*
X53817000Y-61617000D01*
X53817000Y-62341250D01*
X53975750Y-62500000D01*
X54216309Y-62500000D01*
X54449698Y-62403327D01*
X54451068Y-62401957D01*
X54538110Y-62461431D01*
X54790000Y-62512440D01*
X54891278Y-62512440D01*
X55814933Y-63436095D01*
X55814838Y-63545167D01*
X55956883Y-63888943D01*
X55980368Y-63912470D01*
X54567838Y-65325000D01*
X52832000Y-65325000D01*
X52558381Y-65379426D01*
X52395412Y-65488319D01*
X52304381Y-65506426D01*
X52072419Y-65661419D01*
X51917426Y-65893381D01*
X51905003Y-65955835D01*
X51580323Y-66280515D01*
X51473117Y-66021057D01*
X51429740Y-65977604D01*
X51542866Y-65705167D01*
X51543434Y-65054926D01*
X51295122Y-64453965D01*
X50835733Y-63993774D01*
X50235207Y-63744414D01*
X49584966Y-63743846D01*
X48984005Y-63992158D01*
X48523814Y-64451547D01*
X48274454Y-65052073D01*
X48273886Y-65702314D01*
X48522198Y-66303275D01*
X48981587Y-66763466D01*
X49201839Y-66854922D01*
X49104833Y-66854838D01*
X48761057Y-66996883D01*
X48497808Y-67259673D01*
X48366055Y-67576967D01*
X48096799Y-67465162D01*
X47724833Y-67464838D01*
X47381057Y-67606883D01*
X47142524Y-67845000D01*
X45910000Y-67845000D01*
X45661553Y-67894419D01*
X45636381Y-67899426D01*
X45404419Y-68054419D01*
X44954419Y-68504419D01*
X44944478Y-68519297D01*
X44824683Y-68541838D01*
X44721354Y-68608329D01*
X44719698Y-68606673D01*
X44486309Y-68510000D01*
X44245750Y-68510000D01*
X44087000Y-68668750D01*
X44087000Y-69393000D01*
X44107000Y-69393000D01*
X44107000Y-69647000D01*
X44087000Y-69647000D01*
X44087000Y-70188750D01*
X44027000Y-70248750D01*
X44027000Y-70973000D01*
X44047000Y-70973000D01*
X44047000Y-71227000D01*
X44027000Y-71227000D01*
X44027000Y-71951250D01*
X44032001Y-71956251D01*
X44032001Y-72658000D01*
X44052001Y-72658000D01*
X44052001Y-72912000D01*
X44032001Y-72912000D01*
X44032001Y-73636250D01*
X44087000Y-73691249D01*
X44087000Y-74163000D01*
X44107000Y-74163000D01*
X44107000Y-74417000D01*
X44087000Y-74417000D01*
X44087000Y-74437000D01*
X43833000Y-74437000D01*
X43833000Y-74417000D01*
X43813000Y-74417000D01*
X43813000Y-74163000D01*
X43833000Y-74163000D01*
X43833000Y-73438750D01*
X43778001Y-73383751D01*
X43778001Y-72912000D01*
X43758001Y-72912000D01*
X43758001Y-72658000D01*
X43778001Y-72658000D01*
X43778001Y-71933750D01*
X43773000Y-71928749D01*
X43773000Y-71227000D01*
X43753000Y-71227000D01*
X43753000Y-70973000D01*
X43773000Y-70973000D01*
X43773000Y-70431250D01*
X43833000Y-70371250D01*
X43833000Y-69647000D01*
X43813000Y-69647000D01*
X43813000Y-69393000D01*
X43833000Y-69393000D01*
X43833000Y-68668750D01*
X43674250Y-68510000D01*
X43433691Y-68510000D01*
X43200302Y-68606673D01*
X43145000Y-68661975D01*
X43145000Y-61775750D01*
X52655000Y-61775750D01*
X52655000Y-61991310D01*
X52751673Y-62224699D01*
X52930302Y-62403327D01*
X53163691Y-62500000D01*
X53404250Y-62500000D01*
X53563000Y-62341250D01*
X53563000Y-61617000D01*
X52813750Y-61617000D01*
X52655000Y-61775750D01*
X43145000Y-61775750D01*
X43145000Y-61056162D01*
X43212472Y-60988690D01*
X52655000Y-60988690D01*
X52655000Y-61204250D01*
X52813750Y-61363000D01*
X53563000Y-61363000D01*
X53563000Y-60638750D01*
X53404250Y-60480000D01*
X53163691Y-60480000D01*
X52930302Y-60576673D01*
X52751673Y-60755301D01*
X52655000Y-60988690D01*
X43212472Y-60988690D01*
X45496163Y-58705000D01*
X54306701Y-58705000D01*
X54245162Y-58853201D01*
X54245162Y-58853201D01*
G37*
X54245162Y-58853201D02*
X54244838Y-59225167D01*
X54386883Y-59568943D01*
X54475000Y-59657214D01*
X54475000Y-60563113D01*
X54451354Y-60578329D01*
X54449698Y-60576673D01*
X54216309Y-60480000D01*
X53975750Y-60480000D01*
X53817000Y-60638750D01*
X53817000Y-61363000D01*
X53837000Y-61363000D01*
X53837000Y-61617000D01*
X53817000Y-61617000D01*
X53817000Y-62341250D01*
X53975750Y-62500000D01*
X54216309Y-62500000D01*
X54449698Y-62403327D01*
X54451068Y-62401957D01*
X54538110Y-62461431D01*
X54790000Y-62512440D01*
X54891278Y-62512440D01*
X55814933Y-63436095D01*
X55814838Y-63545167D01*
X55956883Y-63888943D01*
X55980368Y-63912470D01*
X54567838Y-65325000D01*
X52832000Y-65325000D01*
X52558381Y-65379426D01*
X52395412Y-65488319D01*
X52304381Y-65506426D01*
X52072419Y-65661419D01*
X51917426Y-65893381D01*
X51905003Y-65955835D01*
X51580323Y-66280515D01*
X51473117Y-66021057D01*
X51429740Y-65977604D01*
X51542866Y-65705167D01*
X51543434Y-65054926D01*
X51295122Y-64453965D01*
X50835733Y-63993774D01*
X50235207Y-63744414D01*
X49584966Y-63743846D01*
X48984005Y-63992158D01*
X48523814Y-64451547D01*
X48274454Y-65052073D01*
X48273886Y-65702314D01*
X48522198Y-66303275D01*
X48981587Y-66763466D01*
X49201839Y-66854922D01*
X49104833Y-66854838D01*
X48761057Y-66996883D01*
X48497808Y-67259673D01*
X48366055Y-67576967D01*
X48096799Y-67465162D01*
X47724833Y-67464838D01*
X47381057Y-67606883D01*
X47142524Y-67845000D01*
X45910000Y-67845000D01*
X45661553Y-67894419D01*
X45636381Y-67899426D01*
X45404419Y-68054419D01*
X44954419Y-68504419D01*
X44944478Y-68519297D01*
X44824683Y-68541838D01*
X44721354Y-68608329D01*
X44719698Y-68606673D01*
X44486309Y-68510000D01*
X44245750Y-68510000D01*
X44087000Y-68668750D01*
X44087000Y-69393000D01*
X44107000Y-69393000D01*
X44107000Y-69647000D01*
X44087000Y-69647000D01*
X44087000Y-70188750D01*
X44027000Y-70248750D01*
X44027000Y-70973000D01*
X44047000Y-70973000D01*
X44047000Y-71227000D01*
X44027000Y-71227000D01*
X44027000Y-71951250D01*
X44032001Y-71956251D01*
X44032001Y-72658000D01*
X44052001Y-72658000D01*
X44052001Y-72912000D01*
X44032001Y-72912000D01*
X44032001Y-73636250D01*
X44087000Y-73691249D01*
X44087000Y-74163000D01*
X44107000Y-74163000D01*
X44107000Y-74417000D01*
X44087000Y-74417000D01*
X44087000Y-74437000D01*
X43833000Y-74437000D01*
X43833000Y-74417000D01*
X43813000Y-74417000D01*
X43813000Y-74163000D01*
X43833000Y-74163000D01*
X43833000Y-73438750D01*
X43778001Y-73383751D01*
X43778001Y-72912000D01*
X43758001Y-72912000D01*
X43758001Y-72658000D01*
X43778001Y-72658000D01*
X43778001Y-71933750D01*
X43773000Y-71928749D01*
X43773000Y-71227000D01*
X43753000Y-71227000D01*
X43753000Y-70973000D01*
X43773000Y-70973000D01*
X43773000Y-70431250D01*
X43833000Y-70371250D01*
X43833000Y-69647000D01*
X43813000Y-69647000D01*
X43813000Y-69393000D01*
X43833000Y-69393000D01*
X43833000Y-68668750D01*
X43674250Y-68510000D01*
X43433691Y-68510000D01*
X43200302Y-68606673D01*
X43145000Y-68661975D01*
X43145000Y-61775750D01*
X52655000Y-61775750D01*
X52655000Y-61991310D01*
X52751673Y-62224699D01*
X52930302Y-62403327D01*
X53163691Y-62500000D01*
X53404250Y-62500000D01*
X53563000Y-62341250D01*
X53563000Y-61617000D01*
X52813750Y-61617000D01*
X52655000Y-61775750D01*
X43145000Y-61775750D01*
X43145000Y-61056162D01*
X43212472Y-60988690D01*
X52655000Y-60988690D01*
X52655000Y-61204250D01*
X52813750Y-61363000D01*
X53563000Y-61363000D01*
X53563000Y-60638750D01*
X53404250Y-60480000D01*
X53163691Y-60480000D01*
X52930302Y-60576673D01*
X52751673Y-60755301D01*
X52655000Y-60988690D01*
X43212472Y-60988690D01*
X45496163Y-58705000D01*
X54306701Y-58705000D01*
X54245162Y-58853201D01*
G36*
X70597300Y-62022620D02*
X70617300Y-62022620D01*
X70617300Y-62276620D01*
X70597300Y-62276620D01*
X70597300Y-63526300D01*
X70756050Y-63685050D01*
X71296380Y-63685050D01*
X71337137Y-63668168D01*
X71353201Y-63674838D01*
X71463772Y-63674934D01*
X72074419Y-64285581D01*
X72306381Y-64440574D01*
X72580000Y-64495000D01*
X73100000Y-64495000D01*
X73373619Y-64440574D01*
X73456755Y-64385024D01*
X73615167Y-64385162D01*
X73958943Y-64243117D01*
X74222192Y-63980327D01*
X74364838Y-63636799D01*
X74364874Y-63595000D01*
X74385000Y-63595000D01*
X74385000Y-65926624D01*
X74333117Y-65801057D01*
X74070327Y-65537808D01*
X73880319Y-65458909D01*
X73753117Y-65151057D01*
X73490327Y-64887808D01*
X73146799Y-64745162D01*
X72774833Y-64744838D01*
X72431057Y-64886883D01*
X72167808Y-65149673D01*
X72025162Y-65493201D01*
X72024838Y-65865167D01*
X72166883Y-66208943D01*
X72245000Y-66287196D01*
X72245000Y-68933838D01*
X71263838Y-69915000D01*
X69121339Y-69915000D01*
X69185000Y-69761310D01*
X69185000Y-69545750D01*
X69026250Y-69387000D01*
X68277000Y-69387000D01*
X68277000Y-69407000D01*
X68259137Y-69407000D01*
X68040327Y-69187808D01*
X68003000Y-69172308D01*
X68003000Y-69133000D01*
X68023000Y-69133000D01*
X68023000Y-69113000D01*
X68277000Y-69113000D01*
X68277000Y-69133000D01*
X69026250Y-69133000D01*
X69149003Y-69010247D01*
X69232203Y-69211108D01*
X69410831Y-69389737D01*
X69644220Y-69486410D01*
X70184550Y-69486410D01*
X70343300Y-69327660D01*
X70343300Y-68077980D01*
X70597300Y-68077980D01*
X70597300Y-69327660D01*
X70756050Y-69486410D01*
X71296380Y-69486410D01*
X71529769Y-69389737D01*
X71708397Y-69211108D01*
X71805070Y-68977719D01*
X71805070Y-68236730D01*
X71646320Y-68077980D01*
X70597300Y-68077980D01*
X70343300Y-68077980D01*
X70323300Y-68077980D01*
X70323300Y-67823980D01*
X70343300Y-67823980D01*
X70343300Y-66574300D01*
X70597300Y-66574300D01*
X70597300Y-67823980D01*
X71646320Y-67823980D01*
X71805070Y-67665230D01*
X71805070Y-66924241D01*
X71708397Y-66690852D01*
X71529769Y-66512223D01*
X71296380Y-66415550D01*
X70756050Y-66415550D01*
X70597300Y-66574300D01*
X70343300Y-66574300D01*
X70184550Y-66415550D01*
X70057000Y-66415550D01*
X70057000Y-64996384D01*
X70134192Y-64919327D01*
X70276838Y-64575799D01*
X70277162Y-64203833D01*
X70135117Y-63860057D01*
X69960415Y-63685050D01*
X70184550Y-63685050D01*
X70343300Y-63526300D01*
X70343300Y-62800503D01*
X70344838Y-62796799D01*
X70345162Y-62424833D01*
X70343300Y-62420327D01*
X70343300Y-62276620D01*
X70323300Y-62276620D01*
X70323300Y-62022620D01*
X70343300Y-62022620D01*
X70343300Y-62002620D01*
X70597300Y-62002620D01*
X70597300Y-62022620D01*
X70597300Y-62022620D01*
G37*
X70597300Y-62022620D02*
X70617300Y-62022620D01*
X70617300Y-62276620D01*
X70597300Y-62276620D01*
X70597300Y-63526300D01*
X70756050Y-63685050D01*
X71296380Y-63685050D01*
X71337137Y-63668168D01*
X71353201Y-63674838D01*
X71463772Y-63674934D01*
X72074419Y-64285581D01*
X72306381Y-64440574D01*
X72580000Y-64495000D01*
X73100000Y-64495000D01*
X73373619Y-64440574D01*
X73456755Y-64385024D01*
X73615167Y-64385162D01*
X73958943Y-64243117D01*
X74222192Y-63980327D01*
X74364838Y-63636799D01*
X74364874Y-63595000D01*
X74385000Y-63595000D01*
X74385000Y-65926624D01*
X74333117Y-65801057D01*
X74070327Y-65537808D01*
X73880319Y-65458909D01*
X73753117Y-65151057D01*
X73490327Y-64887808D01*
X73146799Y-64745162D01*
X72774833Y-64744838D01*
X72431057Y-64886883D01*
X72167808Y-65149673D01*
X72025162Y-65493201D01*
X72024838Y-65865167D01*
X72166883Y-66208943D01*
X72245000Y-66287196D01*
X72245000Y-68933838D01*
X71263838Y-69915000D01*
X69121339Y-69915000D01*
X69185000Y-69761310D01*
X69185000Y-69545750D01*
X69026250Y-69387000D01*
X68277000Y-69387000D01*
X68277000Y-69407000D01*
X68259137Y-69407000D01*
X68040327Y-69187808D01*
X68003000Y-69172308D01*
X68003000Y-69133000D01*
X68023000Y-69133000D01*
X68023000Y-69113000D01*
X68277000Y-69113000D01*
X68277000Y-69133000D01*
X69026250Y-69133000D01*
X69149003Y-69010247D01*
X69232203Y-69211108D01*
X69410831Y-69389737D01*
X69644220Y-69486410D01*
X70184550Y-69486410D01*
X70343300Y-69327660D01*
X70343300Y-68077980D01*
X70597300Y-68077980D01*
X70597300Y-69327660D01*
X70756050Y-69486410D01*
X71296380Y-69486410D01*
X71529769Y-69389737D01*
X71708397Y-69211108D01*
X71805070Y-68977719D01*
X71805070Y-68236730D01*
X71646320Y-68077980D01*
X70597300Y-68077980D01*
X70343300Y-68077980D01*
X70323300Y-68077980D01*
X70323300Y-67823980D01*
X70343300Y-67823980D01*
X70343300Y-66574300D01*
X70597300Y-66574300D01*
X70597300Y-67823980D01*
X71646320Y-67823980D01*
X71805070Y-67665230D01*
X71805070Y-66924241D01*
X71708397Y-66690852D01*
X71529769Y-66512223D01*
X71296380Y-66415550D01*
X70756050Y-66415550D01*
X70597300Y-66574300D01*
X70343300Y-66574300D01*
X70184550Y-66415550D01*
X70057000Y-66415550D01*
X70057000Y-64996384D01*
X70134192Y-64919327D01*
X70276838Y-64575799D01*
X70277162Y-64203833D01*
X70135117Y-63860057D01*
X69960415Y-63685050D01*
X70184550Y-63685050D01*
X70343300Y-63526300D01*
X70343300Y-62800503D01*
X70344838Y-62796799D01*
X70345162Y-62424833D01*
X70343300Y-62420327D01*
X70343300Y-62276620D01*
X70323300Y-62276620D01*
X70323300Y-62022620D01*
X70343300Y-62022620D01*
X70343300Y-62002620D01*
X70597300Y-62002620D01*
X70597300Y-62022620D01*
G36*
X66430310Y-61526381D02*
X66526381Y-61590574D01*
X66800000Y-61645000D01*
X69135530Y-61645000D01*
X69135530Y-61711737D01*
X68881057Y-61816883D01*
X68780648Y-61917117D01*
X68610000Y-61882560D01*
X68110000Y-61882560D01*
X67874683Y-61926838D01*
X67658559Y-62065910D01*
X67612031Y-62134006D01*
X67469698Y-61991673D01*
X67236309Y-61895000D01*
X67143750Y-61895000D01*
X66985000Y-62053750D01*
X66985000Y-62853000D01*
X67007000Y-62853000D01*
X67007000Y-63107000D01*
X66985000Y-63107000D01*
X66985000Y-63127000D01*
X66735000Y-63127000D01*
X66735000Y-63107000D01*
X66713000Y-63107000D01*
X66713000Y-62853000D01*
X66735000Y-62853000D01*
X66735000Y-62053750D01*
X66576250Y-61895000D01*
X66483691Y-61895000D01*
X66250302Y-61991673D01*
X66205549Y-62036426D01*
X66259165Y-61950489D01*
X66330574Y-61843619D01*
X66332789Y-61832485D01*
X66338798Y-61822853D01*
X66359924Y-61696068D01*
X66385000Y-61570000D01*
X66385000Y-61496106D01*
X66430310Y-61526381D01*
X66430310Y-61526381D01*
G37*
X66430310Y-61526381D02*
X66526381Y-61590574D01*
X66800000Y-61645000D01*
X69135530Y-61645000D01*
X69135530Y-61711737D01*
X68881057Y-61816883D01*
X68780648Y-61917117D01*
X68610000Y-61882560D01*
X68110000Y-61882560D01*
X67874683Y-61926838D01*
X67658559Y-62065910D01*
X67612031Y-62134006D01*
X67469698Y-61991673D01*
X67236309Y-61895000D01*
X67143750Y-61895000D01*
X66985000Y-62053750D01*
X66985000Y-62853000D01*
X67007000Y-62853000D01*
X67007000Y-63107000D01*
X66985000Y-63107000D01*
X66985000Y-63127000D01*
X66735000Y-63127000D01*
X66735000Y-63107000D01*
X66713000Y-63107000D01*
X66713000Y-62853000D01*
X66735000Y-62853000D01*
X66735000Y-62053750D01*
X66576250Y-61895000D01*
X66483691Y-61895000D01*
X66250302Y-61991673D01*
X66205549Y-62036426D01*
X66259165Y-61950489D01*
X66330574Y-61843619D01*
X66332789Y-61832485D01*
X66338798Y-61822853D01*
X66359924Y-61696068D01*
X66385000Y-61570000D01*
X66385000Y-61496106D01*
X66430310Y-61526381D01*
G36*
X74589686Y-58714758D02*
X74883995Y-59060137D01*
X74883838Y-59240167D01*
X75025883Y-59583943D01*
X75288673Y-59847192D01*
X75632201Y-59989838D01*
X76004167Y-59990162D01*
X76347943Y-59848117D01*
X76447536Y-59748698D01*
X77314419Y-60615581D01*
X77546381Y-60770574D01*
X77798308Y-60820685D01*
X77879673Y-60902192D01*
X78022839Y-60961640D01*
X77885162Y-61293201D01*
X77884838Y-61665167D01*
X78026883Y-62008943D01*
X78289673Y-62272192D01*
X78314936Y-62282682D01*
X78314877Y-62350448D01*
X78193619Y-62269426D01*
X77920000Y-62215000D01*
X77077297Y-62215000D01*
X76950327Y-62087808D01*
X76606799Y-61945162D01*
X76234833Y-61944838D01*
X75891057Y-62086883D01*
X75812804Y-62165000D01*
X73019538Y-62165000D01*
X72993117Y-62101057D01*
X72730327Y-61837808D01*
X72386799Y-61695162D01*
X72014833Y-61694838D01*
X71805070Y-61781510D01*
X71805070Y-61236092D01*
X72126162Y-60915000D01*
X72552616Y-60915000D01*
X72629673Y-60992192D01*
X72973201Y-61134838D01*
X73345167Y-61135162D01*
X73688943Y-60993117D01*
X73952192Y-60730327D01*
X74094838Y-60386799D01*
X74095162Y-60014833D01*
X73953117Y-59671057D01*
X73690327Y-59407808D01*
X73346799Y-59265162D01*
X72974833Y-59264838D01*
X72631057Y-59406883D01*
X72552804Y-59485000D01*
X71830000Y-59485000D01*
X71556381Y-59539426D01*
X71342718Y-59682192D01*
X71324419Y-59694419D01*
X70803838Y-60215000D01*
X67096163Y-60215000D01*
X66945000Y-60063838D01*
X66945000Y-58930000D01*
X66901064Y-58709116D01*
X74589686Y-58714758D01*
X74589686Y-58714758D01*
G37*
X74589686Y-58714758D02*
X74883995Y-59060137D01*
X74883838Y-59240167D01*
X75025883Y-59583943D01*
X75288673Y-59847192D01*
X75632201Y-59989838D01*
X76004167Y-59990162D01*
X76347943Y-59848117D01*
X76447536Y-59748698D01*
X77314419Y-60615581D01*
X77546381Y-60770574D01*
X77798308Y-60820685D01*
X77879673Y-60902192D01*
X78022839Y-60961640D01*
X77885162Y-61293201D01*
X77884838Y-61665167D01*
X78026883Y-62008943D01*
X78289673Y-62272192D01*
X78314936Y-62282682D01*
X78314877Y-62350448D01*
X78193619Y-62269426D01*
X77920000Y-62215000D01*
X77077297Y-62215000D01*
X76950327Y-62087808D01*
X76606799Y-61945162D01*
X76234833Y-61944838D01*
X75891057Y-62086883D01*
X75812804Y-62165000D01*
X73019538Y-62165000D01*
X72993117Y-62101057D01*
X72730327Y-61837808D01*
X72386799Y-61695162D01*
X72014833Y-61694838D01*
X71805070Y-61781510D01*
X71805070Y-61236092D01*
X72126162Y-60915000D01*
X72552616Y-60915000D01*
X72629673Y-60992192D01*
X72973201Y-61134838D01*
X73345167Y-61135162D01*
X73688943Y-60993117D01*
X73952192Y-60730327D01*
X74094838Y-60386799D01*
X74095162Y-60014833D01*
X73953117Y-59671057D01*
X73690327Y-59407808D01*
X73346799Y-59265162D01*
X72974833Y-59264838D01*
X72631057Y-59406883D01*
X72552804Y-59485000D01*
X71830000Y-59485000D01*
X71556381Y-59539426D01*
X71342718Y-59682192D01*
X71324419Y-59694419D01*
X70803838Y-60215000D01*
X67096163Y-60215000D01*
X66945000Y-60063838D01*
X66945000Y-58930000D01*
X66901064Y-58709116D01*
X74589686Y-58714758D01*
G36*
X61239673Y-59432192D02*
X61583201Y-59574838D01*
X61955167Y-59575162D01*
X62153454Y-59493232D01*
X62145162Y-59513201D01*
X62144889Y-59826863D01*
X62119699Y-59801673D01*
X61886310Y-59705000D01*
X61595750Y-59705000D01*
X61437000Y-59863750D01*
X61437000Y-60465000D01*
X61457000Y-60465000D01*
X61457000Y-60715000D01*
X61437000Y-60715000D01*
X61437000Y-60737000D01*
X61183000Y-60737000D01*
X61183000Y-60715000D01*
X61163000Y-60715000D01*
X61163000Y-60465000D01*
X61183000Y-60465000D01*
X61183000Y-59863750D01*
X61024250Y-59705000D01*
X60733690Y-59705000D01*
X60720839Y-59710323D01*
X61076162Y-59355000D01*
X61162616Y-59355000D01*
X61239673Y-59432192D01*
X61239673Y-59432192D01*
G37*
X61239673Y-59432192D02*
X61583201Y-59574838D01*
X61955167Y-59575162D01*
X62153454Y-59493232D01*
X62145162Y-59513201D01*
X62144889Y-59826863D01*
X62119699Y-59801673D01*
X61886310Y-59705000D01*
X61595750Y-59705000D01*
X61437000Y-59863750D01*
X61437000Y-60465000D01*
X61457000Y-60465000D01*
X61457000Y-60715000D01*
X61437000Y-60715000D01*
X61437000Y-60737000D01*
X61183000Y-60737000D01*
X61183000Y-60715000D01*
X61163000Y-60715000D01*
X61163000Y-60465000D01*
X61183000Y-60465000D01*
X61183000Y-59863750D01*
X61024250Y-59705000D01*
X60733690Y-59705000D01*
X60720839Y-59710323D01*
X61076162Y-59355000D01*
X61162616Y-59355000D01*
X61239673Y-59432192D01*
M02*
