M48
;DRILL file {Pcbnew (2013-07-07 BZR 4022)-stable} date 9/14/2015 5:12:52 PM
;FORMAT={-:-/ absolute / inch / decimal}
FMAT,2
INCH,TZ
T1C0.025
T2C0.030
T3C0.032
T4C0.040
%
G90
G05
M72
T1
X2.7138Y-2.7306
X2.7805Y-2.4432
X2.8455Y-2.9762
X2.9032Y-2.6824
X2.914Y-2.7378
X3.0288Y-3.496
X3.0477Y-2.2245
X3.0661Y-3.2309
X3.0875Y-2.472
X3.1417Y-2.3714
X3.1555Y-2.6113
X3.1605Y-2.6932
X3.2275Y-1.8652
X3.229Y-3.1698
X3.2295Y-2.1812
X3.2425Y-2.249
X3.2525Y-2.8402
X3.2775Y-1.9632
X3.3053Y-3.4768
X3.3116Y-2.7788
X3.3571Y-2.2811
X3.359Y-3.1652
X3.3757Y-3.3799
X3.3907Y-2.7837
X3.4215Y-2.2272
X3.4348Y-3.4634
X3.445Y-3.5779
X3.4837Y-3.4006
X3.4915Y-3.1553
X3.4945Y-2.3662
X3.5195Y-2.5968
X3.5776Y-2.0831
X3.6399Y-2.1355
X3.7649Y-3.1113
X3.8072Y-2.1355
X3.8107Y-2.0865
X3.9325Y-2.1719
X4.0039Y-2.6063
X4.0948Y-2.7729
X4.1295Y-2.2272
T2
X3.828Y-3.3217
X4.028Y-3.3217
T3
X3.7305Y-2.3443
X3.7305Y-2.5443
X4.0305Y-2.3443
X4.0305Y-2.5443
T4
X2.763Y-2.0917
X2.863Y-2.0917
X2.963Y-2.0917
X3.063Y-2.0917
X3.2291Y-1.998
X3.2291Y-2.098
X3.3291Y-1.998
X3.3291Y-2.098
X3.4291Y-1.998
X3.4291Y-2.098
X3.8339Y-2.8811
X3.8362Y-2.7677
X3.837Y-2.9929
X3.8374Y-3.1067
X3.8386Y-2.6579
X3.9339Y-2.8811
X3.9362Y-2.7677
X3.937Y-2.9929
X3.9374Y-3.1067
X3.9386Y-2.6579
X4.0339Y-2.8811
X4.0362Y-2.7677
X4.037Y-2.9929
X4.0374Y-3.1067
X4.0386Y-2.6579
T0
M30
