M48
;DRILL file {Pcbnew (2013-07-07 BZR 4022)-stable} date 12/31/2015 9:21:24 AM
;FORMAT={-:-/ absolute / inch / decimal}
FMAT,2
INCH,TZ
T1C0.025
T2C0.030
T3C0.032
T4C0.040
%
G90
G05
M72
T1
X4.2881Y-3.6702
X4.2919Y-3.7535
X4.3022Y-3.3634
X4.3081Y-2.7488
X4.3188Y-2.5416
X4.358Y-3.2304
X4.3671Y-2.748
X4.4518Y-2.9483
X4.4715Y-2.5767
X4.4785Y-3.3256
X4.5064Y-3.2766
X4.514Y-3.0575
X4.538Y-3.7539
X4.5513Y-2.7812
X4.5695Y-3.0429
X4.5945Y-2.8377
X4.6048Y-2.9781
X4.6128Y-3.2624
X4.6318Y-3.1765
X4.636Y-3.7867
X4.6576Y-3.2542
X4.658Y-2.8399
X4.7148Y-2.6964
X4.7935Y-3.2732
X4.8Y-2.6404
X4.819Y-2.4583
X4.821Y-3.4674
X4.8329Y-2.5604
X4.8722Y-3.3007
X4.8944Y-3.9445
X4.898Y-3.7274
X4.932Y-3.8294
X4.96Y-3.3767
X5.0691Y-3.6259
X5.083Y-3.828
X5.1872Y-3.6836
X5.206Y-2.7664
X5.2659Y-2.5294
X5.3065Y-3.3774
X5.4628Y-3.0309
X5.5809Y-2.9864
T2
X5.4415Y-3.9544
X5.6415Y-3.9544
T3
X5.3152Y-2.5764
X5.3152Y-2.7764
X5.6152Y-2.5764
X5.6152Y-2.7764
T4
X4.2711Y-2.663
X4.3711Y-2.663
X4.4711Y-2.663
X4.5711Y-2.663
X4.911Y-4.023
X4.9419Y-2.5767
X4.9419Y-2.6767
X5.011Y-4.023
X5.0419Y-2.5767
X5.0419Y-2.6767
X5.111Y-4.023
X5.1419Y-2.5767
X5.1419Y-2.6767
X5.211Y-4.023
X5.4132Y-3.6602
X5.4132Y-3.7736
X5.414Y-3.4374
X5.414Y-3.5488
X5.4159Y-3.3264
X5.5132Y-3.6602
X5.5132Y-3.7736
X5.514Y-3.4374
X5.514Y-3.5488
X5.5159Y-3.3264
X5.6132Y-3.6602
X5.6132Y-3.7736
X5.614Y-3.4374
X5.614Y-3.5488
X5.6159Y-3.3264
T0
M30
