G04 MADE WITH FRITZING*
G04 WWW.FRITZING.ORG*
G04 DOUBLE SIDED*
G04 HOLES PLATED*
G04 CONTOUR ON CENTER OF CONTOUR VECTOR*
%ASAXBY*%
%FSLAX23Y23*%
%MOIN*%
%OFA0B0*%
%SFA1.0B1.0*%
%ADD10C,0.075000*%
%ADD11C,0.078000*%
%ADD12C,0.039370*%
%ADD13R,0.078000X0.078000*%
%ADD14R,0.031496X0.035433*%
%ADD15R,0.047244X0.043307*%
%ADD16R,0.031496X0.011811*%
%ADD17R,0.011811X0.031496*%
%ADD18R,0.048000X0.088000*%
%ADD19R,0.141732X0.086614*%
%ADD20R,0.043307X0.039370*%
%ADD21R,0.027542X0.007875*%
%ADD22R,0.027542X0.007861*%
%ADD23R,0.027542X0.007847*%
%ADD24R,0.027556X0.007875*%
%ADD25R,0.027556X0.007861*%
%ADD26R,0.027556X0.007847*%
%ADD27C,0.016000*%
%ADD28C,0.024000*%
%ADD29C,0.008000*%
%ADD30C,0.012000*%
%LNCOPPER1*%
G90*
G70*
G54D10*
X641Y1089D03*
X759Y1229D03*
X580Y805D03*
X107Y646D03*
X1254Y297D03*
X119Y99D03*
X343Y1412D03*
X1034Y668D03*
G54D11*
X1334Y1216D03*
X1334Y1116D03*
X1336Y448D03*
X1336Y348D03*
X190Y1218D03*
X190Y1118D03*
X122Y503D03*
X122Y403D03*
G54D12*
X1336Y1311D03*
X1170Y278D03*
X1246Y896D03*
X873Y121D03*
X1248Y158D03*
X104Y966D03*
X58Y327D03*
X197Y508D03*
X315Y425D03*
X149Y1517D03*
X1108Y1242D03*
X269Y1378D03*
X272Y1014D03*
X1138Y1091D03*
X1007Y1548D03*
X59Y563D03*
G54D11*
X754Y167D03*
X654Y167D03*
G54D12*
X849Y785D03*
X741Y725D03*
X566Y901D03*
X953Y628D03*
X1343Y712D03*
X1202Y169D03*
G54D13*
X1334Y1216D03*
X1336Y448D03*
X190Y1218D03*
X122Y503D03*
G54D14*
X205Y265D03*
X130Y265D03*
X167Y183D03*
X228Y961D03*
X153Y961D03*
X190Y879D03*
X1374Y196D03*
X1300Y196D03*
X1337Y113D03*
X1381Y952D03*
X1306Y952D03*
X1344Y870D03*
G54D15*
X150Y747D03*
X217Y747D03*
X149Y1435D03*
X216Y1435D03*
X1304Y616D03*
X1371Y616D03*
X1303Y1433D03*
X1370Y1433D03*
G54D16*
X565Y1117D03*
X723Y1058D03*
X723Y1137D03*
X565Y1098D03*
G54D17*
X634Y1167D03*
G54D16*
X565Y1078D03*
X723Y1098D03*
X565Y1058D03*
G54D17*
X673Y1167D03*
G54D16*
X565Y1039D03*
G54D17*
X595Y1167D03*
X595Y1009D03*
G54D16*
X723Y1078D03*
G54D17*
X614Y1009D03*
G54D16*
X723Y1117D03*
G54D17*
X634Y1009D03*
X693Y1167D03*
X654Y1009D03*
X654Y1167D03*
X673Y1009D03*
X614Y1167D03*
X693Y1009D03*
G54D16*
X723Y1039D03*
X565Y1137D03*
G54D18*
X954Y167D03*
X1045Y167D03*
X1136Y167D03*
G54D19*
X1045Y411D03*
G54D20*
X456Y671D03*
X523Y671D03*
X822Y674D03*
X756Y674D03*
X605Y671D03*
X672Y671D03*
G54D21*
X1054Y741D03*
X1054Y757D03*
G54D22*
X1054Y773D03*
X1054Y789D03*
G54D21*
X1054Y804D03*
G54D22*
X1054Y820D03*
X1054Y836D03*
G54D23*
X1054Y852D03*
X1054Y867D03*
G54D22*
X1054Y883D03*
X1054Y899D03*
G54D23*
X1054Y915D03*
G54D22*
X1054Y930D03*
G54D21*
X1054Y946D03*
X1054Y962D03*
X1054Y978D03*
G54D22*
X1054Y993D03*
X1054Y1009D03*
G54D21*
X1054Y1025D03*
X1054Y1041D03*
G54D22*
X1054Y1056D03*
G54D23*
X1054Y1072D03*
X1054Y1088D03*
G54D22*
X1054Y1104D03*
X1054Y1119D03*
X1054Y1135D03*
G54D23*
X1054Y1151D03*
G54D21*
X1054Y1167D03*
X1054Y1182D03*
X1054Y1198D03*
G54D22*
X1054Y1214D03*
X1054Y1230D03*
G54D21*
X1054Y1245D03*
X1054Y1261D03*
G54D22*
X1054Y1277D03*
G54D24*
X1176Y741D03*
X1176Y757D03*
G54D25*
X1176Y773D03*
X1176Y789D03*
G54D24*
X1176Y804D03*
G54D25*
X1176Y820D03*
X1176Y836D03*
G54D26*
X1176Y852D03*
X1176Y867D03*
G54D25*
X1176Y883D03*
X1176Y899D03*
G54D26*
X1176Y915D03*
G54D25*
X1176Y930D03*
G54D24*
X1176Y946D03*
X1176Y962D03*
X1176Y978D03*
G54D25*
X1176Y993D03*
X1176Y1009D03*
G54D24*
X1176Y1025D03*
X1176Y1041D03*
G54D25*
X1176Y1056D03*
G54D26*
X1176Y1072D03*
X1176Y1088D03*
G54D25*
X1176Y1104D03*
X1176Y1119D03*
X1176Y1135D03*
G54D26*
X1176Y1151D03*
G54D24*
X1176Y1167D03*
X1176Y1182D03*
X1176Y1198D03*
G54D25*
X1176Y1214D03*
X1176Y1230D03*
G54D24*
X1176Y1245D03*
X1176Y1261D03*
G54D25*
X1176Y1277D03*
G54D27*
X1227Y448D02*
X1311Y448D01*
D02*
X1174Y390D02*
X1227Y448D01*
D02*
X1170Y292D02*
X1174Y390D01*
D02*
X1246Y910D02*
X1248Y951D01*
D02*
X1248Y951D02*
X1296Y952D01*
D02*
X1159Y270D02*
X1135Y252D01*
D02*
X1135Y252D02*
X1135Y205D01*
D02*
X1335Y1240D02*
X1335Y1297D01*
D02*
X169Y330D02*
X167Y195D01*
D02*
X135Y382D02*
X169Y330D01*
D02*
X316Y438D02*
X326Y1222D01*
D02*
X326Y1222D02*
X215Y1219D01*
D02*
X634Y181D02*
X326Y417D01*
D02*
X68Y318D02*
X120Y274D01*
D02*
X118Y965D02*
X143Y962D01*
D02*
X190Y891D02*
X192Y999D01*
D02*
X192Y999D02*
X190Y1093D01*
D02*
X1259Y166D02*
X1289Y188D01*
D02*
X935Y156D02*
X884Y127D01*
D02*
X1336Y323D02*
X1337Y125D01*
G54D28*
D02*
X178Y506D02*
X152Y505D01*
G54D29*
D02*
X1138Y1009D02*
X1118Y971D01*
D02*
X1404Y249D02*
X1381Y208D01*
D02*
X1399Y561D02*
X1404Y249D01*
D02*
X1380Y600D02*
X1399Y561D01*
D02*
X1122Y644D02*
X1142Y622D01*
D02*
X1118Y971D02*
X1122Y644D01*
D02*
X1142Y622D02*
X1286Y617D01*
D02*
X1168Y1009D02*
X1138Y1009D01*
D02*
X149Y1504D02*
X149Y1451D01*
D02*
X1095Y1214D02*
X1098Y1061D01*
D02*
X1098Y1061D02*
X1118Y1028D01*
D02*
X1102Y1230D02*
X1095Y1214D01*
D02*
X1118Y1028D02*
X1168Y1025D01*
D02*
X1109Y1271D02*
X1108Y1242D01*
D02*
X1140Y1042D02*
X1138Y1078D01*
D02*
X967Y1565D02*
X113Y1562D01*
D02*
X994Y1553D02*
X967Y1565D01*
D02*
X63Y1489D02*
X62Y783D01*
D02*
X62Y783D02*
X82Y749D01*
D02*
X113Y1562D02*
X63Y1489D01*
D02*
X82Y749D02*
X132Y747D01*
D02*
X1168Y1041D02*
X1140Y1042D01*
D02*
X264Y1004D02*
X238Y973D01*
D02*
X231Y1418D02*
X260Y1388D01*
D02*
X244Y298D02*
X215Y274D01*
D02*
X249Y704D02*
X244Y298D01*
D02*
X229Y731D02*
X249Y704D01*
D02*
X894Y597D02*
X897Y294D01*
D02*
X897Y294D02*
X1026Y182D01*
D02*
X1000Y833D02*
X953Y679D01*
D02*
X953Y679D02*
X839Y674D01*
D02*
X836Y660D02*
X894Y597D01*
D02*
X1046Y835D02*
X1000Y833D01*
D02*
X1216Y1058D02*
X1235Y1077D01*
D02*
X1217Y1100D02*
X1204Y1076D01*
D02*
X1184Y1316D02*
X1216Y1278D01*
D02*
X1202Y1354D02*
X618Y1352D01*
D02*
X1241Y1298D02*
X1202Y1354D01*
D02*
X615Y1292D02*
X639Y1320D01*
D02*
X618Y1352D02*
X594Y1317D01*
D02*
X1204Y1076D02*
X1184Y1073D01*
D02*
X1216Y1278D02*
X1217Y1100D01*
D02*
X1235Y1077D02*
X1241Y1298D01*
D02*
X614Y1177D02*
X615Y1292D01*
D02*
X639Y1320D02*
X1184Y1316D01*
D02*
X594Y1317D02*
X595Y1167D01*
D02*
X1184Y1057D02*
X1216Y1058D01*
D02*
X574Y912D02*
X592Y938D01*
D02*
X457Y769D02*
X558Y891D01*
D02*
X633Y989D02*
X634Y1004D01*
D02*
X592Y938D02*
X633Y989D01*
D02*
X456Y685D02*
X457Y769D01*
G54D27*
D02*
X1128Y128D02*
X1116Y66D01*
D02*
X695Y66D02*
X669Y125D01*
G54D29*
D02*
X657Y713D02*
X633Y713D01*
D02*
X657Y989D02*
X657Y713D01*
D02*
X654Y1007D02*
X657Y989D01*
G54D27*
D02*
X669Y125D02*
X662Y143D01*
D02*
X1116Y66D02*
X695Y66D01*
G54D29*
D02*
X633Y713D02*
X614Y685D01*
D02*
X723Y1038D02*
X801Y689D01*
D02*
X801Y689D02*
X806Y685D01*
G54D30*
D02*
X739Y673D02*
X688Y672D01*
G54D29*
D02*
X561Y629D02*
X645Y629D01*
D02*
X536Y656D02*
X561Y629D01*
D02*
X732Y1137D02*
X784Y1135D01*
D02*
X784Y1135D02*
X836Y882D01*
D02*
X836Y882D02*
X845Y824D01*
D02*
X845Y824D02*
X847Y798D01*
D02*
X645Y629D02*
X663Y657D01*
G54D30*
D02*
X744Y712D02*
X751Y688D01*
G54D27*
D02*
X1343Y725D02*
X1343Y858D01*
G54D29*
D02*
X1402Y949D02*
X1391Y951D01*
D02*
X1413Y1374D02*
X1402Y949D01*
D02*
X1382Y1417D02*
X1413Y1374D01*
D02*
X1265Y1371D02*
X1261Y1023D01*
D02*
X1225Y995D02*
X1184Y994D01*
D02*
X1261Y1023D02*
X1225Y995D01*
D02*
X1293Y1417D02*
X1265Y1371D01*
G54D27*
D02*
X778Y167D02*
X935Y167D01*
G54D29*
D02*
X956Y641D02*
X1012Y820D01*
D02*
X1012Y820D02*
X1046Y820D01*
G36*
X40Y1562D02*
X40Y1508D01*
X60Y1508D01*
X60Y1512D01*
X62Y1512D01*
X62Y1514D01*
X64Y1514D01*
X64Y1516D01*
X66Y1516D01*
X66Y1520D01*
X68Y1520D01*
X68Y1522D01*
X70Y1522D01*
X70Y1526D01*
X72Y1526D01*
X72Y1528D01*
X74Y1528D01*
X74Y1532D01*
X76Y1532D01*
X76Y1534D01*
X78Y1534D01*
X78Y1538D01*
X80Y1538D01*
X80Y1540D01*
X82Y1540D01*
X82Y1562D01*
X40Y1562D01*
G37*
D02*
G36*
X1300Y1402D02*
X1300Y1400D01*
X1298Y1400D01*
X1298Y1396D01*
X1296Y1396D01*
X1296Y1394D01*
X1294Y1394D01*
X1294Y1390D01*
X1292Y1390D01*
X1292Y1386D01*
X1290Y1386D01*
X1290Y1384D01*
X1288Y1384D01*
X1288Y1380D01*
X1286Y1380D01*
X1286Y1376D01*
X1284Y1376D01*
X1284Y1374D01*
X1282Y1374D01*
X1282Y1370D01*
X1280Y1370D01*
X1280Y1366D01*
X1278Y1366D01*
X1278Y1340D01*
X1342Y1340D01*
X1342Y1338D01*
X1346Y1338D01*
X1346Y1336D01*
X1350Y1336D01*
X1350Y1334D01*
X1352Y1334D01*
X1352Y1332D01*
X1354Y1332D01*
X1354Y1330D01*
X1356Y1330D01*
X1356Y1328D01*
X1358Y1328D01*
X1358Y1326D01*
X1360Y1326D01*
X1360Y1324D01*
X1362Y1324D01*
X1362Y1320D01*
X1364Y1320D01*
X1364Y1312D01*
X1366Y1312D01*
X1366Y1308D01*
X1364Y1308D01*
X1364Y1300D01*
X1362Y1300D01*
X1362Y1296D01*
X1360Y1296D01*
X1360Y1294D01*
X1358Y1294D01*
X1358Y1292D01*
X1356Y1292D01*
X1356Y1290D01*
X1354Y1290D01*
X1354Y1264D01*
X1396Y1264D01*
X1396Y1282D01*
X1398Y1282D01*
X1398Y1372D01*
X1396Y1372D01*
X1396Y1374D01*
X1394Y1374D01*
X1394Y1378D01*
X1392Y1378D01*
X1392Y1380D01*
X1390Y1380D01*
X1390Y1384D01*
X1388Y1384D01*
X1388Y1386D01*
X1386Y1386D01*
X1386Y1388D01*
X1384Y1388D01*
X1384Y1392D01*
X1382Y1392D01*
X1382Y1394D01*
X1380Y1394D01*
X1380Y1396D01*
X1378Y1396D01*
X1378Y1400D01*
X1376Y1400D01*
X1376Y1402D01*
X1300Y1402D01*
G37*
D02*
G36*
X1278Y1340D02*
X1278Y1264D01*
X1316Y1264D01*
X1316Y1266D01*
X1318Y1266D01*
X1318Y1288D01*
X1316Y1288D01*
X1316Y1290D01*
X1314Y1290D01*
X1314Y1292D01*
X1312Y1292D01*
X1312Y1296D01*
X1310Y1296D01*
X1310Y1298D01*
X1308Y1298D01*
X1308Y1304D01*
X1306Y1304D01*
X1306Y1316D01*
X1308Y1316D01*
X1308Y1322D01*
X1310Y1322D01*
X1310Y1326D01*
X1312Y1326D01*
X1312Y1328D01*
X1314Y1328D01*
X1314Y1330D01*
X1316Y1330D01*
X1316Y1332D01*
X1318Y1332D01*
X1318Y1334D01*
X1322Y1334D01*
X1322Y1336D01*
X1324Y1336D01*
X1324Y1338D01*
X1330Y1338D01*
X1330Y1340D01*
X1278Y1340D01*
G37*
D02*
G36*
X1132Y1228D02*
X1132Y1226D01*
X1130Y1226D01*
X1130Y1222D01*
X1128Y1222D01*
X1128Y1220D01*
X1124Y1220D01*
X1124Y1218D01*
X1122Y1218D01*
X1122Y1216D01*
X1118Y1216D01*
X1118Y1214D01*
X1114Y1214D01*
X1114Y1212D01*
X1110Y1212D01*
X1110Y1118D01*
X1130Y1118D01*
X1130Y1120D01*
X1152Y1120D01*
X1152Y1228D01*
X1132Y1228D01*
G37*
D02*
G36*
X240Y1202D02*
X240Y1170D01*
X238Y1170D01*
X238Y1168D01*
X226Y1168D01*
X226Y1148D01*
X228Y1148D01*
X228Y1144D01*
X230Y1144D01*
X230Y1142D01*
X232Y1142D01*
X232Y1138D01*
X234Y1138D01*
X234Y1136D01*
X236Y1136D01*
X236Y1130D01*
X238Y1130D01*
X238Y1118D01*
X240Y1118D01*
X240Y1116D01*
X238Y1116D01*
X238Y1106D01*
X236Y1106D01*
X236Y1100D01*
X234Y1100D01*
X234Y1096D01*
X232Y1096D01*
X232Y1094D01*
X230Y1094D01*
X230Y1090D01*
X228Y1090D01*
X228Y1088D01*
X226Y1088D01*
X226Y1086D01*
X224Y1086D01*
X224Y1084D01*
X222Y1084D01*
X222Y1082D01*
X220Y1082D01*
X220Y1080D01*
X218Y1080D01*
X218Y1078D01*
X216Y1078D01*
X216Y1076D01*
X212Y1076D01*
X212Y1074D01*
X208Y1074D01*
X208Y1050D01*
X210Y1050D01*
X210Y1044D01*
X278Y1044D01*
X278Y1042D01*
X284Y1042D01*
X284Y1040D01*
X286Y1040D01*
X286Y1038D01*
X306Y1038D01*
X306Y1178D01*
X308Y1178D01*
X308Y1202D01*
X240Y1202D01*
G37*
D02*
G36*
X210Y1044D02*
X210Y988D01*
X232Y988D01*
X232Y990D01*
X234Y990D01*
X234Y992D01*
X236Y992D01*
X236Y994D01*
X238Y994D01*
X238Y996D01*
X240Y996D01*
X240Y998D01*
X242Y998D01*
X242Y1016D01*
X244Y1016D01*
X244Y1024D01*
X246Y1024D01*
X246Y1028D01*
X248Y1028D01*
X248Y1030D01*
X250Y1030D01*
X250Y1032D01*
X252Y1032D01*
X252Y1034D01*
X254Y1034D01*
X254Y1036D01*
X256Y1036D01*
X256Y1038D01*
X258Y1038D01*
X258Y1040D01*
X262Y1040D01*
X262Y1042D01*
X266Y1042D01*
X266Y1044D01*
X210Y1044D01*
G37*
D02*
G36*
X590Y1140D02*
X590Y1034D01*
X696Y1034D01*
X696Y1140D01*
X590Y1140D01*
G37*
D02*
G36*
X644Y1306D02*
X644Y1302D01*
X642Y1302D01*
X642Y1300D01*
X640Y1300D01*
X640Y1298D01*
X638Y1298D01*
X638Y1296D01*
X636Y1296D01*
X636Y1294D01*
X634Y1294D01*
X634Y1292D01*
X632Y1292D01*
X632Y1290D01*
X630Y1290D01*
X630Y1286D01*
X628Y1286D01*
X628Y1192D01*
X710Y1192D01*
X710Y1152D01*
X748Y1152D01*
X748Y1150D01*
X768Y1150D01*
X768Y1148D01*
X790Y1148D01*
X790Y1146D01*
X794Y1146D01*
X794Y1144D01*
X796Y1144D01*
X796Y1140D01*
X798Y1140D01*
X798Y1132D01*
X800Y1132D01*
X800Y1122D01*
X802Y1122D01*
X802Y1112D01*
X804Y1112D01*
X804Y1102D01*
X806Y1102D01*
X806Y1092D01*
X808Y1092D01*
X808Y1082D01*
X810Y1082D01*
X810Y1074D01*
X812Y1074D01*
X812Y1064D01*
X814Y1064D01*
X814Y1054D01*
X816Y1054D01*
X816Y1044D01*
X818Y1044D01*
X818Y1034D01*
X820Y1034D01*
X820Y1024D01*
X822Y1024D01*
X822Y1014D01*
X824Y1014D01*
X824Y1004D01*
X826Y1004D01*
X826Y994D01*
X828Y994D01*
X828Y984D01*
X830Y984D01*
X830Y974D01*
X832Y974D01*
X832Y966D01*
X834Y966D01*
X834Y956D01*
X836Y956D01*
X836Y946D01*
X838Y946D01*
X838Y936D01*
X840Y936D01*
X840Y926D01*
X842Y926D01*
X842Y916D01*
X844Y916D01*
X844Y906D01*
X846Y906D01*
X846Y896D01*
X848Y896D01*
X848Y886D01*
X850Y886D01*
X850Y874D01*
X852Y874D01*
X852Y862D01*
X854Y862D01*
X854Y848D01*
X856Y848D01*
X856Y836D01*
X858Y836D01*
X858Y822D01*
X860Y822D01*
X860Y810D01*
X864Y810D01*
X864Y808D01*
X866Y808D01*
X866Y806D01*
X868Y806D01*
X868Y804D01*
X870Y804D01*
X870Y802D01*
X872Y802D01*
X872Y800D01*
X874Y800D01*
X874Y796D01*
X876Y796D01*
X876Y792D01*
X878Y792D01*
X878Y778D01*
X876Y778D01*
X876Y772D01*
X874Y772D01*
X874Y770D01*
X872Y770D01*
X872Y768D01*
X870Y768D01*
X870Y764D01*
X866Y764D01*
X866Y762D01*
X864Y762D01*
X864Y760D01*
X862Y760D01*
X862Y758D01*
X858Y758D01*
X858Y756D01*
X962Y756D01*
X962Y760D01*
X964Y760D01*
X964Y766D01*
X966Y766D01*
X966Y774D01*
X968Y774D01*
X968Y780D01*
X970Y780D01*
X970Y786D01*
X972Y786D01*
X972Y792D01*
X974Y792D01*
X974Y800D01*
X976Y800D01*
X976Y806D01*
X978Y806D01*
X978Y812D01*
X980Y812D01*
X980Y820D01*
X982Y820D01*
X982Y826D01*
X984Y826D01*
X984Y832D01*
X986Y832D01*
X986Y838D01*
X988Y838D01*
X988Y842D01*
X990Y842D01*
X990Y844D01*
X994Y844D01*
X994Y846D01*
X1010Y846D01*
X1010Y848D01*
X1030Y848D01*
X1030Y1302D01*
X984Y1302D01*
X984Y1304D01*
X754Y1304D01*
X754Y1306D01*
X644Y1306D01*
G37*
D02*
G36*
X748Y1120D02*
X748Y1022D01*
X744Y1022D01*
X744Y1002D01*
X746Y1002D01*
X746Y994D01*
X748Y994D01*
X748Y984D01*
X750Y984D01*
X750Y976D01*
X752Y976D01*
X752Y966D01*
X754Y966D01*
X754Y958D01*
X756Y958D01*
X756Y948D01*
X758Y948D01*
X758Y940D01*
X760Y940D01*
X760Y930D01*
X762Y930D01*
X762Y922D01*
X764Y922D01*
X764Y912D01*
X766Y912D01*
X766Y904D01*
X768Y904D01*
X768Y894D01*
X770Y894D01*
X770Y886D01*
X772Y886D01*
X772Y876D01*
X774Y876D01*
X774Y868D01*
X776Y868D01*
X776Y858D01*
X778Y858D01*
X778Y850D01*
X780Y850D01*
X780Y840D01*
X782Y840D01*
X782Y832D01*
X784Y832D01*
X784Y824D01*
X786Y824D01*
X786Y814D01*
X788Y814D01*
X788Y806D01*
X790Y806D01*
X790Y796D01*
X792Y796D01*
X792Y788D01*
X794Y788D01*
X794Y778D01*
X796Y778D01*
X796Y770D01*
X798Y770D01*
X798Y760D01*
X800Y760D01*
X800Y756D01*
X840Y756D01*
X840Y758D01*
X836Y758D01*
X836Y760D01*
X832Y760D01*
X832Y762D01*
X830Y762D01*
X830Y764D01*
X828Y764D01*
X828Y766D01*
X826Y766D01*
X826Y768D01*
X824Y768D01*
X824Y772D01*
X822Y772D01*
X822Y776D01*
X820Y776D01*
X820Y784D01*
X818Y784D01*
X818Y786D01*
X820Y786D01*
X820Y794D01*
X822Y794D01*
X822Y798D01*
X824Y798D01*
X824Y800D01*
X826Y800D01*
X826Y804D01*
X828Y804D01*
X828Y806D01*
X830Y806D01*
X830Y834D01*
X828Y834D01*
X828Y846D01*
X826Y846D01*
X826Y860D01*
X824Y860D01*
X824Y872D01*
X822Y872D01*
X822Y884D01*
X820Y884D01*
X820Y894D01*
X818Y894D01*
X818Y904D01*
X816Y904D01*
X816Y914D01*
X814Y914D01*
X814Y922D01*
X812Y922D01*
X812Y932D01*
X810Y932D01*
X810Y942D01*
X808Y942D01*
X808Y952D01*
X806Y952D01*
X806Y962D01*
X804Y962D01*
X804Y972D01*
X802Y972D01*
X802Y982D01*
X800Y982D01*
X800Y992D01*
X798Y992D01*
X798Y1002D01*
X796Y1002D01*
X796Y1012D01*
X794Y1012D01*
X794Y1022D01*
X792Y1022D01*
X792Y1030D01*
X790Y1030D01*
X790Y1040D01*
X788Y1040D01*
X788Y1050D01*
X786Y1050D01*
X786Y1060D01*
X784Y1060D01*
X784Y1070D01*
X782Y1070D01*
X782Y1080D01*
X780Y1080D01*
X780Y1090D01*
X778Y1090D01*
X778Y1100D01*
X776Y1100D01*
X776Y1110D01*
X774Y1110D01*
X774Y1120D01*
X748Y1120D01*
G37*
D02*
G36*
X800Y756D02*
X800Y754D01*
X962Y754D01*
X962Y756D01*
X800Y756D01*
G37*
D02*
G36*
X800Y756D02*
X800Y754D01*
X962Y754D01*
X962Y756D01*
X800Y756D01*
G37*
D02*
G36*
X800Y754D02*
X800Y752D01*
X802Y752D01*
X802Y742D01*
X804Y742D01*
X804Y734D01*
X806Y734D01*
X806Y724D01*
X808Y724D01*
X808Y716D01*
X810Y716D01*
X810Y706D01*
X812Y706D01*
X812Y704D01*
X854Y704D01*
X854Y690D01*
X918Y690D01*
X918Y692D01*
X942Y692D01*
X942Y694D01*
X944Y694D01*
X944Y700D01*
X946Y700D01*
X946Y708D01*
X948Y708D01*
X948Y714D01*
X950Y714D01*
X950Y720D01*
X952Y720D01*
X952Y728D01*
X954Y728D01*
X954Y734D01*
X956Y734D01*
X956Y740D01*
X958Y740D01*
X958Y746D01*
X960Y746D01*
X960Y754D01*
X800Y754D01*
G37*
D02*
G36*
X670Y984D02*
X670Y754D01*
X748Y754D01*
X748Y752D01*
X752Y752D01*
X752Y750D01*
X772Y750D01*
X772Y758D01*
X770Y758D01*
X770Y766D01*
X768Y766D01*
X768Y776D01*
X766Y776D01*
X766Y784D01*
X764Y784D01*
X764Y794D01*
X762Y794D01*
X762Y802D01*
X760Y802D01*
X760Y810D01*
X758Y810D01*
X758Y820D01*
X756Y820D01*
X756Y828D01*
X754Y828D01*
X754Y838D01*
X752Y838D01*
X752Y846D01*
X750Y846D01*
X750Y856D01*
X748Y856D01*
X748Y864D01*
X746Y864D01*
X746Y874D01*
X744Y874D01*
X744Y882D01*
X742Y882D01*
X742Y892D01*
X740Y892D01*
X740Y900D01*
X738Y900D01*
X738Y910D01*
X736Y910D01*
X736Y918D01*
X734Y918D01*
X734Y928D01*
X732Y928D01*
X732Y936D01*
X730Y936D01*
X730Y946D01*
X728Y946D01*
X728Y954D01*
X726Y954D01*
X726Y964D01*
X724Y964D01*
X724Y972D01*
X722Y972D01*
X722Y982D01*
X720Y982D01*
X720Y984D01*
X670Y984D01*
G37*
D02*
G36*
X670Y754D02*
X670Y700D01*
X718Y700D01*
X718Y708D01*
X716Y708D01*
X716Y712D01*
X714Y712D01*
X714Y716D01*
X712Y716D01*
X712Y724D01*
X710Y724D01*
X710Y726D01*
X712Y726D01*
X712Y734D01*
X714Y734D01*
X714Y738D01*
X716Y738D01*
X716Y740D01*
X718Y740D01*
X718Y744D01*
X720Y744D01*
X720Y746D01*
X722Y746D01*
X722Y748D01*
X726Y748D01*
X726Y750D01*
X728Y750D01*
X728Y752D01*
X734Y752D01*
X734Y754D01*
X670Y754D01*
G37*
D02*
G36*
X1132Y970D02*
X1132Y880D01*
X1152Y880D01*
X1152Y970D01*
X1132Y970D01*
G37*
D02*
G36*
X622Y954D02*
X622Y952D01*
X620Y952D01*
X620Y950D01*
X618Y950D01*
X618Y946D01*
X616Y946D01*
X616Y944D01*
X614Y944D01*
X614Y942D01*
X612Y942D01*
X612Y940D01*
X610Y940D01*
X610Y936D01*
X608Y936D01*
X608Y934D01*
X606Y934D01*
X606Y932D01*
X604Y932D01*
X604Y930D01*
X602Y930D01*
X602Y926D01*
X600Y926D01*
X600Y924D01*
X598Y924D01*
X598Y920D01*
X596Y920D01*
X596Y894D01*
X594Y894D01*
X594Y890D01*
X592Y890D01*
X592Y886D01*
X590Y886D01*
X590Y884D01*
X588Y884D01*
X588Y882D01*
X586Y882D01*
X586Y880D01*
X584Y880D01*
X584Y878D01*
X582Y878D01*
X582Y876D01*
X578Y876D01*
X578Y874D01*
X574Y874D01*
X574Y872D01*
X560Y872D01*
X560Y870D01*
X558Y870D01*
X558Y868D01*
X556Y868D01*
X556Y866D01*
X554Y866D01*
X554Y862D01*
X552Y862D01*
X552Y860D01*
X550Y860D01*
X550Y858D01*
X548Y858D01*
X548Y856D01*
X546Y856D01*
X546Y854D01*
X544Y854D01*
X544Y850D01*
X542Y850D01*
X542Y848D01*
X540Y848D01*
X540Y846D01*
X538Y846D01*
X538Y844D01*
X536Y844D01*
X536Y842D01*
X534Y842D01*
X534Y838D01*
X532Y838D01*
X532Y836D01*
X530Y836D01*
X530Y834D01*
X528Y834D01*
X528Y832D01*
X526Y832D01*
X526Y830D01*
X524Y830D01*
X524Y826D01*
X522Y826D01*
X522Y824D01*
X520Y824D01*
X520Y822D01*
X518Y822D01*
X518Y820D01*
X516Y820D01*
X516Y818D01*
X514Y818D01*
X514Y814D01*
X512Y814D01*
X512Y812D01*
X510Y812D01*
X510Y810D01*
X508Y810D01*
X508Y808D01*
X506Y808D01*
X506Y806D01*
X504Y806D01*
X504Y802D01*
X502Y802D01*
X502Y800D01*
X500Y800D01*
X500Y798D01*
X498Y798D01*
X498Y796D01*
X496Y796D01*
X496Y794D01*
X494Y794D01*
X494Y790D01*
X492Y790D01*
X492Y788D01*
X490Y788D01*
X490Y786D01*
X488Y786D01*
X488Y784D01*
X486Y784D01*
X486Y782D01*
X484Y782D01*
X484Y778D01*
X482Y778D01*
X482Y776D01*
X480Y776D01*
X480Y774D01*
X478Y774D01*
X478Y772D01*
X476Y772D01*
X476Y768D01*
X474Y768D01*
X474Y766D01*
X472Y766D01*
X472Y764D01*
X470Y764D01*
X470Y700D01*
X554Y700D01*
X554Y656D01*
X574Y656D01*
X574Y700D01*
X608Y700D01*
X608Y702D01*
X610Y702D01*
X610Y706D01*
X612Y706D01*
X612Y708D01*
X614Y708D01*
X614Y712D01*
X616Y712D01*
X616Y714D01*
X618Y714D01*
X618Y718D01*
X620Y718D01*
X620Y720D01*
X622Y720D01*
X622Y722D01*
X624Y722D01*
X624Y724D01*
X626Y724D01*
X626Y726D01*
X642Y726D01*
X642Y954D01*
X622Y954D01*
G37*
D02*
G36*
X40Y760D02*
X40Y592D01*
X66Y592D01*
X66Y590D01*
X70Y590D01*
X70Y588D01*
X74Y588D01*
X74Y586D01*
X76Y586D01*
X76Y584D01*
X78Y584D01*
X78Y582D01*
X80Y582D01*
X80Y580D01*
X82Y580D01*
X82Y578D01*
X84Y578D01*
X84Y574D01*
X86Y574D01*
X86Y570D01*
X88Y570D01*
X88Y552D01*
X170Y552D01*
X170Y550D01*
X172Y550D01*
X172Y536D01*
X206Y536D01*
X206Y534D01*
X210Y534D01*
X210Y532D01*
X232Y532D01*
X232Y566D01*
X234Y566D01*
X234Y702D01*
X232Y702D01*
X232Y704D01*
X230Y704D01*
X230Y706D01*
X228Y706D01*
X228Y710D01*
X226Y710D01*
X226Y712D01*
X224Y712D01*
X224Y714D01*
X116Y714D01*
X116Y734D01*
X78Y734D01*
X78Y736D01*
X74Y736D01*
X74Y738D01*
X72Y738D01*
X72Y740D01*
X70Y740D01*
X70Y742D01*
X68Y742D01*
X68Y746D01*
X66Y746D01*
X66Y748D01*
X64Y748D01*
X64Y752D01*
X62Y752D01*
X62Y756D01*
X60Y756D01*
X60Y760D01*
X40Y760D01*
G37*
D02*
G36*
X40Y534D02*
X40Y356D01*
X66Y356D01*
X66Y354D01*
X70Y354D01*
X70Y352D01*
X74Y352D01*
X74Y350D01*
X76Y350D01*
X76Y348D01*
X78Y348D01*
X78Y346D01*
X80Y346D01*
X80Y344D01*
X82Y344D01*
X82Y342D01*
X84Y342D01*
X84Y338D01*
X86Y338D01*
X86Y332D01*
X88Y332D01*
X88Y324D01*
X90Y324D01*
X90Y322D01*
X92Y322D01*
X92Y320D01*
X94Y320D01*
X94Y318D01*
X98Y318D01*
X98Y316D01*
X100Y316D01*
X100Y314D01*
X102Y314D01*
X102Y312D01*
X104Y312D01*
X104Y310D01*
X106Y310D01*
X106Y308D01*
X108Y308D01*
X108Y306D01*
X112Y306D01*
X112Y304D01*
X114Y304D01*
X114Y302D01*
X116Y302D01*
X116Y300D01*
X118Y300D01*
X118Y298D01*
X120Y298D01*
X120Y296D01*
X122Y296D01*
X122Y294D01*
X124Y294D01*
X124Y292D01*
X150Y292D01*
X150Y328D01*
X148Y328D01*
X148Y330D01*
X146Y330D01*
X146Y334D01*
X144Y334D01*
X144Y336D01*
X142Y336D01*
X142Y340D01*
X140Y340D01*
X140Y342D01*
X138Y342D01*
X138Y346D01*
X136Y346D01*
X136Y348D01*
X134Y348D01*
X134Y352D01*
X132Y352D01*
X132Y354D01*
X112Y354D01*
X112Y356D01*
X106Y356D01*
X106Y358D01*
X102Y358D01*
X102Y360D01*
X98Y360D01*
X98Y362D01*
X96Y362D01*
X96Y364D01*
X92Y364D01*
X92Y366D01*
X90Y366D01*
X90Y368D01*
X88Y368D01*
X88Y370D01*
X86Y370D01*
X86Y372D01*
X84Y372D01*
X84Y376D01*
X82Y376D01*
X82Y378D01*
X80Y378D01*
X80Y382D01*
X78Y382D01*
X78Y386D01*
X76Y386D01*
X76Y392D01*
X74Y392D01*
X74Y414D01*
X76Y414D01*
X76Y420D01*
X78Y420D01*
X78Y422D01*
X80Y422D01*
X80Y426D01*
X82Y426D01*
X82Y430D01*
X84Y430D01*
X84Y432D01*
X86Y432D01*
X86Y434D01*
X88Y434D01*
X88Y454D01*
X74Y454D01*
X74Y534D01*
X40Y534D01*
G37*
D02*
G36*
X212Y484D02*
X212Y482D01*
X210Y482D01*
X210Y480D01*
X204Y480D01*
X204Y478D01*
X172Y478D01*
X172Y454D01*
X156Y454D01*
X156Y434D01*
X158Y434D01*
X158Y432D01*
X160Y432D01*
X160Y430D01*
X162Y430D01*
X162Y426D01*
X164Y426D01*
X164Y424D01*
X166Y424D01*
X166Y420D01*
X168Y420D01*
X168Y414D01*
X170Y414D01*
X170Y404D01*
X172Y404D01*
X172Y400D01*
X170Y400D01*
X170Y390D01*
X168Y390D01*
X168Y362D01*
X170Y362D01*
X170Y360D01*
X172Y360D01*
X172Y356D01*
X174Y356D01*
X174Y354D01*
X176Y354D01*
X176Y350D01*
X178Y350D01*
X178Y346D01*
X180Y346D01*
X180Y344D01*
X182Y344D01*
X182Y340D01*
X184Y340D01*
X184Y338D01*
X186Y338D01*
X186Y292D01*
X216Y292D01*
X216Y294D01*
X218Y294D01*
X218Y296D01*
X222Y296D01*
X222Y298D01*
X224Y298D01*
X224Y300D01*
X226Y300D01*
X226Y302D01*
X228Y302D01*
X228Y304D01*
X230Y304D01*
X230Y402D01*
X232Y402D01*
X232Y484D01*
X212Y484D01*
G37*
D02*
G36*
X1234Y430D02*
X1234Y428D01*
X1232Y428D01*
X1232Y424D01*
X1230Y424D01*
X1230Y422D01*
X1228Y422D01*
X1228Y420D01*
X1226Y420D01*
X1226Y418D01*
X1224Y418D01*
X1224Y416D01*
X1222Y416D01*
X1222Y414D01*
X1220Y414D01*
X1220Y412D01*
X1218Y412D01*
X1218Y410D01*
X1216Y410D01*
X1216Y408D01*
X1214Y408D01*
X1214Y406D01*
X1212Y406D01*
X1212Y404D01*
X1210Y404D01*
X1210Y402D01*
X1208Y402D01*
X1208Y400D01*
X1206Y400D01*
X1206Y398D01*
X1204Y398D01*
X1204Y394D01*
X1202Y394D01*
X1202Y392D01*
X1200Y392D01*
X1200Y390D01*
X1198Y390D01*
X1198Y388D01*
X1196Y388D01*
X1196Y386D01*
X1194Y386D01*
X1194Y384D01*
X1192Y384D01*
X1192Y372D01*
X1190Y372D01*
X1190Y296D01*
X1192Y296D01*
X1192Y294D01*
X1194Y294D01*
X1194Y292D01*
X1196Y292D01*
X1196Y288D01*
X1198Y288D01*
X1198Y282D01*
X1200Y282D01*
X1200Y274D01*
X1198Y274D01*
X1198Y268D01*
X1196Y268D01*
X1196Y264D01*
X1194Y264D01*
X1194Y262D01*
X1192Y262D01*
X1192Y258D01*
X1190Y258D01*
X1190Y256D01*
X1186Y256D01*
X1186Y254D01*
X1184Y254D01*
X1184Y252D01*
X1180Y252D01*
X1180Y250D01*
X1174Y250D01*
X1174Y248D01*
X1158Y248D01*
X1158Y246D01*
X1156Y246D01*
X1156Y244D01*
X1154Y244D01*
X1154Y220D01*
X1170Y220D01*
X1170Y198D01*
X1208Y198D01*
X1208Y196D01*
X1214Y196D01*
X1214Y194D01*
X1216Y194D01*
X1216Y192D01*
X1220Y192D01*
X1220Y190D01*
X1222Y190D01*
X1222Y188D01*
X1224Y188D01*
X1224Y186D01*
X1246Y186D01*
X1246Y188D01*
X1260Y188D01*
X1260Y190D01*
X1264Y190D01*
X1264Y192D01*
X1266Y192D01*
X1266Y194D01*
X1268Y194D01*
X1268Y196D01*
X1272Y196D01*
X1272Y198D01*
X1274Y198D01*
X1274Y222D01*
X1318Y222D01*
X1318Y304D01*
X1314Y304D01*
X1314Y306D01*
X1310Y306D01*
X1310Y308D01*
X1308Y308D01*
X1308Y310D01*
X1306Y310D01*
X1306Y312D01*
X1302Y312D01*
X1302Y314D01*
X1300Y314D01*
X1300Y318D01*
X1298Y318D01*
X1298Y320D01*
X1296Y320D01*
X1296Y322D01*
X1294Y322D01*
X1294Y326D01*
X1292Y326D01*
X1292Y330D01*
X1290Y330D01*
X1290Y334D01*
X1288Y334D01*
X1288Y342D01*
X1286Y342D01*
X1286Y352D01*
X1288Y352D01*
X1288Y360D01*
X1290Y360D01*
X1290Y366D01*
X1292Y366D01*
X1292Y368D01*
X1294Y368D01*
X1294Y372D01*
X1296Y372D01*
X1296Y376D01*
X1298Y376D01*
X1298Y378D01*
X1300Y378D01*
X1300Y398D01*
X1286Y398D01*
X1286Y430D01*
X1234Y430D01*
G37*
D02*
G36*
X1170Y198D02*
X1170Y194D01*
X1190Y194D01*
X1190Y196D01*
X1194Y196D01*
X1194Y198D01*
X1170Y198D01*
G37*
D02*
G36*
X1368Y314D02*
X1368Y312D01*
X1366Y312D01*
X1366Y310D01*
X1364Y310D01*
X1364Y308D01*
X1362Y308D01*
X1362Y306D01*
X1358Y306D01*
X1358Y304D01*
X1354Y304D01*
X1354Y222D01*
X1374Y222D01*
X1374Y226D01*
X1376Y226D01*
X1376Y230D01*
X1378Y230D01*
X1378Y232D01*
X1380Y232D01*
X1380Y236D01*
X1382Y236D01*
X1382Y240D01*
X1384Y240D01*
X1384Y244D01*
X1386Y244D01*
X1386Y248D01*
X1388Y248D01*
X1388Y252D01*
X1390Y252D01*
X1390Y300D01*
X1388Y300D01*
X1388Y314D01*
X1368Y314D01*
G37*
D02*
G36*
X282Y988D02*
X282Y986D01*
X276Y986D01*
X276Y984D01*
X264Y984D01*
X264Y982D01*
X262Y982D01*
X262Y978D01*
X260Y978D01*
X260Y976D01*
X258Y976D01*
X258Y974D01*
X256Y974D01*
X256Y972D01*
X254Y972D01*
X254Y934D01*
X208Y934D01*
X208Y906D01*
X216Y906D01*
X216Y850D01*
X302Y850D01*
X302Y864D01*
X304Y864D01*
X304Y988D01*
X282Y988D01*
G37*
D02*
G36*
X76Y938D02*
X76Y850D01*
X164Y850D01*
X164Y906D01*
X172Y906D01*
X172Y934D01*
X128Y934D01*
X128Y936D01*
X98Y936D01*
X98Y938D01*
X76Y938D01*
G37*
D02*
G36*
X76Y850D02*
X76Y848D01*
X302Y848D01*
X302Y850D01*
X76Y850D01*
G37*
D02*
G36*
X76Y850D02*
X76Y848D01*
X302Y848D01*
X302Y850D01*
X76Y850D01*
G37*
D02*
G36*
X76Y848D02*
X76Y784D01*
X78Y784D01*
X78Y780D01*
X80Y780D01*
X80Y778D01*
X250Y778D01*
X250Y724D01*
X252Y724D01*
X252Y722D01*
X254Y722D01*
X254Y718D01*
X256Y718D01*
X256Y716D01*
X258Y716D01*
X258Y714D01*
X260Y714D01*
X260Y710D01*
X262Y710D01*
X262Y564D01*
X260Y564D01*
X260Y400D01*
X258Y400D01*
X258Y338D01*
X326Y338D01*
X326Y336D01*
X334Y336D01*
X334Y334D01*
X338Y334D01*
X338Y332D01*
X342Y332D01*
X342Y330D01*
X346Y330D01*
X346Y328D01*
X348Y328D01*
X348Y326D01*
X350Y326D01*
X350Y324D01*
X352Y324D01*
X352Y322D01*
X354Y322D01*
X354Y320D01*
X356Y320D01*
X356Y318D01*
X358Y318D01*
X358Y316D01*
X360Y316D01*
X360Y312D01*
X362Y312D01*
X362Y308D01*
X364Y308D01*
X364Y304D01*
X366Y304D01*
X366Y296D01*
X368Y296D01*
X368Y282D01*
X366Y282D01*
X366Y274D01*
X364Y274D01*
X364Y268D01*
X362Y268D01*
X362Y266D01*
X360Y266D01*
X360Y262D01*
X358Y262D01*
X358Y260D01*
X356Y260D01*
X356Y256D01*
X354Y256D01*
X354Y254D01*
X352Y254D01*
X352Y252D01*
X350Y252D01*
X350Y250D01*
X346Y250D01*
X346Y248D01*
X344Y248D01*
X344Y246D01*
X340Y246D01*
X340Y244D01*
X336Y244D01*
X336Y242D01*
X332Y242D01*
X332Y240D01*
X526Y240D01*
X526Y242D01*
X524Y242D01*
X524Y244D01*
X520Y244D01*
X520Y246D01*
X518Y246D01*
X518Y248D01*
X516Y248D01*
X516Y250D01*
X514Y250D01*
X514Y252D01*
X510Y252D01*
X510Y254D01*
X508Y254D01*
X508Y256D01*
X506Y256D01*
X506Y258D01*
X502Y258D01*
X502Y260D01*
X500Y260D01*
X500Y262D01*
X498Y262D01*
X498Y264D01*
X494Y264D01*
X494Y266D01*
X492Y266D01*
X492Y268D01*
X490Y268D01*
X490Y270D01*
X486Y270D01*
X486Y272D01*
X484Y272D01*
X484Y274D01*
X482Y274D01*
X482Y276D01*
X478Y276D01*
X478Y278D01*
X476Y278D01*
X476Y280D01*
X474Y280D01*
X474Y282D01*
X472Y282D01*
X472Y284D01*
X468Y284D01*
X468Y286D01*
X466Y286D01*
X466Y288D01*
X464Y288D01*
X464Y290D01*
X460Y290D01*
X460Y292D01*
X458Y292D01*
X458Y294D01*
X456Y294D01*
X456Y296D01*
X452Y296D01*
X452Y298D01*
X450Y298D01*
X450Y300D01*
X448Y300D01*
X448Y302D01*
X444Y302D01*
X444Y304D01*
X442Y304D01*
X442Y306D01*
X440Y306D01*
X440Y308D01*
X438Y308D01*
X438Y310D01*
X434Y310D01*
X434Y312D01*
X432Y312D01*
X432Y314D01*
X430Y314D01*
X430Y316D01*
X426Y316D01*
X426Y318D01*
X424Y318D01*
X424Y320D01*
X422Y320D01*
X422Y322D01*
X418Y322D01*
X418Y324D01*
X416Y324D01*
X416Y326D01*
X414Y326D01*
X414Y328D01*
X410Y328D01*
X410Y330D01*
X408Y330D01*
X408Y332D01*
X406Y332D01*
X406Y334D01*
X402Y334D01*
X402Y336D01*
X400Y336D01*
X400Y338D01*
X398Y338D01*
X398Y340D01*
X396Y340D01*
X396Y342D01*
X392Y342D01*
X392Y344D01*
X390Y344D01*
X390Y346D01*
X388Y346D01*
X388Y348D01*
X384Y348D01*
X384Y350D01*
X382Y350D01*
X382Y352D01*
X380Y352D01*
X380Y354D01*
X376Y354D01*
X376Y356D01*
X374Y356D01*
X374Y358D01*
X372Y358D01*
X372Y360D01*
X368Y360D01*
X368Y362D01*
X366Y362D01*
X366Y364D01*
X364Y364D01*
X364Y366D01*
X362Y366D01*
X362Y368D01*
X358Y368D01*
X358Y370D01*
X356Y370D01*
X356Y372D01*
X354Y372D01*
X354Y374D01*
X350Y374D01*
X350Y376D01*
X348Y376D01*
X348Y378D01*
X346Y378D01*
X346Y380D01*
X342Y380D01*
X342Y382D01*
X340Y382D01*
X340Y384D01*
X338Y384D01*
X338Y386D01*
X334Y386D01*
X334Y388D01*
X332Y388D01*
X332Y390D01*
X330Y390D01*
X330Y392D01*
X328Y392D01*
X328Y394D01*
X314Y394D01*
X314Y396D01*
X306Y396D01*
X306Y398D01*
X302Y398D01*
X302Y400D01*
X300Y400D01*
X300Y402D01*
X296Y402D01*
X296Y404D01*
X294Y404D01*
X294Y406D01*
X292Y406D01*
X292Y410D01*
X290Y410D01*
X290Y412D01*
X288Y412D01*
X288Y418D01*
X286Y418D01*
X286Y432D01*
X288Y432D01*
X288Y436D01*
X290Y436D01*
X290Y440D01*
X292Y440D01*
X292Y442D01*
X294Y442D01*
X294Y444D01*
X296Y444D01*
X296Y446D01*
X298Y446D01*
X298Y548D01*
X300Y548D01*
X300Y706D01*
X302Y706D01*
X302Y848D01*
X76Y848D01*
G37*
D02*
G36*
X82Y778D02*
X82Y774D01*
X84Y774D01*
X84Y770D01*
X86Y770D01*
X86Y766D01*
X88Y766D01*
X88Y764D01*
X90Y764D01*
X90Y762D01*
X116Y762D01*
X116Y778D01*
X82Y778D01*
G37*
D02*
G36*
X258Y338D02*
X258Y314D01*
X278Y314D01*
X278Y316D01*
X280Y316D01*
X280Y320D01*
X282Y320D01*
X282Y322D01*
X284Y322D01*
X284Y324D01*
X286Y324D01*
X286Y326D01*
X290Y326D01*
X290Y328D01*
X292Y328D01*
X292Y330D01*
X296Y330D01*
X296Y332D01*
X298Y332D01*
X298Y334D01*
X304Y334D01*
X304Y336D01*
X310Y336D01*
X310Y338D01*
X258Y338D01*
G37*
D02*
G36*
X40Y298D02*
X40Y154D01*
X142Y154D01*
X142Y210D01*
X150Y210D01*
X150Y238D01*
X104Y238D01*
X104Y264D01*
X102Y264D01*
X102Y266D01*
X100Y266D01*
X100Y268D01*
X98Y268D01*
X98Y270D01*
X96Y270D01*
X96Y272D01*
X92Y272D01*
X92Y274D01*
X90Y274D01*
X90Y276D01*
X88Y276D01*
X88Y278D01*
X86Y278D01*
X86Y280D01*
X84Y280D01*
X84Y282D01*
X82Y282D01*
X82Y284D01*
X80Y284D01*
X80Y286D01*
X76Y286D01*
X76Y288D01*
X74Y288D01*
X74Y290D01*
X72Y290D01*
X72Y292D01*
X70Y292D01*
X70Y294D01*
X68Y294D01*
X68Y296D01*
X66Y296D01*
X66Y298D01*
X40Y298D01*
G37*
D02*
G36*
X250Y286D02*
X250Y284D01*
X248Y284D01*
X248Y282D01*
X246Y282D01*
X246Y280D01*
X244Y280D01*
X244Y278D01*
X242Y278D01*
X242Y276D01*
X238Y276D01*
X238Y274D01*
X236Y274D01*
X236Y272D01*
X234Y272D01*
X234Y270D01*
X232Y270D01*
X232Y268D01*
X230Y268D01*
X230Y240D01*
X306Y240D01*
X306Y242D01*
X300Y242D01*
X300Y244D01*
X296Y244D01*
X296Y246D01*
X292Y246D01*
X292Y248D01*
X290Y248D01*
X290Y250D01*
X288Y250D01*
X288Y252D01*
X286Y252D01*
X286Y254D01*
X284Y254D01*
X284Y256D01*
X282Y256D01*
X282Y258D01*
X280Y258D01*
X280Y260D01*
X278Y260D01*
X278Y262D01*
X276Y262D01*
X276Y266D01*
X274Y266D01*
X274Y270D01*
X272Y270D01*
X272Y276D01*
X270Y276D01*
X270Y286D01*
X250Y286D01*
G37*
D02*
G36*
X230Y240D02*
X230Y238D01*
X528Y238D01*
X528Y240D01*
X230Y240D01*
G37*
D02*
G36*
X230Y240D02*
X230Y238D01*
X528Y238D01*
X528Y240D01*
X230Y240D01*
G37*
D02*
G36*
X186Y238D02*
X186Y210D01*
X192Y210D01*
X192Y154D01*
X606Y154D01*
X606Y162D01*
X604Y162D01*
X604Y182D01*
X602Y182D01*
X602Y184D01*
X600Y184D01*
X600Y186D01*
X596Y186D01*
X596Y188D01*
X594Y188D01*
X594Y190D01*
X592Y190D01*
X592Y192D01*
X590Y192D01*
X590Y194D01*
X586Y194D01*
X586Y196D01*
X584Y196D01*
X584Y198D01*
X582Y198D01*
X582Y200D01*
X578Y200D01*
X578Y202D01*
X576Y202D01*
X576Y204D01*
X574Y204D01*
X574Y206D01*
X570Y206D01*
X570Y208D01*
X568Y208D01*
X568Y210D01*
X566Y210D01*
X566Y212D01*
X562Y212D01*
X562Y214D01*
X560Y214D01*
X560Y216D01*
X558Y216D01*
X558Y218D01*
X554Y218D01*
X554Y220D01*
X552Y220D01*
X552Y222D01*
X550Y222D01*
X550Y224D01*
X548Y224D01*
X548Y226D01*
X544Y226D01*
X544Y228D01*
X542Y228D01*
X542Y230D01*
X540Y230D01*
X540Y232D01*
X536Y232D01*
X536Y234D01*
X534Y234D01*
X534Y236D01*
X532Y236D01*
X532Y238D01*
X186Y238D01*
G37*
D02*
G36*
X40Y154D02*
X40Y152D01*
X608Y152D01*
X608Y154D01*
X40Y154D01*
G37*
D02*
G36*
X40Y154D02*
X40Y152D01*
X608Y152D01*
X608Y154D01*
X40Y154D01*
G37*
D02*
G36*
X40Y152D02*
X40Y40D01*
X678Y40D01*
X678Y62D01*
X676Y62D01*
X676Y68D01*
X674Y68D01*
X674Y72D01*
X672Y72D01*
X672Y76D01*
X670Y76D01*
X670Y80D01*
X668Y80D01*
X668Y84D01*
X666Y84D01*
X666Y90D01*
X664Y90D01*
X664Y94D01*
X662Y94D01*
X662Y98D01*
X660Y98D01*
X660Y102D01*
X658Y102D01*
X658Y106D01*
X656Y106D01*
X656Y112D01*
X654Y112D01*
X654Y116D01*
X652Y116D01*
X652Y118D01*
X642Y118D01*
X642Y120D01*
X638Y120D01*
X638Y122D01*
X634Y122D01*
X634Y124D01*
X630Y124D01*
X630Y126D01*
X626Y126D01*
X626Y128D01*
X624Y128D01*
X624Y130D01*
X622Y130D01*
X622Y132D01*
X620Y132D01*
X620Y134D01*
X618Y134D01*
X618Y136D01*
X616Y136D01*
X616Y138D01*
X614Y138D01*
X614Y142D01*
X612Y142D01*
X612Y144D01*
X610Y144D01*
X610Y148D01*
X608Y148D01*
X608Y152D01*
X40Y152D01*
G37*
D02*
G36*
X798Y148D02*
X798Y146D01*
X796Y146D01*
X796Y142D01*
X794Y142D01*
X794Y140D01*
X792Y140D01*
X792Y136D01*
X790Y136D01*
X790Y134D01*
X788Y134D01*
X788Y132D01*
X786Y132D01*
X786Y130D01*
X784Y130D01*
X784Y128D01*
X780Y128D01*
X780Y126D01*
X778Y126D01*
X778Y124D01*
X774Y124D01*
X774Y122D01*
X770Y122D01*
X770Y120D01*
X764Y120D01*
X764Y118D01*
X844Y118D01*
X844Y148D01*
X798Y148D01*
G37*
D02*
G36*
X694Y142D02*
X694Y140D01*
X692Y140D01*
X692Y118D01*
X742Y118D01*
X742Y120D01*
X738Y120D01*
X738Y122D01*
X734Y122D01*
X734Y124D01*
X730Y124D01*
X730Y126D01*
X726Y126D01*
X726Y128D01*
X724Y128D01*
X724Y130D01*
X722Y130D01*
X722Y132D01*
X720Y132D01*
X720Y134D01*
X718Y134D01*
X718Y136D01*
X716Y136D01*
X716Y138D01*
X714Y138D01*
X714Y142D01*
X694Y142D01*
G37*
D02*
G36*
X692Y118D02*
X692Y116D01*
X844Y116D01*
X844Y118D01*
X692Y118D01*
G37*
D02*
G36*
X692Y118D02*
X692Y116D01*
X844Y116D01*
X844Y118D01*
X692Y118D01*
G37*
D02*
G36*
X692Y116D02*
X692Y114D01*
X694Y114D01*
X694Y110D01*
X696Y110D01*
X696Y106D01*
X698Y106D01*
X698Y102D01*
X700Y102D01*
X700Y96D01*
X702Y96D01*
X702Y92D01*
X704Y92D01*
X704Y88D01*
X706Y88D01*
X706Y84D01*
X850Y84D01*
X850Y104D01*
X848Y104D01*
X848Y108D01*
X846Y108D01*
X846Y112D01*
X844Y112D01*
X844Y116D01*
X692Y116D01*
G37*
D02*
G36*
X1036Y1562D02*
X1036Y1540D01*
X1034Y1540D01*
X1034Y1536D01*
X1032Y1536D01*
X1032Y1532D01*
X1030Y1532D01*
X1030Y1530D01*
X1028Y1530D01*
X1028Y1528D01*
X1026Y1528D01*
X1026Y1526D01*
X1024Y1526D01*
X1024Y1524D01*
X1022Y1524D01*
X1022Y1522D01*
X1018Y1522D01*
X1018Y1520D01*
X1014Y1520D01*
X1014Y1518D01*
X1452Y1518D01*
X1452Y1562D01*
X1036Y1562D01*
G37*
D02*
G36*
X444Y1550D02*
X444Y1548D01*
X176Y1548D01*
X176Y1524D01*
X178Y1524D01*
X178Y1518D01*
X1000Y1518D01*
X1000Y1520D01*
X994Y1520D01*
X994Y1522D01*
X992Y1522D01*
X992Y1524D01*
X988Y1524D01*
X988Y1526D01*
X986Y1526D01*
X986Y1528D01*
X984Y1528D01*
X984Y1532D01*
X982Y1532D01*
X982Y1534D01*
X980Y1534D01*
X980Y1538D01*
X978Y1538D01*
X978Y1544D01*
X976Y1544D01*
X976Y1546D01*
X972Y1546D01*
X972Y1548D01*
X968Y1548D01*
X968Y1550D01*
X444Y1550D01*
G37*
D02*
G36*
X100Y1520D02*
X100Y1518D01*
X98Y1518D01*
X98Y1514D01*
X96Y1514D01*
X96Y1512D01*
X94Y1512D01*
X94Y1508D01*
X92Y1508D01*
X92Y1506D01*
X90Y1506D01*
X90Y1502D01*
X88Y1502D01*
X88Y1500D01*
X86Y1500D01*
X86Y1496D01*
X84Y1496D01*
X84Y1494D01*
X82Y1494D01*
X82Y1490D01*
X80Y1490D01*
X80Y1488D01*
X78Y1488D01*
X78Y1484D01*
X76Y1484D01*
X76Y1348D01*
X264Y1348D01*
X264Y1350D01*
X258Y1350D01*
X258Y1352D01*
X256Y1352D01*
X256Y1354D01*
X252Y1354D01*
X252Y1356D01*
X250Y1356D01*
X250Y1358D01*
X248Y1358D01*
X248Y1360D01*
X246Y1360D01*
X246Y1362D01*
X244Y1362D01*
X244Y1366D01*
X242Y1366D01*
X242Y1370D01*
X240Y1370D01*
X240Y1390D01*
X238Y1390D01*
X238Y1392D01*
X236Y1392D01*
X236Y1394D01*
X234Y1394D01*
X234Y1396D01*
X232Y1396D01*
X232Y1398D01*
X230Y1398D01*
X230Y1400D01*
X228Y1400D01*
X228Y1402D01*
X116Y1402D01*
X116Y1404D01*
X114Y1404D01*
X114Y1464D01*
X116Y1464D01*
X116Y1466D01*
X134Y1466D01*
X134Y1494D01*
X130Y1494D01*
X130Y1496D01*
X128Y1496D01*
X128Y1498D01*
X126Y1498D01*
X126Y1502D01*
X124Y1502D01*
X124Y1504D01*
X122Y1504D01*
X122Y1508D01*
X120Y1508D01*
X120Y1520D01*
X100Y1520D01*
G37*
D02*
G36*
X178Y1518D02*
X178Y1516D01*
X1452Y1516D01*
X1452Y1518D01*
X178Y1518D01*
G37*
D02*
G36*
X178Y1518D02*
X178Y1516D01*
X1452Y1516D01*
X1452Y1518D01*
X178Y1518D01*
G37*
D02*
G36*
X178Y1516D02*
X178Y1508D01*
X176Y1508D01*
X176Y1504D01*
X174Y1504D01*
X174Y1502D01*
X172Y1502D01*
X172Y1498D01*
X170Y1498D01*
X170Y1496D01*
X168Y1496D01*
X168Y1494D01*
X164Y1494D01*
X164Y1492D01*
X162Y1492D01*
X162Y1468D01*
X1134Y1468D01*
X1134Y1466D01*
X1144Y1466D01*
X1144Y1464D01*
X1404Y1464D01*
X1404Y1408D01*
X1406Y1408D01*
X1406Y1406D01*
X1408Y1406D01*
X1408Y1404D01*
X1410Y1404D01*
X1410Y1400D01*
X1412Y1400D01*
X1412Y1398D01*
X1414Y1398D01*
X1414Y1396D01*
X1416Y1396D01*
X1416Y1392D01*
X1418Y1392D01*
X1418Y1390D01*
X1420Y1390D01*
X1420Y1386D01*
X1422Y1386D01*
X1422Y1384D01*
X1424Y1384D01*
X1424Y1382D01*
X1426Y1382D01*
X1426Y1376D01*
X1428Y1376D01*
X1428Y1358D01*
X1426Y1358D01*
X1426Y1282D01*
X1424Y1282D01*
X1424Y1206D01*
X1422Y1206D01*
X1422Y1130D01*
X1420Y1130D01*
X1420Y1052D01*
X1418Y1052D01*
X1418Y976D01*
X1416Y976D01*
X1416Y944D01*
X1414Y944D01*
X1414Y940D01*
X1412Y940D01*
X1412Y938D01*
X1410Y938D01*
X1410Y936D01*
X1406Y936D01*
X1406Y924D01*
X1452Y924D01*
X1452Y1516D01*
X178Y1516D01*
G37*
D02*
G36*
X162Y1468D02*
X162Y1466D01*
X250Y1466D01*
X250Y1418D01*
X252Y1418D01*
X252Y1416D01*
X254Y1416D01*
X254Y1414D01*
X256Y1414D01*
X256Y1410D01*
X258Y1410D01*
X258Y1408D01*
X274Y1408D01*
X274Y1406D01*
X280Y1406D01*
X280Y1404D01*
X284Y1404D01*
X284Y1402D01*
X286Y1402D01*
X286Y1400D01*
X288Y1400D01*
X288Y1398D01*
X290Y1398D01*
X290Y1396D01*
X292Y1396D01*
X292Y1394D01*
X294Y1394D01*
X294Y1390D01*
X296Y1390D01*
X296Y1386D01*
X298Y1386D01*
X298Y1370D01*
X296Y1370D01*
X296Y1366D01*
X294Y1366D01*
X294Y1362D01*
X292Y1362D01*
X292Y1360D01*
X290Y1360D01*
X290Y1358D01*
X288Y1358D01*
X288Y1356D01*
X286Y1356D01*
X286Y1354D01*
X282Y1354D01*
X282Y1352D01*
X280Y1352D01*
X280Y1350D01*
X274Y1350D01*
X274Y1348D01*
X598Y1348D01*
X598Y1350D01*
X600Y1350D01*
X600Y1352D01*
X602Y1352D01*
X602Y1354D01*
X604Y1354D01*
X604Y1358D01*
X606Y1358D01*
X606Y1360D01*
X608Y1360D01*
X608Y1362D01*
X610Y1362D01*
X610Y1364D01*
X612Y1364D01*
X612Y1366D01*
X1094Y1366D01*
X1094Y1386D01*
X1092Y1386D01*
X1092Y1388D01*
X1090Y1388D01*
X1090Y1390D01*
X1088Y1390D01*
X1088Y1394D01*
X1086Y1394D01*
X1086Y1398D01*
X1084Y1398D01*
X1084Y1402D01*
X1082Y1402D01*
X1082Y1408D01*
X1080Y1408D01*
X1080Y1428D01*
X1082Y1428D01*
X1082Y1434D01*
X1084Y1434D01*
X1084Y1438D01*
X1086Y1438D01*
X1086Y1442D01*
X1088Y1442D01*
X1088Y1446D01*
X1090Y1446D01*
X1090Y1448D01*
X1092Y1448D01*
X1092Y1450D01*
X1094Y1450D01*
X1094Y1452D01*
X1096Y1452D01*
X1096Y1454D01*
X1098Y1454D01*
X1098Y1456D01*
X1100Y1456D01*
X1100Y1458D01*
X1104Y1458D01*
X1104Y1460D01*
X1106Y1460D01*
X1106Y1462D01*
X1110Y1462D01*
X1110Y1464D01*
X1116Y1464D01*
X1116Y1466D01*
X1126Y1466D01*
X1126Y1468D01*
X162Y1468D01*
G37*
D02*
G36*
X1148Y1464D02*
X1148Y1462D01*
X1152Y1462D01*
X1152Y1460D01*
X1156Y1460D01*
X1156Y1458D01*
X1158Y1458D01*
X1158Y1456D01*
X1160Y1456D01*
X1160Y1454D01*
X1162Y1454D01*
X1162Y1452D01*
X1164Y1452D01*
X1164Y1450D01*
X1166Y1450D01*
X1166Y1448D01*
X1168Y1448D01*
X1168Y1446D01*
X1170Y1446D01*
X1170Y1442D01*
X1172Y1442D01*
X1172Y1440D01*
X1174Y1440D01*
X1174Y1436D01*
X1176Y1436D01*
X1176Y1430D01*
X1178Y1430D01*
X1178Y1406D01*
X1176Y1406D01*
X1176Y1400D01*
X1174Y1400D01*
X1174Y1396D01*
X1172Y1396D01*
X1172Y1392D01*
X1170Y1392D01*
X1170Y1390D01*
X1168Y1390D01*
X1168Y1388D01*
X1166Y1388D01*
X1166Y1368D01*
X1204Y1368D01*
X1204Y1366D01*
X1210Y1366D01*
X1210Y1364D01*
X1212Y1364D01*
X1212Y1362D01*
X1214Y1362D01*
X1214Y1358D01*
X1216Y1358D01*
X1216Y1356D01*
X1218Y1356D01*
X1218Y1354D01*
X1220Y1354D01*
X1220Y1350D01*
X1222Y1350D01*
X1222Y1348D01*
X1224Y1348D01*
X1224Y1344D01*
X1226Y1344D01*
X1226Y1342D01*
X1228Y1342D01*
X1228Y1340D01*
X1230Y1340D01*
X1230Y1336D01*
X1250Y1336D01*
X1250Y1372D01*
X1252Y1372D01*
X1252Y1378D01*
X1254Y1378D01*
X1254Y1382D01*
X1256Y1382D01*
X1256Y1384D01*
X1258Y1384D01*
X1258Y1388D01*
X1260Y1388D01*
X1260Y1392D01*
X1262Y1392D01*
X1262Y1394D01*
X1264Y1394D01*
X1264Y1398D01*
X1266Y1398D01*
X1266Y1402D01*
X1268Y1402D01*
X1268Y1404D01*
X1270Y1404D01*
X1270Y1464D01*
X1148Y1464D01*
G37*
D02*
G36*
X76Y1348D02*
X76Y1346D01*
X598Y1346D01*
X598Y1348D01*
X76Y1348D01*
G37*
D02*
G36*
X76Y1348D02*
X76Y1346D01*
X598Y1346D01*
X598Y1348D01*
X76Y1348D01*
G37*
D02*
G36*
X76Y1346D02*
X76Y1266D01*
X240Y1266D01*
X240Y1240D01*
X332Y1240D01*
X332Y1238D01*
X336Y1238D01*
X336Y1236D01*
X338Y1236D01*
X338Y1234D01*
X340Y1234D01*
X340Y1232D01*
X342Y1232D01*
X342Y1226D01*
X344Y1226D01*
X344Y1178D01*
X342Y1178D01*
X342Y1020D01*
X340Y1020D01*
X340Y862D01*
X338Y862D01*
X338Y704D01*
X336Y704D01*
X336Y614D01*
X558Y614D01*
X558Y616D01*
X554Y616D01*
X554Y618D01*
X550Y618D01*
X550Y620D01*
X548Y620D01*
X548Y622D01*
X546Y622D01*
X546Y626D01*
X544Y626D01*
X544Y628D01*
X542Y628D01*
X542Y630D01*
X540Y630D01*
X540Y632D01*
X538Y632D01*
X538Y634D01*
X536Y634D01*
X536Y636D01*
X534Y636D01*
X534Y638D01*
X532Y638D01*
X532Y640D01*
X424Y640D01*
X424Y700D01*
X442Y700D01*
X442Y772D01*
X444Y772D01*
X444Y776D01*
X446Y776D01*
X446Y780D01*
X448Y780D01*
X448Y782D01*
X450Y782D01*
X450Y784D01*
X452Y784D01*
X452Y786D01*
X454Y786D01*
X454Y788D01*
X456Y788D01*
X456Y792D01*
X458Y792D01*
X458Y794D01*
X460Y794D01*
X460Y796D01*
X462Y796D01*
X462Y798D01*
X464Y798D01*
X464Y800D01*
X466Y800D01*
X466Y804D01*
X468Y804D01*
X468Y806D01*
X470Y806D01*
X470Y808D01*
X472Y808D01*
X472Y810D01*
X474Y810D01*
X474Y812D01*
X476Y812D01*
X476Y816D01*
X478Y816D01*
X478Y818D01*
X480Y818D01*
X480Y820D01*
X482Y820D01*
X482Y822D01*
X484Y822D01*
X484Y824D01*
X486Y824D01*
X486Y828D01*
X488Y828D01*
X488Y830D01*
X490Y830D01*
X490Y832D01*
X492Y832D01*
X492Y834D01*
X494Y834D01*
X494Y836D01*
X496Y836D01*
X496Y840D01*
X498Y840D01*
X498Y842D01*
X500Y842D01*
X500Y844D01*
X502Y844D01*
X502Y846D01*
X504Y846D01*
X504Y848D01*
X506Y848D01*
X506Y852D01*
X508Y852D01*
X508Y854D01*
X510Y854D01*
X510Y856D01*
X512Y856D01*
X512Y858D01*
X514Y858D01*
X514Y862D01*
X516Y862D01*
X516Y864D01*
X518Y864D01*
X518Y866D01*
X520Y866D01*
X520Y868D01*
X522Y868D01*
X522Y870D01*
X524Y870D01*
X524Y874D01*
X526Y874D01*
X526Y876D01*
X528Y876D01*
X528Y878D01*
X530Y878D01*
X530Y880D01*
X532Y880D01*
X532Y882D01*
X534Y882D01*
X534Y886D01*
X536Y886D01*
X536Y904D01*
X538Y904D01*
X538Y910D01*
X540Y910D01*
X540Y914D01*
X542Y914D01*
X542Y918D01*
X544Y918D01*
X544Y920D01*
X546Y920D01*
X546Y922D01*
X548Y922D01*
X548Y924D01*
X550Y924D01*
X550Y926D01*
X554Y926D01*
X554Y928D01*
X558Y928D01*
X558Y930D01*
X570Y930D01*
X570Y932D01*
X572Y932D01*
X572Y936D01*
X574Y936D01*
X574Y938D01*
X576Y938D01*
X576Y942D01*
X578Y942D01*
X578Y944D01*
X580Y944D01*
X580Y946D01*
X582Y946D01*
X582Y950D01*
X584Y950D01*
X584Y952D01*
X586Y952D01*
X586Y954D01*
X588Y954D01*
X588Y956D01*
X590Y956D01*
X590Y960D01*
X592Y960D01*
X592Y962D01*
X594Y962D01*
X594Y964D01*
X596Y964D01*
X596Y984D01*
X578Y984D01*
X578Y1022D01*
X540Y1022D01*
X540Y1152D01*
X578Y1152D01*
X578Y1192D01*
X580Y1192D01*
X580Y1322D01*
X582Y1322D01*
X582Y1326D01*
X584Y1326D01*
X584Y1328D01*
X586Y1328D01*
X586Y1332D01*
X588Y1332D01*
X588Y1334D01*
X590Y1334D01*
X590Y1338D01*
X592Y1338D01*
X592Y1340D01*
X594Y1340D01*
X594Y1344D01*
X596Y1344D01*
X596Y1346D01*
X76Y1346D01*
G37*
D02*
G36*
X76Y1266D02*
X76Y996D01*
X108Y996D01*
X108Y994D01*
X114Y994D01*
X114Y992D01*
X118Y992D01*
X118Y990D01*
X120Y990D01*
X120Y988D01*
X174Y988D01*
X174Y1048D01*
X172Y1048D01*
X172Y1074D01*
X168Y1074D01*
X168Y1076D01*
X166Y1076D01*
X166Y1078D01*
X162Y1078D01*
X162Y1080D01*
X160Y1080D01*
X160Y1082D01*
X158Y1082D01*
X158Y1084D01*
X156Y1084D01*
X156Y1086D01*
X154Y1086D01*
X154Y1088D01*
X152Y1088D01*
X152Y1090D01*
X150Y1090D01*
X150Y1094D01*
X148Y1094D01*
X148Y1096D01*
X146Y1096D01*
X146Y1100D01*
X144Y1100D01*
X144Y1106D01*
X142Y1106D01*
X142Y1130D01*
X144Y1130D01*
X144Y1134D01*
X146Y1134D01*
X146Y1138D01*
X148Y1138D01*
X148Y1142D01*
X150Y1142D01*
X150Y1144D01*
X152Y1144D01*
X152Y1148D01*
X154Y1148D01*
X154Y1168D01*
X142Y1168D01*
X142Y1266D01*
X76Y1266D01*
G37*
D02*
G36*
X240Y1240D02*
X240Y1238D01*
X292Y1238D01*
X292Y1240D01*
X240Y1240D01*
G37*
D02*
G36*
X1276Y1088D02*
X1276Y1066D01*
X1328Y1066D01*
X1328Y1068D01*
X1320Y1068D01*
X1320Y1070D01*
X1316Y1070D01*
X1316Y1072D01*
X1312Y1072D01*
X1312Y1074D01*
X1308Y1074D01*
X1308Y1076D01*
X1306Y1076D01*
X1306Y1078D01*
X1304Y1078D01*
X1304Y1080D01*
X1302Y1080D01*
X1302Y1082D01*
X1300Y1082D01*
X1300Y1084D01*
X1298Y1084D01*
X1298Y1086D01*
X1296Y1086D01*
X1296Y1088D01*
X1276Y1088D01*
G37*
D02*
G36*
X1372Y1088D02*
X1372Y1086D01*
X1370Y1086D01*
X1370Y1082D01*
X1368Y1082D01*
X1368Y1080D01*
X1364Y1080D01*
X1364Y1078D01*
X1362Y1078D01*
X1362Y1076D01*
X1360Y1076D01*
X1360Y1074D01*
X1356Y1074D01*
X1356Y1072D01*
X1354Y1072D01*
X1354Y1070D01*
X1348Y1070D01*
X1348Y1068D01*
X1342Y1068D01*
X1342Y1066D01*
X1392Y1066D01*
X1392Y1088D01*
X1372Y1088D01*
G37*
D02*
G36*
X1276Y1066D02*
X1276Y1064D01*
X1392Y1064D01*
X1392Y1066D01*
X1276Y1066D01*
G37*
D02*
G36*
X1276Y1066D02*
X1276Y1064D01*
X1392Y1064D01*
X1392Y1066D01*
X1276Y1066D01*
G37*
D02*
G36*
X1276Y1064D02*
X1276Y1038D01*
X1274Y1038D01*
X1274Y1016D01*
X1272Y1016D01*
X1272Y1014D01*
X1270Y1014D01*
X1270Y1012D01*
X1268Y1012D01*
X1268Y1010D01*
X1266Y1010D01*
X1266Y1008D01*
X1264Y1008D01*
X1264Y1006D01*
X1260Y1006D01*
X1260Y1004D01*
X1258Y1004D01*
X1258Y1002D01*
X1256Y1002D01*
X1256Y1000D01*
X1254Y1000D01*
X1254Y998D01*
X1250Y998D01*
X1250Y996D01*
X1248Y996D01*
X1248Y994D01*
X1246Y994D01*
X1246Y992D01*
X1242Y992D01*
X1242Y990D01*
X1240Y990D01*
X1240Y988D01*
X1238Y988D01*
X1238Y986D01*
X1234Y986D01*
X1234Y984D01*
X1232Y984D01*
X1232Y982D01*
X1226Y982D01*
X1226Y980D01*
X1332Y980D01*
X1332Y924D01*
X1356Y924D01*
X1356Y980D01*
X1390Y980D01*
X1390Y1052D01*
X1392Y1052D01*
X1392Y1064D01*
X1276Y1064D01*
G37*
D02*
G36*
X76Y996D02*
X76Y994D01*
X100Y994D01*
X100Y996D01*
X76Y996D01*
G37*
D02*
G36*
X1200Y980D02*
X1200Y906D01*
X1220Y906D01*
X1220Y910D01*
X1222Y910D01*
X1222Y912D01*
X1224Y912D01*
X1224Y916D01*
X1226Y916D01*
X1226Y918D01*
X1228Y918D01*
X1228Y928D01*
X1230Y928D01*
X1230Y958D01*
X1232Y958D01*
X1232Y960D01*
X1234Y960D01*
X1234Y964D01*
X1236Y964D01*
X1236Y966D01*
X1240Y966D01*
X1240Y968D01*
X1260Y968D01*
X1260Y970D01*
X1280Y970D01*
X1280Y980D01*
X1200Y980D01*
G37*
D02*
G36*
X1268Y924D02*
X1268Y922D01*
X1452Y922D01*
X1452Y924D01*
X1268Y924D01*
G37*
D02*
G36*
X1268Y924D02*
X1268Y922D01*
X1452Y922D01*
X1452Y924D01*
X1268Y924D01*
G37*
D02*
G36*
X1268Y922D02*
X1268Y912D01*
X1270Y912D01*
X1270Y910D01*
X1272Y910D01*
X1272Y906D01*
X1274Y906D01*
X1274Y902D01*
X1276Y902D01*
X1276Y898D01*
X1368Y898D01*
X1368Y896D01*
X1370Y896D01*
X1370Y842D01*
X1362Y842D01*
X1362Y732D01*
X1364Y732D01*
X1364Y730D01*
X1366Y730D01*
X1366Y728D01*
X1368Y728D01*
X1368Y724D01*
X1370Y724D01*
X1370Y720D01*
X1372Y720D01*
X1372Y702D01*
X1370Y702D01*
X1370Y698D01*
X1368Y698D01*
X1368Y696D01*
X1366Y696D01*
X1366Y694D01*
X1364Y694D01*
X1364Y690D01*
X1360Y690D01*
X1360Y688D01*
X1358Y688D01*
X1358Y686D01*
X1356Y686D01*
X1356Y684D01*
X1350Y684D01*
X1350Y682D01*
X1452Y682D01*
X1452Y922D01*
X1268Y922D01*
G37*
D02*
G36*
X1276Y898D02*
X1276Y890D01*
X1274Y890D01*
X1274Y886D01*
X1272Y886D01*
X1272Y882D01*
X1270Y882D01*
X1270Y880D01*
X1268Y880D01*
X1268Y876D01*
X1266Y876D01*
X1266Y874D01*
X1262Y874D01*
X1262Y872D01*
X1260Y872D01*
X1260Y870D01*
X1256Y870D01*
X1256Y868D01*
X1252Y868D01*
X1252Y866D01*
X1318Y866D01*
X1318Y898D01*
X1276Y898D01*
G37*
D02*
G36*
X1200Y886D02*
X1200Y866D01*
X1240Y866D01*
X1240Y868D01*
X1236Y868D01*
X1236Y870D01*
X1232Y870D01*
X1232Y872D01*
X1230Y872D01*
X1230Y874D01*
X1226Y874D01*
X1226Y876D01*
X1224Y876D01*
X1224Y880D01*
X1222Y880D01*
X1222Y882D01*
X1220Y882D01*
X1220Y886D01*
X1200Y886D01*
G37*
D02*
G36*
X1200Y866D02*
X1200Y864D01*
X1318Y864D01*
X1318Y866D01*
X1200Y866D01*
G37*
D02*
G36*
X1200Y866D02*
X1200Y864D01*
X1318Y864D01*
X1318Y866D01*
X1200Y866D01*
G37*
D02*
G36*
X1200Y864D02*
X1200Y728D01*
X1134Y728D01*
X1134Y714D01*
X1136Y714D01*
X1136Y682D01*
X1336Y682D01*
X1336Y684D01*
X1332Y684D01*
X1332Y686D01*
X1328Y686D01*
X1328Y688D01*
X1326Y688D01*
X1326Y690D01*
X1324Y690D01*
X1324Y692D01*
X1322Y692D01*
X1322Y694D01*
X1320Y694D01*
X1320Y696D01*
X1318Y696D01*
X1318Y700D01*
X1316Y700D01*
X1316Y704D01*
X1314Y704D01*
X1314Y718D01*
X1316Y718D01*
X1316Y724D01*
X1318Y724D01*
X1318Y726D01*
X1320Y726D01*
X1320Y730D01*
X1322Y730D01*
X1322Y732D01*
X1324Y732D01*
X1324Y734D01*
X1326Y734D01*
X1326Y842D01*
X1318Y842D01*
X1318Y864D01*
X1200Y864D01*
G37*
D02*
G36*
X1136Y682D02*
X1136Y680D01*
X1452Y680D01*
X1452Y682D01*
X1136Y682D01*
G37*
D02*
G36*
X1136Y682D02*
X1136Y680D01*
X1452Y680D01*
X1452Y682D01*
X1136Y682D01*
G37*
D02*
G36*
X1136Y680D02*
X1136Y648D01*
X1404Y648D01*
X1404Y580D01*
X1406Y580D01*
X1406Y576D01*
X1408Y576D01*
X1408Y572D01*
X1410Y572D01*
X1410Y568D01*
X1412Y568D01*
X1412Y564D01*
X1414Y564D01*
X1414Y444D01*
X1416Y444D01*
X1416Y300D01*
X1418Y300D01*
X1418Y244D01*
X1416Y244D01*
X1416Y240D01*
X1414Y240D01*
X1414Y236D01*
X1412Y236D01*
X1412Y234D01*
X1410Y234D01*
X1410Y230D01*
X1408Y230D01*
X1408Y226D01*
X1406Y226D01*
X1406Y222D01*
X1404Y222D01*
X1404Y218D01*
X1402Y218D01*
X1402Y214D01*
X1400Y214D01*
X1400Y168D01*
X1354Y168D01*
X1354Y140D01*
X1362Y140D01*
X1362Y84D01*
X1452Y84D01*
X1452Y680D01*
X1136Y680D01*
G37*
D02*
G36*
X704Y656D02*
X704Y642D01*
X670Y642D01*
X670Y640D01*
X668Y640D01*
X668Y638D01*
X666Y638D01*
X666Y634D01*
X664Y634D01*
X664Y632D01*
X662Y632D01*
X662Y628D01*
X660Y628D01*
X660Y626D01*
X658Y626D01*
X658Y622D01*
X656Y622D01*
X656Y620D01*
X654Y620D01*
X654Y618D01*
X652Y618D01*
X652Y616D01*
X648Y616D01*
X648Y614D01*
X858Y614D01*
X858Y616D01*
X856Y616D01*
X856Y618D01*
X854Y618D01*
X854Y620D01*
X852Y620D01*
X852Y622D01*
X850Y622D01*
X850Y624D01*
X848Y624D01*
X848Y626D01*
X846Y626D01*
X846Y628D01*
X844Y628D01*
X844Y630D01*
X842Y630D01*
X842Y632D01*
X840Y632D01*
X840Y634D01*
X838Y634D01*
X838Y638D01*
X836Y638D01*
X836Y640D01*
X834Y640D01*
X834Y642D01*
X832Y642D01*
X832Y644D01*
X724Y644D01*
X724Y656D01*
X704Y656D01*
G37*
D02*
G36*
X1138Y648D02*
X1138Y646D01*
X1140Y646D01*
X1140Y644D01*
X1142Y644D01*
X1142Y642D01*
X1144Y642D01*
X1144Y638D01*
X1146Y638D01*
X1146Y636D01*
X1158Y636D01*
X1158Y634D01*
X1214Y634D01*
X1214Y632D01*
X1270Y632D01*
X1270Y646D01*
X1272Y646D01*
X1272Y648D01*
X1138Y648D01*
G37*
D02*
G36*
X336Y614D02*
X336Y612D01*
X860Y612D01*
X860Y614D01*
X336Y614D01*
G37*
D02*
G36*
X336Y614D02*
X336Y612D01*
X860Y612D01*
X860Y614D01*
X336Y614D01*
G37*
D02*
G36*
X336Y612D02*
X336Y546D01*
X334Y546D01*
X334Y446D01*
X336Y446D01*
X336Y444D01*
X338Y444D01*
X338Y440D01*
X340Y440D01*
X340Y438D01*
X342Y438D01*
X342Y434D01*
X344Y434D01*
X344Y426D01*
X346Y426D01*
X346Y424D01*
X348Y424D01*
X348Y422D01*
X350Y422D01*
X350Y420D01*
X352Y420D01*
X352Y418D01*
X354Y418D01*
X354Y416D01*
X358Y416D01*
X358Y414D01*
X360Y414D01*
X360Y412D01*
X362Y412D01*
X362Y410D01*
X366Y410D01*
X366Y408D01*
X368Y408D01*
X368Y406D01*
X370Y406D01*
X370Y404D01*
X374Y404D01*
X374Y402D01*
X376Y402D01*
X376Y400D01*
X378Y400D01*
X378Y398D01*
X382Y398D01*
X382Y396D01*
X384Y396D01*
X384Y394D01*
X386Y394D01*
X386Y392D01*
X388Y392D01*
X388Y390D01*
X392Y390D01*
X392Y388D01*
X394Y388D01*
X394Y386D01*
X396Y386D01*
X396Y384D01*
X400Y384D01*
X400Y382D01*
X402Y382D01*
X402Y380D01*
X404Y380D01*
X404Y378D01*
X408Y378D01*
X408Y376D01*
X410Y376D01*
X410Y374D01*
X412Y374D01*
X412Y372D01*
X416Y372D01*
X416Y370D01*
X418Y370D01*
X418Y368D01*
X420Y368D01*
X420Y366D01*
X424Y366D01*
X424Y364D01*
X426Y364D01*
X426Y362D01*
X428Y362D01*
X428Y360D01*
X430Y360D01*
X430Y358D01*
X434Y358D01*
X434Y356D01*
X436Y356D01*
X436Y354D01*
X438Y354D01*
X438Y352D01*
X442Y352D01*
X442Y350D01*
X444Y350D01*
X444Y348D01*
X446Y348D01*
X446Y346D01*
X450Y346D01*
X450Y344D01*
X452Y344D01*
X452Y342D01*
X454Y342D01*
X454Y340D01*
X458Y340D01*
X458Y338D01*
X460Y338D01*
X460Y336D01*
X462Y336D01*
X462Y334D01*
X464Y334D01*
X464Y332D01*
X468Y332D01*
X468Y330D01*
X470Y330D01*
X470Y328D01*
X472Y328D01*
X472Y326D01*
X476Y326D01*
X476Y324D01*
X478Y324D01*
X478Y322D01*
X480Y322D01*
X480Y320D01*
X484Y320D01*
X484Y318D01*
X486Y318D01*
X486Y316D01*
X488Y316D01*
X488Y314D01*
X492Y314D01*
X492Y312D01*
X494Y312D01*
X494Y310D01*
X496Y310D01*
X496Y308D01*
X500Y308D01*
X500Y306D01*
X502Y306D01*
X502Y304D01*
X504Y304D01*
X504Y302D01*
X506Y302D01*
X506Y300D01*
X510Y300D01*
X510Y298D01*
X512Y298D01*
X512Y296D01*
X514Y296D01*
X514Y294D01*
X518Y294D01*
X518Y292D01*
X520Y292D01*
X520Y290D01*
X522Y290D01*
X522Y288D01*
X526Y288D01*
X526Y286D01*
X528Y286D01*
X528Y284D01*
X530Y284D01*
X530Y282D01*
X534Y282D01*
X534Y280D01*
X536Y280D01*
X536Y278D01*
X538Y278D01*
X538Y276D01*
X540Y276D01*
X540Y274D01*
X544Y274D01*
X544Y272D01*
X546Y272D01*
X546Y270D01*
X548Y270D01*
X548Y268D01*
X552Y268D01*
X552Y266D01*
X554Y266D01*
X554Y264D01*
X556Y264D01*
X556Y262D01*
X560Y262D01*
X560Y260D01*
X562Y260D01*
X562Y258D01*
X564Y258D01*
X564Y256D01*
X568Y256D01*
X568Y254D01*
X570Y254D01*
X570Y252D01*
X572Y252D01*
X572Y250D01*
X576Y250D01*
X576Y248D01*
X578Y248D01*
X578Y246D01*
X580Y246D01*
X580Y244D01*
X582Y244D01*
X582Y242D01*
X586Y242D01*
X586Y240D01*
X588Y240D01*
X588Y238D01*
X590Y238D01*
X590Y236D01*
X594Y236D01*
X594Y234D01*
X596Y234D01*
X596Y232D01*
X598Y232D01*
X598Y230D01*
X602Y230D01*
X602Y228D01*
X604Y228D01*
X604Y226D01*
X606Y226D01*
X606Y224D01*
X610Y224D01*
X610Y222D01*
X612Y222D01*
X612Y220D01*
X614Y220D01*
X614Y218D01*
X616Y218D01*
X616Y216D01*
X758Y216D01*
X758Y214D01*
X766Y214D01*
X766Y212D01*
X772Y212D01*
X772Y210D01*
X776Y210D01*
X776Y208D01*
X778Y208D01*
X778Y206D01*
X782Y206D01*
X782Y204D01*
X784Y204D01*
X784Y202D01*
X786Y202D01*
X786Y200D01*
X788Y200D01*
X788Y198D01*
X790Y198D01*
X790Y196D01*
X792Y196D01*
X792Y194D01*
X794Y194D01*
X794Y190D01*
X796Y190D01*
X796Y186D01*
X798Y186D01*
X798Y184D01*
X920Y184D01*
X920Y220D01*
X938Y220D01*
X938Y240D01*
X936Y240D01*
X936Y242D01*
X934Y242D01*
X934Y244D01*
X932Y244D01*
X932Y246D01*
X930Y246D01*
X930Y248D01*
X928Y248D01*
X928Y250D01*
X926Y250D01*
X926Y252D01*
X922Y252D01*
X922Y254D01*
X920Y254D01*
X920Y256D01*
X918Y256D01*
X918Y258D01*
X916Y258D01*
X916Y260D01*
X914Y260D01*
X914Y262D01*
X912Y262D01*
X912Y264D01*
X908Y264D01*
X908Y266D01*
X906Y266D01*
X906Y268D01*
X904Y268D01*
X904Y270D01*
X902Y270D01*
X902Y272D01*
X900Y272D01*
X900Y274D01*
X898Y274D01*
X898Y276D01*
X894Y276D01*
X894Y278D01*
X892Y278D01*
X892Y280D01*
X890Y280D01*
X890Y282D01*
X888Y282D01*
X888Y284D01*
X886Y284D01*
X886Y286D01*
X884Y286D01*
X884Y296D01*
X882Y296D01*
X882Y476D01*
X880Y476D01*
X880Y592D01*
X878Y592D01*
X878Y594D01*
X876Y594D01*
X876Y596D01*
X874Y596D01*
X874Y598D01*
X872Y598D01*
X872Y600D01*
X870Y600D01*
X870Y602D01*
X868Y602D01*
X868Y604D01*
X866Y604D01*
X866Y606D01*
X864Y606D01*
X864Y610D01*
X862Y610D01*
X862Y612D01*
X336Y612D01*
G37*
D02*
G36*
X620Y216D02*
X620Y214D01*
X622Y214D01*
X622Y212D01*
X642Y212D01*
X642Y214D01*
X650Y214D01*
X650Y216D01*
X620Y216D01*
G37*
D02*
G36*
X658Y216D02*
X658Y214D01*
X666Y214D01*
X666Y212D01*
X672Y212D01*
X672Y210D01*
X676Y210D01*
X676Y208D01*
X678Y208D01*
X678Y206D01*
X682Y206D01*
X682Y204D01*
X684Y204D01*
X684Y202D01*
X686Y202D01*
X686Y200D01*
X688Y200D01*
X688Y198D01*
X690Y198D01*
X690Y196D01*
X692Y196D01*
X692Y194D01*
X694Y194D01*
X694Y192D01*
X714Y192D01*
X714Y194D01*
X716Y194D01*
X716Y196D01*
X718Y196D01*
X718Y198D01*
X720Y198D01*
X720Y200D01*
X722Y200D01*
X722Y202D01*
X724Y202D01*
X724Y204D01*
X726Y204D01*
X726Y206D01*
X728Y206D01*
X728Y208D01*
X732Y208D01*
X732Y210D01*
X736Y210D01*
X736Y212D01*
X742Y212D01*
X742Y214D01*
X750Y214D01*
X750Y216D01*
X658Y216D01*
G37*
D02*
G36*
X1292Y168D02*
X1292Y166D01*
X1288Y166D01*
X1288Y164D01*
X1286Y164D01*
X1286Y162D01*
X1284Y162D01*
X1284Y160D01*
X1280Y160D01*
X1280Y158D01*
X1278Y158D01*
X1278Y154D01*
X1276Y154D01*
X1276Y148D01*
X1274Y148D01*
X1274Y144D01*
X1272Y144D01*
X1272Y140D01*
X1270Y140D01*
X1270Y138D01*
X1268Y138D01*
X1268Y136D01*
X1266Y136D01*
X1266Y134D01*
X1262Y134D01*
X1262Y132D01*
X1260Y132D01*
X1260Y130D01*
X1254Y130D01*
X1254Y128D01*
X1312Y128D01*
X1312Y140D01*
X1318Y140D01*
X1318Y168D01*
X1292Y168D01*
G37*
D02*
G36*
X1170Y142D02*
X1170Y138D01*
X1200Y138D01*
X1200Y140D01*
X1192Y140D01*
X1192Y142D01*
X1170Y142D01*
G37*
D02*
G36*
X1204Y140D02*
X1204Y138D01*
X1226Y138D01*
X1226Y140D01*
X1204Y140D01*
G37*
D02*
G36*
X1170Y138D02*
X1170Y136D01*
X1228Y136D01*
X1228Y138D01*
X1170Y138D01*
G37*
D02*
G36*
X1170Y138D02*
X1170Y136D01*
X1228Y136D01*
X1228Y138D01*
X1170Y138D01*
G37*
D02*
G36*
X1170Y136D02*
X1170Y128D01*
X1242Y128D01*
X1242Y130D01*
X1236Y130D01*
X1236Y132D01*
X1234Y132D01*
X1234Y134D01*
X1230Y134D01*
X1230Y136D01*
X1170Y136D01*
G37*
D02*
G36*
X1170Y128D02*
X1170Y126D01*
X1312Y126D01*
X1312Y128D01*
X1170Y128D01*
G37*
D02*
G36*
X1170Y128D02*
X1170Y126D01*
X1312Y126D01*
X1312Y128D01*
X1170Y128D01*
G37*
D02*
G36*
X1170Y126D02*
X1170Y112D01*
X1142Y112D01*
X1142Y102D01*
X1140Y102D01*
X1140Y92D01*
X1138Y92D01*
X1138Y84D01*
X1312Y84D01*
X1312Y126D01*
X1170Y126D01*
G37*
D02*
G36*
X1138Y84D02*
X1138Y82D01*
X1452Y82D01*
X1452Y84D01*
X1138Y84D01*
G37*
D02*
G36*
X1138Y84D02*
X1138Y82D01*
X1452Y82D01*
X1452Y84D01*
X1138Y84D01*
G37*
D02*
G36*
X1136Y82D02*
X1136Y72D01*
X1134Y72D01*
X1134Y62D01*
X1132Y62D01*
X1132Y40D01*
X1452Y40D01*
X1452Y82D01*
X1136Y82D01*
G37*
D02*
G36*
X1078Y1036D02*
X1078Y728D01*
X1106Y728D01*
X1106Y878D01*
X1104Y878D01*
X1104Y976D01*
X1106Y976D01*
X1106Y980D01*
X1108Y980D01*
X1108Y984D01*
X1110Y984D01*
X1110Y988D01*
X1112Y988D01*
X1112Y992D01*
X1114Y992D01*
X1114Y1014D01*
X1112Y1014D01*
X1112Y1016D01*
X1110Y1016D01*
X1110Y1018D01*
X1108Y1018D01*
X1108Y1020D01*
X1106Y1020D01*
X1106Y1022D01*
X1104Y1022D01*
X1104Y1026D01*
X1102Y1026D01*
X1102Y1028D01*
X1100Y1028D01*
X1100Y1032D01*
X1098Y1032D01*
X1098Y1036D01*
X1078Y1036D01*
G37*
D02*
G36*
X1010Y770D02*
X1010Y764D01*
X1008Y764D01*
X1008Y758D01*
X1006Y758D01*
X1006Y750D01*
X1004Y750D01*
X1004Y744D01*
X1002Y744D01*
X1002Y738D01*
X1000Y738D01*
X1000Y732D01*
X998Y732D01*
X998Y728D01*
X1030Y728D01*
X1030Y770D01*
X1010Y770D01*
G37*
D02*
G36*
X998Y728D02*
X998Y726D01*
X1106Y726D01*
X1106Y728D01*
X998Y728D01*
G37*
D02*
G36*
X998Y728D02*
X998Y726D01*
X1106Y726D01*
X1106Y728D01*
X998Y728D01*
G37*
D02*
G36*
X998Y726D02*
X998Y724D01*
X996Y724D01*
X996Y718D01*
X994Y718D01*
X994Y712D01*
X992Y712D01*
X992Y706D01*
X990Y706D01*
X990Y698D01*
X988Y698D01*
X988Y692D01*
X986Y692D01*
X986Y686D01*
X984Y686D01*
X984Y678D01*
X982Y678D01*
X982Y672D01*
X980Y672D01*
X980Y666D01*
X978Y666D01*
X978Y640D01*
X980Y640D01*
X980Y634D01*
X982Y634D01*
X982Y620D01*
X980Y620D01*
X980Y616D01*
X978Y616D01*
X978Y612D01*
X976Y612D01*
X976Y610D01*
X974Y610D01*
X974Y608D01*
X972Y608D01*
X972Y606D01*
X970Y606D01*
X970Y604D01*
X968Y604D01*
X968Y602D01*
X964Y602D01*
X964Y600D01*
X960Y600D01*
X960Y598D01*
X1270Y598D01*
X1270Y604D01*
X1214Y604D01*
X1214Y606D01*
X1158Y606D01*
X1158Y608D01*
X1136Y608D01*
X1136Y610D01*
X1132Y610D01*
X1132Y612D01*
X1130Y612D01*
X1130Y614D01*
X1128Y614D01*
X1128Y618D01*
X1126Y618D01*
X1126Y620D01*
X1124Y620D01*
X1124Y622D01*
X1122Y622D01*
X1122Y624D01*
X1120Y624D01*
X1120Y626D01*
X1118Y626D01*
X1118Y628D01*
X1116Y628D01*
X1116Y630D01*
X1114Y630D01*
X1114Y632D01*
X1112Y632D01*
X1112Y634D01*
X1110Y634D01*
X1110Y638D01*
X1108Y638D01*
X1108Y712D01*
X1106Y712D01*
X1106Y726D01*
X998Y726D01*
G37*
D02*
G36*
X870Y662D02*
X870Y642D01*
X872Y642D01*
X872Y640D01*
X874Y640D01*
X874Y638D01*
X876Y638D01*
X876Y636D01*
X878Y636D01*
X878Y632D01*
X880Y632D01*
X880Y630D01*
X882Y630D01*
X882Y628D01*
X884Y628D01*
X884Y626D01*
X886Y626D01*
X886Y624D01*
X888Y624D01*
X888Y622D01*
X890Y622D01*
X890Y620D01*
X892Y620D01*
X892Y618D01*
X894Y618D01*
X894Y616D01*
X896Y616D01*
X896Y614D01*
X898Y614D01*
X898Y612D01*
X900Y612D01*
X900Y610D01*
X902Y610D01*
X902Y608D01*
X904Y608D01*
X904Y604D01*
X906Y604D01*
X906Y600D01*
X908Y600D01*
X908Y598D01*
X946Y598D01*
X946Y600D01*
X940Y600D01*
X940Y602D01*
X938Y602D01*
X938Y604D01*
X936Y604D01*
X936Y606D01*
X932Y606D01*
X932Y608D01*
X930Y608D01*
X930Y612D01*
X928Y612D01*
X928Y614D01*
X926Y614D01*
X926Y618D01*
X924Y618D01*
X924Y626D01*
X922Y626D01*
X922Y628D01*
X924Y628D01*
X924Y636D01*
X926Y636D01*
X926Y640D01*
X928Y640D01*
X928Y644D01*
X930Y644D01*
X930Y662D01*
X870Y662D01*
G37*
D02*
G36*
X908Y598D02*
X908Y596D01*
X1270Y596D01*
X1270Y598D01*
X908Y598D01*
G37*
D02*
G36*
X908Y598D02*
X908Y596D01*
X1270Y596D01*
X1270Y598D01*
X908Y598D01*
G37*
D02*
G36*
X908Y596D02*
X908Y478D01*
X910Y478D01*
X910Y464D01*
X1126Y464D01*
X1126Y358D01*
X1124Y358D01*
X1124Y356D01*
X1154Y356D01*
X1154Y374D01*
X1156Y374D01*
X1156Y396D01*
X1158Y396D01*
X1158Y400D01*
X1160Y400D01*
X1160Y402D01*
X1162Y402D01*
X1162Y404D01*
X1164Y404D01*
X1164Y408D01*
X1166Y408D01*
X1166Y410D01*
X1168Y410D01*
X1168Y412D01*
X1170Y412D01*
X1170Y414D01*
X1172Y414D01*
X1172Y416D01*
X1174Y416D01*
X1174Y418D01*
X1176Y418D01*
X1176Y420D01*
X1178Y420D01*
X1178Y422D01*
X1180Y422D01*
X1180Y424D01*
X1182Y424D01*
X1182Y426D01*
X1184Y426D01*
X1184Y428D01*
X1186Y428D01*
X1186Y430D01*
X1188Y430D01*
X1188Y432D01*
X1190Y432D01*
X1190Y434D01*
X1192Y434D01*
X1192Y436D01*
X1194Y436D01*
X1194Y440D01*
X1196Y440D01*
X1196Y442D01*
X1198Y442D01*
X1198Y444D01*
X1200Y444D01*
X1200Y446D01*
X1202Y446D01*
X1202Y448D01*
X1204Y448D01*
X1204Y450D01*
X1206Y450D01*
X1206Y452D01*
X1208Y452D01*
X1208Y454D01*
X1210Y454D01*
X1210Y456D01*
X1212Y456D01*
X1212Y458D01*
X1214Y458D01*
X1214Y460D01*
X1216Y460D01*
X1216Y462D01*
X1218Y462D01*
X1218Y464D01*
X1224Y464D01*
X1224Y466D01*
X1286Y466D01*
X1286Y496D01*
X1386Y496D01*
X1386Y558D01*
X1384Y558D01*
X1384Y562D01*
X1382Y562D01*
X1382Y566D01*
X1380Y566D01*
X1380Y570D01*
X1378Y570D01*
X1378Y574D01*
X1376Y574D01*
X1376Y578D01*
X1374Y578D01*
X1374Y582D01*
X1372Y582D01*
X1372Y584D01*
X1270Y584D01*
X1270Y596D01*
X908Y596D01*
G37*
D02*
G36*
X910Y464D02*
X910Y356D01*
X964Y356D01*
X964Y464D01*
X910Y464D01*
G37*
D02*
G36*
X910Y356D02*
X910Y354D01*
X1154Y354D01*
X1154Y356D01*
X910Y356D01*
G37*
D02*
G36*
X910Y356D02*
X910Y354D01*
X1154Y354D01*
X1154Y356D01*
X910Y356D01*
G37*
D02*
G36*
X910Y354D02*
X910Y300D01*
X912Y300D01*
X912Y298D01*
X914Y298D01*
X914Y296D01*
X916Y296D01*
X916Y294D01*
X920Y294D01*
X920Y292D01*
X922Y292D01*
X922Y290D01*
X924Y290D01*
X924Y288D01*
X926Y288D01*
X926Y286D01*
X928Y286D01*
X928Y284D01*
X930Y284D01*
X930Y282D01*
X934Y282D01*
X934Y280D01*
X936Y280D01*
X936Y278D01*
X938Y278D01*
X938Y276D01*
X940Y276D01*
X940Y274D01*
X942Y274D01*
X942Y272D01*
X944Y272D01*
X944Y270D01*
X948Y270D01*
X948Y268D01*
X950Y268D01*
X950Y266D01*
X952Y266D01*
X952Y264D01*
X954Y264D01*
X954Y262D01*
X956Y262D01*
X956Y260D01*
X958Y260D01*
X958Y258D01*
X960Y258D01*
X960Y256D01*
X964Y256D01*
X964Y254D01*
X966Y254D01*
X966Y252D01*
X968Y252D01*
X968Y250D01*
X970Y250D01*
X970Y248D01*
X972Y248D01*
X972Y246D01*
X974Y246D01*
X974Y244D01*
X978Y244D01*
X978Y242D01*
X980Y242D01*
X980Y240D01*
X982Y240D01*
X982Y238D01*
X984Y238D01*
X984Y236D01*
X986Y236D01*
X986Y234D01*
X988Y234D01*
X988Y232D01*
X992Y232D01*
X992Y230D01*
X994Y230D01*
X994Y228D01*
X996Y228D01*
X996Y226D01*
X998Y226D01*
X998Y224D01*
X1000Y224D01*
X1000Y222D01*
X1002Y222D01*
X1002Y220D01*
X1078Y220D01*
X1078Y112D01*
X1102Y112D01*
X1102Y220D01*
X1118Y220D01*
X1118Y260D01*
X1120Y260D01*
X1120Y262D01*
X1122Y262D01*
X1122Y264D01*
X1124Y264D01*
X1124Y266D01*
X1126Y266D01*
X1126Y268D01*
X1128Y268D01*
X1128Y270D01*
X1130Y270D01*
X1130Y272D01*
X1134Y272D01*
X1134Y274D01*
X1136Y274D01*
X1136Y276D01*
X1138Y276D01*
X1138Y278D01*
X1140Y278D01*
X1140Y284D01*
X1142Y284D01*
X1142Y288D01*
X1144Y288D01*
X1144Y292D01*
X1146Y292D01*
X1146Y296D01*
X1148Y296D01*
X1148Y298D01*
X1150Y298D01*
X1150Y300D01*
X1152Y300D01*
X1152Y314D01*
X1154Y314D01*
X1154Y354D01*
X910Y354D01*
G37*
D02*
G36*
X988Y180D02*
X988Y112D01*
X1010Y112D01*
X1010Y178D01*
X1008Y178D01*
X1008Y180D01*
X988Y180D01*
G37*
D02*
G36*
X900Y114D02*
X900Y112D01*
X920Y112D01*
X920Y114D01*
X900Y114D01*
G37*
D02*
G36*
X900Y112D02*
X900Y110D01*
X1102Y110D01*
X1102Y112D01*
X900Y112D01*
G37*
D02*
G36*
X900Y112D02*
X900Y110D01*
X1102Y110D01*
X1102Y112D01*
X900Y112D01*
G37*
D02*
G36*
X900Y112D02*
X900Y110D01*
X1102Y110D01*
X1102Y112D01*
X900Y112D01*
G37*
D02*
G36*
X900Y110D02*
X900Y108D01*
X898Y108D01*
X898Y106D01*
X896Y106D01*
X896Y84D01*
X1102Y84D01*
X1102Y110D01*
X900Y110D01*
G37*
D02*
G04 End of Copper1*
M02*