G04 #@! TF.FileFunction,Soldermask,Bot*
%FSLAX46Y46*%
G04 Gerber Fmt 4.6, Leading zero omitted, Abs format (unit mm)*
G04 Created by KiCad (PCBNEW 4.0.0-rc2-stable) date 7/22/2016 8:43:15 PM*
%MOMM*%
G01*
G04 APERTURE LIST*
%ADD10C,0.100000*%
%ADD11C,4.000000*%
%ADD12R,0.800000X0.750000*%
%ADD13R,1.727200X1.727200*%
%ADD14O,1.727200X1.727200*%
%ADD15R,2.032000X2.032000*%
%ADD16O,2.032000X2.032000*%
%ADD17R,1.700000X2.500000*%
%ADD18R,1.727200X2.032000*%
%ADD19O,1.727200X2.032000*%
%ADD20R,0.500000X0.900000*%
%ADD21C,1.998980*%
%ADD22R,0.749300X1.501140*%
%ADD23R,1.399540X1.899920*%
%ADD24R,1.800860X1.399540*%
%ADD25R,1.060000X0.650000*%
%ADD26R,0.889000X1.399540*%
%ADD27R,0.899160X1.399540*%
G04 APERTURE END LIST*
D10*
D11*
X130541200Y-116318800D03*
X171689200Y-116318800D03*
X171689200Y-75170800D03*
D12*
X140859200Y-91618800D03*
X139359200Y-91618800D03*
D13*
X128219200Y-107238800D03*
D14*
X130759200Y-107238800D03*
X128219200Y-104698800D03*
X130759200Y-104698800D03*
X128219200Y-102158800D03*
X130759200Y-102158800D03*
X128219200Y-99618800D03*
X130759200Y-99618800D03*
X128219200Y-97078800D03*
X130759200Y-97078800D03*
X128219200Y-94538800D03*
X130759200Y-94538800D03*
X128219200Y-91998800D03*
X130759200Y-91998800D03*
X128219200Y-89458800D03*
X130759200Y-89458800D03*
X128219200Y-86918800D03*
X130759200Y-86918800D03*
X128219200Y-84378800D03*
X130759200Y-84378800D03*
D15*
X159969200Y-74218800D03*
D16*
X162509200Y-74218800D03*
D17*
X164855080Y-84759760D03*
X154695080Y-84759760D03*
X162315080Y-84759760D03*
X159775080Y-84759760D03*
X157235080Y-84759760D03*
D18*
X149809200Y-118668800D03*
D19*
X147269200Y-118668800D03*
X144729200Y-118668800D03*
X142189200Y-118668800D03*
X139649200Y-118668800D03*
X137109200Y-118668800D03*
D17*
X157257560Y-88356480D03*
X154717560Y-88356480D03*
D13*
X171399200Y-107238800D03*
D14*
X173939200Y-107238800D03*
X171399200Y-104698800D03*
X173939200Y-104698800D03*
X171399200Y-102158800D03*
X173939200Y-102158800D03*
X171399200Y-99618800D03*
X173939200Y-99618800D03*
X171399200Y-97078800D03*
X173939200Y-97078800D03*
X171399200Y-94538800D03*
X173939200Y-94538800D03*
X171399200Y-91998800D03*
X173939200Y-91998800D03*
X171399200Y-89458800D03*
X173939200Y-89458800D03*
X171399200Y-86918800D03*
X173939200Y-86918800D03*
X171399200Y-84378800D03*
X173939200Y-84378800D03*
D17*
X159790320Y-88391960D03*
D20*
X135279200Y-91598800D03*
X133779200Y-91598800D03*
X136479200Y-91628800D03*
X137979200Y-91628800D03*
X139329200Y-94268800D03*
X137829200Y-94268800D03*
D21*
X163177220Y-81650840D03*
X142577820Y-110340140D03*
D22*
X138130280Y-76758800D03*
X137030460Y-76758800D03*
X139230100Y-76558140D03*
X140329920Y-76758800D03*
X144729200Y-76758800D03*
X143629380Y-77157580D03*
X142529560Y-76758800D03*
X141429740Y-76558140D03*
D23*
X136329420Y-73908920D03*
X149578060Y-72809100D03*
D24*
X137878820Y-87058500D03*
X143680180Y-87058500D03*
D25*
X134279200Y-95018800D03*
X134279200Y-94068800D03*
X134279200Y-93118800D03*
X136479200Y-93118800D03*
X136479200Y-95018800D03*
X136479200Y-94068800D03*
D15*
X151724800Y-77787000D03*
D16*
X154264800Y-77787000D03*
D26*
X131742620Y-110095800D03*
D27*
X127942780Y-110095800D03*
D26*
X129842700Y-110095800D03*
X139172120Y-101205800D03*
D27*
X135372280Y-101205800D03*
D26*
X137272200Y-101205800D03*
D11*
X130541200Y-75170800D03*
M02*
