M48
INCH,TZ
T10C0.016
T11C0.040
T12C0.079
T13C0.126
%
T10
X047571Y-36610
X048874Y-37004
X049697Y-34467
X049889Y-45681
X050132Y-45387
X050357Y-33315
X050372Y-45147
X050394Y-36791
X050399Y-34314
X050408Y-33795
X050517Y-38186
X050609Y-44925
X050673Y-46138
X050740Y-37906
X050793Y-38648
X050823Y-39037
X050847Y-39749
X050897Y-44793
X050972Y-48181
X051035Y-39280
X051179Y-36507
X051182Y-33789
X051253Y-41297
X051287Y-40908
X051364Y-42487
X051467Y-41601
X051512Y-41121
X051606Y-34901
X051629Y-46223
X051793Y-39748
X051947Y-39085
X052031Y-47850
X052034Y-37332
X052053Y-39588
X052190Y-38148
X052201Y-38589
X052295Y-34935
X052442Y-37257
X052626Y-47732
X052695Y-34949
X052700Y-36044
X052711Y-34053
X052768Y-47224
X052772Y-33303
X052917Y-45634
X052917Y-45941
X052931Y-34641
X053114Y-37002
X053441Y-38917
X053533Y-40308
X053533Y-40617
X053545Y-40007
X053697Y-45935
X053750Y-45435
X053795Y-34989
X053816Y-33263
X053897Y-41295
X053915Y-40067
X054000Y-44819
X054053Y-46081
X054069Y-41923
X054173Y-43791
X054260Y-45205
X054272Y-37051
X054281Y-36378
X054293Y-34208
X054446Y-35531
X054463Y-33158
X054487Y-43799
X054504Y-45008
X054725Y-44265
X054725Y-45715
X054855Y-45431
X054953Y-44033
X054983Y-43095
X055082Y-46062
X055093Y-34528
X055094Y-34157
X055207Y-47845
X055213Y-41333
X055232Y-32094
X055260Y-33630
X055457Y-32831
X055559Y-36646
X055665Y-32087
X055674Y-37866
X055689Y-33429
X055753Y-40088
X055764Y-44751
X055889Y-36615
X055933Y-39848
X055952Y-45108
X055992Y-37114
X056000Y-44134
X056264Y-40659
X056471Y-35136
X056613Y-35808
X057051Y-44072
X057130Y-35224
X057231Y-37776
X057236Y-39685
X057411Y-36683
X057497Y-41444
X057513Y-43108
X057542Y-38280
X057564Y-44661
X057720Y-40079
X057807Y-44360
X057870Y-36912
X057956Y-41154
X057961Y-40780
X058033Y-46568
X058113Y-36606
X058424Y-36512
X058473Y-41688
X058509Y-45723
X058533Y-39748
X058550Y-43068
X058829Y-45597
X058873Y-43508
X059040Y-36309
X059117Y-37641
X059130Y-45507
X059153Y-38208
X059153Y-38548
X059199Y-36835
X059354Y-37383
X059624Y-36084
X059665Y-45244
X059713Y-34308
X059832Y-47006
X059852Y-44469
X059924Y-45027
X059972Y-45500
X060062Y-47564
X060073Y-41868
X060209Y-34764
X060313Y-43808
X060433Y-34008
X060503Y-38357
X060704Y-44991
X060833Y-34698
X060993Y-35848
X061073Y-34268
X061095Y-36349
X061119Y-45777
X061133Y-34588
X061133Y-35328
X061393Y-33908
X061393Y-36268
X061511Y-45732
X061513Y-34968
X061728Y-48280
X061853Y-36368
X061913Y-46808
X062113Y-42508
X062142Y-43102
X062153Y-35688
X062567Y-37077
X064921Y-44248
T11
X048213Y-35508
X048213Y-36508
X048213Y-37508
X048213Y-38508
X048213Y-39508
X048213Y-40508
X048213Y-41508
X048213Y-42508
X048213Y-43508
X048213Y-44508
X049213Y-35508
X049213Y-36508
X049213Y-37508
X049213Y-38508
X049213Y-39508
X049213Y-40508
X049213Y-41508
X049213Y-42508
X049213Y-43508
X049213Y-44508
X051213Y-32508
X052213Y-32508
X053713Y-32508
X054713Y-32508
X056213Y-32508
X057213Y-32508
X058213Y-32508
X059213Y-32508
X060213Y-32508
X061213Y-32508
X063213Y-35508
X063213Y-36508
X063213Y-37508
X063213Y-38508
X063213Y-39508
X063213Y-40508
X063213Y-41508
X063213Y-42508
X063213Y-43508
X063213Y-44508
X064213Y-35508
X064213Y-36508
X064213Y-37508
X064213Y-38508
X064213Y-39508
X064213Y-40508
X064213Y-41508
X064213Y-42508
X064213Y-43508
X064213Y-44508
T12
X052366Y-46729
X060476Y-35434
T13
X048813Y-33008
X048813Y-47008
X063613Y-47008
X063713Y-33108
M30

