<?xml version='1.0' encoding='UTF-8' standalone='no'?>
<!-- Created with Fritzing (http://www.fritzing.org/) -->
<svg xmlns="http://www.w3.org/2000/svg"  version="1.2" xmlns:svg="http://www.w3.org/2000/svg" viewBox="0 0 107.537 115.368" width="1.49357in" x="0in" height="1.60234in" y="0in" baseProfile="tiny">
 <g partID="57360">
  <g  id="board">
   <rect  id="boardoutline" fill="none" stroke="black" stroke-width="0.5" fill-opacity="0.5" width="106.961" height="114.792" x="0.288" y="0.288"/>
  </g>
 </g>
 <g partID="145210">
  <g transform="translate(7.9992,3.11536)">
   <g  id="copper0">
    <circle  r="0.992124" id="connector0pin" fill="black" stroke-width="1.57039" stroke="black" cx="3.01733" cy="3.01733"/>
   </g>
  </g>
 </g>
 <g partID="148390">
  <g transform="translate(77.0259,22.9161)">
   <g  id="copper0">
    <circle  r="0.992124" id="connector0pin" fill="black" stroke-width="1.57039" stroke="black" cx="3.01733" cy="3.01733"/>
   </g>
  </g>
 </g>
 <g partID="149780">
  <g transform="translate(16.628,13.1003)">
   <g  id="copper0">
    <circle  r="0.992124" id="connector0pin" fill="black" stroke-width="1.57039" stroke="black" cx="3.01733" cy="3.01733"/>
   </g>
  </g>
 </g>
 <g partID="149820">
  <g transform="translate(16.8848,39.3092)">
   <g  id="copper0">
    <circle  r="0.992124" id="connector0pin" fill="black" stroke-width="1.57039" stroke="black" cx="3.01733" cy="3.01733"/>
   </g>
  </g>
 </g>
 <g partID="152470">
  <g transform="translate(79.1722,33.7771)">
   <g  id="copper0">
    <circle  r="0.992124" id="connector0pin" fill="black" stroke-width="1.57039" stroke="black" cx="3.01733" cy="3.01733"/>
   </g>
  </g>
 </g>
 <g partID="152510">
  <g transform="translate(69.7453,0.92552)">
   <g  id="copper0">
    <circle  r="0.992124" id="connector0pin" fill="black" stroke-width="1.57039" stroke="black" cx="3.01733" cy="3.01733"/>
   </g>
  </g>
 </g>
 <g partID="153230">
  <g transform="translate(1.4832,71.7925)">
   <g  id="copper0">
    <circle  r="0.992124" id="connector0pin" fill="black" stroke-width="1.57039" stroke="black" cx="3.01733" cy="3.01733"/>
   </g>
  </g>
 </g>
 <g partID="120250">
  <g transform="translate(59.5984,98.3338)">
   <g transform="matrix(0,1,-1,0,0,0)">
    <g  id="copper0">
     <circle  id="connector0pin" r="2.088" fill="black" stroke="black" stroke-width="2.16" cx="5.04" cy="5.04"/>
     <circle  id="connector1pin" r="2.088" fill="black" stroke="black" stroke-width="2.16" cx="5.04" cy="12.24"/>
    </g>
   </g>
  </g>
 </g>
 <g partID="128630">
  <g transform="translate(58.373,55.8284)">
   <g  id="copper0">
    <circle  r="0.992124" id="connector0pin" fill="black" stroke-width="1.57039" stroke="black" cx="3.01732" cy="3.01732"/>
   </g>
  </g>
 </g>
 <g partID="128750">
  <g transform="translate(50.597,60.1484)">
   <g  id="copper0">
    <circle  r="0.992124" id="connector0pin" fill="black" stroke-width="1.57039" stroke="black" cx="3.01732" cy="3.01732"/>
   </g>
  </g>
 </g>
 <g partID="130970">
  <g transform="translate(38.0362,47.4758)">
   <g  id="copper0">
    <circle  r="0.992124" id="connector0pin" fill="black" stroke-width="1.57039" stroke="black" cx="3.01733" cy="3.01733"/>
   </g>
  </g>
 </g>
 <g partID="131490">
  <g transform="translate(65.8548,67.1523)">
   <g  id="copper0">
    <circle  r="0.992124" id="connector0pin" fill="black" stroke-width="1.57039" stroke="black" cx="3.01733" cy="3.01733"/>
   </g>
  </g>
 </g>
 <g partID="150960">
  <g transform="translate(17.876,87.1965)">
   <g transform="matrix(-1,0,0,-1,0,0)">
    <g  id="copper0">
     <rect  id="square" fill="black" stroke="black" stroke-width="2.16" width="4.176" height="4.176" x="2.952" y="2.952"/>
     <circle  id="connector0pin" r="2.088" fill="black" stroke="black" stroke-width="2.16" cx="5.04" cy="5.04"/>
     <circle  id="connector1pin" r="2.088" fill="black" stroke="black" stroke-width="2.16" cx="5.04" cy="12.24"/>
    </g>
   </g>
  </g>
 </g>
 <g partID="144300">
  <g transform="translate(18.1624,38.9978)">
   <g transform="matrix(-1,0,0,-1,0,0)">
    <g  id="copper0">
     <rect  id="square" fill="black" stroke="black" stroke-width="2.16" width="4.176" height="4.176" x="2.952" y="2.952"/>
     <circle  id="connector0pin" r="2.088" fill="black" stroke="black" stroke-width="2.16" cx="5.04" cy="5.04"/>
     <circle  id="connector1pin" r="2.088" fill="black" stroke="black" stroke-width="2.16" cx="5.04" cy="12.24"/>
    </g>
   </g>
  </g>
 </g>
 <g partID="138930">
  <g transform="translate(101.482,96.4288)">
   <g transform="matrix(-1,0,0,-1,0,0)">
    <g  id="copper0">
     <rect  id="square" fill="black" stroke="black" stroke-width="2.16" width="4.176" height="4.176" x="2.952" y="2.952"/>
     <circle  id="connector0pin" r="2.088" fill="black" stroke="black" stroke-width="2.16" cx="5.04" cy="5.04"/>
     <circle  id="connector1pin" r="2.088" fill="black" stroke="black" stroke-width="2.16" cx="5.04" cy="12.24"/>
    </g>
   </g>
  </g>
 </g>
 <g partID="133430">
  <g transform="translate(101.474,39.7638)">
   <g transform="matrix(-1,0,0,-1,0,0)">
    <g  id="copper0">
     <rect  id="square" fill="black" stroke="black" stroke-width="2.16" width="4.176" height="4.176" x="2.952" y="2.952"/>
     <circle  id="connector0pin" r="2.088" fill="black" stroke="black" stroke-width="2.16" cx="5.04" cy="5.04"/>
     <circle  id="connector1pin" r="2.088" fill="black" stroke="black" stroke-width="2.16" cx="5.04" cy="12.24"/>
    </g>
   </g>
  </g>
 </g>
 <g partID="137630">
  <g transform="translate(93.9774,61.1189)">
   <g  id="copper0">
    <circle  r="0.992124" id="connector0pin" fill="black" stroke-width="1.57039" stroke="black" cx="3.01733" cy="3.01733"/>
   </g>
  </g>
 </g>
 <g partID="138030">
  <g transform="translate(83.7944,100.196)">
   <g  id="copper0">
    <circle  r="0.992124" id="connector0pin" fill="black" stroke-width="1.57039" stroke="black" cx="3.01733" cy="3.01733"/>
   </g>
  </g>
 </g>
</svg>
