; NON-PLATED HOLES START AT T1
; THROUGH (PLATED) HOLES START AT T100
M48
INCH
T1C0.078722
T100C0.015748
T101C0.038000
%
T1
X003183Y002886
X011293Y014181
T100
X002724Y010144
X001490Y015171
X005661Y009010
X013355Y013105
X008726Y001207
X002688Y013784
X009525Y006277
X012478Y001579
X007406Y007250
X003154Y004247
X001042Y009660
X011077Y012421
X010065Y015475
X001972Y005075
X013431Y007115
X011698Y002783
X000581Y003272
X008486Y007850
X000585Y005633
X012017Y001688
X011375Y010913
X012460Y008962
T101
X013356Y004476
X001221Y004026
X001221Y005026
X006537Y001665
X007537Y001665
X001900Y011179
X013344Y011155
X001900Y012179
X013344Y012155
X013356Y003476
T00
M30
