G04 (created by PCBNEW (2013-07-07 BZR 4022)-stable) date 12/29/2015 4:32:31 PM*
%MOIN*%
G04 Gerber Fmt 3.4, Leading zero omitted, Abs format*
%FSLAX34Y34*%
G01*
G70*
G90*
G04 APERTURE LIST*
%ADD10C,0.00590551*%
%ADD11C,0.00492126*%
%ADD12C,0.00984252*%
%ADD13C,0.011811*%
%ADD14C,0.006*%
%ADD15C,0.005*%
%ADD16C,0.008*%
%ADD17C,0.0047*%
%ADD18C,0.01*%
%ADD19C,0.0026*%
%ADD20C,0.004*%
%ADD21C,0.002*%
%ADD22C,0.0125*%
%ADD23C,0.012*%
G04 APERTURE END LIST*
G54D10*
G54D11*
X45642Y-29158D02*
X45576Y-29064D01*
X45529Y-29158D02*
X45529Y-28961D01*
X45604Y-28961D01*
X45623Y-28971D01*
X45632Y-28980D01*
X45642Y-28999D01*
X45642Y-29027D01*
X45632Y-29046D01*
X45623Y-29055D01*
X45604Y-29064D01*
X45529Y-29064D01*
X45829Y-29158D02*
X45717Y-29158D01*
X45773Y-29158D02*
X45773Y-28961D01*
X45754Y-28989D01*
X45735Y-29008D01*
X45717Y-29018D01*
X46227Y-29185D02*
X46161Y-29091D01*
X46114Y-29185D02*
X46114Y-28988D01*
X46189Y-28988D01*
X46208Y-28998D01*
X46217Y-29007D01*
X46227Y-29026D01*
X46227Y-29054D01*
X46217Y-29073D01*
X46208Y-29082D01*
X46189Y-29091D01*
X46114Y-29091D01*
X46395Y-29054D02*
X46395Y-29185D01*
X46349Y-28979D02*
X46302Y-29120D01*
X46424Y-29120D01*
X46231Y-27777D02*
X46166Y-27683D01*
X46119Y-27777D02*
X46119Y-27580D01*
X46194Y-27580D01*
X46212Y-27589D01*
X46222Y-27599D01*
X46231Y-27617D01*
X46231Y-27645D01*
X46222Y-27664D01*
X46212Y-27674D01*
X46194Y-27683D01*
X46119Y-27683D01*
X46409Y-27580D02*
X46316Y-27580D01*
X46306Y-27674D01*
X46316Y-27664D01*
X46334Y-27655D01*
X46381Y-27655D01*
X46400Y-27664D01*
X46409Y-27674D01*
X46419Y-27692D01*
X46419Y-27739D01*
X46409Y-27758D01*
X46400Y-27767D01*
X46381Y-27777D01*
X46334Y-27777D01*
X46316Y-27767D01*
X46306Y-27758D01*
X43542Y-28641D02*
X43532Y-28651D01*
X43504Y-28660D01*
X43485Y-28660D01*
X43457Y-28651D01*
X43439Y-28632D01*
X43429Y-28613D01*
X43420Y-28576D01*
X43420Y-28548D01*
X43429Y-28510D01*
X43439Y-28491D01*
X43457Y-28473D01*
X43485Y-28463D01*
X43504Y-28463D01*
X43532Y-28473D01*
X43542Y-28482D01*
X43720Y-28463D02*
X43626Y-28463D01*
X43617Y-28557D01*
X43626Y-28548D01*
X43645Y-28538D01*
X43692Y-28538D01*
X43710Y-28548D01*
X43720Y-28557D01*
X43729Y-28576D01*
X43729Y-28623D01*
X43720Y-28641D01*
X43710Y-28651D01*
X43692Y-28660D01*
X43645Y-28660D01*
X43626Y-28651D01*
X43617Y-28641D01*
G54D12*
X44385Y-28264D02*
X44385Y-28582D01*
X44403Y-28620D01*
X44422Y-28639D01*
X44460Y-28657D01*
X44535Y-28657D01*
X44572Y-28639D01*
X44591Y-28620D01*
X44610Y-28582D01*
X44610Y-28264D01*
X45003Y-28657D02*
X44778Y-28657D01*
X44891Y-28657D02*
X44891Y-28264D01*
X44853Y-28320D01*
X44816Y-28357D01*
X44778Y-28376D01*
X43423Y-25585D02*
X43423Y-25904D01*
X43441Y-25941D01*
X43460Y-25960D01*
X43498Y-25979D01*
X43573Y-25979D01*
X43610Y-25960D01*
X43629Y-25941D01*
X43648Y-25904D01*
X43648Y-25585D01*
X43816Y-25960D02*
X43873Y-25979D01*
X43966Y-25979D01*
X44004Y-25960D01*
X44023Y-25941D01*
X44041Y-25904D01*
X44041Y-25866D01*
X44023Y-25829D01*
X44004Y-25810D01*
X43966Y-25791D01*
X43891Y-25773D01*
X43854Y-25754D01*
X43835Y-25735D01*
X43816Y-25698D01*
X43816Y-25660D01*
X43835Y-25623D01*
X43854Y-25604D01*
X43891Y-25585D01*
X43985Y-25585D01*
X44041Y-25604D01*
X44341Y-25773D02*
X44398Y-25791D01*
X44416Y-25810D01*
X44435Y-25848D01*
X44435Y-25904D01*
X44416Y-25941D01*
X44398Y-25960D01*
X44360Y-25979D01*
X44210Y-25979D01*
X44210Y-25585D01*
X44341Y-25585D01*
X44379Y-25604D01*
X44398Y-25623D01*
X44416Y-25660D01*
X44416Y-25698D01*
X44398Y-25735D01*
X44379Y-25754D01*
X44341Y-25773D01*
X44210Y-25773D01*
G54D11*
X47262Y-25111D02*
X47168Y-25176D01*
X47262Y-25223D02*
X47065Y-25223D01*
X47065Y-25148D01*
X47074Y-25130D01*
X47084Y-25120D01*
X47102Y-25111D01*
X47130Y-25111D01*
X47149Y-25120D01*
X47159Y-25130D01*
X47168Y-25148D01*
X47168Y-25223D01*
X47065Y-24942D02*
X47065Y-24980D01*
X47074Y-24998D01*
X47084Y-25008D01*
X47112Y-25026D01*
X47149Y-25036D01*
X47224Y-25036D01*
X47243Y-25026D01*
X47252Y-25017D01*
X47262Y-24998D01*
X47262Y-24961D01*
X47252Y-24942D01*
X47243Y-24933D01*
X47224Y-24923D01*
X47177Y-24923D01*
X47159Y-24933D01*
X47149Y-24942D01*
X47140Y-24961D01*
X47140Y-24998D01*
X47149Y-25017D01*
X47159Y-25026D01*
X47177Y-25036D01*
X45868Y-25733D02*
X45774Y-25799D01*
X45868Y-25846D02*
X45671Y-25846D01*
X45671Y-25771D01*
X45681Y-25752D01*
X45690Y-25743D01*
X45709Y-25733D01*
X45737Y-25733D01*
X45756Y-25743D01*
X45765Y-25752D01*
X45774Y-25771D01*
X45774Y-25846D01*
X45690Y-25658D02*
X45681Y-25649D01*
X45671Y-25630D01*
X45671Y-25583D01*
X45681Y-25565D01*
X45690Y-25555D01*
X45709Y-25546D01*
X45728Y-25546D01*
X45756Y-25555D01*
X45868Y-25668D01*
X45868Y-25546D01*
X45769Y-24799D02*
X45769Y-24602D01*
X45816Y-24602D01*
X45844Y-24612D01*
X45863Y-24630D01*
X45872Y-24649D01*
X45882Y-24687D01*
X45882Y-24715D01*
X45872Y-24752D01*
X45863Y-24771D01*
X45844Y-24790D01*
X45816Y-24799D01*
X45769Y-24799D01*
X46069Y-24799D02*
X45957Y-24799D01*
X46013Y-24799D02*
X46013Y-24602D01*
X45994Y-24630D01*
X45975Y-24649D01*
X45957Y-24659D01*
X46965Y-26143D02*
X46965Y-25946D01*
X47012Y-25946D01*
X47040Y-25956D01*
X47058Y-25974D01*
X47068Y-25993D01*
X47077Y-26031D01*
X47077Y-26059D01*
X47068Y-26096D01*
X47058Y-26115D01*
X47040Y-26134D01*
X47012Y-26143D01*
X46965Y-26143D01*
X47152Y-25965D02*
X47162Y-25956D01*
X47180Y-25946D01*
X47227Y-25946D01*
X47246Y-25956D01*
X47255Y-25965D01*
X47265Y-25984D01*
X47265Y-26003D01*
X47255Y-26031D01*
X47143Y-26143D01*
X47265Y-26143D01*
G54D12*
X49858Y-27939D02*
X49858Y-27545D01*
X50271Y-27901D02*
X50252Y-27920D01*
X50196Y-27939D01*
X50158Y-27939D01*
X50102Y-27920D01*
X50065Y-27883D01*
X50046Y-27845D01*
X50027Y-27770D01*
X50027Y-27714D01*
X50046Y-27639D01*
X50065Y-27601D01*
X50102Y-27564D01*
X50158Y-27545D01*
X50196Y-27545D01*
X50252Y-27564D01*
X50271Y-27583D01*
X50421Y-27920D02*
X50477Y-27939D01*
X50571Y-27939D01*
X50608Y-27920D01*
X50627Y-27901D01*
X50646Y-27864D01*
X50646Y-27826D01*
X50627Y-27789D01*
X50608Y-27770D01*
X50571Y-27751D01*
X50496Y-27733D01*
X50458Y-27714D01*
X50440Y-27695D01*
X50421Y-27658D01*
X50421Y-27620D01*
X50440Y-27583D01*
X50458Y-27564D01*
X50496Y-27545D01*
X50589Y-27545D01*
X50646Y-27564D01*
X50814Y-27939D02*
X50814Y-27545D01*
X50964Y-27545D01*
X51002Y-27564D01*
X51021Y-27583D01*
X51039Y-27620D01*
X51039Y-27676D01*
X51021Y-27714D01*
X51002Y-27733D01*
X50964Y-27751D01*
X50814Y-27751D01*
G54D13*
X53896Y-27006D02*
X53980Y-27035D01*
X54121Y-27035D01*
X54177Y-27006D01*
X54205Y-26978D01*
X54234Y-26922D01*
X54234Y-26866D01*
X54205Y-26810D01*
X54177Y-26781D01*
X54121Y-26753D01*
X54009Y-26725D01*
X53952Y-26697D01*
X53924Y-26669D01*
X53896Y-26613D01*
X53896Y-26556D01*
X53924Y-26500D01*
X53952Y-26472D01*
X54009Y-26444D01*
X54149Y-26444D01*
X54234Y-26472D01*
X54430Y-26444D02*
X54571Y-27035D01*
X54684Y-26613D01*
X54796Y-27035D01*
X54937Y-26444D01*
X55471Y-27035D02*
X55133Y-27035D01*
X55302Y-27035D02*
X55302Y-26444D01*
X55246Y-26528D01*
X55190Y-26585D01*
X55133Y-26613D01*
G54D11*
X53013Y-29178D02*
X52947Y-29084D01*
X52900Y-29178D02*
X52900Y-28981D01*
X52975Y-28981D01*
X52994Y-28991D01*
X53003Y-29000D01*
X53013Y-29019D01*
X53013Y-29047D01*
X53003Y-29066D01*
X52994Y-29075D01*
X52975Y-29084D01*
X52900Y-29084D01*
X53078Y-28981D02*
X53210Y-28981D01*
X53125Y-29178D01*
X56562Y-30174D02*
X56552Y-30184D01*
X56524Y-30193D01*
X56505Y-30193D01*
X56477Y-30184D01*
X56459Y-30165D01*
X56449Y-30146D01*
X56440Y-30109D01*
X56440Y-30081D01*
X56449Y-30043D01*
X56459Y-30024D01*
X56477Y-30006D01*
X56505Y-29996D01*
X56524Y-29996D01*
X56552Y-30006D01*
X56562Y-30015D01*
X56730Y-30062D02*
X56730Y-30193D01*
X56684Y-29987D02*
X56637Y-30128D01*
X56759Y-30128D01*
X56562Y-29110D02*
X56552Y-29120D01*
X56524Y-29129D01*
X56505Y-29129D01*
X56477Y-29120D01*
X56459Y-29101D01*
X56449Y-29082D01*
X56440Y-29045D01*
X56440Y-29017D01*
X56449Y-28979D01*
X56459Y-28960D01*
X56477Y-28942D01*
X56505Y-28932D01*
X56524Y-28932D01*
X56552Y-28942D01*
X56562Y-28951D01*
X56730Y-28932D02*
X56693Y-28932D01*
X56674Y-28942D01*
X56665Y-28951D01*
X56646Y-28979D01*
X56637Y-29017D01*
X56637Y-29092D01*
X56646Y-29110D01*
X56655Y-29120D01*
X56674Y-29129D01*
X56712Y-29129D01*
X56730Y-29120D01*
X56740Y-29110D01*
X56749Y-29092D01*
X56749Y-29045D01*
X56740Y-29026D01*
X56730Y-29017D01*
X56712Y-29007D01*
X56674Y-29007D01*
X56655Y-29017D01*
X56646Y-29026D01*
X56637Y-29045D01*
G54D12*
X54580Y-30665D02*
X54580Y-30984D01*
X54598Y-31021D01*
X54617Y-31040D01*
X54655Y-31059D01*
X54730Y-31059D01*
X54767Y-31040D01*
X54786Y-31021D01*
X54805Y-30984D01*
X54805Y-30665D01*
X55179Y-30665D02*
X54992Y-30665D01*
X54973Y-30853D01*
X54992Y-30834D01*
X55029Y-30815D01*
X55123Y-30815D01*
X55161Y-30834D01*
X55179Y-30853D01*
X55198Y-30890D01*
X55198Y-30984D01*
X55179Y-31021D01*
X55161Y-31040D01*
X55123Y-31059D01*
X55029Y-31059D01*
X54992Y-31040D01*
X54973Y-31021D01*
X56752Y-33451D02*
X56752Y-33057D01*
X56977Y-33451D02*
X56808Y-33226D01*
X56977Y-33057D02*
X56752Y-33282D01*
X57333Y-33057D02*
X57146Y-33057D01*
X57127Y-33245D01*
X57146Y-33226D01*
X57183Y-33207D01*
X57277Y-33207D01*
X57314Y-33226D01*
X57333Y-33245D01*
X57352Y-33282D01*
X57352Y-33376D01*
X57333Y-33413D01*
X57314Y-33432D01*
X57277Y-33451D01*
X57183Y-33451D01*
X57146Y-33432D01*
X57127Y-33413D01*
X56745Y-34536D02*
X56745Y-34142D01*
X56970Y-34536D02*
X56801Y-34311D01*
X56970Y-34142D02*
X56745Y-34367D01*
X57307Y-34273D02*
X57307Y-34536D01*
X57214Y-34123D02*
X57120Y-34405D01*
X57364Y-34405D01*
X56729Y-35649D02*
X56729Y-35255D01*
X56954Y-35649D02*
X56785Y-35424D01*
X56954Y-35255D02*
X56729Y-35480D01*
X57085Y-35255D02*
X57329Y-35255D01*
X57198Y-35405D01*
X57254Y-35405D01*
X57291Y-35424D01*
X57310Y-35443D01*
X57329Y-35480D01*
X57329Y-35574D01*
X57310Y-35611D01*
X57291Y-35630D01*
X57254Y-35649D01*
X57141Y-35649D01*
X57104Y-35630D01*
X57085Y-35611D01*
X56719Y-36849D02*
X56719Y-36455D01*
X56944Y-36849D02*
X56775Y-36624D01*
X56944Y-36455D02*
X56719Y-36680D01*
X57094Y-36493D02*
X57113Y-36474D01*
X57150Y-36455D01*
X57244Y-36455D01*
X57281Y-36474D01*
X57300Y-36493D01*
X57319Y-36530D01*
X57319Y-36568D01*
X57300Y-36624D01*
X57075Y-36849D01*
X57319Y-36849D01*
X56731Y-37917D02*
X56731Y-37523D01*
X56956Y-37917D02*
X56787Y-37692D01*
X56956Y-37523D02*
X56731Y-37748D01*
X57331Y-37917D02*
X57106Y-37917D01*
X57218Y-37917D02*
X57218Y-37523D01*
X57181Y-37579D01*
X57143Y-37617D01*
X57106Y-37636D01*
G54D13*
X54961Y-39198D02*
X55355Y-39789D01*
X55355Y-39198D02*
X54961Y-39789D01*
X55889Y-39789D02*
X55552Y-39789D01*
X55721Y-39789D02*
X55721Y-39198D01*
X55664Y-39282D01*
X55608Y-39339D01*
X55552Y-39367D01*
G54D11*
X57742Y-41028D02*
X57733Y-41038D01*
X57705Y-41047D01*
X57686Y-41047D01*
X57658Y-41038D01*
X57639Y-41019D01*
X57630Y-41000D01*
X57620Y-40963D01*
X57620Y-40935D01*
X57630Y-40897D01*
X57639Y-40878D01*
X57658Y-40860D01*
X57686Y-40850D01*
X57705Y-40850D01*
X57733Y-40860D01*
X57742Y-40869D01*
X57855Y-40935D02*
X57836Y-40925D01*
X57827Y-40916D01*
X57817Y-40897D01*
X57817Y-40888D01*
X57827Y-40869D01*
X57836Y-40860D01*
X57855Y-40850D01*
X57892Y-40850D01*
X57911Y-40860D01*
X57920Y-40869D01*
X57930Y-40888D01*
X57930Y-40897D01*
X57920Y-40916D01*
X57911Y-40925D01*
X57892Y-40935D01*
X57855Y-40935D01*
X57836Y-40944D01*
X57827Y-40953D01*
X57817Y-40972D01*
X57817Y-41010D01*
X57827Y-41028D01*
X57836Y-41038D01*
X57855Y-41047D01*
X57892Y-41047D01*
X57911Y-41038D01*
X57920Y-41028D01*
X57930Y-41010D01*
X57930Y-40972D01*
X57920Y-40953D01*
X57911Y-40944D01*
X57892Y-40935D01*
X53013Y-40912D02*
X53003Y-40922D01*
X52975Y-40931D01*
X52956Y-40931D01*
X52928Y-40922D01*
X52910Y-40903D01*
X52900Y-40884D01*
X52891Y-40847D01*
X52891Y-40819D01*
X52900Y-40781D01*
X52910Y-40762D01*
X52928Y-40744D01*
X52956Y-40734D01*
X52975Y-40734D01*
X53003Y-40744D01*
X53013Y-40753D01*
X53106Y-40931D02*
X53144Y-40931D01*
X53163Y-40922D01*
X53172Y-40912D01*
X53191Y-40884D01*
X53200Y-40847D01*
X53200Y-40772D01*
X53191Y-40753D01*
X53181Y-40744D01*
X53163Y-40734D01*
X53125Y-40734D01*
X53106Y-40744D01*
X53097Y-40753D01*
X53088Y-40772D01*
X53088Y-40819D01*
X53097Y-40837D01*
X53106Y-40847D01*
X53125Y-40856D01*
X53163Y-40856D01*
X53181Y-40847D01*
X53191Y-40837D01*
X53200Y-40819D01*
G54D13*
X48563Y-34651D02*
X48563Y-34060D01*
X49182Y-34594D02*
X49154Y-34622D01*
X49069Y-34651D01*
X49013Y-34651D01*
X48929Y-34622D01*
X48872Y-34566D01*
X48844Y-34510D01*
X48816Y-34397D01*
X48816Y-34313D01*
X48844Y-34201D01*
X48872Y-34144D01*
X48929Y-34088D01*
X49013Y-34060D01*
X49069Y-34060D01*
X49154Y-34088D01*
X49182Y-34116D01*
X49744Y-34651D02*
X49407Y-34651D01*
X49575Y-34651D02*
X49575Y-34060D01*
X49519Y-34144D01*
X49463Y-34201D01*
X49407Y-34229D01*
X49913Y-41459D02*
X49913Y-40868D01*
X50166Y-40924D02*
X50194Y-40896D01*
X50250Y-40868D01*
X50391Y-40868D01*
X50447Y-40896D01*
X50475Y-40924D01*
X50504Y-40980D01*
X50504Y-41037D01*
X50475Y-41121D01*
X50138Y-41459D01*
X50504Y-41459D01*
X51094Y-41402D02*
X51066Y-41430D01*
X50982Y-41459D01*
X50925Y-41459D01*
X50841Y-41430D01*
X50785Y-41374D01*
X50757Y-41318D01*
X50729Y-41205D01*
X50729Y-41121D01*
X50757Y-41009D01*
X50785Y-40952D01*
X50841Y-40896D01*
X50925Y-40868D01*
X50982Y-40868D01*
X51066Y-40896D01*
X51094Y-40924D01*
X46443Y-39128D02*
X46443Y-39606D01*
X46471Y-39662D01*
X46499Y-39690D01*
X46555Y-39719D01*
X46668Y-39719D01*
X46724Y-39690D01*
X46752Y-39662D01*
X46780Y-39606D01*
X46780Y-39128D01*
X47005Y-39128D02*
X47371Y-39128D01*
X47174Y-39353D01*
X47258Y-39353D01*
X47314Y-39381D01*
X47342Y-39409D01*
X47371Y-39465D01*
X47371Y-39606D01*
X47342Y-39662D01*
X47314Y-39690D01*
X47258Y-39719D01*
X47089Y-39719D01*
X47033Y-39690D01*
X47005Y-39662D01*
G54D14*
X47853Y-40564D02*
X46055Y-40564D01*
X46055Y-38072D02*
X47853Y-38072D01*
X46654Y-38422D02*
G75*
G03X46654Y-38422I-180J0D01*
G74*
G01*
X47124Y-32827D02*
X47574Y-32827D01*
X47124Y-35007D02*
X47564Y-35007D01*
X47124Y-32827D02*
X47124Y-35007D01*
X48004Y-32357D02*
X48004Y-31927D01*
X50214Y-32347D02*
X50214Y-31927D01*
X50224Y-31927D02*
X48004Y-31917D01*
X50204Y-35897D02*
X48034Y-35907D01*
X50634Y-35207D02*
X50634Y-32377D01*
X48024Y-35897D02*
X48024Y-35487D01*
X50384Y-35447D02*
X47604Y-35447D01*
X47584Y-32367D02*
X47584Y-35407D01*
X50634Y-32367D02*
X47634Y-32367D01*
X51084Y-35037D02*
X51084Y-32817D01*
X51084Y-32817D02*
X50634Y-32817D01*
X50630Y-35217D02*
X50400Y-35447D01*
X51082Y-35037D02*
X50630Y-35037D01*
X50204Y-35447D02*
X50204Y-35899D01*
X50411Y-35043D02*
G75*
G03X50411Y-35043I-188J0D01*
G74*
G01*
G54D15*
X55651Y-26763D02*
G75*
G03X55651Y-26763I-1000J0D01*
G74*
G01*
X56151Y-28263D02*
X53151Y-28263D01*
X53151Y-28263D02*
X53151Y-25263D01*
X53151Y-25263D02*
X56151Y-25263D01*
X56151Y-28263D02*
X56151Y-25263D01*
G54D16*
X56272Y-29856D02*
X56272Y-28656D01*
X56272Y-28656D02*
X53472Y-28656D01*
X53472Y-28656D02*
X53472Y-29856D01*
X56272Y-31056D02*
X56272Y-31356D01*
X56272Y-31356D02*
X55672Y-32256D01*
X55672Y-32256D02*
X54072Y-32256D01*
X54072Y-32256D02*
X53472Y-31356D01*
X53472Y-31356D02*
X53472Y-31056D01*
G54D17*
X57521Y-41167D02*
X57521Y-41442D01*
X57521Y-40773D02*
X57521Y-40498D01*
X58033Y-41167D02*
X58033Y-41442D01*
X58033Y-40498D02*
X58033Y-40773D01*
X58027Y-41442D02*
X57527Y-41442D01*
X57527Y-40498D02*
X58027Y-40498D01*
X52797Y-41041D02*
X52797Y-41316D01*
X52797Y-40647D02*
X52797Y-40372D01*
X53309Y-41041D02*
X53309Y-41316D01*
X53309Y-40372D02*
X53309Y-40647D01*
X53303Y-41316D02*
X52803Y-41316D01*
X52803Y-40372D02*
X53303Y-40372D01*
X47808Y-37700D02*
X47808Y-37975D01*
X47808Y-37306D02*
X47808Y-37031D01*
X48320Y-37700D02*
X48320Y-37975D01*
X48320Y-37031D02*
X48320Y-37306D01*
X48314Y-37975D02*
X47814Y-37975D01*
X47814Y-37031D02*
X48314Y-37031D01*
X43332Y-28771D02*
X43332Y-29046D01*
X43332Y-28377D02*
X43332Y-28102D01*
X43844Y-28771D02*
X43844Y-29046D01*
X43844Y-28102D02*
X43844Y-28377D01*
X43838Y-29046D02*
X43338Y-29046D01*
X43338Y-28102D02*
X43838Y-28102D01*
X56340Y-30306D02*
X56340Y-30581D01*
X56340Y-29912D02*
X56340Y-29637D01*
X56852Y-30306D02*
X56852Y-30581D01*
X56852Y-29637D02*
X56852Y-29912D01*
X56846Y-30581D02*
X56346Y-30581D01*
X56346Y-29637D02*
X56846Y-29637D01*
X56340Y-29248D02*
X56340Y-29523D01*
X56340Y-28854D02*
X56340Y-28579D01*
X56852Y-29248D02*
X56852Y-29523D01*
X56852Y-28579D02*
X56852Y-28854D01*
X56846Y-29523D02*
X56346Y-29523D01*
X56346Y-28579D02*
X56846Y-28579D01*
G54D15*
X46523Y-27250D02*
X46523Y-28150D01*
X46523Y-28150D02*
X46023Y-28150D01*
X46023Y-28150D02*
X46023Y-27250D01*
X46023Y-27250D02*
X46523Y-27250D01*
X46515Y-28652D02*
X46515Y-29552D01*
X46515Y-29552D02*
X46015Y-29552D01*
X46015Y-29552D02*
X46015Y-28652D01*
X46015Y-28652D02*
X46515Y-28652D01*
X45925Y-28636D02*
X45925Y-29536D01*
X45925Y-29536D02*
X45425Y-29536D01*
X45425Y-29536D02*
X45425Y-28636D01*
X45425Y-28636D02*
X45925Y-28636D01*
X53303Y-28654D02*
X53303Y-29554D01*
X53303Y-29554D02*
X52803Y-29554D01*
X52803Y-29554D02*
X52803Y-28654D01*
X52803Y-28654D02*
X53303Y-28654D01*
X47630Y-25331D02*
X46730Y-25331D01*
X46730Y-25331D02*
X46730Y-24831D01*
X46730Y-24831D02*
X47630Y-24831D01*
X47630Y-24831D02*
X47630Y-25331D01*
G54D18*
X42210Y-26129D02*
X46210Y-26129D01*
X42210Y-27129D02*
X46210Y-27129D01*
X46210Y-27129D02*
X46210Y-26129D01*
X42210Y-26129D02*
X42210Y-27129D01*
G54D16*
X51919Y-27267D02*
X48919Y-27267D01*
X48919Y-25267D02*
X51919Y-25267D01*
X51919Y-25267D02*
X51919Y-27267D01*
X48919Y-27267D02*
X48919Y-25267D01*
G54D14*
X53631Y-38235D02*
X53631Y-37235D01*
X53631Y-37235D02*
X56631Y-37235D01*
X56631Y-37235D02*
X56631Y-38235D01*
X56631Y-38235D02*
X53631Y-38235D01*
X54631Y-37235D02*
X54631Y-38235D01*
X53631Y-37102D02*
X53631Y-36102D01*
X53631Y-36102D02*
X56631Y-36102D01*
X56631Y-36102D02*
X56631Y-37102D01*
X56631Y-37102D02*
X53631Y-37102D01*
X54631Y-36102D02*
X54631Y-37102D01*
X53639Y-35987D02*
X53639Y-34987D01*
X53639Y-34987D02*
X56639Y-34987D01*
X56639Y-34987D02*
X56639Y-35987D01*
X56639Y-35987D02*
X53639Y-35987D01*
X54639Y-34987D02*
X54639Y-35987D01*
X53639Y-34873D02*
X53639Y-33873D01*
X53639Y-33873D02*
X56639Y-33873D01*
X56639Y-33873D02*
X56639Y-34873D01*
X56639Y-34873D02*
X53639Y-34873D01*
X54639Y-33873D02*
X54639Y-34873D01*
X53659Y-33763D02*
X53659Y-32763D01*
X53659Y-32763D02*
X56659Y-32763D01*
X56659Y-32763D02*
X56659Y-33763D01*
X56659Y-33763D02*
X53659Y-33763D01*
X54659Y-32763D02*
X54659Y-33763D01*
G54D19*
X45703Y-24991D02*
X45703Y-24863D01*
X45703Y-24863D02*
X45506Y-24863D01*
X45506Y-24991D02*
X45506Y-24863D01*
X45703Y-24991D02*
X45506Y-24991D01*
X45703Y-25236D02*
X45703Y-25177D01*
X45703Y-25177D02*
X45604Y-25177D01*
X45604Y-25236D02*
X45604Y-25177D01*
X45703Y-25236D02*
X45604Y-25236D01*
X45703Y-25041D02*
X45703Y-24982D01*
X45703Y-24982D02*
X45604Y-24982D01*
X45604Y-25041D02*
X45604Y-24982D01*
X45703Y-25041D02*
X45604Y-25041D01*
X45703Y-25187D02*
X45703Y-25031D01*
X45703Y-25031D02*
X45634Y-25031D01*
X45634Y-25187D02*
X45634Y-25031D01*
X45703Y-25187D02*
X45634Y-25187D01*
X46292Y-24991D02*
X46292Y-24863D01*
X46292Y-24863D02*
X46095Y-24863D01*
X46095Y-24991D02*
X46095Y-24863D01*
X46292Y-24991D02*
X46095Y-24991D01*
X46292Y-25355D02*
X46292Y-25227D01*
X46292Y-25227D02*
X46095Y-25227D01*
X46095Y-25355D02*
X46095Y-25227D01*
X46292Y-25355D02*
X46095Y-25355D01*
X46194Y-25041D02*
X46194Y-24982D01*
X46194Y-24982D02*
X46095Y-24982D01*
X46095Y-25041D02*
X46095Y-24982D01*
X46194Y-25041D02*
X46095Y-25041D01*
X46194Y-25236D02*
X46194Y-25177D01*
X46194Y-25177D02*
X46095Y-25177D01*
X46095Y-25236D02*
X46095Y-25177D01*
X46194Y-25236D02*
X46095Y-25236D01*
X46164Y-25187D02*
X46164Y-25031D01*
X46164Y-25031D02*
X46095Y-25031D01*
X46095Y-25187D02*
X46095Y-25031D01*
X46164Y-25187D02*
X46095Y-25187D01*
X45899Y-25148D02*
X45899Y-25070D01*
X45899Y-25070D02*
X45821Y-25070D01*
X45821Y-25148D02*
X45821Y-25070D01*
X45899Y-25148D02*
X45821Y-25148D01*
X45703Y-25345D02*
X45703Y-25227D01*
X45703Y-25227D02*
X45585Y-25227D01*
X45585Y-25345D02*
X45585Y-25227D01*
X45703Y-25345D02*
X45585Y-25345D01*
X45535Y-25355D02*
X45535Y-25266D01*
X45535Y-25266D02*
X45506Y-25266D01*
X45506Y-25355D02*
X45506Y-25266D01*
X45535Y-25355D02*
X45506Y-25355D01*
G54D20*
X45693Y-24883D02*
X46105Y-24883D01*
X46095Y-25335D02*
X45535Y-25335D01*
G54D21*
X45593Y-25286D02*
G75*
G03X45593Y-25286I-28J0D01*
G74*
G01*
G54D20*
X45506Y-25246D02*
G75*
G03X45506Y-24972I0J137D01*
G74*
G01*
X46292Y-24972D02*
G75*
G03X46292Y-25246I0J-137D01*
G74*
G01*
G54D19*
X47270Y-25772D02*
X47270Y-25900D01*
X47270Y-25900D02*
X47467Y-25900D01*
X47467Y-25772D02*
X47467Y-25900D01*
X47270Y-25772D02*
X47467Y-25772D01*
X47270Y-25527D02*
X47270Y-25586D01*
X47270Y-25586D02*
X47369Y-25586D01*
X47369Y-25527D02*
X47369Y-25586D01*
X47270Y-25527D02*
X47369Y-25527D01*
X47270Y-25722D02*
X47270Y-25781D01*
X47270Y-25781D02*
X47369Y-25781D01*
X47369Y-25722D02*
X47369Y-25781D01*
X47270Y-25722D02*
X47369Y-25722D01*
X47270Y-25576D02*
X47270Y-25732D01*
X47270Y-25732D02*
X47339Y-25732D01*
X47339Y-25576D02*
X47339Y-25732D01*
X47270Y-25576D02*
X47339Y-25576D01*
X46681Y-25772D02*
X46681Y-25900D01*
X46681Y-25900D02*
X46878Y-25900D01*
X46878Y-25772D02*
X46878Y-25900D01*
X46681Y-25772D02*
X46878Y-25772D01*
X46681Y-25408D02*
X46681Y-25536D01*
X46681Y-25536D02*
X46878Y-25536D01*
X46878Y-25408D02*
X46878Y-25536D01*
X46681Y-25408D02*
X46878Y-25408D01*
X46779Y-25722D02*
X46779Y-25781D01*
X46779Y-25781D02*
X46878Y-25781D01*
X46878Y-25722D02*
X46878Y-25781D01*
X46779Y-25722D02*
X46878Y-25722D01*
X46779Y-25527D02*
X46779Y-25586D01*
X46779Y-25586D02*
X46878Y-25586D01*
X46878Y-25527D02*
X46878Y-25586D01*
X46779Y-25527D02*
X46878Y-25527D01*
X46809Y-25576D02*
X46809Y-25732D01*
X46809Y-25732D02*
X46878Y-25732D01*
X46878Y-25576D02*
X46878Y-25732D01*
X46809Y-25576D02*
X46878Y-25576D01*
X47074Y-25615D02*
X47074Y-25693D01*
X47074Y-25693D02*
X47152Y-25693D01*
X47152Y-25615D02*
X47152Y-25693D01*
X47074Y-25615D02*
X47152Y-25615D01*
X47270Y-25418D02*
X47270Y-25536D01*
X47270Y-25536D02*
X47388Y-25536D01*
X47388Y-25418D02*
X47388Y-25536D01*
X47270Y-25418D02*
X47388Y-25418D01*
X47438Y-25408D02*
X47438Y-25497D01*
X47438Y-25497D02*
X47467Y-25497D01*
X47467Y-25408D02*
X47467Y-25497D01*
X47438Y-25408D02*
X47467Y-25408D01*
G54D20*
X47280Y-25880D02*
X46868Y-25880D01*
X46878Y-25428D02*
X47438Y-25428D01*
G54D21*
X47436Y-25477D02*
G75*
G03X47436Y-25477I-28J0D01*
G74*
G01*
G54D20*
X47467Y-25517D02*
G75*
G03X47467Y-25791I0J-137D01*
G74*
G01*
X46681Y-25791D02*
G75*
G03X46681Y-25517I0J137D01*
G74*
G01*
G54D22*
X54165Y-40544D02*
X56665Y-40544D01*
X54165Y-38544D02*
X56665Y-38544D01*
X57665Y-39544D02*
G75*
G03X56665Y-38544I-1000J0D01*
G74*
G01*
X56665Y-40544D02*
G75*
G03X57665Y-39544I0J1000D01*
G74*
G01*
X54165Y-38544D02*
G75*
G03X53165Y-39544I0J-1000D01*
G74*
G01*
X53165Y-39544D02*
G75*
G03X54165Y-40544I1000J0D01*
G74*
G01*
G54D16*
X43537Y-40004D02*
X43537Y-33389D01*
X43537Y-33389D02*
X44671Y-33389D01*
X44671Y-33389D02*
X44671Y-40004D01*
X44671Y-40004D02*
X43537Y-40004D01*
X42805Y-27590D02*
X43592Y-27590D01*
X51860Y-27590D02*
X52647Y-27590D01*
X52647Y-27590D02*
X52647Y-28378D01*
X52647Y-40779D02*
X52647Y-41566D01*
X52647Y-41566D02*
X51860Y-41566D01*
X43592Y-41566D02*
X42805Y-41566D01*
X42805Y-41566D02*
X42805Y-40779D01*
X42805Y-28378D02*
X42805Y-27590D01*
G54D23*
X43749Y-33822D02*
G75*
G03X43749Y-33822I-39J0D01*
G74*
G01*
G54D15*
X44464Y-28764D02*
X44164Y-28564D01*
X45164Y-28764D02*
X44139Y-28764D01*
X44139Y-28764D02*
X44139Y-28164D01*
X44139Y-28164D02*
X45164Y-28164D01*
X45164Y-28164D02*
X45164Y-28764D01*
X45351Y-25454D02*
X46251Y-25454D01*
X46251Y-25454D02*
X46251Y-25954D01*
X46251Y-25954D02*
X45351Y-25954D01*
X45351Y-25954D02*
X45351Y-25454D01*
G54D18*
X52610Y-40730D02*
X48610Y-40730D01*
X52610Y-39730D02*
X48610Y-39730D01*
X48610Y-39730D02*
X48610Y-40730D01*
X52610Y-40730D02*
X52610Y-39730D01*
M02*
