M48
;DRILL file {KiCad 4.0.0-rc2-stable} date 6/30/2016 5:54:57 PM
;FORMAT={-:-/ absolute / inch / decimal}
FMAT,2
INCH,TZ
T1C0.016
T2C0.040
%
G90
G05
M72
T1
X1.6878Y-3.0933
X1.6953Y-3.1969
X1.7217Y-3.1783
X1.75Y-2.98
X1.7555Y-3.2228
X1.7673Y-2.3465
X1.8862Y-2.5945
X1.8862Y-2.6929
X1.8886Y-2.9177
X1.895Y-2.77
X1.9161Y-3.2213
X1.9374Y-3.0752
X1.9382Y-3.1772
X1.9406Y-2.6689
X1.95Y-2.64
X1.95Y-3.035
X1.9555Y-3.1984
X1.9594Y-2.9087
X1.9776Y-2.6551
X1.9953Y-2.6201
X2.0406Y-2.9941
X2.0587Y-3.1945
X2.0646Y-2.7236
X2.0846Y-2.772
X2.085Y-2.62
X2.0933Y-3.6224
X2.1012Y-2.8146
X2.1154Y-3.1756
X2.1177Y-2.8567
X2.1213Y-3.3795
X2.1307Y-3.1236
X2.1311Y-3.3559
X2.1374Y-2.3283
X2.1425Y-3.465
X2.1457Y-3.2181
X2.148Y-3.3744
X2.1594Y-3.2559
X2.1724Y-2.3244
X2.1728Y-3.365
X2.175Y-2.785
X2.18Y-2.72
X2.1815Y-3.1803
X2.1913Y-3.6031
X2.2035Y-3.4685
X2.2079Y-3.2689
X2.2083Y-3.0161
X2.2098Y-3.0409
X2.2252Y-3.1846
X2.2283Y-2.9807
X2.2343Y-2.4945
X2.2362Y-3.3791
X2.2421Y-3.1228
X2.2472Y-3.2929
X2.2492Y-3.265
X2.2504Y-3.2035
X2.265Y-2.695
X2.2744Y-2.7563
X2.2866Y-3.1909
X2.289Y-2.8744
X2.295Y-3.245
X2.2961Y-2.4976
X2.3035Y-3.0083
X2.3083Y-3.0685
X2.3114Y-3.1748
X2.3181Y-2.765
X2.3228Y-2.6862
X2.3252Y-3.4205
X2.3256Y-2.498
X2.3339Y-3.4969
X2.3465Y-2.3161
X2.3772Y-3.3929
X2.3783Y-2.7087
X2.3799Y-2.4535
X2.3803Y-3.4469
X2.3862Y-2.4913
X2.3913Y-3.3346
X2.3929Y-3.1362
X2.4016Y-2.3287
X2.4043Y-2.7504
X2.4071Y-2.7248
X2.4083Y-2.8858
X2.4193Y-3.1311
X2.4311Y-3.1783
X2.4319Y-2.3087
X2.435Y-2.76
X2.4366Y-2.4992
X2.4457Y-2.6874
X2.4583Y-2.4717
X2.465Y-3.2028
X2.4728Y-3.1205
X2.4752Y-2.6898
X2.4827Y-2.3051
X2.4835Y-2.3504
X2.4846Y-2.7433
X2.4862Y-2.4441
X2.5102Y-3.1063
X2.524Y-2.3106
X2.54Y-3.23
X2.5492Y-2.8669
X2.5512Y-2.3185
X2.5752Y-3.1496
X2.5776Y-2.6854
X2.5854Y-2.328
X2.6394Y-2.8598
X2.6433Y-3.0906
X2.6461Y-2.3016
X2.6579Y-2.7551
X2.66Y-2.935
X2.6642Y-3.1051
X2.6661Y-2.5248
X2.6752Y-2.872
X2.6815Y-2.3378
X2.6929Y-2.9591
X2.6957Y-3.2791
X2.7043Y-3.1039
X2.7075Y-3.3406
X2.7083Y-2.939
X2.73Y-2.535
X2.7327Y-2.465
X2.7366Y-3.0654
X2.7398Y-3.1276
X2.7539Y-3.3177
X2.7622Y-3.3902
X2.78Y-3.32
X2.78Y-3.465
X2.8165Y-2.4701
X2.835Y-3.105
X2.8374Y-3.0783
X2.8421Y-2.9705
X2.8425Y-2.4657
X2.85Y-2.665
X2.8724Y-2.5858
X2.876Y-2.9291
X2.8803Y-2.3701
X2.8886Y-3.639
X2.8909Y-2.498
X2.8933Y-3.4024
X2.8953Y-2.6114
X2.9154Y-2.6862
X2.9165Y-2.9453
X2.9378Y-2.7177
X2.94Y-3.275
X2.9598Y-3.4594
X2.97Y-3.355
X2.985Y-2.325
X2.9913Y-3.3803
X2.995Y-3.335
X3.0087Y-2.4756
X3.015Y-3.36
X3.02Y-3.18
X3.025Y-2.77
X3.0449Y-3.4528
X3.0461Y-2.5642
X3.0465Y-3.5024
X3.0681Y-2.5142
X3.075Y-3.45
X3.08Y-2.77
X3.087Y-2.3665
X3.1031Y-2.4205
X3.1201Y-2.4492
X3.1248Y-2.4764
X3.125Y-3.11
X3.1339Y-2.5929
X3.1429Y-3.5012
X3.1476Y-3.4559
X3.175Y-3.11
X3.1953Y-3.613
X3.3425Y-2.4457
X3.3472Y-3.4331
T2
X3.3134Y-3.0646
X3.3134Y-3.1646
T0
M30
