<?xml version='1.0' encoding='UTF-8' standalone='no'?>
<!-- Created with Fritzing (http://www.fritzing.org/) -->
<svg xmlns="http://www.w3.org/2000/svg"  version="1.2" xmlns:svg="http://www.w3.org/2000/svg" viewBox="0 0 107.537 115.368" width="1.49357in" x="0in" height="1.60234in" y="0in" baseProfile="tiny">
 <g transform="matrix(-1, 0, 0, 1, 107.537, 0)">
  <g partID="57360">
   <g  id="board">
    <rect  id="boardoutline" fill="none" stroke="black" stroke-width="0.5" fill-opacity="0.5" width="106.961" height="114.792" x="0.288" y="0.288"/>
   </g>
  </g>
  <g partID="145211">
   <g transform="translate(7.9992,3.11536)">
    <g  id="copper1">
     <circle  r="0.992124" id="connector0pin" fill="none" stroke-width="0.850392" stroke="black" cx="3.01733" cy="3.01733"/>
    </g>
   </g>
  </g>
  <g partID="148391">
   <g transform="translate(77.0259,22.9161)">
    <g  id="copper1">
     <circle  r="0.992124" id="connector0pin" fill="none" stroke-width="0.850392" stroke="black" cx="3.01733" cy="3.01733"/>
    </g>
   </g>
  </g>
  <g partID="149781">
   <g transform="translate(16.628,13.1003)">
    <g  id="copper1">
     <circle  r="0.992124" id="connector0pin" fill="none" stroke-width="0.850392" stroke="black" cx="3.01733" cy="3.01733"/>
    </g>
   </g>
  </g>
  <g partID="149821">
   <g transform="translate(16.8848,39.3092)">
    <g  id="copper1">
     <circle  r="0.992124" id="connector0pin" fill="none" stroke-width="0.850392" stroke="black" cx="3.01733" cy="3.01733"/>
    </g>
   </g>
  </g>
  <g partID="152471">
   <g transform="translate(79.1722,33.7771)">
    <g  id="copper1">
     <circle  r="0.992124" id="connector0pin" fill="none" stroke-width="0.850392" stroke="black" cx="3.01733" cy="3.01733"/>
    </g>
   </g>
  </g>
  <g partID="152511">
   <g transform="translate(69.7453,0.92552)">
    <g  id="copper1">
     <circle  r="0.992124" id="connector0pin" fill="none" stroke-width="0.850392" stroke="black" cx="3.01733" cy="3.01733"/>
    </g>
   </g>
  </g>
  <g partID="153231">
   <g transform="translate(1.4832,71.7925)">
    <g  id="copper1">
     <circle  r="0.992124" id="connector0pin" fill="none" stroke-width="0.850392" stroke="black" cx="3.01733" cy="3.01733"/>
    </g>
   </g>
  </g>
  <g partID="120252">
   <g transform="translate(59.5984,98.3338)">
    <g transform="matrix(0,1,-1,0,0,0)">
     <g  id="copper1">
      <g  id="copper0">
       <circle  id="connector0pin" r="2.088" fill="none" stroke="black" stroke-width="1.44" cx="5.04" cy="5.04"/>
       <circle  id="connector1pin" r="2.088" fill="none" stroke="black" stroke-width="1.44" cx="5.04" cy="12.24"/>
      </g>
     </g>
    </g>
   </g>
  </g>
  <g partID="128631">
   <g transform="translate(58.373,55.8284)">
    <g  id="copper1">
     <circle  r="0.992124" id="connector0pin" fill="none" stroke-width="0.850392" stroke="black" cx="3.01732" cy="3.01732"/>
    </g>
   </g>
  </g>
  <g partID="128751">
   <g transform="translate(50.597,60.1484)">
    <g  id="copper1">
     <circle  r="0.992124" id="connector0pin" fill="none" stroke-width="0.850392" stroke="black" cx="3.01732" cy="3.01732"/>
    </g>
   </g>
  </g>
  <g partID="130971">
   <g transform="translate(38.0362,47.4758)">
    <g  id="copper1">
     <circle  r="0.992124" id="connector0pin" fill="none" stroke-width="0.850392" stroke="black" cx="3.01733" cy="3.01733"/>
    </g>
   </g>
  </g>
  <g partID="131491">
   <g transform="translate(65.8548,67.1523)">
    <g  id="copper1">
     <circle  r="0.992124" id="connector0pin" fill="none" stroke-width="0.850392" stroke="black" cx="3.01733" cy="3.01733"/>
    </g>
   </g>
  </g>
  <g partID="150962">
   <g transform="translate(17.876,87.1965)">
    <g transform="matrix(-1,0,0,-1,0,0)">
     <g  id="copper1">
      <g  id="copper0">
       <rect  id="square" fill="none" stroke="black" stroke-width="1.44" width="4.176" height="4.176" x="2.952" y="2.952"/>
       <circle  id="connector0pin" r="2.088" fill="none" stroke="black" stroke-width="1.44" cx="5.04" cy="5.04"/>
       <circle  id="connector1pin" r="2.088" fill="none" stroke="black" stroke-width="1.44" cx="5.04" cy="12.24"/>
      </g>
     </g>
    </g>
   </g>
  </g>
  <g partID="144302">
   <g transform="translate(18.1624,38.9978)">
    <g transform="matrix(-1,0,0,-1,0,0)">
     <g  id="copper1">
      <g  id="copper0">
       <rect  id="square" fill="none" stroke="black" stroke-width="1.44" width="4.176" height="4.176" x="2.952" y="2.952"/>
       <circle  id="connector0pin" r="2.088" fill="none" stroke="black" stroke-width="1.44" cx="5.04" cy="5.04"/>
       <circle  id="connector1pin" r="2.088" fill="none" stroke="black" stroke-width="1.44" cx="5.04" cy="12.24"/>
      </g>
     </g>
    </g>
   </g>
  </g>
  <g partID="138932">
   <g transform="translate(101.482,96.4288)">
    <g transform="matrix(-1,0,0,-1,0,0)">
     <g  id="copper1">
      <g  id="copper0">
       <rect  id="square" fill="none" stroke="black" stroke-width="1.44" width="4.176" height="4.176" x="2.952" y="2.952"/>
       <circle  id="connector0pin" r="2.088" fill="none" stroke="black" stroke-width="1.44" cx="5.04" cy="5.04"/>
       <circle  id="connector1pin" r="2.088" fill="none" stroke="black" stroke-width="1.44" cx="5.04" cy="12.24"/>
      </g>
     </g>
    </g>
   </g>
  </g>
  <g partID="133432">
   <g transform="translate(101.474,39.7638)">
    <g transform="matrix(-1,0,0,-1,0,0)">
     <g  id="copper1">
      <g  id="copper0">
       <rect  id="square" fill="none" stroke="black" stroke-width="1.44" width="4.176" height="4.176" x="2.952" y="2.952"/>
       <circle  id="connector0pin" r="2.088" fill="none" stroke="black" stroke-width="1.44" cx="5.04" cy="5.04"/>
       <circle  id="connector1pin" r="2.088" fill="none" stroke="black" stroke-width="1.44" cx="5.04" cy="12.24"/>
      </g>
     </g>
    </g>
   </g>
  </g>
  <g partID="137631">
   <g transform="translate(93.9774,61.1189)">
    <g  id="copper1">
     <circle  r="0.992124" id="connector0pin" fill="none" stroke-width="0.850392" stroke="black" cx="3.01733" cy="3.01733"/>
    </g>
   </g>
  </g>
  <g partID="150520">
   <g transform="translate(16.5794,103.493)">
    <g transform="matrix(-1,0,0,-1,0,0)">
     <g  id="copper1">
      <rect  connectorname="1" id="connector0pad" stroke-linecap="round" stroke="none" stroke-width="0" fill="black" width="2.26771" x="0.429731" height="2.55118" y="5.95274"/>
      <rect  connectorname="2" id="connector1pad" stroke-linecap="round" stroke="none" stroke-width="0" fill="black" width="2.26771" x="5.81555" height="2.55118" y="5.95274"/>
      <rect  connectorname="3" id="connector2pad" stroke-linecap="round" stroke="none" stroke-width="0" fill="black" width="2.26771" x="3.12264" height="2.55118" y="0"/>
      <g  id="copper0"/>
     </g>
    </g>
   </g>
  </g>
  <g partID="143650">
   <g transform="translate(18.249,53.3835)">
    <g transform="matrix(-1,0,0,-1,0,0)">
     <g  id="copper1">
      <rect  connectorname="1" id="connector0pad" stroke-linecap="round" stroke="none" stroke-width="0" fill="black" width="2.26771" x="0.429731" height="2.55118" y="5.95274"/>
      <rect  connectorname="2" id="connector1pad" stroke-linecap="round" stroke="none" stroke-width="0" fill="black" width="2.26771" x="5.81555" height="2.55118" y="5.95274"/>
      <rect  connectorname="3" id="connector2pad" stroke-linecap="round" stroke="none" stroke-width="0" fill="black" width="2.26771" x="3.12264" height="2.55118" y="0"/>
      <g  id="copper0"/>
     </g>
    </g>
   </g>
  </g>
  <g partID="138440">
   <g transform="translate(100.803,108.518)">
    <g transform="matrix(-1,0,0,-1,0,0)">
     <g  id="copper1">
      <rect  connectorname="1" id="connector0pad" stroke-linecap="round" stroke="none" stroke-width="0" fill="black" width="2.26771" x="0.429731" height="2.55118" y="5.95274"/>
      <rect  connectorname="2" id="connector1pad" stroke-linecap="round" stroke="none" stroke-width="0" fill="black" width="2.26771" x="5.81555" height="2.55118" y="5.95274"/>
      <rect  connectorname="3" id="connector2pad" stroke-linecap="round" stroke="none" stroke-width="0" fill="black" width="2.26771" x="3.12264" height="2.55118" y="0"/>
      <g  id="copper0"/>
     </g>
    </g>
   </g>
  </g>
  <g partID="132120">
   <g transform="translate(101.278,54.0171)">
    <g transform="matrix(-1,0,0,-1,0,0)">
     <g  id="copper1">
      <rect  connectorname="1" id="connector0pad" stroke-linecap="round" stroke="none" stroke-width="0" fill="black" width="2.26771" x="0.429731" height="2.55118" y="5.95274"/>
      <rect  connectorname="2" id="connector1pad" stroke-linecap="round" stroke="none" stroke-width="0" fill="black" width="2.26771" x="5.81555" height="2.55118" y="5.95274"/>
      <rect  connectorname="3" id="connector2pad" stroke-linecap="round" stroke="none" stroke-width="0" fill="black" width="2.26771" x="3.12264" height="2.55118" y="0"/>
      <g  id="copper0"/>
     </g>
    </g>
   </g>
  </g>
  <g partID="138031">
   <g transform="translate(83.7944,100.196)">
    <g  id="copper1">
     <circle  r="0.992124" id="connector0pin" fill="none" stroke-width="0.850392" stroke="black" cx="3.01733" cy="3.01733"/>
    </g>
   </g>
  </g>
  <g partID="150800">
   <g transform="translate(8.8016,59.4718)">
    <g  id="copper1">
     <rect  id="connector0pad" stroke-width="0" stroke="none" fill="black" width="3.40157" fill-opacity="1" height="3.11811" x="0.566929" y="0.566929"/>
     <rect  id="connector1pad" stroke-width="0" stroke="none" fill="black" width="3.40157" fill-opacity="1" height="3.11811" x="5.38583" y="0.566929"/>
    </g>
   </g>
  </g>
  <g partID="144060">
   <g transform="translate(8.72,9.95816)">
    <g  id="copper1">
     <rect  id="connector0pad" stroke-width="0" stroke="none" fill="black" width="3.40157" fill-opacity="1" height="3.11811" x="0.566929" y="0.566929"/>
     <rect  id="connector1pad" stroke-width="0" stroke="none" fill="black" width="3.40157" fill-opacity="1" height="3.11811" x="5.38583" y="0.566929"/>
    </g>
   </g>
  </g>
  <g partID="138670">
   <g transform="translate(91.9357,68.8837)">
    <g  id="copper1">
     <rect  id="connector0pad" stroke-width="0" stroke="none" fill="black" width="3.40157" fill-opacity="1" height="3.11811" x="0.566929" y="0.566929"/>
     <rect  id="connector1pad" stroke-width="0" stroke="none" fill="black" width="3.40157" fill-opacity="1" height="3.11811" x="5.38583" y="0.566929"/>
    </g>
   </g>
  </g>
  <g partID="132880">
   <g transform="translate(91.8211,10.0341)">
    <g  id="copper1">
     <rect  id="connector0pad" stroke-width="0" stroke="none" fill="black" width="3.40157" fill-opacity="1" height="3.11811" x="0.566929" y="0.566929"/>
     <rect  id="connector1pad" stroke-width="0" stroke="none" fill="black" width="3.40157" fill-opacity="1" height="3.11811" x="5.38583" y="0.566929"/>
    </g>
   </g>
  </g>
  <g partID="62460">
   <g transform="translate(39.8386,30.239)">
    <g id="copper1" stroke-width="0">
     <g transform="matrix(-1, 0, 0, -1, 2.28358, 9.35604)">
      <g stroke-width="0">
       <rect id="connector1pad" fill="black" stroke="none" stroke-width="0" width="2.26771" x="0.00793696" height="0.850392" y="4.25282"/>
      </g>
     </g>
     <rect id="connector13pad" fill="black" stroke="none" stroke-width="0" width="2.26771" x="11.3466" height="0.850392" y="8.50478"/>
     <rect id="connector17pad" fill="black" stroke="none" stroke-width="0" width="2.26771" x="11.3466" height="0.850392" y="2.8355"/>
     <g transform="matrix(-1, 0, 0, -1, 2.28358, 12.1907)">
      <g stroke-width="0">
       <rect id="connector2pad" fill="black" stroke="none" stroke-width="0" width="2.26771" x="0.00793696" height="0.850392" y="5.67014"/>
      </g>
     </g>
     <g transform="matrix(0, -1, 1, 0, 4.9677, 7.23715)">
      <g stroke-width="0">
       <rect id="connector21pad" fill="black" stroke="none" stroke-width="0" width="2.26771" x="4.96855" height="0.850392" y="0.709512"/>
      </g>
     </g>
     <g transform="matrix(-1, 0, 0, -1, 2.28358, 15.0253)">
      <g stroke-width="0">
       <rect id="connector3pad" fill="black" stroke="none" stroke-width="0" width="2.26771" x="0.00793696" height="0.850392" y="7.08746"/>
      </g>
     </g>
     <rect id="connector15pad" fill="black" stroke="none" stroke-width="0" width="2.26771" x="11.3466" height="0.850392" y="5.67014"/>
     <g transform="matrix(-1, 0, 0, -1, 2.28358, 17.86)">
      <g stroke-width="0">
       <rect id="connector4pad" fill="black" stroke="none" stroke-width="0" width="2.26771" x="0.00793696" height="0.850392" y="8.50478"/>
      </g>
     </g>
     <g transform="matrix(0, -1, 1, 0, 7.80232, 10.0718)">
      <g stroke-width="0">
       <rect id="connector19pad" fill="black" stroke="none" stroke-width="0" width="2.26771" x="7.80319" height="0.850392" y="0.709512"/>
      </g>
     </g>
     <g transform="matrix(-1, 0, 0, -1, 2.28358, 20.6946)">
      <g stroke-width="0">
       <rect id="connector5pad" fill="black" stroke="none" stroke-width="0" width="2.26771" x="0.00793696" height="0.850392" y="9.9221"/>
      </g>
     </g>
     <g transform="matrix(0, -1, 1, 0, 2.13306, 4.40249)">
      <g stroke-width="0">
       <rect id="connector23pad" fill="black" stroke="none" stroke-width="0" width="2.26771" x="2.13391" height="0.850392" y="0.709512"/>
      </g>
     </g>
     <g transform="matrix(0, 1, -1, 0, 15.741, 9.20549)">
      <g stroke-width="0">
       <rect id="connector6pad" fill="black" stroke="none" stroke-width="0" width="2.26771" x="2.13391" height="0.850392" y="12.0481"/>
      </g>
     </g>
     <rect id="connector14pad" fill="black" stroke="none" stroke-width="0" width="2.26771" x="11.3466" height="0.850392" y="7.08746"/>
     <g transform="matrix(0, 1, -1, 0, 17.1583, 7.78817)">
      <g stroke-width="0">
       <rect id="connector7pad" fill="black" stroke="none" stroke-width="0" width="2.26771" x="3.55123" height="0.850392" y="12.0481"/>
      </g>
     </g>
     <rect id="connector16pad" fill="black" stroke="none" stroke-width="0" width="2.26771" x="11.3466" height="0.850392" y="4.25282"/>
     <g transform="matrix(0, 1, -1, 0, 18.5756, 6.37087)">
      <g stroke-width="0">
       <rect id="connector8pad" fill="black" stroke="none" stroke-width="0" width="2.26771" x="4.96855" height="0.850392" y="12.0481"/>
      </g>
     </g>
     <g transform="matrix(0, -1, 1, 0, 9.21964, 11.4891)">
      <g stroke-width="0">
       <rect id="connector18pad" fill="black" stroke="none" stroke-width="0" width="2.26771" x="9.22051" height="0.850392" y="0.709512"/>
      </g>
     </g>
     <g transform="matrix(0, 1, -1, 0, 19.9929, 4.95354)">
      <g stroke-width="0">
       <rect id="connector9pad" fill="black" stroke="none" stroke-width="0" width="2.26771" x="6.38587" height="0.850392" y="12.0481"/>
      </g>
     </g>
     <g transform="matrix(0, -1, 1, 0, 6.38502, 8.65447)">
      <g stroke-width="0">
       <rect id="connector20pad" fill="black" stroke="none" stroke-width="0" width="2.26771" x="6.38587" height="0.850392" y="0.709512"/>
      </g>
     </g>
     <g transform="matrix(0, 1, -1, 0, 21.4103, 3.53622)">
      <g stroke-width="0">
       <rect id="connector10pad" fill="black" stroke="none" stroke-width="0" width="2.26771" x="7.80319" height="0.850392" y="12.0481"/>
      </g>
     </g>
     <g transform="matrix(0, -1, 1, 0, 3.55038, 5.81981)">
      <g stroke-width="0">
       <rect id="connector22pad" fill="black" stroke="none" stroke-width="0" width="2.26771" x="3.55123" height="0.850392" y="0.709512"/>
      </g>
     </g>
     <g transform="matrix(0, 1, -1, 0, 22.8276, 2.1189)">
      <g stroke-width="0">
       <rect id="connector11pad" fill="black" stroke="none" stroke-width="0" width="2.26771" x="9.22051" height="0.850392" y="12.0481"/>
      </g>
     </g>
     <rect id="connector12pad" fill="black" stroke="none" stroke-width="0" width="2.26771" x="11.3466" height="0.850392" y="9.9221"/>
     <g transform="matrix(-1, 0, 0, -1, 2.28358, 6.52139)">
      <g stroke-width="0">
       <rect id="connector0pad" fill="black" stroke="none" stroke-width="0" width="2.26771" x="0.00793696" height="0.850392" y="2.8355"/>
      </g>
     </g>
    </g>
   </g>
  </g>
  <g partID="62540">
   <g transform="translate(65.9344,82.6871)">
    <g transform="matrix(1,0,0,1,0,0)">
     <g  id="copper1">
      <rect  connectorname="1" id="connector0pad" stroke-linecap="round" stroke="none" stroke-width="0" fill="black" width="3.456" x="1.296" height="6.336" y="17.5187"/>
      <rect  connectorname="2" id="connector1pad" stroke-linecap="round" stroke="none" stroke-width="0" fill="black" width="3.456" x="7.848" height="6.336" y="17.5187"/>
      <rect  connectorname="3" id="connector2pad" stroke-linecap="round" stroke="none" stroke-width="0" fill="black" width="3.456" x="14.4" height="6.336" y="17.5187"/>
      <rect  connectorname="4" id="connector3pad" stroke-linecap="round" stroke="none" stroke-width="0" fill="black" width="10.2047" x="4.47364" height="6.23622" y="0"/>
      <g  id="copper0"/>
     </g>
    </g>
   </g>
  </g>
  <g partID="65100">
   <g transform="translate(31.5694,65.6696)">
    <g  id="copper1">
     <rect  connectorname="1" id="connector0pad" stroke-linecap="round" stroke="none" stroke-width="0" fill="black" width="3.1181" x="0" height="2.83465" y="0"/>
     <rect  connectorname="2" id="connector1pad" stroke-linecap="round" stroke="none" stroke-width="0" fill="black" width="3.1181" x="4.81889" height="2.83465" y="0"/>
     <g  id="copper0"/>
    </g>
   </g>
  </g>
  <g partID="65080">
   <g transform="translate(61.0633,68.2833)">
    <g transform="matrix(-1,0,0,-1,0,0)">
     <g  id="copper1">
      <rect  connectorname="1" id="connector0pad" stroke-linecap="round" stroke="none" stroke-width="0" fill="black" width="3.1181" x="0" height="2.83465" y="0"/>
      <rect  connectorname="2" id="connector1pad" stroke-linecap="round" stroke="none" stroke-width="0" fill="black" width="3.1181" x="4.81889" height="2.83465" y="0"/>
      <g  id="copper0"/>
     </g>
    </g>
   </g>
  </g>
  <g partID="65050">
   <g transform="translate(42.2882,65.6206)">
    <g  id="copper1">
     <rect  connectorname="1" id="connector0pad" stroke-linecap="round" stroke="none" stroke-width="0" fill="black" width="3.1181" x="0" height="2.83465" y="0"/>
     <rect  connectorname="2" id="connector1pad" stroke-linecap="round" stroke="none" stroke-width="0" fill="black" width="3.1181" x="4.81889" height="2.83465" y="0"/>
     <g  id="copper0"/>
    </g>
   </g>
  </g>
  <g partID="57510">
   <g transform="translate(18.8609,7.3732)">
    <g  id="copper1">
     <rect  id="connector1pad" stroke-width="0" fill="black" width="1.983" x="56.306" height="0.567" y="54.331"/>
     <rect  id="connector3pad" stroke-width="0" fill="black" width="1.983" x="56.306" height="0.567" y="53.197"/>
     <rect  id="connector5pad" stroke-width="0" fill="black" width="1.983" x="56.306" height="0.566" y="52.063"/>
     <rect  id="connector7pad" stroke-width="0" fill="black" width="1.983" x="56.306" height="0.566" y="50.929"/>
     <rect  id="connector9pad" stroke-width="0" fill="black" width="1.983" x="56.306" height="0.567" y="49.796"/>
     <rect  id="connector11pad" stroke-width="0" fill="black" width="1.983" x="56.306" height="0.566" y="48.662"/>
     <rect  id="connector13pad" stroke-width="0" fill="black" width="1.983" x="56.306" height="0.566" y="47.528"/>
     <rect  id="connector15pad" stroke-width="0" fill="black" width="1.983" x="56.306" height="0.565" y="46.394"/>
     <rect  id="connector17pad" stroke-width="0" fill="black" width="1.983" x="56.306" height="0.565" y="45.26"/>
     <rect  id="connector19pad" stroke-width="0" fill="black" width="1.983" x="56.306" height="0.566" y="44.127"/>
     <rect  id="connector21pad" stroke-width="0" fill="black" width="1.983" x="56.306" height="0.566" y="42.993"/>
     <rect  id="connector23pad" stroke-width="0" fill="black" width="1.983" x="56.306" height="0.565" y="41.859"/>
     <rect  id="connector25pad" stroke-width="0" fill="black" width="1.983" x="56.306" height="0.566" y="40.724"/>
     <rect  id="connector27pad" stroke-width="0" fill="black" width="1.983" x="56.306" height="0.567" y="39.591"/>
     <rect  id="connector29pad" stroke-width="0" fill="black" width="1.983" x="56.306" height="0.567" y="38.457"/>
     <rect  id="connector31pad" stroke-width="0" fill="black" width="1.983" x="56.306" height="0.567" y="37.323"/>
     <rect  id="connector33pad" stroke-width="0" fill="black" width="1.983" x="56.306" height="0.566" y="36.189"/>
     <rect  id="connector35pad" stroke-width="0" fill="black" width="1.983" x="56.306" height="0.566" y="35.055"/>
     <rect  id="connector37pad" stroke-width="0" fill="black" width="1.983" x="56.306" height="0.567" y="33.922"/>
     <rect  id="connector39pad" stroke-width="0" fill="black" width="1.983" x="56.306" height="0.567" y="32.788"/>
     <rect  id="connector41pad" stroke-width="0" fill="black" width="1.983" x="56.306" height="0.566" y="31.654"/>
     <rect  id="connector43pad" stroke-width="0" fill="black" width="1.983" x="56.306" height="0.565" y="30.52"/>
     <rect  id="connector45pad" stroke-width="0" fill="black" width="1.983" x="56.306" height="0.565" y="29.386"/>
     <rect  id="connector47pad" stroke-width="0" fill="black" width="1.983" x="56.306" height="0.566" y="28.253"/>
     <rect  id="connector49pad" stroke-width="0" fill="black" width="1.983" x="56.306" height="0.566" y="27.119"/>
     <rect  id="connector51pad" stroke-width="0" fill="black" width="1.983" x="56.306" height="0.566" y="25.985"/>
     <rect  id="connector53pad" stroke-width="0" fill="black" width="1.983" x="56.306" height="0.565" y="24.851"/>
     <rect  id="connector55pad" stroke-width="0" fill="black" width="1.983" x="56.306" height="0.567" y="23.717"/>
     <rect  id="connector57pad" stroke-width="0" fill="black" width="1.983" x="56.306" height="0.567" y="22.583"/>
     <rect  id="connector59pad" stroke-width="0" fill="black" width="1.983" x="56.306" height="0.567" y="21.449"/>
     <rect  id="connector61pad" stroke-width="0" fill="black" width="1.983" x="56.306" height="0.566" y="20.315"/>
     <rect  id="connector63pad" stroke-width="0" fill="black" width="1.983" x="56.306" height="0.566" y="19.181"/>
     <rect  id="connector65pad" stroke-width="0" fill="black" width="1.983" x="56.306" height="0.567" y="18.048"/>
     <rect  id="connector67pad" stroke-width="0" fill="black" width="1.983" x="56.306" height="0.567" y="16.914"/>
     <rect  id="connector69pad" stroke-width="0" fill="black" width="1.983" x="56.306" height="0.566" y="15.78"/>
     <rect  id="connector0pad" stroke-width="0" fill="black" width="1.984" x="65.094" height="0.567" y="54.331"/>
     <rect  id="connector2pad" stroke-width="0" fill="black" width="1.984" x="65.094" height="0.567" y="53.197"/>
     <rect  id="connector4pad" stroke-width="0" fill="black" width="1.984" x="65.094" height="0.566" y="52.063"/>
     <rect  id="connector6pad" stroke-width="0" fill="black" width="1.984" x="65.094" height="0.566" y="50.929"/>
     <rect  id="connector8pad" stroke-width="0" fill="black" width="1.984" x="65.094" height="0.567" y="49.796"/>
     <rect  id="connector10pad" stroke-width="0" fill="black" width="1.984" x="65.094" height="0.566" y="48.662"/>
     <rect  id="connector12pad" stroke-width="0" fill="black" width="1.984" x="65.094" height="0.566" y="47.528"/>
     <rect  id="connector14pad" stroke-width="0" fill="black" width="1.984" x="65.094" height="0.565" y="46.394"/>
     <rect  id="connector16pad" stroke-width="0" fill="black" width="1.984" x="65.094" height="0.565" y="45.26"/>
     <rect  id="connector18pad" stroke-width="0" fill="black" width="1.984" x="65.094" height="0.566" y="44.127"/>
     <rect  id="connector20pad" stroke-width="0" fill="black" width="1.984" x="65.094" height="0.566" y="42.993"/>
     <rect  id="connector22pad" stroke-width="0" fill="black" width="1.984" x="65.094" height="0.565" y="41.859"/>
     <rect  id="connector24pad" stroke-width="0" fill="black" width="1.984" x="65.094" height="0.566" y="40.724"/>
     <rect  id="connector26pad" stroke-width="0" fill="black" width="1.984" x="65.094" height="0.567" y="39.591"/>
     <rect  id="connector28pad" stroke-width="0" fill="black" width="1.984" x="65.094" height="0.567" y="38.457"/>
     <rect  id="connector30pad" stroke-width="0" fill="black" width="1.984" x="65.094" height="0.567" y="37.323"/>
     <rect  id="connector32pad" stroke-width="0" fill="black" width="1.984" x="65.094" height="0.566" y="36.189"/>
     <rect  id="connector34pad" stroke-width="0" fill="black" width="1.984" x="65.094" height="0.566" y="35.055"/>
     <rect  id="connector36pad" stroke-width="0" fill="black" width="1.984" x="65.094" height="0.567" y="33.922"/>
     <rect  id="connector38pad" stroke-width="0" fill="black" width="1.984" x="65.094" height="0.567" y="32.788"/>
     <rect  id="connector40pad" stroke-width="0" fill="black" width="1.984" x="65.094" height="0.566" y="31.654"/>
     <rect  id="connector42pad" stroke-width="0" fill="black" width="1.984" x="65.094" height="0.565" y="30.52"/>
     <rect  id="connector44pad" stroke-width="0" fill="black" width="1.984" x="65.094" height="0.565" y="29.386"/>
     <rect  id="connector46pad" stroke-width="0" fill="black" width="1.984" x="65.094" height="0.566" y="28.253"/>
     <rect  id="connector48pad" stroke-width="0" fill="black" width="1.984" x="65.094" height="0.566" y="27.119"/>
     <rect  id="connector50pad" stroke-width="0" fill="black" width="1.984" x="65.094" height="0.566" y="25.985"/>
     <rect  id="connector52pad" stroke-width="0" fill="black" width="1.984" x="65.094" height="0.565" y="24.851"/>
     <rect  id="connector54pad" stroke-width="0" fill="black" width="1.984" x="65.094" height="0.567" y="23.717"/>
     <rect  id="connector56pad" stroke-width="0" fill="black" width="1.984" x="65.094" height="0.567" y="22.583"/>
     <rect  id="connector58pad" stroke-width="0" fill="black" width="1.984" x="65.094" height="0.567" y="21.449"/>
     <rect  id="connector60pad" stroke-width="0" fill="black" width="1.984" x="65.094" height="0.566" y="20.315"/>
     <rect  id="connector62pad" stroke-width="0" fill="black" width="1.984" x="65.094" height="0.566" y="19.181"/>
     <rect  id="connector64pad" stroke-width="0" fill="black" width="1.984" x="65.094" height="0.567" y="18.048"/>
     <rect  id="connector66pad" stroke-width="0" fill="black" width="1.984" x="65.094" height="0.567" y="16.914"/>
     <rect  id="connector68pad" stroke-width="0" fill="black" width="1.984" x="65.094" height="0.566" y="15.78"/>
     <circle  id="nonconn0" r="2.834" cx="62.741" cy="5.887"/>
     <circle  id="nonconn1" r="2.834" cx="4.347" cy="87.213"/>
     <g  id="copper0">
      <circle  id="nonconn2" r="2.834" cx="62.741" cy="5.887"/>
      <circle  id="nonconn3" r="2.834" cx="4.347" cy="87.213"/>
     </g>
    </g>
   </g>
  </g>
  <g partID="142330">
   <line stroke-linecap="round" stroke="black" stroke-width="0.576" y1="42.7525" y2="45.4638" x1="82.2045" x2="80.7776"/>
  </g>
  <g partID="143490">
   <line stroke-linecap="round" stroke="black" stroke-width="1.152" y1="84.4703" y2="84.2387" x1="86.4809" x2="94.6744"/>
  </g>
  <g partID="143330">
   <line stroke-linecap="round" stroke="black" stroke-width="1.152" y1="96.2082" y2="84.4703" x1="78.3105" x2="86.481"/>
  </g>
  <g partID="143050">
   <line stroke-linecap="round" stroke="black" stroke-width="1.152" y1="108.406" y2="96.2082" x1="78.4255" x2="78.3104"/>
  </g>
  <g partID="142890">
   <line stroke-linecap="round" stroke="black" stroke-width="1.152" y1="108.406" y2="108.406" x1="68.2988" x2="78.4255"/>
  </g>
  <g partID="142730">
   <line stroke-linecap="round" stroke="black" stroke-width="1.152" y1="106.142" y2="108.406" x1="68.5956" x2="68.2988"/>
  </g>
  <g partID="142690">
   <line stroke-linecap="round" stroke="black" stroke-width="1.152" y1="100.414" y2="93.0993" x1="94.0824" x2="95.9946"/>
  </g>
  <g partID="142610">
   <line stroke-linecap="round" stroke="black" stroke-width="1.152" y1="103.583" y2="106.939" x1="87.7052" x2="95.8126"/>
  </g>
  <g partID="142570">
   <line stroke-linecap="round" stroke="black" stroke-width="0.576" y1="97.4155" y2="100.414" x1="101.357" x2="99.7179"/>
  </g>
  <g partID="142530">
   <line stroke-linecap="round" stroke="black" stroke-width="0.576" y1="74.9649" y2="97.4155" x1="101.044" x2="101.357"/>
  </g>
  <g partID="142490">
   <line stroke-linecap="round" stroke="black" stroke-width="0.576" y1="72.1688" y2="74.9649" x1="99.6147" x2="101.044"/>
  </g>
  <g partID="142450">
   <line stroke-linecap="round" stroke="black" stroke-width="0.576" y1="69.0086" y2="70.5932" x1="81.063" x2="82.5122"/>
  </g>
  <g partID="142410">
   <line stroke-linecap="round" stroke="black" stroke-width="0.576" y1="45.4638" y2="69.0086" x1="80.7776" x2="81.063"/>
  </g>
  <g partID="142370">
   <line stroke-linecap="round" stroke="black" stroke-width="0.576" y1="70.5932" y2="70.9634" x1="82.5122" x2="92.9026"/>
  </g>
  <g partID="142290">
   <line stroke-linecap="round" stroke="black" stroke-width="0.576" y1="42.7202" y2="42.7525" x1="84.3549" x2="82.2045"/>
  </g>
  <g partID="145170">
   <line stroke-linecap="round" stroke="black" stroke-width="0.576" y1="7.09964" y2="10.9251" x1="11.0121" x2="10.9935"/>
  </g>
  <g partID="152550">
   <line stroke-linecap="round" stroke="black" stroke-width="0.576" y1="27.9388" y2="39.0084" x1="79.1187" x2="79.333"/>
  </g>
  <g partID="148470">
   <line stroke-linecap="round" stroke="black" stroke-width="0.576" y1="39.0084" y2="41.3256" x1="79.333" x2="80.7776"/>
  </g>
  <g partID="147910">
   <line stroke-linecap="round" stroke="black" stroke-width="0.576" y1="26.8115" y2="27.9388" x1="79.6384" x2="79.1187"/>
  </g>
  <g partID="147450">
   <line stroke-linecap="round" stroke="black" stroke-width="0.576" y1="41.3256" y2="41.5428" x1="80.7776" x2="84.3549"/>
  </g>
  <g partID="146530">
   <line stroke-linecap="round" stroke="black" stroke-width="0.576" y1="23.8717" y2="25.9334" x1="80.1196" x2="80.0432"/>
  </g>
  <g partID="149480">
   <line stroke-linecap="round" stroke="black" stroke-width="1.152" y1="85.1263" y2="46.2137" x1="26.1986" x2="25.2093"/>
  </g>
  <g partID="149320">
   <line stroke-linecap="round" stroke="black" stroke-width="1.152" y1="89.7431" y2="89.7431" x1="47.9634" x2="30.6505"/>
  </g>
  <g partID="149160">
   <line stroke-linecap="round" stroke="black" stroke-width="1.152" y1="89.7431" y2="85.1264" x1="30.6506" x2="26.1987"/>
  </g>
  <g partID="149000">
   <line stroke-linecap="round" stroke="black" stroke-width="1.152" y1="29.3955" y2="26.6242" x1="25.0445" x2="20.9404"/>
  </g>
  <g partID="148840">
   <line stroke-linecap="round" stroke="black" stroke-width="1.152" y1="46.2137" y2="29.3955" x1="25.2094" x2="25.0445"/>
  </g>
  <g partID="148680">
   <line stroke-linecap="round" stroke="black" stroke-width="1.152" y1="26.6242" y2="26.7277" x1="20.9404" x2="14.8899"/>
  </g>
  <g partID="148510">
   <line stroke-linecap="round" stroke="black" stroke-width="1.152" y1="101.782" y2="89.7431" x1="53.7884" x2="47.9634"/>
  </g>
  <g partID="151990">
   <line stroke-linecap="round" stroke="black" stroke-width="0.576" y1="40.3267" y2="37.7604" x1="82.3472" x2="82.2327"/>
  </g>
  <g partID="151890">
   <line stroke-linecap="round" stroke="black" stroke-width="0.576" y1="3.94706" y2="4.22846" x1="71.7957" x2="7.9164"/>
  </g>
  <g partID="151850">
   <line stroke-linecap="round" stroke="black" stroke-width="0.576" y1="7.79928" y2="59.0282" x1="4.7744" x2="4.74277"/>
  </g>
  <g partID="151770">
   <line stroke-linecap="round" stroke="black" stroke-width="0.576" y1="59.0282" y2="61.4693" x1="4.7424" x2="6.15562"/>
  </g>
  <g partID="151730">
   <line stroke-linecap="round" stroke="black" stroke-width="0.576" y1="4.22848" y2="7.7993" x1="7.9168" x2="4.77447"/>
  </g>
  <g partID="151690">
   <line stroke-linecap="round" stroke="black" stroke-width="0.576" y1="61.4693" y2="61.5637" x1="6.156" x2="9.76853"/>
  </g>
  <g partID="151650">
   <line stroke-linecap="round" stroke="black" stroke-width="0.576" y1="40.4179" y2="40.3267" x1="84.3549" x2="82.3472"/>
  </g>
  <g partID="150400">
   <line stroke-linecap="round" stroke="black" stroke-width="1.152" y1="92.6887" y2="86.3934" x1="29.1527" x2="23.1144"/>
  </g>
  <g partID="150300">
   <line stroke-linecap="round" stroke="black" stroke-width="1.152" y1="86.3934" y2="65.5805" x1="23.1144" x2="22.8574"/>
  </g>
  <g partID="150200">
   <line stroke-linecap="round" stroke="black" stroke-width="1.152" y1="65.5805" y2="54.5316" x1="22.8574" x2="22.9859"/>
  </g>
  <g partID="150100">
   <line stroke-linecap="round" stroke="black" stroke-width="1.152" y1="54.5317" y2="52.2191" x1="22.9859" x2="20.9303"/>
  </g>
  <g partID="150000">
   <line stroke-linecap="round" stroke="black" stroke-width="1.152" y1="52.2191" y2="52.1197" x1="20.9303" x2="14.7263"/>
  </g>
  <g partID="149900">
   <line stroke-linecap="round" stroke="black" stroke-width="1.152" y1="102.479" y2="92.6887" x1="45.8336" x2="29.1527"/>
  </g>
  <g partID="149860">
   <line stroke-linecap="round" stroke="black" stroke-width="1.152" y1="35.7064" y2="45.2796" x1="12.8611" x2="11.4307"/>
  </g>
  <g partID="149740">
   <line stroke-linecap="round" stroke="black" stroke-width="0.576" y1="43.0668" y2="45.282" x1="19.2805" x2="17.4192"/>
  </g>
  <g partID="149640">
   <line stroke-linecap="round" stroke="black" stroke-width="0.576" y1="13.2432" y2="15.4172" x1="16.9104" x2="18.9793"/>
  </g>
  <g partID="154790">
   <line stroke-linecap="round" stroke="black" stroke-width="1.152" y1="102.905" y2="102.235" x1="41.4494" x2="13.0567"/>
  </g>
  <g partID="154690">
   <line stroke-linecap="round" stroke="black" stroke-width="1.152" y1="103.234" y2="102.905" x1="45.5959" x2="41.4494"/>
  </g>
  <g partID="154650">
   <line stroke-linecap="round" stroke="black" stroke-width="1.152" y1="90.6283" y2="95.389" x1="9.576" x2="9.62094"/>
  </g>
  <g partID="154610">
   <line stroke-linecap="round" stroke="black" stroke-width="1.152" y1="83.8065" y2="90.6283" x1="12.201" x2="9.57597"/>
  </g>
  <g partID="154570">
   <line stroke-linecap="round" stroke="black" stroke-width="0.576" y1="93.9337" y2="95.6587" x1="17.8398" x2="15.7496"/>
  </g>
  <g partID="154530">
   <line stroke-linecap="round" stroke="black" stroke-width="0.576" y1="64.6577" y2="93.9337" x1="18.1938" x2="17.8397"/>
  </g>
  <g partID="154490">
   <line stroke-linecap="round" stroke="black" stroke-width="0.576" y1="62.7568" y2="64.6577" x1="16.7613" x2="18.1937"/>
  </g>
  <g partID="153030">
   <line stroke-linecap="round" stroke="black" stroke-width="1.152" y1="74.8269" y2="74.9254" x1="5.46678" x2="11.0684"/>
  </g>
  <g partID="130060">
   <line stroke-linecap="round" stroke="black" stroke-width="0.576" y1="72.3924" y2="94.2064" x1="64.6334" x2="64.8758"/>
  </g>
  <g partID="129980">
   <line stroke-linecap="round" stroke="black" stroke-width="0.576" y1="94.2064" y2="102.229" x1="64.8758" x2="74.1824"/>
  </g>
  <g partID="129900">
   <line stroke-linecap="round" stroke="black" stroke-width="0.576" y1="55.4124" y2="66.5104" x1="72.2677" x2="68.8863"/>
  </g>
  <g partID="129820">
   <line stroke-linecap="round" stroke="black" stroke-width="0.576" y1="66.5104" y2="66.8221" x1="68.8862" x2="60.6633"/>
  </g>
  <g partID="127510">
   <line stroke-linecap="round" stroke="black" stroke-width="0.576" y1="67.8833" y2="72.3924" x1="60.4484" x2="64.6334"/>
  </g>
  <g partID="127390">
   <line stroke-linecap="round" stroke="black" stroke-width="0.576" y1="55.219" y2="55.4124" x1="75.5669" x2="72.2677"/>
  </g>
  <g partID="126070">
   <line stroke-linecap="round" stroke="black" stroke-width="0.576" y1="39.2104" y2="37.8271" x1="87.835" x2="89.2182"/>
  </g>
  <g partID="126030">
   <line stroke-linecap="round" stroke="black" stroke-width="0.576" y1="36.1375" y2="37.8953" x1="87.915" x2="86.9775"/>
  </g>
  <g partID="125990">
   <line stroke-linecap="round" stroke="black" stroke-width="0.576" y1="20.807" y2="23.3329" x1="85.73" x2="87.835"/>
  </g>
  <g partID="125950">
   <line stroke-linecap="round" stroke="black" stroke-width="0.576" y1="19.3636" y2="18.702" x1="87.5343" x2="44.9539"/>
  </g>
  <g partID="125910">
   <line stroke-linecap="round" stroke="black" stroke-width="0.576" y1="21.8895" y2="19.3636" x1="89.6393" x2="87.5343"/>
  </g>
  <g partID="125830">
   <line stroke-linecap="round" stroke="black" stroke-width="0.576" y1="21.5286" y2="19.7845" x1="44.5329" x2="46.0966"/>
  </g>
  <g partID="125790">
   <line stroke-linecap="round" stroke="black" stroke-width="0.576" y1="18.702" y2="20.5664" x1="44.9538" x2="43.0293"/>
  </g>
  <g partID="125710">
   <line stroke-linecap="round" stroke="black" stroke-width="0.576" y1="37.8953" y2="38.094" x1="86.9775" x2="85.5389"/>
  </g>
  <g partID="125670">
   <line stroke-linecap="round" stroke="black" stroke-width="0.576" y1="23.333" y2="36.1375" x1="87.835" x2="87.9149"/>
  </g>
  <g partID="125590">
   <line stroke-linecap="round" stroke="black" stroke-width="0.576" y1="37.8271" y2="21.8895" x1="89.2182" x2="89.6392"/>
  </g>
  <g partID="125540">
   <line stroke-linecap="round" stroke="black" stroke-width="0.576" y1="30.6399" y2="21.5286" x1="44.5244" x2="44.5329"/>
  </g>
  <g partID="125530">
   <line stroke-linecap="round" stroke="black" stroke-width="0.576" y1="19.7846" y2="20.807" x1="46.0966" x2="85.73"/>
  </g>
  <g partID="125470">
   <line stroke-linecap="round" stroke="black" stroke-width="0.576" y1="20.5664" y2="31.3738" x1="43.0294" x2="43.1065"/>
  </g>
  <g partID="125280">
   <line stroke-linecap="round" stroke="black" stroke-width="0.576" y1="39.2898" y2="39.2104" x1="85.5389" x2="87.835"/>
  </g>
  <g partID="130890">
   <line stroke-linecap="round" stroke="black" stroke-width="0.576" y1="49.6978" y2="47.8212" x1="41.6034" x2="42.9008"/>
  </g>
  <g partID="129390">
   <line stroke-linecap="round" stroke="black" stroke-width="0.576" y1="59.995" y2="51.2371" x1="33.1662" x2="40.4359"/>
  </g>
  <g partID="127750">
   <line stroke-linecap="round" stroke="black" stroke-width="0.576" y1="44.1578" y2="43.0676" x1="45.8384" x2="45.9158"/>
  </g>
  <g partID="127730">
   <line stroke-linecap="round" stroke="black" stroke-width="0.576" y1="47.8212" y2="44.1578" x1="42.9008" x2="45.8384"/>
  </g>
  <g partID="127610">
   <line stroke-linecap="round" stroke="black" stroke-width="0.576" y1="66.0696" y2="59.995" x1="33.1338" x2="33.1662"/>
  </g>
  <g partID="127770">
   <line stroke-linecap="round" stroke="black" stroke-width="1.152" y1="106.142" y2="110.593" x1="81.5063" x2="80.612"/>
  </g>
  <g partID="130160">
   <line stroke-linecap="round" stroke="black" stroke-width="1.152" y1="110.593" y2="106.366" x1="50.3468" x2="48.4304"/>
  </g>
  <g partID="127990">
   <line stroke-linecap="round" stroke="black" stroke-width="0.576" y1="64.0298" y2="64.0298" x1="47.5664" x2="45.8384"/>
  </g>
  <g partID="127970">
   <line stroke-linecap="round" stroke="black" stroke-width="0.576" y1="44.1578" y2="64.0298" x1="47.5664" x2="47.5664"/>
  </g>
  <g partID="127950">
   <line stroke-linecap="round" stroke="black" stroke-width="0.576" y1="42.8874" y2="44.1578" x1="47.3835" x2="47.5664"/>
  </g>
  <g partID="127930">
   <line stroke-linecap="round" stroke="black" stroke-width="1.152" y1="106.366" y2="105.038" x1="48.4304" x2="47.9547"/>
  </g>
  <g partID="127830">
   <line stroke-linecap="round" stroke="black" stroke-width="1.152" y1="110.593" y2="110.593" x1="80.612" x2="50.3469"/>
  </g>
  <g partID="128010">
   <line stroke-linecap="round" stroke="black" stroke-width="0.576" y1="64.0298" y2="66.0206" x1="45.8384" x2="44.5207"/>
  </g>
  <g partID="128090">
   <line stroke-linecap="round" stroke="black" stroke-width="0.576" y1="40.6115" y2="65.7578" x1="52.3247" x2="57.9344"/>
  </g>
  <g partID="128230">
   <line stroke-linecap="round" stroke="black" stroke-width="0.576" y1="65.7578" y2="66.0478" x1="57.9344" x2="58.3452"/>
  </g>
  <g partID="128250">
   <line stroke-linecap="round" stroke="black" stroke-width="0.864" y1="66.8991" y2="67.0048" x1="53.5263" x2="49.8252"/>
  </g>
  <g partID="128390">
   <line stroke-linecap="round" stroke="black" stroke-width="0.576" y1="70.0778" y2="70.0778" x1="40.6544" x2="46.7024"/>
  </g>
  <g partID="128310">
   <line stroke-linecap="round" stroke="black" stroke-width="0.576" y1="68.1042" y2="70.0778" x1="38.8681" x2="40.6544"/>
  </g>
  <g partID="128470">
   <line stroke-linecap="round" stroke="black" stroke-width="0.576" y1="33.5249" y2="33.6722" x1="52.9668" x2="56.7556"/>
  </g>
  <g partID="128510">
   <line stroke-linecap="round" stroke="black" stroke-width="0.576" y1="33.6722" y2="51.8775" x1="56.7555" x2="60.4614"/>
  </g>
  <g partID="130380">
   <line stroke-linecap="round" stroke="black" stroke-width="0.576" y1="51.8775" y2="56.0465" x1="60.4614" x2="61.1089"/>
  </g>
  <g partID="129590">
   <line stroke-linecap="round" stroke="black" stroke-width="0.576" y1="56.0466" y2="57.8837" x1="61.109" x2="61.2937"/>
  </g>
  <g partID="128410">
   <line stroke-linecap="round" stroke="black" stroke-width="0.576" y1="70.0778" y2="68.0552" x1="46.7024" x2="48.009"/>
  </g>
  <g partID="128770">
   <line stroke-linecap="round" stroke="black" stroke-width="0.864" y1="64.0945" y2="65.8486" x1="53.8832" x2="54.3909"/>
  </g>
  <g partID="137570">
   <line stroke-linecap="round" stroke="black" stroke-width="1.152" y1="63.1693" y2="53.6171" x1="96.997" x2="97.0194"/>
  </g>
  <g partID="134960">
   <line stroke-linecap="round" stroke="black" stroke-width="1.152" y1="36.4655" y2="45.9132" x1="96.1299" x2="94.4813"/>
  </g>
  <g partID="134880">
   <line stroke-linecap="round" stroke="black" stroke-width="0.576" y1="47.0082" y2="46.8934" x1="101.254" x2="100.448"/>
  </g>
  <g partID="134840">
   <line stroke-linecap="round" stroke="black" stroke-width="0.576" y1="16.4464" y2="47.0082" x1="102.053" x2="101.254"/>
  </g>
  <g partID="134800">
   <line stroke-linecap="round" stroke="black" stroke-width="0.576" y1="13.3191" y2="16.4464" x1="99.7582" x2="102.053"/>
  </g>
  <g partID="134760">
   <line stroke-linecap="round" stroke="black" stroke-width="0.576" y1="16.6462" y2="41.7148" x1="91.3664" x2="91.0668"/>
  </g>
  <g partID="134720">
   <line stroke-linecap="round" stroke="black" stroke-width="0.576" y1="43.7123" y2="43.8229" x1="88.47" x2="85.5389"/>
  </g>
  <g partID="134120">
   <line stroke-linecap="round" stroke="black" stroke-width="0.576" y1="41.7148" y2="43.7123" x1="91.0668" x2="88.47"/>
  </g>
  <g partID="134080">
   <line stroke-linecap="round" stroke="black" stroke-width="0.576" y1="13.3191" y2="16.6462" x1="93.3855" x2="91.3664"/>
  </g>
  <g partID="131910">
   <line stroke-linecap="round" stroke="black" stroke-width="1.152" y1="103.374" y2="103.374" x1="56.3264" x2="67.6304"/>
  </g>
  <g partID="131410">
   <line stroke-linecap="round" stroke="black" stroke-width="0.576" y1="69.2452" y2="56.3182" x1="69.1559" x2="73.1232"/>
  </g>
  <g partID="131250">
   <line stroke-linecap="round" stroke="black" stroke-width="0.576" y1="56.3182" y2="56.3183" x1="73.1232" x2="75.5669"/>
  </g>
  <g partID="137950">
   <line stroke-linecap="round" stroke="black" stroke-width="1.728" y1="103.26" y2="103.329" x1="85.4456" x2="83.3904"/>
  </g>
  <g partID="137810">
   <line stroke-linecap="round" stroke="black" stroke-width="1.728" y1="103.341" y2="103.213" x1="86.8117" x2="86.8117"/>
  </g>
 </g>
</svg>
