<?xml version='1.0' encoding='UTF-8' standalone='no'?>
<!-- Created with Fritzing (http://www.fritzing.org/) -->
<svg xmlns="http://www.w3.org/2000/svg"  version="1.2" xmlns:svg="http://www.w3.org/2000/svg" viewBox="0 0 107.537 115.368" width="1.49357in" x="0in" height="1.60234in" y="0in" baseProfile="tiny">
 <g partID="57361">
  <g id="silkscreen">
   <rect fill="none" stroke="black" stroke-width="0.576" width="106.961" height="114.792" x="0.288" y="0.288"/>
  </g>
 </g>
 <g partID="57360">
  <g id="board">
   <rect id="boardoutline" fill="none" stroke="black" stroke-width="0.5" fill-opacity="0.5" width="106.961" height="114.792" x="0.288" y="0.288"/>
  </g>
 </g>
 <g partID="120251">
  <g transform="translate(59.5984,98.3338)">
   <g transform="matrix(0,1,-1,0,0,0)">
    <g id="silkscreen">
     <line stroke="black" stroke-width="0.72" y1="1.44" y2="15.84" x1="1.44" x2="1.44"/>
     <line stroke="black" stroke-width="0.72" y1="15.84" y2="15.84" x1="1.44" x2="8.64"/>
     <line stroke="black" stroke-width="0.72" y1="15.84" y2="1.44" x1="8.64" x2="8.64"/>
     <line stroke="black" stroke-width="0.72" y1="1.44" y2="1.44" x1="8.64" x2="1.44"/>
     <line stroke="black" stroke-width="0.36" y1="3.96" y2="1.44" x1="1.44" x2="3.96"/>
     <!-- 120 -->
    </g>
   </g>
  </g>
 </g>
 <g partID="150961">
  <g transform="translate(17.876,87.1965)">
   <g transform="matrix(-1,0,0,-1,0,0)">
    <g id="silkscreen">
     <line stroke="black" stroke-width="0.72" y1="1.44" y2="15.84" x1="1.44" x2="1.44"/>
     <line stroke="black" stroke-width="0.72" y1="15.84" y2="15.84" x1="1.44" x2="8.64"/>
     <line stroke="black" stroke-width="0.72" y1="15.84" y2="1.44" x1="8.64" x2="8.64"/>
     <line stroke="black" stroke-width="0.72" y1="1.44" y2="1.44" x1="8.64" x2="1.44"/>
     <line stroke="black" stroke-width="0.36" y1="3.96" y2="1.44" x1="1.44" x2="3.96"/>
     <!-- 120 -->
    </g>
   </g>
  </g>
 </g>
 <g partID="144301">
  <g transform="translate(18.1624,38.9978)">
   <g transform="matrix(-1,0,0,-1,0,0)">
    <g id="silkscreen">
     <line stroke="black" stroke-width="0.72" y1="1.44" y2="15.84" x1="1.44" x2="1.44"/>
     <line stroke="black" stroke-width="0.72" y1="15.84" y2="15.84" x1="1.44" x2="8.64"/>
     <line stroke="black" stroke-width="0.72" y1="15.84" y2="1.44" x1="8.64" x2="8.64"/>
     <line stroke="black" stroke-width="0.72" y1="1.44" y2="1.44" x1="8.64" x2="1.44"/>
     <line stroke="black" stroke-width="0.36" y1="3.96" y2="1.44" x1="1.44" x2="3.96"/>
     <!-- 120 -->
    </g>
   </g>
  </g>
 </g>
 <g partID="138931">
  <g transform="translate(101.482,96.4288)">
   <g transform="matrix(-1,0,0,-1,0,0)">
    <g id="silkscreen">
     <line stroke="black" stroke-width="0.72" y1="1.44" y2="15.84" x1="1.44" x2="1.44"/>
     <line stroke="black" stroke-width="0.72" y1="15.84" y2="15.84" x1="1.44" x2="8.64"/>
     <line stroke="black" stroke-width="0.72" y1="15.84" y2="1.44" x1="8.64" x2="8.64"/>
     <line stroke="black" stroke-width="0.72" y1="1.44" y2="1.44" x1="8.64" x2="1.44"/>
     <line stroke="black" stroke-width="0.36" y1="3.96" y2="1.44" x1="1.44" x2="3.96"/>
     <!-- 120 -->
    </g>
   </g>
  </g>
 </g>
 <g partID="133431">
  <g transform="translate(101.474,39.7638)">
   <g transform="matrix(-1,0,0,-1,0,0)">
    <g id="silkscreen">
     <line stroke="black" stroke-width="0.72" y1="1.44" y2="15.84" x1="1.44" x2="1.44"/>
     <line stroke="black" stroke-width="0.72" y1="15.84" y2="15.84" x1="1.44" x2="8.64"/>
     <line stroke="black" stroke-width="0.72" y1="15.84" y2="1.44" x1="8.64" x2="8.64"/>
     <line stroke="black" stroke-width="0.72" y1="1.44" y2="1.44" x1="8.64" x2="1.44"/>
     <line stroke="black" stroke-width="0.36" y1="3.96" y2="1.44" x1="1.44" x2="3.96"/>
     <!-- 120 -->
    </g>
   </g>
  </g>
 </g>
 <g partID="150521">
  <g transform="translate(16.5794,103.493)">
   <g transform="matrix(-1,0,0,-1,0,0)">
    <g id="silkscreen">
     <line stroke-linecap="round" stroke="black" stroke-width="0.575999" y1="2.40944" y2="2.40944" x1="1.98878" x2="0.287999" class="other"/>
     <line stroke-linecap="round" stroke="black" stroke-width="0.575999" y1="2.40944" y2="4.67716" x1="0.287999" x2="0.287999" class="other"/>
     <line stroke-linecap="round" stroke="black" stroke-width="0.575999" y1="2.40944" y2="2.40944" x1="6.52421" x2="8.22499" class="other"/>
     <line stroke-linecap="round" stroke="black" stroke-width="0.575999" y1="2.40944" y2="4.67716" x1="8.22499" x2="8.22499" class="other"/>
    </g>
   </g>
  </g>
 </g>
 <g partID="143651">
  <g transform="translate(18.249,53.3835)">
   <g transform="matrix(-1,0,0,-1,0,0)">
    <g id="silkscreen">
     <line stroke-linecap="round" stroke="black" stroke-width="0.575999" y1="2.40944" y2="2.40944" x1="1.98878" x2="0.287999" class="other"/>
     <line stroke-linecap="round" stroke="black" stroke-width="0.575999" y1="2.40944" y2="4.67716" x1="0.287999" x2="0.287999" class="other"/>
     <line stroke-linecap="round" stroke="black" stroke-width="0.575999" y1="2.40944" y2="2.40944" x1="6.52421" x2="8.22499" class="other"/>
     <line stroke-linecap="round" stroke="black" stroke-width="0.575999" y1="2.40944" y2="4.67716" x1="8.22499" x2="8.22499" class="other"/>
    </g>
   </g>
  </g>
 </g>
 <g partID="138441">
  <g transform="translate(100.803,108.518)">
   <g transform="matrix(-1,0,0,-1,0,0)">
    <g id="silkscreen">
     <line stroke-linecap="round" stroke="black" stroke-width="0.575999" y1="2.40944" y2="2.40944" x1="1.98878" x2="0.287999" class="other"/>
     <line stroke-linecap="round" stroke="black" stroke-width="0.575999" y1="2.40944" y2="4.67716" x1="0.287999" x2="0.287999" class="other"/>
     <line stroke-linecap="round" stroke="black" stroke-width="0.575999" y1="2.40944" y2="2.40944" x1="6.52421" x2="8.22499" class="other"/>
     <line stroke-linecap="round" stroke="black" stroke-width="0.575999" y1="2.40944" y2="4.67716" x1="8.22499" x2="8.22499" class="other"/>
    </g>
   </g>
  </g>
 </g>
 <g partID="132121">
  <g transform="translate(101.278,54.0171)">
   <g transform="matrix(-1,0,0,-1,0,0)">
    <g id="silkscreen">
     <line stroke-linecap="round" stroke="black" stroke-width="0.575999" y1="2.40944" y2="2.40944" x1="1.98878" x2="0.287999" class="other"/>
     <line stroke-linecap="round" stroke="black" stroke-width="0.575999" y1="2.40944" y2="4.67716" x1="0.287999" x2="0.287999" class="other"/>
     <line stroke-linecap="round" stroke="black" stroke-width="0.575999" y1="2.40944" y2="2.40944" x1="6.52421" x2="8.22499" class="other"/>
     <line stroke-linecap="round" stroke="black" stroke-width="0.575999" y1="2.40944" y2="4.67716" x1="8.22499" x2="8.22499" class="other"/>
    </g>
   </g>
  </g>
 </g>
 <g partID="150801">
  <g transform="translate(8.8016,59.4718)">
   <g id="silkscreen">
    <rect id="silkscreen" stroke-width="0.283465" stroke="black" fill="none" stroke-opacity="1" width="9.07087" height="3.9685" x="0.141732" y="0.141732"/>
   </g>
  </g>
 </g>
 <g partID="144061">
  <g transform="translate(8.72,9.95816)">
   <g id="silkscreen">
    <rect id="silkscreen" stroke-width="0.283465" stroke="black" fill="none" stroke-opacity="1" width="9.07087" height="3.9685" x="0.141732" y="0.141732"/>
   </g>
  </g>
 </g>
 <g partID="138671">
  <g transform="translate(91.9357,68.8837)">
   <g id="silkscreen">
    <rect id="silkscreen" stroke-width="0.283465" stroke="black" fill="none" stroke-opacity="1" width="9.07087" height="3.9685" x="0.141732" y="0.141732"/>
   </g>
  </g>
 </g>
 <g partID="132881">
  <g transform="translate(91.8211,10.0341)">
   <g id="silkscreen">
    <rect id="silkscreen" stroke-width="0.283465" stroke="black" fill="none" stroke-opacity="1" width="9.07087" height="3.9685" x="0.141732" y="0.141732"/>
   </g>
  </g>
 </g>
 <g partID="62461">
  <g transform="translate(39.8386,30.239)">
   <g id="silkscreen" stroke-width="0">
    <g stroke-width="0">
     <title>element:E$1</title>
     <g stroke-width="0">
      <title>package:QFN-24</title>
      <line stroke-linecap="round" stroke="black" stroke-width="0.575998" y1="12.4733" y2="12.4733" x1="11.4882" x2="12.4804"/>
      <line stroke-linecap="round" stroke="black" stroke-width="0.575998" y1="11.4812" y2="12.4733" x1="12.4804" x2="12.4804"/>
      <line stroke-linecap="round" stroke="black" stroke-width="0.575998" y1="12.4733" y2="12.4733" x1="2.13391" x2="1.1418"/>
      <line stroke-linecap="round" stroke="black" stroke-width="0.575998" y1="12.4733" y2="11.4812" x1="1.1418" x2="1.1418"/>
      <line stroke-linecap="round" stroke="black" stroke-width="0.575998" y1="2.12684" y2="1.13471" x1="12.4804" x2="12.4804"/>
      <line stroke-linecap="round" stroke="black" stroke-width="0.575998" y1="1.13471" y2="1.13471" x1="12.4804" x2="11.4882"/>
      <line stroke-linecap="round" stroke="black" stroke-width="0.575998" y1="1.13471" y2="2.12684" x1="2.13391" x2="1.1418"/>
     </g>
    </g>
   </g>
  </g>
 </g>
 <g partID="62541">
  <g transform="translate(65.9344,82.6871)">
   <g transform="matrix(1,0,0,1,0,0)">
    <g id="silkscreen">
     <line stroke-linecap="round" stroke="black" stroke-width="0.576" y1="7.22268" y2="16.5827" x1="18.864" x2="18.864" class="other"/>
     <line stroke-linecap="round" stroke="black" stroke-width="0.576" y1="16.5827" y2="16.5827" x1="18.864" x2="0.288" class="other"/>
     <line stroke-linecap="round" stroke="black" stroke-width="0.576" y1="16.5827" y2="7.22268" x1="0.288" x2="0.288" class="other"/>
     <line stroke-linecap="round" stroke="black" stroke-width="0.576" y1="7.22268" y2="7.22268" x1="0.288" x2="18.864" class="other"/>
    </g>
   </g>
  </g>
 </g>
 <g partID="65101">
  <g transform="translate(31.5694,65.6696)">
   <g id="silkscreen">
    <line stroke-linecap="round" stroke="black" stroke-width="1.584" y1="1.33087" y2="1.50378" x1="3.9685" x2="3.9685" class="other"/>
   </g>
  </g>
 </g>
 <g partID="65081">
  <g transform="translate(61.0633,68.2833)">
   <g transform="matrix(-1,0,0,-1,0,0)">
    <g id="silkscreen">
     <line stroke-linecap="round" stroke="black" stroke-width="1.584" y1="1.33087" y2="1.50378" x1="3.9685" x2="3.9685" class="other"/>
    </g>
   </g>
  </g>
 </g>
 <g partID="65051">
  <g transform="translate(42.2882,65.6206)">
   <g id="silkscreen">
    <line stroke-linecap="round" stroke="black" stroke-width="1.584" y1="1.33087" y2="1.50378" x1="3.9685" x2="3.9685" class="other"/>
   </g>
  </g>
 </g>
 <g partID="57511">
  <g transform="translate(18.8609,7.3732)">
   <g id="silkscreen">
    <line stroke-linecap="round" fill="none" stroke="black" stroke-width="0.127" y1="58.867" y2="11.811" x1="57.44" x2="57.44"/>
    <line stroke-linecap="round" fill="none" stroke="black" stroke-width="0.127" y1="11.811" y2="11.811" x1="57.44" x2="65.944"/>
    <line stroke-linecap="round" fill="none" stroke="black" stroke-width="0.127" y1="11.811" y2="58.867" x1="65.944" x2="65.944"/>
    <line stroke-linecap="round" fill="none" stroke="black" stroke-width="0.127" y1="58.867" y2="58.867" x1="65.944" x2="57.44"/>
    <line stroke-linecap="round" fill="none" stroke="black" stroke-width="0.127" y1="0.274" y2="0.274" x1="71.046" x2="0.18"/>
    <line stroke-linecap="round" fill="none" stroke="black" stroke-width="0.127" y1="0.274" y2="100.905" x1="0.18" x2="0.18"/>
    <line stroke-linecap="round" fill="none" stroke="black" stroke-width="0.127" y1="100.905" y2="100.905" x1="0.18" x2="71.046"/>
    <line stroke-linecap="round" fill="none" stroke="black" stroke-width="0.127" y1="100.905" y2="0.274" x1="71.046" x2="71.046"/>
    <g transform="matrix(1, 0, 0, 1, 6.2976, 10.9587)">
     <text font-family="'OCRA'" font-size="4.68" fill="black">Intel Edison</text>
    </g>
    <g transform="matrix(1, 0, 0, 1, 24.586, 23.0575)">
     <g>
      <g transform="rotate(270)">
       <g>
        <g transform="matrix(1, 0, 0, 1, -33.4218, 45.1061)">
         <text font-family="'OCRA'" font-size="2.9952" fill="black">1</text>
        </g>
       </g>
      </g>
     </g>
    </g>
    <g transform="matrix(1, 0, 0, 1, 24.5385, 8.55)">
     <g>
      <g transform="rotate(270)">
       <g>
        <g transform="matrix(1, 0, 0, 1, -6.8033, 45.0189)">
         <text font-family="'OCRA'" font-size="2.9952" fill="black">69</text>
        </g>
       </g>
      </g>
     </g>
    </g>
    <g transform="matrix(1, 0, 0, 1, 19.741, 8.65)">
     <g>
      <g transform="rotate(270)">
       <g>
        <g transform="matrix(1, 0, 0, 1, -6.9875, 36.2167)">
         <text font-family="'OCRA'" font-size="2.9952" fill="black">70</text>
        </g>
       </g>
      </g>
     </g>
    </g>
    <g transform="matrix(1, 0, 0, 1, 19.741, 23.2025)">
     <g>
      <g transform="rotate(270)">
       <g>
        <g transform="matrix(1, 0, 0, 1, -33.6869, 36.2167)">
         <text font-family="'OCRA'" font-size="2.9952" fill="black">2</text>
        </g>
       </g>
      </g>
     </g>
    </g>
    <g transform="matrix(1, 0, 0, 1, 19.1835, 20.38)">
     <g>
      <g transform="rotate(270)">
       <g>
        <g transform="matrix(1, 0, 0, 1, -28.5084, 35.1942)">
         <text font-family="'OCRA'" font-size="2.2464" fill="black">DF40C-70DS-0.4V(51)</text>
        </g>
       </g>
      </g>
     </g>
    </g>
   </g>
  </g>
 </g>
 <g partID="57361">
  <g id="silkscreen">
   <rect fill="none" stroke="black" stroke-width="0.576" width="106.961" height="114.792" x="0.288" y="0.288"/>
  </g>
 </g>
 <g id="partLabel" partID="57510">
  <g transform="translate(54.1505,9.30648)">
   <g font-style="normal" font-family="'OCRA'" font-size="5" id="silkscreenLabel" fill="#000000" stroke="none" fill-opacity="1" font-weight="normal">
    <text x="0" y="3.75">U1</text>
   </g>
  </g>
 </g>
 <g id="partLabel" partID="62460">
  <g transform="translate(53.4537,24.639)">
   <g font-style="normal" font-family="'OCRA'" font-size="5" id="silkscreenLabel" fill="#000000" stroke="none" fill-opacity="1" font-weight="normal">
    <text x="0" y="3.75">IC1</text>
   </g>
  </g>
 </g>
 <g id="partLabel" partID="65100">
  <g transform="translate(32.1244,61.6074)">
   <g font-style="normal" font-family="'OCRA'" font-size="5" id="silkscreenLabel" fill="#000000" stroke="none" fill-opacity="1" font-weight="normal">
    <text x="0" y="3.75">C3</text>
   </g>
  </g>
 </g>
 <g id="partLabel" partID="62540">
  <g transform="translate(57.983,85.0384)">
   <g transform="matrix(0,-1,1,0,0,0)">
    <g font-style="normal" font-family="'OCRA'" font-size="5" id="silkscreenLabel" fill="#000000" stroke="none" fill-opacity="1" font-weight="normal">
     <text x="0" y="3.75">U2</text>
    </g>
   </g>
  </g>
 </g>
 <g id="partLabel" partID="65080">
  <g transform="translate(53.6158,60.9014)">
   <g font-style="normal" font-family="'OCRA'" font-size="5" id="silkscreenLabel" fill="#000000" stroke="none" fill-opacity="1" font-weight="normal">
    <text x="0" y="3.75">C2</text>
   </g>
  </g>
 </g>
 <g id="partLabel" partID="65050">
  <g transform="translate(42.7999,61.7623)">
   <g font-style="normal" font-family="'OCRA'" font-size="5" id="silkscreenLabel" fill="#000000" stroke="none" fill-opacity="1" font-weight="normal">
    <text x="0" y="3.75">C1</text>
   </g>
  </g>
 </g>
 <g id="partLabel" partID="150520">
  <g transform="translate(8.2736,104.974)">
   <g font-style="normal" font-family="'OCRA'" font-size="5" id="silkscreenLabel" fill="#000000" stroke="none" fill-opacity="1" font-weight="normal">
    <text x="0" y="3.75">Q4</text>
   </g>
  </g>
 </g>
 <g id="partLabel" partID="133430">
  <g transform="translate(93.066,39.3042)">
   <g font-style="normal" font-family="'OCRA'" font-size="5" id="silkscreenLabel" fill="#000000" stroke="none" fill-opacity="1" font-weight="normal">
    <text x="0" y="3.75">M1</text>
   </g>
  </g>
 </g>
 <g id="partLabel" partID="150960">
  <g transform="translate(9.4688,86.7368)">
   <g font-style="normal" font-family="'OCRA'" font-size="5" id="silkscreenLabel" fill="#000000" stroke="none" fill-opacity="1" font-weight="normal">
    <text x="0" y="3.75">M4</text>
   </g>
  </g>
 </g>
 <g id="partLabel" partID="144300">
  <g transform="translate(12.5808,38.2812)">
   <g font-style="normal" font-family="'OCRA'" font-size="5" id="silkscreenLabel" fill="#000000" stroke="none" fill-opacity="1" font-weight="normal">
    <text x="0" y="3.75">M3</text>
   </g>
  </g>
 </g>
 <g id="partLabel" partID="143650">
  <g transform="translate(9.9432,54.865)">
   <g font-style="normal" font-family="'OCRA'" font-size="5" id="silkscreenLabel" fill="#000000" stroke="none" fill-opacity="1" font-weight="normal">
    <text x="0" y="3.75">Q3</text>
   </g>
  </g>
 </g>
 <g id="partLabel" partID="138930">
  <g transform="translate(93.0738,95.9691)">
   <g font-style="normal" font-family="'OCRA'" font-size="5" id="silkscreenLabel" fill="#000000" stroke="none" fill-opacity="1" font-weight="normal">
    <text x="0" y="3.75">M2</text>
   </g>
  </g>
 </g>
 <g id="partLabel" partID="150800">
  <g transform="translate(10.0008,66.6873)">
   <g font-style="normal" font-family="'OCRA'" font-size="5" id="silkscreenLabel" fill="#000000" stroke="none" fill-opacity="1" font-weight="normal">
    <text x="0" y="3.75">R4</text>
   </g>
  </g>
 </g>
 <g id="partLabel" partID="132880">
  <g transform="translate(93.0201,17.2496)">
   <g font-style="normal" font-family="'OCRA'" font-size="5" id="silkscreenLabel" fill="#000000" stroke="none" fill-opacity="1" font-weight="normal">
    <text x="0" y="3.75">R1</text>
   </g>
  </g>
 </g>
 <g id="partLabel" partID="138440">
  <g transform="translate(92.4974,110)">
   <g font-style="normal" font-family="'OCRA'" font-size="5" id="silkscreenLabel" fill="#000000" stroke="none" fill-opacity="1" font-weight="normal">
    <text x="0" y="3.75">Q2</text>
   </g>
  </g>
 </g>
 <g id="partLabel" partID="138670">
  <g transform="translate(93.1346,76.0993)">
   <g font-style="normal" font-family="'OCRA'" font-size="5" id="silkscreenLabel" fill="#000000" stroke="none" fill-opacity="1" font-weight="normal">
    <text x="0" y="3.75">R2</text>
   </g>
  </g>
 </g>
 <g id="partLabel" partID="120250">
  <g transform="translate(55.9984,89.1338)">
   <g font-style="normal" font-family="'OCRA'" font-size="5" id="silkscreenLabel" fill="#000000" stroke="none" fill-opacity="1" font-weight="normal">
    <text x="0" y="3.75">J1</text>
   </g>
  </g>
 </g>
 <g id="partLabel" partID="132120">
  <g transform="translate(92.9724,55.4986)">
   <g font-style="normal" font-family="'OCRA'" font-size="5" id="silkscreenLabel" fill="#000000" stroke="none" fill-opacity="1" font-weight="normal">
    <text x="0" y="3.75">Q1</text>
   </g>
  </g>
 </g>
 <g id="partLabel" partID="144060">
  <g transform="translate(9.9192,17.1737)">
   <g font-style="normal" font-family="'OCRA'" font-size="5" id="silkscreenLabel" fill="#000000" stroke="none" fill-opacity="1" font-weight="normal">
    <text x="0" y="3.75">R3</text>
   </g>
  </g>
 </g>
 <g partID="145211">
  <g transform="translate(7.9992,3.11536)">
   <g id="copper1">
    <circle r="0.992124" id="connector0pin" fill="white" stroke-width="1.57039" stroke="white" cx="3.01733" cy="3.01733"/>
   </g>
  </g>
 </g>
 <g partID="148391">
  <g transform="translate(77.0259,22.9161)">
   <g id="copper1">
    <circle r="0.992124" id="connector0pin" fill="white" stroke-width="1.57039" stroke="white" cx="3.01733" cy="3.01733"/>
   </g>
  </g>
 </g>
 <g partID="149781">
  <g transform="translate(16.628,13.1003)">
   <g id="copper1">
    <circle r="0.992124" id="connector0pin" fill="white" stroke-width="1.57039" stroke="white" cx="3.01733" cy="3.01733"/>
   </g>
  </g>
 </g>
 <g partID="149821">
  <g transform="translate(16.8848,39.3092)">
   <g id="copper1">
    <circle r="0.992124" id="connector0pin" fill="white" stroke-width="1.57039" stroke="white" cx="3.01733" cy="3.01733"/>
   </g>
  </g>
 </g>
 <g partID="152471">
  <g transform="translate(79.1722,33.7771)">
   <g id="copper1">
    <circle r="0.992124" id="connector0pin" fill="white" stroke-width="1.57039" stroke="white" cx="3.01733" cy="3.01733"/>
   </g>
  </g>
 </g>
 <g partID="152511">
  <g transform="translate(69.7453,0.92552)">
   <g id="copper1">
    <circle r="0.992124" id="connector0pin" fill="white" stroke-width="1.57039" stroke="white" cx="3.01733" cy="3.01733"/>
   </g>
  </g>
 </g>
 <g partID="153231">
  <g transform="translate(1.4832,71.7925)">
   <g id="copper1">
    <circle r="0.992124" id="connector0pin" fill="white" stroke-width="1.57039" stroke="white" cx="3.01733" cy="3.01733"/>
   </g>
  </g>
 </g>
 <g partID="120252">
  <g transform="translate(59.5984,98.3338)">
   <g transform="matrix(0,1,-1,0,0,0)">
    <g id="copper1">
     <g id="copper0">
      <circle id="connector0pin" r="2.088" fill="white" stroke="white" stroke-width="2.16" cx="5.04" cy="5.04"/>
      <circle id="connector1pin" r="2.088" fill="white" stroke="white" stroke-width="2.16" cx="5.04" cy="12.24"/>
     </g>
    </g>
   </g>
  </g>
 </g>
 <g partID="128631">
  <g transform="translate(58.373,55.8284)">
   <g id="copper1">
    <circle r="0.992124" id="connector0pin" fill="white" stroke-width="1.57039" stroke="white" cx="3.01732" cy="3.01732"/>
   </g>
  </g>
 </g>
 <g partID="128751">
  <g transform="translate(50.597,60.1484)">
   <g id="copper1">
    <circle r="0.992124" id="connector0pin" fill="white" stroke-width="1.57039" stroke="white" cx="3.01732" cy="3.01732"/>
   </g>
  </g>
 </g>
 <g partID="130971">
  <g transform="translate(38.0362,47.4758)">
   <g id="copper1">
    <circle r="0.992124" id="connector0pin" fill="white" stroke-width="1.57039" stroke="white" cx="3.01733" cy="3.01733"/>
   </g>
  </g>
 </g>
 <g partID="131491">
  <g transform="translate(65.8548,67.1523)">
   <g id="copper1">
    <circle r="0.992124" id="connector0pin" fill="white" stroke-width="1.57039" stroke="white" cx="3.01733" cy="3.01733"/>
   </g>
  </g>
 </g>
 <g partID="150962">
  <g transform="translate(17.876,87.1965)">
   <g transform="matrix(-1,0,0,-1,0,0)">
    <g id="copper1">
     <g id="copper0">
      <rect id="square" fill="white" stroke="white" stroke-width="2.16" width="4.176" height="4.176" x="2.952" y="2.952"/>
      <circle id="connector0pin" r="2.088" fill="white" stroke="white" stroke-width="2.16" cx="5.04" cy="5.04"/>
      <circle id="connector1pin" r="2.088" fill="white" stroke="white" stroke-width="2.16" cx="5.04" cy="12.24"/>
     </g>
    </g>
   </g>
  </g>
 </g>
 <g partID="144302">
  <g transform="translate(18.1624,38.9978)">
   <g transform="matrix(-1,0,0,-1,0,0)">
    <g id="copper1">
     <g id="copper0">
      <rect id="square" fill="white" stroke="white" stroke-width="2.16" width="4.176" height="4.176" x="2.952" y="2.952"/>
      <circle id="connector0pin" r="2.088" fill="white" stroke="white" stroke-width="2.16" cx="5.04" cy="5.04"/>
      <circle id="connector1pin" r="2.088" fill="white" stroke="white" stroke-width="2.16" cx="5.04" cy="12.24"/>
     </g>
    </g>
   </g>
  </g>
 </g>
 <g partID="138932">
  <g transform="translate(101.482,96.4288)">
   <g transform="matrix(-1,0,0,-1,0,0)">
    <g id="copper1">
     <g id="copper0">
      <rect id="square" fill="white" stroke="white" stroke-width="2.16" width="4.176" height="4.176" x="2.952" y="2.952"/>
      <circle id="connector0pin" r="2.088" fill="white" stroke="white" stroke-width="2.16" cx="5.04" cy="5.04"/>
      <circle id="connector1pin" r="2.088" fill="white" stroke="white" stroke-width="2.16" cx="5.04" cy="12.24"/>
     </g>
    </g>
   </g>
  </g>
 </g>
 <g partID="133432">
  <g transform="translate(101.474,39.7638)">
   <g transform="matrix(-1,0,0,-1,0,0)">
    <g id="copper1">
     <g id="copper0">
      <rect id="square" fill="white" stroke="white" stroke-width="2.16" width="4.176" height="4.176" x="2.952" y="2.952"/>
      <circle id="connector0pin" r="2.088" fill="white" stroke="white" stroke-width="2.16" cx="5.04" cy="5.04"/>
      <circle id="connector1pin" r="2.088" fill="white" stroke="white" stroke-width="2.16" cx="5.04" cy="12.24"/>
     </g>
    </g>
   </g>
  </g>
 </g>
 <g partID="137631">
  <g transform="translate(93.9774,61.1189)">
   <g id="copper1">
    <circle r="0.992124" id="connector0pin" fill="white" stroke-width="1.57039" stroke="white" cx="3.01733" cy="3.01733"/>
   </g>
  </g>
 </g>
 <g partID="150520">
  <g transform="translate(16.5794,103.493)">
   <g transform="matrix(-1,0,0,-1,0,0)">
    <g id="copper1">
     <rect connectorname="1" id="connector0pad" stroke-linecap="round" stroke="white" stroke-width="0.72" fill="white" width="2.26771" x="0.429731" height="2.55118" y="5.95274"/>
     <rect connectorname="2" id="connector1pad" stroke-linecap="round" stroke="white" stroke-width="0.72" fill="white" width="2.26771" x="5.81555" height="2.55118" y="5.95274"/>
     <rect connectorname="3" id="connector2pad" stroke-linecap="round" stroke="white" stroke-width="0.72" fill="white" width="2.26771" x="3.12264" height="2.55118" y="0"/>
     <g id="copper0"/>
    </g>
   </g>
  </g>
 </g>
 <g partID="143650">
  <g transform="translate(18.249,53.3835)">
   <g transform="matrix(-1,0,0,-1,0,0)">
    <g id="copper1">
     <rect connectorname="1" id="connector0pad" stroke-linecap="round" stroke="white" stroke-width="0.72" fill="white" width="2.26771" x="0.429731" height="2.55118" y="5.95274"/>
     <rect connectorname="2" id="connector1pad" stroke-linecap="round" stroke="white" stroke-width="0.72" fill="white" width="2.26771" x="5.81555" height="2.55118" y="5.95274"/>
     <rect connectorname="3" id="connector2pad" stroke-linecap="round" stroke="white" stroke-width="0.72" fill="white" width="2.26771" x="3.12264" height="2.55118" y="0"/>
     <g id="copper0"/>
    </g>
   </g>
  </g>
 </g>
 <g partID="138440">
  <g transform="translate(100.803,108.518)">
   <g transform="matrix(-1,0,0,-1,0,0)">
    <g id="copper1">
     <rect connectorname="1" id="connector0pad" stroke-linecap="round" stroke="white" stroke-width="0.72" fill="white" width="2.26771" x="0.429731" height="2.55118" y="5.95274"/>
     <rect connectorname="2" id="connector1pad" stroke-linecap="round" stroke="white" stroke-width="0.72" fill="white" width="2.26771" x="5.81555" height="2.55118" y="5.95274"/>
     <rect connectorname="3" id="connector2pad" stroke-linecap="round" stroke="white" stroke-width="0.72" fill="white" width="2.26771" x="3.12264" height="2.55118" y="0"/>
     <g id="copper0"/>
    </g>
   </g>
  </g>
 </g>
 <g partID="132120">
  <g transform="translate(101.278,54.0171)">
   <g transform="matrix(-1,0,0,-1,0,0)">
    <g id="copper1">
     <rect connectorname="1" id="connector0pad" stroke-linecap="round" stroke="white" stroke-width="0.72" fill="white" width="2.26771" x="0.429731" height="2.55118" y="5.95274"/>
     <rect connectorname="2" id="connector1pad" stroke-linecap="round" stroke="white" stroke-width="0.72" fill="white" width="2.26771" x="5.81555" height="2.55118" y="5.95274"/>
     <rect connectorname="3" id="connector2pad" stroke-linecap="round" stroke="white" stroke-width="0.72" fill="white" width="2.26771" x="3.12264" height="2.55118" y="0"/>
     <g id="copper0"/>
    </g>
   </g>
  </g>
 </g>
 <g partID="138031">
  <g transform="translate(83.7944,100.196)">
   <g id="copper1">
    <circle r="0.992124" id="connector0pin" fill="white" stroke-width="1.57039" stroke="white" cx="3.01733" cy="3.01733"/>
   </g>
  </g>
 </g>
 <g partID="150800">
  <g transform="translate(8.8016,59.4718)">
   <g id="copper1">
    <rect id="connector0pad" stroke-width="0.72" stroke="white" fill="white" width="3.40157" fill-opacity="1" height="3.11811" x="0.566929" y="0.566929"/>
    <rect id="connector1pad" stroke-width="0.72" stroke="white" fill="white" width="3.40157" fill-opacity="1" height="3.11811" x="5.38583" y="0.566929"/>
   </g>
  </g>
 </g>
 <g partID="144060">
  <g transform="translate(8.72,9.95816)">
   <g id="copper1">
    <rect id="connector0pad" stroke-width="0.72" stroke="white" fill="white" width="3.40157" fill-opacity="1" height="3.11811" x="0.566929" y="0.566929"/>
    <rect id="connector1pad" stroke-width="0.72" stroke="white" fill="white" width="3.40157" fill-opacity="1" height="3.11811" x="5.38583" y="0.566929"/>
   </g>
  </g>
 </g>
 <g partID="138670">
  <g transform="translate(91.9357,68.8837)">
   <g id="copper1">
    <rect id="connector0pad" stroke-width="0.72" stroke="white" fill="white" width="3.40157" fill-opacity="1" height="3.11811" x="0.566929" y="0.566929"/>
    <rect id="connector1pad" stroke-width="0.72" stroke="white" fill="white" width="3.40157" fill-opacity="1" height="3.11811" x="5.38583" y="0.566929"/>
   </g>
  </g>
 </g>
 <g partID="132880">
  <g transform="translate(91.8211,10.0341)">
   <g id="copper1">
    <rect id="connector0pad" stroke-width="0.72" stroke="white" fill="white" width="3.40157" fill-opacity="1" height="3.11811" x="0.566929" y="0.566929"/>
    <rect id="connector1pad" stroke-width="0.72" stroke="white" fill="white" width="3.40157" fill-opacity="1" height="3.11811" x="5.38583" y="0.566929"/>
   </g>
  </g>
 </g>
 <g partID="62460">
  <g transform="translate(39.8386,30.239)">
   <g id="copper1" stroke-width="0">
    <g transform="matrix(-1, 0, 0, -1, 2.28358, 9.35604)">
     <g stroke-width="0">
      <rect id="connector1pad" fill="white" stroke="white" stroke-width="0.72" width="2.26771" x="0.00793696" height="0.850392" y="4.25282"/>
     </g>
    </g>
    <rect id="connector13pad" fill="white" stroke="white" stroke-width="0.72" width="2.26771" x="11.3466" height="0.850392" y="8.50478"/>
    <rect id="connector17pad" fill="white" stroke="white" stroke-width="0.72" width="2.26771" x="11.3466" height="0.850392" y="2.8355"/>
    <g transform="matrix(-1, 0, 0, -1, 2.28358, 12.1907)">
     <g stroke-width="0">
      <rect id="connector2pad" fill="white" stroke="white" stroke-width="0.72" width="2.26771" x="0.00793696" height="0.850392" y="5.67014"/>
     </g>
    </g>
    <g transform="matrix(0, -1, 1, 0, 4.9677, 7.23715)">
     <g stroke-width="0">
      <rect id="connector21pad" fill="white" stroke="white" stroke-width="0.72" width="2.26771" x="4.96855" height="0.850392" y="0.709512"/>
     </g>
    </g>
    <g transform="matrix(-1, 0, 0, -1, 2.28358, 15.0253)">
     <g stroke-width="0">
      <rect id="connector3pad" fill="white" stroke="white" stroke-width="0.72" width="2.26771" x="0.00793696" height="0.850392" y="7.08746"/>
     </g>
    </g>
    <rect id="connector15pad" fill="white" stroke="white" stroke-width="0.72" width="2.26771" x="11.3466" height="0.850392" y="5.67014"/>
    <g transform="matrix(-1, 0, 0, -1, 2.28358, 17.86)">
     <g stroke-width="0">
      <rect id="connector4pad" fill="white" stroke="white" stroke-width="0.72" width="2.26771" x="0.00793696" height="0.850392" y="8.50478"/>
     </g>
    </g>
    <g transform="matrix(0, -1, 1, 0, 7.80232, 10.0718)">
     <g stroke-width="0">
      <rect id="connector19pad" fill="white" stroke="white" stroke-width="0.72" width="2.26771" x="7.80319" height="0.850392" y="0.709512"/>
     </g>
    </g>
    <g transform="matrix(-1, 0, 0, -1, 2.28358, 20.6946)">
     <g stroke-width="0">
      <rect id="connector5pad" fill="white" stroke="white" stroke-width="0.72" width="2.26771" x="0.00793696" height="0.850392" y="9.9221"/>
     </g>
    </g>
    <g transform="matrix(0, -1, 1, 0, 2.13306, 4.40249)">
     <g stroke-width="0">
      <rect id="connector23pad" fill="white" stroke="white" stroke-width="0.72" width="2.26771" x="2.13391" height="0.850392" y="0.709512"/>
     </g>
    </g>
    <g transform="matrix(0, 1, -1, 0, 15.741, 9.20549)">
     <g stroke-width="0">
      <rect id="connector6pad" fill="white" stroke="white" stroke-width="0.72" width="2.26771" x="2.13391" height="0.850392" y="12.0481"/>
     </g>
    </g>
    <rect id="connector14pad" fill="white" stroke="white" stroke-width="0.72" width="2.26771" x="11.3466" height="0.850392" y="7.08746"/>
    <g transform="matrix(0, 1, -1, 0, 17.1583, 7.78817)">
     <g stroke-width="0">
      <rect id="connector7pad" fill="white" stroke="white" stroke-width="0.72" width="2.26771" x="3.55123" height="0.850392" y="12.0481"/>
     </g>
    </g>
    <rect id="connector16pad" fill="white" stroke="white" stroke-width="0.72" width="2.26771" x="11.3466" height="0.850392" y="4.25282"/>
    <g transform="matrix(0, 1, -1, 0, 18.5756, 6.37087)">
     <g stroke-width="0">
      <rect id="connector8pad" fill="white" stroke="white" stroke-width="0.72" width="2.26771" x="4.96855" height="0.850392" y="12.0481"/>
     </g>
    </g>
    <g transform="matrix(0, -1, 1, 0, 9.21964, 11.4891)">
     <g stroke-width="0">
      <rect id="connector18pad" fill="white" stroke="white" stroke-width="0.72" width="2.26771" x="9.22051" height="0.850392" y="0.709512"/>
     </g>
    </g>
    <g transform="matrix(0, 1, -1, 0, 19.9929, 4.95354)">
     <g stroke-width="0">
      <rect id="connector9pad" fill="white" stroke="white" stroke-width="0.72" width="2.26771" x="6.38587" height="0.850392" y="12.0481"/>
     </g>
    </g>
    <g transform="matrix(0, -1, 1, 0, 6.38502, 8.65447)">
     <g stroke-width="0">
      <rect id="connector20pad" fill="white" stroke="white" stroke-width="0.72" width="2.26771" x="6.38587" height="0.850392" y="0.709512"/>
     </g>
    </g>
    <g transform="matrix(0, 1, -1, 0, 21.4103, 3.53622)">
     <g stroke-width="0">
      <rect id="connector10pad" fill="white" stroke="white" stroke-width="0.72" width="2.26771" x="7.80319" height="0.850392" y="12.0481"/>
     </g>
    </g>
    <g transform="matrix(0, -1, 1, 0, 3.55038, 5.81981)">
     <g stroke-width="0">
      <rect id="connector22pad" fill="white" stroke="white" stroke-width="0.72" width="2.26771" x="3.55123" height="0.850392" y="0.709512"/>
     </g>
    </g>
    <g transform="matrix(0, 1, -1, 0, 22.8276, 2.1189)">
     <g stroke-width="0">
      <rect id="connector11pad" fill="white" stroke="white" stroke-width="0.72" width="2.26771" x="9.22051" height="0.850392" y="12.0481"/>
     </g>
    </g>
    <rect id="connector12pad" fill="white" stroke="white" stroke-width="0.72" width="2.26771" x="11.3466" height="0.850392" y="9.9221"/>
    <g transform="matrix(-1, 0, 0, -1, 2.28358, 6.52139)">
     <g stroke-width="0">
      <rect id="connector0pad" fill="white" stroke="white" stroke-width="0.72" width="2.26771" x="0.00793696" height="0.850392" y="2.8355"/>
     </g>
    </g>
   </g>
  </g>
 </g>
 <g partID="62540">
  <g transform="translate(65.9344,82.6871)">
   <g transform="matrix(1,0,0,1,0,0)">
    <g id="copper1">
     <rect connectorname="1" id="connector0pad" stroke-linecap="round" stroke="white" stroke-width="0.72" fill="white" width="3.456" x="1.296" height="6.336" y="17.5187"/>
     <rect connectorname="2" id="connector1pad" stroke-linecap="round" stroke="white" stroke-width="0.72" fill="white" width="3.456" x="7.848" height="6.336" y="17.5187"/>
     <rect connectorname="3" id="connector2pad" stroke-linecap="round" stroke="white" stroke-width="0.72" fill="white" width="3.456" x="14.4" height="6.336" y="17.5187"/>
     <rect connectorname="4" id="connector3pad" stroke-linecap="round" stroke="white" stroke-width="0.72" fill="white" width="10.2047" x="4.47364" height="6.23622" y="0"/>
     <g id="copper0"/>
    </g>
   </g>
  </g>
 </g>
 <g partID="65100">
  <g transform="translate(31.5694,65.6696)">
   <g id="copper1">
    <rect connectorname="1" id="connector0pad" stroke-linecap="round" stroke="white" stroke-width="0.72" fill="white" width="3.1181" x="0" height="2.83465" y="0"/>
    <rect connectorname="2" id="connector1pad" stroke-linecap="round" stroke="white" stroke-width="0.72" fill="white" width="3.1181" x="4.81889" height="2.83465" y="0"/>
    <g id="copper0"/>
   </g>
  </g>
 </g>
 <g partID="65080">
  <g transform="translate(61.0633,68.2833)">
   <g transform="matrix(-1,0,0,-1,0,0)">
    <g id="copper1">
     <rect connectorname="1" id="connector0pad" stroke-linecap="round" stroke="white" stroke-width="0.72" fill="white" width="3.1181" x="0" height="2.83465" y="0"/>
     <rect connectorname="2" id="connector1pad" stroke-linecap="round" stroke="white" stroke-width="0.72" fill="white" width="3.1181" x="4.81889" height="2.83465" y="0"/>
     <g id="copper0"/>
    </g>
   </g>
  </g>
 </g>
 <g partID="65050">
  <g transform="translate(42.2882,65.6206)">
   <g id="copper1">
    <rect connectorname="1" id="connector0pad" stroke-linecap="round" stroke="white" stroke-width="0.72" fill="white" width="3.1181" x="0" height="2.83465" y="0"/>
    <rect connectorname="2" id="connector1pad" stroke-linecap="round" stroke="white" stroke-width="0.72" fill="white" width="3.1181" x="4.81889" height="2.83465" y="0"/>
    <g id="copper0"/>
   </g>
  </g>
 </g>
 <g partID="57510">
  <g transform="translate(18.8609,7.3732)">
   <g id="copper1">
    <rect id="connector1pad" stroke-width="0.72" fill="white" stroke="white" width="1.983" x="56.306" height="0.567" y="54.331"/>
    <rect id="connector3pad" stroke-width="0.72" fill="white" stroke="white" width="1.983" x="56.306" height="0.567" y="53.197"/>
    <rect id="connector5pad" stroke-width="0.72" fill="white" stroke="white" width="1.983" x="56.306" height="0.566" y="52.063"/>
    <rect id="connector7pad" stroke-width="0.72" fill="white" stroke="white" width="1.983" x="56.306" height="0.566" y="50.929"/>
    <rect id="connector9pad" stroke-width="0.72" fill="white" stroke="white" width="1.983" x="56.306" height="0.567" y="49.796"/>
    <rect id="connector11pad" stroke-width="0.72" fill="white" stroke="white" width="1.983" x="56.306" height="0.566" y="48.662"/>
    <rect id="connector13pad" stroke-width="0.72" fill="white" stroke="white" width="1.983" x="56.306" height="0.566" y="47.528"/>
    <rect id="connector15pad" stroke-width="0.72" fill="white" stroke="white" width="1.983" x="56.306" height="0.565" y="46.394"/>
    <rect id="connector17pad" stroke-width="0.72" fill="white" stroke="white" width="1.983" x="56.306" height="0.565" y="45.26"/>
    <rect id="connector19pad" stroke-width="0.72" fill="white" stroke="white" width="1.983" x="56.306" height="0.566" y="44.127"/>
    <rect id="connector21pad" stroke-width="0.72" fill="white" stroke="white" width="1.983" x="56.306" height="0.566" y="42.993"/>
    <rect id="connector23pad" stroke-width="0.72" fill="white" stroke="white" width="1.983" x="56.306" height="0.565" y="41.859"/>
    <rect id="connector25pad" stroke-width="0.72" fill="white" stroke="white" width="1.983" x="56.306" height="0.566" y="40.724"/>
    <rect id="connector27pad" stroke-width="0.72" fill="white" stroke="white" width="1.983" x="56.306" height="0.567" y="39.591"/>
    <rect id="connector29pad" stroke-width="0.72" fill="white" stroke="white" width="1.983" x="56.306" height="0.567" y="38.457"/>
    <rect id="connector31pad" stroke-width="0.72" fill="white" stroke="white" width="1.983" x="56.306" height="0.567" y="37.323"/>
    <rect id="connector33pad" stroke-width="0.72" fill="white" stroke="white" width="1.983" x="56.306" height="0.566" y="36.189"/>
    <rect id="connector35pad" stroke-width="0.72" fill="white" stroke="white" width="1.983" x="56.306" height="0.566" y="35.055"/>
    <rect id="connector37pad" stroke-width="0.72" fill="white" stroke="white" width="1.983" x="56.306" height="0.567" y="33.922"/>
    <rect id="connector39pad" stroke-width="0.72" fill="white" stroke="white" width="1.983" x="56.306" height="0.567" y="32.788"/>
    <rect id="connector41pad" stroke-width="0.72" fill="white" stroke="white" width="1.983" x="56.306" height="0.566" y="31.654"/>
    <rect id="connector43pad" stroke-width="0.72" fill="white" stroke="white" width="1.983" x="56.306" height="0.565" y="30.52"/>
    <rect id="connector45pad" stroke-width="0.72" fill="white" stroke="white" width="1.983" x="56.306" height="0.565" y="29.386"/>
    <rect id="connector47pad" stroke-width="0.72" fill="white" stroke="white" width="1.983" x="56.306" height="0.566" y="28.253"/>
    <rect id="connector49pad" stroke-width="0.72" fill="white" stroke="white" width="1.983" x="56.306" height="0.566" y="27.119"/>
    <rect id="connector51pad" stroke-width="0.72" fill="white" stroke="white" width="1.983" x="56.306" height="0.566" y="25.985"/>
    <rect id="connector53pad" stroke-width="0.72" fill="white" stroke="white" width="1.983" x="56.306" height="0.565" y="24.851"/>
    <rect id="connector55pad" stroke-width="0.72" fill="white" stroke="white" width="1.983" x="56.306" height="0.567" y="23.717"/>
    <rect id="connector57pad" stroke-width="0.72" fill="white" stroke="white" width="1.983" x="56.306" height="0.567" y="22.583"/>
    <rect id="connector59pad" stroke-width="0.72" fill="white" stroke="white" width="1.983" x="56.306" height="0.567" y="21.449"/>
    <rect id="connector61pad" stroke-width="0.72" fill="white" stroke="white" width="1.983" x="56.306" height="0.566" y="20.315"/>
    <rect id="connector63pad" stroke-width="0.72" fill="white" stroke="white" width="1.983" x="56.306" height="0.566" y="19.181"/>
    <rect id="connector65pad" stroke-width="0.72" fill="white" stroke="white" width="1.983" x="56.306" height="0.567" y="18.048"/>
    <rect id="connector67pad" stroke-width="0.72" fill="white" stroke="white" width="1.983" x="56.306" height="0.567" y="16.914"/>
    <rect id="connector69pad" stroke-width="0.72" fill="white" stroke="white" width="1.983" x="56.306" height="0.566" y="15.78"/>
    <rect id="connector0pad" stroke-width="0.72" fill="white" stroke="white" width="1.984" x="65.094" height="0.567" y="54.331"/>
    <rect id="connector2pad" stroke-width="0.72" fill="white" stroke="white" width="1.984" x="65.094" height="0.567" y="53.197"/>
    <rect id="connector4pad" stroke-width="0.72" fill="white" stroke="white" width="1.984" x="65.094" height="0.566" y="52.063"/>
    <rect id="connector6pad" stroke-width="0.72" fill="white" stroke="white" width="1.984" x="65.094" height="0.566" y="50.929"/>
    <rect id="connector8pad" stroke-width="0.72" fill="white" stroke="white" width="1.984" x="65.094" height="0.567" y="49.796"/>
    <rect id="connector10pad" stroke-width="0.72" fill="white" stroke="white" width="1.984" x="65.094" height="0.566" y="48.662"/>
    <rect id="connector12pad" stroke-width="0.72" fill="white" stroke="white" width="1.984" x="65.094" height="0.566" y="47.528"/>
    <rect id="connector14pad" stroke-width="0.72" fill="white" stroke="white" width="1.984" x="65.094" height="0.565" y="46.394"/>
    <rect id="connector16pad" stroke-width="0.72" fill="white" stroke="white" width="1.984" x="65.094" height="0.565" y="45.26"/>
    <rect id="connector18pad" stroke-width="0.72" fill="white" stroke="white" width="1.984" x="65.094" height="0.566" y="44.127"/>
    <rect id="connector20pad" stroke-width="0.72" fill="white" stroke="white" width="1.984" x="65.094" height="0.566" y="42.993"/>
    <rect id="connector22pad" stroke-width="0.72" fill="white" stroke="white" width="1.984" x="65.094" height="0.565" y="41.859"/>
    <rect id="connector24pad" stroke-width="0.72" fill="white" stroke="white" width="1.984" x="65.094" height="0.566" y="40.724"/>
    <rect id="connector26pad" stroke-width="0.72" fill="white" stroke="white" width="1.984" x="65.094" height="0.567" y="39.591"/>
    <rect id="connector28pad" stroke-width="0.72" fill="white" stroke="white" width="1.984" x="65.094" height="0.567" y="38.457"/>
    <rect id="connector30pad" stroke-width="0.72" fill="white" stroke="white" width="1.984" x="65.094" height="0.567" y="37.323"/>
    <rect id="connector32pad" stroke-width="0.72" fill="white" stroke="white" width="1.984" x="65.094" height="0.566" y="36.189"/>
    <rect id="connector34pad" stroke-width="0.72" fill="white" stroke="white" width="1.984" x="65.094" height="0.566" y="35.055"/>
    <rect id="connector36pad" stroke-width="0.72" fill="white" stroke="white" width="1.984" x="65.094" height="0.567" y="33.922"/>
    <rect id="connector38pad" stroke-width="0.72" fill="white" stroke="white" width="1.984" x="65.094" height="0.567" y="32.788"/>
    <rect id="connector40pad" stroke-width="0.72" fill="white" stroke="white" width="1.984" x="65.094" height="0.566" y="31.654"/>
    <rect id="connector42pad" stroke-width="0.72" fill="white" stroke="white" width="1.984" x="65.094" height="0.565" y="30.52"/>
    <rect id="connector44pad" stroke-width="0.72" fill="white" stroke="white" width="1.984" x="65.094" height="0.565" y="29.386"/>
    <rect id="connector46pad" stroke-width="0.72" fill="white" stroke="white" width="1.984" x="65.094" height="0.566" y="28.253"/>
    <rect id="connector48pad" stroke-width="0.72" fill="white" stroke="white" width="1.984" x="65.094" height="0.566" y="27.119"/>
    <rect id="connector50pad" stroke-width="0.72" fill="white" stroke="white" width="1.984" x="65.094" height="0.566" y="25.985"/>
    <rect id="connector52pad" stroke-width="0.72" fill="white" stroke="white" width="1.984" x="65.094" height="0.565" y="24.851"/>
    <rect id="connector54pad" stroke-width="0.72" fill="white" stroke="white" width="1.984" x="65.094" height="0.567" y="23.717"/>
    <rect id="connector56pad" stroke-width="0.72" fill="white" stroke="white" width="1.984" x="65.094" height="0.567" y="22.583"/>
    <rect id="connector58pad" stroke-width="0.72" fill="white" stroke="white" width="1.984" x="65.094" height="0.567" y="21.449"/>
    <rect id="connector60pad" stroke-width="0.72" fill="white" stroke="white" width="1.984" x="65.094" height="0.566" y="20.315"/>
    <rect id="connector62pad" stroke-width="0.72" fill="white" stroke="white" width="1.984" x="65.094" height="0.566" y="19.181"/>
    <rect id="connector64pad" stroke-width="0.72" fill="white" stroke="white" width="1.984" x="65.094" height="0.567" y="18.048"/>
    <rect id="connector66pad" stroke-width="0.72" fill="white" stroke="white" width="1.984" x="65.094" height="0.567" y="16.914"/>
    <rect id="connector68pad" stroke-width="0.72" fill="white" stroke="white" width="1.984" x="65.094" height="0.566" y="15.78"/>
    <circle id="nonconn0" r="2.834" cx="62.741" cy="5.887"/>
    <circle id="nonconn1" r="2.834" cx="4.347" cy="87.213"/>
    <g id="copper0">
     <circle id="nonconn2" r="2.834" cx="62.741" cy="5.887"/>
     <circle id="nonconn3" r="2.834" cx="4.347" cy="87.213"/>
    </g>
   </g>
  </g>
 </g>
</svg>
